<svg width="244" height="241" viewBox="0 0 244 241" fill="none" xmlns="http://www.w3.org/2000/svg"><path fill-rule="evenodd" clip-rule="evenodd" d="M116.49 9.18c14.49 3.06 23.6 17.05 36.75 23.82 12.7 6.55 29.2 19.2 41.79 25.96 17.4 9.33 48.12 12.35 48.95 31.96.93 21.86-38 25.84-45.62 46.37-6.22 16.76 10.82 24.21 6.73 41.6-4.33 18.46-16.53 35.31-32.16 46.2-16.19 11.25-36.81 17.74-56.44 15.45-19.35-2.25-34.1-17.31-50.41-27.9-14.67-9.5-34.27-15.43-41.11-31.44-7.05-16.5 11.55-36.13 5.09-52.87C22.01 107.48-.14 100.45 0 78.13c.12-19.88 14.53-25.5 30.59-37.37 12.98-9.6 25.58-19.47 40.76-25.05 14.44-5.3 30.08-9.71 45.14-6.53z" fill="#EBF5F5"/><g clip-path="url(#clip0)"><path d="M137.33 9.07l-2.02 4.37-19.3 132.6 1.15 1.53 67.47-27.31-47.3-111.2z" fill="#343434"/><path d="M137.33 9.07L60.3 102.13l56.87 45.44 9.38-64.35 10.8-74.15z" fill="#8C8C8C"/><path d="M115.47 159.23l-.9.8-6.88 47.24.44 2.33 74.84-77.66-67.5 27.29z" fill="#3C3C3B"/><path d="M108.13 209.6l7.34-50.37-56.88-45.43 49.54 95.8z" fill="#8C8C8C"/><path d="M117.16 147.57l67.47-27.31-58.1-37.04-9.37 64.35z" fill="#141414"/><path d="M60.3 102.13l56.86 45.44 9.38-64.35-66.25 18.9z" fill="#393939"/></g><defs><clipPath id="clip0"><path fill="#fff" transform="rotate(8.3 37.58 518.09) skewX(.01)" d="M0 0h125.69v202.69H0z"/></clipPath></defs></svg>