<svg width="332" height="200" viewBox="0 0 332 200" fill="none" xmlns="http://www.w3.org/2000/svg"><g clip-path="url(#clip0)"><rect x="175.072" y="12" width="87" height="17" rx="8.5" fill="#000"/><path d="M190.632 18.19V24h-1.32v-5.81h-1.98v-1.17h5.28v1.17h-1.98zm6.726 5.81l-.56-1.78h-2.48l-.55 1.78h-1.34l2.34-6.98h1.64l2.32 6.98h-1.37zm-1.78-5.78h-.05l-.89 2.87h1.84l-.9-2.87zm6.429 2.62l-.93 1.1V24h-1.32v-6.98h1.32v3.44h.05l.99-1.31 1.73-2.13h1.52l-2.43 2.91 2.63 4.07h-1.57l-1.99-3.16zm4.527 3.16v-6.98h4.6v1.17h-3.28v1.69h2.9v1.17h-2.9v1.78h3.28V24h-4.6zm8.359 0v-6.98h3.14c.32 0 .607.0533.86.16.26.1.48.2467.66.44.18.1867.317.4133.41.68.094.2667.14.56.14.88 0 .3267-.046.6233-.14.89-.093.26-.23.4867-.41.68-.18.1867-.4.3333-.66.44-.253.1-.54.15-.86.15h-1.82V24h-1.32zm1.32-3.8h1.7c.254 0 .454-.0667.6-.2.147-.14.22-.3367.22-.59v-.46c0-.2533-.073-.4467-.22-.58-.146-.1333-.346-.2-.6-.2h-1.7v2.03zm6.407 3.8h-1.32v-6.98h3.15c.32 0 .606.05.86.15.253.1.466.2467.64.44.18.1867.316.4133.41.68.1.2667.15.5633.15.89 0 .48-.11.8933-.33 1.24-.214.3467-.537.5933-.97.74l1.43 2.84h-1.47l-1.3-2.69h-1.25V24zm1.7-3.8c.253 0 .453-.0667.6-.2.146-.14.22-.3367.22-.59v-.46c0-.2533-.074-.4467-.22-.58-.147-.1333-.347-.2-.6-.2h-1.7v2.03h1.7zm6.263 3.92c-.46 0-.877-.0767-1.25-.23a2.5187 2.5187 0 01-.96-.69c-.26-.3067-.464-.6833-.61-1.13-.147-.4467-.22-.9667-.22-1.56 0-.5867.073-1.1033.22-1.55.146-.4533.35-.8333.61-1.14.266-.3067.586-.5367.96-.69.373-.1533.79-.23 1.25-.23.46 0 .876.0767 1.25.23.373.1533.693.3833.96.69.266.3067.47.6867.61 1.14.146.4467.22.9633.22 1.55 0 .5933-.074 1.1133-.22 1.56-.14.4467-.344.8233-.61 1.13-.267.3067-.587.5367-.96.69-.374.1533-.79.23-1.25.23zm0-1.17c.5 0 .896-.1667 1.19-.5.3-.3333.45-.8.45-1.4v-1.08c0-.6-.15-1.0667-.45-1.4-.294-.3333-.69-.5-1.19-.5s-.9.1667-1.2.5c-.294.3333-.44.8-.44 1.4v1.08c0 .6.146 1.0667.44 1.4.3.3333.7.5 1.2.5zm4.379 1.05v-6.98h4.49v1.17h-3.17v1.69h2.76v1.17h-2.76V24h-1.32zm5.481 0v-1.06h.92v-4.86h-.92v-1.06h3.17v1.06h-.93v4.86h.93V24h-3.17zm7.21-5.81V24h-1.32v-5.81h-1.98v-1.17h5.28v1.17h-1.98z" fill="#fff"/><rect x="66.0148" y="24" width="87" height="17" rx="8.5" fill="#000"/><path d="M81.5748 30.19V36h-1.32v-5.81h-1.98v-1.17h5.28v1.17h-1.98zM88.3013 36l-.56-1.78h-2.48l-.55 1.78h-1.34l2.34-6.98h1.64l2.32 6.98h-1.37zm-1.78-5.78h-.05l-.89 2.87h1.84l-.9-2.87zm6.4287 2.62l-.93 1.1V36H90.7v-6.98h1.32v3.44h.05l.99-1.31 1.73-2.13h1.52l-2.43 2.91L96.51 36h-1.57l-1.99-3.16zM97.4773 36v-6.98h4.5997v1.17h-3.2797v1.69h2.8997v1.17h-2.8997v1.78h3.2797V36h-4.5997zm8.3597 0v-6.98h3.14c.32 0 .606.0533.86.16.26.1.48.2467.66.44.18.1867.316.4133.41.68.093.2667.14.56.14.88 0 .3267-.047.6233-.14.89-.094.26-.23.4867-.41.68-.18.1867-.4.3333-.66.44-.254.1-.54.15-.86.15h-1.82V36h-1.32zm1.32-3.8h1.7c.253 0 .453-.0667.6-.2.146-.14.22-.3367.22-.59v-.46c0-.2533-.074-.4467-.22-.58-.147-.1333-.347-.2-.6-.2h-1.7v2.03zm6.406 3.8h-1.32v-6.98h3.15c.32 0 .607.05.86.15.253.1.467.2467.64.44.18.1867.317.4133.41.68.1.2667.15.5633.15.89 0 .48-.11.8933-.33 1.24-.213.3467-.537.5933-.97.74l1.43 2.84h-1.47l-1.3-2.69h-1.25V36zm1.7-3.8c.253 0 .453-.0667.6-.2.147-.14.22-.3367.22-.59v-.46c0-.2533-.073-.4467-.22-.58-.147-.1333-.347-.2-.6-.2h-1.7v2.03h1.7zm6.263 3.92c-.46 0-.877-.0767-1.25-.23s-.693-.3833-.96-.69c-.26-.3067-.463-.6833-.61-1.13-.147-.4467-.22-.9667-.22-1.56 0-.5867.073-1.1033.22-1.55.147-.4533.35-.8333.61-1.14.267-.3067.587-.5367.96-.69s.79-.23 1.25-.23c.46 0 .877.0767 1.25.23s.693.3833.96.69.47.6867.61 1.14c.147.4467.22.9633.22 1.55 0 .5933-.073 1.1133-.22 1.56-.14.4467-.343.8233-.61 1.13-.267.3067-.587.5367-.96.69s-.79.23-1.25.23zm0-1.17c.5 0 .897-.1667 1.19-.5.3-.3333.45-.8.45-1.4v-1.08c0-.6-.15-1.0667-.45-1.4-.293-.3333-.69-.5-1.19-.5s-.9.1667-1.2.5c-.293.3333-.44.8-.44 1.4v1.08c0 .6.147 1.0667.44 1.4.3.3333.7.5 1.2.5zm4.379 1.05v-6.98h4.49v1.17h-3.17v1.69h2.76v1.17h-2.76V36h-1.32zm5.482 0v-1.06h.92v-4.86h-.92v-1.06h3.17v1.06h-.93v4.86h.93V36h-3.17zm7.209-5.81V36h-1.32v-5.81h-1.98v-1.17h5.28v1.17h-1.98z" fill="#fff"/><path d="M58.5912 119.25a.734.734 0 00-1.0371 0l-23.1589 23.159c-.2864.287-.2864.751 0 1.037l23.1589 23.159a.734.734 0 001.0371 0L81.75 143.446c.2864-.286.2865-.75 0-1.037L58.5912 119.25z" fill="#000"/><path d="M47.765 142.97c0 5.669 4.5961 10.265 10.2655 10.265 5.6695 0 10.2655-4.596 10.2655-10.265 0-5.67-4.596-10.266-10.2655-10.266-5.6694 0-10.2655 4.596-10.2655 10.266z" fill="#fff"/><path fill-rule="evenodd" clip-rule="evenodd" d="M58.3158 177.348c-19.3018 0-34.949-15.647-34.949-34.949s15.6472-34.949 34.949-34.949c19.3019 0 34.9491 15.647 34.9491 34.949s-15.6472 34.949-34.9491 34.949zm0 14.668c-27.4024 0-49.6165-22.214-49.6165-49.617 0-27.402 22.2141-49.6163 49.6165-49.6163 27.4025 0 49.6162 22.2143 49.6162 49.6163 0 27.403-22.2137 49.617-49.6162 49.617z" fill="#000"/><path fill-rule="evenodd" clip-rule="evenodd" d="M58.1731 172.747c-16.6821 0-30.2057-13.523-30.2057-30.205s13.5236-30.206 30.2057-30.206c16.6822 0 30.2057 13.524 30.2057 30.206 0 16.682-13.5235 30.205-30.2057 30.205zm0 .734c-17.0871 0-30.939-13.852-30.939-30.939s13.8519-30.939 30.939-30.939c17.0872 0 30.9391 13.852 30.9391 30.939s-13.8519 30.939-30.9391 30.939z" fill="#000"/><path fill-rule="evenodd" clip-rule="evenodd" d="M58.3157 199.267c-31.2496 0-56.5823-25.333-56.5823-56.583 0-31.249 25.3327-56.5819 56.5823-56.5819 31.2495 0 56.5823 25.3329 56.5823 56.5819 0 31.25-25.3328 56.583-56.5823 56.583zm0 .733C26.6611 200 1 174.339 1 142.684c0-31.654 25.6611-57.3153 57.3157-57.3153S115.631 111.03 115.631 142.684c0 31.655-25.6607 57.316-57.3153 57.316z" fill="#000"/><path fill-rule="evenodd" clip-rule="evenodd" d="M58.0306 197.556c-30.1471 0-54.5862-24.439-54.5862-54.586s24.4391-54.5865 54.5862-54.5865c30.1472 0 54.5864 24.4395 54.5864 54.5865 0 30.147-24.4392 54.586-54.5864 54.586zm0 .733c-30.5522 0-55.3196-24.767-55.3196-55.319 0-30.552 24.7674-55.3199 55.3196-55.3199 30.5522 0 55.3194 24.7679 55.3194 55.3199 0 30.552-24.7672 55.319-55.3194 55.319z" fill="#000"/><path d="M313.437 92.519l-35.007 39.699c-.232.263-.492.509-.814.648-.955.409-2.066.284-2.908-.343-.16-.12-.294-.27-.42-.426l-53.034-65.7917c-1.464-1.816-4.165-1.9993-5.861-.3977l-49.196 46.4634c-1.002.889-2.479.987-3.589.237l-49.642-36.365c-1.629-1.1935-3.893-.9852-5.277.4856L79.4579 106.728" stroke="#000" stroke-width="2" stroke-linecap="round" stroke-linejoin="round"/><path d="M102.514 54.287c0 3.9372 7.129 13.5448 7.129 13.5448s7.129-9.6076 7.129-13.5448c0-3.9371-3.192-7.1288-7.129-7.1288-3.937 0-7.129 3.1917-7.129 7.1288z" fill="#000"/><path d="M268.758 109.497c0 3.938 7.129 13.545 7.129 13.545s7.129-9.607 7.129-13.545c0-3.937-3.192-7.128-7.129-7.128-3.937 0-7.129 3.191-7.129 7.128z" fill="#000"/><path d="M156.979 90.2164c0 3.9371 7.128 13.5446 7.128 13.5446s7.129-9.6075 7.129-13.5446c0-3.9371-3.191-7.1288-7.129-7.1288-3.937 0-7.128 3.1917-7.128 7.1288z" fill="#000"/><path d="M211.443 42.5959c0 3.9371 7.129 13.5447 7.129 13.5447s7.128-9.6076 7.128-13.5447c0-3.9372-3.191-7.1289-7.128-7.1289-3.938 0-7.129 3.1917-7.129 7.1289z" fill="#000"/><path d="M105.366 54.287c0 2.3623 1.915 4.2773 4.277 4.2773 2.363 0 4.278-1.915 4.278-4.2773 0-2.3623-1.915-4.2773-4.278-4.2773-2.362 0-4.277 1.915-4.277 4.2773z" fill="#fff"/><path d="M214.294 42.5956c0 2.3623 1.915 4.2773 4.278 4.2773 2.362 0 4.277-1.915 4.277-4.2773 0-2.3623-1.915-4.2773-4.277-4.2773-2.363 0-4.278 1.915-4.278 4.2773z" fill="#fff"/><path d="M271.61 109.498c0 2.362 1.915 4.277 4.277 4.277s4.277-1.915 4.277-4.277c0-2.363-1.915-4.278-4.277-4.278s-4.277 1.915-4.277 4.278z" fill="#fff"/><path d="M159.83 90.2164c0 2.3623 1.915 4.2773 4.277 4.2773 2.363 0 4.278-1.915 4.278-4.2773 0-2.3623-1.915-4.2773-4.278-4.2773-2.362 0-4.277 1.915-4.277 4.2773z" fill="#fff"/><path d="M107.218 55.8917l2.425-2.1499 2.425 2.1499c.162.1431.415.1415.574-.0037l.012-.0111c.168-.1526.168-.4046 0-.5572l-3.011-2.7436-3.011 2.7436c-.167.1526-.167.4046 0 .5572l.012.0111c.16.1452.413.1468.574.0037z" fill="#000"/><path d="M216.147 44.2003l2.425-2.1499 2.425 2.1499c.161.1431.414.1415.574-.0037l.012-.011c.167-.1526.167-.4046 0-.5572l-3.011-2.7436-3.012 2.7436c-.167.1526-.167.4046 0 .5572l.013.011c.159.1452.412.1468.574.0037z" fill="#000"/><path d="M161.682 88.6116l2.425 2.1499 2.425-2.1499c.162-.1431.415-.1415.574.0037l.012.0111c.168.1526.168.4046 0 .5572l-3.011 2.7436-3.011-2.7436c-.167-.1526-.167-.4046 0-.5572l.012-.0111c.16-.1452.413-.1468.574-.0037z" fill="#000"/><path d="M273.462 107.893l2.425 2.15 2.425-2.15c.162-.143.415-.142.574.004l.012.011c.168.152.168.404 0 .557l-3.011 2.743-3.011-2.743c-.167-.153-.167-.405 0-.557l.012-.011c.16-.146.413-.147.574-.004z" fill="#000"/><path stroke="#000" d="M164.5 113v86"/><path stroke="#000" d="M180.5 98v101"/><path stroke="#000" d="M196.5 83v116"/><path stroke="#000" d="M212.5 68v131"/><path stroke="#000" d="M228.5 76v123"/><path stroke="#000" d="M244.5 95v104"/><path stroke="#000" d="M260.5 115v84"/><path stroke="#000" d="M276.5 134v65"/><path stroke="#000" d="M148.5 102v97"/><path stroke="#000" d="M132.5 90v109"/><rect x="126.107" y="122" width="76" height="17" rx="8.5" fill="#000"/><path d="M141.097 134.12c-.6 0-1.11-.107-1.53-.32-.413-.213-.77-.493-1.07-.84l.89-.86c.24.28.507.493.8.64.3.147.63.22.99.22.407 0 .714-.087.92-.26.207-.18.31-.42.31-.72 0-.233-.066-.423-.2-.57-.133-.147-.383-.253-.75-.32l-.66-.1c-1.393-.22-2.09-.897-2.09-2.03 0-.313.057-.597.17-.85.12-.253.29-.47.51-.65.22-.18.484-.317.79-.41.314-.1.667-.15 1.06-.15.527 0 .987.087 1.38.26.394.173.73.43 1.01.77l-.9.85a2.0647 2.0647 0 00-.63-.52c-.246-.133-.556-.2-.93-.2-.38 0-.666.073-.86.22-.186.14-.28.34-.28.6 0 .267.077.463.23.59.154.127.4.22.74.28l.65.12c.707.127 1.227.353 1.56.68.34.32.51.77.51 1.35 0 .333-.06.637-.18.91-.113.267-.283.5-.51.7-.22.193-.493.343-.82.45-.32.107-.69.16-1.11.16zm6.488-5.93V134h-1.32v-5.81h-1.98v-1.17h5.28v1.17h-1.98zm5.557 5.93c-.46 0-.877-.077-1.25-.23-.374-.153-.694-.383-.96-.69-.26-.307-.464-.683-.61-1.13-.147-.447-.22-.967-.22-1.56 0-.587.073-1.103.22-1.55.146-.453.35-.833.61-1.14.266-.307.586-.537.96-.69.373-.153.79-.23 1.25-.23.46 0 .876.077 1.25.23.373.153.693.383.96.69.266.307.47.687.61 1.14.146.447.22.963.22 1.55 0 .593-.074 1.113-.22 1.56-.14.447-.344.823-.61 1.13-.267.307-.587.537-.96.69-.374.153-.79.23-1.25.23zm0-1.17c.5 0 .896-.167 1.19-.5.3-.333.45-.8.45-1.4v-1.08c0-.6-.15-1.067-.45-1.4-.294-.333-.69-.5-1.19-.5s-.9.167-1.2.5c-.294.333-.44.8-.44 1.4v1.08c0 .6.146 1.067.44 1.4.3.333.7.5 1.2.5zm4.379 1.05v-6.98h3.14c.32 0 .607.053.86.16.26.1.48.247.66.44.18.187.317.413.41.68.093.267.14.56.14.88 0 .327-.047.623-.14.89-.093.26-.23.487-.41.68-.18.187-.4.333-.66.44-.253.1-.54.15-.86.15h-1.82V134h-1.32zm1.32-3.8h1.7c.253 0 .453-.067.6-.2.147-.14.22-.337.22-.59v-.46c0-.253-.073-.447-.22-.58-.147-.133-.347-.2-.6-.2h-1.7v2.03zm7.449 3.8v-6.98h1.32v5.81h2.75V134h-4.07zm7.584.12c-.46 0-.876-.077-1.25-.23-.373-.153-.693-.383-.96-.69-.26-.307-.463-.683-.61-1.13-.146-.447-.22-.967-.22-1.56 0-.587.074-1.103.22-1.55.147-.453.35-.833.61-1.14.267-.307.587-.537.96-.69.374-.153.79-.23 1.25-.23.46 0 .877.077 1.25.23.374.153.694.383.96.69.267.307.47.687.61 1.14.147.447.22.963.22 1.55 0 .593-.073 1.113-.22 1.56-.14.447-.343.823-.61 1.13-.266.307-.586.537-.96.69-.373.153-.79.23-1.25.23zm0-1.17c.5 0 .897-.167 1.19-.5.3-.333.45-.8.45-1.4v-1.08c0-.6-.15-1.067-.45-1.4-.293-.333-.69-.5-1.19-.5s-.9.167-1.2.5c-.293.333-.44.8-.44 1.4v1.08c0 .6.147 1.067.44 1.4.3.333.7.5 1.2.5zm6.52 1.17c-.6 0-1.11-.107-1.53-.32-.413-.213-.77-.493-1.07-.84l.89-.86c.24.28.507.493.8.64.3.147.63.22.99.22.407 0 .713-.087.92-.26.207-.18.31-.42.31-.72 0-.233-.067-.423-.2-.57-.133-.147-.383-.253-.75-.32l-.66-.1c-1.393-.22-2.09-.897-2.09-2.03 0-.313.057-.597.17-.85.12-.253.29-.47.51-.65.22-.18.483-.317.79-.41.313-.1.667-.15 1.06-.15.527 0 .987.087 1.38.26.393.173.73.43 1.01.77l-.9.85a2.0647 2.0647 0 00-.63-.52c-.247-.133-.557-.2-.93-.2-.38 0-.667.073-.86.22-.187.14-.28.34-.28.6 0 .267.077.463.23.59.153.127.4.22.74.28l.65.12c.707.127 1.227.353 1.56.68.34.32.51.77.51 1.35 0 .333-.06.637-.18.91-.113.267-.283.5-.51.7-.22.193-.493.343-.82.45-.32.107-.69.16-1.11.16zm5.986 0c-.6 0-1.11-.107-1.53-.32-.413-.213-.77-.493-1.07-.84l.89-.86c.24.28.507.493.8.64.3.147.63.22.99.22.407 0 .714-.087.92-.26.207-.18.31-.42.31-.72 0-.233-.066-.423-.2-.57-.133-.147-.383-.253-.75-.32l-.66-.1c-1.393-.22-2.09-.897-2.09-2.03 0-.313.057-.597.17-.85.12-.253.29-.47.51-.65.22-.18.484-.317.79-.41.314-.1.667-.15 1.06-.15.527 0 .987.087 1.38.26.394.173.73.43 1.01.77l-.9.85a2.0647 2.0647 0 00-.63-.52c-.246-.133-.556-.2-.93-.2-.38 0-.666.073-.86.22-.186.14-.28.34-.28.6 0 .267.077.463.23.59.154.127.4.22.74.28l.65.12c.707.127 1.227.353 1.56.68.34.32.51.77.51 1.35 0 .333-.06.637-.18.91-.113.267-.283.5-.51.7-.22.193-.493.343-.82.45-.32.107-.69.16-1.11.16z" fill="#fff"/><rect x="237.887" y="140.247" width="76" height="17" rx="8.5" fill="#000"/><path d="M252.877 152.367c-.6 0-1.11-.107-1.53-.32-.413-.214-.77-.494-1.07-.84l.89-.86c.24.28.507.493.8.64.3.146.63.22.99.22.407 0 .714-.087.92-.26.207-.18.31-.42.31-.72 0-.234-.066-.424-.2-.57-.133-.147-.383-.254-.75-.32l-.66-.1c-1.393-.22-2.09-.897-2.09-2.03 0-.314.057-.597.17-.85.12-.254.29-.47.51-.65.22-.18.484-.317.79-.41.314-.1.667-.15 1.06-.15.527 0 .987.086 1.38.26.394.173.73.43 1.01.77l-.9.85c-.173-.214-.383-.387-.63-.52-.246-.134-.556-.2-.93-.2-.38 0-.666.073-.86.22-.186.14-.28.34-.28.6 0 .266.077.463.23.59.154.126.4.22.74.28l.65.12c.707.126 1.227.353 1.56.68.34.32.51.77.51 1.35 0 .333-.06.636-.18.91-.113.266-.283.5-.51.7-.22.193-.493.343-.82.45-.32.106-.69.16-1.11.16zm6.488-5.93v5.81h-1.32v-5.81h-1.98v-1.17h5.28v1.17h-1.98zm5.557 5.93c-.46 0-.877-.077-1.25-.23a2.5336 2.5336 0 01-.96-.69c-.26-.307-.464-.684-.61-1.13-.147-.447-.22-.967-.22-1.56 0-.587.073-1.104.22-1.55.146-.454.35-.834.61-1.14.266-.307.586-.537.96-.69.373-.154.79-.23 1.25-.23.46 0 .876.076 1.25.23.373.153.693.383.96.69.266.306.47.686.61 1.14.146.446.22.963.22 1.55 0 .593-.074 1.113-.22 1.56-.14.446-.344.823-.61 1.13-.267.306-.587.536-.96.69-.374.153-.79.23-1.25.23zm0-1.17c.5 0 .896-.167 1.19-.5.3-.334.45-.8.45-1.4v-1.08c0-.6-.15-1.067-.45-1.4-.294-.334-.69-.5-1.19-.5s-.9.166-1.2.5c-.294.333-.44.8-.44 1.4v1.08c0 .6.146 1.066.44 1.4.3.333.7.5 1.2.5zm4.379 1.05v-6.98h3.14c.32 0 .607.053.86.16.26.1.48.246.66.44.18.186.317.413.41.68.093.266.14.56.14.88 0 .326-.047.623-.14.89-.093.26-.23.486-.41.68-.18.186-.4.333-.66.44-.253.1-.54.15-.86.15h-1.82v2.66h-1.32zm1.32-3.8h1.7c.253 0 .453-.067.6-.2.147-.14.22-.337.22-.59v-.46c0-.254-.073-.447-.22-.58-.147-.134-.347-.2-.6-.2h-1.7v2.03zm7.449 3.8v-6.98h1.32v5.81h2.75v1.17h-4.07zm7.584.12c-.46 0-.876-.077-1.25-.23-.373-.154-.693-.384-.96-.69-.26-.307-.463-.684-.61-1.13-.146-.447-.22-.967-.22-1.56 0-.587.074-1.104.22-1.55.147-.454.35-.834.61-1.14.267-.307.587-.537.96-.69.374-.154.79-.23 1.25-.23.46 0 .877.076 1.25.23.374.153.694.383.96.69.267.306.47.686.61 1.14.147.446.22.963.22 1.55 0 .593-.073 1.113-.22 1.56-.14.446-.343.823-.61 1.13-.266.306-.586.536-.96.69-.373.153-.79.23-1.25.23zm0-1.17c.5 0 .897-.167 1.19-.5.3-.334.45-.8.45-1.4v-1.08c0-.6-.15-1.067-.45-1.4-.293-.334-.69-.5-1.19-.5s-.9.166-1.2.5c-.293.333-.44.8-.44 1.4v1.08c0 .6.147 1.066.44 1.4.3.333.7.5 1.2.5zm6.52 1.17c-.6 0-1.11-.107-1.53-.32-.413-.214-.77-.494-1.07-.84l.89-.86c.24.28.507.493.8.64.3.146.63.22.99.22.407 0 .713-.087.92-.26.207-.18.31-.42.31-.72 0-.234-.067-.424-.2-.57-.133-.147-.383-.254-.75-.32l-.66-.1c-1.393-.22-2.09-.897-2.09-2.03 0-.314.057-.597.17-.85.12-.254.29-.47.51-.65.22-.18.483-.317.79-.41.313-.1.667-.15 1.06-.15.527 0 .987.086 1.38.26.393.173.73.43 1.01.77l-.9.85c-.173-.214-.383-.387-.63-.52-.247-.134-.557-.2-.93-.2-.38 0-.667.073-.86.22-.187.14-.28.34-.28.6 0 .266.077.463.23.59.153.126.4.22.74.28l.65.12c.707.126 1.227.353 1.56.68.34.32.51.77.51 1.35 0 .333-.06.636-.18.91-.113.266-.283.5-.51.7-.22.193-.493.343-.82.45-.32.106-.69.16-1.11.16zm5.986 0c-.6 0-1.11-.107-1.53-.32-.413-.214-.77-.494-1.07-.84l.89-.86c.24.28.507.493.8.64.3.146.63.22.99.22.407 0 .714-.087.92-.26.207-.18.31-.42.31-.72 0-.234-.066-.424-.2-.57-.133-.147-.383-.254-.75-.32l-.66-.1c-1.393-.22-2.09-.897-2.09-2.03 0-.314.057-.597.17-.85.12-.254.29-.47.51-.65.22-.18.484-.317.79-.41.314-.1.667-.15 1.06-.15.527 0 .987.086 1.38.26.394.173.73.43 1.01.77l-.9.85c-.173-.214-.383-.387-.63-.52-.246-.134-.556-.2-.93-.2-.38 0-.666.073-.86.22-.186.14-.28.34-.28.6 0 .266.077.463.23.59.154.126.4.22.74.28l.65.12c.707.126 1.227.353 1.56.68.34.32.51.77.51 1.35 0 .333-.06.636-.18.91-.113.266-.283.5-.51.7-.22.193-.493.343-.82.45-.32.106-.69.16-1.11.16z" fill="#fff"/><path fill-rule="evenodd" clip-rule="evenodd" d="M62.0286 146h2.4181c.0124 0 .0233-.009.0272-.023l.8168-2.864c.0001-.001.0002-.001.0003-.001l.7079-2.841a.0394.0394 0 00-.0023-.025l-.1043-.228c-.005-.011-.0147-.018-.0253-.018h-2.9628c-.0141 0-.026.012-.0283.028l-.4245 3.084-.0001.001-.4508 2.848c-.0029.018.0074.035.0229.038a.0097.0097 0 00.0052.001z" fill="#000"/><path fill-rule="evenodd" clip-rule="evenodd" d="M56.0286 146h2.4078c.0123 0 .0232-.009.0271-.023l.8224-2.864c.0001-.001.0003-.001.0004-.001l.7126-2.841a.0387.0387 0 00-.0023-.025l-.1051-.228c-.005-.011-.0147-.018-.0252-.018H56.883c-.014 0-.0259.012-.0282.028l-.4274 3.084-.427 2.849c-.0027.018.0077.035.0233.039h.0049z" fill="#000"/><path fill-rule="evenodd" clip-rule="evenodd" d="M50.0286 146h2.4181c.0124 0 .0233-.009.0272-.023l.8168-2.864c.0001-.001.0002-.001.0003-.001l.7079-2.841a.0394.0394 0 00-.0023-.025l-.1043-.228c-.005-.011-.0147-.018-.0253-.018h-2.9628c-.0141 0-.026.012-.0283.028l-.4245 3.084-.0001.001-.4508 2.848c-.0029.018.0074.035.0229.038a.0097.0097 0 00.0052.001z" fill="#000"/></g><defs><clipPath id="clip0"><path fill="#fff" d="M0 0h332v200H0z"/></clipPath></defs></svg>