<svg width="90" height="90" viewBox="0 0 90 90" fill="none" xmlns="http://www.w3.org/2000/svg">
<path d="M50.375 24.5C50.375 23.9477 50.8227 23.5 51.375 23.5H87C87.5523 23.5 88 23.9477 88 24.5V65.5C88 66.0523 87.5523 66.5 87 66.5H51.375C50.8227 66.5 50.375 66.0523 50.375 65.5V24.5Z" fill="#13C8A4"/>
<path fill-rule="evenodd" clip-rule="evenodd" d="M48.375 24.5C48.375 22.8431 49.7181 21.5 51.375 21.5H87C88.6569 21.5 90 22.8431 90 24.5V65.5C90 67.1569 88.6569 68.5 87 68.5H51.375C49.7181 68.5 48.375 67.1569 48.375 65.5V24.5ZM52.375 25.5V64.5H86V25.5H52.375Z" fill="black"/>
<path d="M2 40.625C2 40.0727 2.44772 39.625 3 39.625H38.625C39.1773 39.625 39.625 40.0727 39.625 40.625V70.875C39.625 71.4273 39.1773 71.875 38.625 71.875H3C2.44772 71.875 2 71.4273 2 70.875V40.625Z" fill="#13C8A4"/>
<path fill-rule="evenodd" clip-rule="evenodd" d="M0 40.625C0 38.9681 1.34314 37.625 3 37.625H38.625C40.2819 37.625 41.625 38.9681 41.625 40.625V70.875C41.625 72.5319 40.2819 73.875 38.625 73.875H3C1.34315 73.875 0 72.5319 0 70.875V40.625ZM4 41.625V69.875H37.625V41.625H4Z" fill="black"/>
<path d="M79.9375 66.5L79.9375 87C79.9375 87.5523 79.4898 88 78.9375 88L59.4375 88C58.8852 88 58.4375 87.5523 58.4375 87L58.4375 66.5L79.9375 66.5Z" fill="white"/>
<path fill-rule="evenodd" clip-rule="evenodd" d="M81.9375 64.5L81.9375 87C81.9375 88.6569 80.5944 90 78.9375 90L59.4375 90C57.7806 90 56.4375 88.6569 56.4375 87L56.4375 64.5L81.9375 64.5ZM77.9375 68.5L60.4375 68.5L60.4375 86L77.9375 86L77.9375 68.5Z" fill="black"/>
<path d="M78.9375 2C79.4898 2 79.9375 2.44772 79.9375 3L79.9375 23.5L58.4375 23.5L58.4375 3C58.4375 2.44771 58.8852 2 59.4375 2L78.9375 2Z" fill="white"/>
<path fill-rule="evenodd" clip-rule="evenodd" d="M78.9375 -1.31134e-07C80.5944 -5.87108e-08 81.9375 1.34314 81.9375 3L81.9375 25.5L56.4375 25.5L56.4375 3C56.4375 1.34315 57.7806 -1.05593e-06 59.4375 -9.83506e-07L78.9375 -1.31134e-07ZM77.9375 4L60.4375 4L60.4375 21.5L77.9375 21.5L77.9375 4Z" fill="black"/>
<path d="M30.5625 2C31.1148 2 31.5625 2.44772 31.5625 3L31.5625 39.625L10.0625 39.625L10.0625 3C10.0625 2.44771 10.5102 2 11.0625 2L30.5625 2Z" fill="white"/>
<path fill-rule="evenodd" clip-rule="evenodd" d="M30.5625 -1.31134e-07C32.2194 -5.87108e-08 33.5625 1.34314 33.5625 3L33.5625 41.625L8.0625 41.625L8.0625 3C8.0625 1.34314 9.40565 -1.05593e-06 11.0625 -9.83506e-07L30.5625 -1.31134e-07ZM29.5625 4L12.0625 4L12.0625 37.625L29.5625 37.625L29.5625 4Z" fill="black"/>
<path d="M31.5625 71.875L31.5625 87C31.5625 87.5523 31.1148 88 30.5625 88L11.0625 88C10.5102 88 10.0625 87.5523 10.0625 87L10.0625 71.875L31.5625 71.875Z" fill="white"/>
<path fill-rule="evenodd" clip-rule="evenodd" d="M33.5625 69.875L33.5625 87C33.5625 88.6569 32.2194 90 30.5625 90L11.0625 90C9.40565 90 8.0625 88.6569 8.0625 87L8.0625 69.875L33.5625 69.875ZM29.5625 73.875L12.0625 73.875L12.0625 86L29.5625 86L29.5625 73.875Z" fill="black"/>
</svg>
