<svg width="332" height="200" viewBox="0 0 332 200" fill="none" xmlns="http://www.w3.org/2000/svg"><g clip-path="url(#clip0)"><path d="M100.89 133.199c-.582 3.822-1.2209 12.688 1.737 19.912 1.34 3.273 3.381 6.414 4.528 7.843 3.976 4.955 14.062 7.451 18.608 8.08 8.371 13.292 21.825 7.616 24.159 10.451 2.335 2.835 11.951 9.832 21.767 11.136 7.853 1.044 14.883-4.409 17.416-7.266l-12.834-6.533c-.209-1.971-1.053-7.619-2.761-14.441-2.134-8.528-4.247-12.188-8.533-15.988-3.428-3.04-10.52-2.524-13.638-1.886-2.134-8.528-6.943-12.026-11.449-15.001-4.507-2.976-12.102.713-11.827 1.251-4.609-9.191-10.382-10.738-16.074-10.937-5.692-.2-10.517 9.557-11.099 13.379z" fill="#000"/><path d="M107.184 144.783c-2.857 4.124-35.5814-10.51-44.684-29.283-13.0159-26.8439 6.8724-58.2788 27.8369-71.1395 1.1507-.7059 27.8301-23.0391 71.2981-15.3696 43.469 7.6695 29.26 45.85 72.896 74.3371 34.909 22.79 21.072 40.12 9.79 45.937 1.984 15.028-13.986 20.855-22.219 21.891-1.584 14.16-19.324 16.036-25.62 14.791-6.296-1.245-87.579-43.646-89.298-41.164z" stroke="#000" stroke-width="1.6"/><path d="M112.843 103.87c-4.813-4.472 16.152-38.8384 27.236-55.4626 2.011-2.5551 6.748-8.3574 9.611-11.126 3.579-3.4607 9.794-3.5633 24.316-4.9759 14.522-1.4126 63.1 10.278 72.835 10.2347 3.772-.0168 10.292-.4439 17.012-.9807 11.578-.9249 22.951 4.9007 25.614 16.2053 2.925 12.4136 3.822 26.4102 3.755 38.5114-.072 12.8328-10.449 22.7458-23.239 23.7868l-15.976 1.301c-5.574-7.239-9.859-11.04-11.288-12.306-1.143-1.014-7.236-4.886-10.139-6.695-28.079.874-58.254-32.3425-57.958-32.7668-13.692 19.7561-30.784 32.4128-39.673 37.5448-8.889 5.132-16.09 2.318-22.106-3.271z" fill="#000"/><path d="M183.985 103.927c5.889 4.967 19.572 16.029 27.201 20.548 9.535 5.649 30.116 19.561 33.135 24.79" stroke="#000" stroke-width="1.6"/><path d="M165.367 127.225c11.549 9.135 36.222 28.445 42.531 32.611 7.887 5.207 13.902 10.797 14.204 11.319" stroke="#000" stroke-width="1.6"/><path d="M129.505 129.107c-2.238 1.757-6.229 7.082-5.487 12.231s1.56 13.972 1.876 17.74" stroke="#fff" stroke-width="1.6" stroke-linecap="round"/><path d="M153.606 143.079c-2.239 1.757-6.229 7.082-5.487 12.23.742 5.149 1.56 13.972 1.876 17.74" stroke="#fff" stroke-width="1.6" stroke-linecap="round"/><path d="M122.793 84.8793c2.072-.0341 6.473.5853 7.504 3.3365 1.288 3.4391-5.185 12.7542-6.15 14.7052" stroke="#fff" stroke-width="1.6" stroke-linecap="round"/><path d="M124.879 137.037c1.834-.964 9.107-.233 11.267 1.759 2.7 2.489 1.119 13.722 1.137 15.899" stroke="#fff" stroke-width="1.6" stroke-linecap="round"/><path d="M149.077 150.807c1.725-.908 8.569-.219 10.602 1.655 2.541 2.343 1.053 12.914 1.07 14.962" stroke="#fff" stroke-width="1.6" stroke-linecap="round"/><path d="M103.939 127.769c1.78-.796 8.567.326 10.477 2.325 2.387 2.499.231 12.954.119 15" stroke="#fff" stroke-width="1.6" stroke-linecap="round"/><rect x="10" y="20" width="78" height="78" rx="12" fill="#000"/><path d="M38.5956 55.0104l9.9041-9.7097 9.9093 9.7148 5.7629-5.6499L48.4997 34l-15.667 15.3604 5.7629 5.65z" fill="#fff"/><path d="M34.5259 58.9989l-5.7628-5.6498L23 58.9992l5.7628 5.6499 5.7631-5.6502z" fill="#fff"/><path d="M38.5955 62.9896l9.9041 9.7097 9.909-9.7144 5.7661 5.6468-.0028.0031L48.4996 84 32.8242 68.6321l5.7713-5.6425z" fill="#fff"/><path d="M68.2369 64.652L74 59.0018l-5.7628-5.6499-5.7631 5.6502 5.7628 5.6499z" fill="#fff"/><path d="M54.3451 58.9971h.0025l-5.8479-5.7333-5.8507 5.7361.008.0083 5.8427 5.7282 5.8479-5.7333.0028-.0032-.0053-.0028z" fill="#fff"/><path d="M253 189.694c0-.936.758-1.694 1.694-1.694h8.612c.936 0 1.694.758 1.694 1.694v8.612c0 .936-.758 1.694-1.694 1.694h-8.612c-.936 0-1.694-.758-1.694-1.694v-8.612z" fill="#000"/><path d="M69 172.694c0-.936.7585-1.694 1.6941-1.694h8.6118c.9356 0 1.6941.758 1.6941 1.694v8.612c0 .936-.7585 1.694-1.6941 1.694h-8.6118c-.9356 0-1.6941-.758-1.6941-1.694v-8.612z" fill="#000"/><path d="M28 135.976c0-1.091.8849-1.976 1.9765-1.976h10.047c1.0916 0 1.9765.885 1.9765 1.976v10.048c0 1.091-.8849 1.976-1.9765 1.976h-10.047C28.8849 148 28 147.115 28 146.024v-10.048z" stroke="#000" stroke-width="1.6"/><path d="M277 148.976c0-1.091.885-1.976 1.976-1.976h10.048c1.091 0 1.976.885 1.976 1.976v10.048c0 1.091-.885 1.976-1.976 1.976h-10.048c-1.091 0-1.976-.885-1.976-1.976v-10.048z" stroke="#000" stroke-width="1.6"/><path d="M217 1.6941C217 .7585 217.758 0 218.694 0h8.612c.936 0 1.694.7585 1.694 1.6941v8.6118c0 .9356-.758 1.6941-1.694 1.6941h-8.612c-.936 0-1.694-.7585-1.694-1.6941V1.6941z" fill="#000"/></g><defs><clipPath id="clip0"><path fill="#fff" d="M0 0h332v200H0z"/></clipPath></defs></svg>