<svg width="332" height="200" viewBox="0 0 332 200" fill="none" xmlns="http://www.w3.org/2000/svg"><g clip-path="url(#clip0)"><path clip-rule="evenodd" d="M67.4827 8.2001c14.9149-2.7183 19.2989 23.0242 32.5243 30.5117 16.389 9.2784 46.207-.5674 52.186 17.4463 5.953 17.936-22.699 28.6155-31.327 45.4009-6.469 12.584-2.239 29.768-12.359 39.584-10.5468 10.23-26.588 9.92-41.0243 12.195-17.4026 2.741-40.7821 16.529-51.4901 2.381-12.0488-15.921 12.5315-38.085 9.4754-57.8974C23.2326 83.3304-3.2492 76.17 1.5893 62.3446c4.8945-13.9855 29.5142-3.7965 40.8965-13.1493 12.6274-10.3759 8.9879-38.0775 24.9969-40.9952z" stroke="#000" stroke-width="1.6"/><path fill="#000" d="M142.774 22.1431l-10.4645-2.2945-2.3766 10.8389 10.4645 2.2945z"/><path d="M166.655 174.15c8.168 6.736 15.915-2.442 21.809 6.568L154.614 200l-8.588-17.935 20.629-7.915z" fill="#000"/><path d="M59.8024 168.172c-8.0835 6.82-.5053 16.082-10.357 20.292l-12.8829-36.712 19.1981-5.22 4.0418 21.64z" fill="#000"/><path d="M86.0737 129.523c8.4203-7.831 3.6207-38.144 10.6937-50.8586l29.3866 2.6103s-.084 1.5156-.252 4.2101h17.682c1.852 19.9562 27.113 63.7412 29.218 90.0122l-29.471 9.768c-4.715-26.692-14.567-47.911-20.545-71.741-1.263 8.252-2.947 16.841-5.221 23.998-7.662 24.503-57.594 36.628-57.594 36.628l-7.073-19.198-.2526-.758-2.3577-6.399c-.1684-.085 27.3658-10.441 35.786-18.272z" fill="#fff"/><path d="M142.658 186.107l30.649-10.189v-.505c-1.178-14.314-8.841-33.176-16.335-51.532-6.147-15.156-12.041-29.4707-12.883-38.5646l-.084-.5894h-17.514c.168-2.2734.252-3.5365.252-3.5365v-.5894l-30.3967-2.6945-.1684.3368c-3.3681 6.0626-4.0417 15.9985-4.7153 25.5976-.7578 10.862-1.5157 21.135-5.81 25.092-8.2519 7.663-35.4492 18.02-35.7018 18.104l-.5894.252 10.1042 27.535.5895-.169c2.0208-.505 50.4369-12.546 58.0999-37.049 1.768-5.641 3.368-12.714 4.715-21.05 2.274 8.672 5.136 17.093 7.831 25.344 4.463 13.557 9.178 27.619 11.957 43.449v.758zm29.386-11.031l-28.376 9.431c-2.779-15.662-7.41-29.471-11.872-42.859-3.2-9.515-6.147-18.525-8.589-28.124l-.758-3.031-.505 3.115c-1.516 9.6-3.2 17.599-5.221 23.914-7.073 22.482-51.1948 34.607-56.6679 36.039L50.7928 148.3c4.1259-1.6 27.7026-10.862 35.5334-18.188 4.6312-4.378 5.389-14.819 6.231-25.934.6736-9.2625 1.3472-18.8615 4.3785-24.6715l28.3763 2.5261c-.084.6736-.084 1.9366-.253 3.6207l-.084.6736h17.767c1.01 9.2622 6.82 23.4081 12.883 38.3121 7.494 17.767 15.072 36.375 16.419 50.437z" fill="#000"/><path d="M52.7293 155.541h.2526c5.6416-2.02 11.1147-4.378 16.3353-7.073 12.883-6.567 25.6817-14.146 29.0498-27.618 1.4315-5.557 1.3473-11.452 1.3473-17.177-.0842-7.6627-.0842-15.662 3.4527-22.735.168-.3368 0-.6736-.253-.842-.337-.1684-.674 0-.842.2526-3.7892 7.3256-3.705 15.409-3.6208 23.3244 0 5.641.0842 11.451-1.263 16.84-3.1997 12.883-15.8301 20.293-28.3762 26.777-5.1364 2.694-10.6095 5.052-16.1669 6.988-.3368.085-.5052.506-.421.842 0 .253.2526.421.5052.421z" fill="#000"/><path d="M52.965 162.68c6.237-2.234 12.2878-4.84 18.0593-7.819 14.2427-7.261 28.3922-15.639 32.1157-30.533 1.583-6.144 1.489-12.66 1.489-18.99-.093-8.4716-.093-17.315 3.817-25.1345" stroke="#000" stroke-width="0.5"/><path d="M54.4619 167.843c6.5731-2.093 12.9663-4.58 19.0827-7.465C88.635 153.352 103.67 145.16 108.099 129.8c1.875-6.334 2.02-13.118 2.256-19.705.218-8.818.547-18.0199 4.906-26.0111" stroke="#000" stroke-width="0.5"/><path d="M59.1683 172.375c6.8013-2.273 13.4098-4.954 19.7246-8.045 15.5812-7.528 31.0871-16.268 35.4611-32.301 1.855-6.612 1.905-13.666 2.051-20.517.095-9.169.299-18.7398 4.711-27.1117" stroke="#000" stroke-width="0.5"/><path d="M168.673 177.354c-1.395-38.872-34.885-75.551-25.829-92.9538" stroke="#000" stroke-width="0.5"/><path d="M164.617 180.368c-1.432-39.885-35.795-77.521-26.502-95.377" stroke="#000" stroke-width="0.5"/><path d="M156.679 183.023c.3-40.776-33.114-80.711-22.84-98.5272" stroke="#000" stroke-width="0.5"/><path d="M151.297 189.402c.3-40.776-26.417-80.741-24.749-90.9583" stroke="#000" stroke-width="0.5"/><path d="M173.055 182.486a32.448 32.448 0 012.273-6.82c.253-.506.926-.085.758.421-.926 2.105-1.684 4.378-2.189 6.652-.169.505-1.011.252-.842-.253z" fill="#fff"/><path d="M170.276 181.56c.842-1.853 1.684-3.789 2.442-5.642.253-.505.926-.084.758.421-.842 1.853-1.684 3.789-2.442 5.642-.253.505-1.011.084-.758-.421z" fill="#fff"/><path d="M54.3294 169.856c1.263.842 2.4418 1.768 3.4522 2.862.3368.422-.2526 1.011-.5894.59-1.0104-1.011-2.105-1.937-3.2839-2.779-.5052-.252-.0842-1.01.4211-.673z" fill="#fff"/><path d="M53.2344 173.561l2.7787 2.778c.421.421-.2526 1.011-.5894.59l-2.7787-2.779c-.3368-.421.2526-1.01.5894-.589z" fill="#fff"/><path d="M122.618 114.198c.336 0 .589-.253.589-.59l.505-13.304 4.716-1.347c.336-.0842.505-.421.421-.7578-.085-.3368-.421-.5052-.758-.421l-5.558 1.5998-.505 14.23c0 .253.253.505.59.59z" fill="#000"/><path d="M179.37 86.5792l25.176-17.1773-28.881-4.1259-24.503 16.7563c-1.095.7578-.674 2.3577.589 2.5261l22.482 3.1997c1.853.3368 3.621-.0843 5.137-1.1789z" fill="#000"/><path d="M180.296 87.4212l23.156-15.83c1.263-.8421 2.105-2.1051 2.441-3.5366l12.378-26.4395c.169-.7578-.673-1.3473-1.263-.9263L193.6 56.6873c-1.432 1.0104-2.526 2.5261-2.947 4.2101l-12.125 25.2608c-.169 1.0104.926 1.7682 1.768 1.263z" fill="#000"/><path d="M180.38 85.1478c.252 0 .421-.1684.589-.3368l6.989-14.4829c.169-.3368 0-.6736-.337-.842-.336-.1684-.673 0-.842.3368l-6.988 14.4829c-.169.3368-.001.6736.336.842h.253z" fill="#fff"/><path d="M200.552 65.336c-.778-.3091-.921-1.7858-.321-3.2983.601-1.5126 1.719-2.4882 2.497-2.1792.778.3091.921 1.7858.32 3.2983-.601 1.5126-1.718 2.4882-2.496 2.1792z" fill="#fff"/><path d="M171.034 82.2846c.168 0 .252-.0842.421-.1684l3.115-2.3577c.253-.2526.337-.5894.084-.9262-.252-.2526-.589-.3368-.926-.0842l-3.115 2.3577c-.253.2526-.337.5894-.085.9262.169.1684.337.2526.506.2526z" fill="#fff"/><path d="M174.991 82.6218c.168 0 .253-.0842.421-.1684l3.115-2.3577c.253-.2526.337-.5894.085-.9262-.253-.2527-.59-.3368-.927-.0842l-3.115 2.3576c-.253.2526-.337.5894-.084.9262.168.1684.337.2527.505.2527z" fill="#fff"/><path d="M177.012 77.4011c.168 0 .253-.0842.421-.1684l3.115-2.3577c.253-.2526.337-.5894.085-.9263-.253-.2526-.59-.3367-.927-.0841l-3.115 2.3576c-.253.2526-.337.5895-.084.9263.084.1684.336.2526.505.2526z" fill="#fff"/><path d="M145.436 37.6578c7.915 11.5358-2.442 27.5342 6.231 27.871 8.673.3368 22.061-8.8412 27.787 2.2735 2.778 5.4732-1.684 4.4627-1.684 4.4627s.421 4.547-5.558 2.4419c0 0-2.273 3.6207-5.978 0-5.305-5.3047-12.63 13.2198-25.177 9.3465-19.619-6.0626 4.379-46.3956 4.379-46.3956z" fill="#fff"/><path d="M144.594 85.2321c5.473 0 9.767-3.7891 13.388-6.9046 3.705-3.2839 5.979-5.0522 7.831-3.1155 1.347 1.3472 2.694 1.9367 4.042 1.7683 1.263-.1684 2.189-1.0104 2.61-1.5156 2.105.6736 3.705.5893 4.715-.2527.842-.6736 1.095-1.5998 1.179-2.2734.674 0 1.6-.0842 2.189-.842.758-.9263.59-2.4419-.589-4.6312-4.126-8.0834-12.294-5.9784-19.451-4.1259-3.199.842-6.315 1.684-8.925 1.5156-1.011 0-1.768-.3368-2.274-.842-1.179-1.3472-.926-4.4627-.589-7.9992.505-5.6416 1.179-12.7146-2.947-18.693l-.59-.842-.505.842c-.673 1.0946-16.251 27.5342-11.115 40.754 1.263 3.2839 3.705 5.4732 7.158 6.5678 1.515.421 2.694.5894 3.873.5894zm19.535-12.2093c-2.105 0-4.463 2.0208-6.989 4.2943-4.126 3.6207-9.262 8.0834-15.83 6.1468-3.115-.9262-5.22-2.8629-6.399-5.81-4.379-11.3673 7.83-34.0178 10.525-38.7331 3.284 5.4731 2.694 11.8725 2.189 17.0089-.421 4.0417-.673 7.1572.842 8.9254.758.842 1.769 1.2631 3.2 1.2631 2.779.0842 5.978-.7578 9.262-1.5999 6.989-1.8524 14.315-3.7049 17.935 3.5365 1.179 2.2735.842 3.0313.674 3.2839-.337.5052-1.431.3368-1.684.3368l-.842-.1684.084.8421s.084 1.263-.758 1.9366c-.758.5894-2.105.5052-3.957-.1684l-.505-.1684-.253.421s-.758 1.1788-2.021 1.3473c-.926.0842-1.937-.3369-2.947-1.4315-.758-.842-1.6-1.263-2.526-1.263z" fill="#000"/><path d="M136.342 57.5718c3.674-10.6713 9.447-20.2929 9.447-20.2929 4.373 6.2978 3.411 13.9076 2.886 19.768-4.111.3499-8.222.4374-12.333.5249z" fill="#000"/><path d="M174.317 66.792c1.685 1.0104 2.863 2.6103 3.2 4.547.084.5052-.673.7578-.842.2526-.337-1.6841-1.263-3.1155-2.779-4.0417-.505-.3368-.084-1.0947.421-.7579z" fill="#000"/><path d="M151.808 20.8973c2.744-6.078.534-13.1105-4.91-15.6541-5.444-2.5437-12.109.2265-14.854 6.3045l-.062.0542c-.572-.2864-1.152-.4545-1.621-.4941-3.561-.5987-5.736 2.0748-4.852 4.8878.789 2.4478 3.056 4.842 6.185 4.8089 1.009 2.7045 2.87 5.0047 5.26 6.3973 7.397 4.3159 12.109-.2265 14.854-6.3045z" fill="#fff"/><path d="M126.503 18.9377c-.714-.8343-1.241-1.8312-1.533-2.8084-.435-1.5249-.165-2.9903.794-4.1594 1.084-1.2775 2.827-1.785 4.815-1.4979.407.0939.814.1879 1.276.346 1.361-2.8614 3.686-5.1055 6.476-6.2984 2.969-1.2372 6.153-1.2062 8.903.0978 2.804 1.368 4.892 3.8066 5.816 6.9206.924 3.1141.769 6.4941-.607 9.5923-1.99 4.4155-4.517 7.0592-7.472 8.0596-2.47.8032-5.272.3282-8.171-1.4051-2.39-1.3925-4.313-3.6386-5.439-6.353-2.113-.1786-3.759-1.2107-4.858-2.4941zm23.275-10.7121c-.879-1.0268-1.89-1.8266-3.151-2.4095-2.46-1.2199-5.292-1.2212-7.902-.0726-2.609 1.1486-4.81 3.2842-6.108 6.0913l-.21.518-.579-.168c-.517-.2223-1.097-.3903-1.504-.4842-1.518-.2474-2.839.1171-3.611 1.1234-.702.8336-.886 1.8895-.539 2.9308.632 2.1369 2.672 4.3929 5.621 4.4041l.415-.0245.15.4293c.899 2.5762 2.649 4.7482 4.984 6.0766 2.618 1.5308 5.067 1.976 7.233 1.3257 2.649-.8476 4.927-3.2743 6.777-7.3444 1.299-2.8071 1.494-5.8861.61-8.6992-.56-1.4164-1.307-2.67-2.186-3.6968z" fill="#000"/><path d="M143.331 17.7609c.314.3454.841.3742 1.176.0642.336-.3099.354-.8412.04-1.1866-.314-.3455-.84-.3742-1.176-.0643-.336.31-.354.8413-.04 1.1867z" fill="#000"/><path d="M147.961 23.0278c.526-1.8013.818-3.6226.82-5.528-.025-.5381-.848-.6078-.823-.0697.006 1.7869-.286 3.6082-.75 5.3553-.147.4638.605.7063.753.2424z" fill="#000"/><path d="M150.36 11.5934c-2.711-.111-12.084-4.182-13.202 1.3805-.324 1.4017.024 2.4436-1.457 2.4966-1.465-.1839-1.188-1.7683-1.188-1.7683-1.413-1.0132-3.062-2.0464-4.292-2.2103-.043-5.8992 3.581-9.0456 6.09-8.535 0 0 20.265-1.9124 20.531 5.1372.138 6.2646-6.482 3.4993-6.482 3.4993z" fill="#000"/><path d="M132.929 16.7032c-.521-1.8839-2.31-3.2182-4.247-3.1985-.529.0161-.584.8432-.055.8271 1.587-.0484 3.05.9029 3.47 2.5409.14.5461.918.3127.832-.1695z" fill="#000"/><path d="M137.69 88.5158c5.136 0 8.757-.1684 9.178-.1684h.842l-.253-.7578c0-.0842-2.779-9.2623-2.947-18.3561 0-1.2631 0-2.5261.084-3.6207.169-2.8629.674-5.389 1.516-7.4098 4.042-9.8517 2.105-16.6722-.253-20.7139-.673-1.0946-1.431-2.1893-2.273-3.1155-.758-.842-1.516-1.5998-2.358-2.2734-4.21-3.3681-9.852-5.1364-14.904-4.6311-.673.0842-1.263.1684-1.936.2526h-.085c-.842.1684-1.6.421-2.273.6736l-1.263.5052c-.758.3368-1.432.6736-2.189 1.0946l-.169.0842c-6.315 3.7891-11.957 11.3674-16.672 22.6505l-.084.0842c-.674 1.5156-1.263 3.1155-1.8526 4.7995-.9262 2.4419-1.684 4.8838-2.4419 7.3257-.3368 1.0946-.6736 2.1892-.9262 3.1996-1.9366 6.9888-2.8629 12.1252-2.8629 12.2094l-.0841.421.3367.2526c9.01 6.4836 31.239 7.494 43.87 7.494zm8.336-1.4314c-5.642.1684-39.576 1.0946-51.1955-6.9888.2526-1.3472 1.0946-5.8942 2.7786-11.7042.2527-1.0104.5895-2.105.9263-3.1997.7578-2.4418 1.5156-4.8837 2.4416-7.2414.674-1.7682 1.263-3.2839 1.937-4.8837l.084-.1684c4.631-10.8622 10.02-18.1878 15.999-21.8927l.168-.0842c.674-.421 1.431-.842 2.189-1.0946.421-.1684.842-.3368 1.179-.5052.59-.2526 1.263-.421 2.021-.5894h.084c.674-.1684 1.263-.2527 1.853-.2527 4.799-.421 10.02 1.1789 14.061 4.3786.842.6736 1.6 1.3472 2.274 2.105.842.9263 1.515 1.8525 2.189 2.9471 3.2 5.389 3.2 12.2094.169 19.6192-.927 2.1893-1.432 4.7996-1.685 7.8309-.084 1.1788-.084 2.4418-.084 3.7891 0 7.7466 2.021 15.4932 2.611 17.9351z" fill="#000"/><path fill-rule="evenodd" clip-rule="evenodd" d="M146.867 87.758s-40.08 1.9366-52.7103-7.3256c0 0 .842-5.1364 2.8629-12.2094.2524-1.0099.5891-2.104.9257-3.1981l.0005-.0016c.6736-2.3577 1.5156-4.7995 2.4422-7.3256.589-1.5999 1.263-3.2839 1.936-4.8837 3.874-9.1781 9.263-18.1035 16.42-22.3979l.001-.0006c.757-.4208 1.515-.8416 2.272-1.1782l1.263-.5052c.674-.2526 1.348-.421 2.105-.5894h.169c.294-.0421.61-.0842.926-.1263.316-.0421.632-.0842.926-.1263 4.716-.4211 10.273 1.0946 14.483 4.5469.842.6734 1.6 1.4311 2.357 2.1887l.001.0006c.758.9262 1.515 1.9366 2.189 3.0312 2.863 4.968 3.621 11.7884.168 20.2086-.926 2.2735-1.431 4.8837-1.599 7.6624-.085 1.263-.085 2.4419-.085 3.7049.169 9.2623 2.947 18.5246 2.947 18.5246z" fill="#000"/><path d="M165.055 68.3914c3.2.5894 5.894 2.7787 6.147 6.1468.084.5052-.758.5052-.842 0-.253-3.0313-2.779-4.7996-5.557-5.3048-.506-.1684-.253-.9262.252-.842z" fill="#000"/><path d="M160.929 70.9176c2.948.3368 5.221 2.6103 5.558 5.4732.084.5052-.758.5052-.842 0-.253-2.4419-2.274-4.3786-4.716-4.6312-.505 0-.505-.842 0-.842z" fill="#000"/><path d="M119.081 50.7934c1.01-.1684 2.105-.3368 3.284-.5894 1.768 10.7779 5.978 20.8822 18.103 19.4507 21.051-2.4418 28.629-7.4098 32.502 0 3.958 7.4098-1.768 5.9784-1.768 5.9784s-1.852 2.8629-4.968 1.684c0 0-1.937 2.2735-5.136.2527-3.2-2.0209-4.126 3.7891-9.347 5.3047-5.22 1.5157-27.281 8.4202-39.238-2.1893-5.81-5.2205-7.41-15.9984-7.41-25.7659 4.631-1.7683 9.347-3.1997 13.978-4.1259z" fill="#fff"/><path d="M130.701 87.0847c5.978 0 12.883-1.0946 20.713-3.3681l.674-.1684c2.61-.7578 4.126-2.4418 5.389-3.8733 1.6-1.7682 2.189-2.2735 3.368-1.5157 2.61 1.6841 4.715.7579 5.642-.0842 2.357.6737 4.21-.6736 5.052-1.7682.758.0842 2.189.1684 3.031-.9262.926-1.1789.589-3.1155-.926-6.0626-2.947-5.5574-7.831-4.6312-17.514-2.7787-4.126.7578-9.263 1.7683-15.662 2.5261-9.599 1.0946-15.072-4.8838-17.43-18.9456l-.084-.5894-1.431.2526c-.927.1684-1.769.2527-2.527.4211-4.378.9262-9.093 2.2734-14.061 4.1258l-.421.1685v.421c.084 12.9671 2.61 21.8084 7.662 26.1869 4.463 3.9575 10.61 5.9784 18.525 5.9784zm29.218-10.5253c-1.347 0-2.358 1.1789-3.368 2.2735-1.179 1.3472-2.611 2.8629-4.8 3.4523l-.673.1684c-17.767 5.1363-30.566 4.3785-38.06-2.2735-4.631-4.1259-7.073-12.7146-7.241-24.8397 4.715-1.7683 9.178-3.1155 13.388-3.9575.758-.1684 1.6-.2526 2.442-.4211h.252c2.526 14.1461 8.673 20.5454 18.693 19.3666 6.4-.7578 11.536-1.684 15.746-2.5261 9.347-1.7682 13.641-2.6102 16.167 2.1893 1.768 3.2839 1.347 4.3785 1.095 4.7153-.506.5895-1.684.5053-2.105.3369l-.421-.0843-.253.3369c-.084.0842-1.684 2.3577-4.21 1.4314l-.421-.1684-.253.3368c-.084.0842-1.6 1.8525-4.294.1684-.674-.3368-1.179-.5052-1.684-.5052z" fill="#000"/><path d="M202.91 6.8453l-.495.1743a8.95 8.95 0 01.51 2.9686c-.001 3.6833-2.296 7.1339-5.97 8.4263-.982.3466-1.983.5105-2.967.5105-3.684-.0005-7.134-2.2962-8.428-5.9692-.345-.9826-.509-1.9835-.509-2.9676 0-3.6838 2.296-7.1344 5.969-8.4273.982-.346 1.984-.51 2.968-.51 3.684.0005 7.134 2.2962 8.427 5.9687l.495-.1743.496-.1747c-1.446-4.104-5.3-6.671-9.418-6.6706a9.961 9.961 0 00-3.317.5699c-4.105 1.446-6.672 5.3001-6.671 9.4183 0 1.101.183 2.2206.569 3.3166 1.447 4.1045 5.3 6.6716 9.419 6.6711 1.101 0 2.221-.1841 3.317-.5699 4.104-1.446 6.671-5.3001 6.671-9.4178 0-1.1015-.184-2.2216-.57-3.3176l-.496.1747z" fill="#000"/><path d="M262.586 29.4591l-.496.1747c.347.9827.51 1.9835.51 2.9677 0 3.6838-2.296 7.1344-5.968 8.4268-.984.346-1.984.5105-2.969.5105-3.683-.001-7.134-2.2962-8.427-5.9692-.346-.9832-.51-1.9835-.51-2.9681.001-3.6833 2.297-7.134 5.97-8.4268.982-.3461 1.983-.51 2.967-.51 3.684.0005 7.135 2.2961 8.427 5.9691l.496-.1747.495-.1748c-1.446-4.1039-5.3-6.671-9.418-6.6705-1.101 0-2.22.1835-3.316.5693-4.105 1.4466-6.672 5.3002-6.672 9.4184 0 1.1009.185 2.221.57 3.3176 1.446 4.1039 5.3 6.6711 9.418 6.6706 1.102 0 2.222-.1841 3.318-.5699 4.104-1.446 6.671-5.3001 6.67-9.4183 0-1.101-.183-2.2206-.57-3.3172l-.495.1748z" fill="#000"/><path d="M204.911 135.907l-.496.174c.346.983.51 1.984.51 2.968 0 3.684-2.296 7.134-5.968 8.427-.984.346-1.984.51-2.969.51-3.683-.001-7.134-2.296-8.427-5.969-.346-.983-.51-1.983-.51-2.968.001-3.683 2.296-7.134 5.969-8.427.983-.346 1.984-.51 2.968-.51 3.684.001 7.134 2.296 8.427 5.969l.496-.174.495-.175c-1.446-4.104-5.3-6.671-9.418-6.671-1.101 0-2.221.184-3.317.57-4.104 1.446-6.671 5.3-6.671 9.418 0 1.101.184 2.221.57 3.318 1.446 4.103 5.3 6.671 9.418 6.67 1.101 0 2.221-.184 3.318-.57 4.103-1.446 6.671-5.3 6.67-9.418 0-1.101-.184-2.221-.57-3.317l-.495.175z" fill="#000"/><path d="M203.526 133.037l2.23-2.229-.743-.743-2.23 2.229.743.743zm4.088-4.087l2.23-2.23-.744-.743-2.229 2.23.743.743zm4.088-4.088l2.23-2.23-.743-.743-2.23 2.23.743.743zm4.088-4.088l2.23-2.23-.744-.743-2.23 2.23.744.743zm4.087-4.088l2.23-2.229-.743-.744-2.23 2.23.743.743zm2.447-5.202v-3.154h-1.051v3.154h1.051zm0-5.781v-3.154h-1.051v3.154h1.051zm0-5.7813v-3.1532h-1.051v3.1532h1.051zm0-5.7812v-3.1532h-1.051v3.1532h1.051zm0-5.7806v-3.1532h-1.051v3.1532h1.051zm0-5.7812v-3.1532h-1.051v3.1532h1.051zm0-5.7812v-3.1532h-1.051v3.1532h1.051zm0-5.7807v-2.7384l-.56-.6067-.772.7132.281.3049v2.327h1.051zm-2.343-5.2755l-2.14-2.3163-.772.7127 2.14 2.3167.772-.7131zm-3.923-4.2468l-2.139-2.3163-.773.7132 2.14 2.3163.772-.7132zm-3.922-4.2463l-2.14-2.3168-.772.7132 2.14 2.3168.772-.7132zm-3.923-4.2468l-2.139-2.3163-.772.7132 2.139 2.3163.772-.7132zm-3.922-4.2468l-2.14-2.3158-.772.7132 2.139 2.3158.773-.7132zm-3.923-4.2463l-2.139-2.3168-.772.7132 2.139 2.3168.772-.7132zm-3.922-4.2468l-2.072-2.2431-.386.3568h.525v-.0996h-1.05v.3053l2.211 2.3938.772-.7132zm-1.933-4.6139v-3.1532h-1.05v3.1532h1.05zm0-5.7812v-3.1532h-1.05v3.1532h1.05zm0-5.7807v-3.1531h-1.05v3.1531h1.05z" fill="#000"/><path d="M222.171 94.7753l2.229-2.2295-.743-.7436-2.23 2.2299.744.7432zm4.087-4.0878l2.23-2.2299-.743-.7431-2.23 2.2299.743.7431zm4.088-4.0878l2.23-2.2299-.744-.7431-2.229 2.2299.743.7431zm4.088-4.0877l2.23-2.2299-.744-.7431-2.229 2.2299.743.7431zm4.088-4.0878l2.23-2.2299-.744-.7431-2.229 2.2294.743.7436zm4.087-4.0882l2.23-2.2294-.743-.7431-2.23 2.2294.743.7431zm4.088-4.0877l2.23-2.229-.744-.7436-2.229 2.2294.743.7432zm4.088-4.0873l2.229-2.2299-.743-.7432-2.23 2.23.744.7431zm3.134-4.9183v-3.1532h-1.051v3.1532h1.051zm0-5.7811v-3.1532h-1.051v3.1532h1.051zm0-5.7807v-3.1532h-1.051v3.1532h1.051zm0-5.7812V42.064h-1.051v1.8357h1.051z" fill="#000"/><path d="M202 147.744l2.229 2.229.744-.743-2.23-2.23-.743.744zm4.088 4.087l2.23 2.23.743-.743-2.23-2.23-.743.743zm4.087 4.088l2.23 2.23.743-.744-2.229-2.229-.744.743zm4.088 4.088l2.23 2.23.743-.744-2.23-2.229-.743.743zm4.088 4.088l2.23 2.23.743-.744-2.229-2.229-.744.743zm4.088 4.087l2.23 2.23.743-.743-2.23-2.23-.743.743zm4.088 4.088l2.229 2.23.743-.744-2.229-2.229-.743.743zm4.087 4.088l2.23 2.229.743-.743-2.23-2.23-.743.744zm4.918 3.134h3.154v-1.051h-3.154v1.051zm5.782 0h3.153v-1.051h-3.153v1.051zm5.78 0h3.153v-1.051h-3.153v1.051zm5.781 0h1.836v-1.051h-1.836v1.051z" fill="#000"/><rect x="255" y="165" width="44" height="25" rx="4" fill="#000"/><path d="M267.784 184.192c-.96 0-1.776-.171-2.448-.512-.661-.341-1.232-.789-1.712-1.344l1.424-1.376c.384.448.811.789 1.28 1.024.48.235 1.008.352 1.584.352.651 0 1.141-.139 1.472-.416.331-.288.496-.672.496-1.152 0-.373-.107-.677-.32-.912-.213-.235-.613-.405-1.2-.512l-1.056-.16c-2.229-.352-3.344-1.435-3.344-3.248 0-.501.091-.955.272-1.36.192-.405.464-.752.816-1.04.352-.288.773-.507 1.264-.656.501-.16 1.067-.24 1.696-.24.843 0 1.579.139 2.208.416.629.277 1.168.688 1.616 1.232l-1.44 1.36c-.277-.341-.613-.619-1.008-.832-.395-.213-.891-.32-1.488-.32-.608 0-1.067.117-1.376.352-.299.224-.448.544-.448.96 0 .427.123.741.368.944.245.203.64.352 1.184.448l1.04.192c1.131.203 1.963.565 2.496 1.088.544.512.816 1.232.816 2.16 0 .533-.096 1.019-.288 1.456-.181.427-.453.8-.816 1.12-.352.309-.789.549-1.312.72-.512.171-1.104.256-1.776.256zm9.557 0c-.618 0-1.173-.101-1.664-.304-.48-.213-.89-.507-1.232-.88-.33-.384-.586-.843-.768-1.376-.181-.544-.272-1.152-.272-1.824 0-.661.086-1.259.256-1.792.182-.533.438-.987.768-1.36.331-.384.736-.677 1.216-.88.48-.213 1.024-.32 1.632-.32.651 0 1.216.112 1.696.336.48.224.875.528 1.184.912.31.384.539.832.688 1.344.16.501.24 1.04.24 1.616v.672h-5.552v.208c0 .608.171 1.099.512 1.472.342.363.848.544 1.52.544.512 0 .928-.107 1.248-.32.331-.213.624-.485.88-.816l1.104 1.232c-.341.48-.81.859-1.408 1.136-.586.267-1.269.4-2.048.4zm-.032-7.2c-.544 0-.976.181-1.296.544-.32.363-.48.832-.48 1.408v.128h3.424v-.144c0-.576-.144-1.04-.432-1.392-.277-.363-.682-.544-1.216-.544zm7.626 7.008c-.704 0-1.221-.176-1.552-.528-.331-.352-.496-.848-.496-1.488v-9.824h2.048v10.208h1.104V184h-1.104zm4.594 0c-.704 0-1.221-.176-1.552-.528-.331-.352-.496-.848-.496-1.488v-9.824h2.048v10.208h1.104V184h-1.104z" fill="#fff"/><rect x="8" y="93" width="45" height="25" rx="4" fill="#000"/><path d="M17.312 100.832h5.168c.4587 0 .8693.069 1.232.208.3733.139.688.331.944.576.256.245.448.549.576.912.1387.352.208.741.208 1.168 0 .427-.0587.789-.176 1.088-.1067.288-.256.528-.448.72a1.7442 1.7442 0 01-.64.432c-.2347.096-.48.149-.736.16v.096c.2453 0 .5067.048.784.144.288.096.5493.251.784.464.2453.203.448.469.608.8.16.32.24.72.24 1.2 0 .448-.0747.869-.224 1.264-.1387.384-.336.72-.592 1.008-.256.288-.56.517-.912.688-.352.16-.736.24-1.152.24h-5.664v-11.168zm2.112 9.376h2.944c.4053 0 .72-.101.944-.304.224-.213.336-.517.336-.912v-.544c0-.395-.112-.699-.336-.912-.224-.213-.5387-.32-.944-.32h-2.944v2.992zm0-4.72h2.608c.384 0 .6827-.101.896-.304.2133-.213.32-.507.32-.88v-.496c0-.373-.1067-.661-.32-.864-.2133-.213-.512-.32-.896-.32h-2.608v2.864zm13.3614 5.12h-.08c-.0747.213-.176.416-.304.608-.1174.181-.272.347-.464.496-.1814.149-.4054.267-.672.352-.256.085-.5547.128-.896.128-.864 0-1.5254-.283-1.984-.848-.4587-.565-.688-1.371-.688-2.416v-5.28h2.048v5.072c0 .576.112 1.019.336 1.328.224.299.5813.448 1.072.448.2026 0 .4-.027.592-.08.2026-.053.3786-.133.528-.24.1493-.117.272-.256.368-.416.096-.171.144-.368.144-.592v-5.52h2.048V112h-2.048v-1.392zm9.5342-6.96h1.92l-3.36 9.84c-.1066.299-.2293.555-.368.768-.128.224-.2826.405-.464.544-.1813.139-.4.24-.656.304s-.5546.096-.896.096h-1.232v-1.632h1.504l.384-1.168-2.992-8.752h2.032l1.456 4.416.544 2.112h.096l.576-2.112 1.456-4.416z" fill="#fff"/><rect x="215" y="86" width="51" height="25" rx="4" fill="#000"/><path d="M231.08 100.28h-4.656V105h-2.112V93.832h2.112v4.576h4.656v-4.576h2.112V105h-2.112v-4.72zm7.916 4.912c-.597 0-1.136-.101-1.616-.304a3.4295 3.4295 0 01-1.216-.88c-.331-.384-.587-.843-.768-1.376-.181-.544-.272-1.152-.272-1.824 0-.672.091-1.2747.272-1.808.181-.5333.437-.9867.768-1.36.341-.384.747-.6773 1.216-.88.48-.2027 1.019-.304 1.616-.304.597 0 1.136.1013 1.616.304.48.2027.885.496 1.216.88.341.3733.603.8267.784 1.36.181.5333.272 1.136.272 1.808 0 .672-.091 1.28-.272 1.824-.181.533-.443.992-.784 1.376-.331.384-.736.677-1.216.88-.48.203-1.019.304-1.616.304zm0-1.648c.544 0 .971-.165 1.28-.496.309-.331.464-.816.464-1.456v-1.552c0-.6293-.155-1.1093-.464-1.44-.309-.3307-.736-.496-1.28-.496-.533 0-.955.1653-1.264.496-.309.3307-.464.8107-.464 1.44v1.552c0 .64.155 1.125.464 1.456.309.331.731.496 1.264.496zm7.752 1.456c-.704 0-1.222-.176-1.552-.528-.331-.352-.496-.848-.496-1.488V93.16h2.048v10.208h1.104V105h-1.104zm7.839-1.392h-.08c-.15.48-.432.864-.848 1.152-.416.288-.902.432-1.456.432-1.056 0-1.867-.379-2.432-1.136-.555-.757-.832-1.84-.832-3.248 0-1.3973.277-2.4693.832-3.216.565-.7573 1.376-1.136 2.432-1.136.554 0 1.04.144 1.456.432.416.2773.698.656.848 1.136h.08V93.16h2.048V105h-2.048v-1.392zm-1.728-.112c.49 0 .901-.117 1.232-.352.33-.235.496-.571.496-1.008V99.48c0-.4053-.166-.7307-.496-.976-.331-.2453-.742-.368-1.232-.368-.534 0-.966.1813-1.296.544-.32.352-.48.8267-.48 1.424v1.44c0 .597.16 1.072.48 1.424.33.352.762.528 1.296.528z" fill="#fff"/><path fill-rule="evenodd" clip-rule="evenodd" d="M68.8798 27.566l1.088-.4788-.3747-.86c-.1205-.2767.0043-.5907.2838-.7137.2794-.1229.5937-.0021.7143.2746l.377.8654c1.2283-.4436 2.5997.1261 3.1233 1.328.3138.7203.255 1.5115-.0916 2.1603.7095.1842 1.3278.6774 1.6416 1.3977.5236 1.202.0097 2.6014-1.148 3.2075l.3726.8555c.1206.2767-.0043.5907-.2837.7137-.2795.1229-.5937.0021-.7143-.2746l-.3703-.85-1.0879.4787.3703.85c.1206.2767-.0043.5908-.2837.7137-.2795.123-.5938.0022-.7143-.2745l-.3702-.8497a.291.291 0 01-.0098.0044l-1.7266.7597c-.2795.123-.5938.0022-.7143-.2745-.1206-.2768.0043-.5908.2837-.7138l.7086-.3118-2.6694-6.1279-.7087.3118c-.2794.1229-.5937.0021-.7142-.2746-.1206-.2768.0043-.5908.2837-.7138l1.7368-.7642-.3747-.86c-.1205-.2767.0043-.5907.2838-.7137.2794-.123.5937-.0021.7143.2746l.3746.86zm-.5676 1.4274l-.0101.0045-.0199.0087 1.1193 2.5697 2.9542-1.2999c.7186-.3162 1.0478-1.1441.7378-1.8557-.31-.7116-1.1386-1.0301-1.8572-.7139l-2.9241 1.2866zm5.5935 4.841l-2.9542 1.2998-1.1194-2.5696 2.9542-1.2999c.7186-.3162 1.5472.0024 1.8571.714.31.7115-.0191 1.5395-.7377 1.8557z" fill="#000"/><path fill-rule="evenodd" clip-rule="evenodd" d="M29.6183 133.843l1.2215-.899-.706-.967c-.2272-.311-.1591-.737.1546-.968.3138-.23.7388-.168.966.144l.7104.972c1.4061-.894 3.2726-.567 4.2593.784.5913.81.7384 1.811.4874 2.716.9349.032 1.8422.474 2.4335 1.283.9868 1.351.7365 3.237-.5364 4.314l.7023.962c.2271.311.1591.737-.1547.968-.3137.231-.7387.168-.9659-.143l-.6978-.956-1.2214.899.6978.956c.2271.311.1591.736-.1546.967-.3138.231-.7388.168-.966-.143l-.6975-.955-.011.009-1.9386 1.427c-.3138.23-.7388.168-.9659-.144-.2272-.311-.1592-.736.1545-.967l.7956-.586-5.0306-6.888-.7957.586c-.3137.231-.7387.168-.9659-.143-.2272-.311-.1592-.737.1546-.968l1.9499-1.435-.7059-.967c-.2272-.311-.1592-.737.1545-.968.3138-.231.7388-.168.966.143l.706.967zm-.3094 1.936l-.0112.008-.0225.016 2.1095 2.889 3.3168-2.442c.8069-.593.9862-1.716.402-2.516-.5842-.8-1.7047-.966-2.5115-.372l-3.2831 2.417zm8.3136 4.47l-3.3169 2.442-2.1095-2.888 3.3168-2.442c.8068-.594 1.9274-.428 2.5115.372.5842.8.4049 1.923-.4019 2.516z" fill="#000"/><path fill-rule="evenodd" clip-rule="evenodd" d="M72.6344 109.173l1.228-.241-.1866-.97c-.0601-.312.1405-.605.4559-.667.3154-.062.6104.134.6705.446l.1878.976c1.364-.172 2.6415.729 2.9023 2.084.1563.812-.0864 1.612-.592 2.198.6864.353 1.2078 1.002 1.3641 1.814.2608 1.356-.5896 2.675-1.9185 3.031l.1856.964c.06.312-.1406.606-.456.668-.3154.062-.6104-.135-.6704-.447l-.1845-.958-1.2278.241.1844.958c.0601.312-.1406.606-.456.668-.3154.062-.6104-.135-.6704-.447l-.1844-.958a1.732 1.732 0 01-.0112.003l-1.9487.382c-.3154.062-.6104-.135-.6704-.447-.0601-.312.1405-.606.4559-.667l.7998-.157-1.3297-6.911-.7999.157c-.3154.062-.6104-.134-.6704-.446-.0601-.312.1406-.606.456-.668l1.9602-.385-.1866-.97c-.0601-.312.1406-.605.456-.667.3154-.062.6104.134.6704.446l.1866.97zm-.9121 1.336l-.0113.002-.0226.004.5577 2.898 3.3342-.654c.811-.16 1.34-.934 1.1855-1.737-.1544-.802-.9321-1.32-1.7431-1.161l-3.3004.648zm4.6301 6.262l-3.3342.654-.5576-2.898 3.3341-.654c.8111-.159 1.5889.359 1.7433 1.161.1544.803-.3746 1.577-1.1856 1.737z" fill="#000"/><path fill-rule="evenodd" clip-rule="evenodd" d="M89.6206 49.3073l.8252-.2424-.1888-.6519c-.0608-.2098.058-.4235.27-.4858.2119-.0622.4262.0537.487.2635l.19.656c.9227-.204 1.8538.3324 2.1177 1.2435.1582.5461.0424 1.1083-.2666 1.5417.492.1981.8898.6096 1.0479 1.1556.264.9113-.2349 1.8676-1.1221 2.1949l.1879.6485c.0607.2098-.0581.4236-.27.4858-.212.0622-.4263-.0537-.4871-.2635l-.1866-.6444-.8252.2423.1867.6444c.0607.2098-.0581.4236-.27.4858-.212.0622-.4263-.0537-.4871-.2635l-.1865-.6441-.0075.0023-1.3096.3845c-.212.0623-.4263-.0537-.4871-.2634-.0607-.2098.0581-.4236.27-.4858l.5375-.1578-1.3456-4.6457-.5375.1579c-.2119.0622-.4262-.0537-.487-.2635-.0608-.2098.058-.4235.27-.4858l1.3174-.3868-.1889-.652c-.0607-.2098.0581-.4235.27-.4857.212-.0623.4263.0536.487.2634l.1889.652zm-.5401.9715l-.0076.0023-.0152.0044.5643 1.948 2.2407-.658c.5451-.16.8583-.7235.702-1.263-.1562-.5394-.7212-.8451-1.2662-.685l-2.218.6513zm3.5635 3.994l-2.2408.658-.5642-1.948 2.2407-.658c.5451-.1601 1.1101.1456 1.2663.685.1563.5395-.1569 1.103-.702 1.263z" fill="#000"/><path fill-rule="evenodd" clip-rule="evenodd" d="M27.2394 67.4929l1.5062-.4482-.3493-1.1899c-.1124-.383.1033-.7743.4902-.8894.3869-.1151.7791.0953.8916.4782l.3515 1.1974c1.6845-.3788 3.3893.5951 3.8775 2.2582.2926.9967.0847 2.0247-.4771 2.8185.9002.3588 1.6298 1.108 1.9223 2.1047.4883 1.6632-.417 3.4139-2.0358 4.0177l.3475 1.1836c.1124.383-.1033.7743-.4902.8894-.3868.1151-.7791-.0953-.8915-.4782l-.3453-1.1762-1.5061.4482.3453 1.1761c.1124.383-.1033.7743-.4902.8894-.3869.1151-.7792-.0953-.8916-.4782l-.3451-1.1757-.0136.0042-2.3904.7112c-.3869.1152-.7792-.0952-.8916-.4782-.1124-.3829.1033-.7742.4902-.8893l.981-.2919-2.4891-8.4793-.9811.2919c-.3869.1151-.7792-.0953-.8915-.4782-.1125-.3829.1032-.7742.4901-.8894l2.4044-.7154-.3493-1.19c-.1124-.3829.1033-.7742.4901-.8893.3869-.1151.7792.0953.8916.4782l.3493 1.1899zm-.9804 1.7787l-.0139.0042-.0277.0081 1.0438 3.5557 4.0898-1.217c.9949-.296 1.5634-1.3276 1.2744-2.3123-.289-.9846-1.3233-1.5393-2.3181-1.2433l-4.0483 1.2046zm6.5373 7.2742l-4.0899 1.2169-1.0437-3.5556 4.0898-1.2169c.9949-.2961 2.0291.2587 2.3181 1.2433.2891.9846-.2795 2.0163-1.2743 2.3123z" fill="#000"/><path fill-rule="evenodd" clip-rule="evenodd" d="M69.9838 69.1064l1.4836.6896.5486-1.1687c.1765-.3761.6146-.5324.9957-.3553.381.1772.5417.6119.3652.988l-.552 1.1761c1.5747.8668 2.232 2.8022 1.4653 4.4357-.4595.979-1.3308 1.6371-2.3165 1.8685.4544.9008.5063 1.9882.0468 2.9671-.7668 1.6337-2.6804 2.374-4.3591 1.7281l-.5457 1.1625c-.1765.3761-.6146.5324-.9957.3553-.381-.1772-.5417-.6119-.3652-.988l.5422-1.1552-1.4834-.6896-.5423 1.1552c-.1765.3761-.6146.5324-.9957.3553-.3811-.1772-.5418-.6119-.3652-.988l.542-1.1548-.0136-.0061-2.3544-1.0946c-.381-.1771-.5417-.6118-.3652-.9879.1765-.3761.6146-.5324.9957-.3553l.9663.4492 3.9092-8.3283-.9664-.4493c-.381-.1771-.5417-.6118-.3652-.9879.1766-.3761.6147-.5324.9957-.3553l2.3683 1.101.5486-1.1688c.1766-.3761.6147-.5324.9957-.3553.3811.1772.5418.6119.3653.988l-.5486 1.1688zm-1.9915.7103l-.0138-.0062-.0272-.0128-1.6392 3.4924 4.0283 1.8727c.9799.4556 2.1349.0435 2.5889-.9237.4539-.9671.0303-2.1131-.9496-2.5686l-3.9874-1.8538zm.0785 10.1817l-4.0284-1.8728 1.6393-3.4923 4.0282 1.8727c.98.4556 1.4036 1.6016.9497 2.5687-.454.9671-1.609 1.3792-2.5888.9237z" fill="#000"/></g><defs><clipPath id="clip0"><path fill="#fff" d="M0 0h332v200H0z"/></clipPath></defs></svg>