<svg width="101" height="92" viewBox="0 0 101 92" fill="none" xmlns="http://www.w3.org/2000/svg">
<path d="M24.3432 46.3118C12.7758 46.3118 1 50.0531 1 57.3279V79.9838C1 87.2586 12.7758 91 24.3432 91C35.9105 91 47.6863 87.2586 47.6863 79.9838V57.3279C47.6863 50.0531 35.9105 46.3118 24.3432 46.3118ZM24.3432 85.2841C12.88 85.2841 6.73158 81.4388 6.73158 79.8799V76.1386C11.2126 78.5289 17.7779 79.672 24.3432 79.672C30.9084 79.672 37.4737 78.4249 41.9547 76.1386V79.9838C41.9547 81.5427 35.8063 85.2841 24.3432 85.2841ZM24.3432 73.9561C12.88 73.9561 6.73158 70.1108 6.73158 68.552V64.7067C11.2126 67.097 17.7779 68.2402 24.3432 68.2402C30.9084 68.2402 37.4737 66.9931 41.9547 64.7067V68.552C41.9547 70.2148 35.8063 73.9561 24.3432 73.9561ZM24.3432 62.7321C12.88 62.7321 6.73158 58.8868 6.73158 57.3279C6.73158 55.769 12.88 51.9238 24.3432 51.9238C35.8063 51.9238 41.9547 55.769 41.9547 57.3279C41.9547 58.8868 35.8063 62.7321 24.3432 62.7321Z" fill="black" stroke="white" stroke-width="0.6"/>
<path d="M76.6569 1C65.0895 1 53.3137 4.74134 53.3137 12.0162V79.9838C53.3137 87.2587 65.0895 91 76.6569 91C88.2242 91 100 87.2587 100 79.9838V12.0162C100 4.84526 88.2242 1 76.6569 1ZM76.6569 6.71593C88.12 6.71593 94.2685 10.5612 94.2685 12.1201C94.2685 13.679 88.12 17.5242 76.6569 17.5242C65.1937 17.5242 59.0453 13.679 59.0453 12.1201C59.0453 10.5612 65.1937 6.71593 76.6569 6.71593ZM76.6569 85.2841C65.1937 85.2841 59.0453 81.4388 59.0453 79.8799V76.1386C63.5264 78.5289 70.0916 79.6721 76.6569 79.6721C83.2221 79.6721 89.7874 78.4249 94.2685 76.1386V79.9838C94.3727 81.5427 88.12 85.2841 76.6569 85.2841ZM76.6569 73.9561C65.1937 73.9561 59.0453 70.1108 59.0453 68.552V64.7067C63.5264 67.097 70.0916 68.2402 76.6569 68.2402C83.2221 68.2402 89.7874 66.9931 94.2685 64.7067V68.552C94.3727 70.2148 88.12 73.9561 76.6569 73.9561ZM76.6569 62.7321C65.1937 62.7321 59.0453 58.8868 59.0453 57.3279V53.4827C63.5264 55.873 70.0916 57.0162 76.6569 57.0162C83.2221 57.0162 89.7874 55.769 94.2685 53.4827V57.3279C94.3727 58.8868 88.12 62.7321 76.6569 62.7321ZM76.6569 51.4042C65.1937 51.4042 59.0453 47.5589 59.0453 46V42.1547C63.5264 44.545 70.0916 45.6882 76.6569 45.6882C83.2221 45.6882 89.7874 44.4411 94.2685 42.1547V46C94.3727 47.5589 88.12 51.4042 76.6569 51.4042ZM76.6569 40.0762C65.1937 40.0762 59.0453 36.2309 59.0453 34.6721V30.8268C63.5264 33.2171 70.0916 34.3603 76.6569 34.3603C83.2221 34.3603 89.7874 33.1132 94.2685 30.8268V34.6721C94.3727 36.2309 88.12 40.0762 76.6569 40.0762ZM76.6569 28.7483C65.1937 28.7483 59.0453 24.903 59.0453 23.3441V19.4988C63.5264 21.8891 70.0916 23.0323 76.6569 23.0323C83.2221 23.0323 89.7874 21.7852 94.2685 19.4988V23.3441C94.3727 24.903 88.12 28.7483 76.6569 28.7483Z" fill="black" stroke="white" stroke-width="0.6"/>
<path d="M16.319 15.8614L21.5295 10.6651V36.8545C21.5295 38.4134 22.78 39.6605 24.3432 39.6605C25.9063 39.6605 27.1569 38.4134 27.1569 36.8545V10.6651L32.3674 15.8614C32.8884 16.381 33.6179 16.6928 34.3474 16.6928C35.0769 16.6928 35.8063 16.381 36.3274 15.8614C37.4737 14.7182 37.4737 12.9515 36.3274 11.8083L26.3232 1.83139C25.2811 0.792126 23.4053 0.792126 22.259 1.83139L12.2548 11.8083C11.1084 12.9515 11.1084 14.7182 12.2548 15.8614C13.4011 17.0046 15.1727 17.0046 16.319 15.8614Z" fill="#13C8A4" stroke="white" stroke-width="0.6"/>
<ellipse cx="76.691" cy="12.1094" rx="17.9709" ry="5.70312" fill="#13C8A4"/>
<ellipse cx="24.3137" cy="57.2109" rx="17.9239" ry="6.16406" fill="#13C8A4"/>
</svg>
