<svg width="158" height="238" viewBox="0 0 158 238" fill="none" xmlns="http://www.w3.org/2000/svg">
<path d="M96.9375 140.355C96.9375 141.286 97.6899 142.04 98.6181 142.04L105.171 142.04C106.099 142.04 106.851 141.286 106.851 140.355L106.851 81.3845C106.851 80.4538 106.099 79.6993 105.171 79.6993L98.6181 79.6993C97.6899 79.6993 96.9375 80.4538 96.9375 81.3845L96.9375 140.355Z" fill="#13C8A4"/>
<path fill-rule="evenodd" clip-rule="evenodd" d="M101.894 80.6789C102.126 80.6789 102.314 80.4903 102.314 80.2576L102.314 38.7184C102.314 38.4858 102.126 38.2971 101.894 38.2971C101.662 38.2971 101.474 38.4858 101.474 38.7184L101.474 80.2576C101.474 80.4903 101.662 80.6789 101.894 80.6789Z" fill="#13C8A4"/>
<path fill-rule="evenodd" clip-rule="evenodd" d="M101.894 224.921C102.126 224.921 102.314 224.732 102.314 224.5L102.314 109.177C102.314 108.945 102.126 108.756 101.894 108.756C101.662 108.756 101.474 108.945 101.474 109.177L101.474 224.5C101.474 224.732 101.662 224.921 101.894 224.921Z" fill="#13C8A4"/>
<path d="M26.0693 27.9962C26.0693 27.0655 25.3169 26.311 24.3887 26.311H17.8362C16.908 26.311 16.1556 27.0655 16.1556 27.9962V59.5306C16.1556 60.4613 16.908 61.2158 17.8362 61.2158H24.3887C25.3169 61.2158 26.0693 60.4613 26.0693 59.5306V27.9962Z" fill="#13C8A4"/>
<path fill-rule="evenodd" clip-rule="evenodd" d="M21.1129 60.0469C20.8807 60.0469 20.6925 60.2355 20.6925 60.4682V106.724C20.6925 106.957 20.8807 107.145 21.1129 107.145C21.345 107.145 21.5332 106.957 21.5332 106.724V60.4682C21.5332 60.2355 21.345 60.0469 21.1129 60.0469Z" fill="#13C8A4"/>
<path fill-rule="evenodd" clip-rule="evenodd" d="M21.1129 9.55182C20.8807 9.55182 20.6925 9.74045 20.6925 9.97313L20.6925 30.8672C20.6925 31.0999 20.8807 31.2885 21.1129 31.2885C21.345 31.2885 21.5332 31.0999 21.5332 30.8672L21.5332 9.97313C21.5332 9.74045 21.345 9.55182 21.1129 9.55182Z" fill="#13C8A4"/>
<path d="M58.3828 41.7028C58.3828 40.772 57.6304 40.0175 56.7022 40.0175H50.1496C49.2215 40.0175 48.469 40.772 48.469 41.7028V81.7996C48.469 82.7304 49.2215 83.4849 50.1496 83.4849H56.7022C57.6304 83.4849 58.3828 82.7304 58.3828 81.7996V41.7028Z" fill="#13C8A4"/>
<path fill-rule="evenodd" clip-rule="evenodd" d="M53.4259 82.1326C53.1937 82.1326 53.0055 82.3212 53.0055 82.5539V106.724C53.0055 106.957 53.1937 107.145 53.4259 107.145C53.658 107.145 53.8462 106.957 53.8462 106.724V82.5539C53.8462 82.3212 53.658 82.1326 53.4259 82.1326Z" fill="#13C8A4"/>
<path fill-rule="evenodd" clip-rule="evenodd" d="M53.4259 19.2504C53.1937 19.2504 53.0055 19.4391 53.0055 19.6717L53.0055 45.6914C53.0055 45.9241 53.1937 46.1127 53.4259 46.1127C53.658 46.1127 53.8462 45.9241 53.8462 45.6914L53.8462 19.6717C53.8462 19.4391 53.658 19.2504 53.4259 19.2504Z" fill="#13C8A4"/>
<path d="M74.5391 57.5788C74.5391 56.648 73.7866 55.8935 72.8584 55.8935H66.3059C65.3777 55.8935 64.6253 56.648 64.6253 57.5788V85.2275C64.6253 86.1582 65.3777 86.9127 66.3059 86.9127H72.8584C73.7866 86.9127 74.5391 86.1582 74.5391 85.2275V57.5788Z" fill="#13C8A4"/>
<path fill-rule="evenodd" clip-rule="evenodd" d="M69.5816 75.0968C69.3495 75.0968 69.1613 75.2854 69.1613 75.5181V90.7818C69.1613 91.0145 69.3495 91.2031 69.5816 91.2031C69.8138 91.2031 70.002 91.0145 70.002 90.7818V75.5181C70.002 75.2854 69.8138 75.0968 69.5816 75.0968Z" fill="#13C8A4"/>
<path fill-rule="evenodd" clip-rule="evenodd" d="M69.5816 38.2979C69.3495 38.2979 69.1613 38.4865 69.1613 38.7192L69.1613 58.5109C69.1613 58.7436 69.3495 58.9322 69.5816 58.9322C69.8138 58.9322 70.002 58.7436 70.002 58.5109L70.002 38.7192C70.002 38.4865 69.8138 38.2979 69.5816 38.2979Z" fill="#13C8A4"/>
<path d="M90.6953 86.5072C90.6953 85.5765 89.9429 84.822 89.0147 84.822H82.4621C81.534 84.822 80.7815 85.5765 80.7815 86.5072V93.6374C80.7815 94.5682 81.534 95.3227 82.4621 95.3227H89.0147C89.9429 95.3227 90.6953 94.5682 90.6953 93.6374V86.5072Z" fill="#13C8A4"/>
<path fill-rule="evenodd" clip-rule="evenodd" d="M85.7388 91.0443C85.5067 91.0443 85.3185 91.2329 85.3185 91.4656V110.287C85.3185 110.52 85.5067 110.708 85.7388 110.708C85.971 110.708 86.1592 110.52 86.1592 110.287V91.4656C86.1592 91.2329 85.971 91.0443 85.7388 91.0443Z" fill="#13C8A4"/>
<path fill-rule="evenodd" clip-rule="evenodd" d="M85.7388 78.5867C85.5067 78.5867 85.3185 78.7753 85.3185 79.008L85.3185 85.7079C85.3185 85.9406 85.5067 86.1293 85.7388 86.1293C85.971 86.1293 86.1592 85.9406 86.1592 85.7079L86.1592 79.008C86.1592 78.7753 85.971 78.5867 85.7388 78.5867Z" fill="#13C8A4"/>
<path d="M32.3125 71.4726C32.3125 72.4033 33.0649 73.1578 33.9931 73.1578L40.5457 73.1578C41.4738 73.1578 42.2263 72.4033 42.2263 71.4726L42.2263 47.2748C42.2263 46.3441 41.4738 45.5896 40.5457 45.5896L33.9931 45.5896C33.0649 45.5896 32.3125 46.3441 32.3125 47.2748L32.3125 71.4726Z" fill="#13C8A4"/>
<path fill-rule="evenodd" clip-rule="evenodd" d="M37.2695 56.137C37.5016 56.137 37.6898 55.9484 37.6898 55.7157L37.6898 42.1502C37.6898 41.9175 37.5016 41.7288 37.2695 41.7288C37.0373 41.7288 36.8491 41.9175 36.8491 42.1502L36.8491 55.7157C36.8491 55.9484 37.0373 56.137 37.2695 56.137Z" fill="#13C8A4"/>
<path fill-rule="evenodd" clip-rule="evenodd" d="M37.2685 100.997C37.5006 100.997 37.6888 100.808 37.6888 100.575L37.6888 70.8306C37.6888 70.598 37.5006 70.4093 37.2685 70.4093C37.0363 70.4093 36.8481 70.598 36.8481 70.8306L36.8481 100.575C36.8481 100.808 37.0363 100.997 37.2685 100.997Z" fill="#13C8A4"/>
<path d="M-1.40287e-07 203.606C-6.28087e-08 204.537 0.752436 205.292 1.68061 205.292L8.23317 205.292C9.16135 205.292 9.91378 204.537 9.91378 203.606L9.91377 45.9389C9.91377 45.0081 9.16133 44.2536 8.23316 44.2536L1.6806 44.2536C0.752422 44.2536 -1.33426e-05 45.0081 -1.32651e-05 45.9389L-1.40287e-07 203.606Z" fill="#13C8A4"/>
<path fill-rule="evenodd" clip-rule="evenodd" d="M4.95647 69.3873C5.18861 69.3873 5.3768 69.1987 5.3768 68.966L5.37679 16.8487C5.37679 16.616 5.1886 16.4274 4.95646 16.4274C4.72432 16.4274 4.53613 16.616 4.53613 16.8487L4.53613 68.966C4.53613 69.1987 4.72432 69.3873 4.95647 69.3873Z" fill="#13C8A4"/>
<path fill-rule="evenodd" clip-rule="evenodd" d="M4.95695 237.5C5.1891 237.5 5.37729 237.311 5.37729 237.079L5.37728 202.632C5.37728 202.4 5.1891 202.211 4.95695 202.211C4.72481 202.211 4.53662 202.4 4.53662 202.632L4.53662 237.079C4.53662 237.311 4.72481 237.5 4.95695 237.5Z" fill="#13C8A4"/>
<path d="M141.843 22.9523C141.843 22.0215 141.091 21.267 140.163 21.267H133.61C132.682 21.267 131.929 22.0215 131.929 22.9523V63.0491C131.929 63.9799 132.682 64.7344 133.61 64.7344H140.163C141.091 64.7344 141.843 63.9799 141.843 63.0491V22.9523Z" fill="#13C8A4"/>
<path fill-rule="evenodd" clip-rule="evenodd" d="M136.886 63.3821C136.654 63.3821 136.466 63.5708 136.466 63.8035V87.9735C136.466 88.2062 136.654 88.3948 136.886 88.3948C137.118 88.3948 137.307 88.2062 137.307 87.9735V63.8035C137.307 63.5708 137.118 63.3821 136.886 63.3821Z" fill="#13C8A4"/>
<path fill-rule="evenodd" clip-rule="evenodd" d="M136.886 0.499939C136.654 0.499939 136.466 0.688568 136.466 0.921254L136.466 26.9409C136.466 27.1736 136.654 27.3622 136.886 27.3622C137.118 27.3622 137.307 27.1736 137.307 26.9409L137.307 0.921254C137.307 0.688568 137.118 0.499939 136.886 0.499939Z" fill="#13C8A4"/>
<path d="M158 44.0714C158 43.1407 157.248 42.3862 156.319 42.3862H149.767C148.839 42.3862 148.086 43.1407 148.086 44.0714V71.7201C148.086 72.6509 148.839 73.4054 149.767 73.4054H156.319C157.248 73.4054 158 72.6509 158 71.7201V44.0714Z" fill="#13C8A4"/>
<path fill-rule="evenodd" clip-rule="evenodd" d="M153.043 61.5895C152.81 61.5895 152.622 61.7781 152.622 62.0108V77.2745C152.622 77.5071 152.81 77.6958 153.043 77.6958C153.275 77.6958 153.463 77.5071 153.463 77.2745V62.0108C153.463 61.7781 153.275 61.5895 153.043 61.5895Z" fill="#13C8A4"/>
<path fill-rule="evenodd" clip-rule="evenodd" d="M153.043 24.7905C152.81 24.7905 152.622 24.9792 152.622 25.2118L152.622 45.0036C152.622 45.2362 152.81 45.4249 153.043 45.4249C153.275 45.4249 153.463 45.2362 153.463 45.0036L153.463 25.2118C153.463 24.9792 153.275 24.7905 153.043 24.7905Z" fill="#13C8A4"/>
<path d="M115.773 56.0529C115.773 56.9836 116.526 57.7382 117.454 57.7382L124.007 57.7382C124.935 57.7382 125.687 56.9836 125.687 56.0529L125.687 31.8551C125.687 30.9244 124.935 30.1699 124.007 30.1699L117.454 30.1699C116.526 30.1699 115.773 30.9244 115.773 31.8551L115.773 56.0529Z" fill="#13C8A4"/>
<path fill-rule="evenodd" clip-rule="evenodd" d="M120.73 40.7174C120.962 40.7174 121.15 40.5288 121.15 40.2961L121.15 26.7305C121.15 26.4978 120.962 26.3092 120.73 26.3092C120.498 26.3092 120.31 26.4978 120.31 26.7305L120.31 40.2961C120.31 40.5288 120.498 40.7174 120.73 40.7174Z" fill="#13C8A4"/>
<path fill-rule="evenodd" clip-rule="evenodd" d="M120.729 85.577C120.962 85.577 121.15 85.3884 121.15 85.1557L121.15 55.411C121.15 55.1783 120.962 54.9896 120.729 54.9896C120.497 54.9896 120.309 55.1783 120.309 55.411L120.309 85.1557C120.309 85.3884 120.497 85.577 120.729 85.577Z" fill="#13C8A4"/>
</svg>
