<svg width="220" height="290" viewBox="0 0 220 290" fill="none" xmlns="http://www.w3.org/2000/svg">
<path d="M156.794 156.266C156.787 151.273 152.712 147.23 147.692 147.237L80.0297 147.329C75.01 147.336 70.9462 151.389 70.9531 156.383L71.1062 268.397C71.113 273.39 75.1878 277.433 80.2075 277.426L87.3174 277.416C90.572 277.412 93.5758 275.677 95.1928 272.867L106.125 253.872C109.611 247.816 118.386 247.804 121.888 253.851L132.873 272.816C134.497 275.622 137.506 277.349 140.76 277.344L147.87 277.334C152.89 277.328 156.954 273.274 156.947 268.281L156.794 156.266Z" fill="black"/>
<path d="M147.314 94.565C147.314 94.0321 146.879 93.6007 146.343 93.6015L78.4508 93.6934C77.9151 93.6941 77.4815 94.1267 77.4822 94.6595L77.5198 122.157C77.5344 132.814 86.2309 141.442 96.944 141.427L127.98 141.385C138.694 141.371 147.366 132.719 147.352 122.062L147.314 94.565Z" fill="#13C8A4"/>
<path d="M138.608 110.979C138.601 106.183 134.688 102.301 129.867 102.307L94.9506 102.354C90.1297 102.361 86.2269 106.254 86.2335 111.05C86.24 115.845 90.1535 119.728 94.9744 119.721L129.89 119.674C134.711 119.667 138.614 115.774 138.608 110.979Z" fill="white"/>
<path fill-rule="evenodd" clip-rule="evenodd" d="M94.9534 104.364L129.869 104.316C133.575 104.311 136.583 107.295 136.588 110.981C136.593 114.667 133.593 117.66 129.888 117.665L94.9716 117.712C91.2662 117.717 88.2583 114.733 88.2533 111.047C88.2482 107.361 91.248 104.369 94.9534 104.364ZM129.867 102.307C134.688 102.301 138.601 106.183 138.608 110.979C138.614 115.774 134.711 119.667 129.89 119.674L94.9744 119.721C90.1535 119.728 86.24 115.845 86.2335 111.05C86.2269 106.254 90.1297 102.361 94.9506 102.354L129.867 102.307Z" fill="black"/>
<path d="M112.385 84.9639C109.974 84.9671 108.023 86.9136 108.026 89.3115L108.032 93.6532C108.036 96.051 109.992 97.9922 112.403 97.989C114.813 97.9857 116.765 96.0392 116.761 93.6414L116.755 89.2997C116.752 86.9018 114.795 84.9606 112.385 84.9639Z" fill="#13C8A4"/>
<path d="M134.196 76.251C131.785 76.2543 129.834 78.2008 129.837 80.5987L129.855 93.6237C129.858 96.0216 131.815 97.9628 134.225 97.9595C136.636 97.9563 138.587 96.0098 138.584 93.6119L138.566 80.5868C138.563 78.189 136.606 76.2478 134.196 76.251Z" fill="black"/>
<path d="M90.5505 76.31C88.1401 76.3133 86.1887 78.2598 86.192 80.6576L86.2098 93.6827C86.213 96.0805 88.1698 98.0217 90.5802 98.0185C92.9907 98.0152 94.9421 96.0687 94.9388 93.6709L94.921 80.6458C94.9177 78.2479 92.961 76.3067 90.5505 76.31Z" fill="black"/>
<path d="M142.928 78.4102C142.923 74.8134 139.988 71.9016 136.372 71.9065L132.007 71.9124C128.392 71.9174 125.465 74.8371 125.47 78.4339C125.475 82.0306 128.41 84.9424 132.025 84.9375L136.39 84.9316C140.005 84.9267 142.933 82.007 142.928 78.4102Z" fill="#13C8A4"/>
<path d="M99.2826 78.4698C99.2777 74.873 96.3426 71.9612 92.7269 71.9661L88.3624 71.972C84.7467 71.9769 81.8196 74.8967 81.8245 78.4934C81.8294 82.0902 84.7645 85.002 88.3802 84.9971L92.7447 84.9912C96.3604 84.9863 99.2875 82.0665 99.2826 78.4698Z" fill="#13C8A4"/>
<path d="M125.436 113.708C126.493 113.838 127.457 113.091 127.588 112.04C127.719 110.988 126.968 110.03 125.911 109.899C124.854 109.769 123.89 110.516 123.759 111.567C123.628 112.619 124.379 113.577 125.436 113.708Z" fill="black"/>
<path d="M99.2491 113.743C100.306 113.874 101.27 113.127 101.401 112.075C101.532 111.024 100.781 110.065 99.7238 109.935C98.6666 109.805 97.7033 110.551 97.5722 111.603C97.4412 112.655 98.1919 113.613 99.2491 113.743Z" fill="black"/>
<path d="M107.184 127.184C111.413 128.128 114.868 127.895 118.85 127.304C120.077 127.166 120.075 125.267 118.847 125.404C114.382 126.449 111.684 126.228 107.591 125.419C106.499 125.15 106.093 126.914 107.184 127.184Z" fill="white"/>
<path d="M171.098 277.554C171.093 274.086 168.263 271.279 164.778 271.284L142.055 271.314C138.569 271.319 135.747 274.134 135.752 277.602C135.757 281.069 138.586 283.877 142.072 283.872L164.795 283.841C168.281 283.836 171.103 281.022 171.098 277.554Z" fill="black"/>
<path d="M92.3266 277.661C92.3219 274.193 89.4921 271.386 86.0062 271.39L63.2837 271.421C59.7977 271.426 56.9757 274.241 56.9804 277.709C56.9852 281.176 59.8149 283.984 63.3008 283.979L86.0234 283.948C89.5093 283.943 92.3313 281.128 92.3266 277.661Z" fill="black"/>
<path d="M154.512 149.238C151.026 149.242 148.204 152.057 148.209 155.525L148.224 167.078C148.229 170.546 151.059 173.353 154.545 173.348C158.031 173.344 160.853 170.529 160.848 167.061L160.832 155.508C160.828 152.04 157.998 149.233 154.512 149.238Z" fill="#13C8A4"/>
<path fill-rule="evenodd" clip-rule="evenodd" d="M152.416 277.831C155.762 277.826 158.479 280.521 158.483 283.85C158.488 287.179 155.779 289.881 152.432 289.886C149.086 289.89 146.369 287.196 146.364 283.866C146.36 280.537 149.069 277.835 152.416 277.831Z" fill="#13C8A4"/>
<path fill-rule="evenodd" clip-rule="evenodd" d="M137.268 277.851C140.613 277.847 143.33 280.541 143.335 283.87C143.339 287.2 140.63 289.902 137.284 289.906C133.937 289.911 131.221 287.216 131.216 283.887C131.211 280.558 133.921 277.856 137.268 277.851Z" fill="#13C8A4"/>
<path fill-rule="evenodd" clip-rule="evenodd" d="M152.167 280.845C153.98 280.842 155.451 282.189 155.453 283.854C155.456 285.519 153.988 286.87 152.175 286.872C150.363 286.875 148.891 285.527 148.889 283.863C148.887 282.198 150.354 280.847 152.167 280.845Z" fill="white"/>
<path fill-rule="evenodd" clip-rule="evenodd" d="M137.019 280.865C138.831 280.863 140.303 282.21 140.305 283.874C140.307 285.539 138.84 286.89 137.027 286.893C135.214 286.895 133.743 285.548 133.741 283.883C133.738 282.219 135.206 280.868 137.019 280.865Z" fill="white"/>
<path fill-rule="evenodd" clip-rule="evenodd" d="M89.2972 277.916C92.644 277.911 95.3603 280.606 95.3648 283.935C95.3694 287.264 92.6605 289.966 89.3137 289.971C85.9675 289.976 83.2507 287.281 83.2461 283.951C83.2416 280.622 85.951 277.92 89.2972 277.916Z" fill="#13C8A4"/>
<path fill-rule="evenodd" clip-rule="evenodd" d="M74.1493 277.936C77.4951 277.932 80.2118 280.627 80.2164 283.956C80.2209 287.285 77.5116 289.987 74.1658 289.992C70.819 289.996 68.1023 287.302 68.0977 283.972C68.0932 280.643 70.8025 277.941 74.1493 277.936Z" fill="#13C8A4"/>
<path fill-rule="evenodd" clip-rule="evenodd" d="M89.049 280.93C90.8617 280.928 92.333 282.275 92.3352 283.939C92.3375 285.604 90.87 286.955 89.0572 286.958C87.2446 286.96 85.7732 285.613 85.7709 283.948C85.7687 282.283 87.2363 280.933 89.049 280.93Z" fill="white"/>
<path fill-rule="evenodd" clip-rule="evenodd" d="M178.456 103.953C190.511 109.991 196.673 123.673 193.193 136.676C189.131 151.852 173.483 160.878 158.24 156.833L157.523 156.643L157.906 155.212L158.623 155.402C173.072 159.237 187.908 150.683 191.758 136.295C195.057 123.97 189.215 110.999 177.789 105.275L177.124 104.943L177.793 103.621L178.456 103.953ZM180.8 99.1621C195.154 106.312 202.503 122.584 198.364 138.048C193.541 156.068 174.96 166.783 156.862 161.981L156.145 161.791L156.528 160.361L157.245 160.551C174.55 165.143 192.316 154.897 196.928 137.667C200.885 122.881 193.86 107.321 180.137 100.486L179.472 100.154L180.135 98.8307L180.8 99.1621ZM183.147 94.3709C199.798 102.634 208.332 121.494 203.534 139.42C197.951 160.283 176.438 172.69 155.485 167.129L154.768 166.939L155.15 165.509L155.867 165.699C176.027 171.049 196.725 159.113 202.098 139.039C206.713 121.792 198.504 103.645 182.484 95.6947L181.818 95.3652L182.482 94.0406L183.147 94.3709ZM185.492 89.5801C204.442 98.9562 214.16 120.405 208.704 140.792C202.36 164.499 177.915 178.596 154.106 172.279L153.39 172.088L153.772 170.658L154.489 170.848C177.507 176.956 201.135 163.328 207.268 140.411C212.542 120.703 203.147 99.9689 184.832 90.9057L184.166 90.5771L184.826 89.2515L185.492 89.5801Z" fill="black"/>
<path fill-rule="evenodd" clip-rule="evenodd" d="M73.901 280.951C75.7132 280.948 77.1845 282.295 77.1868 283.96C77.1891 285.624 75.7214 286.976 73.9093 286.978C72.096 286.981 70.6248 285.633 70.6225 283.969C70.6202 282.304 72.0878 280.953 73.901 280.951Z" fill="white"/>
<path fill-rule="evenodd" clip-rule="evenodd" d="M114.303 153.422L114.32 165.921C114.322 167.089 113.363 168.044 112.189 168.046C111.016 168.047 110.055 167.095 110.053 165.927L110.036 153.428C110.034 152.26 110.993 151.305 112.166 151.303C113.34 151.302 114.302 152.255 114.303 153.422ZM108.543 153.43L108.56 165.929C108.562 167.097 107.603 168.052 106.43 168.054L106.429 168.054C105.256 168.055 104.294 167.103 104.293 165.934L104.276 153.436C104.274 152.268 105.233 151.313 106.406 151.311L106.407 151.311C107.58 151.309 108.541 152.262 108.543 153.43ZM120.063 153.415L120.08 165.913C120.081 167.082 119.122 168.036 117.949 168.038C116.776 168.04 115.815 167.087 115.813 165.919L115.796 153.42C115.794 152.253 116.753 151.297 117.926 151.295C119.1 151.294 120.061 152.247 120.063 153.415Z" fill="white"/>
<path fill-rule="evenodd" clip-rule="evenodd" d="M146.046 165.947L146.034 156.901C146.028 152.321 149.751 148.604 154.35 148.597C158.949 148.591 162.683 152.299 162.689 156.878L162.701 165.924C162.708 170.504 158.984 174.221 154.385 174.228C149.786 174.234 146.053 170.526 146.046 165.947ZM148.065 165.944C148.07 169.413 150.898 172.222 154.382 172.217C157.867 172.213 160.687 169.396 160.683 165.927L160.67 156.881C160.665 153.412 157.837 150.603 154.353 150.608C150.869 150.612 148.048 153.429 148.053 156.898L148.065 165.944Z" fill="#13C8A4"/>
<path fill-rule="evenodd" clip-rule="evenodd" d="M172.463 107.444C170.923 106.695 170.28 104.83 171.031 103.298L179.812 85.3805C180.564 83.8492 182.438 83.2071 183.976 83.9543C185.516 84.7035 186.159 86.5684 185.408 88.101L176.625 106.018C175.875 107.55 174.002 108.192 172.463 107.444Z" fill="#13C8A4"/>
<path d="M154.382 172.218C150.898 172.223 148.07 169.414 148.065 165.945L148.053 156.899C148.048 153.429 150.869 150.613 154.353 150.608C157.837 150.603 160.665 153.412 160.67 156.881L160.682 165.927C160.687 169.397 157.867 172.213 154.382 172.218Z" fill="black"/>
<path fill-rule="evenodd" clip-rule="evenodd" d="M41.5793 104.099C29.5348 110.167 23.4073 123.859 26.9245 136.846C31.0295 152.003 46.7105 160.982 61.9494 156.898L62.6661 156.706L62.2791 155.277L61.5625 155.469C47.1172 159.341 32.2504 150.831 28.3588 136.461C25.0248 124.151 30.8337 111.17 42.2501 105.419L42.914 105.085L42.2416 103.766L41.5793 104.099ZM39.2204 99.3169C24.8793 106.502 17.5716 122.786 21.7546 138.231C26.6288 156.229 45.2486 166.889 63.3419 162.04L64.0586 161.848L63.6717 160.419L62.955 160.611C45.6544 165.248 27.8511 155.056 23.1905 137.847C19.1911 123.079 26.1765 107.507 39.8875 100.638L40.5519 100.305L39.8848 98.9838L39.2204 99.3169ZM36.8595 94.5345C20.2227 102.838 11.7365 121.712 16.5855 139.617C22.2287 160.454 43.7859 172.796 64.7345 167.182L65.4512 166.99L65.0643 165.561L64.3476 165.753C44.1928 171.155 23.4515 159.281 18.0217 139.232C13.3565 122.006 21.5204 103.845 37.5266 95.8558L38.1915 95.5247L37.5242 94.2025L36.8595 94.5345ZM34.5005 89.7524C15.5666 99.1751 5.90212 120.64 11.4166 141.002C17.8291 164.679 42.3245 178.704 66.1273 172.325L66.844 172.133L66.4571 170.704L65.7404 170.896C42.7284 177.063 19.0514 163.506 12.8526 140.617C7.5218 120.933 16.8647 100.184 35.1645 91.0755L35.8294 90.7453L35.1656 89.4221L34.5005 89.7524Z" fill="black"/>
<path fill-rule="evenodd" clip-rule="evenodd" d="M74.1739 165.974L74.1616 156.933C74.1553 152.355 70.42 148.65 65.8186 148.656C61.2172 148.662 57.4921 152.378 57.4984 156.955L57.5107 165.997C57.517 170.574 61.2522 174.28 65.8536 174.273C70.4551 174.267 74.1802 170.552 74.1739 165.974ZM72.1541 165.977C72.1589 169.445 69.3368 172.26 65.8509 172.264C62.365 172.269 59.5352 169.462 59.5305 165.994L59.5181 156.952C59.5134 153.485 62.3355 150.67 65.8214 150.665C69.3073 150.66 72.137 153.468 72.1418 156.935L72.1541 165.977Z" fill="#13C8A4"/>
<path fill-rule="evenodd" clip-rule="evenodd" d="M47.5843 107.572C49.1229 106.82 49.7613 104.954 49.0062 103.424L40.172 85.5396C39.4146 84.0111 37.5387 83.3744 36.0015 84.1253C34.463 84.8784 33.8247 86.7441 34.5806 88.2739L43.4165 106.158C44.1714 107.687 46.0473 108.324 47.5843 107.572Z" fill="#13C8A4"/>
<path d="M65.85 172.264C69.336 172.26 72.158 169.445 72.1533 165.977L72.1409 156.936C72.1362 153.468 69.3064 150.661 65.8205 150.665C62.3346 150.67 59.5125 153.485 59.5173 156.953L59.5296 165.994C59.5344 169.462 62.3641 172.269 65.85 172.264Z" fill="black"/>
<path d="M118.7 48.7266L102.036 46.0962L105.04 26.8514L121.705 29.4818C127.05 30.3254 130.711 35.3187 129.882 40.632C129.052 45.9452 124.045 49.5702 118.7 48.7266ZM106.897 42.5768L119.354 44.5429C122.383 45.0212 125.203 42.9799 125.673 39.9677C126.144 36.9555 124.082 34.1437 121.052 33.6654L108.595 31.6993L106.897 42.5768Z" fill="black"/>
<path d="M116.325 63.8182L99.6601 61.1878L102.665 41.943L119.329 44.5734C124.674 45.417 128.336 50.4103 127.506 55.7236C126.677 61.0368 121.669 64.6618 116.325 63.8182ZM104.522 57.6684L116.978 59.6346C120.008 60.1128 122.828 58.0716 123.298 55.0593C123.768 52.0471 121.706 49.2353 118.676 48.7571L106.22 46.7909L104.522 57.6684Z" fill="black"/>
<path d="M108.704 31.7127L101.428 30.5656C100.251 30.3799 99.4691 29.3148 99.652 28.1449C99.8349 26.9749 100.904 26.2016 102.081 26.3872L109.358 27.5344C110.535 27.72 111.317 28.7851 111.134 29.9551C110.951 31.125 109.882 31.8984 108.704 31.7127Z" fill="black"/>
<path d="M110.85 32.0477C109.669 31.8615 108.886 30.7936 109.069 29.6206L109.966 23.8814C110.149 22.7084 111.221 21.933 112.401 22.1193C113.581 22.3055 114.365 23.3734 114.182 24.5464L113.285 30.2856C113.102 31.4586 112.03 32.2339 110.85 32.0477Z" fill="black"/>
<path d="M119.635 33.4224C118.455 33.2362 117.671 32.1683 117.854 30.9954L118.751 25.2562C118.935 24.0832 120.006 23.3079 121.186 23.494C122.367 23.6802 123.15 24.7481 122.967 25.9211L122.07 31.6603C121.887 32.8332 120.815 33.6086 119.635 33.4224Z" fill="black"/>
<path d="M105.2 67.9314C104.02 67.7452 103.236 66.6773 103.419 65.5043L104.31 59.8071C104.493 58.6341 105.565 57.8587 106.745 58.0449C107.925 58.2311 108.709 59.299 108.526 60.472L107.635 66.1692C107.452 67.3422 106.381 68.1175 105.2 67.9314Z" fill="black"/>
<path d="M113.985 69.3066C112.805 69.1204 112.021 68.0525 112.204 66.8795L113.095 61.1823C113.278 60.0093 114.349 59.234 115.53 59.4201C116.71 59.6063 117.494 60.6742 117.311 61.8472L116.42 67.5444C116.237 68.7174 115.165 69.4928 113.985 69.3066Z" fill="black"/>
<path d="M103.953 61.8979L96.6769 60.7508C95.4992 60.5652 94.7177 59.5 94.9005 58.3301C95.0834 57.1602 96.1524 56.3868 97.33 56.5725L104.606 57.7196C105.784 57.9053 106.565 58.9704 106.382 60.1403C106.2 61.3103 105.131 62.0836 103.953 61.8979Z" fill="black"/>
<path d="M103.004 13.1251C103.096 13.5315 103.347 13.8848 103.701 14.1071C104.055 14.3295 104.484 14.4027 104.892 14.3107C105.3 14.2187 105.655 13.9691 105.879 13.6166C106.102 13.2642 106.176 12.8378 106.083 12.4314L103.946 3.03394C103.853 2.62829 103.602 2.276 103.248 2.05436C102.894 1.83272 102.466 1.75984 102.058 1.85169C101.651 1.94355 101.296 2.19265 101.073 2.54434C100.849 2.89603 100.775 3.32158 100.866 3.72764L103.004 13.1251Z" fill="#13C8A4"/>
<path d="M94.2117 17.7197C94.4542 18.0595 94.8225 18.2896 95.2355 18.3591C95.6485 18.4287 96.0723 18.3322 96.4138 18.0908C96.7552 17.8493 96.9863 17.4828 97.0563 17.0718C97.1262 16.6607 97.0292 16.2389 96.7866 15.8991L91.177 8.04118C90.9338 7.70314 90.5658 7.47481 90.1537 7.4062C89.7417 7.33758 89.3191 7.43427 88.9785 7.67508C88.6378 7.9159 88.407 8.28122 88.3364 8.69107C88.2659 9.10091 88.3614 9.52189 88.602 9.86182L94.2117 17.7197Z" fill="#13C8A4"/>
<path d="M80.7574 18.419L88.6456 24.0001C88.9869 24.241 89.4104 24.3371 89.8229 24.2675C90.2355 24.1978 90.6033 23.9681 90.8458 23.6286C91.0883 23.2892 91.1854 22.8679 91.116 22.4573C91.0466 22.0466 90.8163 21.6801 90.4756 21.4383L82.5874 15.8572C82.2461 15.6166 81.8227 15.5207 81.4104 15.5904C80.998 15.6601 80.6302 15.8898 80.3879 16.2291C80.1455 16.5684 80.0483 16.9896 80.1176 17.4001C80.1868 17.8107 80.417 18.1771 80.7574 18.419Z" fill="#13C8A4"/>
<path d="M75.7257 31.1204L85.1685 33.2536C85.5766 33.3452 86.0045 33.2718 86.3583 33.0496C86.7121 32.8275 86.9628 32.4746 87.0554 32.0686C87.148 31.6626 87.0749 31.2366 86.8522 30.8842C86.6295 30.5317 86.2753 30.2817 85.8675 30.1889L76.4248 28.0557C76.0167 27.9641 75.5888 28.0375 75.235 28.2597C74.8812 28.4819 74.6305 28.8347 74.5379 29.2407C74.4453 29.6467 74.5184 30.0727 74.7411 30.4251C74.9638 30.7776 75.3179 31.0276 75.7257 31.1204Z" fill="#13C8A4"/>
<path d="M124.851 13.1251C124.758 13.5315 124.508 13.8848 124.153 14.1071C123.799 14.3295 123.371 14.4027 122.963 14.3107C122.554 14.2187 122.199 13.9691 121.976 13.6166C121.752 13.2642 121.679 12.8378 121.771 12.4314L123.909 3.03394C124.002 2.62829 124.253 2.276 124.607 2.05436C124.961 1.83272 125.388 1.75984 125.796 1.85169C126.204 1.94355 126.558 2.19265 126.782 2.54434C127.005 2.89603 127.08 3.32158 126.988 3.72764L124.851 13.1251Z" fill="#13C8A4"/>
<path d="M133.643 17.7197C133.4 18.0595 133.032 18.2896 132.619 18.3591C132.206 18.4287 131.782 18.3322 131.441 18.0908C131.099 17.8493 130.868 17.4828 130.798 17.0718C130.728 16.6607 130.825 16.2389 131.068 15.8991L136.678 8.04118C136.921 7.70314 137.289 7.47481 137.701 7.4062C138.113 7.33758 138.536 7.43427 138.876 7.67508C139.217 7.9159 139.448 8.28122 139.518 8.69107C139.589 9.10091 139.493 9.52189 139.253 9.86182L133.643 17.7197Z" fill="#13C8A4"/>
<path d="M147.097 18.419L139.209 24.0001C138.868 24.241 138.444 24.3371 138.032 24.2675C137.619 24.1978 137.251 23.9681 137.009 23.6286C136.766 23.2892 136.669 22.8679 136.739 22.4573C136.808 22.0466 137.038 21.6801 137.379 21.4383L145.267 15.8572C145.609 15.6166 146.032 15.5207 146.444 15.5904C146.857 15.6601 147.224 15.8898 147.467 16.2291C147.709 16.5684 147.806 16.9896 147.737 17.4001C147.668 17.8107 147.438 18.1771 147.097 18.419Z" fill="#13C8A4"/>
<path d="M152.129 31.1204L142.686 33.2536C142.278 33.3452 141.85 33.2718 141.496 33.0496C141.143 32.8275 140.892 32.4746 140.799 32.0686C140.707 31.6626 140.78 31.2366 141.002 30.8842C141.225 30.5317 141.579 30.2817 141.987 30.1889L151.43 28.0557C151.838 27.9641 152.266 28.0375 152.62 28.2597C152.973 28.4819 153.224 28.8347 153.317 29.2407C153.409 29.6467 153.336 30.0727 153.113 30.4251C152.891 30.7776 152.537 31.0276 152.129 31.1204Z" fill="#13C8A4"/>
<path d="M112.264 1.91723C112.259 1.50054 112.419 1.09864 112.711 0.799942C113.003 0.501244 113.402 0.330214 113.821 0.324476C114.24 0.318738 114.644 0.478763 114.944 0.769347C115.244 1.05993 115.416 1.45727 115.421 1.87396L115.554 11.5082C115.559 11.9243 115.398 12.3253 115.106 12.6233C114.814 12.9212 114.416 13.0918 113.998 13.0975C113.58 13.1032 113.176 12.9437 112.876 12.6538C112.576 12.364 112.404 11.9676 112.397 11.5515L112.264 1.91723Z" fill="#13C8A4"/>
</svg>
