<svg width="138" height="49" viewBox="0 0 138 49" fill="none" xmlns="http://www.w3.org/2000/svg"><path d="M34.59 23.8c-.03-2.74 2.22-4.07 2.32-4.13a4.98 4.98 0 00-3.94-2.16c-1.65-.17-3.26 1-4.1 1-.86 0-2.16-.98-3.56-.95a5.23 5.23 0 00-4.4 2.72c-1.91 3.34-.49 8.25 1.34 10.95.91 1.33 1.98 2.8 3.38 2.75 1.36-.06 1.87-.88 3.52-.88 1.64 0 2.12.88 3.54.85 1.47-.03 2.4-1.33 3.28-2.67 1.05-1.51 1.48-3 1.5-3.08a4.76 4.76 0 01-2.88-4.4z" fill="#fff"/><path d="M31.83 15.77a4.9 4.9 0 001.1-3.48c-1.07.04-2.4.74-3.17 1.65a4.66 4.66 0 00-1.12 3.35c1.2.1 2.42-.6 3.19-1.52z" fill="#fff"/><path d="M47.54 29.11h3.7l-1.83-5.43h-.05l-1.82 5.43zm4.18 1.55h-4.66L45.94 34h-1.98l4.42-12.4h2.05l4.42 12.4h-2l-1.13-3.35z" fill="#fff"/><path d="M62.65 29.5c0-1.83-.93-3.04-2.36-3.04-1.4 0-2.34 1.23-2.34 3.04 0 1.82.94 3.03 2.34 3.03 1.43 0 2.36-1.19 2.36-3.04zm1.88 0c0 2.8-1.48 4.6-3.72 4.6A3.02 3.02 0 0158 32.54h-.04V37h-1.83V24.98h1.77v1.5h.03c.51-.97 1.6-1.6 2.84-1.6 2.27 0 3.76 1.82 3.76 4.62z" fill="#fff"/><path d="M72.38 29.5c0-1.83-.93-3.04-2.36-3.04-1.4 0-2.34 1.23-2.34 3.04 0 1.82.95 3.03 2.34 3.03 1.43 0 2.36-1.19 2.36-3.04zm1.89 0c0 2.8-1.49 4.6-3.73 4.6a3.02 3.02 0 01-2.8-1.57h-.05V37h-1.83V24.98h1.77v1.5h.04c.5-.97 1.6-1.6 2.84-1.6 2.26 0 3.76 1.82 3.76 4.62z" fill="#fff"/><path d="M80.84 30.52c.13 1.23 1.31 2.04 2.92 2.04 1.55 0 2.66-.8 2.66-1.92 0-.96-.67-1.53-2.26-1.93l-1.58-.39c-2.25-.54-3.3-1.6-3.3-3.34 0-2.13 1.85-3.6 4.46-3.6 2.58 0 4.36 1.47 4.42 3.6H86.3C86.2 23.75 85.19 23 83.7 23c-1.47 0-2.48.76-2.48 1.86 0 .87.64 1.39 2.22 1.78l1.35.34c2.51.6 3.55 1.62 3.55 3.43 0 2.32-1.82 3.77-4.72 3.77-2.72 0-4.55-1.42-4.67-3.66h1.88z" fill="#fff"/><path d="M92.2 22.85v2.14h1.7v1.46h-1.7v4.98c0 .78.35 1.14 1.1 1.14.18 0 .48-.03.6-.05v1.46c-.2.06-.61.09-1.02.09-1.8 0-2.51-.69-2.51-2.44v-5.18h-1.3V25h1.3v-2.14h1.84z" fill="#fff"/><path d="M101.47 29.46c0-1.95-.88-3.1-2.37-3.1-1.48 0-2.36 1.16-2.36 3.1 0 1.96.88 3.1 2.36 3.1 1.49 0 2.37-1.14 2.37-3.1zm-6.6 0c0-2.84 1.66-4.62 4.23-4.62 2.6 0 4.24 1.78 4.24 4.62 0 2.85-1.64 4.63-4.24 4.63-2.59 0-4.23-1.78-4.23-4.63z" fill="#fff"/><path d="M104.98 24.98h1.75v1.54h.04a2.13 2.13 0 012.15-1.64c.26 0 .48.04.62.07v1.74a2.53 2.53 0 00-.82-.12c-1.18 0-1.9.81-1.9 2.08v5.36h-1.84v-9.03z" fill="#fff"/><path d="M111.7 28.63h4.47c-.05-1.38-.92-2.3-2.2-2.3-1.25 0-2.17.94-2.27 2.3zm6.2 2.7c-.25 1.64-1.83 2.76-3.84 2.76-2.6 0-4.21-1.76-4.21-4.58 0-2.84 1.62-4.67 4.13-4.67 2.47 0 4.02 1.71 4.02 4.45v.64h-6.3v.1c0 1.55.96 2.57 2.4 2.57 1.02 0 1.81-.5 2.06-1.27h1.74z" fill="#fff"/><path d="M46.18 17.4h1.11c1.23 0 1.94-.78 1.94-2.14 0-1.35-.72-2.13-1.94-2.13h-1.1v4.27zm1.21-5.11c1.75 0 2.77 1.08 2.77 2.95 0 1.9-1.01 3-2.77 3h-2.12v-5.95h2.12z" fill="#fff"/><path d="M54.36 15.99c0-.97-.43-1.54-1.2-1.54-.75 0-1.18.57-1.18 1.54 0 .98.43 1.55 1.19 1.55s1.19-.57 1.19-1.55zm-3.29 0c0-1.45.8-2.33 2.1-2.33 1.29 0 2.09.88 2.09 2.33 0 1.46-.8 2.33-2.1 2.33s-2.09-.87-2.09-2.33z" fill="#fff"/><path d="M60.87 18.25h-.9l-.92-3.31h-.07l-.92 3.3h-.9l-1.22-4.49h.89l.8 3.43h.06l.91-3.43h.84l.91 3.43h.07l.8-3.43h.87l-1.22 4.5z" fill="#fff"/><path d="M63.24 13.74h.84v.72h.07c.21-.5.65-.8 1.32-.8 1 0 1.54.6 1.54 1.67v2.9h-.88v-2.68c0-.72-.3-1.08-.96-1.08-.64 0-1.06.44-1.06 1.14v2.63h-.87v-4.5z" fill="#fff"/><path d="M69.17 12h-.88v6.25h.88V12z" fill="#fff"/><path d="M73.64 15.99c0-.97-.43-1.54-1.2-1.54-.75 0-1.18.57-1.18 1.54 0 .98.43 1.55 1.19 1.55s1.19-.57 1.19-1.55zm-3.29 0c0-1.45.8-2.33 2.1-2.33 1.29 0 2.09.88 2.09 2.33 0 1.46-.8 2.33-2.1 2.33s-2.09-.87-2.09-2.33z" fill="#fff"/><path d="M78.45 16.58v-.37l-1.09.07c-.6.04-.89.25-.89.65s.35.64.83.64c.66 0 1.15-.43 1.15-.99zm-2.86.39c0-.81.6-1.28 1.65-1.34l1.2-.07v-.4c0-.47-.3-.73-.9-.73-.5 0-.83.18-.93.5h-.85c.1-.78.81-1.27 1.82-1.27 1.11 0 1.74.56 1.74 1.5v3.08h-.84v-.63h-.07c-.27.45-.75.7-1.34.7-.85 0-1.48-.52-1.48-1.34z" fill="#fff"/><path d="M81.36 16c0 .95.45 1.52 1.19 1.52s1.2-.58 1.2-1.52c0-.93-.47-1.52-1.2-1.52-.74 0-1.19.57-1.19 1.52zm-.9 0c0-1.42.72-2.32 1.84-2.32.6 0 1.12.3 1.36.79h.07V12h.87v6.25h-.84v-.71h-.06c-.27.49-.79.78-1.4.78-1.13 0-1.84-.9-1.84-2.32z" fill="#fff"/><path d="M91.42 15.99c0-.97-.43-1.54-1.2-1.54-.75 0-1.18.57-1.18 1.54 0 .98.43 1.55 1.19 1.55s1.19-.57 1.19-1.55zm-3.29 0c0-1.45.8-2.33 2.1-2.33s2.1.88 2.1 2.33c0 1.46-.8 2.33-2.1 2.33s-2.1-.87-2.1-2.33z" fill="#fff"/><path d="M93.56 13.74h.85v.72h.06c.22-.5.66-.8 1.33-.8.99 0 1.53.6 1.53 1.67v2.9h-.87v-2.68c0-.72-.31-1.08-.96-1.08-.65 0-1.06.44-1.06 1.14v2.63h-.88v-4.5z" fill="#fff"/><path d="M102.26 12.62v1.14h.96v.74h-.96v2.31c0 .47.19.68.63.68.13 0 .2 0 .33-.02v.74c-.14.02-.3.04-.48.04-.97 0-1.36-.34-1.36-1.21V14.5h-.7v-.74h.7v-1.14h.88z" fill="#fff"/><path d="M104.42 12h.87v2.48h.07c.21-.5.68-.81 1.35-.81.95 0 1.53.6 1.53 1.68v2.9h-.88v-2.69c0-.71-.33-1.08-.95-1.08-.72 0-1.11.46-1.11 1.14v2.63h-.88V12z" fill="#fff"/><path d="M110.18 15.58h2.24c-.02-.7-.44-1.17-1.1-1.17-.64 0-1.1.46-1.14 1.17zm3.08 1.44c-.2.8-.91 1.3-1.92 1.3-1.28 0-2.05-.88-2.05-2.31 0-1.44.8-2.35 2.04-2.35s1.98.85 1.98 2.26v.31h-3.13v.05c.03.79.48 1.29 1.18 1.29.53 0 .9-.2 1.06-.55h.84z" fill="#fff"/><rect x="0.75" y="0.75" width="136.5" height="47.5" rx="7.25" stroke="#fff" stroke-width="1.5"/></svg>