<svg width="15" height="18" viewBox="0 0 15 18" fill="none" xmlns="http://www.w3.org/2000/svg">
<path d="M7.33652 4.15385C8.12695 4.15385 9.11777 3.60458 9.70781 2.87222C10.2422 2.20852 10.6318 1.28163 10.6318 0.354736C10.6318 0.228861 10.6207 0.102988 10.5984 0C9.71895 0.0343293 8.66133 0.606484 8.02676 1.37317C7.52578 1.95677 7.06934 2.87222 7.06934 3.81055C7.06934 3.94787 7.0916 4.08519 7.10273 4.13096C7.1584 4.1424 7.24746 4.15385 7.33652 4.15385ZM4.55332 18C5.6332 18 6.11191 17.2562 7.45898 17.2562C8.82832 17.2562 9.12891 17.9771 10.3312 17.9771C11.5113 17.9771 12.3018 16.8557 13.0477 15.7572C13.8826 14.4984 14.2277 13.2626 14.25 13.2053C14.1721 13.1825 11.9121 12.2327 11.9121 9.56643C11.9121 7.25493 13.6934 6.2136 13.7936 6.1335C12.6135 4.39415 10.8211 4.34838 10.3312 4.34838C9.00645 4.34838 7.92656 5.17228 7.24746 5.17228C6.5127 5.17228 5.54414 4.39415 4.39746 4.39415C2.21543 4.39415 0 6.24793 0 9.74952C0 11.9237 0.823828 14.2238 1.83691 15.7114C2.70527 16.9701 3.4623 18 4.55332 18Z" fill="black"/>
</svg>
