<svg width="152" height="126" viewBox="0 0 152 126" fill="none" xmlns="http://www.w3.org/2000/svg">
<path d="M2 61C0.89543 61 0 61.8954 0 63C0 64.1046 0.89543 65 2 65V61ZM151.414 64.4142C152.195 63.6332 152.195 62.3668 151.414 61.5858L138.686 48.8579C137.905 48.0768 136.639 48.0768 135.858 48.8579C135.077 49.6389 135.077 50.9052 135.858 51.6863L147.172 63L135.858 74.3137C135.077 75.0948 135.077 76.3611 135.858 77.1421C136.639 77.9232 137.905 77.9232 138.686 77.1421L151.414 64.4142ZM2 65H150V61H2V65Z" fill="#13C8A4"/>
<path d="M2 13C0.89543 13 0 13.8954 0 15C0 16.1046 0.89543 17 2 17V13ZM151.414 16.4142C152.195 15.6332 152.195 14.3668 151.414 13.5858L138.686 0.857864C137.905 0.0768156 136.639 0.0768156 135.858 0.857864C135.077 1.63891 135.077 2.90524 135.858 3.68629L147.172 15L135.858 26.3137C135.077 27.0948 135.077 28.3611 135.858 29.1421C136.639 29.9232 137.905 29.9232 138.686 29.1421L151.414 16.4142ZM2 17H150V13H2V17Z" fill="black"/>
<path d="M2 109C0.89543 109 0 109.895 0 111C0 112.105 0.89543 113 2 113V109ZM151.414 112.414C152.195 111.633 152.195 110.367 151.414 109.586L138.686 96.8579C137.905 96.0768 136.639 96.0768 135.858 96.8579C135.077 97.6389 135.077 98.9052 135.858 99.6863L147.172 111L135.858 122.314C135.077 123.095 135.077 124.361 135.858 125.142C136.639 125.923 137.905 125.923 138.686 125.142L151.414 112.414ZM2 113H150V109H2V113Z" fill="black"/>
</svg>
