<svg width="68" height="68" viewBox="0 0 68 68" fill="none" xmlns="http://www.w3.org/2000/svg">
<path d="M34 68C52.7777 68 68 52.7777 68 34C68 15.2223 52.7777 0 34 0C15.2223 0 0 15.2223 0 34C0 52.7777 15.2223 68 34 68Z" fill="#13C8A4"/>
<path d="M15.5576 33.2634L48.3393 20.6239C49.8608 20.0743 51.1896 20.9951 50.6966 23.2958L50.6994 23.2929L45.1178 49.5891C44.7041 51.4534 43.5963 51.9068 42.0464 51.0284L33.5464 44.7639L29.4466 48.7136C28.9933 49.1669 28.6108 49.5494 27.7324 49.5494L28.3359 40.8993L44.0893 26.6674C44.7749 26.0639 43.9363 25.7239 43.0324 26.3246L23.5646 38.5816L15.1723 35.9636C13.3504 35.3856 13.3108 34.1418 15.5576 33.2634Z" fill="white"/>
</svg>
