<svg width="68" height="68" viewBox="0 0 68 68" fill="none" xmlns="http://www.w3.org/2000/svg">
<circle cx="33.5" cy="34.5" r="22.5" fill="white"/>
<path d="M34 0C27.2754 0 20.7019 1.99406 15.1106 5.73003C9.51935 9.466 5.16149 14.7761 2.58811 20.9888C0.0147316 27.2014 -0.658582 34.0377 0.653316 40.6331C1.96521 47.2284 5.2034 53.2866 9.95838 58.0416C14.7134 62.7966 20.7716 66.0348 27.3669 67.3467C33.9623 68.6586 40.7986 67.9853 47.0112 65.4119C53.2239 62.8385 58.534 58.4806 62.27 52.8894C66.0059 47.2981 68 40.7246 68 34C68 24.9826 64.4179 16.3346 58.0416 9.95837C51.6654 3.58213 43.0174 0 34 0V0ZM36.5704 47.5184C36.584 49.7012 35.36 51 33.218 51C31.076 51 29.648 49.7488 29.6412 47.9196C29.6412 45.3832 30.7768 44.1184 33.0412 44.0504C34.884 43.996 36.8016 45.1248 36.5704 47.5184ZM41.3304 31.824C40.3648 32.572 39.3516 33.252 38.3792 33.9864C37.6746 34.448 37.1039 35.0869 36.7243 35.8388C36.3448 36.5908 36.1697 37.4294 36.2168 38.2704C36.241 38.8773 36.0613 39.4749 35.7063 39.9679C35.3514 40.4608 34.8417 40.8208 34.2584 40.9904C33.6374 41.2294 32.9547 41.2556 32.3172 41.0648C31.6798 40.8741 31.1237 40.4772 30.736 39.9364C30.482 39.5101 30.3437 39.0249 30.3348 38.5288C30.2857 36.9921 30.6125 35.4666 31.2868 34.0849C31.9611 32.7031 32.9625 31.5069 34.204 30.6C35.2955 29.7693 36.325 28.8602 37.2844 27.88C37.7417 27.3412 38.0198 26.6733 38.08 25.9692C38.2364 24.0448 36.9988 22.8072 35.0064 22.678C32.5992 22.5216 30.5728 23.1472 29.1652 25.2756C28.8701 25.7773 28.4284 26.1766 27.8996 26.4197C27.3708 26.6628 26.7801 26.7382 26.2072 26.6356C24.1672 26.2956 23.29 24.6364 24.1264 22.7256C25.002 20.8633 26.5072 19.3702 28.3764 18.5096C30.2964 17.5659 32.3985 17.0509 34.5372 17C35.7469 17.1263 36.948 17.3239 38.1344 17.5916C41.7588 18.6184 43.9144 21.5152 44.1864 25.364C44.3176 26.5972 44.1221 27.8433 43.6196 28.9772C43.1171 30.111 42.3253 31.0928 41.3236 31.824H41.3304Z" fill="#13C8A4"/>
</svg>
