<svg width="68" height="68" viewBox="0 0 68 68" fill="none" xmlns="http://www.w3.org/2000/svg">
<path d="M68 0H0V68H68V0Z" fill="#13C8A4"/>
<path d="M16.2271 22.7418C16.2838 22.181 16.07 21.6268 15.6512 21.2494L11.3859 16.1111V15.3435H24.6298L34.8667 37.7943L43.8666 15.3435H56.4921V16.1111L52.8452 19.6077C52.5308 19.8473 52.3749 20.2412 52.44 20.6311V46.3226C52.3749 46.7125 52.5308 47.1064 52.8452 47.346L56.4068 50.8426V51.6102H38.4923V50.8426L42.1818 47.2607C42.5444 46.8983 42.5444 46.7917 42.5444 46.2373V25.4709L32.2862 51.5249H30.8999L18.9569 25.4709V42.9326C18.8573 43.6668 19.1011 44.4059 19.618 44.9368L24.4166 50.7573V51.5249H10.8101V50.7573L15.6086 44.9368C16.1217 44.405 16.3513 43.661 16.2271 42.9326V22.7418Z" fill="white"/>
</svg>
