<svg width="80" height="80" viewBox="0 0 80 80" fill="none" xmlns="http://www.w3.org/2000/svg">
<mask id="mask0" mask-type="alpha" maskUnits="userSpaceOnUse" x="0" y="0" width="80" height="80">
<rect width="80" height="80" fill="#C4C4C4"/>
</mask>
<g mask="url(#mask0)">
<mask id="path-2-outside-1" maskUnits="userSpaceOnUse" x="2.52079" y="-4.89724" width="73.5624" height="90.5459" fill="black">
<rect fill="white" x="2.52079" y="-4.89724" width="73.5624" height="90.5459"/>
<path fill-rule="evenodd" clip-rule="evenodd" d="M40.6049 18.5567C40.1918 18.6633 39.777 18.6816 39.3786 18.6226L28.8161 21.3339C28.4553 21.6805 28.0031 21.9399 27.4792 22.0751C26.9526 22.2111 26.4233 22.2034 25.9287 22.075L25.7237 22.1276C25.3365 22.5571 24.8256 22.8793 24.2207 23.0392L28.6563 38.8904L46.7399 34.2485C47.5674 34.0361 48.3991 33.9018 49.2277 33.841C52.3546 31.981 53.9291 28.0875 52.8424 24.2041C51.5356 19.5341 46.8886 16.6948 42.4267 17.8401L41.6946 18.028C41.3817 18.2686 41.0153 18.4508 40.6049 18.5567ZM40.3139 5.78958L41.793 11.1037C49.2914 9.84543 56.8495 14.7874 59.0394 22.6134C60.3388 27.2568 59.4715 31.9261 57.0577 35.4786C60.8531 37.4368 63.904 40.9923 65.1676 45.5079C67.3931 53.461 63.2627 61.4903 55.8918 63.8532L57.3258 69.0052C57.8251 70.7993 56.8781 72.5546 55.1735 72.9945C53.4689 73.4345 51.7372 72.3706 51.2379 70.5765L49.8083 65.4402L42.7342 67.256L44.2006 72.5246C44.6999 74.3187 43.7529 76.074 42.0483 76.5139C40.3437 76.9539 38.612 75.89 38.1127 74.0959L36.6441 68.8193L30.5487 70.3839L30.5429 70.3633L25.6735 71.6203C23.9278 72.071 22.1545 70.9814 21.6431 69.144C21.1318 67.3066 22.1017 65.5088 23.8474 65.0582L28.7073 63.8036L22.1996 40.5478L22.4593 40.4811L18.026 24.6384L13.4166 25.8284C11.6709 26.279 9.89753 25.1894 9.38622 23.352C8.87491 21.5146 9.84478 19.7168 11.5905 19.2662L16.1904 18.0787L16.0713 17.6533L22.5251 15.9967L21.1009 10.8793C20.6016 9.08525 21.5485 7.32999 23.253 6.89004C24.9574 6.45008 26.689 7.51399 27.1883 9.30801L28.6148 14.4335L35.6896 12.6175L34.2266 7.36082C33.7272 5.56681 34.6742 3.81154 36.3786 3.37159C38.0831 2.93165 39.8146 3.99556 40.3139 5.78958ZM35.4556 62.1724C35.2736 62.1708 35.0896 62.185 34.9052 62.2159L30.3578 45.9653L48.9607 41.1901C49.6715 41.0077 50.3549 40.7739 51.0083 40.4934C54.6099 40.6931 57.9036 43.2857 58.9706 47.0987C60.2774 51.7687 57.7358 56.4532 53.274 57.5986L52.3516 57.8353C51.9047 57.7448 51.4337 57.752 50.9647 57.8731C50.4986 57.9934 50.0891 58.2121 49.7503 58.5031L38.8461 61.3021C38.516 61.2772 38.1773 61.3053 37.8395 61.3925C37.5046 61.4789 37.199 61.6162 36.9277 61.7945L35.4556 62.1724Z"/>
</mask>
<path fill-rule="evenodd" clip-rule="evenodd" d="M40.6049 18.5567C40.1918 18.6633 39.777 18.6816 39.3786 18.6226L28.8161 21.3339C28.4553 21.6805 28.0031 21.9399 27.4792 22.0751C26.9526 22.2111 26.4233 22.2034 25.9287 22.075L25.7237 22.1276C25.3365 22.5571 24.8256 22.8793 24.2207 23.0392L28.6563 38.8904L46.7399 34.2485C47.5674 34.0361 48.3991 33.9018 49.2277 33.841C52.3546 31.981 53.9291 28.0875 52.8424 24.2041C51.5356 19.5341 46.8886 16.6948 42.4267 17.8401L41.6946 18.028C41.3817 18.2686 41.0153 18.4508 40.6049 18.5567ZM40.3139 5.78958L41.793 11.1037C49.2914 9.84543 56.8495 14.7874 59.0394 22.6134C60.3388 27.2568 59.4715 31.9261 57.0577 35.4786C60.8531 37.4368 63.904 40.9923 65.1676 45.5079C67.3931 53.461 63.2627 61.4903 55.8918 63.8532L57.3258 69.0052C57.8251 70.7993 56.8781 72.5546 55.1735 72.9945C53.4689 73.4345 51.7372 72.3706 51.2379 70.5765L49.8083 65.4402L42.7342 67.256L44.2006 72.5246C44.6999 74.3187 43.7529 76.074 42.0483 76.5139C40.3437 76.9539 38.612 75.89 38.1127 74.0959L36.6441 68.8193L30.5487 70.3839L30.5429 70.3633L25.6735 71.6203C23.9278 72.071 22.1545 70.9814 21.6431 69.144C21.1318 67.3066 22.1017 65.5088 23.8474 65.0582L28.7073 63.8036L22.1996 40.5478L22.4593 40.4811L18.026 24.6384L13.4166 25.8284C11.6709 26.279 9.89753 25.1894 9.38622 23.352C8.87491 21.5146 9.84478 19.7168 11.5905 19.2662L16.1904 18.0787L16.0713 17.6533L22.5251 15.9967L21.1009 10.8793C20.6016 9.08525 21.5485 7.32999 23.253 6.89004C24.9574 6.45008 26.689 7.51399 27.1883 9.30801L28.6148 14.4335L35.6896 12.6175L34.2266 7.36082C33.7272 5.56681 34.6742 3.81154 36.3786 3.37159C38.0831 2.93165 39.8146 3.99556 40.3139 5.78958ZM35.4556 62.1724C35.2736 62.1708 35.0896 62.185 34.9052 62.2159L30.3578 45.9653L48.9607 41.1901C49.6715 41.0077 50.3549 40.7739 51.0083 40.4934C54.6099 40.6931 57.9036 43.2857 58.9706 47.0987C60.2774 51.7687 57.7358 56.4532 53.274 57.5986L52.3516 57.8353C51.9047 57.7448 51.4337 57.752 50.9647 57.8731C50.4986 57.9934 50.0891 58.2121 49.7503 58.5031L38.8461 61.3021C38.516 61.2772 38.1773 61.3053 37.8395 61.3925C37.5046 61.4789 37.199 61.6162 36.9277 61.7945L35.4556 62.1724Z" fill="#13C8A4"/>
<path d="M39.3786 18.6226L39.8188 15.6549L39.2197 15.5661L38.6331 15.7167L39.3786 18.6226ZM40.6049 18.5567L39.8555 15.6518L40.6049 18.5567ZM28.8161 21.3339L28.0706 18.428L27.3066 18.6241L26.7378 19.1706L28.8161 21.3339ZM27.4792 22.0751L26.7298 19.1702L26.7298 19.1702L27.4792 22.0751ZM25.9287 22.075L26.6825 19.1711L25.9331 18.9766L25.1832 19.1691L25.9287 22.075ZM25.7237 22.1276L24.9782 19.2217L24.1018 19.4467L23.4959 20.1187L25.7237 22.1276ZM24.2207 23.0392L23.4543 20.1387L20.5115 20.9167L21.3317 23.848L24.2207 23.0392ZM28.6563 38.8904L25.7674 39.6992L26.5585 42.5262L29.4018 41.7963L28.6563 38.8904ZM46.7399 34.2485L47.4854 37.1544L47.4854 37.1544L46.7399 34.2485ZM49.2277 33.841L49.4467 36.8331L50.1526 36.7813L50.761 36.4195L49.2277 33.841ZM52.8424 24.2041L55.7313 23.3953L55.7313 23.3953L52.8424 24.2041ZM42.4267 17.8401L41.6812 14.9342L42.4267 17.8401ZM41.6946 18.028L40.9491 15.1221L40.3538 15.275L39.8665 15.6496L41.6946 18.028ZM41.793 11.1037L38.9029 11.9085L39.6267 14.5092L42.289 14.0624L41.793 11.1037ZM40.3139 5.78958L43.204 4.9848L43.204 4.9848L40.3139 5.78958ZM59.0394 22.6134L61.9283 21.8046L59.0394 22.6134ZM57.0577 35.4786L54.5765 33.7926L52.6738 36.5928L55.682 38.1448L57.0577 35.4786ZM65.1676 45.5079L62.2787 46.3168L62.2787 46.3168L65.1676 45.5079ZM55.8918 63.8532L54.9764 60.9963L52.2279 61.8775L53.0018 64.658L55.8918 63.8532ZM57.3258 69.0052L54.4357 69.81L57.3258 69.0052ZM55.1735 72.9945L55.9229 75.8994L55.1735 72.9945ZM51.2379 70.5765L48.3479 71.3813L51.2379 70.5765ZM49.8083 65.4402L52.6983 64.6354L51.9101 61.8034L49.0628 62.5343L49.8083 65.4402ZM42.7342 67.256L41.9887 64.3502L39.0232 65.1114L39.8441 68.0609L42.7342 67.256ZM44.2006 72.5246L41.3105 73.3294L41.3105 73.3294L44.2006 72.5246ZM42.0483 76.5139L42.7977 79.4189L42.7977 79.4188L42.0483 76.5139ZM38.1127 74.0959L35.2227 74.9007L35.2227 74.9007L38.1127 74.0959ZM36.6441 68.8193L39.5341 68.0145L38.7459 65.1825L35.8986 65.9134L36.6441 68.8193ZM30.5487 70.3839L27.6598 71.1928L28.4509 74.0197L31.2942 73.2898L30.5487 70.3839ZM30.5429 70.3633L33.4318 69.5544L32.6396 66.7236L29.7934 67.4584L30.5429 70.3633ZM25.6735 71.6203L26.423 74.5252L26.423 74.5252L25.6735 71.6203ZM21.6431 69.144L18.7531 69.9487L21.6431 69.144ZM23.8474 65.0582L24.5969 67.963L24.5969 67.963L23.8474 65.0582ZM28.7073 63.8036L29.4568 66.7084L32.4213 65.9432L31.5962 62.9947L28.7073 63.8036ZM22.1996 40.5478L21.4541 37.6419L18.4845 38.4042L19.3107 41.3566L22.1996 40.5478ZM22.4593 40.4811L23.2048 43.387L26.1744 42.6248L25.3482 39.6723L22.4593 40.4811ZM18.026 24.6384L20.9149 23.8296L20.1228 20.9988L17.2765 21.7335L18.026 24.6384ZM13.4166 25.8284L14.166 28.7332L13.4166 25.8284ZM9.38622 23.352L12.2763 22.5473L9.38622 23.352ZM11.5905 19.2662L12.3399 22.171L12.3399 22.171L11.5905 19.2662ZM16.1904 18.0787L16.9399 20.9836L19.9043 20.2183L19.0793 17.2699L16.1904 18.0787ZM16.0713 17.6533L15.3258 14.7474L12.3562 15.5097L13.1824 18.4621L16.0713 17.6533ZM22.5251 15.9967L23.2706 18.9026L26.2361 18.1414L25.4152 15.1919L22.5251 15.9967ZM21.1009 10.8793L23.9909 10.0745L23.9909 10.0745L21.1009 10.8793ZM23.253 6.89004L22.5036 3.98514L23.253 6.89004ZM27.1883 9.30801L24.2982 10.1128L24.2982 10.1128L27.1883 9.30801ZM28.6148 14.4335L25.7248 15.2383L26.513 18.0703L29.3603 17.3394L28.6148 14.4335ZM35.6896 12.6175L36.4351 15.5234L39.4005 14.7622L38.5796 11.8127L35.6896 12.6175ZM34.2266 7.36082L37.1166 6.55605L37.1166 6.55605L34.2266 7.36082ZM36.3786 3.37159L35.6292 0.466695L36.3786 3.37159ZM34.9052 62.2159L32.0163 63.0247L32.7427 65.6208L35.4013 65.1746L34.9052 62.2159ZM35.4556 62.1724L35.4288 65.1723L35.8211 65.1758L36.2011 65.0783L35.4556 62.1724ZM30.3578 45.9653L29.6123 43.0595L26.6427 43.8217L27.4688 46.7742L30.3578 45.9653ZM48.9607 41.1901L49.7062 44.096L48.9607 41.1901ZM51.0083 40.4934L51.1748 37.4979L50.4721 37.4589L49.8254 37.7365L51.0083 40.4934ZM58.9706 47.0987L56.0817 47.9075L56.0817 47.9075L58.9706 47.0987ZM53.274 57.5986L54.0195 60.5045L54.0195 60.5045L53.274 57.5986ZM52.3516 57.8353L51.7557 60.7757L52.4303 60.9124L53.0971 60.7412L52.3516 57.8353ZM50.9647 57.8731L50.2154 54.9682L50.2154 54.9682L50.9647 57.8731ZM49.7503 58.5031L50.4958 61.409L51.1737 61.2349L51.7047 60.7789L49.7503 58.5031ZM38.8461 61.3021L38.6203 64.2937L39.113 64.3308L39.5916 64.208L38.8461 61.3021ZM37.8395 61.3925L37.0902 58.4876L37.0902 58.4876L37.8395 61.3925ZM36.9277 61.7945L37.6732 64.7004L38.1577 64.576L38.5756 64.3013L36.9277 61.7945ZM38.9384 21.5902C39.7275 21.7072 40.5469 21.67 41.3543 21.4616L39.8555 15.6518C39.8446 15.6546 39.8373 15.6554 39.833 15.6556C39.8284 15.6558 39.8239 15.6556 39.8188 15.6549L38.9384 21.5902ZM29.5616 24.2398L40.1241 21.5285L38.6331 15.7167L28.0706 18.428L29.5616 24.2398ZM28.2286 24.98C29.2556 24.7149 30.1646 24.1983 30.8944 23.4971L26.7378 19.1706C26.74 19.1685 26.7427 19.1665 26.7447 19.1654C26.7455 19.165 26.7451 19.1653 26.7432 19.166C26.7413 19.1668 26.737 19.1684 26.7298 19.1702L28.2286 24.98ZM25.1748 24.9789C26.15 25.2321 27.1967 25.2464 28.2286 24.98L26.7298 19.1702C26.7163 19.1737 26.7081 19.1741 26.7034 19.1741C26.6984 19.1741 26.6917 19.1735 26.6825 19.1711L25.1748 24.9789ZM26.4692 25.0335L26.6742 24.9809L25.1832 19.1691L24.9782 19.2217L26.4692 25.0335ZM24.987 25.9396C26.1628 25.6288 27.1792 24.9931 27.9515 24.1366L23.4959 20.1187C23.4924 20.1226 23.4898 20.1246 23.4871 20.1262C23.4849 20.1276 23.4756 20.1331 23.4543 20.1387L24.987 25.9396ZM31.5452 38.0816L27.1096 22.2304L21.3317 23.848L25.7674 39.6992L31.5452 38.0816ZM45.9944 31.3426L27.9108 35.9845L29.4018 41.7963L47.4854 37.1544L45.9944 31.3426ZM49.0086 30.849C48.0041 30.9226 46.9961 31.0855 45.9944 31.3426L47.4854 37.1544C48.1386 36.9868 48.7941 36.881 49.4467 36.8331L49.0086 30.849ZM49.9535 25.013C50.6946 27.6616 49.594 30.1326 47.6943 31.2626L50.761 36.4195C55.1152 33.8294 57.1635 28.5135 55.7313 23.3953L49.9535 25.013ZM43.1722 20.746C45.9194 20.0408 49.0479 21.7769 49.9535 25.013L55.7313 23.3953C54.0232 17.2913 47.8577 13.3488 41.6812 14.9342L43.1722 20.746ZM42.4401 20.9339L43.1722 20.746L41.6812 14.9342L40.9491 15.1221L42.4401 20.9339ZM41.3543 21.4616C42.1564 21.2546 42.8897 20.8932 43.5228 20.4065L39.8665 15.6496C39.8675 15.6488 39.8686 15.6481 39.8695 15.6475C39.8704 15.647 39.8708 15.6467 39.8707 15.6468C39.8706 15.6469 39.8695 15.6474 39.8672 15.6482C39.865 15.6491 39.8612 15.6503 39.8555 15.6518L41.3543 21.4616ZM44.683 10.2989L43.204 4.9848L37.4239 6.59435L38.9029 11.9085L44.683 10.2989ZM61.9283 21.8046C59.3542 12.6058 50.4111 6.61556 41.2969 8.14496L42.289 14.0624C48.1717 13.0753 54.3447 16.9691 56.1505 23.4222L61.9283 21.8046ZM59.5389 37.1646C62.4517 32.8778 63.4647 27.295 61.9283 21.8046L56.1505 23.4222C57.2128 27.2185 56.4913 30.9745 54.5765 33.7926L59.5389 37.1646ZM68.0565 44.6991C66.5636 39.3638 62.9533 35.1444 58.4333 32.8124L55.682 38.1448C58.7529 39.7292 61.2444 42.6207 62.2787 46.3168L68.0565 44.6991ZM56.8073 66.7101C65.8378 63.8151 70.6811 54.0781 68.0565 44.6991L62.2787 46.3168C64.1052 52.8439 60.6876 59.1654 54.9764 60.9963L56.8073 66.7101ZM60.2158 68.2004L58.7819 63.0484L53.0018 64.658L54.4357 69.81L60.2158 68.2004ZM55.9229 75.8994C59.4094 74.9995 61.121 71.4524 60.2158 68.2004L54.4357 69.81C54.4837 69.9822 54.4441 70.0684 54.436 70.0833C54.4307 70.0933 54.429 70.0923 54.4347 70.0878C54.4423 70.0818 54.4432 70.0847 54.4242 70.0896L55.9229 75.8994ZM48.3479 71.3813C49.2435 74.5993 52.4881 76.786 55.9229 75.8994L54.4242 70.0896C54.4048 70.0946 54.3945 70.0939 54.3862 70.0926C54.3755 70.0908 54.3539 70.0852 54.3243 70.067C54.2666 70.0315 54.1763 69.9456 54.1279 69.7717L48.3479 71.3813ZM46.9183 66.245L48.3479 71.3813L54.1279 69.7717L52.6983 64.6354L46.9183 66.245ZM43.4797 70.1619L50.5538 68.3461L49.0628 62.5343L41.9887 64.3502L43.4797 70.1619ZM47.0906 71.7198L45.6242 66.4512L39.8441 68.0609L41.3105 73.3294L47.0906 71.7198ZM42.7977 79.4188C46.2842 78.5189 47.9957 74.9718 47.0906 71.7198L41.3105 73.3294C41.3585 73.5016 41.3189 73.5878 41.3108 73.6028C41.3055 73.6127 41.3038 73.6118 41.3095 73.6072C41.3171 73.6012 41.318 73.6041 41.299 73.609L42.7977 79.4188ZM35.2227 74.9007C36.1183 78.1187 39.3629 80.3054 42.7977 79.4189L41.299 73.609C41.2796 73.614 41.2693 73.6133 41.2611 73.612C41.2503 73.6102 41.2287 73.6046 41.1991 73.5864C41.1414 73.551 41.0512 73.465 41.0027 73.2911L35.2227 74.9007ZM33.754 69.6241L35.2227 74.9007L41.0027 73.2911L39.5341 68.0145L33.754 69.6241ZM31.2942 73.2898L37.3896 71.7252L35.8986 65.9134L29.8032 67.478L31.2942 73.2898ZM27.654 71.1721L27.6598 71.1928L33.4376 69.5751L33.4318 69.5544L27.654 71.1721ZM29.7934 67.4584L24.924 68.7155L26.423 74.5252L31.2924 73.2681L29.7934 67.4584ZM24.924 68.7155C24.8825 68.7262 24.836 68.727 24.766 68.6839C24.6913 68.6381 24.5877 68.535 24.5332 68.3393L18.7531 69.9487C19.6606 73.21 22.9469 75.4226 26.423 74.5252L24.924 68.7155ZM24.5332 68.3393C24.4793 68.1454 24.5216 68.0377 24.539 68.0053C24.5491 67.9867 24.5571 67.9799 24.5591 67.9783C24.5594 67.9782 24.5676 67.9706 24.5969 67.963L23.0979 62.1533C19.5703 63.064 17.8361 66.6535 18.7531 69.9487L24.5332 68.3393ZM24.5969 67.963L29.4568 66.7084L27.9578 60.8987L23.0979 62.1533L24.5969 67.963ZM19.3107 41.3566L25.8184 64.6124L31.5962 62.9947L25.0885 39.739L19.3107 41.3566ZM21.7138 37.5752L21.4541 37.6419L22.9451 43.4537L23.2048 43.387L21.7138 37.5752ZM15.1371 25.4472L19.5704 41.29L25.3482 39.6723L20.9149 23.8296L15.1371 25.4472ZM14.166 28.7332L18.7755 27.5433L17.2765 21.7335L12.6671 22.9235L14.166 28.7332ZM6.49614 24.1567C7.4037 27.418 10.69 29.6306 14.166 28.7332L12.6671 22.9235C12.6256 22.9342 12.5791 22.935 12.5091 22.892C12.4344 22.8461 12.3307 22.743 12.2763 22.5473L6.49614 24.1567ZM10.841 16.3613C7.31338 17.272 5.57917 20.8615 6.49614 24.1567L12.2763 22.5473C12.2223 22.3534 12.2646 22.2457 12.2821 22.2133C12.2922 22.1947 12.3002 22.1879 12.3022 22.1863C12.3024 22.1862 12.3106 22.1786 12.3399 22.171L10.841 16.3613ZM15.4409 15.1738L10.841 16.3613L12.3399 22.171L16.9399 20.9836L15.4409 15.1738ZM13.1824 18.4621L13.3015 18.8875L19.0793 17.2699L18.9603 16.8445L13.1824 18.4621ZM21.7796 13.0908L15.3258 14.7474L16.8168 20.5592L23.2706 18.9026L21.7796 13.0908ZM18.2108 11.684L19.6351 16.8014L25.4152 15.1919L23.9909 10.0745L18.2108 11.684ZM22.5036 3.98514C19.0171 4.88506 17.3058 8.4322 18.2108 11.684L23.9909 10.0745C23.943 9.90225 23.9826 9.81606 23.9906 9.80114C23.996 9.79121 23.9977 9.79216 23.9919 9.79674C23.9843 9.80275 23.9833 9.79984 24.0024 9.79494L22.5036 3.98514ZM30.0783 8.50324C29.1828 5.2854 25.9384 3.09856 22.5036 3.98514L24.0024 9.79494C24.0216 9.78996 24.0319 9.79068 24.0401 9.79201C24.0508 9.79372 24.0724 9.79934 24.102 9.81753C24.1596 9.85295 24.2498 9.93882 24.2982 10.1128L30.0783 8.50324ZM31.5049 13.6287L30.0783 8.50324L24.2982 10.1128L25.7248 15.2383L31.5049 13.6287ZM34.9441 9.71158L27.8693 11.5276L29.3603 17.3394L36.4351 15.5234L34.9441 9.71158ZM31.3365 8.1656L32.7995 13.4223L38.5796 11.8127L37.1166 6.55605L31.3365 8.1656ZM35.6292 0.466695C32.1427 1.36662 30.4315 4.91378 31.3365 8.1656L37.1166 6.55605C37.0687 6.38379 37.1083 6.2976 37.1163 6.28268C37.1217 6.27275 37.1233 6.27371 37.1176 6.27829C37.11 6.2843 37.109 6.2814 37.128 6.27649L35.6292 0.466695ZM43.204 4.9848C42.3084 1.76699 39.064 -0.419884 35.6292 0.466695L37.128 6.27649C37.1473 6.27152 37.1575 6.27224 37.1658 6.27357C37.1764 6.27528 37.198 6.2809 37.2276 6.29909C37.2852 6.33451 37.3755 6.42039 37.4239 6.59435L43.204 4.9848ZM35.4013 65.1746C35.412 65.1729 35.421 65.1723 35.4288 65.1723L35.4824 59.1724C35.1262 59.1692 34.7672 59.1971 34.4091 59.2572L35.4013 65.1746ZM27.4688 46.7742L32.0163 63.0247L37.7941 61.4071L33.2467 45.1565L27.4688 46.7742ZM48.2152 38.2842L29.6123 43.0595L31.1033 48.8712L49.7062 44.096L48.2152 38.2842ZM49.8254 37.7365C49.3135 37.9562 48.7764 38.1402 48.2152 38.2842L49.7062 44.096C50.5666 43.8752 51.3962 43.5915 52.1913 43.2502L49.8254 37.7365ZM61.8595 46.2898C60.4577 41.2805 56.0994 37.771 51.1748 37.4979L50.8418 43.4889C53.1203 43.6152 55.3495 45.2909 56.0817 47.9075L61.8595 46.2898ZM54.0195 60.5045C60.2544 58.904 63.5787 52.4336 61.8595 46.2898L56.0817 47.9075C56.9761 51.1038 55.2173 54.0025 52.5285 54.6927L54.0195 60.5045ZM53.0971 60.7412L54.0195 60.5045L52.5285 54.6927L51.6061 54.9294L53.0971 60.7412ZM51.7141 60.778C51.7264 60.7748 51.7342 60.7742 51.7387 60.7741C51.7435 60.774 51.7489 60.7743 51.7557 60.7757L52.9474 54.8949C52.0641 54.716 51.1329 54.7314 50.2154 54.9682L51.7141 60.778ZM51.7047 60.7789C51.7022 60.781 51.6998 60.7825 51.6989 60.783C51.6986 60.7831 51.6994 60.7827 51.7015 60.7819C51.7036 60.7811 51.7077 60.7796 51.7141 60.778L50.2154 54.9682C49.303 55.2037 48.4816 55.6383 47.7959 56.2272L51.7047 60.7789ZM39.5916 64.208L50.4958 61.409L49.0048 55.5972L38.1006 58.3962L39.5916 64.208ZM38.5889 64.2974C38.598 64.295 38.6045 64.2942 38.6087 64.2938C38.613 64.2934 38.6167 64.2934 38.6203 64.2937L39.0719 58.3105C38.4174 58.2611 37.7491 58.3175 37.0902 58.4876L38.5889 64.2974ZM38.5756 64.3013C38.5738 64.3024 38.5731 64.3026 38.5742 64.3021C38.5753 64.3017 38.5798 64.2997 38.5889 64.2974L37.0902 58.4876C36.4367 58.6563 35.8273 58.9278 35.2799 59.2877L38.5756 64.3013ZM36.2011 65.0783L37.6732 64.7004L36.1822 58.8886L34.7101 59.2665L36.2011 65.0783Z" fill="black" mask="url(#path-2-outside-1)"/>
</g>
</svg>
