<svg width="80" height="80" viewBox="0 0 80 80" fill="none" xmlns="http://www.w3.org/2000/svg">
<mask id="mask0" mask-type="alpha" maskUnits="userSpaceOnUse" x="0" y="0" width="80" height="80">
<path d="M80 0H0V80H80V0Z" fill="#C4C4C4"/>
</mask>
<g mask="url(#mask0)">
<path d="M25.3436 33.542C25.2391 33.4374 25.115 33.3544 24.9784 33.2978C24.8417 33.2412 24.6953 33.2121 24.5475 33.2121C24.3996 33.2121 24.2532 33.2412 24.1166 33.2978C23.9799 33.3544 23.8558 33.4374 23.7513 33.542L22.557 34.7362L21.3628 33.542C21.2588 33.4348 21.1346 33.3494 20.9973 33.2907C20.86 33.2319 20.7124 33.2011 20.5631 33.2C20.4138 33.1988 20.2657 33.2274 20.1276 33.284C19.9894 33.3407 19.8639 33.4242 19.7583 33.5298C19.6527 33.6354 19.5692 33.7609 19.5126 33.899C19.4559 34.0372 19.4274 34.1853 19.4285 34.3346C19.4296 34.4839 19.4605 34.6315 19.5192 34.7688C19.5779 34.9061 19.6633 35.0303 19.7705 35.1343L20.9647 36.3285L19.7705 37.5228C19.6633 37.6267 19.5779 37.751 19.5192 37.8883C19.4605 38.0256 19.4296 38.1732 19.4285 38.3225C19.4274 38.4718 19.4559 38.6198 19.5126 38.758C19.5692 38.8962 19.6527 39.0217 19.7583 39.1273C19.8639 39.2329 19.9894 39.3164 20.1276 39.373C20.2657 39.4296 20.4138 39.4582 20.5631 39.4571C20.7124 39.4559 20.86 39.4251 20.9973 39.3664C21.1346 39.3077 21.2588 39.2223 21.3628 39.1151L22.557 37.9208L23.7513 39.1151C23.8553 39.2223 23.9795 39.3077 24.1168 39.3664C24.2541 39.4251 24.4017 39.4559 24.551 39.4571C24.7003 39.4582 24.8484 39.4296 24.9865 39.373C25.1247 39.3164 25.2502 39.2329 25.3558 39.1273C25.4614 39.0217 25.5449 38.8962 25.6015 38.758C25.6582 38.6198 25.6867 38.4718 25.6856 38.3225C25.6845 38.1732 25.6536 38.0256 25.5949 37.8883C25.5362 37.751 25.4508 37.6267 25.3436 37.5228L24.1494 36.3285L25.3436 35.1343C25.4482 35.0298 25.5312 34.9056 25.5878 34.769C25.6444 34.6324 25.6735 34.486 25.6735 34.3381C25.6735 34.1903 25.6444 34.0438 25.5878 33.9072C25.5312 33.7706 25.4482 33.6465 25.3436 33.542Z" fill="black"/>
<path d="M60.1015 22.9485V11.1205L62.7982 13.8174C63.191 14.2003 63.7188 14.4131 64.2674 14.4096C64.816 14.4062 65.3411 14.1867 65.729 13.7988C66.1169 13.4109 66.3364 12.8858 66.3399 12.3372C66.3434 11.7886 66.1306 11.2607 65.7476 10.8679L59.4904 4.61078C59.0993 4.2197 58.5688 4 58.0157 4C57.4626 4 56.9322 4.2197 56.541 4.61078L50.2839 10.8679C49.9009 11.2607 49.6881 11.7886 49.6916 12.3372C49.6951 12.8858 49.9145 13.4109 50.3024 13.7988C50.6903 14.1867 51.2155 14.4062 51.764 14.4096C52.3126 14.4131 52.8405 14.2003 53.2333 13.8174L55.93 11.1205V22.9485C52.7352 23.4418 49.8224 25.0619 47.7182 27.5159C45.6139 29.9699 44.4573 33.0958 44.4573 36.3284C44.4573 39.5611 45.6139 42.687 47.7182 45.141C49.8224 47.595 52.7352 49.2151 55.93 49.7083V57.1856C55.9293 57.7386 55.7093 58.2687 55.3183 58.6597C54.9273 59.0506 54.3972 59.2706 53.8443 59.2714H26.7299C26.177 59.2706 25.6469 59.0506 25.2559 58.6597C24.8649 58.2687 24.6449 57.7386 24.6442 57.1856V49.7083C27.839 49.2151 30.7518 47.595 32.856 45.141C34.9603 42.687 36.117 39.5611 36.117 36.3284C36.117 33.0958 34.9603 29.9699 32.856 27.5159C30.7518 25.0619 27.839 23.4418 24.6442 22.9485V11.1205L27.3409 13.8174C27.7337 14.2003 28.2616 14.4131 28.8102 14.4096C29.3587 14.4062 29.8839 14.1867 30.2718 13.7988C30.6597 13.4109 30.8792 12.8858 30.8826 12.3372C30.8861 11.7886 30.6733 11.2607 30.2903 10.8679L24.0332 4.61078C23.642 4.2197 23.1116 4 22.5585 4C22.0054 4 21.4749 4.2197 21.0838 4.61078L14.8266 10.8679C14.6289 11.0607 14.4714 11.2908 14.3633 11.5449C14.2553 11.799 14.1987 12.072 14.1969 12.3481C14.1952 12.6242 14.2483 12.898 14.3531 13.1534C14.458 13.4088 14.6125 13.6409 14.8078 13.8362C15.003 14.0314 15.2351 14.186 15.4906 14.2908C15.746 14.3957 16.0197 14.4488 16.2958 14.447C16.572 14.4453 16.845 14.3887 17.0991 14.2806C17.3532 14.1725 17.5833 14.0151 17.776 13.8174L20.4728 11.1205V22.9485C17.278 23.4418 14.3651 25.0619 12.2609 27.5159C10.1567 29.9699 9 33.0958 9 36.3284C9 39.5611 10.1567 42.687 12.2609 45.141C14.3651 47.595 17.278 49.2151 20.4728 49.7083V57.1856C20.4746 58.8446 21.1344 60.4351 22.3074 61.6081C23.4805 62.7812 25.071 63.441 26.7299 63.4428H38.2014V74.9143C38.2014 75.4674 38.4211 75.998 38.8123 76.3891C39.2034 76.7803 39.7339 77 40.2871 77C40.8403 77 41.3708 76.7803 41.7619 76.3891C42.1531 75.998 42.3728 75.4674 42.3728 74.9143V63.4428H53.8443C55.5032 63.441 57.0937 62.7812 58.2668 61.6081C59.4398 60.4351 60.0996 58.8446 60.1015 57.1856V49.7083C63.2962 49.2151 66.2091 47.595 68.3133 45.141C70.4175 42.687 71.5742 39.5611 71.5742 36.3284C71.5742 33.0958 70.4175 29.9699 68.3133 27.5159C66.2091 25.0619 63.2962 23.4418 60.1015 22.9485ZM13.1727 36.3284C13.1727 34.4721 13.7232 32.6575 14.7545 31.114C15.7858 29.5705 17.2517 28.3675 18.9667 27.6571C20.6817 26.9468 22.5689 26.7609 24.3895 27.123C26.2102 27.4852 27.8826 28.3791 29.1952 29.6917C30.5078 31.0043 31.4017 32.6767 31.7639 34.4974C32.126 36.318 31.9402 38.2052 31.2298 39.9202C30.5194 41.6352 29.3164 43.1011 27.7729 44.1324C26.2294 45.1637 24.4148 45.7142 22.5585 45.7142C20.0701 45.7114 17.6844 44.7217 15.9248 42.9621C14.1652 41.2025 13.1755 38.8168 13.1727 36.3284ZM58.0157 45.7142C56.1594 45.7142 54.3448 45.1637 52.8013 44.1324C51.2578 43.1011 50.0548 41.6352 49.3444 39.9202C48.6341 38.2052 48.4482 36.318 48.8103 34.4974C49.1725 32.6767 50.0664 31.0043 51.379 29.6917C52.6916 28.3791 54.364 27.4852 56.1847 27.123C58.0053 26.7609 59.8925 26.9468 61.6075 27.6571C63.3225 28.3675 64.7884 29.5705 65.8197 31.114C66.851 32.6575 67.4015 34.4721 67.4015 36.3284C67.3987 38.8168 66.409 41.2025 64.6494 42.9621C62.8898 44.7217 60.5041 45.7114 58.0157 45.7142Z" fill="#13C8A4"/>
<path fill-rule="evenodd" clip-rule="evenodd" d="M59.4904 4.61077L65.7476 10.8679C66.1306 11.2607 66.3434 11.7886 66.3399 12.3372C66.3364 12.8858 66.1169 13.4109 65.729 13.7988C65.3411 14.1867 64.816 14.4062 64.2674 14.4096C63.85 14.4123 63.4445 14.2897 63.1015 14.0622C62.9937 13.9907 62.8921 13.9089 62.7982 13.8174L60.1015 11.1205V22.9485C63.2962 23.4418 66.2091 25.0619 68.3133 27.5159C70.4175 29.9699 71.5742 33.0958 71.5742 36.3284C71.5742 39.5611 70.4175 42.687 68.3133 45.141C66.2091 47.595 63.2962 49.2151 60.1015 49.7083V57.1856C60.0996 58.8446 59.4398 60.4351 58.2668 61.6081C57.0937 62.7812 55.5032 63.441 53.8443 63.4428H42.3728V74.9143C42.3728 75.4674 42.1531 75.998 41.7619 76.3891C41.3708 76.7803 40.8403 77 40.2871 77C39.7339 77 39.2034 76.7803 38.8123 76.3891C38.4211 75.998 38.2014 75.4674 38.2014 74.9143V63.4428H26.7299C25.071 63.441 23.4805 62.7812 22.3074 61.6081C21.1344 60.4351 20.4746 58.8446 20.4728 57.1856V49.7083C17.278 49.2151 14.3651 47.595 12.2609 45.141C10.1567 42.687 9 39.5611 9 36.3284C9 33.0958 10.1567 29.9699 12.2609 27.5159C14.3651 25.0619 17.278 23.4418 20.4728 22.9485V11.1205L17.776 13.8174C17.6831 13.9127 17.5815 13.9986 17.4728 14.0742C17.3559 14.1554 17.2307 14.2246 17.0991 14.2806C16.845 14.3887 16.572 14.4453 16.2958 14.447C16.0197 14.4488 15.746 14.3957 15.4906 14.2908C15.2351 14.186 15.003 14.0314 14.8078 13.8362C14.6125 13.6409 14.458 13.4088 14.3531 13.1534C14.2483 12.898 14.1952 12.6242 14.1969 12.3481C14.1987 12.072 14.2553 11.799 14.3633 11.5449C14.4714 11.2908 14.6289 11.0607 14.8266 10.8679L21.0838 4.61077C21.2487 4.44585 21.4384 4.31141 21.6442 4.21107C21.7207 4.17375 21.7995 4.14115 21.88 4.11345C22.0963 4.03902 22.3254 4 22.5585 4C22.7916 4 23.0207 4.03902 23.237 4.11345C23.3175 4.14115 23.3962 4.17375 23.4728 4.21107C23.6785 4.31141 23.8682 4.44585 24.0332 4.61077L30.2903 10.8679C30.6733 11.2607 30.8861 11.7886 30.8826 12.3372C30.8792 12.8858 30.6597 13.4109 30.2718 13.7988C29.8839 14.1867 29.3587 14.4062 28.8102 14.4096C28.3927 14.4123 27.9873 14.2897 27.6442 14.0622C27.5364 13.9907 27.4348 13.9089 27.3409 13.8174L24.6442 11.1205V22.9485C27.839 23.4418 30.7518 25.0619 32.856 27.5159C34.9603 29.9699 36.117 33.0958 36.117 36.3284C36.117 39.5611 34.9603 42.687 32.856 45.141C30.7518 47.595 27.839 49.2151 24.6442 49.7083V57.1856C24.6449 57.7386 24.8649 58.2687 25.2559 58.6597C25.6469 59.0506 26.177 59.2706 26.7299 59.2714H53.8443C54.3972 59.2706 54.9273 59.0506 55.3183 58.6597C55.7093 58.2687 55.9293 57.7386 55.93 57.1856V49.7083C52.7352 49.2151 49.8224 47.595 47.7182 45.141C45.6139 42.687 44.4573 39.5611 44.4573 36.3284C44.4573 33.0958 45.6139 29.9699 47.7182 27.5159C49.8224 25.0619 52.7352 23.4418 55.93 22.9485V11.1205L53.2333 13.8174C53.1394 13.9089 53.0378 13.9907 52.93 14.0622C52.5869 14.2897 52.1815 14.4123 51.764 14.4096C51.2155 14.4062 50.6903 14.1867 50.3024 13.7988C49.9145 13.4109 49.6951 12.8858 49.6916 12.3372C49.6881 11.7886 49.9009 11.2607 50.2839 10.8679L56.541 4.61077C56.706 4.44585 56.8957 4.31141 57.1015 4.21107C57.178 4.17375 57.2567 4.14115 57.3372 4.11345C57.5535 4.03902 57.7826 4 58.0157 4C58.2488 4 58.4779 4.03902 58.6943 4.11345C58.7748 4.14115 58.8535 4.17375 58.93 4.21107C59.1358 4.31141 59.3255 4.44585 59.4904 4.61077ZM13.1727 36.3284C13.1755 38.8168 14.1652 41.2025 15.9248 42.9621C17.6844 44.7217 20.0701 45.7114 22.5585 45.7142C24.4148 45.7142 26.2294 45.1637 27.7729 44.1324C29.3164 43.1011 30.5194 41.6352 31.2298 39.9202C31.9402 38.2052 32.126 36.318 31.7639 34.4974C31.4017 32.6767 30.5078 31.0043 29.1952 29.6917C27.8826 28.3791 26.2102 27.4852 24.3895 27.123C22.5689 26.7609 20.6817 26.9468 18.9667 27.6571C17.2517 28.3675 15.7858 29.5705 14.7545 31.114C13.7232 32.6575 13.1727 34.4721 13.1727 36.3284ZM22.5589 42.7142C23.8218 42.7141 25.0562 42.3396 26.1062 41.638C27.1563 40.9363 27.9748 39.939 28.4581 38.7722C28.9415 37.6053 29.0679 36.3214 28.8215 35.0826C28.5751 33.8439 27.9669 32.7061 27.0739 31.813C26.1808 30.92 25.043 30.3118 23.8043 30.0654C22.5656 29.819 21.2816 29.9455 20.1148 30.4288C18.9479 30.9121 17.9506 31.7306 17.2489 32.7807C16.5476 33.8304 16.1731 35.0644 16.1727 36.3268C16.1751 38.0201 16.8487 39.6434 18.0461 40.8408C19.2432 42.0379 20.8661 42.7115 22.5589 42.7142ZM58.0157 45.7142C56.1594 45.7142 54.3448 45.1637 52.8013 44.1324C51.2578 43.1011 50.0548 41.6352 49.3444 39.9202C48.6341 38.2052 48.4482 36.318 48.8103 34.4974C49.1725 32.6767 50.0664 31.0043 51.379 29.6917C52.6916 28.3791 54.364 27.4852 56.1847 27.123C58.0053 26.7609 59.8925 26.9468 61.6075 27.6571C63.3225 28.3675 64.7884 29.5705 65.8197 31.114C66.851 32.6575 67.4015 34.4721 67.4015 36.3284C67.3987 38.8168 66.409 41.2025 64.6494 42.9621C62.8898 44.7217 60.5041 45.7114 58.0157 45.7142ZM52.93 17.2773C52.5446 17.367 52.1471 17.4121 51.745 17.4096C50.4074 17.4011 49.127 16.866 48.1811 15.9201C47.2352 14.9742 46.7001 13.6938 46.6916 12.3562C46.6832 11.0186 47.202 9.73145 48.1358 8.77367L48.1491 8.76006L54.4197 2.48945C55.3734 1.53587 56.6671 1 58.0157 1C59.3644 1 60.6579 1.5357 61.6116 2.48928L67.8824 8.76006L67.8956 8.77367C68.8294 9.73144 69.3483 11.0185 69.3398 12.3562C69.3314 13.6938 68.7962 14.9742 67.8504 15.9201C66.9045 16.866 65.6241 17.4011 64.2864 17.4096C63.8843 17.4121 63.4868 17.367 63.1015 17.2773V20.5849C65.9937 21.5155 68.5911 23.2311 70.5907 25.5631C73.1612 28.5609 74.5742 32.3795 74.5742 36.3284C74.5742 40.2774 73.1612 44.096 70.5907 47.0938C68.5911 49.4258 65.9937 51.1414 63.1015 52.072V57.1889C63.0988 59.6424 62.1229 61.9946 60.3881 63.7294C58.6532 65.4643 56.301 66.4401 53.8476 66.4428H53.8443H45.3728V74.9143C45.3728 76.2631 44.837 77.5567 43.8833 78.5104C42.9295 79.4642 41.6359 80 40.2871 80C38.9383 80 37.6447 79.4642 36.691 78.5104C35.7372 77.5567 35.2014 76.2631 35.2014 74.9143V66.4428H26.7266C24.2732 66.4401 21.921 65.4643 20.1861 63.7294C18.4513 61.9946 17.4755 59.6424 17.4728 57.1889V57.1856V52.072C14.5805 51.1414 11.9831 49.4258 9.98349 47.0938C7.413 44.096 6 40.2774 6 36.3284C6 32.3795 7.413 28.5609 9.98349 25.5631C11.9831 23.2311 14.5805 21.5155 17.4728 20.5849V17.3058C17.0944 17.3969 16.7059 17.4445 16.3148 17.447C15.6416 17.4512 14.9742 17.3218 14.3513 17.0661C13.7284 16.8104 13.1626 16.4336 12.6865 15.9575C12.2104 15.4814 11.8336 14.9155 11.5779 14.2927C11.3222 13.6698 11.1927 13.0024 11.197 12.3291C11.2013 11.6558 11.3392 10.9901 11.6027 10.3705C11.8633 9.75808 12.2415 9.20279 12.7158 8.73611L18.9624 2.48945C19.9162 1.53587 21.2098 1 22.5585 1C23.9072 1 25.2006 1.5357 26.1543 2.48928L32.4251 8.76006L32.4384 8.77367C33.3722 9.73144 33.891 11.0185 33.8826 12.3562C33.8741 13.6938 33.339 14.9742 32.3931 15.9201C31.4472 16.866 30.1668 17.4011 28.8292 17.4096C28.4271 17.4121 28.0296 17.367 27.6442 17.2773V20.5849C30.5365 21.5155 33.1338 23.2311 35.1335 25.5631C37.704 28.5609 39.117 32.3795 39.117 36.3284C39.117 40.2774 37.704 44.096 35.1335 47.0938C33.1338 49.4258 30.5365 51.1414 27.6442 52.072V56.2714H52.93V52.072C50.0377 51.1414 47.4404 49.4258 45.4408 47.0938C42.8703 44.096 41.4573 40.2774 41.4573 36.3284C41.4573 32.3795 42.8703 28.5609 45.4408 25.5631C47.4404 23.2311 50.0377 21.5155 52.93 20.5849V17.2773ZM54.468 41.638C55.5181 42.3397 56.7527 42.7142 58.0157 42.7142C59.7084 42.7114 61.3311 42.0378 62.5281 40.8408C63.7257 39.6431 64.3995 38.0194 64.4015 36.3256C64.4009 35.0636 64.0264 33.8301 63.3253 32.7807C62.6236 31.7306 61.6263 30.9121 60.4594 30.4288C59.2926 29.9455 58.0086 29.819 56.7699 30.0654C55.5312 30.3118 54.3934 30.92 53.5003 31.813C52.6073 32.7061 51.9991 33.8439 51.7527 35.0826C51.5063 36.3214 51.6328 37.6053 52.1161 38.7722C52.5994 39.939 53.4179 40.9363 54.468 41.638Z" fill="black"/>
<path d="M60.1396 33.5782L57.4068 36.4421L55.8657 34.8272C55.6412 34.5983 55.3397 34.4714 55.0265 34.4737C54.7133 34.476 54.4136 34.6074 54.1921 34.8395C53.9706 35.0715 53.8452 35.3857 53.843 35.7139C53.8409 36.0421 53.962 36.358 54.1804 36.5933L56.5641 39.0912C56.6747 39.2072 56.8061 39.2992 56.9507 39.362C57.0953 39.4248 57.2502 39.4571 57.4067 39.4571C57.5632 39.4571 57.7182 39.4248 57.8628 39.362C58.0074 39.2992 58.1388 39.2072 58.2494 39.0912L61.8249 35.3443C61.9381 35.229 62.0284 35.0912 62.0903 34.939C62.1523 34.7868 62.1848 34.6232 62.1859 34.4577C62.187 34.2922 62.1567 34.1281 62.0968 33.975C62.0369 33.8219 61.9485 33.6828 61.8368 33.5658C61.7252 33.4488 61.5924 33.3562 61.4463 33.2934C61.3002 33.2306 61.1437 33.1988 60.9857 33.2C60.8278 33.2011 60.6717 33.2352 60.5264 33.3001C60.3812 33.365 60.2497 33.4596 60.1396 33.5782Z" fill="black"/>
</g>
</svg>
