<svg width="80" height="80" viewBox="0 0 80 80" fill="none" xmlns="http://www.w3.org/2000/svg">
<path d="M45.6432 64.9051C45.2023 65.0049 44.8191 65.2758 44.5779 65.6582C44.3368 66.0406 44.2574 66.5031 44.3572 66.944L46.6645 77.1304C46.7655 77.5702 47.0367 77.9521 47.4187 78.1923C47.8008 78.4324 48.2624 78.5113 48.7025 78.4116C49.1427 78.312 49.5253 78.0419 49.7666 77.6605C50.0079 77.2792 50.0881 76.8178 49.9897 76.3774L47.6824 66.1909C47.633 65.9726 47.541 65.7662 47.4117 65.5834C47.2825 65.4006 47.1185 65.245 46.9291 65.1256C46.7398 65.0062 46.5288 64.9253 46.3081 64.8874C46.0875 64.8496 45.8615 64.8556 45.6432 64.9051Z" fill="black"/>
<path d="M32.3178 13.8091C32.4176 14.25 32.6885 14.6333 33.0708 14.8745C33.4532 15.1157 33.9157 15.1952 34.3566 15.0954C34.7976 14.9956 35.1808 14.7247 35.4221 14.3423C35.6633 13.96 35.7427 13.4975 35.6429 13.0565L33.3352 2.86145C33.2345 2.42137 32.9634 2.03918 32.5814 1.79873C32.1993 1.55828 31.7375 1.47921 31.2972 1.57886C30.8569 1.67851 30.4741 1.94876 30.2328 2.33029C29.9915 2.71183 29.9114 3.17351 30.0101 3.61402L32.3178 13.8091Z" fill="black"/>
<path d="M54.7912 60.8127C54.6086 60.9424 54.4534 61.1068 54.3344 61.2965C54.2154 61.4862 54.135 61.6975 54.0977 61.9184C54.0604 62.1392 54.0669 62.3652 54.117 62.5835C54.1671 62.8017 54.2596 63.008 54.3895 63.1905L60.4436 71.6992C60.706 72.0671 61.1037 72.3159 61.5494 72.3908C61.995 72.4657 62.4522 72.3606 62.8205 72.0986C63.1887 71.8367 63.4379 71.4392 63.5133 70.9936C63.5886 70.548 63.484 70.0907 63.2224 69.7222L57.1682 61.2135C56.9062 60.8452 56.5085 60.596 56.0627 60.5209C55.617 60.4457 55.1596 60.5507 54.7912 60.8127Z" fill="black"/>
<path d="M22.8246 18.7937C23.0866 19.1624 23.4842 19.412 23.9301 19.4875C24.376 19.563 24.8337 19.4582 25.2024 19.1963C25.571 18.9344 25.8206 18.5367 25.8961 18.0908C25.9716 17.6449 25.8668 17.1873 25.6049 16.8186L19.5481 8.29375C19.2854 7.92701 18.8881 7.67931 18.4431 7.60487C17.9982 7.53043 17.5419 7.63532 17.1742 7.89657C16.8064 8.15783 16.5571 8.55416 16.481 8.99879C16.4048 9.44342 16.5079 9.90013 16.7677 10.2689L22.8246 18.7937Z" fill="black"/>
<path d="M72.104 62.8253C72.2339 62.6429 72.3265 62.4366 72.3766 62.2184C72.4268 62.0001 72.4334 61.7742 72.3962 61.5533C72.359 61.3325 72.2786 61.1212 72.1597 60.9314C72.0408 60.7417 71.8856 60.5772 71.7031 60.4475L63.1859 54.3926C62.8174 54.1305 62.3598 54.0257 61.914 54.101C61.4681 54.1763 61.0704 54.4256 60.8083 54.7942C60.5463 55.1627 60.4414 55.6203 60.5167 56.0662C60.5921 56.512 60.8414 56.9097 61.21 57.1718L69.7272 63.2266C70.0956 63.4885 70.553 63.5934 70.9987 63.5181C71.4444 63.4429 71.842 63.1937 72.104 62.8253Z" fill="black"/>
<path d="M8.29757 19.5525L16.8147 25.6074C17.1833 25.8687 17.6405 25.973 18.086 25.8974C18.5314 25.8219 18.9286 25.5726 19.1904 25.2044C19.4522 24.8362 19.5571 24.3791 19.4822 23.9336C19.4072 23.4881 19.1585 23.0905 18.7907 22.8282L10.2735 16.7734C9.90494 16.5123 9.44786 16.4082 9.00259 16.4839C8.55733 16.5595 8.16026 16.8087 7.89856 17.1768C7.63685 17.5449 7.53188 18.0018 7.60669 18.4472C7.6815 18.8926 7.92997 19.2901 8.29757 19.5525Z" fill="black"/>
<path d="M78.4213 48.7085C78.4708 48.4901 78.4768 48.2641 78.439 48.0435C78.4011 47.8228 78.3202 47.6117 78.2008 47.4223C78.0814 47.233 77.9258 47.069 77.743 46.9397C77.5602 46.8104 77.3537 46.7185 77.1353 46.669L66.9393 44.3611C66.4983 44.2612 66.0356 44.3407 65.6532 44.5819C65.2707 44.8232 64.9998 45.2065 64.9 45.6475C64.8001 46.0885 64.8796 46.5511 65.1208 46.9336C65.3621 47.316 65.7454 47.5869 66.1864 47.6868L76.3824 49.9947C76.6008 50.0442 76.8267 50.0501 77.0473 50.0122C77.2679 49.9743 77.479 49.8933 77.6683 49.7739C77.8576 49.6544 78.0216 49.4989 78.1508 49.3161C78.28 49.1333 78.3719 48.9268 78.4213 48.7085Z" fill="black"/>
<path d="M2.86475 33.3319L13.0605 35.6462C13.5011 35.7455 13.9631 35.6659 14.3451 35.4249C14.7271 35.1839 14.9978 34.8011 15.0978 34.3606C15.1978 33.9201 15.1189 33.458 14.8784 33.0756C14.6379 32.6933 14.2556 32.422 13.8152 32.3214L3.61952 30.0071C3.1789 29.9077 2.71687 29.9873 2.33488 30.2284C1.95289 30.4694 1.68218 30.8522 1.58219 31.2927C1.4822 31.7331 1.5611 32.1953 1.80157 32.5776C2.04205 32.96 2.42443 33.2313 2.86475 33.3319Z" fill="black"/>
<path d="M35.5795 49.7991L36.9545 48.4241C38.2831 47.239 39.1801 45.6458 39.5043 43.8951C39.5266 43.6231 39.5091 43.3493 39.4524 43.0823C38.9509 42.7495 38.4845 42.3668 38.0601 41.94C37.2257 41.148 36.5782 40.1801 36.1646 39.1066C35.7509 38.0331 35.5814 36.8809 35.6685 35.7338C36.0551 32.8207 37.4548 30.1367 39.6222 28.1525L54.5136 13.2611C56.4979 11.0936 59.182 9.69396 62.095 9.30758C63.2421 9.22045 64.3942 9.38986 65.4677 9.80352C66.5412 10.2172 67.5091 10.8647 68.3011 11.6991C69.1355 12.4911 69.783 13.459 70.1967 14.5325C70.6103 15.606 70.7798 16.7581 70.6927 17.9053C70.3061 20.8184 68.9064 23.5024 66.739 25.4866L55.6541 36.5714C56.6933 39.3334 57.1127 42.29 56.8825 45.2321C56.8525 45.6231 56.8106 46.0127 56.7592 46.4012C56.949 46.2224 57.1384 46.0424 57.3253 45.8556L72.2167 30.9642C75.931 27.2498 78.0749 22.9396 78.4164 18.4994C78.5897 16.2381 78.2642 13.9663 77.4629 11.8447C76.6615 9.72302 75.4038 7.80336 73.7788 6.22141C72.1968 4.59633 70.2771 3.33865 68.1555 2.53728C66.0339 1.73592 63.7622 1.41043 61.5009 1.58384C57.0606 1.92531 52.7503 4.06914 49.036 7.78355L34.1445 22.6749C30.4302 26.3893 28.2864 30.6995 27.9449 35.1396C27.7715 37.401 28.0969 39.6728 28.8983 41.7944C29.6997 43.9161 30.9574 45.8358 32.5825 47.4177C33.4861 48.3246 34.4918 49.1237 35.5795 49.7991Z" fill="#13C8A4"/>
<path fill-rule="evenodd" clip-rule="evenodd" d="M61.3832 0.0498324C63.8692 -0.140809 66.3666 0.217016 68.699 1.09801C71.025 1.97656 73.1302 3.35401 74.8666 5.13339C76.646 6.86977 78.0234 8.97497 78.902 11.301C79.783 13.6334 80.1408 16.131 79.9502 18.617C79.5757 23.4871 77.2294 28.1271 73.3044 32.0521L58.413 46.9434C58.2092 47.1472 58.0058 47.3403 57.8143 47.5208C57.3407 47.9672 56.6374 48.0673 56.0581 47.7706C55.4788 47.474 55.1488 46.8449 55.234 46.1996C55.2821 45.8358 55.3209 45.4742 55.3486 45.1141L55.3487 45.112C55.5613 42.3948 55.174 39.6641 54.2142 37.1132C54.0016 36.548 54.1393 35.9105 54.5663 35.4835L65.6512 24.3987C65.662 24.3878 65.673 24.3772 65.6841 24.3667C65.6894 24.3617 65.6948 24.3567 65.7002 24.3518C67.5902 22.6215 68.8146 20.2846 69.1617 17.7467C69.2242 16.8412 69.0876 15.9329 68.7611 15.0857C68.4296 14.2254 67.9106 13.4497 67.242 12.8149C67.2226 12.7965 67.2037 12.7776 67.1854 12.7583C66.5506 12.0896 65.7748 11.5706 64.9145 11.2391C64.0673 10.9126 63.159 10.776 62.2535 10.8386C59.7156 11.1856 57.3786 12.4099 55.6482 14.3C55.633 14.3167 55.6173 14.333 55.6013 14.349L40.7099 29.2404C40.694 29.2564 40.6776 29.272 40.6609 29.2873C38.771 31.0175 37.5466 33.3545 37.1994 35.8924C37.1369 36.7978 37.2736 37.7061 37.6 38.5533C37.9316 39.4137 38.4505 40.1894 39.1192 40.8242C39.1299 40.8343 39.1404 40.8446 39.1508 40.8551C39.502 41.2083 39.8881 41.525 40.3031 41.8004C40.6385 42.0231 40.8733 42.3684 40.9571 42.7622C41.045 43.1757 41.0721 43.5998 41.0375 44.0211C41.0332 44.0728 41.0264 44.1242 41.0169 44.1752C40.6334 46.2464 39.5771 48.1326 38.0125 49.5416L36.6672 50.887C36.1618 51.3924 35.375 51.4831 34.7679 51.1061C33.5826 50.3701 32.4864 49.4996 31.5009 48.5119C29.7184 46.7743 28.3387 44.6669 27.4591 42.3381C26.5781 40.0056 26.2203 37.508 26.411 35.0219C26.7855 30.1519 29.1317 25.512 33.0567 21.587L47.9481 6.69563C51.8731 2.77057 56.5131 0.424354 61.3832 0.0498324ZM61.6185 3.11781C57.6081 3.42631 53.6273 5.36776 50.1237 8.87143L35.2323 23.7628C31.7287 27.2664 29.7872 31.2472 29.4788 35.2573M61.6185 3.11781C63.6549 2.96169 65.7012 3.25481 67.6119 3.97652C69.5227 4.69826 71.2516 5.83098 72.6764 7.29459C72.6797 7.29791 72.6829 7.30121 72.6862 7.3045C72.6926 7.311 72.6991 7.31744 72.7057 7.32382C74.1692 8.74857 75.3019 10.4775 76.0237 12.3883C76.7454 14.299 77.0385 16.3449 76.8824 18.3814C76.574 22.3917 74.6326 26.3725 71.1288 29.8763L58.4537 42.5513C58.3566 40.6584 58.0115 38.7838 57.4252 36.976L67.8034 26.5978C70.2228 24.3719 71.7851 21.3675 72.2177 18.1076C72.2214 18.0791 72.2244 18.0505 72.2266 18.0218C72.331 16.6468 72.1279 15.2659 71.6321 13.9793C71.1411 12.7051 70.3752 11.555 69.3892 10.6108C68.445 9.62478 67.295 8.85889 66.0208 8.3679C64.7342 7.87211 63.3533 7.66905 61.9785 7.77348C61.9498 7.77566 61.9212 7.77864 61.8927 7.78242C58.6329 8.21479 55.6285 9.77706 53.4025 12.1965L38.5577 27.0413C36.1383 29.2672 34.576 32.2716 34.1434 35.5314C34.1397 35.5599 34.1367 35.5886 34.1345 35.6173C34.0301 36.9922 34.2332 38.3731 34.729 39.6598C35.2221 40.9395 35.9925 42.0941 36.9848 43.0405C37.2846 43.3407 37.6023 43.6222 37.9359 43.8836C37.6358 45.1927 36.9361 46.3789 35.9304 47.2759C35.9086 47.2954 35.8873 47.3155 35.8666 47.3362L35.3897 47.8131C34.7812 47.3636 34.207 46.8684 33.6722 46.3317L33.6555 46.3152C32.1919 44.8905 31.0592 43.1616 30.3374 41.2508C29.6157 39.34 29.3226 37.2938 29.4788 35.2573" fill="black"/>
<path d="M47.4176 32.5824C46.514 31.6755 45.5083 30.8763 44.4207 30.2009L41.94 34.2298L40.5332 36.8475L41.94 38.0601C42.7744 38.8521 43.4219 39.82 43.8355 40.8935C44.2492 41.967 44.4187 43.1191 44.3316 44.2663C43.945 47.1793 42.5454 49.8633 40.378 51.8476L25.4865 66.739C23.5022 68.9065 20.8181 70.3061 17.905 70.6926C16.758 70.7797 15.6059 70.6102 14.5324 70.1966C13.459 69.7829 12.4911 69.1354 11.699 68.301C10.8647 67.509 10.2172 66.5411 9.8035 65.4676C9.38983 64.3941 9.2204 63.242 9.3075 62.0948C9.69401 59.1817 11.0937 56.4977 13.2612 54.5135L24.344 43.4305C23.3067 40.6674 22.8881 37.7104 23.1175 34.7679L19.6148 38.2056L7.78347 49.0359C4.06906 52.7503 1.92525 57.0605 1.58379 61.5006C1.41036 63.7619 1.73584 66.0338 2.53721 68.1554C3.33858 70.2771 4.59626 72.1967 6.22133 73.7787C7.80332 75.4038 9.72299 76.6614 11.8446 77.4628C13.9662 78.2642 16.2379 78.5896 18.4992 78.4162C22.9395 78.0747 27.2498 75.9309 30.9641 72.2165L45.8555 57.3252C49.5699 53.6108 51.7137 49.3006 52.0552 44.8604C52.2287 42.5991 51.9032 40.3273 51.1018 38.2056C50.3004 36.084 49.0427 34.1643 47.4176 32.5824Z" fill="#13C8A4"/>
<path fill-rule="evenodd" clip-rule="evenodd" d="M44.0675 28.7035C44.4656 28.6096 44.8847 28.6781 45.2322 28.8939C46.4174 29.63 47.5136 30.5005 48.499 31.4881C50.2815 33.2257 51.6613 35.3331 52.5409 37.662C53.4219 39.9945 53.7798 42.492 53.5891 44.9781C53.2145 49.8481 50.8683 54.4881 46.9433 58.4131L32.0519 73.3044C28.1269 77.2295 23.4873 79.5756 18.6171 79.9501C16.1312 80.1408 13.6334 79.783 11.301 78.9021C8.97501 78.0235 6.86982 76.646 5.1334 74.8666C3.35402 73.1303 1.97657 71.0251 1.098 68.699C0.217001 66.3666 -0.140821 63.869 0.0498418 61.383C0.42437 56.5129 2.7706 51.873 6.69565 47.948C6.71166 47.932 6.72801 47.9163 6.74471 47.901L18.5563 37.0888L22.0399 33.6699C22.4977 33.2206 23.1862 33.1025 23.7676 33.3735C24.3489 33.6446 24.7011 34.248 24.6512 34.8875C24.4393 37.6057 24.826 40.3373 25.7843 42.8898C25.9964 43.4548 25.8585 44.0917 25.4318 44.5184L14.3489 55.6014C14.3329 55.6174 14.3166 55.633 14.2999 55.6483C12.4099 57.3785 11.1855 59.7155 10.8384 62.2534C10.7758 63.1588 10.9125 64.0672 11.239 64.9144C11.5705 65.7747 12.0894 66.5504 12.7581 67.1852C12.7775 67.2035 12.7963 67.2224 12.8147 67.2418C13.4495 67.9105 14.2252 68.4294 15.0855 68.7609C15.9327 69.0874 16.841 69.2241 17.7465 69.1615C20.2844 68.8145 22.6214 67.5901 24.3518 65.7C24.3598 65.6913 24.3679 65.6827 24.3761 65.6742C24.3835 65.6664 24.3911 65.6587 24.3987 65.651L39.2901 50.7597C39.3061 50.7437 39.3225 50.728 39.3391 50.7128C41.2291 48.9825 42.4534 46.6456 42.8006 44.1077C42.8631 43.2022 42.7265 42.2939 42.4 41.4467C42.0726 40.5972 41.5626 39.8302 40.9061 39.2L39.5288 38.0129C38.9824 37.542 38.8366 36.7546 39.1781 36.1192L40.5849 33.5015C40.5992 33.4749 40.6142 33.4488 40.63 33.4232L43.1106 29.3943C43.3251 29.0459 43.6694 28.7974 44.0675 28.7035ZM44.8792 32.3903L43.2737 34.9979L42.4728 36.4882L42.9443 36.8946C42.963 36.9107 42.9813 36.9273 42.9991 36.9442C43.9991 37.8935 44.7752 39.0536 45.271 40.3403C45.7668 41.6269 45.9699 43.0078 45.8655 44.3827C45.8633 44.4114 45.8604 44.4401 45.8566 44.4686C45.424 47.7284 43.8617 50.7328 41.4424 52.9588L26.5975 67.8036C24.3715 70.223 21.3671 71.7853 18.1073 72.2177C18.0788 72.2215 18.0501 72.2245 18.0215 72.2266C16.6466 72.331 15.2658 72.1279 13.9792 71.6321C12.7051 71.1411 11.5551 70.3753 10.6109 69.3893C9.62486 68.4451 8.85896 67.295 8.36795 66.0208C7.87215 64.7342 7.66907 63.3532 7.77346 61.9783C7.77564 61.9496 7.77862 61.921 7.78241 61.8924C8.21493 58.6326 9.77724 55.6282 12.1966 53.4023L22.5734 43.0255C22.086 41.5196 21.7655 39.9675 21.6159 38.3972L20.6923 39.3037C20.6796 39.3162 20.6666 39.3284 20.6535 39.3405L8.84758 50.1475C5.35881 53.6453 3.42544 57.6172 3.11765 61.6183M44.8792 32.3903C45.3886 32.7845 45.8725 33.2114 46.3279 33.6684L46.3445 33.6848C47.8081 35.1096 48.9409 36.8385 49.6626 38.7493C50.3843 40.6601 50.6775 42.7062 50.5213 44.7428C50.2128 48.7529 48.2714 52.7336 44.7677 56.2372L29.8763 71.1286C26.3727 74.6323 22.3919 76.5737 18.3815 76.8822C16.3449 77.0384 14.2989 76.7453 12.3881 76.0235C10.4773 75.3018 8.7484 74.1691 7.3236 72.7055C7.31398 72.6956 7.30423 72.6858 7.29435 72.6762C5.83077 71.2515 4.69807 69.5226 3.97633 67.6118C3.25463 65.701 2.96152 63.6548 3.11765 61.6183" fill="black"/>
</svg>
