<svg width="146" height="28" fill="none" xmlns="http://www.w3.org/2000/svg"><path d="M6.587 14l-3.278 3.144L0 14l3.308-3.172L6.587 14zM14.6 6.316l5.645 5.414 3.31-3.171L14.6 0 5.645 8.587l3.31 3.17 5.645-5.44zm11.292 4.512L22.613 14l3.308 3.172L29.228 14l-3.336-3.172zM14.6 21.684l-5.645-5.442-3.31 3.172L14.6 28l8.955-8.587-3.31-3.17-5.645 5.44zm0-4.539l3.308-3.173-3.308-3.143L11.292 14l3.308 3.144v.001zm34.79.327v-.054c0-2.05-1.142-3.09-2.995-3.774 1.14-.6 2.11-1.587 2.11-3.309v-.053c0-2.407-2.025-3.966-5.276-3.966h-7.442v15.34h7.614c3.62.028 5.988-1.394 5.988-4.183v-.001zm-4.393-6.561c0 1.148-.97 1.612-2.538 1.612h-3.25V9.269h3.479c1.483 0 2.31.574 2.31 1.587v.055zm.885 6.125c0 1.148-.94 1.668-2.482 1.668h-4.19v-3.365h4.077c1.797 0 2.595.63 2.595 1.669v.028zm10.893 4.648V6.316h-3.536v15.34h3.536v.028zm18.935 0V6.316h-3.48v9.462l-7.5-9.462h-3.25v15.34h3.48v-9.734l7.755 9.762h2.995zm19.503 0l-6.87-15.45h-3.25l-6.874 15.45h3.623l1.453-3.446h6.759l1.454 3.446h3.707-.002zm-6.416-6.426H84.55l2.138-4.976 2.11 4.976zm23.213 6.426V6.316h-3.48v9.462l-7.499-9.462H97.78v15.34h3.48v-9.734l7.756 9.762h2.994zm18.164-2.489l-2.252-2.16c-1.256 1.094-2.368 1.804-4.221 1.804-2.738 0-4.648-2.187-4.648-4.812v-.082c0-2.625 1.938-4.784 4.648-4.784 1.596 0 2.852.655 4.106 1.722l2.252-2.489c-1.482-1.394-3.279-2.379-6.301-2.379-4.904 0-8.355 3.582-8.355 7.93V14c0 4.402 3.507 7.902 8.213 7.902 3.079.028 4.904-1.012 6.558-2.707zm15.028 2.489v-3.008h-8.698v-3.227h7.557v-3.008h-7.557V9.324h8.584V6.316h-12.063v15.34h12.177v.028z" fill="#F0B90B"/></svg>