<svg width="164" height="19" viewBox="0 0 164 19" fill="none" xmlns="http://www.w3.org/2000/svg"><path d="M145.46 16.18c.88.919 5.712 5.323 13.296.212 5.484-4.213 5.347-13.347 4.82-16.105-.183.401-6.553 14.161-18.116 15.893zM163.576.285c-.068-.028-7.123-.977-14.098 3.455-4.331 2.751-4.904 6.779-4.706 9.463C154.911 12.083 163.346.6 163.576.285z" fill="#97C554"/><path d="M163.576.285c-.068-.028-7.123-.977-14.098 3.455-4.331 2.751-4.904 6.779-4.706 9.463C154.911 12.083 163.346.6 163.576.285z" fill="#709B30"/><path d="M11.495 15.643H3.596v-4.15h7.899c1.974 0 2.983.932 2.983 2.138 0 1.165-.987 2.012-2.983 2.012zm-.258-6.373h-7.64V5.777h7.64c2.082 0 2.897.72 2.897 1.715 0 .91-.944 1.778-2.897 1.778zm2.018 1.059c3.326-.106 4.528-1.736 4.528-3.515 0-1.948-1.567-3.557-5.387-3.557H.183V18.12h12.578c3.134 0 5.473-1.292 5.473-4.065 0-1.97-1.31-3.642-4.98-3.726zm9.01-7.072V18.12h3.412V3.257h-3.412zm17.252 2.816h7.512V3.257H28.592v2.816h7.512V18.12h3.413V6.073zm10.426-2.816V18.12h3.413v-5.801h8.005V9.884h-8.005V5.819h13.006V3.257H49.943zm19.184 0V18.12h3.412V3.257h-3.412zm11.414 3.62L91.85 18.12h3.864V3.257h-3.37V13.97L81.485 3.257H77.15V18.12h3.39V6.878zm19.784-3.62V18.12h16.699V15.62h-13.286v-4.086h7.963V9.228h-7.963V5.819h13.286V3.257h-16.699zm39.552 0h-4.507l-5.752 5.23-5.709-5.23h-4.572l8.027 7.326-8.327 7.537h4.507l6.031-5.484 6.01 5.484h4.593l-8.349-7.559 8.048-7.304z" fill="#000"/></svg>