<svg width="119" height="28" viewBox="0 0 119 28" fill="none" xmlns="http://www.w3.org/2000/svg"><path d="M46.82 7a3.615 3.615 0 00-.904-.662 3.375 3.375 0 00-.513-.22l.112-.054c.217-.112.416-.254.592-.423.292-.3.51-.666.637-1.066.138-.429.207-.877.202-1.327a3.647 3.647 0 00-.216-1.28 2.6 2.6 0 00-.626-.971C45.496.405 44.474 0 43.1 0h-7.211v12.81h7.73a5.01 5.01 0 001.774-.287c.47-.175.898-.45 1.252-.805.298-.305.525-.671.666-1.074a4.02 4.02 0 00.236-1.38 4.472 4.472 0 00-.175-1.28A2.436 2.436 0 0046.82 7zm-2.836 2.969c-.14.103-.3.177-.47.218a2.717 2.717 0 01-.683.078h-3.937V7.67h3.968a1.74 1.74 0 011.096.326c.139.115.244.266.302.436.066.2.098.408.094.617.003.186-.027.371-.09.546a.874.874 0 01-.28.373zm-.331-6.73c.072.187.11.388.11.59.003.225-.034.45-.11.661-.06.164-.156.312-.28.433a.975.975 0 01-.364.217 1.373 1.373 0 01-.452.069h-3.663V2.532h3.4c.22-.004.439.02.653.07.16.038.31.114.436.22.123.117.218.26.276.42l-.006-.004z" fill="#000"/><path d="M49.942 12.809h3.115V0h-3.115v12.809z" fill="#000"/><path d="M54.946 2.64h4.06V12.81h3.114V2.64h4.073V0H54.946v2.64z" fill="#000"/><path d="M67.309 2.64h4.057V12.81h3.115V2.64h4.074V0H67.31v2.64z" fill="#000"/><path d="M90.895 6.156c.306-.527.48-1.294.48-2.262a5.968 5.968 0 00-.137-1.37 3.188 3.188 0 00-.443-1.043A2.735 2.735 0 0089.582.385 4.707 4.707 0 0087.562 0h-7.117v12.809h3.021V7.956h3.012l2.433 4.853h3.443l-2.945-5.452a2.484 2.484 0 001.486-1.2zM88.2 5.01a.57.57 0 01-.14.174 1.042 1.042 0 01-.388.186c-.186.047-.377.07-.57.067h-3.62V2.641h3.462c.29-.011.578.038.847.144.097.042.185.1.263.17a.829.829 0 01.177.238c.02.05.038.103.05.157.052.251.078.508.075.765-.001.162-.016.323-.044.482-.02.142-.058.28-.112.412z" fill="#000"/><path d="M90.895 6.156v.002-.002z" fill="#020003"/><path d="M97.298 7.756h6.599V5.053h-6.6V2.689h6.853V0h-9.858v12.809h9.936v-2.672h-6.93V7.756z" fill="#000"/><path d="M118.134 16.763H35.959V28h82.175V16.763z" fill="#1C6FE8"/><path d="M65.596 25.503l-.062-.583c-.332.386-.814.671-1.817.671-.979 0-1.761-.347-2.218-.923-.34-.428-.594-1.224-.594-2.275 0-.908.103-1.58.57-2.212.402-.544 1.16-1.01 2.407-1.01 1.328 0 2.093.434 2.464 1.097.198.349.301.743.3 1.144H65.32a1.095 1.095 0 00-.313-.703 1.481 1.481 0 00-1.081-.387c-.554 0-.949.143-1.216.436-.268.292-.41.814-.41 1.667 0 .853.134 1.302.386 1.618.207.254.664.459 1.265.459.796 0 1.365-.404 1.476-.916v-.576h-1.803v-1.12h3.058v1.926c0 .766.008 1.658.008 1.681l-1.093.006z" fill="#fff"/><path d="M67.594 25.503v-6.237h1.374v5.078h3.12v1.16h-4.494z" fill="#fff"/><path d="M77.7 20.174c.364.482.53 1.2.53 2.172 0 1.018-.197 1.722-.553 2.25-.433.648-1.263.995-2.487.995-1.224 0-2.02-.332-2.471-.98-.387-.529-.569-1.27-.569-2.25 0-.924.166-1.643.537-2.131.47-.648 1.24-1.058 2.505-1.058 1.238 0 2.036.355 2.509 1.002zm-1.27 3.846c.3-.3.427-.955.427-1.642 0-.688-.126-1.312-.388-1.587-.261-.276-.592-.483-1.279-.483-.687 0-.995.19-1.263.49-.246.276-.387.916-.387 1.588 0 .702.157 1.349.47 1.665.254.254.585.42 1.193.42.643 0 .975-.2 1.227-.451z" fill="#fff"/><path d="M82.865 25.503h-3.782v-6.237h3.522c.671 0 1.16.197 1.445.47a1.443 1.443 0 01.394 1.065c.022.416-.12.824-.394 1.137a1.294 1.294 0 01-.6.313c.363.051.698.22.955.482.228.236.34.626.34 1.074.015.43-.138.85-.426 1.169-.316.322-.783.527-1.454.527zm-.063-4.974a.898.898 0 00-.6-.166h-1.784v1.509h1.916c.172.009.341-.05.47-.166a.812.812 0 00.22-.609.783.783 0 00-.22-.568h-.002zm.514 3.174a.726.726 0 00-.229-.591.951.951 0 00-.601-.182h-2.068v1.468h2.052c.221.013.44-.045.626-.166a.639.639 0 00.22-.529z" fill="#fff"/><path d="M86.404 25.503h-1.398l2.417-6.237h1.722l2.282 6.237h-1.421l-.53-1.468h-2.512l-.56 1.468zm1.999-4.515l-.143-.514-.157.521-.71 1.912h1.672l-.662-1.92z" fill="#fff"/><path d="M92.017 25.503v-6.237h1.374v5.078h3.12v1.16h-4.494z" fill="#fff"/><path d="M28 19.88V0H8.12v5.88h3.632V3.632h12.615v12.614h-4.488V8.122H0v19.88h19.88v-5.88h-3.632v2.247H3.63V11.754h4.491v8.125H28zm-11.755-3.634h-4.491v-4.492h4.49v4.492z" fill="#1C6FE8"/><path d="M113.471 6.13l-1.358-1.935L109.296 0h-3.602l4.425 6.34-4.701 6.469h3.517l.069-.1 2.789-4.017 2.77 4.117h3.588l-4.68-6.68z" fill="#000"/><path d="M114.155 2.21h1.785v1.742h2.212V0h-3.954v2.21h-.043z" fill="#1C6FE8"/></svg>