<svg width="522" height="668" viewBox="0 0 522 668" fill="none" xmlns="http://www.w3.org/2000/svg">
<path opacity="0.0628953" d="M66 668C29.5492 668 0 639.122 0 603.5C0 567.878 29.5492 539 66 539C102.451 539 132 567.878 132 603.5C132 639.122 102.451 668 66 668Z" fill="url(#paint0_linear)"/>
<path opacity="0.0628953" d="M346.5 183C319.714 183 298 161.734 298 135.5C298 109.266 319.714 88 346.5 88C373.286 88 395 109.266 395 135.5C395 161.734 373.286 183 346.5 183Z" fill="url(#paint1_linear)"/>
<path opacity="0.0628953" d="M343.5 36C333.283 36 325 27.9411 325 18C325 8.05888 333.283 0 343.5 0C353.717 0 362 8.05888 362 18C362 27.9411 353.717 36 343.5 36Z" fill="white"/>
<path opacity="0.0628953" d="M10.5 115C4.70101 115 0 110.299 0 104.5C0 98.701 4.70101 94 10.5 94C16.299 94 21 98.701 21 104.5C21 110.299 16.299 115 10.5 115Z" fill="white"/>
<path opacity="0.0783343" d="M487.52 424.8C467.471 457.315 471.228 501.613 480.033 536.54C482.979 548.234 486.374 560.58 483.855 573.667C480.774 589.67 469.541 602.238 458.173 609.434C437.448 622.522 413.783 622.159 396.55 608.475C381.668 596.656 371.868 576.041 356.673 564.855C331.266 546.132 296.379 557.48 266.086 574.979C244.664 587.329 221.085 603.045 201.284 594.147C187.354 587.898 178.667 570.269 174.613 551.085C172.656 541.824 171.472 531.706 166.986 524.65C164.315 520.455 160.645 517.648 156.839 515.345C122.108 494.351 75.1178 511.904 41.6248 488.129C19.0025 472.078 6.14261 438.922 1.91545 403.47C-2.31172 368.017 1.16407 330.082 5.51556 292.732C8.61296 266.178 12.8023 237.77 26.7054 216.174C41.414 193.332 64.5985 183.117 84.7505 185.284C104.903 187.452 122.4 200.252 137.482 215.898C156.331 235.451 173.332 260.423 197.727 266.731C214.344 271.028 232.49 266.053 250.161 263.241C279.665 258.537 308.758 259.886 337.645 261.653C365.3 263.344 393.122 265.446 418.891 275.201C437.124 282.11 451.119 296.493 468.136 305.847C479.228 311.944 491.742 312.719 502.077 320.847C514.807 330.862 525.824 349.347 520.727 372.715C515.867 394.945 498.158 407.545 487.52 424.8Z" fill="url(#paint2_linear)"/>
<defs>
<linearGradient id="paint0_linear" x1="66" y1="539" x2="66" y2="668" gradientUnits="userSpaceOnUse">
<stop stop-color="white"/>
<stop offset="1" stop-color="white" stop-opacity="0"/>
</linearGradient>
<linearGradient id="paint1_linear" x1="346.5" y1="88" x2="346.5" y2="183" gradientUnits="userSpaceOnUse">
<stop stop-color="white"/>
<stop offset="1" stop-color="white" stop-opacity="0"/>
</linearGradient>
<linearGradient id="paint2_linear" x1="261" y1="185" x2="261" y2="619" gradientUnits="userSpaceOnUse">
<stop stop-color="white"/>
<stop offset="1" stop-color="white" stop-opacity="0"/>
</linearGradient>
</defs>
</svg>
