<svg width="152" height="31" viewBox="0 0 152 31" fill="none" xmlns="http://www.w3.org/2000/svg"><g clip-path="url(#clip0)" fill="#F3BA2F"><path d="M9.2 13L15 7l6 6 3.4-3.5L15 0 5.7 9.5 9.2 13z"/><path d="M6.8 15.4L3.3 12 0 15.4 3.3 19l3.5-3.5z"/><path d="M9.2 17.9l5.9 6 6-6 3.4 3.5-9.4 9.5-9.4-9.5 3.5-3.5z"/><path d="M26.9 19l3.4-3.6L27 12l-3.5 3.5L27 19z"/><path d="M18.6 15.4L15 12l-2.6 2.6-.3.3-.6.6 3.5 3.6 3.5-3.6z"/><path d="M35.7 7.5h7.5c1.8 0 3.2.5 4.2 1.4.7.8 1 1.7 1 2.8A4 4 0 0148 14l-.7.7-.8.6c1 .4 1.6.8 2.2 1.5.5.6.8 1.4.8 2.5 0 .8-.2 1.5-.4 2-.3.6-.7 1-1.3 1.4-.5.4-1.1.7-1.9.9-.7.2-1.5.3-2.4.3h-7.7V7.5zm6.7 6.6c.8 0 1.4-.1 1.9-.4.4-.3.7-.7.7-1.3 0-.6-.2-1-.6-1.3a3 3 0 00-1.8-.5h-3.5v3.5h3.3zm1 6.6c.7 0 1.4-.1 1.8-.4.5-.3.7-.8.7-1.4 0-.6-.2-1-.6-1.3-.5-.3-1.1-.5-2-.5H39v3.6h4.3z"/><path d="M53.8 7.5h3.6v16.4h-3.6V7.5z"/><path d="M62.8 7.5H66l7.5 10v-10h3.5v16.4h-3l-7.8-10.5V24h-3.5V7.5z"/><path d="M87.9 7.4h3.3L98 23.9h-3.7l-1.5-3.7H86l-1.5 3.7H81l6.9-16.5zm3.7 9.6l-2.1-5.3-2.2 5.3h4.3z"/><path d="M102 7.5h3.2l7.6 10v-10h3.5v16.4h-3l-7.9-10.5V24H102V7.5z"/><path d="M129 24.1a8.3 8.3 0 01-5.9-2.4 8.7 8.7 0 01-2.4-6 8.6 8.6 0 012.4-6 8 8 0 016-2.5 10.6 10.6 0 013.8.7 7.4 7.4 0 012.6 1.8l-2.2 2.7c-.6-.6-1.3-1-2-1.4a4.8 4.8 0 00-4 0c-.6.2-1 .6-1.5 1l-1 1.6c-.2.7-.3 1.3-.3 2a5.7 5.7 0 001.3 3.7 4.5 4.5 0 003.4 1.5c.9 0 1.7-.2 2.3-.5a9 9 0 001.9-1.4l2.3 2.3-1.3 1.2a7.7 7.7 0 01-5.4 1.7z"/><path d="M139.8 7.5H152v3.2h-8.7V14h7.7v3.2h-7.7v3.5h8.8v3.2h-12.3V7.5z"/></g><defs><clipPath id="clip0"><path fill="#fff" d="M0 0h152v30.9H0z"/></clipPath></defs></svg>