<svg width="170" height="313" viewBox="0 0 170 313" fill="none" xmlns="http://www.w3.org/2000/svg">
<path d="M150.906 12.2724C150.906 11.6914 150.436 11.2205 149.857 11.2205H145.767C145.188 11.2205 144.718 11.6914 144.718 12.2724V27.2276C144.718 27.8086 145.188 28.2795 145.767 28.2795H149.857C150.436 28.2795 150.906 27.8086 150.906 27.2276V12.2724Z" fill="#13C8A4"/>
<path fill-rule="evenodd" clip-rule="evenodd" d="M147.812 27.8638C147.667 27.8638 147.55 27.9815 147.55 28.1268V29.4984C147.55 29.6437 147.667 29.7614 147.812 29.7614C147.957 29.7614 148.074 29.6437 148.074 29.4984V28.1268C148.074 27.9815 147.957 27.8638 147.812 27.8638Z" fill="#13C8A4"/>
<path fill-rule="evenodd" clip-rule="evenodd" d="M147.872 0.000488281C147.714 0.000488281 147.585 0.0514298 147.585 0.114269V11.392C147.585 11.4548 147.714 11.5058 147.872 11.5058C148.03 11.5058 148.159 11.4548 148.159 11.392V0.114269C148.159 0.0514298 148.03 0.000488281 147.872 0.000488281Z" fill="#13C8A4"/>
<path d="M134.279 34.1371C134.279 34.718 134.749 35.189 135.328 35.189L139.418 35.189C139.997 35.189 140.467 34.718 140.467 34.137L140.467 15.1679C140.467 14.587 139.997 14.116 139.418 14.116L135.328 14.116C134.749 14.116 134.279 14.587 134.279 15.1679L134.279 34.1371Z" fill="#13C8A4"/>
<path fill-rule="evenodd" clip-rule="evenodd" d="M137.373 14.5679C137.518 14.5679 137.635 14.4501 137.635 14.3049L137.635 0.263542C137.635 0.118302 137.518 0.000563584 137.373 0.000562644C137.228 0.000562657 137.11 0.118302 137.11 0.263541L137.11 14.3049C137.11 14.4501 137.228 14.5679 137.373 14.5679Z" fill="#13C8A4"/>
<path fill-rule="evenodd" clip-rule="evenodd" d="M137.373 83.5685C137.518 83.5685 137.635 83.4508 137.635 83.3056L137.635 35.0009C137.635 34.8556 137.518 34.7379 137.373 34.7379C137.228 34.7379 137.11 34.8556 137.11 35.0008L137.11 83.3056C137.11 83.4508 137.228 83.5685 137.373 83.5685Z" fill="#13C8A4"/>
<path d="M51.7192 98.202C51.7192 98.7829 52.1888 99.2539 52.7681 99.2539L56.8577 99.2539C57.437 99.2539 57.9066 98.7829 57.9066 98.202L57.9066 61.3935C57.9066 60.8125 57.437 60.3415 56.8577 60.3415L52.7681 60.3415C52.1888 60.3415 51.7192 60.8125 51.7192 61.3935L51.7192 98.202Z" fill="#13C8A4"/>
<path fill-rule="evenodd" clip-rule="evenodd" d="M54.8136 60.9531C54.9585 60.9531 55.0759 60.8354 55.0759 60.6901L55.0759 34.762C55.0759 34.6168 54.9585 34.499 54.8136 34.499C54.6687 34.499 54.5513 34.6168 54.5513 34.762L54.5513 60.6901C54.5513 60.8354 54.6687 60.9531 54.8136 60.9531Z" fill="#13C8A4"/>
<path fill-rule="evenodd" clip-rule="evenodd" d="M54.8136 150.987C54.9585 150.987 55.0759 150.869 55.0759 150.724L55.076 78.7414C55.076 78.5962 54.9585 78.4785 54.8136 78.4785C54.6688 78.4785 54.5513 78.5962 54.5513 78.7414L54.5513 150.724C54.5513 150.869 54.6687 150.987 54.8136 150.987Z" fill="#13C8A4"/>
<path d="M161.226 21.5458C161.226 20.9649 160.756 20.4939 160.177 20.4939H156.087C155.508 20.4939 155.038 20.9649 155.038 21.5458V124.071C155.038 124.652 155.508 125.123 156.087 125.123H160.177C160.756 125.123 161.226 124.652 161.226 124.071V21.5458Z" fill="#EE7D8B"/>
<path fill-rule="evenodd" clip-rule="evenodd" d="M158.132 123.926C157.987 123.926 157.87 124.043 157.87 124.189V132.596C157.87 132.741 157.987 132.859 158.132 132.859C158.277 132.859 158.395 132.741 158.395 132.596V124.189C158.395 124.043 158.277 123.926 158.132 123.926Z" fill="#EE7D8B"/>
<path fill-rule="evenodd" clip-rule="evenodd" d="M157.91 0.00353221C158.055 0.00197729 158.174 0.11845 158.175 0.263681L158.394 20.8154C158.396 20.9606 158.28 21.0796 158.135 21.0811C157.99 21.0827 157.871 20.9662 157.87 20.821L157.651 0.269311C157.649 0.124081 157.765 0.00508714 157.91 0.00353221Z" fill="#EE7D8B"/>
<path d="M6.1875 28.0695C6.1875 27.4885 5.71789 27.0176 5.1386 27.0176H1.04902C0.469722 27.0176 0.00011158 27.4885 0.00011158 28.0695V47.7528C0.00011158 48.3337 0.469722 48.8047 1.04902 48.8047H5.1386C5.71789 48.8047 6.1875 48.3337 6.1875 47.7528V28.0695Z" fill="#13C8A4"/>
<path fill-rule="evenodd" clip-rule="evenodd" d="M3.09313 48.0745C2.94825 48.0745 2.83079 48.1922 2.83079 48.3374V77.2096C2.83079 77.3549 2.94825 77.4726 3.09313 77.4726C3.23802 77.4726 3.35547 77.3549 3.35547 77.2096V48.3374C3.35547 48.1922 3.23802 48.0745 3.09313 48.0745Z" fill="#13C8A4"/>
<path fill-rule="evenodd" clip-rule="evenodd" d="M3.09313 16.5566C2.94825 16.5566 2.83079 16.6744 2.83079 16.8196L2.83079 29.8614C2.83079 30.0067 2.94825 30.1244 3.09313 30.1244C3.23802 30.1244 3.35547 30.0067 3.35547 29.8614L3.35547 16.8196C3.35547 16.6744 3.23802 16.5566 3.09313 16.5566Z" fill="#13C8A4"/>
<path d="M27.0659 36.6247C27.0659 36.0437 26.5963 35.5728 26.017 35.5728H21.9274C21.3481 35.5728 20.8785 36.0437 20.8785 36.6247V61.6525C20.8785 62.2335 21.3481 62.7045 21.9274 62.7045H26.017C26.5963 62.7045 27.0659 62.2335 27.0659 61.6525V36.6247Z" fill="#13C8A4"/>
<path fill-rule="evenodd" clip-rule="evenodd" d="M23.972 61.8604C23.8272 61.8604 23.7097 61.9781 23.7097 62.1233V77.2099C23.7097 77.3551 23.8272 77.4729 23.972 77.4729C24.1169 77.4729 24.2344 77.3551 24.2344 77.2099V62.1233C24.2344 61.9781 24.1169 61.8604 23.972 61.8604Z" fill="#13C8A4"/>
<path fill-rule="evenodd" clip-rule="evenodd" d="M23.972 22.6104C23.8272 22.6104 23.7097 22.7281 23.7097 22.8733L23.7097 39.1144C23.7097 39.2597 23.8272 39.3774 23.972 39.3774C24.1169 39.3774 24.2344 39.2597 24.2344 39.1144L24.2344 22.8733C24.2344 22.7281 24.1169 22.6104 23.972 22.6104Z" fill="#13C8A4"/>
<path d="M37.3857 46.5343C37.3857 45.9534 36.9161 45.4824 36.3368 45.4824H32.2473C31.668 45.4824 31.1984 45.9534 31.1984 46.5343V63.7923C31.1984 64.3732 31.668 64.8442 32.2473 64.8442H36.3368C36.9161 64.8442 37.3857 64.3732 37.3857 63.7923V46.5343Z" fill="#EE7D8B"/>
<path fill-rule="evenodd" clip-rule="evenodd" d="M34.2914 57.4688C34.1465 57.4688 34.029 57.5865 34.029 57.7317V67.2591C34.029 67.4043 34.1465 67.5221 34.2914 67.5221C34.4363 67.5221 34.5537 67.4043 34.5537 67.2591V57.7317C34.5537 57.5865 34.4363 57.4688 34.2914 57.4688Z" fill="#EE7D8B"/>
<path fill-rule="evenodd" clip-rule="evenodd" d="M34.2914 34.4993C34.1465 34.4993 34.029 34.617 34.029 34.7622L34.029 47.116C34.029 47.2612 34.1465 47.3789 34.2914 47.3789C34.4363 47.3789 34.5537 47.2612 34.5537 47.116L34.5537 34.7622C34.5537 34.617 34.4363 34.4993 34.2914 34.4993Z" fill="#EE7D8B"/>
<path d="M47.7056 64.59C47.7056 64.009 47.236 63.5381 46.6567 63.5381H42.5671C41.9878 63.5381 41.5182 64.009 41.5182 64.59V69.0406C41.5182 69.6215 41.9878 70.0925 42.5671 70.0925H46.6567C47.236 70.0925 47.7056 69.6215 47.7056 69.0406V64.59Z" fill="#EE7D8B"/>
<path fill-rule="evenodd" clip-rule="evenodd" d="M44.6112 67.4224C44.4663 67.4224 44.3489 67.5401 44.3489 67.6853V79.4335C44.3489 79.5787 44.4663 79.6965 44.6112 79.6965C44.7561 79.6965 44.8735 79.5787 44.8735 79.4335V67.6853C44.8735 67.5401 44.7561 67.4224 44.6112 67.4224Z" fill="#EE7D8B"/>
<path fill-rule="evenodd" clip-rule="evenodd" d="M44.6112 59.6465C44.4663 59.6465 44.3489 59.7642 44.3489 59.9095L44.3489 64.0915C44.3489 64.2367 44.4663 64.3545 44.6112 64.3545C44.7561 64.3545 44.8735 64.2367 44.8735 64.0915L44.8735 59.9095C44.8735 59.7642 44.7561 59.6465 44.6112 59.6465Z" fill="#EE7D8B"/>
<path d="M123.959 47.4686C123.959 48.0495 124.429 48.5205 125.008 48.5205L129.097 48.5205C129.677 48.5205 130.146 48.0495 130.146 47.4686L130.146 15.8745C130.146 15.2935 129.677 14.8225 129.097 14.8225L125.008 14.8225C124.429 14.8225 123.959 15.2935 123.959 15.8745L123.959 47.4686Z" fill="#EE7D8B"/>
<path fill-rule="evenodd" clip-rule="evenodd" d="M127.053 27.4629C127.198 27.4629 127.316 27.3452 127.316 27.1999L127.316 10.6181C127.316 10.4729 127.198 10.3551 127.053 10.3551C126.908 10.3551 126.791 10.4729 126.791 10.6181L126.791 27.1999C126.791 27.3452 126.908 27.4629 127.053 27.4629Z" fill="#EE7D8B"/>
<path fill-rule="evenodd" clip-rule="evenodd" d="M127.053 82.2976C127.198 82.2976 127.316 82.1799 127.316 82.0346L127.316 45.6763C127.316 45.531 127.198 45.4133 127.053 45.4133C126.908 45.4133 126.791 45.531 126.791 45.6763L126.791 82.0346C126.791 82.1799 126.908 82.2976 127.053 82.2976Z" fill="#EE7D8B"/>
<path d="M10.439 55.2059C10.439 55.7869 10.9086 56.2578 11.4879 56.2578L15.5774 56.2578C16.1567 56.2578 16.6264 55.7869 16.6264 55.2059L16.6264 40.102C16.6264 39.521 16.1567 39.0501 15.5774 39.0501L11.4879 39.0501C10.9086 39.0501 10.439 39.521 10.439 40.102L10.439 55.2059Z" fill="#EE7D8B"/>
<path fill-rule="evenodd" clip-rule="evenodd" d="M13.5328 45.6338C13.6777 45.6338 13.7952 45.516 13.7952 45.3708L13.7952 36.9034C13.7952 36.7581 13.6777 36.6404 13.5328 36.6404C13.388 36.6404 13.2705 36.7581 13.2705 36.9034L13.2705 45.3708C13.2705 45.516 13.388 45.6338 13.5328 45.6338Z" fill="#EE7D8B"/>
<path fill-rule="evenodd" clip-rule="evenodd" d="M13.5328 73.6345C13.6777 73.6345 13.7952 73.5168 13.7952 73.3715L13.7952 54.8053C13.7952 54.6601 13.6777 54.5423 13.5328 54.5423C13.388 54.5423 13.2705 54.6601 13.2705 54.8053L13.2705 73.3715C13.2705 73.5168 13.388 73.6345 13.5328 73.6345Z" fill="#EE7D8B"/>
<path d="M113.639 87.1235C113.639 87.5568 114.108 87.908 114.688 87.908L118.777 87.908C119.356 87.908 119.826 87.5568 119.826 87.1235L119.826 13.7364C119.826 13.3032 119.356 12.952 118.777 12.952L114.688 12.952C114.108 12.952 113.639 13.3032 113.639 13.7364L113.639 87.1235Z" fill="#13C8A4"/>
<path fill-rule="evenodd" clip-rule="evenodd" d="M116.733 24.6504C116.877 24.6504 116.995 24.5626 116.995 24.4543L116.995 0.196024C116.995 0.0877189 116.877 -7.82387e-05 116.733 -7.82254e-05C116.588 -7.82121e-05 116.47 0.087719 116.47 0.196024L116.47 24.4543C116.47 24.5626 116.588 24.6504 116.733 24.6504Z" fill="#13C8A4"/>
<path fill-rule="evenodd" clip-rule="evenodd" d="M116.733 102.9C116.877 102.9 116.995 102.812 116.995 102.704L116.995 86.6704C116.995 86.5621 116.877 86.4743 116.733 86.4743C116.588 86.4743 116.47 86.5621 116.47 86.6704L116.47 102.704C116.47 102.812 116.588 102.9 116.733 102.9Z" fill="#13C8A4"/>
<path d="M68.3457 83.9871C68.3457 84.5681 67.8761 85.0391 67.2968 85.0391L63.2072 85.0391C62.6279 85.0391 62.1583 84.5681 62.1583 83.9871L62.1583 47.1786C62.1583 46.5976 62.6279 46.1267 63.2072 46.1267L67.2968 46.1267C67.8761 46.1267 68.3457 46.5976 68.3457 47.1786L68.3457 83.9871Z" fill="#13C8A4"/>
<path fill-rule="evenodd" clip-rule="evenodd" d="M65.2518 46.7385C65.1069 46.7385 64.9895 46.6208 64.9895 46.4755L64.9895 20.5474C64.9895 20.4022 65.1069 20.2844 65.2518 20.2844C65.3967 20.2844 65.5142 20.4022 65.5142 20.5474L65.5142 46.4755C65.5142 46.6208 65.3967 46.7385 65.2518 46.7385Z" fill="#13C8A4"/>
<path fill-rule="evenodd" clip-rule="evenodd" d="M65.2518 136.772C65.1069 136.772 64.9895 136.654 64.9895 136.509L64.9894 64.5266C64.9894 64.3814 65.1069 64.2636 65.2518 64.2636C65.3967 64.2636 65.5141 64.3814 65.5141 64.5266L65.5142 136.509C65.5142 136.654 65.3967 136.772 65.2518 136.772Z" fill="#13C8A4"/>
<path d="M92.9985 40.5483C92.9985 39.9673 93.4681 39.4963 94.0474 39.4963H98.137C98.7163 39.4963 99.1859 39.9673 99.1859 40.5483V65.5761C99.1859 66.1571 98.7163 66.628 98.137 66.628H94.0474C93.4681 66.628 92.9985 66.1571 92.9985 65.5761V40.5483Z" fill="#13C8A4"/>
<path fill-rule="evenodd" clip-rule="evenodd" d="M96.0924 65.7837C96.2373 65.7837 96.3548 65.9014 96.3548 66.0467V81.1332C96.3548 81.2785 96.2373 81.3962 96.0924 81.3962C95.9475 81.3962 95.8301 81.2785 95.8301 81.1332V66.0467C95.8301 65.9014 95.9475 65.7837 96.0924 65.7837Z" fill="#13C8A4"/>
<path fill-rule="evenodd" clip-rule="evenodd" d="M96.0924 26.5339C96.2373 26.5339 96.3548 26.6517 96.3548 26.7969L96.3548 43.038C96.3548 43.1832 96.2373 43.301 96.0924 43.301C95.9475 43.301 95.8301 43.1832 95.8301 43.038L95.8301 26.7969C95.8301 26.6517 95.9475 26.5339 96.0924 26.5339Z" fill="#13C8A4"/>
<path d="M82.6792 53.7306C82.6792 53.1497 83.1488 52.6787 83.7281 52.6787H87.8177C88.397 52.6787 88.8666 53.1497 88.8666 53.7306V70.9886C88.8666 71.5695 88.397 72.0405 87.8177 72.0405H83.7281C83.1488 72.0405 82.6792 71.5695 82.6792 70.9886V53.7306Z" fill="#EE7D8B"/>
<path fill-rule="evenodd" clip-rule="evenodd" d="M85.7736 64.6653C85.9185 64.6653 86.0359 64.783 86.0359 64.9283V74.4556C86.0359 74.6009 85.9185 74.7186 85.7736 74.7186C85.6287 74.7186 85.5112 74.6009 85.5112 74.4556V64.9283C85.5112 64.783 85.6287 64.6653 85.7736 64.6653Z" fill="#EE7D8B"/>
<path fill-rule="evenodd" clip-rule="evenodd" d="M85.7736 41.6956C85.9185 41.6956 86.0359 41.8133 86.0359 41.9585L86.0359 54.3122C86.0359 54.4575 85.9185 54.5752 85.7736 54.5752C85.6287 54.5752 85.5112 54.4575 85.5112 54.3122L85.5112 41.9585C85.5112 41.8133 85.6287 41.6956 85.7736 41.6956Z" fill="#EE7D8B"/>
<path d="M72.3589 50.3766C72.3589 49.7957 72.8285 49.3247 73.4078 49.3247H77.4974C78.0767 49.3247 78.5463 49.7957 78.5463 50.3766V54.8272C78.5463 55.4082 78.0767 55.8791 77.4974 55.8791H73.4078C72.8285 55.8791 72.3589 55.4082 72.3589 54.8272V50.3766Z" fill="#EE7D8B"/>
<path fill-rule="evenodd" clip-rule="evenodd" d="M75.4528 53.208C75.5977 53.208 75.7151 53.3257 75.7151 53.471V65.2191C75.7151 65.3644 75.5977 65.4821 75.4528 65.4821C75.3079 65.4821 75.1904 65.3644 75.1904 65.2191V53.471C75.1904 53.3257 75.3079 53.208 75.4528 53.208Z" fill="#EE7D8B"/>
<path fill-rule="evenodd" clip-rule="evenodd" d="M75.4528 45.4321C75.5977 45.4321 75.7151 45.5499 75.7151 45.6951L75.7151 49.8771C75.7151 50.0224 75.5977 50.1401 75.4528 50.1401C75.3079 50.1401 75.1904 50.0224 75.1904 49.8771L75.1904 45.6951C75.1904 45.5499 75.3079 45.4321 75.4528 45.4321Z" fill="#EE7D8B"/>
<path d="M109.625 61.2091C109.625 61.79 109.155 62.261 108.576 62.261L104.487 62.261C103.907 62.261 103.438 61.79 103.438 61.2091L103.438 46.1052C103.438 45.5242 103.907 45.0533 104.487 45.0533L108.576 45.0533C109.155 45.0533 109.625 45.5242 109.625 46.1052L109.625 61.2091Z" fill="#EE7D8B"/>
<path fill-rule="evenodd" clip-rule="evenodd" d="M106.531 51.6365C106.386 51.6365 106.269 51.5187 106.269 51.3735L106.269 42.9061C106.269 42.7608 106.386 42.6431 106.531 42.6431C106.676 42.6431 106.793 42.7608 106.793 42.9061L106.793 51.3735C106.793 51.5187 106.676 51.6365 106.531 51.6365Z" fill="#EE7D8B"/>
<path fill-rule="evenodd" clip-rule="evenodd" d="M106.531 79.6375C106.386 79.6375 106.269 79.5197 106.269 79.3745L106.269 60.8082C106.269 60.663 106.386 60.5452 106.531 60.5452C106.676 60.5452 106.793 60.663 106.793 60.8082L106.793 79.3745C106.793 79.5197 106.676 79.6375 106.531 79.6375Z" fill="#EE7D8B"/>
<path d="M146.924 187.372C146.924 182.677 143.129 178.871 138.447 178.871H75.3423C70.6607 178.871 66.8654 182.677 66.8654 187.372V292.692C66.8654 297.387 70.6607 301.193 75.3423 301.193H81.9732C85.0086 301.193 87.8123 299.565 89.324 296.926L99.5441 279.08C102.803 273.39 110.987 273.39 114.246 279.08L124.466 296.926C125.977 299.565 128.781 301.193 131.817 301.193H138.447C143.129 301.193 146.924 297.387 146.924 292.692V187.372Z" fill="#13C8A4"/>
<path d="M138.162 129.346C138.162 128.845 137.757 128.439 137.257 128.439H73.9377C73.4381 128.439 73.0331 128.845 73.0331 129.346V155.2C73.0331 165.22 81.1328 173.343 91.1244 173.343H120.07C130.062 173.343 138.162 165.22 138.162 155.2V129.346Z" fill="#13C8A4"/>
<path d="M130.021 144.767C130.021 140.258 126.376 136.603 121.879 136.603H89.3152C84.819 136.603 81.1741 140.258 81.1741 144.767C81.1741 149.277 84.819 152.932 89.3152 152.932H121.879C126.376 152.932 130.021 149.277 130.021 144.767Z" fill="white"/>
<path fill-rule="evenodd" clip-rule="evenodd" d="M89.3152 138.492H121.879C125.335 138.492 128.137 141.302 128.137 144.767C128.137 148.233 125.335 151.043 121.879 151.043H89.3152C85.8594 151.043 83.0579 148.233 83.0579 144.767C83.0579 141.302 85.8594 138.492 89.3152 138.492ZM121.879 136.603C126.376 136.603 130.021 140.258 130.021 144.767C130.021 149.277 126.376 152.932 121.879 152.932H89.3152C84.819 152.932 81.1741 149.277 81.1741 144.767C81.1741 140.258 84.819 136.603 89.3152 136.603H121.879Z" fill="black"/>
<path d="M105.598 120.274C103.35 120.274 101.527 122.102 101.527 124.357L101.527 128.439C101.527 130.693 103.35 132.521 105.598 132.521C107.846 132.521 109.668 130.693 109.668 128.439L109.668 124.357C109.668 122.102 107.846 120.274 105.598 120.274Z" fill="#EE7D8B"/>
<path d="M125.95 112.11C123.702 112.11 121.88 113.938 121.88 116.193L121.88 128.439C121.88 130.694 123.702 132.521 125.95 132.521C128.199 132.521 130.021 130.694 130.021 128.439L130.021 116.193C130.021 113.938 128.199 112.11 125.95 112.11Z" fill="#13C8A4"/>
<path d="M85.2448 112.11C82.9968 112.11 81.1743 113.938 81.1743 116.193L81.1743 128.439C81.1743 130.694 82.9968 132.521 85.2448 132.521C87.4929 132.521 89.3154 130.694 89.3154 128.439L89.3154 116.193C89.3154 113.938 87.4929 112.11 85.2448 112.11Z" fill="#13C8A4"/>
<path d="M134.091 114.151C134.091 110.77 131.358 108.028 127.986 108.028H123.915C120.543 108.028 117.809 110.77 117.809 114.151C117.809 117.533 120.543 120.275 123.915 120.275H127.986C131.358 120.275 134.091 117.533 134.091 114.151Z" fill="#EE7D8B"/>
<path d="M93.3862 114.151C93.3862 110.77 90.6526 108.028 87.2804 108.028H83.2099C79.8378 108.028 77.1041 110.77 77.1041 114.151C77.1041 117.533 79.8378 120.275 83.2099 120.275H87.2804C90.6526 120.275 93.3862 117.533 93.3862 114.151Z" fill="#EE7D8B"/>
<path d="M117.733 147.317C118.719 147.441 119.618 146.74 119.742 145.751C119.865 144.763 119.166 143.861 118.18 143.737C117.195 143.613 116.295 144.314 116.172 145.303C116.048 146.291 116.747 147.193 117.733 147.317Z" fill="black"/>
<path d="M93.3096 147.317C94.2955 147.441 95.1948 146.74 95.3184 145.751C95.4419 144.763 94.743 143.861 93.7571 143.737C92.7713 143.613 91.872 144.314 91.7484 145.303C91.6248 146.291 92.3238 147.193 93.3096 147.317Z" fill="black"/>
<path d="M100.694 159.964C104.637 160.857 107.859 160.643 111.573 160.092C112.718 159.964 112.718 158.178 111.573 158.306C107.407 159.282 104.891 159.071 101.075 158.306C100.058 158.051 99.676 159.709 100.694 159.964Z" fill="white"/>
<path d="M160.111 301.429C160.111 298.169 157.475 295.526 154.224 295.526H133.032C129.781 295.526 127.145 298.169 127.145 301.429C127.145 304.69 129.781 307.333 133.032 307.333H154.224C157.475 307.333 160.111 304.69 160.111 301.429Z" fill="#13C8A4"/>
<path d="M86.6445 301.429C86.6445 298.169 84.009 295.526 80.7578 295.526H59.5658C56.3147 295.526 53.6791 298.169 53.6791 301.429C53.6791 304.69 56.3147 307.333 59.5658 307.333H80.7579C84.009 307.333 86.6445 304.69 86.6445 301.429Z" fill="#13C8A4"/>
<path d="M144.805 180.76C141.554 180.76 138.918 183.403 138.918 186.664L138.918 197.526C138.918 200.787 141.554 203.43 144.805 203.43C148.056 203.43 150.692 200.787 150.692 197.526L150.692 186.664C150.692 183.403 148.056 180.76 144.805 180.76Z" fill="#EE7D8B"/>
<path fill-rule="evenodd" clip-rule="evenodd" d="M137.035 186.664L137.035 197.526C137.035 201.83 140.514 205.319 144.806 205.319C149.097 205.319 152.576 201.83 152.576 197.526L152.576 186.664C152.576 182.36 149.097 178.871 144.806 178.871C140.514 178.871 137.035 182.36 137.035 186.664ZM138.919 186.664C138.919 183.403 141.554 180.76 144.806 180.76C148.057 180.76 150.692 183.403 150.692 186.664L150.692 197.526C150.692 200.787 148.057 203.43 144.806 203.43C141.554 203.43 138.919 200.787 138.919 197.526L138.919 186.664Z" fill="black"/>
<path fill-rule="evenodd" clip-rule="evenodd" d="M142.685 301.665C145.807 301.665 148.336 304.202 148.336 307.332C148.336 310.463 145.807 313 142.685 313C139.564 313 137.034 310.463 137.034 307.332C137.034 304.202 139.564 301.665 142.685 301.665Z" fill="#EE7D8B"/>
<path fill-rule="evenodd" clip-rule="evenodd" d="M128.559 301.665C131.679 301.665 134.209 304.202 134.209 307.332C134.209 310.463 131.679 313 128.559 313C125.437 313 122.907 310.463 122.907 307.332C122.907 304.202 125.437 301.665 128.559 301.665Z" fill="#EE7D8B"/>
<path fill-rule="evenodd" clip-rule="evenodd" d="M142.451 304.499C144.141 304.499 145.512 305.767 145.512 307.332C145.512 308.897 144.141 310.166 142.451 310.166C140.76 310.166 139.39 308.897 139.39 307.332C139.39 305.767 140.76 304.499 142.451 304.499Z" fill="white"/>
<path fill-rule="evenodd" clip-rule="evenodd" d="M128.323 304.499C130.013 304.499 131.384 305.767 131.384 307.332C131.384 308.897 130.013 310.166 128.323 310.166C126.632 310.166 125.262 308.897 125.262 307.332C125.262 305.767 126.632 304.499 128.323 304.499Z" fill="white"/>
<path fill-rule="evenodd" clip-rule="evenodd" d="M83.8185 301.665C86.9399 301.665 89.4697 304.202 89.4697 307.332C89.4697 310.463 86.9399 313 83.8185 313C80.6977 313 78.1673 310.463 78.1673 307.332C78.1673 304.202 80.6977 301.665 83.8185 301.665Z" fill="#EE7D8B"/>
<path fill-rule="evenodd" clip-rule="evenodd" d="M69.6911 301.665C72.8115 301.665 75.3418 304.202 75.3418 307.332C75.3418 310.463 72.8115 313 69.6911 313C66.5697 313 64.0394 310.463 64.0394 307.332C64.0394 304.202 66.5697 301.665 69.6911 301.665Z" fill="#EE7D8B"/>
<path fill-rule="evenodd" clip-rule="evenodd" d="M83.5835 304.499C85.2741 304.499 86.6445 305.767 86.6445 307.332C86.6445 308.897 85.2741 310.166 83.5835 310.166C81.8929 310.166 80.5224 308.897 80.5224 307.332C80.5224 305.767 81.8929 304.499 83.5835 304.499Z" fill="white"/>
<path fill-rule="evenodd" clip-rule="evenodd" d="M69.456 304.499C71.1461 304.499 72.5166 305.767 72.5166 307.332C72.5166 308.897 71.1461 310.166 69.456 310.166C67.7649 310.166 66.3945 308.897 66.3945 307.332C66.3945 305.767 67.7649 304.499 69.456 304.499Z" fill="white"/>
<path fill-rule="evenodd" clip-rule="evenodd" d="M95.2298 221.557C100.903 232.831 113.732 238.579 125.913 235.306C140.129 231.486 148.567 216.831 144.757 202.572L144.578 201.902L143.238 202.262L143.417 202.933C147.028 216.448 139.032 230.343 125.554 233.964C114.009 237.067 101.846 231.617 96.4684 220.932L96.1556 220.31L94.9181 220.938L95.2298 221.557ZM90.7434 223.758C97.4618 237.18 112.719 244.036 127.205 240.144C144.085 235.608 154.103 218.206 149.579 201.277L149.4 200.606L148.061 200.966L148.24 201.637C152.565 217.824 142.987 234.463 126.846 238.8C112.996 242.522 98.4059 235.968 91.9831 223.135L91.6717 222.514L90.432 223.136L90.7434 223.758ZM86.2567 225.96C94.0208 241.531 111.705 249.493 128.498 244.98C148.04 239.729 159.639 219.581 154.402 199.981L154.223 199.31L152.883 199.67L153.062 200.341C158.101 219.199 146.943 238.583 128.138 243.636C111.982 247.978 94.9665 240.319 87.4964 225.338L87.1868 224.715L85.9463 225.338L86.2567 225.96ZM81.7704 228.16C90.5805 245.881 110.692 254.948 129.79 249.816C151.997 243.849 165.176 220.956 159.226 198.684L159.046 198.014L157.706 198.374L157.886 199.045C163.638 220.576 150.898 242.704 129.431 248.473C110.97 253.434 91.5278 244.669 83.0117 227.541L82.7029 226.918L81.4615 227.538L81.7704 228.16Z" fill="white"/>
<path fill-rule="evenodd" clip-rule="evenodd" d="M98.4933 215.946C97.79 214.506 96.0417 213.906 94.6063 214.611L77.8277 222.851C76.3937 223.557 75.7944 225.311 76.4964 226.75C77.2005 228.19 78.9488 228.789 80.384 228.084L97.1622 219.842C98.5968 219.138 99.1961 217.385 98.4933 215.946Z" fill="black"/>
<path d="M159.168 198.943C159.168 195.683 156.533 193.04 153.282 193.04H144.805C141.554 193.04 138.918 195.683 138.918 198.943C138.918 202.204 141.554 204.847 144.805 204.847H153.282C156.533 204.847 159.168 202.204 159.168 198.943Z" fill="#13C8A4"/>
<path fill-rule="evenodd" clip-rule="evenodd" d="M153.283 191.15H144.806C140.515 191.15 137.036 194.639 137.036 198.943C137.036 203.247 140.515 206.736 144.806 206.736H153.283C157.574 206.736 161.053 203.247 161.053 198.943C161.053 194.639 157.574 191.15 153.283 191.15ZM153.283 193.04C156.534 193.04 159.169 195.683 159.169 198.943C159.169 202.204 156.534 204.847 153.283 204.847H144.806C141.555 204.847 138.919 202.204 138.919 198.943C138.919 195.683 141.555 193.04 144.806 193.04H153.283Z" fill="black"/>
<path fill-rule="evenodd" clip-rule="evenodd" d="M107.299 184.644L107.299 196.396C107.299 197.494 106.404 198.391 105.309 198.391C104.215 198.391 103.319 197.494 103.319 196.396L103.319 184.644C103.319 183.546 104.215 182.649 105.309 182.649C106.404 182.649 107.299 183.546 107.299 184.644ZM101.927 184.644L101.927 196.396C101.927 197.494 101.032 198.391 99.9376 198.391L99.9368 198.391C98.8429 198.391 97.9472 197.494 97.9472 196.396L97.9472 184.644C97.9472 183.546 98.8429 182.649 99.9368 182.649L99.9376 182.649C101.032 182.649 101.927 183.546 101.927 184.644ZM112.671 184.644L112.671 196.396C112.671 197.494 111.775 198.391 110.681 198.391C109.587 198.391 108.692 197.494 108.692 196.396L108.692 184.644C108.692 183.546 109.587 182.649 110.681 182.649C111.776 182.649 112.671 183.546 112.671 184.644Z" fill="black"/>
<path fill-rule="evenodd" clip-rule="evenodd" d="M95.2298 221.557C100.903 232.831 113.732 238.579 125.913 235.306C140.129 231.486 148.567 216.831 144.757 202.572L144.578 201.902L143.238 202.262L143.417 202.933C147.028 216.448 139.032 230.343 125.554 233.964C114.009 237.067 101.846 231.617 96.4684 220.932L96.1556 220.31L94.9181 220.938L95.2298 221.557ZM90.7434 223.758C97.4618 237.18 112.719 244.036 127.205 240.144C144.085 235.608 154.103 218.206 149.579 201.277L149.4 200.606L148.061 200.966L148.24 201.637C152.565 217.824 142.987 234.463 126.846 238.8C112.996 242.522 98.4059 235.968 91.9831 223.135L91.6717 222.514L90.432 223.136L90.7434 223.758ZM86.2567 225.96C94.0208 241.531 111.705 249.493 128.498 244.98C148.04 239.729 159.639 219.581 154.402 199.981L154.223 199.31L152.883 199.67L153.062 200.341C158.101 219.199 146.943 238.583 128.138 243.636C111.982 247.978 94.9665 240.319 87.4964 225.338L87.1868 224.715L85.9463 225.338L86.2567 225.96ZM81.7704 228.16C90.5805 245.881 110.692 254.948 129.79 249.816C151.997 243.849 165.176 220.956 159.226 198.684L159.046 198.014L157.706 198.374L157.886 199.045C163.638 220.576 150.898 242.704 129.431 248.473C110.97 253.434 91.5278 244.669 83.0117 227.541L82.7029 226.918L81.4615 227.538L81.7704 228.16Z" fill="black"/>
<path fill-rule="evenodd" clip-rule="evenodd" d="M98.4933 215.946C97.79 214.505 96.0417 213.906 94.6063 214.61L77.8277 222.85C76.3937 223.557 75.7944 225.31 76.4964 226.749C77.2005 228.189 78.9488 228.789 80.384 228.083L97.1622 219.842C98.5968 219.138 99.1961 217.384 98.4933 215.946Z" fill="#EE7D8B"/>
<path d="M159.168 198.943C159.168 195.683 156.533 193.04 153.282 193.04H144.805C141.554 193.04 138.918 195.683 138.918 198.943C138.918 202.204 141.554 204.847 144.805 204.847H153.282C156.533 204.847 159.168 202.204 159.168 198.943Z" fill="#13C8A4"/>
<path fill-rule="evenodd" clip-rule="evenodd" d="M69.856 196.395L69.856 187.893C69.856 183.59 66.377 180.101 62.0855 180.101C57.7941 180.101 54.3151 183.59 54.3151 187.893L54.3151 196.395C54.3151 200.698 57.7941 204.187 62.0855 204.187C66.377 204.187 69.856 200.698 69.856 196.395ZM67.9722 196.395C67.9722 199.655 65.3367 202.298 62.0855 202.298C58.8344 202.298 56.1989 199.655 56.1989 196.395L56.1989 187.893C56.1989 184.633 58.8344 181.99 62.0855 181.99C65.3367 181.99 67.9722 184.633 67.9722 187.893L67.9722 196.395Z" fill="black"/>
<path fill-rule="evenodd" clip-rule="evenodd" d="M39.5356 138.176C28.2946 143.865 22.5624 156.731 25.8261 168.947C29.6353 183.203 44.2486 191.665 58.4662 187.845L59.1349 187.665L58.7758 186.321L58.1072 186.501C44.6299 190.123 30.7755 182.103 27.1642 168.587C24.0706 157.008 29.5047 144.811 40.1594 139.418L40.7791 139.104L40.1536 137.863L39.5356 138.176ZM37.3416 133.676C23.9573 140.414 17.1211 155.715 21.0027 170.243C25.5256 187.171 42.8776 197.217 59.7584 192.681L60.427 192.501L60.0681 191.158L59.3994 191.338C43.2582 195.675 26.6671 186.069 22.3423 169.883C18.6311 155.993 25.1658 141.361 37.9621 134.92L38.5822 134.607L37.9616 133.364L37.3416 133.676ZM35.1458 129.177C19.6191 136.963 11.6804 154.698 16.18 171.539C21.4165 191.138 41.5059 202.77 61.0506 197.518L61.7193 197.338L61.3603 195.994L60.6916 196.174C41.8875 201.227 22.5584 190.037 17.5199 171.179C13.1909 154.976 20.828 137.911 35.7663 130.42L36.3869 130.109L35.7661 128.865L35.1458 129.177ZM32.9518 124.677C15.2812 133.513 6.24037 153.682 11.3575 172.835C17.3078 195.105 40.1354 208.323 62.3431 202.355L63.0117 202.175L62.6527 200.832L61.984 201.011C40.5142 206.781 18.4493 194.004 12.6972 172.475C7.75058 153.961 16.4906 134.463 33.5694 125.922L34.19 125.613L33.5726 124.368L32.9518 124.677Z" fill="black"/>
<path d="M62.085 202.298C65.3361 202.298 67.9717 199.655 67.9717 196.395L67.9717 187.893C67.9717 184.633 65.3361 181.99 62.085 181.99C58.8339 181.99 56.1983 184.633 56.1983 187.893L56.1983 196.395C56.1983 199.655 58.8339 202.298 62.085 202.298Z" fill="#13C8A4"/>
<rect x="0.764648" y="124.137" width="46.3001" height="21.7951" fill="white"/>
<path fill-rule="evenodd" clip-rule="evenodd" d="M33.3285 147.276C33.3335 145.672 32.0303 144.359 30.4323 144.353L11.7501 144.294C10.1524 144.291 8.84097 145.598 8.83556 147.2C8.83143 148.804 10.1346 150.117 11.7328 150.122L30.4153 150.179C32.0125 150.184 33.3239 148.878 33.3285 147.276Z" fill="#EE7D8B"/>
<path d="M29.673 114.216L11.6795 111.362L14.9238 90.4843L32.9173 93.3379C38.6879 94.2531 42.6416 99.6703 41.7459 105.434C40.8502 111.199 35.4436 115.131 29.673 114.216ZM16.9286 107.544L30.3783 109.677C33.6498 110.196 36.6943 107.982 37.2021 104.714C37.7099 101.446 35.4835 98.3955 32.212 97.8767L18.7623 95.7436L16.9286 107.544Z" fill="black"/>
<path d="M27.108 130.589L9.1145 127.735L12.3588 106.857L30.3523 109.71C36.1229 110.626 40.0766 116.043 39.1809 121.807C38.2852 127.571 32.8786 131.504 27.108 130.589ZM14.3636 123.917L27.8132 126.05C31.0848 126.569 34.1293 124.354 34.6371 121.086C35.1449 117.818 32.9185 114.768 29.647 114.249L16.1973 112.116L14.3636 123.917Z" fill="black"/>
<path d="M18.88 95.7582L11.0237 94.5137C9.75222 94.3123 8.90831 93.1568 9.10577 91.8875C9.30323 90.6183 10.4574 89.7793 11.729 89.9807L19.5852 91.2252C20.8567 91.4266 21.7006 92.5821 21.5032 93.8514C21.3057 95.1206 20.1515 95.9596 18.88 95.7582Z" fill="black"/>
<path d="M21.1965 96.1216C19.9219 95.9196 19.0759 94.761 19.2738 93.4885L20.2419 87.2621C20.4398 85.9896 21.5967 85.1485 22.8713 85.3505C24.1459 85.5525 24.9918 86.7111 24.794 87.9836L23.8258 94.2099C23.6279 95.4825 22.471 96.3236 21.1965 96.1216Z" fill="black"/>
<path d="M30.6822 97.613C29.4076 97.411 28.5617 96.2525 28.7596 94.98L29.7279 88.7536C29.9258 87.4811 31.0828 86.64 32.3573 86.8419C33.6319 87.0439 34.4779 88.2024 34.2799 89.475L33.3116 95.7013C33.1137 96.9738 31.9568 97.815 30.6822 97.613Z" fill="black"/>
<path d="M15.0962 135.051C13.8217 134.849 12.9757 133.69 13.1736 132.418L14.1349 126.237C14.3328 124.965 15.4897 124.123 16.7643 124.325C18.0388 124.527 18.8848 125.686 18.6869 126.958L17.7256 133.139C17.5277 134.412 16.3708 135.253 15.0962 135.051Z" fill="black"/>
<path d="M24.5817 136.543C23.3071 136.341 22.4612 135.182 22.6591 133.91L23.6203 127.729C23.8182 126.456 24.9752 125.615 26.2497 125.817C27.5243 126.019 28.3702 127.178 28.1723 128.45L27.2111 134.631C27.0132 135.904 25.8563 136.745 24.5817 136.543Z" fill="black"/>
<path d="M13.7496 128.505L5.89338 127.261C4.62185 127.06 3.77794 125.904 3.97541 124.635C4.17287 123.366 5.32707 122.527 6.5986 122.728L14.4548 123.972C15.7263 124.174 16.5703 125.329 16.3728 126.599C16.1753 127.868 15.0211 128.707 13.7496 128.505Z" fill="black"/>
</svg>
