<svg width="20" height="16" viewBox="0 0 20 16" fill="none" xmlns="http://www.w3.org/2000/svg">
<path fill-rule="evenodd" clip-rule="evenodd" d="M0 1.08108C0 0.484014 0.46637 0 1.04167 0H18.9583C19.5336 0 20 0.484014 20 1.08108C20 1.67814 19.5336 2.16215 18.9583 2.16215H1.04167C0.46637 2.16215 0 1.67814 0 1.08108ZM0 7.99978C0 7.40272 0.46637 6.9187 1.04167 6.9187H18.9583C19.5336 6.9187 20 7.40272 20 7.99978C20 8.59684 19.5336 9.08085 18.9583 9.08085H1.04167C0.46637 9.08085 0 8.59684 0 7.99978ZM1.04167 13.8379C0.46637 13.8379 0 14.3219 0 14.919C0 15.516 0.46637 16 1.04167 16H18.9583C19.5336 16 20 15.516 20 14.919C20 14.3219 19.5336 13.8379 18.9583 13.8379H1.04167Z" fill="black"/>
</svg>
