<svg height="29" viewBox="0 0 18 29" width="18" xmlns="http://www.w3.org/2000/svg"><g fill="none"><g fill="#ffb11a" transform="translate(0 10)"><path d="m.61 12.4325.29.725.725 1.45c-.3625-1.305-.87-2.61-1.3775-3.8425zm-.3625-1.74 1.595 4.1325.5075.6525-2.175-5.5825.0725.725z"/><path d="m.175 9.8225c.87 1.9575 1.6675 3.915 2.32 5.8l.435.5075c-.83287769-2.3291-1.7518425-4.626512-2.755-6.8875z"/><path d="m.175 9.17c1.0875 2.32 2.03 4.7125 2.9 7.105l.435.3625c-.97572847-2.7026982-2.06418156-5.3633613-3.2625-7.975v.5075"/><path d="m.175 8.6625c1.305 2.6825 2.465 5.365 3.5525 8.12l.3625.29c-1.16-3.045-2.465-5.945-3.915-8.845z"/><path d="m.2475 8.2275c1.595 3.045 2.9 6.09 4.06 8.99l.3625.145c-1.29693678-3.2573826-2.74858798-6.4510152-4.35-9.57v.435"/><path d="m.32 7.7925c1.6675 3.19 3.19 6.4525 4.5675 9.715l.29.2175c-1.3775-3.625-2.9725-6.96-4.785-10.295v.3625"/><path d="m.3925 7.43c1.885 3.335 3.625 6.815 5.075 10.3675l.29.145c-1.5225-3.6975-3.335-7.3225-5.22-10.875z"/><path d="m.5375 7.0675c2.03 3.625 3.8425 7.25 5.51 10.9475l.29.145c-1.8125-4.06-3.6975-7.9025-5.8-11.3825z"/><path d="m.61 6.7775c2.175 3.625 4.205 7.54 6.0175 11.455l.29.0725c-1.9575-4.205-4.06-8.1925-6.235-11.89l-.0725.29"/><path d="m7.2075 18.3775h.29c-2.1025-4.35-4.35-8.41-6.67-12.2525l-.145.29c2.36999168 3.8780059 4.54762747 7.8703382 6.525 11.9625"/><path d="m7.7875 18.45h.29c-2.18653846-4.2718653-4.58193431-8.4335631-7.1775-12.47v.145c2.5375 3.9875 4.8575 8.12 6.96 12.325z"/><path d="m8.3675 18.5225h.29c-2.32819029-4.4217522-4.86865181-8.7284393-7.6125-12.905l-.145.29c2.6825 4.06 5.22 8.1925 7.4675 12.5425"/><path d="m8.9475 18.5225h.29c-2.47959436-4.4954078-5.1649401-8.87421476-8.0475-13.1225l-.145.2175c3.1175 4.64 5.8 9.0625 7.975 12.905"/><path d="m9.6 18.5225h.2175c-2.6825-4.5675-5.51-9.0625-8.555-13.4125l-.0725.29c2.9 4.205 5.8 8.6275 8.3375 13.1225"/><path d="m10.325 18.45c-2.76290268-4.6374667-5.71368529-9.16038763-8.845-13.5575l-.145.2175c3.1175 4.35 6.09 8.7725 8.845 13.34h.29"/><path d="m10.9775 18.305c-2.9725-4.64-6.1625-9.2075-9.425-13.63l-.145.2175c3.2625 4.35 6.38 8.845 9.28 13.485h.29"/><path d="m11.485 18.16c-3.1175-4.7125-6.38-9.28-9.7875-13.7025l-.145.2175c3.8425 4.93 7.1775 9.715 9.715 13.5575z"/><path d="m11.775 18.015h.29l-.145-.2175c-3.2625-4.64-6.5975-9.135-10.15-13.5575l-.0725.2175c3.48 4.4225 6.8875 8.99 10.15 13.5575m.5075-.2175h.2175l-.2175-.435c-3.48-4.495-6.815-9.0625-10.3675-13.2675l-.145.145c3.625 4.4225 7.105 8.99 10.5125 13.5575"/><path d="m13.08 17.435c-3.55241303-4.572691-7.20241774-9.06872328-10.9475-13.485l-.145.145c3.6975 4.495 7.395 8.99 10.875 13.5575.145 0 .2175-.0725.2175-.145"/><path d="m13.5875 17.145c-3.66908686-4.5584042-7.41546232-9.05405478-11.2375-13.485l-.145.2175c3.8425 4.35 7.6125 8.845 11.31 13.4125l.145-.145zm.58-.3625c-3.8603312-4.4705956-7.77562868-8.8934317-11.745-13.2675l-.145.145c4.35 4.785 8.265 9.425 11.6 13.2675.0725 0 .145 0 .2175-.145zm.435-.3625-12.035-13.05-.145.145c4.4225 4.7125 8.555 9.28 11.9625 13.05zm.435-.3625c-4.0975535-4.3119491-8.20589975-8.61362924-12.325-12.905l-.145.145 12.325 12.905s0-.145.145-.145zm.3625-.435-12.47-12.615-.2175.145 12.5425 12.615zm.435-.5075c-4.35-4.06-8.555-8.1925-12.76-12.325l-.145.145c4.64 4.5675 8.99 8.845 12.76 12.325zm.29-.435c-4.35-3.9875-8.6275-7.975-12.8325-12.035l-.2175.145c4.35 4.06 8.555 8.12 13.05 12.035l.0725-.145zm.435-.5075-13.1225-11.6725-.145.145c4.2775 3.9875 8.7 7.9025 13.05 11.6725l.145-.145zm.2175-.58c-4.495-3.625-8.845-7.395-13.1225-11.2375l-.2175.145c4.35 3.8425 8.7 7.6125 13.195 11.31z"/><path d="m16.85 13.3025.145-.2175-.29-.29c-4.35-3.4075-8.7-6.96-12.905-10.585l-.145.145c4.35 3.77 8.7 7.395 13.2675 10.875"/><path d="m17.14 12.7225.0725-.2175-.145-.0725c-4.4225-3.335-8.7725-6.815-13.05-10.3675l-.2175.145c4.35 3.625 8.7 7.0325 13.1225 10.3675z"/><path d="m17.3575 11.925c-3.6975-2.6825-8.3375-6.09-13.1225-10.005l-.2175.145c4.35 3.48 8.7 6.8875 13.34 10.15z"/><path d="m17.575 11.345c-4.5675-3.045-8.99-6.235-13.195-9.57l-.2175.145c4.35 3.4075 8.7 6.5975 13.2675 9.6425v-.2175"/><path d="m17.575 10.765c-4.35-2.9-8.7-5.945-12.905-9.135l-.2175.145c4.24416332 3.25039549 8.6221399 6.32223539 13.1225 9.2075z"/><path d="m17.72 10.185c-4.35-2.755-8.7-5.5825-12.8325-8.7l-.2175.145c4.21671081 3.11772671 8.5710828 6.04483234 13.05 8.7725z"/><path d="m17.72 9.8225v-.29c-4.35-2.5375-8.4825-5.22-12.5425-8.12l-.29.0725c3.9875 2.9 8.265 5.655 12.8325 8.3375"/><path d="m17.72 9.2425v-.29c-4.2299602-2.36124139-8.34310949-4.92591092-12.325-7.685l-.2175.145c3.8425 2.6825 8.0475 5.2925 12.5425 7.83"/><path d="m17.6475 8.6625v-.3625c-4.1325-2.175-8.12-4.64-11.9625-7.25l-.29.145c3.8425 2.5375 7.975 5.075 12.325 7.395"/><path d="m17.575 8.01v-.29c-4.06-2.03-7.975-4.2775-11.6-6.67l-.29.0725c3.84102232 2.50077898 7.8097355 4.79972865 11.89 6.8875"/><path d="m17.43 7.14c-3.8425-1.885-7.54-3.915-11.165-6.235l-.29.145c3.5525 2.175 7.395 4.35 11.5275 6.38z"/><path d="m17.2125 6.56c-3.625-1.74-7.25-3.625-10.6575-5.7275l-.29.0725c3.4075 2.175 7.105 4.1325 11.02 5.945v-.29"/><path d="m16.995 5.98c-3.48-1.595-6.815-3.335-10.15-5.22l-.29.0725c3.4075 2.03 6.96 3.8425 10.585 5.4375z"/><path d="m16.705 5.4c-3.19-1.45-6.38-3.045-9.425-4.7125h-.3625c3.19 1.885 6.525 3.5525 9.9325 5.0025l-.145-.3625"/><path d="m16.415 4.7475c-2.9725-1.2325-5.8725-2.61-8.7-4.1325h-.435c3.045 1.6675 6.1625 3.19 9.28 4.495z"/><path d="m15.98 4.1675c-2.6825-1.0875-5.2925-2.32-7.9025-3.625h-.435c2.8275 1.45 5.655 2.8275 8.6275 3.9875z"/><path d="m15.545 3.515c-2.3925-.87-4.64-1.885-6.8875-3.045h-.5075c2.465 1.305 5.075 2.465 7.685 3.48z"/><path d="m15.11 3.1525-.2175-.2175c-1.885-.725-3.77-1.595-5.655-2.465h-.58c2.1406253.97559659 4.3171615 1.8703948 6.525 2.6825"/><path d="m14.095 2.21-4.06-1.6675h-.725l5.365 2.175zm-1.595-.9425-.725-.29c-.5075-.2175-1.015-.29-1.595-.3625l3.77 1.45c-.5075-.3625-.9425-.58-1.45-.7975z"/></g><g fill="#ffc556"><path d="m17.285 6.3375-.29-.725-.725-1.45c.3625 1.305.87 2.5375 1.3775 3.8425zm.3625 1.74-1.6675-4.205-.435-.58 2.175 5.5825z"/><path d="m17.72 8.875c-.87-1.885-1.6675-3.8425-2.3925-5.8l-.3625-.435c.7975 2.32 1.74 4.64 2.755 6.8875z"/><path d="m17.72 9.6c-1.1063169-2.37729065-2.1220473-4.7956964-3.045-7.25l-.3625-.29c.9425 2.6825 2.1025 5.2925 3.2625 7.975v-.58"/><path d="m17.6475 10.035c-1.2325-2.61-2.465-5.365-3.48-8.12-.1190538-.07542545-.2399228-.14794686-.3625-.2175 1.16 2.9725 2.3925 5.945 3.8425 8.845z"/><path d="m17.575 10.5425c-1.45-2.9-2.755-5.945-3.9875-8.99l-.3625-.2175c1.305 3.2625 2.755 6.525 4.35 9.57z"/><path d="m17.575 10.9775c-1.6675-3.19-3.19-6.525-4.5675-9.7875l-.3625-.145c1.45 3.625 3.1175 7.0325 4.785 10.295z"/><path d="m17.43 11.34c-1.8125-3.4075-3.48-6.8875-5.075-10.44l-.2175-.145c1.5225 3.77 3.2625 7.395 5.22 10.875z"/><path d="m17.3575 11.7025c-2.03-3.625-3.8425-7.25-5.51-11.02l-.29-.0725c1.713942 3.88929374 3.6256037 7.68841895 5.7275 11.3825z"/><path d="m17.285 11.9925c-2.175-3.6975-4.205-7.54-6.0175-11.5275h-.29c1.9575 4.1325 3.9875 8.12 6.235 11.8175v-.29"/><path d="m10.6875.3925-.29-.0725c2.1025 4.35 4.35 8.4825 6.67 12.325l.145-.3625c-2.3679024-3.85437668-4.5455136-7.82246822-6.525-11.89"/><path d="m10.1075.2475h-.29c2.2475 4.4225 4.64 8.7 7.105 12.615l.145-.29c-2.5375-3.9875-4.8575-8.12-6.96-12.325"/><path d="m9.5275.175h-.29c2.3925 4.5675 4.93 8.9175 7.6125 12.905l.145-.2175c-2.8275-4.1325-5.22-8.3375-7.54-12.6875"/><path d="m8.875.175h-.2175c2.5375 4.7125 5.2925 9.135 8.0475 13.195l.145-.2175c-3.1175-4.7125-5.8-9.2075-7.975-12.9775z"/><path d="m8.295.175h-.145c2.61 4.64 5.51 9.135 8.555 13.4125l.0725-.2175c-2.9-4.2775-5.8-8.7-8.41-13.195"/><path d="m7.4975.32c2.8119793 4.61542159 5.8111413 9.11416465 8.99 13.485l.145-.2175c-3.19-4.35-6.09-8.7-8.9175-13.34h-.2175"/><path d="m6.9175.3925c2.9725 4.7125 6.09 9.2075 9.425 13.63l.145-.2175c-3.2625-4.35-6.38-8.845-9.28-13.4125z"/><path d="m6.3375.61c3.12970384 4.65484118 6.4183078 9.20085253 9.86 13.63l.145-.145c-3.4075-4.495-6.7425-8.99-9.715-13.5575h-.29"/><path d="m6.0475.6825-.2175.0725.145.2175c2.6825 3.8425 6.09 8.555 10.15 13.485l.0725-.2175c-3.48-4.35-6.815-8.845-10.0775-13.4125z"/><path d="m5.4675.9-.2175.0725.29.435c3.335 4.495 6.815 8.9175 10.3675 13.2675l.145-.2175c-3.5525-4.35-7.1775-8.9175-10.585-13.5575"/><path d="m4.7425 1.2625c3.19 4.06 6.8875 8.7 11.02 13.63l.145-.2175c-3.7211128-4.4166344-7.34694865-8.91267091-10.875-13.485z"/><path d="m4.235 1.625 11.3825 13.4125.145-.145c-3.8214507-4.4069302-7.5678236-8.87840758-11.2375-13.4125l-.2175.0725zm-.3625.29 11.6 13.34.2175-.2175c-3.9206002-4.3750533-7.78755592-8.79788396-11.6-13.2675-.145 0-.2175.0725-.2175.145zm-.5075.3625 12.035 13.1225.145-.145-11.9625-13.05zm-.435.435 12.325 12.905c0-.0725 0-.145.145-.2175l-12.3975-12.8325-.145.145zm-.5075.435 12.5425 12.615.145-.145-12.47-12.6875zm-.3625.435 12.76 12.325.145-.145-12.76-12.325zm-.3625.5075c4.35 3.915 8.7 7.975 12.905 11.9625l.2175-.145c-4.2757942-4.0652893-8.60196183-8.07726594-12.9775-12.035zm-.29.5075 13.05 11.6.145-.0725c-4.2775-3.9875-8.6275-7.975-12.9775-11.745l-.145.2175z"/><path d="m1.1175 5.105c4.4225 3.625 8.845 7.4675 13.1225 11.31l.2175-.145c-4.35-3.915-8.7-7.685-13.195-11.3825z"/><path d="m.9725 5.4675-.0725.2175.29.2175c3.625 2.9 8.12 6.525 12.8325 10.6575l.2175-.145c-4.32463943-3.766172-8.74870435-7.41662992-13.2675-10.9475zm-.2175.5075-.0725.29.145.0725c4.4225 3.335 8.7725 6.7425 13.05 10.3675l.145-.145c-4.205-3.625-8.6275-7.105-13.05-10.44z"/><path d="m.465 6.7725c3.77 2.6825 8.41 6.09 13.195 10.0775l.2175-.145c-4.35-3.5525-8.7725-6.8875-13.34-10.15v.2175"/><path d="m.32 7.425c4.46957216 3.0236584 8.82270874 6.2159586 13.05 9.57l.29-.145c-4.35-3.4075-8.7-6.67-13.2675-9.715v.29"/><path d="m.2475 8.005c4.4225 2.9 8.7 5.8725 12.9775 9.0625l.2175-.0725c-4.2775-3.2625-8.7-6.38-13.1225-9.28v.29"/><path d="m.175 8.585c4.35 2.6825 8.7 5.5825 12.8325 8.7l.2175-.2175c-4.205-3.1175-8.555-6.0175-13.05-8.7z"/><path d="m.175.9475v.29c4.35 2.465 8.4825 5.22 12.5425 8.12l.29-.0725c-3.9875-2.9-8.265-5.655-12.8325-8.41" transform="translate(0 8)"/><path d="m.175 9.5275v.29c4.22847902 2.3376209 8.34160291 4.8780798 12.325 7.6125.0728206-.0231941.1453271-.0473629.2175-.0725-3.8425-2.755-8.12-5.365-12.5425-7.83z"/><path d="m.175 10.1075.0725.29c4.1325 2.175 8.12 4.5675 11.9625 7.25l.29-.145c-3.8425-2.61-7.975-5.075-12.325-7.395"/><path d="m.32 10.6875v.29c3.9875 2.03 7.9025 4.35 11.6 6.7425l.29-.145c-3.6975-2.3925-7.685-4.7125-11.89-6.8875"/><path d="m.465 11.5575c3.48 1.74 7.25 3.77 11.165 6.235l.29-.0725c-3.625-2.32-7.395-4.495-11.5275-6.4525z"/><path d="m.6825 12.21c3.625 1.6675 7.25 3.625 10.6575 5.655h.29c-3.4075-2.175-7.105-4.1325-11.0925-6.0175z"/><path d="m.9 12.79c3.4075 1.595 6.815 3.2625 10.15 5.22l.29-.145c-3.4075-1.9575-6.96-3.77-10.585-5.365z"/><path d="m1.19 13.37c3.19 1.45 6.38 2.9725 9.425 4.7125l.3625-.0725c-3.2625-1.8125-6.525-3.48-10.005-4.93z"/><path d="m1.48 13.95c2.8275 1.2325 5.8 2.61 8.7 4.205l.435-.0725c-3.045-1.6675-6.1625-3.1175-9.3525-4.4225z"/><path d="m1.915 14.6025c2.66055588 1.0959931 5.27294977 2.3054347 7.83 3.625l.435-.0725c-2.755-1.45-5.655-2.755-8.555-3.915z"/><path d="m2.35 15.1825c2.2475.87 4.5675 1.885 6.8875 3.045h.5075c-2.5375-1.305-5.075-2.3925-7.685-3.4075z"/><path d="m2.7125 15.6175.2175.2175c1.885.725 3.77 1.45 5.7275 2.3925h.58c-2.14166593-.9511249-4.31819026-1.8217346-6.525-2.61"/><path d="m3.8 16.4875 4.06 1.6675.725.0725-5.4375-2.175zm1.6675 1.015.725.29 1.5225.3625-3.625-1.45c.3625.29.87.58 1.3775.725z"/></g></g></svg>