<svg width="77" height="30" viewBox="0 0 77 30" fill="none" xmlns="http://www.w3.org/2000/svg"><path d="M66.742 8.778c.408 0 .818-.136 1.09-.476.341-.272.478-.68.478-1.156 0-.408-.137-.816-.478-1.087-.272-.34-.681-.476-1.09-.476-.41 0-.819.136-1.091.476-.341.271-.477.68-.477 1.087 0 .952.681 1.632 1.567 1.632zm-39.61 11.288a3.211 3.211 0 01-2.96-1.973 3.19 3.19 0 01-.243-1.223c0-1.768 1.431-3.264 3.204-3.264 1.704 0 3.136 1.496 3.136 3.264 0 1.768-1.432 3.196-3.136 3.196zm0-9.656a6.147 6.147 0 00-3.203.884V3.951h-3.136V16.87c0 3.536 2.863 6.46 6.34 6.46 3.409 0 6.272-2.924 6.272-6.46 0-3.604-2.795-6.46-6.272-6.46zm29.452 9.656a3.208 3.208 0 01-2.222-.96 3.192 3.192 0 01-.914-2.236c0-1.768 1.363-3.264 3.136-3.264 1.772 0 3.136 1.496 3.136 3.264 0 1.768-1.364 3.196-3.136 3.196zm0-9.656a6.148 6.148 0 00-3.136.884V3.951h-3V16.87c0 3.536 2.795 6.46 6.272 6.46 3.477 0 6.272-2.924 6.272-6.46 0-3.604-2.727-6.46-6.272-6.46" fill="#FFB11A"/><path fill-rule="evenodd" clip-rule="evenodd" d="M48.13 10.478h-3.136v6.46a3.188 3.188 0 01-1.213 2.525 3.208 3.208 0 01-2.74.603 3.286 3.286 0 01-2.319-3.128v-6.46h-3.136v6.46a6.515 6.515 0 003.136 5.576 6.148 6.148 0 006.272 0v.884c0 1.767-1.363 3.195-3.136 3.195v3.264c3.409 0 6.272-2.924 6.272-6.46V10.479z" fill="#FFB11A"/><mask id="a" mask-type="alpha" maskUnits="userSpaceOnUse" x="70" y="3" width="7" height="21"><path d="M70.56 3.883h6.271v19.379h-6.272V3.882z" fill="#fff"/></mask><g mask="url(#a)"><path fill-rule="evenodd" clip-rule="evenodd" d="M72.127 3.883v6.46H70.56v3.263h1.568v9.656h3.068v-9.656h1.568v-3.264h-1.568v-6.46h-3.068z" fill="#FFB11A"/></g><path d="M.409 21.018l.273.68.681 1.36c-.34-1.224-.818-2.448-1.295-3.604l.341 1.564zm-.34-1.632l1.499 3.876.477.611L0 18.638l.068.68" fill="#FFB11A"/><path fill-rule="evenodd" clip-rule="evenodd" d="M0 18.57c.818 1.836 1.568 3.671 2.182 5.44l.409.475A93.688 93.688 0 000 18.025v.545z" fill="#FFB11A"/><path fill-rule="evenodd" clip-rule="evenodd" d="M0 17.958c1.023 2.176 1.909 4.42 2.727 6.664l.409.34a96.41 96.41 0 00-3.068-7.48v.476" fill="#FFB11A"/><path fill-rule="evenodd" clip-rule="evenodd" d="M0 17.482a107.45 107.45 0 013.34 7.615l.341.272C2.591 22.514 1.363 19.794 0 17.074v.408z" fill="#FFB11A"/><path fill-rule="evenodd" clip-rule="evenodd" d="M.068 17.074c1.5 2.856 2.727 5.711 3.818 8.431l.34.136a103.238 103.238 0 00-4.09-8.975v.408" fill="#FFB11A"/><path fill-rule="evenodd" clip-rule="evenodd" d="M.137 16.666c1.568 2.992 3 6.052 4.295 9.111l.272.204c-1.295-3.4-2.795-6.527-4.5-9.655v.34" fill="#FFB11A"/><path fill-rule="evenodd" clip-rule="evenodd" d="M.205 16.326c1.773 3.128 3.409 6.392 4.772 9.723l.273.136c-1.432-3.467-3.136-6.867-4.909-10.2l-.136.34z" fill="#FFB11A"/><path fill-rule="evenodd" clip-rule="evenodd" d="M.342 15.986c1.909 3.4 3.613 6.8 5.181 10.267l.273.136C4.09 22.581 2.319 18.978.342 15.714v.272z" fill="#FFB11A"/><path fill-rule="evenodd" clip-rule="evenodd" d="M.41 15.714c2.045 3.4 3.954 7.072 5.659 10.743l.272.068A131.477 131.477 0 00.478 15.374l-.068.272" fill="#FFB11A"/><path fill-rule="evenodd" clip-rule="evenodd" d="M6.613 26.593h.272A140.218 140.218 0 00.614 15.102l-.137.272a129.776 129.776 0 016.136 11.22z" fill="#FFB11A"/><path d="M7.158 26.661h.273A137.13 137.13 0 00.68 14.966v.136a128.942 128.942 0 016.545 11.56h-.068z" fill="#FFB11A"/><path d="M7.704 26.73h.272A145.42 145.42 0 00.818 14.625l-.136.272C3.204 18.706 5.59 22.58 7.704 26.66" fill="#FFB11A"/><path d="M8.249 26.73h.273A156.736 156.736 0 00.954 14.421l-.136.204a187.45 187.45 0 017.5 12.103" fill="#FFB11A"/><path d="M8.863 26.73h.204c-2.522-4.284-5.181-8.5-8.044-12.58l-.069.272c2.727 3.944 5.454 8.092 7.84 12.307" fill="#FFB11A"/><path fill-rule="evenodd" clip-rule="evenodd" d="M9.544 26.661a186.24 186.24 0 00-8.317-12.715l-.136.204c2.931 4.08 5.726 8.228 8.317 12.511h.273" fill="#FFB11A"/><path fill-rule="evenodd" clip-rule="evenodd" d="M10.158 26.525c-2.795-4.351-5.795-8.635-8.863-12.783l-.136.204c3.068 4.08 6 8.296 8.726 12.647h.273" fill="#FFB11A"/><path fill-rule="evenodd" clip-rule="evenodd" d="M10.635 26.39c-2.931-4.42-6-8.704-9.203-12.852l-.137.204a202.472 202.472 0 019.136 12.715l.204-.068z" fill="#FFB11A"/><path fill-rule="evenodd" clip-rule="evenodd" d="M10.908 26.253h.272l-.136-.204C7.976 21.698 4.84 17.482 1.5 13.334l-.068.204a343.691 343.691 0 019.544 12.715h-.068zm.545-.204h.205l-.205-.408c-3.272-4.215-6.408-8.5-9.749-12.443l-.136.136c3.409 4.148 6.681 8.432 9.885 12.715z" fill="#FFB11A"/><path fill-rule="evenodd" clip-rule="evenodd" d="M12.135 25.71A380.353 380.353 0 001.84 13.061l-.137.136c3.477 4.216 6.954 8.432 10.226 12.715.137 0 .205-.068.205-.136" fill="#FFB11A"/><path d="M12.612 25.437A484.136 484.136 0 002.045 12.79l-.136.204a383.696 383.696 0 0110.635 12.58l.136-.137h-.068zm.545-.34A674.524 674.524 0 002.113 12.654l-.136.136c4.09 4.488 7.772 8.84 10.908 12.443.068 0 .136 0 .204-.136h.068zm.41-.34L2.25 12.518l-.137.136c4.159 4.42 8.045 8.704 11.249 12.24l.204-.137zm.409-.34a3344.283 3344.283 0 00-11.59-12.103l-.136.136 11.59 12.103s0-.136.136-.136zm.34-.408L2.591 12.18l-.205.135L14.18 24.145l.136-.136zm.41-.476C10.634 19.726 6.68 15.85 2.726 11.974l-.136.136c4.363 4.284 8.453 8.296 11.998 11.56l.136-.137zm.272-.408c-4.09-3.74-8.112-7.48-12.067-11.287l-.204.136c4.09 3.808 8.044 7.616 12.271 11.287l.068-.136h-.068zm.41-.476L3.067 11.703l-.137.136c4.023 3.74 8.181 7.412 12.272 10.947l.136-.136h.068zm.204-.544c-4.227-3.4-8.317-6.935-12.34-10.539l-.204.136c4.09 3.604 8.18 7.14 12.407 10.607l.137-.204z" fill="#FFB11A"/><path fill-rule="evenodd" clip-rule="evenodd" d="M15.68 21.834l.136-.204-.273-.272A335.607 335.607 0 013.41 11.43l-.137.136c4.09 3.536 8.181 6.936 12.476 10.2" fill="#FFB11A"/><path fill-rule="evenodd" clip-rule="evenodd" d="M15.953 21.29l.068-.204-.137-.068c-4.158-3.128-8.249-6.392-12.27-9.724l-.205.136c4.09 3.4 8.18 6.596 12.339 9.724l.205.136z" fill="#FFB11A"/><path fill-rule="evenodd" clip-rule="evenodd" d="M16.157 20.542c-3.477-2.516-7.84-5.712-12.34-9.384l-.204.136c4.09 3.264 8.18 6.46 12.544 9.52v-.272z" fill="#FFB11A"/><path fill-rule="evenodd" clip-rule="evenodd" d="M16.362 19.998c-4.295-2.856-8.454-5.848-12.408-8.976l-.204.136c4.09 3.196 8.18 6.188 12.475 9.044v-.204" fill="#FFB11A"/><path fill-rule="evenodd" clip-rule="evenodd" d="M16.362 19.454c-4.09-2.72-8.181-5.576-12.135-8.568l-.205.136a180.71 180.71 0 0012.34 8.636v-.204z" fill="#FFB11A"/><path fill-rule="evenodd" clip-rule="evenodd" d="M16.498 18.91c-4.09-2.584-8.18-5.236-12.067-8.16l-.204.136c3.965 2.924 8.06 5.67 12.27 8.228v-.204z" fill="#FFB11A"/><path fill-rule="evenodd" clip-rule="evenodd" d="M16.498 18.57v-.272a151.611 151.611 0 01-11.794-7.616l-.273.068c3.75 2.72 7.772 5.304 12.067 7.82z" fill="#FFB11A"/><path d="M16.498 18.026v-.272a141.187 141.187 0 01-11.59-7.208l-.204.136c3.613 2.516 7.567 4.964 11.794 7.344z" fill="#FFB11A"/><path fill-rule="evenodd" clip-rule="evenodd" d="M16.43 17.482v-.34c-3.886-2.04-7.636-4.352-11.249-6.8l-.273.136c3.614 2.38 7.5 4.76 11.59 6.936" fill="#FFB11A"/><path d="M16.362 16.87v-.272a105.836 105.836 0 01-10.908-6.256l-.273.068a124.16 124.16 0 0011.18 6.46z" fill="#FFB11A"/><path fill-rule="evenodd" clip-rule="evenodd" d="M16.225 16.054c-3.613-1.768-7.09-3.672-10.498-5.848l-.273.136c3.34 2.04 6.954 4.08 10.84 5.984l-.069-.272z" fill="#FFB11A"/><path fill-rule="evenodd" clip-rule="evenodd" d="M16.02 15.51c-3.408-1.632-6.817-3.4-10.02-5.372l-.273.068c3.204 2.04 6.68 3.876 10.362 5.576v-.272" fill="#FFB11A"/><path fill-rule="evenodd" clip-rule="evenodd" d="M15.816 14.966c-3.272-1.496-6.408-3.128-9.544-4.896l-.273.068a91.444 91.444 0 009.954 5.1l-.137-.272z" fill="#FFB11A"/><path fill-rule="evenodd" clip-rule="evenodd" d="M15.543 14.422c-3-1.36-5.999-2.856-8.862-4.42h-.34c2.999 1.768 6.135 3.332 9.339 4.692l-.136-.34" fill="#FFB11A"/><path fill-rule="evenodd" clip-rule="evenodd" d="M15.27 13.81a89.864 89.864 0 01-8.18-3.876h-.409a93.3 93.3 0 008.726 4.216l-.136-.34z" fill="#FFB11A"/><path fill-rule="evenodd" clip-rule="evenodd" d="M14.862 13.266c-2.523-1.02-4.977-2.176-7.431-3.4h-.41c2.66 1.36 5.318 2.652 8.113 3.74l-.272-.34z" fill="#FFB11A"/><path fill-rule="evenodd" clip-rule="evenodd" d="M14.453 12.654c-2.25-.816-4.363-1.768-6.477-2.856H7.5c2.318 1.224 4.772 2.312 7.226 3.264l-.272-.408z" fill="#FFB11A"/><path fill-rule="evenodd" clip-rule="evenodd" d="M14.044 12.314l-.205-.204c-1.772-.68-3.545-1.496-5.317-2.312h-.546a88.43 88.43 0 006.136 2.516" fill="#FFB11A"/><path d="M13.09 11.43L9.271 9.866H8.59l5.045 2.04-.546-.476zm-1.5-.884l-.682-.272c-.477-.204-.955-.272-1.5-.34l3.545 1.36a6.777 6.777 0 00-1.364-.748z" fill="#FFB11A"/><path d="M16.089 5.922l-.273-.68-.682-1.36c.341 1.224.819 2.38 1.296 3.604l-.341-1.564zm.34 1.632l-1.567-3.943-.41-.544 2.046 5.235-.068-.748z" fill="#FFC556"/><path fill-rule="evenodd" clip-rule="evenodd" d="M16.498 8.302a76 76 0 01-2.25-5.44l-.34-.407a75.098 75.098 0 002.59 6.46v-.613z" fill="#FFC556"/><path fill-rule="evenodd" clip-rule="evenodd" d="M16.498 8.982a97.055 97.055 0 01-2.863-6.8l-.341-.271c.886 2.516 1.977 4.963 3.068 7.48v-.545" fill="#FFC556"/><path fill-rule="evenodd" clip-rule="evenodd" d="M16.43 9.39c-1.16-2.448-2.318-5.031-3.273-7.615a8.192 8.192 0 00-.34-.204c1.09 2.788 2.25 5.575 3.613 8.295V9.39z" fill="#FFC556"/><path fill-rule="evenodd" clip-rule="evenodd" d="M16.361 9.866c-1.363-2.72-2.59-5.575-3.749-8.431l-.34-.204c1.226 3.06 2.59 6.12 4.09 8.975v-.34z" fill="#FFC556"/><path fill-rule="evenodd" clip-rule="evenodd" d="M16.361 10.274c-1.567-2.992-3-6.12-4.294-9.18L11.726.96c1.363 3.4 2.931 6.595 4.5 9.655l.136-.34z" fill="#FFC556"/><path fill-rule="evenodd" clip-rule="evenodd" d="M16.225 10.614c-1.704-3.196-3.272-6.46-4.772-9.791L11.25.687a87.874 87.874 0 004.908 10.2l.068-.273z" fill="#FFC556"/><path fill-rule="evenodd" clip-rule="evenodd" d="M16.157 10.954A121.9 121.9 0 0110.976.62L10.703.55c1.612 3.648 3.41 7.21 5.386 10.675l.068-.272z" fill="#FFC556"/><path fill-rule="evenodd" clip-rule="evenodd" d="M16.089 11.226A116.027 116.027 0 0110.43.415h-.272c1.84 3.876 3.75 7.615 5.863 11.083v-.272" fill="#FFC556"/><path fill-rule="evenodd" clip-rule="evenodd" d="M9.885.348L9.612.28c1.977 4.08 4.09 7.955 6.272 11.559l.137-.34A129.762 129.762 0 019.885.348z" fill="#FFC556"/><path fill-rule="evenodd" clip-rule="evenodd" d="M9.34.211h-.273c2.113 4.148 4.363 8.16 6.681 11.832l.136-.272A128.932 128.932 0 019.34.21z" fill="#FFC556"/><path fill-rule="evenodd" clip-rule="evenodd" d="M8.794.143h-.272c2.25 4.284 4.635 8.363 7.158 12.103l.136-.204c-2.659-3.876-4.908-7.82-7.09-11.9" fill="#FFC556"/><path d="M8.18.143h-.204c2.386 4.42 4.977 8.567 7.567 12.375l.137-.204C12.748 7.894 10.226 3.68 8.18.143z" fill="#FFC556"/><path d="M7.635.143H7.5c2.454 4.352 5.181 8.567 8.045 12.58l.068-.205C12.885 8.506 10.158 4.358 7.704.143" fill="#FFC556"/><path fill-rule="evenodd" clip-rule="evenodd" d="M6.885.28a186.298 186.298 0 008.454 12.647l.136-.204c-3-4.08-5.726-8.16-8.385-12.512h-.205" fill="#FFC556"/><path fill-rule="evenodd" clip-rule="evenodd" d="M6.34.347a185.46 185.46 0 008.863 12.783l.136-.204c-3.068-4.08-6-8.295-8.726-12.58H6.34z" fill="#FFC556"/><path fill-rule="evenodd" clip-rule="evenodd" d="M5.795.55a229.847 229.847 0 009.271 12.784l.137-.136C11.999 8.982 8.863 4.767 6.067.483h-.272" fill="#FFC556"/><path fill-rule="evenodd" clip-rule="evenodd" d="M5.522.619l-.205.068.137.204c2.522 3.604 5.726 8.023 9.544 12.647l.068-.204C11.794 9.254 8.658 5.04 5.59.754L5.522.62z" fill="#FFC556"/><path fill-rule="evenodd" clip-rule="evenodd" d="M4.977.823L4.772.89l.273.408c3.136 4.216 6.408 8.363 9.748 12.443l.137-.204C11.59 9.458 8.18 5.175 4.977.823z" fill="#FFC556"/><path fill-rule="evenodd" clip-rule="evenodd" d="M4.295 1.163c3 3.808 6.476 8.16 10.362 12.783l.136-.204A378.581 378.581 0 014.569 1.095l-.273.068z" fill="#FFC556"/><path d="M3.818 1.503L14.52 14.082l.136-.136A483.644 483.644 0 014.09 1.366l-.204.069-.068.068zm-.341.272l10.907 12.511.205-.204A676.382 676.382 0 013.681 1.639c-.136 0-.204.068-.204.136zM3 2.115l11.316 12.307.137-.136L3.204 2.046 3 2.116zm-.41.408l11.59 12.103c0-.068 0-.136.136-.204L2.66 2.387l-.137.136h.069zm-.477.408l11.794 11.831.137-.136-11.726-11.9-.205.205zm-.34.408L13.77 14.898l.136-.136L1.91 3.202l-.137.137zm-.341.476c4.09 3.671 8.18 7.48 12.134 11.219l.205-.136A668.746 668.746 0 001.568 3.611l-.136.204zm-.273.476L13.43 15.17l.136-.068c-4.022-3.74-8.112-7.48-12.203-11.015l-.136.204" fill="#FFC556"/><path fill-rule="evenodd" clip-rule="evenodd" d="M.886 4.767c4.159 3.4 8.317 7.003 12.34 10.607l.204-.136A366.72 366.72 0 001.023 4.563l-.137.204z" fill="#FFC556"/><path d="M.75 5.107l-.068.203.272.204c3.409 2.72 7.636 6.12 12.067 9.996l.205-.136A303.914 303.914 0 00.75 5.107zm-.205.475l-.068.272.137.068c4.158 3.128 8.248 6.324 12.27 9.724l.137-.136C9.067 12.11 4.908 8.846.75 5.718l-.205-.136z" fill="#FFC556"/><path fill-rule="evenodd" clip-rule="evenodd" d="M.273 6.33c3.545 2.516 7.909 5.712 12.408 9.452l.205-.136c-4.09-3.332-8.25-6.46-12.544-9.52v.204" fill="#FFC556"/><path fill-rule="evenodd" clip-rule="evenodd" d="M.137 6.942a200.429 200.429 0 0112.27 8.976l.274-.136C8.59 12.586 4.5 9.526.205 6.67v.272" fill="#FFC556"/><path fill-rule="evenodd" clip-rule="evenodd" d="M.068 7.486c4.159 2.72 8.181 5.508 12.203 8.5l.205-.068A213.264 213.264 0 00.136 7.214v.272" fill="#FFC556"/><path fill-rule="evenodd" clip-rule="evenodd" d="M0 8.03c4.09 2.516 8.18 5.236 12.067 8.16l.204-.204A147.624 147.624 0 000 7.826v.204z" fill="#FFC556"/><mask id="b" mask-type="alpha" maskUnits="userSpaceOnUse" x="0" y="8" width="13" height="9"><path d="M0 8.37h12.067v7.888H0V8.37z" fill="#fff"/></mask><g mask="url(#b)"><path fill-rule="evenodd" clip-rule="evenodd" d="M0 8.37v.273c4.09 2.312 7.976 4.896 11.794 7.615l.273-.068C8.317 13.47 4.295 10.887 0 8.303" fill="#FFC556"/></g><path d="M0 8.914v.272a141.18 141.18 0 0111.59 7.14 7.65 7.65 0 00.204-.068C8.18 13.674 4.159 11.226 0 8.914z" fill="#FFC556"/><path d="M0 9.458l.068.272c3.886 2.04 7.636 4.284 11.249 6.8l.272-.136C7.976 13.946 4.09 11.634 0 9.458z" fill="#FFC556"/><path fill-rule="evenodd" clip-rule="evenodd" d="M.137 10.002v.272c3.75 1.904 7.43 4.08 10.907 6.324l.273-.136a133.84 133.84 0 00-11.18-6.46z" fill="#FFC556"/><path d="M.273 10.818c3.273 1.632 6.818 3.536 10.499 5.848l.273-.068C7.636 14.422 4.09 12.382.205 10.546l.068.272z" fill="#FFC556"/><path fill-rule="evenodd" clip-rule="evenodd" d="M.478 11.43c3.409 1.564 6.818 3.4 10.022 5.304h.272c-3.204-2.04-6.68-3.876-10.43-5.644l.136.34z" fill="#FFC556"/><path fill-rule="evenodd" clip-rule="evenodd" d="M.682 11.974c3.204 1.496 6.408 3.06 9.544 4.896l.273-.136a104.853 104.853 0 00-9.954-5.032l.137.272z" fill="#FFC556"/><path fill-rule="evenodd" clip-rule="evenodd" d="M.954 12.518c3 1.36 6 2.788 8.863 4.42l.34-.068C7.09 15.17 4.023 13.606.75 12.246l.204.272z" fill="#FFC556"/><path fill-rule="evenodd" clip-rule="evenodd" d="M1.227 13.062c2.659 1.156 5.454 2.448 8.18 3.944l.41-.068c-2.863-1.564-5.795-2.924-8.794-4.148l.204.272z" fill="#FFC556"/><path fill-rule="evenodd" clip-rule="evenodd" d="M1.636 13.674A94.87 94.87 0 019 17.074l.409-.068c-2.59-1.36-5.318-2.584-8.045-3.672l.273.34z" fill="#FFC556"/><path fill-rule="evenodd" clip-rule="evenodd" d="M2.045 14.218a75.423 75.423 0 016.477 2.856h.477c-2.386-1.224-4.772-2.244-7.226-3.196l.272.34z" fill="#FFC556"/><path fill-rule="evenodd" clip-rule="evenodd" d="M2.386 14.626l.205.204c1.772.68 3.545 1.36 5.385 2.244h.546a88.44 88.44 0 00-6.136-2.448z" fill="#FFC556"/><path d="M3.409 15.442l3.817 1.564.682.068-5.113-2.04.614.408zm1.568.952l.681.272 1.432.34-3.409-1.36c.341.272.818.544 1.296.68" fill="#FFC556"/><path fill-rule="evenodd" clip-rule="evenodd" d="M64.9 23.125h3.137V10.206H64.9v12.92z" fill="#FFB11A"/></svg>