<svg width="158" height="158" viewBox="0 0 158 158" fill="none" xmlns="http://www.w3.org/2000/svg">
<path fill-rule="evenodd" clip-rule="evenodd" d="M79 47C96.6731 47 111 61.3269 111 79C111 96.6731 96.6731 111 79 111C61.3269 111 47 96.6731 47 79C47 61.3269 61.3269 47 79 47Z" fill="#13C8A4"/>
<path fill-rule="evenodd" clip-rule="evenodd" d="M88.9037 86.5218H96.1218C96.1585 86.5218 96.1912 86.4984 96.2027 86.4637L98.641 79.1598C98.6413 79.1588 98.6417 79.1578 98.642 79.1567L100.755 71.9142C100.761 71.8929 100.759 71.87 100.748 71.8505L100.437 71.2679C100.422 71.2402 100.393 71.2229 100.361 71.2229H91.5173C91.4754 71.2229 91.4396 71.2532 91.433 71.2944L90.1659 79.1573C90.1658 79.158 90.1657 79.1586 90.1656 79.1593L88.8198 86.4214C88.8112 86.4676 88.8419 86.5119 88.8882 86.5204C88.8933 86.5214 88.8985 86.5218 88.9037 86.5218Z" fill="white"/>
<path fill-rule="evenodd" clip-rule="evenodd" d="M72.6901 86.5218H79.8775C79.9142 86.5218 79.9468 86.4985 79.9584 86.4638L82.4133 79.1599C82.4136 79.1588 82.414 79.1578 82.4143 79.1567L84.5414 71.9144C84.5477 71.893 84.5452 71.87 84.5347 71.8503L84.221 71.2677C84.2061 71.2401 84.1772 71.2229 84.1458 71.2229H75.2406C75.1987 71.2229 75.1631 71.2532 75.1564 71.2943L73.8806 79.1578C73.8805 79.1581 73.8805 79.1585 73.8804 79.1588L72.606 86.4222C72.5979 86.4685 72.629 86.5125 72.6754 86.5206C72.6802 86.5214 72.6852 86.5218 72.6901 86.5218Z" fill="white"/>
<path fill-rule="evenodd" clip-rule="evenodd" d="M56.9037 86.5218H64.1218C64.1585 86.5218 64.1912 86.4984 64.2027 86.4637L66.641 79.1598C66.6413 79.1588 66.6417 79.1578 66.642 79.1567L68.7548 71.9142C68.761 71.8929 68.7586 71.87 68.7481 71.8505L68.4366 71.2679C68.4217 71.2402 68.3928 71.2229 68.3613 71.2229H59.5173C59.4754 71.2229 59.4396 71.2532 59.433 71.2944L58.1659 79.1573C58.1658 79.158 58.1657 79.1586 58.1656 79.1593L56.8198 86.4214C56.8112 86.4676 56.8419 86.5119 56.8882 86.5204C56.8933 86.5214 56.8985 86.5218 56.9037 86.5218Z" fill="white"/>
<path d="M79.0301 35.5081H79.099C79.9592 35.509 80.7845 35.1651 81.3932 34.5521C82.002 33.939 82.3442 33.107 82.3445 32.2394V17.309C82.3445 15.4815 80.8757 14 79.0639 14C77.2521 14 75.7833 15.4815 75.7833 17.309V32.2394C75.7837 33.1073 76.126 33.9394 76.735 34.5525C77.344 35.1656 78.1697 35.5093 79.0301 35.5081Z" fill="black"/>
<path d="M52.7283 40.168C53.3079 41.1785 54.3796 41.7985 55.537 41.7929C56.1181 41.7912 56.6887 41.6372 57.1929 41.3459C57.9473 40.9166 58.5002 40.2011 58.729 39.3585C58.9577 38.5158 58.8431 37.616 58.4108 36.859L51.0473 23.9941C50.473 22.9465 49.3826 22.2933 48.1959 22.2858C47.0091 22.2784 45.9108 22.9179 45.3235 23.9581C44.7363 24.9984 44.7516 26.2774 45.3636 27.3031L52.7283 40.168Z" fill="black"/>
<path d="M100.983 41.3758C101.47 41.6558 102.021 41.8028 102.582 41.8026C103.743 41.805 104.817 41.184 105.401 40.1726L112.765 27.3077C113.351 26.2839 113.351 25.0224 112.764 23.9986C112.178 22.9747 111.095 22.3441 109.923 22.3441C108.751 22.3441 107.668 22.9749 107.082 23.9987L99.7186 36.8636C99.2842 37.6172 99.1683 38.5152 99.3969 39.3558C99.6319 40.2183 100.204 40.9474 100.983 41.3758Z" fill="black"/>
<path d="M118.929 59.0546C119.208 59.131 119.496 59.1701 119.785 59.1708C120.353 59.169 120.911 59.0157 121.401 58.7264L134.155 51.2991C135.17 50.708 135.796 49.6155 135.796 48.4333C135.796 47.251 135.171 46.1586 134.156 45.5674C133.14 44.9763 131.89 44.9762 130.875 45.5673L118.12 52.9946C116.986 53.676 116.365 54.9743 116.541 56.294C116.717 57.6136 117.657 58.6999 118.929 59.0546Z" fill="black"/>
<path d="M125.98 82.872H140.782C142.569 82.8368 144 81.3653 144 79.5623C144 77.7593 142.569 76.2879 140.782 76.2526H125.98C125.119 76.2505 124.293 76.5966 123.686 77.2134C123.064 77.8465 122.723 78.7061 122.738 79.5971C122.737 80.4651 123.078 81.2978 123.687 81.9121C124.295 82.5263 125.12 82.8716 125.98 82.872Z" fill="black"/>
<path d="M130.873 113.553C131.369 113.843 131.933 113.996 132.508 113.996V113.992C133.994 113.995 135.296 112.99 135.682 111.542C136.067 110.095 135.44 108.566 134.153 107.817L121.399 100.39C120.652 99.9509 119.761 99.8339 118.927 100.065C117.656 100.421 116.717 101.507 116.541 102.826C116.365 104.145 116.985 105.443 118.119 106.125L130.873 113.553Z" fill="black"/>
<path d="M22.4447 111.55C22.8305 112.998 24.1327 114.003 25.6187 114C26.1928 114 26.7568 113.847 27.2534 113.557L40.0077 106.13C41.562 105.21 42.0849 103.195 41.1768 101.625C40.7514 100.864 40.042 100.306 39.2064 100.075C38.3708 99.8448 37.4786 99.9609 36.7284 100.398L23.9728 107.825C22.6858 108.574 22.0589 110.103 22.4447 111.55Z" fill="black"/>
<path d="M17.3459 82.8727H32.148C33.0083 82.872 33.8331 82.5265 34.4408 81.9123C35.0486 81.2981 35.3895 80.4655 35.3885 79.5977V79.5282C35.3895 78.6605 35.0486 77.8279 34.4408 77.2137C33.8331 76.5995 33.0083 76.254 32.148 76.2534H17.3459C16.1584 76.2299 15.051 76.8556 14.4504 77.8892C13.8499 78.9229 13.8499 80.2032 14.4504 81.2368C15.051 82.2704 16.1584 82.896 17.3459 82.8727Z" fill="black"/>
<path d="M36.7272 58.7321C37.218 59.0199 37.7754 59.1719 38.3431 59.1727C38.6321 59.1733 38.92 59.1355 39.1992 59.0603C40.4708 58.7047 41.4096 57.6185 41.5856 56.2994C41.7616 54.9803 41.1409 53.6824 40.0078 53.0003L27.2535 45.573C25.6843 44.6593 23.6778 45.2016 22.7719 46.7844C21.866 48.3672 22.4037 50.391 23.9729 51.3047L36.7272 58.7321Z" fill="black"/>
<path d="M85.5153 95.4315C85.3651 94.5198 86.4258 93.9095 87.1385 94.4976L108.24 111.911C108.989 112.529 108.506 113.744 107.537 113.68L97.3476 113.008C96.9447 112.981 96.5654 113.199 96.386 113.561L91.8458 122.708C91.4142 123.578 90.1213 123.384 89.9634 122.426L85.5153 95.4315Z" fill="black"/>
<path d="M92.5 108C96.1667 109.833 102.1 120 106.5 128C112 138 110.5 146.143 97 150C81 154.571 75 127.5 64 130.5C53 133.5 52.5 145 54.5 147.5" stroke="black" stroke-width="2" stroke-dasharray="2.2 2.2"/>
<path d="M107.955 103.609C113.648 96.9103 116.843 88.4445 116.994 79.6543C117.146 70.8641 114.245 62.2934 108.785 55.4024C103.326 48.5114 95.6461 43.7266 87.0544 41.8631C78.4626 39.9997 69.4906 41.173 61.6669 45.1831C53.8433 49.1932 47.6521 55.792 44.1483 63.8552C40.6445 71.9183 40.0449 80.9469 42.4517 89.4025C44.8584 97.8582 50.1226 105.218 57.3472 110.227C64.5719 115.237 73.31 117.586 82.0727 116.875" stroke="#13C8A4" stroke-width="2"/>
</svg>
