<svg width="101" height="28" viewBox="0 0 101 28" fill="none" xmlns="http://www.w3.org/2000/svg"><path d="M28.137.03H14.18v.003a13.84 13.84 0 00-9.842 4.084C1.716 6.746.276 10.246.276 13.972c0 3.725 1.447 7.226 4.07 9.855a13.843 13.843 0 009.862 4.093c.089 0 .178-.011.264-.011h13.665v-3.492H14.181v.003a10.394 10.394 0 01-7.373-3.059 10.387 10.387 0 01-3.043-7.388 10.39 10.39 0 013.05-7.388c1.968-1.973 4.594-3.052 7.392-3.052.082 0 .164-.01.242-.01h13.688V.028z" fill="url(#paint0_linear)"/><path d="M18.64 6.126H14.2c-.099 0-.196.005-.291.021-4.181.154-7.535 3.607-7.535 7.829 0 4.32 3.511 7.835 7.827 7.835h4.334l3.51-3.492H14.2a4.347 4.347 0 01-4.338-4.344 4.343 4.343 0 014.338-4.34c.087 0 .172-.018.256-.018h7.651l-3.466-3.491z" fill="url(#paint1_linear)"/><path d="M28.137 6.126H22.1l3.467 3.491h2.57V6.126z" fill="url(#paint2_linear)"/><path d="M28.137 18.32H25.53l-3.512 3.492h6.12V18.32z" fill="url(#paint3_linear)"/><path d="M12.456 13.97c0 .964.781 1.745 1.745 1.745h10.455l1.758-1.748-1.73-1.744H14.2c-.963 0-1.744.781-1.744 1.746z" fill="url(#paint4_linear)"/><path d="M48.895 19.654a8.067 8.067 0 01-5.716 2.354c-5.29 0-8.048-3.701-8.07-7.94-.045-4.196 2.69-8.123 8.07-8.123 2.063 0 4.147.786 5.716 2.356l-.83.718c-1.344-1.346-3.115-1.997-4.886-1.997-4.573 0-6.927 3.23-6.905 7 .046 3.68 2.377 6.865 6.905 6.865a7.013 7.013 0 004.91-1.996l.806.763z" fill="#005A85"/><path d="M52.006 13.386H61.2v1.11h-9.194v6.152h9.914v1.163H50.788V6.126h11.353v1.163H52.006v6.098z" fill="#005A85"/><path d="M74.26 6.126h1.284v.032l-5.327 7.604 5.77 8.033v.015H74.55l-5.066-7.178-5.067 7.179h-1.444v-.016l5.769-8.033-5.326-7.604v-.032h1.315l4.753 6.708 4.776-6.708z" fill="#005A85"/><path d="M81.303 21.829V6.126h1.163v15.685h-1.163v.018z" fill="url(#paint5_linear)"/><path d="M100.497 13.989c-.023 4.127-2.645 8.099-7.913 8.099-5.268 0-7.913-3.994-7.913-8.145 0-4.218 2.624-8.077 7.913-8.077 5.29 0 7.935 3.881 7.913 8.123zm-14.637-.023c.02 3.544 2.262 6.999 6.724 6.999 4.484 0 6.748-3.455 6.748-6.999 0-3.634-2.241-6.978-6.748-6.978-4.506 0-6.748 3.276-6.724 6.978z" fill="url(#paint6_linear)"/><path d="M76.92 14.836a.86.86 0 100-1.719.86.86 0 000 1.72z" fill="url(#paint7_linear)"/><defs><linearGradient id="paint0_linear" x1="6.38537" y1="25.8656" x2="30.1794" y2="2.07155" gradientUnits="userSpaceOnUse"><stop stop-color="#20BCC5"/><stop offset="1" stop-color="#00B69F"/></linearGradient><linearGradient id="paint1_linear" x1="8.94607" y1="19.7903" x2="20.6255" y2="8.11093" gradientUnits="userSpaceOnUse"><stop stop-color="#20BCC5"/><stop offset="1" stop-color="#00B69F"/></linearGradient><linearGradient id="paint2_linear" x1="24.4696" y1="8.52048" x2="27.5006" y2="5.48948" gradientUnits="userSpaceOnUse"><stop stop-color="#20BCC5"/><stop offset="1" stop-color="#00B69F"/></linearGradient><linearGradient id="paint3_linear" x1="23.5468" y1="23.3417" x2="28.353" y2="18.5354" gradientUnits="userSpaceOnUse"><stop stop-color="#20BCC5"/><stop offset="1" stop-color="#00B69F"/></linearGradient><linearGradient id="paint4_linear" x1="15.402" y1="17.6386" x2="22.7503" y2="10.2903" gradientUnits="userSpaceOnUse"><stop stop-color="#20BCC5"/><stop offset="1" stop-color="#00B69F"/></linearGradient><linearGradient id="paint5_linear" x1="77.6635" y1="18.1897" x2="86.0967" y2="9.75649" gradientUnits="userSpaceOnUse"><stop stop-color="#20BCC5"/><stop offset="1" stop-color="#00B69F"/></linearGradient><linearGradient id="paint6_linear" x1="86.7938" y1="19.7387" x2="98.3743" y2="8.15821" gradientUnits="userSpaceOnUse"><stop stop-color="#20BCC5"/><stop offset="1" stop-color="#00B69F"/></linearGradient><linearGradient id="paint7_linear" x1="76.3113" y1="14.5847" x2="77.5268" y2="13.3692" gradientUnits="userSpaceOnUse"><stop stop-color="#20BCC5"/><stop offset="1" stop-color="#00B69F"/></linearGradient></defs></svg>