<svg width="334" height="348" viewBox="0 0 334 348" fill="none" xmlns="http://www.w3.org/2000/svg">
<path d="M3.852 198H1.476V185.436H7.146C7.722 185.436 8.238 185.526 8.694 185.706C9.15 185.886 9.534 186.15 9.846 186.498C10.17 186.834 10.416 187.242 10.584 187.722C10.764 188.202 10.854 188.736 10.854 189.324C10.854 190.188 10.656 190.932 10.26 191.556C9.876 192.18 9.294 192.624 8.514 192.888L11.088 198H8.442L6.102 193.158H3.852V198ZM6.912 191.16C7.368 191.16 7.728 191.04 7.992 190.8C8.256 190.548 8.388 190.194 8.388 189.738V188.91C8.388 188.454 8.256 188.106 7.992 187.866C7.728 187.626 7.368 187.506 6.912 187.506H3.852V191.16H6.912ZM16.6691 198V185.436H24.9491V187.542H19.0451V190.584H24.2651V192.69H19.0451V195.894H24.9491V198H16.6691ZM35.5801 198.216C34.7521 198.216 34.0021 198.084 33.3301 197.82C32.6701 197.544 32.1001 197.136 31.6201 196.596C31.1521 196.056 30.7921 195.39 30.5401 194.598C30.2881 193.794 30.1621 192.864 30.1621 191.808C30.1621 190.752 30.2881 189.816 30.5401 189C30.7921 188.172 31.1521 187.482 31.6201 186.93C32.1001 186.366 32.6701 185.94 33.3301 185.652C34.0021 185.364 34.7521 185.22 35.5801 185.22C36.7081 185.22 37.6441 185.46 38.3881 185.94C39.1321 186.42 39.7261 187.146 40.1701 188.118L38.1361 189.198C37.9561 188.634 37.6621 188.184 37.2541 187.848C36.8461 187.5 36.2881 187.326 35.5801 187.326C34.6921 187.326 33.9841 187.626 33.4561 188.226C32.9401 188.826 32.6821 189.666 32.6821 190.746V192.726C32.6821 193.818 32.9401 194.658 33.4561 195.246C33.9841 195.822 34.6921 196.11 35.5801 196.11C36.2881 196.11 36.8641 195.918 37.3081 195.534C37.7641 195.15 38.0941 194.676 38.2981 194.112L40.2241 195.246C39.7681 196.182 39.1621 196.914 38.4061 197.442C37.6501 197.958 36.7081 198.216 35.5801 198.216ZM45.4909 198V185.436H53.7709V187.542H47.8669V190.584H53.0869V192.69H47.8669V195.894H53.7709V198H45.4909ZM59.0019 198V196.092H60.6579V187.344H59.0019V185.436H64.7079V187.344H63.0339V196.092H64.7079V198H59.0019ZM73.2912 198L69.1872 185.436H71.6172L73.5432 191.556L74.6592 195.732H74.7132L75.8112 191.556L77.7372 185.436H80.0952L75.9912 198H73.2912ZM85.0937 198V185.436H93.3737V187.542H87.4697V190.584H92.6897V192.69H87.4697V195.894H93.3737V198H85.0937ZM108.871 185.436V193.158C108.871 194.142 109.057 194.88 109.429 195.372C109.813 195.864 110.455 196.11 111.355 196.11C112.255 196.11 112.891 195.864 113.263 195.372C113.647 194.88 113.839 194.142 113.839 193.158V185.436H116.179V192.852C116.179 193.776 116.089 194.574 115.909 195.246C115.741 195.918 115.465 196.476 115.081 196.92C114.697 197.364 114.193 197.694 113.569 197.91C112.957 198.114 112.213 198.216 111.337 198.216C110.449 198.216 109.699 198.114 109.087 197.91C108.487 197.694 107.995 197.364 107.611 196.92C107.227 196.476 106.951 195.918 106.783 195.246C106.615 194.574 106.531 193.776 106.531 192.852V185.436H108.871ZM122.288 198V185.436H127.94C128.516 185.436 129.032 185.532 129.488 185.724C129.956 185.904 130.352 186.168 130.676 186.516C131 186.852 131.246 187.26 131.414 187.74C131.582 188.22 131.666 188.748 131.666 189.324C131.666 189.912 131.582 190.446 131.414 190.926C131.246 191.394 131 191.802 130.676 192.15C130.352 192.486 129.956 192.75 129.488 192.942C129.032 193.122 128.516 193.212 127.94 193.212H124.664V198H122.288ZM124.664 191.16H127.724C128.18 191.16 128.54 191.04 128.804 190.8C129.068 190.548 129.2 190.194 129.2 189.738V188.91C129.2 188.454 129.068 188.106 128.804 187.866C128.54 187.626 128.18 187.506 127.724 187.506H124.664V191.16ZM149.485 187.542V198H147.109V187.542H143.545V185.436H153.049V187.542H149.485ZM162.727 198.216C161.899 198.216 161.149 198.078 160.477 197.802C159.805 197.526 159.229 197.112 158.749 196.56C158.281 196.008 157.915 195.33 157.651 194.526C157.387 193.722 157.255 192.786 157.255 191.718C157.255 190.662 157.387 189.732 157.651 188.928C157.915 188.112 158.281 187.428 158.749 186.876C159.229 186.324 159.805 185.91 160.477 185.634C161.149 185.358 161.899 185.22 162.727 185.22C163.555 185.22 164.305 185.358 164.977 185.634C165.649 185.91 166.225 186.324 166.705 186.876C167.185 187.428 167.551 188.112 167.803 188.928C168.067 189.732 168.199 190.662 168.199 191.718C168.199 192.786 168.067 193.722 167.803 194.526C167.551 195.33 167.185 196.008 166.705 196.56C166.225 197.112 165.649 197.526 164.977 197.802C164.305 198.078 163.555 198.216 162.727 198.216ZM162.727 196.11C163.627 196.11 164.341 195.81 164.869 195.21C165.409 194.61 165.679 193.77 165.679 192.69V190.746C165.679 189.666 165.409 188.826 164.869 188.226C164.341 187.626 163.627 187.326 162.727 187.326C161.827 187.326 161.107 187.626 160.567 188.226C160.039 188.826 159.775 189.666 159.775 190.746V192.69C159.775 193.77 160.039 194.61 160.567 195.21C161.107 195.81 161.827 196.11 162.727 196.11ZM6.408 310.216C5.58 310.216 4.83 310.078 4.158 309.802C3.486 309.526 2.91 309.112 2.43 308.56C1.962 308.008 1.596 307.33 1.332 306.526C1.068 305.722 0.936 304.786 0.936 303.718C0.936 302.662 1.068 301.732 1.332 300.928C1.596 300.112 1.962 299.428 2.43 298.876C2.91 298.324 3.486 297.91 4.158 297.634C4.83 297.358 5.58 297.22 6.408 297.22C7.236 297.22 7.986 297.358 8.658 297.634C9.33 297.91 9.906 298.324 10.386 298.876C10.866 299.428 11.232 300.112 11.484 300.928C11.748 301.732 11.88 302.662 11.88 303.718C11.88 304.786 11.748 305.722 11.484 306.526C11.232 307.33 10.866 308.008 10.386 308.56C9.906 309.112 9.33 309.526 8.658 309.802C7.986 310.078 7.236 310.216 6.408 310.216ZM6.408 308.11C7.308 308.11 8.022 307.81 8.55 307.21C9.09 306.61 9.36 305.77 9.36 304.69V302.746C9.36 301.666 9.09 300.826 8.55 300.226C8.022 299.626 7.308 299.326 6.408 299.326C5.508 299.326 4.788 299.626 4.248 300.226C3.72 300.826 3.456 301.666 3.456 302.746V304.69C3.456 305.77 3.72 306.61 4.248 307.21C4.788 307.81 5.508 308.11 6.408 308.11ZM17.5305 310V297.436H25.6125V299.542H19.9065V302.584H24.8745V304.69H19.9065V310H17.5305ZM46.429 310L45.421 306.796H40.957L39.967 310H37.555L41.767 297.436H44.719L48.895 310H46.429ZM43.225 299.596H43.135L41.533 304.762H44.845L43.225 299.596ZM53.9868 310V297.436H56.3628V307.894H61.3128V310H53.9868ZM66.6135 310V297.436H68.9895V307.894H73.9395V310H66.6135ZM86.7341 310V297.436H92.3861C92.9621 297.436 93.4781 297.532 93.9341 297.724C94.4021 297.904 94.7981 298.168 95.1221 298.516C95.4461 298.852 95.6921 299.26 95.8601 299.74C96.0281 300.22 96.1121 300.748 96.1121 301.324C96.1121 301.912 96.0281 302.446 95.8601 302.926C95.6921 303.394 95.4461 303.802 95.1221 304.15C94.7981 304.486 94.4021 304.75 93.9341 304.942C93.4781 305.122 92.9621 305.212 92.3861 305.212H89.1101V310H86.7341ZM89.1101 303.16H92.1701C92.6261 303.16 92.9861 303.04 93.2501 302.8C93.5141 302.548 93.6461 302.194 93.6461 301.738V300.91C93.6461 300.454 93.5141 300.106 93.2501 299.866C92.9861 299.626 92.6261 299.506 92.1701 299.506H89.1101V303.16ZM108.104 310L107.096 306.796H102.632L101.642 310H99.2296L103.442 297.436H106.394L110.57 310H108.104ZM104.9 299.596H104.81L103.208 304.762H106.52L104.9 299.596ZM117.472 310V305.068L113.17 297.436H115.834L118.732 302.746H118.768L121.594 297.436H124.186L119.866 305.05V310H117.472ZM138.565 300.982H138.493L137.521 302.98L134.947 307.732L132.373 302.98L131.401 300.982H131.329V310H129.079V297.436H131.761L134.983 303.574H135.055L138.241 297.436H140.815V310H138.565V300.982ZM147.014 310V297.436H155.294V299.542H149.39V302.584H154.61V304.69H149.39V307.894H155.294V310H147.014ZM164.647 303.556L163.351 300.946H163.297V310H161.047V297.436H163.657L167.437 303.88L168.733 306.49H168.787V297.436H171.037V310H168.427L164.647 303.556ZM182.157 299.542V310H179.781V299.542H176.217V297.436H185.721V299.542H182.157ZM194.601 310.216C193.521 310.216 192.603 310.024 191.847 309.64C191.103 309.256 190.461 308.752 189.921 308.128L191.523 306.58C191.955 307.084 192.435 307.468 192.963 307.732C193.503 307.996 194.097 308.128 194.745 308.128C195.477 308.128 196.029 307.972 196.401 307.66C196.773 307.336 196.959 306.904 196.959 306.364C196.959 305.944 196.839 305.602 196.599 305.338C196.359 305.074 195.909 304.882 195.249 304.762L194.061 304.582C191.553 304.186 190.299 302.968 190.299 300.928C190.299 300.364 190.401 299.854 190.605 299.398C190.821 298.942 191.127 298.552 191.523 298.228C191.919 297.904 192.393 297.658 192.945 297.49C193.509 297.31 194.145 297.22 194.853 297.22C195.801 297.22 196.629 297.376 197.337 297.688C198.045 298 198.651 298.462 199.155 299.074L197.535 300.604C197.223 300.22 196.845 299.908 196.401 299.668C195.957 299.428 195.399 299.308 194.727 299.308C194.043 299.308 193.527 299.44 193.179 299.704C192.843 299.956 192.675 300.316 192.675 300.784C192.675 301.264 192.813 301.618 193.089 301.846C193.365 302.074 193.809 302.242 194.421 302.35L195.591 302.566C196.863 302.794 197.799 303.202 198.399 303.79C199.011 304.366 199.317 305.176 199.317 306.22C199.317 306.82 199.209 307.366 198.993 307.858C198.789 308.338 198.483 308.758 198.075 309.118C197.679 309.466 197.187 309.736 196.599 309.928C196.023 310.12 195.357 310.216 194.601 310.216Z" fill="black"/>
<path d="M34.452 236.578H13.53L12.54 251.164H13.068C13.508 250.064 13.992 249.074 14.52 248.194C15.092 247.27 15.752 246.5 16.5 245.884C17.248 245.224 18.15 244.718 19.206 244.366C20.262 244.014 21.516 243.838 22.968 243.838C24.948 243.838 26.796 244.168 28.512 244.828C30.228 245.488 31.724 246.456 33 247.732C34.276 248.964 35.288 250.504 36.036 252.352C36.784 254.156 37.158 256.202 37.158 258.49C37.158 260.822 36.762 263 35.97 265.024C35.222 267.004 34.078 268.72 32.538 270.172C31.042 271.624 29.194 272.768 26.994 273.604C24.794 274.396 22.286 274.792 19.47 274.792C17.226 274.792 15.246 274.55 13.53 274.066C11.814 273.582 10.296 272.944 8.976 272.152C7.656 271.316 6.512 270.37 5.544 269.314C4.576 268.258 3.74 267.136 3.036 265.948L10.23 260.272C11.242 262.076 12.452 263.616 13.86 264.892C15.268 266.124 17.16 266.74 19.536 266.74C21.912 266.74 23.694 266.058 24.882 264.694C26.114 263.33 26.73 261.526 26.73 259.282V258.754C26.73 256.642 26.114 254.97 24.882 253.738C23.65 252.506 21.956 251.89 19.8 251.89C17.996 251.89 16.5 252.264 15.312 253.012C14.168 253.716 13.288 254.42 12.672 255.124L4.554 254.002L6.27 227.932H34.452V236.578ZM59.3742 274.792C53.3462 274.792 48.8802 272.702 45.9762 268.522C43.0722 264.342 41.6202 258.49 41.6202 250.966C41.6202 243.442 43.0722 237.59 45.9762 233.41C48.8802 229.23 53.3462 227.14 59.3742 227.14C65.4022 227.14 69.8682 229.23 72.7722 233.41C75.6762 237.59 77.1282 243.442 77.1282 250.966C77.1282 258.49 75.6762 264.342 72.7722 268.522C69.8682 272.702 65.4022 274.792 59.3742 274.792ZM59.3742 266.41C62.0142 266.41 63.8402 265.442 64.8522 263.506C65.8642 261.57 66.3702 258.842 66.3702 255.322V246.61C66.3702 243.09 65.8642 240.362 64.8522 238.426C63.8402 236.49 62.0142 235.522 59.3742 235.522C56.7342 235.522 54.9082 236.49 53.8962 238.426C52.8842 240.362 52.3782 243.09 52.3782 246.61V255.322C52.3782 258.842 52.8842 261.57 53.8962 263.506C54.9082 265.442 56.7342 266.41 59.3742 266.41ZM90.9624 274L122.906 227.932H131.618L99.6744 274H90.9624ZM94.3284 253.276C90.4564 253.276 87.5084 252.176 85.4844 249.976C83.4604 247.776 82.4484 244.52 82.4484 240.208C82.4484 235.896 83.4604 232.64 85.4844 230.44C87.5084 228.24 90.4564 227.14 94.3284 227.14C98.2004 227.14 101.148 228.24 103.172 230.44C105.196 232.64 106.208 235.896 106.208 240.208C106.208 244.52 105.196 247.776 103.172 249.976C101.148 252.176 98.2004 253.276 94.3284 253.276ZM94.3284 247.6C95.4724 247.6 96.3304 247.16 96.9024 246.28C97.4744 245.356 97.7604 243.904 97.7604 241.924V238.492C97.7604 236.512 97.4744 235.082 96.9024 234.202C96.3304 233.278 95.4724 232.816 94.3284 232.816C93.1844 232.816 92.3264 233.278 91.7544 234.202C91.1824 235.082 90.8964 236.512 90.8964 238.492V241.924C90.8964 243.904 91.1824 245.356 91.7544 246.28C92.3264 247.16 93.1844 247.6 94.3284 247.6ZM128.252 274.792C124.38 274.792 121.432 273.692 119.408 271.492C117.384 269.292 116.372 266.036 116.372 261.724C116.372 257.412 117.384 254.156 119.408 251.956C121.432 249.756 124.38 248.656 128.252 248.656C132.124 248.656 135.072 249.756 137.096 251.956C139.12 254.156 140.132 257.412 140.132 261.724C140.132 266.036 139.12 269.292 137.096 271.492C135.072 273.692 132.124 274.792 128.252 274.792ZM128.252 269.116C129.396 269.116 130.254 268.676 130.826 267.796C131.398 266.872 131.684 265.42 131.684 263.44V260.008C131.684 258.028 131.398 256.598 130.826 255.718C130.254 254.794 129.396 254.332 128.252 254.332C127.108 254.332 126.25 254.794 125.678 255.718C125.106 256.598 124.82 258.028 124.82 260.008V263.44C124.82 265.42 125.106 266.872 125.678 267.796C126.25 268.676 127.108 269.116 128.252 269.116Z" fill="#13C8A4"/>
<path d="M176.779 37.596C176.779 37.0367 176.325 36.5833 175.766 36.5833H171.813C171.253 36.5833 170.8 37.0367 170.8 37.596V51.9937C170.8 52.553 171.253 53.0064 171.813 53.0064H175.766C176.325 53.0064 176.779 52.553 176.779 51.9937V37.596Z" fill="#13C8A4"/>
<path fill-rule="evenodd" clip-rule="evenodd" d="M173.789 52.6072C173.648 52.6072 173.535 52.7206 173.535 52.8604V54.1807C173.535 54.3205 173.648 54.4339 173.789 54.4339C173.929 54.4339 174.042 54.3205 174.042 54.1807V52.8604C174.042 52.7206 173.929 52.6072 173.789 52.6072Z" fill="#13C8A4"/>
<path fill-rule="evenodd" clip-rule="evenodd" d="M173.789 11.3807C173.648 11.3807 173.535 11.494 173.535 11.6339V36.7292C173.535 36.869 173.648 36.9824 173.789 36.9824C173.929 36.9824 174.042 36.869 174.042 36.7292V11.6339C174.042 11.494 173.929 11.3807 173.789 11.3807Z" fill="#13C8A4"/>
<path d="M180.545 62.1423C180.545 62.7016 180.999 63.155 181.558 63.155L185.511 63.155C186.071 63.155 186.524 62.7016 186.524 62.1423L186.524 43.8803C186.524 43.321 186.071 42.8676 185.511 42.8676L181.558 42.8676C180.999 42.8676 180.545 43.321 180.545 43.8803L180.545 62.1423Z" fill="#13C8A4"/>
<path fill-rule="evenodd" clip-rule="evenodd" d="M183.535 43.3016C183.676 43.3016 183.789 43.1882 183.789 43.0484L183.789 29.5305C183.789 29.3907 183.676 29.2773 183.535 29.2773C183.395 29.2773 183.282 29.3907 183.282 29.5305L183.282 43.0484C183.282 43.1882 183.395 43.3016 183.535 43.3016Z" fill="#13C8A4"/>
<path fill-rule="evenodd" clip-rule="evenodd" d="M183.535 146.158C183.676 146.158 183.789 146.045 183.789 145.905L183.789 62.9739C183.789 62.8341 183.676 62.7207 183.536 62.7207C183.395 62.7207 183.282 62.8341 183.282 62.9739L183.282 145.905C183.282 146.045 183.395 146.158 183.535 146.158Z" fill="#13C8A4"/>
<path d="M258.505 94.5449C258.505 95.1042 258.959 95.5577 259.519 95.5577L263.471 95.5577C264.031 95.5577 264.485 95.1042 264.485 94.5449L264.485 59.1068C264.485 58.5475 264.031 58.0941 263.471 58.0941L259.519 58.0941C258.959 58.0941 258.505 58.5475 258.505 59.1068L258.505 94.5449Z" fill="#13C8A4"/>
<path fill-rule="evenodd" clip-rule="evenodd" d="M261.495 58.683C261.635 58.683 261.749 58.5697 261.749 58.4298L261.749 33.467C261.749 33.3272 261.635 33.2139 261.495 33.2139C261.355 33.2139 261.242 33.3272 261.242 33.467L261.242 58.4298C261.242 58.5697 261.355 58.683 261.495 58.683Z" fill="#13C8A4"/>
<path fill-rule="evenodd" clip-rule="evenodd" d="M261.496 145.365C261.636 145.365 261.749 145.251 261.749 145.111L261.749 75.8088C261.749 75.669 261.636 75.5556 261.496 75.5556C261.356 75.5556 261.242 75.669 261.242 75.8088L261.242 145.111C261.242 145.251 261.356 145.365 261.496 145.365Z" fill="#13C8A4"/>
<path d="M167.035 20.7419C167.035 20.1825 166.581 19.7291 166.021 19.7291H162.069C161.509 19.7291 161.055 20.1825 161.055 20.7419V119.45C161.055 120.009 161.509 120.462 162.069 120.462H166.021C166.581 120.462 167.035 120.009 167.035 119.45V20.7419Z" fill="#13C8A4"/>
<path fill-rule="evenodd" clip-rule="evenodd" d="M164.044 119.311C163.904 119.311 163.79 119.424 163.79 119.564V127.658C163.79 127.798 163.904 127.911 164.044 127.911C164.184 127.911 164.297 127.798 164.297 127.658V119.564C164.297 119.424 164.184 119.311 164.044 119.311Z" fill="#13C8A4"/>
<path fill-rule="evenodd" clip-rule="evenodd" d="M163.83 0.00264954C163.97 0.00114647 164.085 0.113272 164.086 0.253089L164.297 20.0387C164.298 20.1785 164.186 20.2931 164.046 20.2946C163.906 20.2961 163.791 20.1839 163.79 20.0441L163.579 0.258533C163.577 0.118715 163.69 0.00415261 163.83 0.00264954Z" fill="#13C8A4"/>
<path d="M157.141 21.6306C157.141 21.0713 156.688 20.6179 156.128 20.6179H152.175C151.616 20.6179 151.162 21.0713 151.162 21.6306V40.5801C151.162 41.1394 151.616 41.5928 152.175 41.5928H156.128C156.688 41.5928 157.141 41.1394 157.141 40.5801V21.6306Z" fill="#13C8A4"/>
<path fill-rule="evenodd" clip-rule="evenodd" d="M154.151 40.8913C154.011 40.8913 153.897 41.0047 153.897 41.1445V55.808C153.897 55.9478 154.011 56.0612 154.151 56.0612C154.291 56.0612 154.405 55.9478 154.405 55.808V41.1445C154.405 41.0047 154.291 40.8913 154.151 40.8913Z" fill="#13C8A4"/>
<path fill-rule="evenodd" clip-rule="evenodd" d="M154.151 15.6686C154.011 15.6686 153.897 15.7819 153.897 15.9217L153.897 23.3549C153.897 23.4947 154.011 23.6081 154.151 23.6081C154.291 23.6081 154.405 23.4947 154.405 23.3549L154.405 15.9217C154.405 15.7819 154.291 15.6686 154.151 15.6686Z" fill="#13C8A4"/>
<path d="M215.759 27.0236C215.759 26.4643 215.306 26.0109 214.746 26.0109H210.793C210.234 26.0109 209.78 26.4643 209.78 27.0236V45.9731C209.78 46.5324 210.234 46.9858 210.793 46.9858H214.746C215.306 46.9858 215.759 46.5324 215.759 45.9731V27.0236Z" fill="#13C8A4"/>
<path fill-rule="evenodd" clip-rule="evenodd" d="M212.769 46.2842C212.629 46.2842 212.515 46.3975 212.515 46.5374V74.3346C212.515 74.4744 212.629 74.5878 212.769 74.5878C212.909 74.5878 213.022 74.4744 213.022 74.3346V46.5374C213.022 46.3975 212.909 46.2842 212.769 46.2842Z" fill="#13C8A4"/>
<path fill-rule="evenodd" clip-rule="evenodd" d="M212.769 15.9389C212.629 15.9389 212.515 16.0523 212.515 16.1921L212.515 28.7477C212.515 28.8875 212.629 29.0009 212.769 29.0009C212.909 29.0009 213.022 28.8875 213.022 28.7477L213.022 16.1921C213.022 16.0523 212.909 15.9389 212.769 15.9389Z" fill="#13C8A4"/>
<path d="M235.25 35.2598C235.25 34.7004 234.796 34.247 234.236 34.247H230.284C229.724 34.247 229.27 34.7004 229.27 35.2598V59.3558C229.27 59.9151 229.724 60.3686 230.284 60.3686H234.236C234.796 60.3686 235.25 59.9151 235.25 59.3558V35.2598Z" fill="#13C8A4"/>
<path fill-rule="evenodd" clip-rule="evenodd" d="M232.259 59.5563C232.119 59.5563 232.005 59.6697 232.005 59.8095V74.3337C232.005 74.4735 232.119 74.5869 232.259 74.5869C232.399 74.5869 232.513 74.4735 232.513 74.3337V59.8095C232.513 59.6697 232.399 59.5563 232.259 59.5563Z" fill="#13C8A4"/>
<path fill-rule="evenodd" clip-rule="evenodd" d="M232.259 21.7678C232.119 21.7678 232.005 21.8811 232.005 22.021L232.005 37.6566C232.005 37.7965 232.119 37.9098 232.259 37.9098C232.399 37.9098 232.513 37.7965 232.513 37.6566L232.513 22.021C232.513 21.8811 232.399 21.7678 232.259 21.7678Z" fill="#13C8A4"/>
<path d="M244.995 44.8002C244.995 44.2409 244.541 43.7875 243.981 43.7875H240.029C239.469 43.7875 239.015 44.2409 239.015 44.8002V61.4148C239.015 61.9741 239.469 62.4275 240.029 62.4275H243.981C244.541 62.4275 244.995 61.9741 244.995 61.4148V44.8002Z" fill="#EE7D8B"/>
<path fill-rule="evenodd" clip-rule="evenodd" d="M242.004 55.3283C241.864 55.3283 241.75 55.4416 241.75 55.5814V64.7537C241.75 64.8935 241.864 65.0068 242.004 65.0068C242.144 65.0068 242.257 64.8935 242.257 64.7537V55.5814C242.257 55.4416 242.144 55.3283 242.004 55.3283Z" fill="#EE7D8B"/>
<path fill-rule="evenodd" clip-rule="evenodd" d="M242.004 33.2139C241.864 33.2139 241.75 33.3272 241.75 33.4671L241.75 45.3603C241.75 45.5001 241.864 45.6134 242.004 45.6134C242.144 45.6134 242.257 45.5001 242.257 45.3603L242.257 33.4671C242.257 33.3272 242.144 33.2139 242.004 33.2139Z" fill="#EE7D8B"/>
<path d="M254.74 62.1846C254.74 61.6253 254.286 61.1719 253.726 61.1719H249.774C249.214 61.1719 248.76 61.6253 248.76 62.1846V66.4693C248.76 67.0286 249.214 67.482 249.774 67.482H253.726C254.286 67.482 254.74 67.0286 254.74 66.4693V62.1846Z" fill="#EE7D8B"/>
<path fill-rule="evenodd" clip-rule="evenodd" d="M251.749 64.911C251.609 64.911 251.495 65.0244 251.495 65.1642V76.4744C251.495 76.6142 251.609 76.7276 251.749 76.7276C251.889 76.7276 252.002 76.6142 252.002 76.4744V65.1642C252.002 65.0244 251.889 64.911 251.749 64.911Z" fill="#EE7D8B"/>
<path fill-rule="evenodd" clip-rule="evenodd" d="M251.749 57.4252C251.609 57.4252 251.495 57.5385 251.495 57.6783L251.495 61.7045C251.495 61.8443 251.609 61.9576 251.749 61.9576C251.889 61.9576 252.002 61.8443 252.002 61.7045L252.002 57.6783C252.002 57.5385 251.889 57.4252 251.749 57.4252Z" fill="#EE7D8B"/>
<path d="M190.29 79.9551C190.29 80.5145 190.744 80.9679 191.304 80.9679L195.256 80.9679C195.816 80.9679 196.27 80.5145 196.27 79.9551L196.27 49.5373C196.27 48.978 195.816 48.5246 195.256 48.5246L191.304 48.5246C190.744 48.5246 190.29 48.978 190.29 49.5373L190.29 79.9551Z" fill="#EE7D8B"/>
<path fill-rule="evenodd" clip-rule="evenodd" d="M193.281 60.6946C193.421 60.6946 193.535 60.5813 193.535 60.4415L193.535 44.4778C193.535 44.3379 193.421 44.2246 193.281 44.2246C193.141 44.2246 193.027 44.3379 193.027 44.4778L193.027 60.4415C193.027 60.5813 193.141 60.6946 193.281 60.6946Z" fill="#EE7D8B"/>
<path fill-rule="evenodd" clip-rule="evenodd" d="M193.281 113.488C193.421 113.488 193.535 113.374 193.535 113.235L193.535 78.2299C193.535 78.0901 193.421 77.9767 193.281 77.9767C193.141 77.9767 193.027 78.0901 193.027 78.2299L193.027 113.235C193.027 113.374 193.141 113.488 193.281 113.488Z" fill="#EE7D8B"/>
<path d="M219.524 53.1509C219.524 53.7102 219.978 54.1636 220.538 54.1636L224.49 54.1636C225.05 54.1636 225.504 53.7102 225.504 53.1509L225.504 38.6101C225.504 38.0508 225.05 37.5974 224.49 37.5974L220.538 37.5974C219.978 37.5974 219.524 38.0508 219.524 38.6101L219.524 53.1509Z" fill="#EE7D8B"/>
<path fill-rule="evenodd" clip-rule="evenodd" d="M222.515 43.9343C222.655 43.9343 222.769 43.8209 222.769 43.6811L222.769 35.5293C222.769 35.3895 222.655 35.2761 222.515 35.2761C222.375 35.2761 222.261 35.3895 222.261 35.5293L222.261 43.6811C222.261 43.8209 222.375 43.9343 222.515 43.9343Z" fill="#EE7D8B"/>
<path fill-rule="evenodd" clip-rule="evenodd" d="M222.515 70.8926C222.655 70.8926 222.768 70.7792 222.768 70.6394L222.768 52.7653C222.768 52.6254 222.655 52.5121 222.515 52.5121C222.375 52.5121 222.261 52.6254 222.261 52.7653L222.261 70.6394C222.261 70.7792 222.375 70.8926 222.515 70.8926Z" fill="#EE7D8B"/>
<path d="M200.035 135.092C200.035 135.652 200.489 136.105 201.048 136.105L205.001 136.105C205.561 136.105 206.014 135.652 206.014 135.092L206.014 40.3426C206.014 39.7832 205.561 39.3298 205.001 39.3298L201.048 39.3298C200.489 39.3298 200.035 39.7832 200.035 40.3426L200.035 135.092Z" fill="#13C8A4"/>
<path fill-rule="evenodd" clip-rule="evenodd" d="M203.026 54.433C203.166 54.433 203.279 54.3197 203.279 54.1798L203.279 22.8602C203.279 22.7203 203.166 22.607 203.026 22.607C202.886 22.607 202.772 22.7203 202.772 22.8602L202.772 54.1798C202.772 54.3197 202.886 54.433 203.026 54.433Z" fill="#13C8A4"/>
<path fill-rule="evenodd" clip-rule="evenodd" d="M203.026 155.46C203.166 155.46 203.279 155.346 203.279 155.207L203.279 134.507C203.279 134.367 203.166 134.254 203.026 134.254C202.886 134.254 202.772 134.367 202.772 134.507L202.772 155.207C202.772 155.346 202.886 155.46 203.026 155.46Z" fill="#13C8A4"/>
<path d="M218.287 297.949C218.595 304.152 217.655 308.661 216.197 312.152C216.077 312.487 215.934 312.718 215.815 313.053C215.481 313.734 215.123 314.311 214.766 314.887C214.551 315.232 214.408 315.463 214.171 315.704C212.171 318.5 209.749 320.266 207.636 321.677C202.294 325.156 203.617 332.432 203.617 332.432L250.362 327.068C247.883 318.519 244.274 302.242 244.274 302.242C233.814 300.145 228.633 298.661 218.287 297.949Z" fill="#EE7D8B"/>
<path d="M215.908 312.401C215.788 312.739 215.644 312.972 215.523 313.31C217.641 314.057 219.781 314.909 221.898 315.656C222.54 315.911 222.806 314.906 222.188 314.756C220.047 313.904 218.025 313.147 215.908 312.401Z" fill="white"/>
<path d="M214.181 315.026C213.965 315.376 213.821 315.608 213.581 315.852C215.938 316.79 218.366 317.613 220.722 318.551C221.365 318.807 221.631 317.801 221.012 317.651C218.751 316.702 216.418 315.869 214.181 315.026Z" fill="white"/>
<path d="M288.47 283.299C293.417 286.571 296.657 290.029 298.864 293.394C299.02 293.687 299.266 293.969 299.422 294.261C299.845 294.936 300.179 295.621 300.513 296.306C300.669 296.598 300.847 296.99 301.002 297.283C302.491 300.727 303.128 304.058 303.542 306.795C304.589 313.688 310.66 316.63 310.66 316.63L321.505 270.305C314.25 266.153 307.331 262.273 301.403 257.46C296.337 265.846 292.328 274.014 288.47 283.299Z" fill="#EE7D8B"/>
<path d="M198.92 191.359C198.92 191.359 208.582 185.136 217.165 182.858C214.712 174.229 213.264 168.49 213.264 168.49L242.338 167.501C249.747 186.866 257.301 215.318 275.868 239.056C284.263 249.832 296.401 257.822 309.237 266.874C305.329 276.505 298.514 289.349 294.516 298.99C292.107 296.045 263.269 283.768 241.725 246.493C248.906 277.469 256.877 309.083 256.877 309.083L223.958 310.283C223.958 310.283 205.105 245.2 198.92 191.359Z" fill="white"/>
<path d="M257.788 309.714L257.61 308.905C257.543 308.602 250.284 279.803 243.366 250.45C260.361 277.984 281.013 290.947 289.951 296.596C291.892 297.834 293.607 298.888 293.99 299.364L294.756 300.316L295.19 299.337C297.064 294.788 299.688 289.434 302.175 284.301C304.96 278.412 307.903 272.402 310.006 267.207L310.235 266.562L309.671 266.106C308.362 265.214 307.031 264.22 305.723 263.328C294.531 255.44 283.994 247.999 276.52 238.466C261.55 219.299 253.788 197.072 247.435 179.141C245.936 174.855 244.482 170.772 243.117 167.092L242.893 166.496L212.521 167.521L212.699 168.33C212.721 168.431 214.102 173.867 216.445 181.992C207.972 184.362 198.716 190.334 198.647 190.445L198.33 190.686L198.328 191.1C204.47 244.333 223.235 309.435 223.391 310.142L223.546 310.85L257.788 309.714ZM240.073 242.221L241.119 246.556C247.613 274.404 254.76 303.111 256.096 308.346L224.548 309.499C222.562 302.577 205.633 242.034 199.796 191.872C201.588 190.746 210.004 185.589 217.547 183.631L218.159 183.461L217.913 182.764C215.994 176.144 214.702 171.112 214.211 169.303L242.003 168.351C243.346 171.93 244.643 175.72 246.097 179.804C252.473 197.836 260.279 220.265 275.384 239.624C282.993 249.349 293.643 256.882 304.947 264.861C306.052 265.672 307.158 266.482 308.332 267.183C306.275 272.165 303.468 277.953 300.798 283.52C298.447 288.431 296.028 293.453 294.11 297.799C293.342 297.262 292.146 296.461 290.431 295.406C281.177 289.584 259.329 275.82 242.139 246.135L240.073 242.221Z" fill="#EE7D8B"/>
<path d="M297.77 293.61C297.932 293.91 298.187 294.199 298.349 294.499C299.73 292.978 300.994 291.363 302.374 289.843C302.749 289.38 302.076 288.502 301.701 288.964C300.437 290.578 299.15 292.089 297.77 293.61Z" fill="white"/>
<path d="M299.352 296.352C299.515 296.651 299.7 297.054 299.862 297.353C301.383 295.606 302.928 293.961 304.356 292.224C304.73 291.761 304.057 290.882 303.683 291.345C302.255 293.083 300.803 294.717 299.352 296.352Z" fill="white"/>
<path d="M236.776 243.653C236.864 243.644 236.951 243.634 237.017 243.524C237.347 243.385 237.415 242.867 237.155 242.488C226.997 224.75 220.096 203.787 220.054 203.588L219.838 202.999L219.313 203.058C219.225 203.068 214.344 203.311 210.89 202.679C210.518 202.619 210.211 202.858 210.208 203.266C210.206 203.675 210.466 204.054 210.838 204.114C213.723 204.606 217.575 204.581 218.998 204.523C220.224 208.161 226.764 227.021 236.035 243.124C236.208 243.513 236.513 243.683 236.776 243.653Z" fill="#EE7D8B"/>
<path d="M117.664 111.958L116.844 111.214C116.025 110.471 116.21 109.618 116.785 108.828C118.693 105.606 121.05 104.415 124.406 105.197C125.744 101.515 134.265 107.876 139.798 113C141.46 114.589 143.829 116.413 146.403 118.319C145.581 124.337 145.17 130.519 144.44 136.527C144.368 137.471 144.204 138.424 144.018 139.277C142.039 137.098 140.013 135.132 137.963 133.482C136.368 132.197 135.14 130.874 134.025 129.642C131.016 127.887 126.736 123.772 126.736 123.772C126.115 124.775 124.609 124.314 120.986 121.897C117.362 119.48 118.172 116.792 118.172 116.792C115.964 114.43 117.664 111.958 117.664 111.958Z" fill="white"/>
<path d="M144.51 140.751L144.697 139.483C144.861 138.529 144.933 137.586 145.119 136.734C145.495 133.781 145.757 130.737 146.065 127.896C146.327 124.852 146.659 121.696 147.104 118.632L147.175 118.105L146.742 117.84C144.191 116.035 141.914 114.201 140.139 112.521C137.658 110.189 129.213 102.886 125.42 103.504C124.78 103.573 124.299 103.937 123.955 104.494C120.645 103.915 118.106 105.125 116.13 108.459C115.785 109.016 114.82 110.576 116.436 111.961L116.778 112.236C116.294 113.433 115.967 115.34 117.582 117.141C117.394 118.409 118.002 120.736 120.781 122.723C123.651 124.701 125.771 125.824 126.893 124.975C128.076 126.095 131.217 128.876 133.701 130.375C134.838 131.709 136.157 133.022 137.637 134.214C139.459 135.681 141.256 137.463 143.577 139.916L144.51 140.751ZM145.688 118.577C145.312 121.53 145.027 124.472 144.742 127.415C144.457 130.358 144.172 133.3 143.796 136.253C143.725 136.78 143.632 137.206 143.562 137.734C141.606 135.657 139.967 134.17 138.373 132.887C136.893 131.694 135.687 130.473 134.55 129.14L134.437 129.048L134.323 128.956C131.429 127.293 127.265 123.271 127.173 123.281L126.581 122.721L126.168 123.39C125.961 123.724 125.184 124.016 121.311 121.314C118.327 119.245 118.928 117.308 118.906 117.206L119.068 116.669L118.704 116.292C116.929 114.612 118.169 112.606 118.238 112.495L118.583 111.937L117.194 110.736C116.967 110.552 116.739 110.369 117.359 109.366C119.22 106.357 121.325 105.298 124.291 106.017L124.793 106.171L124.955 105.634C125.048 105.208 125.391 105.067 125.734 104.926C128.088 104.567 134.214 109.001 139.244 113.554C141.066 115.021 143.229 116.763 145.688 118.577Z" fill="#EE7D8B"/>
<path d="M138.007 110.741C137.899 110.193 137.692 109.657 137.312 109.255L143.002 108.555C143.394 108.506 143.852 108.787 143.96 109.335C144.068 109.883 143.839 110.248 143.348 110.308L138.007 110.741Z" fill="#13C8A4"/>
<path d="M112.094 112.864L128.139 110.718C128.37 111.42 128.679 111.989 129.262 112.399L112.523 114.637C112.127 114.69 111.665 114.386 111.555 113.79C111.445 113.195 111.698 112.917 112.094 112.864Z" fill="#13C8A4"/>
<path d="M144.704 112.702C151.12 117.675 161.409 127.039 169.79 129.557C180.241 132.707 191.968 108.154 204.151 108.233L206.215 131.41C206.215 131.41 201.3 155.337 183.816 161.811C166.332 168.285 139.515 134.522 139.397 134.428C140.409 128.122 141.295 117.342 144.704 112.702Z" fill="#13C8A4"/>
<path d="M180.795 163.41C181.926 163.289 183.033 163.063 184.095 162.629C201.639 156.046 206.81 132.003 206.858 131.785L206.906 131.566L204.753 107.564L203.976 107.54C197.806 107.563 191.874 113.432 186.179 119.061C180.341 124.92 174.788 130.321 169.824 128.826C163.214 126.868 155.418 120.446 149.077 115.363C147.645 114.129 146.259 113.103 144.967 112.068L144.38 111.597L144.002 112.065C141.186 115.891 140.099 123.587 139.159 129.773C138.918 131.294 138.748 132.7 138.555 134.002L138.483 134.543L138.952 134.92C143.455 140.414 164.681 165.142 180.795 163.41ZM205.4 131.301C205.017 133.05 199.759 154.967 183.464 161.095C168.137 166.799 144.916 140.044 140.156 134.257C140.372 133.059 140.565 131.757 140.735 130.351C141.579 124.602 142.499 117.458 144.961 113.777C146.018 114.624 147.192 115.565 148.367 116.507C154.73 121.694 162.738 128.2 169.655 130.232C175.442 131.959 181.208 126.215 187.282 120.117C192.505 114.965 197.869 109.584 203.241 109.007C203.335 108.997 203.335 108.997 203.429 108.987L205.4 131.301Z" fill="#13C8A4"/>
<path d="M125.844 107.15C127.112 109.438 128.705 111.181 130.771 112.667C130.984 112.845 131.046 113.142 130.916 113.36C129.526 115.956 130.379 119.205 132.892 121.146C133.403 121.493 132.948 122.256 132.436 121.909C130.243 120.235 128.872 117.452 129.343 114.658C129.408 114.549 129.846 113.281 129.76 113.291C129.55 112.707 128.335 111.934 127.889 111.478C126.763 110.29 125.788 108.982 125.028 107.447C124.733 106.872 125.463 106.585 125.844 107.15Z" fill="#EE7D8B"/>
<path d="M124.567 113.653C126.963 114.403 127.97 117.45 126.387 119.26C126.035 119.707 125.407 118.861 125.759 118.413C126.858 117.269 126.129 115.108 124.517 114.679C124.016 114.429 124 113.513 124.567 113.653Z" fill="#EE7D8B"/>
<path d="M120.236 116.33C122.22 117.26 127.489 119.916 126.381 122.949C126.128 123.496 125.284 123.067 125.446 122.53C126.185 120.369 121.349 117.978 119.889 117.304C119.342 116.947 119.62 116.085 120.236 116.33Z" fill="#EE7D8B"/>
<path d="M215.769 104.905L218.411 109.342L200.774 113.698L197.844 104.345L215.769 104.905Z" fill="#13C8A4"/>
<path d="M200.46 109.537C208.207 100.226 231.009 112.399 236.841 124.256C242.673 136.112 259.44 194.889 259.44 194.889L201.248 200.307C201.248 200.307 191.92 135.867 196.318 124.34C200.604 112.722 197.81 112.613 200.46 109.537Z" fill="#13C8A4"/>
<path d="M194.189 147.028C194.443 146.998 194.741 146.761 194.66 146.365C194.64 146.267 194.542 140.308 194.96 130.95C194.964 130.545 194.713 130.17 194.353 130.111C193.994 130.052 193.696 130.29 193.693 130.695C193.21 140.161 193.393 146.11 193.413 146.209C193.41 146.614 193.745 146.979 194.104 147.038L194.189 147.028Z" fill="white"/>
<path d="M187.23 166.25L191.898 165.739C194.77 165.424 196.532 162.553 195.829 159.334L194.444 152.996C193.741 149.777 190.836 147.417 187.964 147.732L183.296 148.243C182.937 148.282 182.644 148.623 182.754 149.126C182.864 149.629 183.199 149.902 183.648 149.853L188.315 149.341C190.469 149.105 192.614 150.93 193.12 153.244L194.504 159.582C195.032 161.996 193.654 164.104 191.59 164.33L186.923 164.842C186.564 164.881 186.271 165.222 186.381 165.725C186.49 166.228 186.871 166.289 187.23 166.25Z" fill="black"/>
<path d="M182.208 169.436C186.296 168.993 188.832 164.883 187.828 160.328L184.972 147.371L170.071 148.987L172.928 161.943C173.932 166.499 178.028 169.889 182.208 169.436Z" fill="white"/>
<path d="M182.369 170.155C186.827 169.672 189.572 165.225 188.478 160.262L185.439 146.485L169.153 148.249L172.192 162.026C173.287 166.99 177.82 170.647 182.369 170.155ZM184.409 148.152L187.113 160.409C188.029 164.563 185.764 168.231 182.034 168.635C178.304 169.039 174.564 166.022 173.648 161.868L170.944 149.611L184.409 148.152Z" fill="black"/>
<path d="M176.365 144.311C176.697 144.271 176.888 143.945 176.828 143.65L176.038 133.766C176.042 133.362 175.714 132.998 175.362 132.94C175.009 132.882 174.736 133.218 174.732 133.622L175.523 143.506C175.518 143.91 175.847 144.273 176.199 144.331C176.365 144.311 176.365 144.311 176.365 144.311Z" fill="white"/>
<path d="M181.412 144.231C181.681 144.201 181.838 144.081 181.952 143.76L183.071 139.209C183.163 138.787 182.985 138.394 182.582 138.233C182.18 138.071 181.843 138.211 181.751 138.633L180.632 143.184C180.54 143.606 180.718 143.998 181.12 144.16C181.12 144.16 181.232 144.251 181.412 144.231Z" fill="white"/>
<path d="M193.218 88.839C194.606 81.0455 201.196 76.6719 207.879 79.0951C214.561 81.5183 218.94 89.7391 217.552 97.5327C217.552 97.5327 217.552 97.5328 217.575 97.635C218.289 97.8724 218.934 98.2219 219.394 98.5913C223.077 101.128 223.362 105.39 220.726 107.14C218.414 108.645 214.768 108.827 211.893 106.1C209.211 107.644 206.003 108.094 202.891 107.277C193.256 104.752 191.83 96.6326 193.218 88.839Z" fill="white"/>
<path d="M217.905 108.913C219.105 108.784 220.237 108.348 221.139 107.728C222.526 106.741 223.224 105.2 223.092 103.33C222.914 101.255 221.629 99.2985 219.604 97.8408C219.167 97.5737 218.729 97.3066 218.199 97.0494C218.789 93.3213 218.088 89.313 216.277 85.8428C214.329 82.178 211.362 79.4603 207.975 78.2537C204.496 77.057 200.988 77.434 198.121 79.4175C195.253 81.4011 193.212 84.5522 192.484 88.5048C191.472 94.163 192.102 98.7025 194.19 102.143C195.956 104.99 198.856 106.982 202.659 107.934C205.771 108.751 209.002 108.404 211.798 106.952C213.869 108.614 216.059 109.112 217.905 108.913ZM203.289 79.2809C204.766 79.1222 206.219 79.2802 207.762 79.8472C210.827 80.879 213.448 83.3197 215.121 86.5953C216.794 89.8708 217.45 93.6746 216.838 97.3005L216.697 97.9438L217.342 98.2934C217.964 98.5407 218.608 98.8902 219.046 99.1573C220.611 100.246 221.598 101.71 221.661 103.274C221.772 104.623 221.261 105.725 220.267 106.356C218.301 107.719 214.955 107.974 212.219 105.441L211.851 105.061L211.435 105.315C208.938 106.84 205.914 107.27 202.895 106.443C199.484 105.553 196.929 103.838 195.346 101.39C193.442 98.3491 192.902 94.2188 193.82 88.9894C194.432 85.3635 196.242 82.4466 198.878 80.6974C200.311 79.9151 201.812 79.4397 203.289 79.2809Z" fill="#EE7D8B"/>
<path d="M202.952 93.6176C202.441 93.6558 201.937 93.2264 201.827 92.6585C201.717 92.0905 202.042 91.5991 202.554 91.5609C203.066 91.5227 203.57 91.9521 203.68 92.52C203.79 93.088 203.464 93.5794 202.952 93.6176Z" fill="black"/>
<path d="M194.895 94.6783C195.566 92.6267 196.466 90.7588 197.686 89.0647C198.054 88.6084 198.853 89.2514 198.485 89.7077C197.334 91.2902 196.435 93.1581 195.741 95.1079C195.578 95.6462 194.733 95.2166 194.895 94.6783Z" fill="black"/>
<path d="M201.717 82.0039C204.267 84.2244 215.44 88.6332 212.906 94.5224C212.306 96.043 211.322 96.6693 212.642 97.9827C214.099 99.0731 214.859 97.4312 214.859 97.4312C216.799 97.7417 218.862 98.6647 220.091 99.5718C223.902 94.3767 222.704 88.0567 220.084 86.3638C220.084 86.3638 202.777 67.3308 198.027 73.3553C193.896 78.793 201.717 82.0039 201.717 82.0039Z" fill="#EE7D8B"/>
<path d="M213.257 100.395C215.043 99.094 217.686 99.4648 219.552 101.246C220.054 101.742 219.545 102.571 219.043 102.074C217.536 100.585 215.47 100.151 213.949 101.312C213.442 101.699 212.846 100.771 213.257 100.395Z" fill="black"/>
<path d="M190.215 157.204C190.215 157.204 186.626 151.477 189.263 150.777C196.856 148.917 207.678 157.487 216.411 160.376C217.549 165.539 218.323 170.741 219.28 175.924C219.881 179.073 220.46 182.12 221.151 185.258C214.026 183.75 207.725 180.494 205.058 177.259C202.73 174.298 199.687 174.421 197.922 172.746C195.485 174.358 189.837 166.885 192.302 163.716C192.211 163.725 187.997 161.073 190.215 157.204Z" fill="white"/>
<path d="M221.912 186.211L221.443 184.085C220.863 181.453 220.329 178.608 219.817 175.864C219.529 174.133 219.24 172.402 218.974 170.772C218.397 167.31 217.82 163.848 217.039 160.304L216.927 159.798L216.428 159.645C213.502 158.614 210.373 157.087 207.109 155.368C200.716 152.121 194.187 148.682 188.89 149.982C188.185 150.162 187.729 150.626 187.59 151.263C187.129 152.972 188.617 155.921 189.339 157.087C188.766 158.289 188.648 159.442 189.007 160.647C189.433 162.156 190.496 163.181 191.198 163.831C190.168 165.912 191.405 168.992 193.169 171.081C194.728 173.089 196.497 173.934 197.815 173.584C198.586 174.123 199.424 174.55 200.332 174.866C201.761 175.437 203.212 176.109 204.478 177.631C207.303 181.16 213.787 184.397 221.027 185.996L221.912 186.211ZM215.787 160.958C216.501 164.198 217.056 167.559 217.588 170.819C217.877 172.55 218.165 174.281 218.454 176.012C218.965 178.756 219.477 181.499 220.08 184.233L220.102 184.334C213.725 182.848 207.854 179.856 205.412 176.804C203.875 174.897 202.129 174.153 200.587 173.491C199.657 173.073 198.75 172.757 198.162 172.199L197.709 171.833L197.299 172.085C196.639 172.468 195.278 171.786 194.103 170.254C192.566 168.348 191.6 165.653 192.695 164.291L193.198 163.614L192.428 163.076C192.428 163.076 190.796 162.008 190.348 160.398C190.057 159.497 190.219 158.546 190.768 157.657L190.951 157.223L190.68 156.838C189.8 155.378 188.628 153.017 188.95 151.945C188.997 151.733 189.065 151.622 189.406 151.481C194.181 150.342 200.483 153.598 206.649 156.662C209.71 158.3 212.86 159.928 215.787 160.958Z" fill="#EE7D8B"/>
<path d="M217.478 167.738C217.604 164.525 217.55 161.331 217.496 158.137C221.902 160.134 226.019 161.233 229.157 159.549C237.825 154.887 237.099 135.15 224.095 126.764C211.09 118.378 207.249 105.483 207.249 105.483C224.641 104.411 243.765 114.193 256.551 136.743C271.036 162.41 262.729 177.147 254.845 182.858C245.741 189.321 225.578 185.329 216.632 181.145C216.966 176.773 217.278 172.301 217.478 167.738Z" fill="#13C8A4"/>
<path d="M190.309 157.058C193.41 154.491 197.401 156.492 200.814 158.558C201.39 158.938 201.096 159.859 200.543 159.588C197.467 157.707 193.765 155.674 191.003 157.981C190.471 158.262 189.801 157.448 190.309 157.058Z" fill="#EE7D8B"/>
<path d="M192.236 163.073C194.832 161.91 197.731 162.58 200.118 164.953C200.619 165.447 200.111 166.271 199.61 165.777C197.582 163.694 195.09 163.089 192.759 164.113C192.111 164.294 191.707 163.35 192.236 163.073Z" fill="#EE7D8B"/>
<path d="M195.771 169.957C196.271 170.527 196.771 171.096 197.249 171.565C197.727 172.033 197.017 172.629 196.539 172.161C196.039 171.591 195.539 171.022 195.061 170.553C194.652 169.974 195.362 169.377 195.771 169.957Z" fill="#EE7D8B"/>
<path d="M225.655 161.275C227.741 161.049 230.261 160.257 232.739 158.435C235.376 156.492 236.906 153.737 237.1 150.402C237.438 145.188 234.79 138.641 229.221 131.065C228.95 130.681 228.565 130.619 228.247 130.861C227.929 131.102 227.927 131.517 228.198 131.901C233.383 139.001 235.987 145.346 235.719 150.035C235.526 152.955 234.202 155.377 231.883 157.078C225.881 161.458 220.065 159.086 219.974 159.096C219.567 158.933 219.249 159.175 219.134 159.498C219.042 159.922 219.221 160.317 219.629 160.48C219.764 160.672 222.208 161.649 225.655 161.275Z" fill="white"/>
<path d="M239.529 186.099C244.858 185.423 249.776 184.193 253.425 182.154C253.797 181.986 253.879 181.369 253.712 181.027C253.544 180.684 252.982 180.391 252.709 180.547C242.134 186.496 218.853 185.326 212.305 183.367C211.864 183.18 211.515 183.467 211.41 183.966C211.403 184.451 211.594 184.912 212.035 185.099C216.767 186.56 228.773 187.463 239.529 186.099Z" fill="white"/>
<path fill-rule="evenodd" clip-rule="evenodd" d="M72.3884 51.5636C74.6588 47.3638 78.1544 43.9159 82.4327 41.6563C86.711 39.3968 91.5796 38.4273 96.4221 38.8705C101.265 39.3137 105.863 41.1498 109.636 44.1462C113.408 47.1426 116.185 51.1647 117.615 55.7032C119.045 60.2417 119.063 65.0925 117.667 69.6415C116.271 74.1906 113.524 78.2333 109.774 81.2578C106.024 84.2823 101.439 86.1526 96.6003 86.632C91.7612 87.1114 86.8855 86.1782 82.5905 83.9507C76.845 80.9709 72.5447 75.8883 70.6322 69.8171C68.7198 63.746 69.3513 57.1818 72.3884 51.5636Z" fill="#13C8A4"/>
<path d="M92.7639 81.9591C88.5354 81.6741 84.5147 80.0627 81.301 77.365C78.0873 74.6673 75.8528 71.0278 74.9304 66.989C74.0081 62.9502 74.4473 58.7283 76.1827 54.9527C77.918 51.177 80.8566 48.0498 84.5604 46.0371C88.2641 44.0244 92.5347 43.2339 96.7357 43.7837C100.937 44.3334 104.843 46.1938 107.872 49.0875C110.902 51.9813 112.892 55.7535 113.547 59.8419C114.201 63.9303 113.485 68.1159 111.505 71.7749C109.735 75.0689 107.019 77.787 103.69 79.5961C100.361 81.4051 96.5637 82.2264 92.7639 81.9591ZM95.2998 45.1864C91.8265 44.969 88.3625 45.7336 85.3225 47.3887C82.2826 49.0437 79.7956 51.5191 78.1593 54.5183C76.3419 57.8733 75.6841 61.7119 76.284 65.4613C76.884 69.2108 78.7095 72.6702 81.4884 75.3235C84.2672 77.9769 87.8503 79.6818 91.7032 80.1841C95.5561 80.6863 99.4723 79.959 102.867 78.1105C106.263 76.262 108.955 73.3915 110.543 69.9272C112.13 66.4629 112.528 62.5905 111.677 58.8877C110.826 55.1848 108.771 51.8501 105.82 49.3808C102.868 46.9116 99.1782 45.4403 95.2998 45.1864Z" fill="white"/>
<path d="M84.1472 67.2578L83.0393 65.5284L84.597 64.5773C84.7398 64.4883 84.8905 64.412 85.0473 64.3494C85.1901 64.2923 85.3424 64.2612 85.4967 64.2577C85.6434 64.2533 85.7885 64.2874 85.917 64.3565C86.0706 64.4461 86.1978 64.5729 86.2865 64.7246C86.3746 64.839 86.4342 64.9718 86.4604 65.1127C86.4866 65.2535 86.4788 65.3983 86.4376 65.5357C86.3157 65.8113 86.1043 66.0401 85.8359 66.1867L84.1253 67.2163L84.1472 67.2578ZM80.5676 65.2914L85.3049 72.669L88.9683 70.425C89.2901 70.2135 89.5827 69.9628 89.8391 69.6787C90.0967 69.4146 90.3035 69.1074 90.4497 68.7717C90.5885 68.4458 90.6459 68.0923 90.617 67.7404C90.5634 67.2996 90.3978 66.8789 90.1352 66.5165C89.8727 66.1541 89.5215 65.8615 89.1135 65.6654C88.6407 65.4778 88.1148 65.4614 87.6307 65.6194C87.8529 65.298 87.9827 64.9242 88.0066 64.5372C88.0101 64.1496 87.8922 63.7702 87.6687 63.4498C87.4762 63.1408 87.2125 62.8798 86.8986 62.6876C86.6431 62.5283 86.3489 62.4377 86.0459 62.4251C85.7197 62.4187 85.3953 62.4744 85.0909 62.5889C84.7255 62.7229 84.3756 62.8941 84.047 63.0997L80.4864 65.2782L80.5676 65.2914ZM86.1629 70.3912L84.8611 68.369L86.6676 67.2574C86.9656 67.0534 87.3248 66.9521 87.6883 66.9695C87.8685 66.9982 88.0391 67.0681 88.1861 67.1736C88.3332 67.279 88.4526 67.417 88.5345 67.5762C88.6446 67.7359 88.714 67.9189 88.737 68.11C88.7512 68.2675 88.7237 68.4258 88.657 68.5698C88.5861 68.7162 88.4882 68.8485 88.3683 68.9602C88.2365 69.0859 88.0914 69.1976 87.9355 69.2935L86.1553 70.3827L86.1629 70.3912Z" fill="white"/>
<path d="M97.3792 61.3797L94.4016 56.7907L92.7411 57.8074L95.7187 62.3964C96.0314 62.8056 96.1867 63.3091 96.1574 63.8188C96.0869 64.066 95.9631 64.2956 95.7942 64.4922C95.6253 64.6889 95.4153 64.848 95.1783 64.9589C94.908 65.1416 94.6 65.2643 94.2759 65.3184C94.0456 65.3525 93.8103 65.3292 93.5916 65.2509C93.373 65.1726 93.1781 65.0417 93.0251 64.8703C92.8652 64.6975 92.721 64.5114 92.5943 64.314L89.6166 59.725L87.9561 60.7417L90.9338 65.3307C91.1581 65.7668 91.4779 66.1494 91.8706 66.4514C92.2633 66.7533 92.7193 66.9672 93.2062 67.0779C94.2054 67.1222 95.1947 66.8678 96.042 66.3487C96.8893 65.8296 97.5543 65.0706 97.9481 64.1729C98.066 63.7011 98.0759 63.2098 97.9771 62.7339C97.8783 62.2581 97.6733 61.8093 97.3766 61.4196L97.3792 61.3797Z" fill="white"/>
<path d="M100.716 59.2272L102.56 62.1013L104.221 61.0766L102.407 58.2445L102.291 51.9856L100.434 53.1181L100.546 57.1085L96.908 55.2747L95.0504 56.4151L100.716 59.2272Z" fill="white"/>
<path fill-rule="evenodd" clip-rule="evenodd" d="M165.066 14.8002C167.726 18.4712 169.211 22.8303 169.332 27.3257C169.454 31.8211 168.207 36.2506 165.748 40.0534C163.29 43.8562 159.731 46.8614 155.522 48.6884C151.313 50.5155 146.644 51.0823 142.105 50.317C137.566 49.5517 133.362 47.4888 130.024 44.3895C126.687 41.2901 124.366 37.2937 123.357 32.9061C122.347 28.5185 122.693 23.9371 124.352 19.7419C126.011 15.5466 128.907 11.9262 132.675 9.33894C137.714 5.87782 143.954 4.50909 150.026 5.53283C156.098 6.55658 161.507 9.88926 165.066 14.8002Z" fill="#EE7D8B"/>
<path d="M146.043 46.0828C142.029 46.0671 138.127 44.7854 134.92 42.4287C131.713 40.072 129.372 36.7666 128.245 33.0051C127.119 29.2436 127.268 25.2275 128.67 21.5553C130.072 17.8832 132.652 14.7516 136.025 12.6274C139.398 10.5033 143.384 9.50021 147.389 9.76778C151.393 10.0353 155.202 11.5592 158.248 14.1122C161.293 16.6653 163.412 20.1108 164.288 23.9351C165.165 27.7595 164.752 31.758 163.111 35.3346C161.646 38.5536 159.251 41.2853 156.219 43.1945C153.187 45.1037 149.65 46.1075 146.043 46.0828ZM146.097 11.1871C141.881 11.1851 137.813 12.7065 134.678 15.4581C131.543 18.2098 129.561 21.9971 129.116 26.0901C128.67 30.1831 129.792 34.2923 132.265 37.6259C134.738 40.9594 138.387 43.2814 142.51 44.1445C146.632 45.0075 150.936 44.3505 154.591 42.3001C158.247 40.2497 160.996 36.9509 162.308 33.0394C163.621 29.128 163.405 24.8806 161.701 21.1157C159.997 17.3508 156.926 14.3348 153.079 12.649C150.882 11.6906 148.503 11.195 146.097 11.1947V11.1871Z" fill="white"/>
<path d="M133.521 26.5246L131.76 26.1838C131.644 26.6261 131.644 27.0896 131.76 27.532C131.873 27.921 132.077 28.2789 132.357 28.5772C132.648 28.8917 132.998 29.1488 133.389 29.3346C133.8 29.5298 134.236 29.6723 134.684 29.7588C135.194 29.8672 135.717 29.9004 136.236 29.8572C136.65 29.8247 137.053 29.7141 137.423 29.5315C137.75 29.366 138.032 29.1272 138.246 28.8347C138.461 28.5405 138.609 28.2047 138.68 27.8501C138.776 27.4606 138.752 27.0521 138.61 26.6761C138.482 26.3636 138.289 26.08 138.044 25.8429C137.814 25.6266 137.553 25.4453 137.268 25.3052C137.012 25.1764 136.802 25.0779 136.655 25.0173L135.46 24.4568C135.214 24.3456 134.978 24.2138 134.754 24.063C134.62 23.9804 134.512 23.8622 134.444 23.7222C134.407 23.5908 134.407 23.4521 134.444 23.3207C134.467 23.1675 134.537 23.0247 134.646 22.9117C134.745 22.8133 134.864 22.7359 134.995 22.6845C135.133 22.6307 135.28 22.6025 135.429 22.6012C135.58 22.5989 135.731 22.6116 135.879 22.6391C136.089 22.6772 136.294 22.7355 136.492 22.8133C136.664 22.8813 136.821 22.9788 136.958 23.1011C137.088 23.2215 137.184 23.3729 137.237 23.5404C137.284 23.7474 137.284 23.962 137.237 24.169L138.998 24.5099C139.105 24.0998 139.105 23.6702 138.998 23.2601C138.887 22.9021 138.69 22.5751 138.424 22.3058C138.147 22.026 137.818 21.7998 137.454 21.6393C137.065 21.4636 136.656 21.3339 136.236 21.253C135.858 21.1808 135.472 21.1578 135.088 21.1848C134.713 21.2072 134.345 21.2944 134.002 21.4423C133.669 21.5879 133.372 21.8024 133.133 22.071C132.876 22.3646 132.704 22.7204 132.636 23.1011C132.553 23.4242 132.553 23.7626 132.636 24.0857C132.721 24.3651 132.867 24.6234 133.063 24.8431C133.268 25.0676 133.506 25.2616 133.769 25.4188C134.041 25.5865 134.324 25.7382 134.615 25.8732L135.46 26.2747C135.729 26.3866 135.988 26.5183 136.236 26.6685C136.43 26.7845 136.599 26.9363 136.733 27.1154C136.789 27.1995 136.828 27.2937 136.846 27.3925C136.865 27.4914 136.863 27.5928 136.841 27.691C136.815 27.8737 136.721 28.0407 136.577 28.1606C136.441 28.2737 136.278 28.354 136.104 28.3954C135.924 28.44 135.739 28.4579 135.553 28.4484C135.376 28.4406 135.2 28.4203 135.026 28.3878C134.79 28.3434 134.56 28.2696 134.343 28.1682C134.142 28.0783 133.961 27.9524 133.808 27.7971C133.662 27.6445 133.556 27.4601 133.497 27.2593C133.432 27.0109 133.432 26.7503 133.497 26.5019L133.521 26.5246Z" fill="white"/>
<path d="M140.914 22.3445L139.262 30.4337L145.554 31.6532L145.857 30.1535L141.388 29.29L141.791 27.3056L145.81 28.0858L146.089 26.6997L142.078 25.9271L142.427 24.1926L146.803 25.0409L147.113 23.5413L140.914 22.3445Z" fill="white"/>
<path d="M148.432 23.7991L146.787 31.8883L152.645 33.0244L152.947 31.5323L148.913 30.7446L150.255 24.1551L148.432 23.7991Z" fill="white"/>
<path d="M155.314 25.1322L153.669 33.229L159.527 34.3651L159.829 32.8654L155.795 32.0853L157.137 25.4882L155.314 25.1322Z" fill="white"/>
</svg>
