<svg width="141" height="28" viewBox="0 0 141 28" fill="none" xmlns="http://www.w3.org/2000/svg">
<path fill-rule="evenodd" clip-rule="evenodd" d="M9.46637 18.3356C9.80919 19.0917 10.263 19.7923 10.8129 20.4141C9.61814 21.0592 8.36744 21.3467 7.00264 21.3467C2.94486 21.3467 0 18.6652 0 14.3855C0 10.0756 3.09554 7.39516 7.00264 7.39516C8.39327 7.39516 9.48898 7.6967 10.5944 8.28901C10.0698 8.93882 9.64428 9.66284 9.33183 10.4375C8.6767 10.1757 7.97714 10.0434 7.27173 10.0476C4.86827 10.0476 3.00405 11.5844 3.00405 14.3876C3.00405 17.039 4.80799 18.7265 7.39335 18.7265C8.13387 18.7265 8.81734 18.5919 9.46637 18.3367V18.3356ZM17.6272 7.39408C21.6236 7.39408 24.5082 10.2275 24.5082 14.3855C24.5082 18.5144 21.6236 21.3467 17.6272 21.3467C13.6609 21.3467 10.7752 18.5144 10.7752 14.3855C10.7752 10.2285 13.6598 7.39516 17.6272 7.39516V7.39408ZM17.6272 9.95608C15.4034 9.95608 13.7803 11.6738 13.7803 14.3855C13.7803 17.0681 15.4034 18.7847 17.6272 18.7847C19.9111 18.7847 21.5041 17.0681 21.5041 14.3855C21.5041 11.6738 19.9111 9.95608 17.6272 9.95608ZM26.4025 21.0452V7.69562H29.3764V21.0452H26.4025ZM26.0107 3.59793C26.0107 2.57377 26.8826 1.75962 27.8739 1.75962C28.8663 1.75962 29.7381 2.57377 29.7381 3.59793C29.7381 4.65331 28.8663 5.49654 27.8739 5.49654C26.8836 5.49654 26.0107 4.65224 26.0107 3.59793ZM31.9715 8.54101C33.8346 7.81731 36.1197 7.39516 38.0722 7.39516C41.468 7.39516 43.6325 8.6907 43.6325 12.4567V21.0452H40.6876V12.7292C40.6876 10.8004 39.4854 10.1069 37.8321 10.1069C36.7795 10.1069 35.729 10.2576 34.9476 10.4989V21.0452H31.9715V8.53993V8.54101ZM46.1231 0.553467H49.0981V8.05747C49.7289 7.72577 50.9602 7.39408 52.1334 7.39408C55.9792 7.39408 58.8648 9.86454 58.8648 14.1442C58.8648 18.4519 56.0093 21.3456 51.0829 21.3456C49.3918 21.3404 47.7142 21.0446 46.1231 20.4712V0.554544V0.553467ZM49.0981 18.5133C49.6686 18.6932 50.421 18.7836 51.1712 18.7836C53.9051 18.7836 55.8597 17.2781 55.8597 14.2035C55.8597 11.6124 54.0267 10.0756 51.7728 10.0756C50.6007 10.0756 49.6987 10.3772 49.0981 10.7089V18.5133ZM67.4583 12.0949C67.4583 10.6475 66.3755 9.98516 64.9041 9.98516C63.3714 9.98516 62.1692 10.4375 61.0573 11.0696V8.47854C62.2284 7.81731 63.7309 7.39516 65.3842 7.39516C68.2989 7.39516 70.373 8.60024 70.373 11.9441V20.7738C69.1105 21.1055 67.3076 21.3165 65.8061 21.3165C62.35 21.3165 59.8249 20.2612 59.8249 17.2479C59.8249 14.5362 62.139 13.2116 65.9848 13.2116H67.4583V12.0938V12.0949ZM67.4583 15.1985H66.1947C64.1206 15.1985 62.7687 15.8005 62.7687 17.1564C62.7687 18.5435 64.0312 19.0852 65.8341 19.0852C66.2861 19.0852 66.9169 19.0249 67.4572 18.9344V15.1985H67.4583ZM72.5364 17.4278C73.7688 18.3625 75.2402 18.9355 76.5921 18.9355C77.916 18.9355 78.7878 18.4832 78.7878 17.4278C78.7878 16.3433 78.0053 15.9513 76.2928 15.5001C73.5277 14.8669 72.3556 13.7522 72.3556 11.4315C72.3556 8.7187 74.3996 7.39301 77.1044 7.39301C78.6059 7.39301 79.8082 7.72577 80.92 8.41824V11.1601C79.749 10.3169 78.6059 9.80424 77.1948 9.80424C75.9021 9.80424 75.2111 10.4375 75.2111 11.3119C75.2111 12.1842 75.7816 12.6365 77.3143 13.0587C80.3496 13.7221 81.6724 14.8679 81.6724 17.2781C81.6724 20.0802 79.538 21.3456 76.6534 21.3456C75.0906 21.3456 73.5277 20.9245 72.5364 20.2612V17.4289V17.4278ZM85.7431 15.0478V15.1081C85.9239 17.4881 87.9668 18.7836 90.0409 18.7836C91.8739 18.7836 93.1967 18.3615 94.5184 17.4881V20.1104C93.3162 20.9536 91.5434 21.3456 89.831 21.3456C85.6839 21.3456 82.8585 18.6932 82.8585 14.4749C82.8585 10.2264 85.6225 7.39408 89.2896 7.39408C93.1655 7.39408 94.9985 9.8947 94.9985 13.5401V15.0478H85.7441H85.7431ZM92.2043 13.1201C92.144 11.0395 91.1226 9.8947 89.1992 9.8947C87.4867 9.8947 86.2242 11.1009 85.8335 13.119H92.2043V13.1201Z" fill="#0667D0"/>
<path d="M106.689 0.538462C106.689 0.241077 106.448 0 106.151 0C105.853 0 105.612 0.241077 105.612 0.538462V27.4615C105.612 27.7589 105.853 28 106.151 28C106.448 28 106.689 27.7589 106.689 27.4615V0.538462Z" fill="#0667D0"/>
<path fill-rule="evenodd" clip-rule="evenodd" d="M118.58 16.0839V21.0701H117.191V7.70759C117.796 7.61713 118.76 7.50513 119.543 7.50513C123.216 7.50513 124.761 9.21205 124.761 11.7267C124.761 14.5784 122.768 16.1281 119.431 16.1281C119.185 16.1281 118.872 16.1065 118.581 16.0828L118.58 16.0839ZM118.58 8.74143V14.9165C118.827 14.9381 119.073 14.9381 119.297 14.9381C122.052 14.9381 123.35 13.8827 123.35 11.7288C123.35 9.99928 122.343 8.6962 119.475 8.6962C119.206 8.6962 118.894 8.71882 118.58 8.74143ZM127.266 12.8951V21.069H125.922V12.1768C127.007 11.4897 128.264 11.1238 129.549 11.1214C130.087 11.1214 130.625 11.1893 131.185 11.3239V12.6485C130.603 12.4461 129.908 12.4008 129.459 12.4008C128.497 12.4008 127.78 12.6033 127.265 12.8962L127.266 12.8951ZM131.158 16.1744C131.158 13.1428 133.151 11.0547 136.063 11.0547C138.974 11.0547 140.967 13.1428 140.967 16.1744C140.967 19.2059 138.974 21.2941 136.063 21.2941C133.151 21.2941 131.158 19.2048 131.158 16.1744ZM139.601 16.1744C139.601 13.7944 138.123 12.2221 136.063 12.2221C134.003 12.2221 132.524 13.7944 132.524 16.1744C132.524 18.5544 134.003 20.1267 136.063 20.1267C138.123 20.1267 139.601 18.5544 139.601 16.1744Z" fill="#0667D0"/>
</svg>
