<svg width="342" height="363" fill="none" xmlns="http://www.w3.org/2000/svg"><path d="M220.432 129.118l.742-1.729c1.856-6.427 5.112-10.99 9.769-13.69 4.806-2.657 9.543-3.957 14.211-3.901 4.669.057 9.202-.817 13.6-2.62 4.547-1.76 7.511-5.032 8.892-9.814 1.424-4.933 1.109-9.154-.947-12.665-1.906-3.468-5.617-6-11.133-7.598-5.516-1.598-9.874-1.889-13.076-.873-3.009.91-5.07 2.176-6.184 3.797l-1.448 2.496c-2.464 3.497-4.893 6.033-7.286 7.607-2.35 1.425-4.941 1.727-7.773.907-2.833-.82-6.301-2.797-10.404-5.93-7.952-6.028-11.194-11.583-9.726-16.665.647-2.242 1.742-4.354 3.284-6.337a311.134 311.134 0 013.919-5.182c1.071-1.47 3.435-3.783 7.091-6.934 3.806-3.11 7.759-5.608 11.858-7.498 4.292-1.996 9.84-3.305 16.642-3.926 6.846-.77 13.996-.076 21.449 2.084 15.802 4.577 27.23 13.394 34.283 26.45 7.053 13.058 8.637 26.312 4.752 39.764-1.856 6.426-4.775 12.06-8.757 16.899-3.79 4.733-7.778 8.193-11.964 10.382-8.372 4.378-15.693 6.792-21.962 7.243l-3.901.085c-.734 2.541-1.444 4.441-2.131 5.7-.537 1.302-1.64 2.602-3.307 3.9-1.475 1.193-3.663 1.774-6.562 1.744-2.707-.136-6.222-.831-10.545-2.083-4.323-1.252-7.718-2.641-10.186-4.165-2.318-1.482-3.74-3.27-4.266-5.366-.525-2.096-.743-3.86-.653-5.291.283-1.538.856-3.802 1.719-6.791zm-12.484 39.872c1.884-2.046 4.467-3.16 7.751-3.343 3.432-.139 8.428.741 14.988 2.641 6.559 1.9 10.823 4.755 12.792 8.565 2.162 3.703 2.034 9.74-.383 18.11-1.727 5.978-3.767 10.246-6.121 12.804-2.311 2.408-5.183 3.681-8.615 3.821-3.241.033-8.066-.879-14.476-2.736-6.41-1.857-10.877-4.851-13.399-8.983-1.8-3.275-1.816-7.976-.046-14.104l1.036-3.588c.992-3.437 1.822-6.031 2.489-7.782.816-1.707 2.144-3.509 3.984-5.405zM78.227 41.85l.27-.715c.64-2.642 1.881-4.553 3.724-5.733 1.904-1.166 3.804-1.78 5.7-1.841a13.995 13.995 0 005.475-1.31c1.815-.797 2.96-2.178 3.436-4.144.49-2.028.287-3.735-.61-5.123-.835-1.373-2.387-2.333-4.654-2.881-2.268-.549-4.043-.588-5.324-.117-1.206.424-2.02.975-2.444 1.653l-.543 1.039c-.939 1.464-1.88 2.537-2.823 3.22-.929.62-1.976.79-3.14.508-1.165-.281-2.608-1.02-4.33-2.217-3.335-2.302-4.75-4.498-4.244-6.587a7.626 7.626 0 011.22-2.631c.606-.894 1.106-1.619 1.5-2.174.409-.617 1.327-1.598 2.756-2.943 1.49-1.33 3.05-2.417 4.681-3.258 1.707-.888 3.936-1.52 6.687-1.895 2.765-.437 5.68-.285 8.745.456 6.497 1.571 11.293 4.942 14.388 10.113 3.095 5.17 3.974 10.52 2.635 16.05-.639 2.642-1.724 4.981-3.255 7.017-1.455 1.99-3.012 3.466-4.673 4.43-3.321 1.929-6.25 3.042-8.787 3.339l-1.583.105c-.253 1.044-.507 1.828-.764 2.351-.195.538-.62 1.086-1.273 1.643-.578.511-1.456.787-2.633.827-1.102-.006-2.541-.224-4.318-.654-1.778-.43-3.18-.931-4.21-1.505-.967-.56-1.576-1.26-1.827-2.1-.25-.842-.37-1.554-.359-2.136.087-.63.28-1.558.577-2.787zm-4.36 16.407c.728-.864 1.757-1.363 3.087-1.497 1.391-.119 3.435.148 6.132.8 2.697.652 4.479 1.733 5.346 3.244.943 1.463.998 3.915.165 7.356-.594 2.458-1.347 4.227-2.257 5.307-.895 1.02-2.039 1.588-3.43 1.707-1.315.072-3.29-.21-5.926-.847-2.635-.638-4.501-1.772-5.599-3.403-.789-1.296-.879-3.204-.27-5.723l.358-1.474c.342-1.413.633-2.481.872-3.204.301-.707.808-1.463 1.522-2.266zM310.647 294.354l-.112-.623c-.671-2.151-.602-4.038.205-5.663.857-1.64 1.947-2.886 3.268-3.739a11.607 11.607 0 003.334-3.265c.951-1.34 1.177-2.811.678-4.411-.515-1.65-1.386-2.778-2.615-3.382-1.178-.619-2.69-.64-4.536-.063-1.845.577-3.124 1.306-3.834 2.187-.677.815-1.021 1.554-1.034 2.217l.057.97c-.044 1.441-.256 2.605-.636 3.492-.396.837-1.068 1.404-2.015 1.7-.948.297-2.289.387-4.022.27-3.352-.214-5.292-1.172-5.823-2.872a6.327 6.327 0 01-.252-2.391c.049-.894.096-1.622.14-2.185.028-.612.263-1.701.705-3.267.493-1.581 1.14-3.018 1.941-4.311.835-1.359 2.15-2.758 3.946-4.198 1.78-1.49 3.917-2.625 6.411-3.404 5.287-1.654 10.132-1.302 14.535 1.053 4.402 2.356 7.305 5.785 8.708 10.286.671 2.15.896 4.276.675 6.376-.187 2.034-.666 3.748-1.435 5.141-1.54 2.787-3.149 4.827-4.826 6.12l-1.08.749c.265.85.418 1.516.459 1.997.09.466.021 1.036-.206 1.711-.193.609-.7 1.18-1.52 1.71-.785.466-1.901.924-3.348 1.377-1.446.452-2.658.693-3.633.724-.926.015-1.657-.223-2.194-.714-.536-.491-.924-.946-1.164-1.365-.206-.484-.465-1.226-.777-2.227zm3.888 13.522c.149-.925.668-1.718 1.557-2.38.938-.678 2.505-1.36 4.699-2.046 2.195-.686 3.922-.678 5.182.026 1.294.639 2.377 2.358 3.251 5.159.623 2 .842 3.579.655 4.735-.203 1.106-.773 1.998-1.711 2.675-.904.612-2.429 1.254-4.574 1.924-2.145.671-3.954.661-5.429-.031-1.113-.585-1.989-1.903-2.629-3.953l-.374-1.2c-.359-1.151-.607-2.034-.744-2.649-.087-.632-.048-1.385.117-2.26zM317.277 160.945l.097-.336c.195-1.229.692-2.146 1.489-2.752.827-.6 1.671-.949 2.534-1.046a6.4 6.4 0 002.45-.796c.799-.43 1.271-1.102 1.417-2.016.149-.943-.005-1.715-.465-2.316-.432-.596-1.175-.978-2.229-1.147-1.055-.168-1.866-.121-2.434.14-.534.237-.886.518-1.054.843l-.21.494c-.375.702-.765 1.226-1.171 1.571-.401.317-.872.433-1.414.346-.541-.086-1.227-.371-2.056-.855-1.605-.93-2.331-1.881-2.177-2.852.069-.429.222-.844.461-1.245.244-.43.446-.779.605-1.047.164-.296.547-.777 1.15-1.443a10.331 10.331 0 012.017-1.656c.746-.467 1.74-.836 2.982-1.107 1.246-.3 2.581-.336 4.006-.109 3.022.482 5.333 1.846 6.934 4.094s2.197 4.658 1.788 7.23c-.196 1.229-.605 2.336-1.23 3.321-.591.96-1.247 1.691-1.97 2.191-1.445 1-2.741 1.614-3.888 1.842l-.718.105c-.077.486-.164.853-.262 1.101-.07.253-.243.518-.521.796-.245.254-.636.411-1.172.473-.502.037-1.167-.011-1.994-.142-.826-.132-1.485-.31-1.975-.535-.462-.22-.765-.518-.91-.892-.145-.375-.226-.696-.242-.962.017-.29.071-.721.162-1.293zm-1.391 7.646c.301-.421.752-.686 1.354-.795.63-.104 1.572-.057 2.827.143 1.254.2 2.106.629 2.557 1.287.484.634.598 1.751.344 3.351-.182 1.143-.461 1.978-.836 2.504a2.27 2.27 0 01-1.503.904c-.597.08-1.509.023-2.735-.173-1.225-.195-2.118-.645-2.678-1.35-.408-.563-.518-1.43-.332-2.602l.109-.686c.105-.657.198-1.155.281-1.493.112-.334.316-.697.612-1.09z" fill="#13C8A4"/><path d="M168.128 282.822c.357 13.804 3.363 23.992 7.411 31.971.34.764.718 1.297 1.059 2.061.906 1.564 1.85 2.896 2.793 4.229.566.799.944 1.332 1.547 1.9 5.204 6.5 11.225 10.757 16.454 14.18 13.204 8.458 11.356 24.526 11.356 24.526L97.581 343.653c4.35-18.76 10.017-54.62 10.017-54.62 24.299-3.324 36.256-5.965 60.53-6.211z" fill="#2854C6"/><path d="M175.848 314.867c.341.766.719 1.299 1.06 2.065-4.837 1.382-9.711 2.995-14.548 4.377-1.463.484-2.261-1.777-.835-2.03a356.779 356.779 0 0114.323-4.412zM179.76 321.066c.567.801.945 1.335 1.548 1.904-5.362 1.775-10.913 3.283-16.275 5.059-1.463.484-2.261-1.778-.835-2.03 5.137-1.811 10.462-3.354 15.562-4.933z" fill="#fff"/><path d="M188.462 246.062c8.029 5.3 15.072 7.639 21.279 8.501.575.109 1.033.105 1.609.215 1.262.103 2.408.094 3.553.084.687-.006 1.146-.01 1.716-.129 5.834-.392 10.719-2.146 14.805-3.779 10.213-4.198 18.637 3.269 18.637 3.269l-55.62 56.548c-8.94-9.976-27.108-27.525-27.108-27.525 8.007-15.258 11.374-23.168 21.129-37.184z" fill="#2854C6"/><path d="M209.872 254.411c.575.109 1.034.105 1.609.215-1.182 3.323-2.246 6.76-3.428 10.083-.32 1.031-1.934.588-1.498-.33a250.262 250.262 0 013.317-9.968zM215.007 254.668c.687-.005 1.146-.009 1.716-.128-1.171 3.782-2.572 7.565-3.743 11.347-.319 1.031-1.934.587-1.498-.331 1.06-3.666 2.348-7.335 3.525-10.888z" fill="#fff"/><path fill-rule="evenodd" clip-rule="evenodd" d="M133.133 143.742s2.4 2.608 1.423 4.251c-.824 1.386-4.735.89-4.735.89s.657 1.703 1.06 2.522c.879 1.783 1.615 3.07 2.21 3.861 1.131 1.507 3.22.068 6.269-4.316 1.203-1.731 3.745-2.704 5.848-2.704a2.848 2.848 0 012.206 3.364c-3.387 16.514-3.886 16.837-8.065 27.028-2.137 5.213-1.423 9.983-6.142 13.053-5.915 3.847-13.964 3.277-17.872-2.602-1.745-2.624-1.381-5.443-1.986-7.824a17.643 17.643 0 01-.293-7.287l4.438-26.198c.296-1.75.845-3.448 1.63-5.039l1.673-3.394c1.313-2.662 4.034-3.932 6.986-3.717h15.85c1.287 0 4.903.799 4.903 2.968 0 2.17-2.329 4.108-3.616 4.795-1.287.687-11.787.349-11.787.349z" fill="#fff" stroke="#2854C6" stroke-width="1.5" stroke-linejoin="round"/><path fill-rule="evenodd" clip-rule="evenodd" d="M105.874 163.76l-5.886 8.827a3.726 3.726 0 00-.148.279l-16.175 33.881 2.984 17.759 37.291-39.667-18.066-21.079z" fill="#2854C6"/><mask id="a" maskUnits="userSpaceOnUse" x="134.735" y="113.273" width="56" height="66" fill="#000"><path fill="#fff" d="M134.735 113.273h56v66h-56z"/><path fill-rule="evenodd" clip-rule="evenodd" d="M138.785 171.832l19.085-11.952-19.272 12.016s.797-1.539 1.717-3.643l-2.58 2.292s5.588-9.532 5.1-13.505c-.155-1.266.413-3.937 1.703-8.014.976-3.618 2.397-8.225 4.262-13.82a4.214 4.214 0 012.391-2.567 4.21 4.21 0 014.004-.63 4.604 4.604 0 012.926 5.363l-2.809 12.25a2.475 2.475 0 002.569 3.022l-.146.13c3.97-1.425 13.792-8.783 13.792-8.783l-1.015-10.073-11.154-4.823a4.344 4.344 0 01-2.418-5.288 3.389 3.389 0 012.572-2.313 4.14 4.14 0 01.259-4.859 3.677 3.677 0 015.178-.536c.04.032.079.066.118.1l13.104 11.608.201 1.971 2.205 1.056 1.273.723a5.254 5.254 0 012.579 3.652l1.008 5.693.273 1.543.092-.058 1.876 3.379a8.461 8.461 0 01.324 7.561l-3.301 7.377a18.965 18.965 0 01-5.955 7.441l-12.171 9.091-27.79-5.404z"/></mask><path fill-rule="evenodd" clip-rule="evenodd" d="M138.785 171.832l19.085-11.952-19.272 12.016s.797-1.539 1.717-3.643l-2.58 2.292s5.588-9.532 5.1-13.505c-.155-1.266.413-3.937 1.703-8.014.976-3.618 2.397-8.225 4.262-13.82a4.214 4.214 0 012.391-2.567 4.21 4.21 0 014.004-.63 4.604 4.604 0 012.926 5.363l-2.809 12.25a2.475 2.475 0 002.569 3.022l-.146.13c3.97-1.425 13.792-8.783 13.792-8.783l-1.015-10.073-11.154-4.823a4.344 4.344 0 01-2.418-5.288 3.389 3.389 0 012.572-2.313 4.14 4.14 0 01.259-4.859 3.677 3.677 0 015.178-.536c.04.032.079.066.118.1l13.104 11.608.201 1.971 2.205 1.056 1.273.723a5.254 5.254 0 012.579 3.652l1.008 5.693.273 1.543.092-.058 1.876 3.379a8.461 8.461 0 01.324 7.561l-3.301 7.377a18.965 18.965 0 01-5.955 7.441l-12.171 9.091-27.79-5.404z" fill="#fff"/><path d="M157.87 159.88l.796 1.271-1.59-2.544.794 1.273zm-19.085 11.952l-.797-1.271-3.222 2.018 3.732.725.287-1.472zm-.187.064l-1.332-.689-2.515 4.856 4.641-2.894-.794-1.273zm1.717-3.643l1.374.6-2.37-1.722.996 1.122zm-2.58 2.292l-1.294-.759 2.291 1.88-.997-1.121zm5.1-13.505l-1.488.182 1.488-.182zm1.703-8.014l1.43.453.01-.031.008-.031-1.448-.391zm4.262-13.82l-1.423-.474 1.423.474zm2.391-2.567l.574 1.385.184-.076.158-.121-.916-1.188zm4.004-.63l.508-1.412-.508 1.412zm2.926 5.363l1.463.336-1.463-.336zm-2.809 12.25l-1.462-.336 1.462.336zm1.856 2.965l.337-1.462h-.001l-.336 1.462zm.713.057l.997 1.122 3.27-2.906-4.365.288.098 1.496zm-.146.13l-.996-1.121 1.503 2.533-.507-1.412zm13.792-8.783l.9 1.201.678-.508-.085-.843-1.493.15zm-1.015-10.073l1.493-.15-.089-.877-.808-.35-.596 1.377zm-11.154-4.823l-.596 1.377.596-1.377zm-2.418-5.288l-1.431-.449 1.431.449zm.176-.448l1.353.648.001-.001-1.354-.647zm2.396-1.865l.295 1.471 2.165-.435-1.202-1.853-1.258.817zm.259-4.859l-1.165-.945 1.165.945zm5.178-.536l-.947 1.163.004.004.943-1.167zm.118.1l-.997 1.121.002.002.995-1.123zm13.104 11.608l1.493-.152-.06-.582-.438-.389-.995 1.123zm.201 1.971l-1.492.152.085.837.759.364.648-1.353zm2.205 1.056l.74-1.305-.045-.025-.047-.023-.648 1.353zm1.273.723l.74-1.305-.74 1.305zm2.579 3.652l-1.477.262 1.477-.262zm1.008 5.693l-1.477.261 1.477-.261zm.273 1.543l-1.477.261.387 2.189 1.885-1.179-.795-1.271zm.092-.058l1.312-.728-.767-1.382-1.34.838.795 1.272zm1.876 3.379l1.311-.728-1.311.728zm.324 7.561l1.369.613-1.369-.613zm-3.301 7.377l-1.369-.613 1.369.613zm-5.955 7.441l.897 1.202-.897-1.202zm-12.171 9.091l-.286 1.473.652.126.532-.397-.898-1.202zm-9.501-18.628l-19.086 11.953 1.593 2.542 19.085-11.952-1.592-2.543zm-17.682 14.561l19.271-12.016-1.587-2.546-19.272 12.017 1.588 2.545zm-.452-5.517a71.048 71.048 0 01-1.543 3.297l-.099.195a1.8 1.8 0 01-.032.062v.001l1.332.689 1.332.69v-.001l.001-.001.002-.004.008-.015.029-.057.107-.211a72.974 72.974 0 001.612-3.444l-2.749-1.201zm.379-.521l-2.58 2.292 1.993 2.243 2.579-2.292-1.992-2.243zm-1.584 3.414l1.295.758v-.001l.001-.002.004-.006.013-.023.05-.085.182-.32a71.8 71.8 0 002.549-4.953c.682-1.47 1.364-3.099 1.846-4.638.467-1.489.812-3.089.649-4.418l-2.977.365c.08.658-.09 1.74-.534 3.155-.428 1.366-1.052 2.864-1.706 4.274a67.545 67.545 0 01-2.438 4.738l-.171.299-.043.075a.246.246 0 01-.011.018l-.002.005h-.001l1.294.759zm6.589-13.688c-.045-.368.009-1.143.288-2.458.27-1.269.718-2.905 1.356-4.92l-2.86-.905c-.653 2.062-1.133 3.8-1.431 5.202-.288 1.355-.44 2.549-.33 3.446l2.977-.365zm3.053-22.125c-1.87 5.608-3.3 10.246-4.287 13.903l2.896.782c.966-3.579 2.377-8.156 4.237-13.737l-2.846-.948zm3.24-3.479a5.714 5.714 0 00-3.24 3.479l2.846.948a2.718 2.718 0 011.542-1.656l-1.148-2.771zm1.49 2.574a2.712 2.712 0 012.58-.407l1.016-2.823a5.717 5.717 0 00-5.427.853l1.831 2.377zm2.58-.407a3.106 3.106 0 011.972 3.617l2.925.671a6.107 6.107 0 00-3.881-7.111l-1.016 2.823zm1.972 3.617l-2.809 12.249 2.925.671 2.809-12.249-2.925-.671zm-2.809 12.249a3.975 3.975 0 002.982 4.763l.672-2.924a.974.974 0 01-.729-1.168l-2.925-.671zm2.981 4.762c.376.087.763.119 1.149.093l-.197-2.993a.963.963 0 01-.278-.023l-.674 2.923zm.054-2.525l-.146.13 1.993 2.243.146-.13-1.993-2.243zm14.642-7.532l-.899-1.2-.001.001-.005.004-.02.015a6.14 6.14 0 00-.081.06l-.314.233a177.248 177.248 0 01-4.933 3.506 95.504 95.504 0 01-4.483 2.905c-1.469.885-2.72 1.545-3.563 1.847l1.014 2.824c1.142-.41 2.608-1.204 4.096-2.1a98.348 98.348 0 004.628-2.999 174.418 174.418 0 005.345-3.809l.085-.063a.318.318 0 01.023-.017l.005-.004.002-.001v-.001l-.899-1.201zm-2.507-9.923l1.015 10.074 2.985-.301-1.015-10.073-2.985.3zm-10.258-3.596l11.155 4.823 1.191-2.754-11.155-4.822-1.191 2.753zm-3.253-7.114a5.843 5.843 0 003.253 7.114l1.191-2.753a2.844 2.844 0 01-1.582-3.463l-2.862-.898zm.254-.646c-.1.209-.185.425-.254.646l2.862.898c.027-.086.06-.169.098-.249l-2.706-1.295zm3.453-2.689a4.887 4.887 0 00-3.454 2.69l2.708 1.293c.267-.559.77-.927 1.337-1.041l-.591-2.942zm-.61-4.333a5.641 5.641 0 00-.353 6.621l2.517-1.634a2.64 2.64 0 01.165-3.097l-2.329-1.89zm7.29-.755a5.178 5.178 0 00-7.29.755l2.329 1.89a2.179 2.179 0 013.067-.318l1.894-2.327zm.167.143a5.02 5.02 0 00-.171-.146l-1.886 2.334a.969.969 0 01.064.054l1.993-2.242zm13.103 11.606l-13.104-11.608-1.99 2.246 13.105 11.608 1.989-2.246zm.698 2.942l-.2-1.971-2.985.304.201 1.971 2.984-.304zm1.361-.145l-2.205-1.056-1.296 2.706 2.205 1.056 1.296-2.706zm1.365.771l-1.273-.723-1.481 2.61 1.274.722 1.48-2.609zm3.316 4.696a6.756 6.756 0 00-3.316-4.696l-1.48 2.609a3.756 3.756 0 011.842 2.61l2.954-.523zm1.008 5.692l-1.008-5.692-2.954.523 1.008 5.692 2.954-.523zm.273 1.543l-.273-1.543-2.954.523.273 1.543 2.954-.523zm-2.18-1.068l-.093.058 1.591 2.543.093-.057-1.591-2.544zm3.982 3.923l-1.875-3.379-2.623 1.456 1.875 3.379 2.623-1.456zm.382 8.902a9.959 9.959 0 00-.382-8.902l-2.623 1.456a6.96 6.96 0 01.267 6.22l2.738 1.226zm-3.301 7.377l3.301-7.377-2.738-1.226-3.301 7.377 2.738 1.226zm-6.427 8.03a20.454 20.454 0 006.427-8.03l-2.738-1.226a17.445 17.445 0 01-5.484 6.852l1.795 2.404zm-12.17 9.091l12.17-9.091-1.795-2.404-12.17 9.091 1.795 2.404zm-28.975-5.134l27.791 5.405.573-2.945-27.791-5.404-.573 2.944z" fill="#2854C6" mask="url(#a)"/><path fill-rule="evenodd" clip-rule="evenodd" d="M80.67 180.094c-2.488-12.344-11.368-22.295-23.193-26.625-15.474-5.666-32.605 2.302-38.264 17.798a29.913 29.913 0 00-1.795 9.184l-1.172 32.583 72.4 14.645c-2.313-17.917-5.455-35.079-7.976-47.585z" fill="#2854C6"/><path fill-rule="evenodd" clip-rule="evenodd" d="M170.052 279.112c12.971 9.371 32.411-31.015 25.193-40.663-9.556.924-16.296.26-20.22-1.992-3.925-2.252-7.24-5.018-9.945-8.298l-3.149 5.311 8.121 45.642z" fill="#13C8A4"/><path d="M28.843 213.884l-11.799 52.603c-3.21 14.31 5.773 28.515 20.062 31.729 1.908.43 3.857.646 5.812.646h27.1a33.142 33.142 0 0029.425-17.911l11.441-22.088-16.906 43.816h7.771a27.83 27.83 0 0021.805-10.543l5.064-6.386v5.975c0 6.05 4.898 10.954 10.939 10.954 6.566 0 12.43-4.116 14.669-10.297l2.402-6.632 2.671 5.147a21.825 21.825 0 0019.372 11.782c-7.727-23.086-12.147-41.62-13.259-55.6-1.111-13.981.16-35.06 3.812-63.236h-32.816l-59.17 35.518-48.395-5.477z" fill="#fff"/><path d="M28.843 213.884l-11.799 52.603c-3.21 14.31 5.773 28.515 20.062 31.729 1.908.43 3.857.646 5.812.646h27.1a33.142 33.142 0 0029.425-17.911l11.441-22.088-16.906 43.816c8.494 10.217 84.693 9.7 84.693 0-7.727-23.086-12.147-41.62-13.259-55.6-1.111-13.981.16-35.06 3.812-63.236h-32.816l-59.17 35.518-48.395-5.477z" fill="#13C8A4"/><path fill-rule="evenodd" clip-rule="evenodd" d="M157.869 159.879l-19.085 11.952 27.791 5.404 12.17-9.091a18.947 18.947 0 005.955-7.441l3.302-7.377a8.46 8.46 0 00-.324-7.561l-1.876-3.379-.092.058-1.282-7.236a5.25 5.25 0 00-2.578-3.652l-1.274-.723-2.204-1.056-.201-1.971-13.104-11.608a3.678 3.678 0 00-5.297.436 4.143 4.143 0 00-.259 4.859 3.387 3.387 0 00-2.572 2.313 4.344 4.344 0 002.418 5.288l11.155 4.823 1.015 10.073s-11.221 8.406-14.523 8.989c-2.202.388-3.885-.123-5.05-1.534l4.671-13.897a3.958 3.958 0 00-2.606-5.051 4.218 4.218 0 00-5.219 2.708c-4.299 12.895-6.237 20.541-5.815 22.937.694 3.941-4.387 13.753-4.387 13.753l19.271-12.016z" fill="#fff"/><path fill-rule="evenodd" clip-rule="evenodd" d="M171.524 87.195l-24.054-.713a5.072 5.072 0 00-5.168 4.35l-8.245 52.733a4 4 0 003.507 4.593l22.491 2.516 9.311-5.713 7.032-52.01a5.076 5.076 0 00-4.874-5.755z" fill="#2854C6"/><path d="M152.558 143.566a3.805 3.805 0 01-3.802-3.808 3.805 3.805 0 013.802-3.807c2.1 0 3.802 1.705 3.802 3.807a3.805 3.805 0 01-3.802 3.808zm0-1.45c1.3 0 2.354-1.056 2.354-2.358a2.356 2.356 0 00-2.354-2.357 2.356 2.356 0 00-2.354 2.357 2.356 2.356 0 002.354 2.358zm10.09-52.638a.792.792 0 00.19-.008c-.001 0-.002 0 .009-.009a.493.493 0 00.124-.21c.057-.157.082-.318.097-.754l.002-.056.436-1.778 1.054.26-.408 1.668c-.02.502-.061.76-.159 1.031-.101.28-.252.511-.455.679-.249.206-.509.28-.928.264l-7.191-.251c-.419-.014-.673-.106-.908-.329a1.55 1.55 0 01-.406-.709c-.082-.287-.103-.556-.085-1.095l.002-.057.436-1.778 1.055.26-.409 1.668c-.012.394.002.55.046.704a.484.484 0 00.117.227.767.767 0 00.19.022l7.191.251zM19.31 309.689L0 330.894h89.831l-9.127-15.61A33.14 33.14 0 0052.1 298.861h-8.296a33.128 33.128 0 00-24.493 10.828z" fill="#fff"/><path d="M19.31 309.689L0 330.894h89.831l-9.127-15.61A33.14 33.14 0 0052.1 298.861h-8.296a33.128 33.128 0 00-24.493 10.828z" fill="#2854C6"/><path fill-rule="evenodd" clip-rule="evenodd" d="M170.004 79.821l-3.812-8.962h-.497c-7.689 0-13.922-6.242-13.922-13.942v-16.1c0-7.699 6.233-13.94 13.922-13.94h43.092c7.689 0 13.923 6.241 13.923 13.94v16.1c0 7.7-6.234 13.942-13.923 13.942h-32.153l-6.63 8.962z" fill="#fff" stroke="#2854C6" stroke-width="1.5"/><path fill-rule="evenodd" clip-rule="evenodd" d="M137.735 170.544s5.588-9.533 5.1-13.505c-.296-2.415 2.04-9.949 7.006-22.601a4.22 4.22 0 015.354-2.431 4.606 4.606 0 012.926 5.364l-2.809 12.249a2.476 2.476 0 002.569 3.023" fill="#fff"/><path fill-rule="evenodd" clip-rule="evenodd" d="M38.278 166.67l36.971 51.199 53.901-47.093a26.771 26.771 0 012.337-1.708l5.581-3.69c1.77 1.45 40.431 14.995 40.431 14.995l-12.533 13.561a26.816 26.816 0 01-2.516 2.392l-85.505 71.987a6.954 6.954 0 01-9.027-.098l-45.871-23.79s-7.293-33.194-5.47-48.132c1.824-14.937 8.61-28.369 8.61-28.369a7.62 7.62 0 0113.091-1.254z" fill="#2854C6"/><path d="M59.883 195.757a.663.663 0 10-1.104.735l14.42 21.742a.663.663 0 00.953.162l8.287-6.307a.663.663 0 10-.802-1.057l-7.725 5.878-14.029-21.153z" fill="#fff"/><path d="M171.847 277.603c-.027-.096-.274-.921-.363-1.22-.232-.785-.462-1.593-.708-2.493a142.139 142.139 0 01-1.998-8.333c-2.527-12.081-3.701-24.692-2.786-37.089a.663.663 0 10-1.323-.098c-.925 12.535.26 25.266 2.811 37.459a143.603 143.603 0 002.017 8.411c.248.91.481 1.726.716 2.52.091.309.335 1.121.358 1.203a.663.663 0 101.276-.36z" fill="#13C8A4"/><path d="M177.955 127.827a.457.457 0 11.899-.153l2.524 14.885a6.397 6.397 0 01-2.086 5.879l-5.832 5.12a.456.456 0 11-.602-.687l5.833-5.12a5.487 5.487 0 001.788-5.039l-2.524-14.885zm7.639 14.154a.457.457 0 01.901-.142l.667 4.229a6.402 6.402 0 01-.983 4.527l-4.315 6.526a.457.457 0 01-.761-.504l4.315-6.526a5.488 5.488 0 00.843-3.881l-.667-4.229zm-32.96-10.479a.457.457 0 01.912.033c-.159 4.34-1.804 6.893-4.929 7.511a.457.457 0 01-.177-.896c2.653-.525 4.049-2.692 4.194-6.648z" fill="#2854C6"/><path d="M65.216 107.136c5.57 13.312 5.929 27.524-11.497 33.101-11.856 3.778-26.048-1.799-31.617-15.111-5.57-13.313-.36-28.064 11.497-33.101 11.857-5.038 26.048 1.799 31.617 15.111z" fill="#fff"/><path d="M46.182 142.755c-10.6 0-21.019-6.476-25.33-17.09-5.749-14.032-.36-29.503 12.216-34.9 12.575-5.217 27.485 1.8 33.413 15.831 3.953 9.535 4.492 17.63 1.797 23.746-2.336 5.217-7.186 8.815-14.012 11.154-2.875.9-5.57 1.259-8.084 1.259zm-4.492-50.91c-2.514 0-5.21.54-7.724 1.619-11.138 4.677-15.989 18.709-10.779 31.302 5.57 13.132 19.581 17.629 30 14.211 6.288-1.978 10.42-5.216 12.396-9.714 2.515-5.397 1.976-12.772-1.796-21.587-3.953-9.715-12.935-15.831-22.096-15.831z" fill="#2854C6"/><path d="M55.344 107.675c.991 0 1.795-.806 1.795-1.8s-.804-1.8-1.795-1.8c-.992 0-1.796.806-1.796 1.8s.804 1.8 1.796 1.8z" fill="#2854C6"/><path d="M56.597 89.142c0-11.873-19.581 1.44-22.995 3.059-10.598 1.979-19.94 16.01-16.706 28.423 2.694 10.614 14.91 23.207 21.377 20.149 10.6-6.297 12.216-16.731 7.366-26.625 1.796-2.159-.36-5.397.539-7.915 1.257-4.138 10.599-12.953 10.419-17.09z" fill="#2854C6"/><path d="M41.867 113.069c-19.76-1.799-17.425 14.031-10.06 17.629 6.108 2.879 15.45 1.799 19.222-7.195 3.773-8.815-9.162-10.434-9.162-10.434z" fill="#fff"/><path d="M43.66 119.906c-3.772-1.98-8.442-1.08-11.137 2.34-.719.9.539 2.16 1.257 1.26 2.156-2.7 5.929-3.6 8.983-1.98 1.078.54 1.976-1.08.898-1.62zM66.66 111.632c-1.975-3.418-4.49-6.656-7.544-9.355-.898-.719-2.156.54-1.258 1.259 2.875 2.699 5.21 5.577 7.186 8.995.719.9 2.156 0 1.617-.899z" fill="#2854C6"/><path fill-rule="evenodd" clip-rule="evenodd" d="M198.468 36.17a2 2 0 012 2v22.555a2 2 0 01-2 2h-22.645a2 2 0 01-2-2V38.17a2 2 0 012-2h22.645z" fill="#13C8A4"/><path fill-rule="evenodd" clip-rule="evenodd" d="M191.43 52.57h2.741a.175.175 0 00.164-.118l.983-2.936.002-.006.863-2.952a.166.166 0 00-.014-.129l-.064-.12a.172.172 0 00-.153-.091h-3.482a.172.172 0 00-.171.144l-.509 3.148v.005l-.53 2.851a.173.173 0 00.002.075.172.172 0 00.168.129zm-6.752 0h2.73a.172.172 0 00.164-.118l.99-2.936.002-.006.868-2.952a.166.166 0 00-.013-.129l-.065-.12a.174.174 0 00-.153-.091h-3.507a.177.177 0 00-.113.04.175.175 0 00-.059.104l-.512 3.15v.002l-.502 2.854a.185.185 0 00.003.074.182.182 0 00.035.066.17.17 0 00.132.062zm-6.571 0h2.741a.175.175 0 00.165-.118l.983-2.936.001-.006.864-2.952a.175.175 0 00-.014-.129l-.065-.12a.18.18 0 00-.063-.066.176.176 0 00-.089-.025h-3.483a.174.174 0 00-.112.04.17.17 0 00-.058.104l-.509 3.148v.005l-.53 2.851a.171.171 0 00.036.142.172.172 0 00.133.062z" fill="#fff"/></svg>