<svg width="420" height="258" viewBox="0 0 420 258" fill="none" xmlns="http://www.w3.org/2000/svg">
<path d="M161.977 195.104C156.078 192.741 150.814 192.378 150.814 167.392C140.65 169.664 130.485 171.481 120.14 172.844C120.684 188.289 121.047 203.463 121.047 203.463L166.968 203.553C166.968 203.463 167.966 197.466 161.977 195.104Z" fill="white"/>
<path d="M167.604 204.189L120.413 204.098V203.462C120.413 203.281 120.049 188.198 119.505 172.843V172.207L120.14 172.117C130.668 170.663 140.923 168.846 150.724 166.665L151.541 166.483V167.301C151.541 190.288 155.987 192.014 161.251 194.013C161.614 194.104 161.977 194.286 162.249 194.377C168.693 196.921 167.695 203.462 167.695 203.553L167.604 204.189ZM121.683 202.735L166.334 202.826C166.424 201.372 166.061 197.466 161.614 195.739C161.251 195.558 160.888 195.467 160.616 195.376C154.989 193.286 150.179 191.378 150.089 168.3C140.65 170.39 130.849 172.117 120.775 173.479C121.32 186.745 121.683 199.737 121.683 202.735Z" fill="black"/>
<path d="M150.906 172.934C150.815 170.844 150.815 168.573 150.815 166.12C150.997 139.044 159.528 123.144 133.754 112.15C126.312 108.97 117.237 103.882 103.896 99.9753C89.6482 95.7959 93.3689 97.2495 93.3689 97.2495L73.4033 111.696C115.331 140.316 112.245 138.135 118.961 142.678C117.872 149.402 119.96 162.576 120.413 175.75C130.487 175.023 140.742 174.206 150.906 172.934Z" fill="white"/>
<path d="M119.596 176.387V175.66C119.414 170.572 119.051 165.665 118.688 160.85C118.053 153.491 117.599 147.13 118.144 142.86C113.969 140.044 113.606 139.771 101.263 131.412L72.1318 111.514L92.1882 97.0681C92.1882 96.9772 92.1882 96.7956 92.1882 96.7048C92.4605 95.8869 92.4605 95.7961 103.986 99.2487C113.878 102.156 121.501 105.699 127.673 108.607C129.942 109.697 132.029 110.606 134.025 111.514C154.717 120.328 153.81 132.23 152.357 150.22C151.995 154.944 151.541 160.305 151.541 166.12C151.541 168.573 151.541 170.844 151.631 172.934V173.57L150.996 173.661C141.195 174.842 131.121 175.751 120.322 176.387H119.596ZM74.4007 111.605L101.899 130.413C114.514 139.044 114.514 139.044 119.142 142.133L119.505 142.406L119.414 142.86C118.779 146.949 119.323 153.4 119.868 160.941C120.231 165.575 120.594 170.299 120.775 175.115C131.121 174.479 140.65 173.57 150.089 172.48C149.998 170.572 149.998 168.482 149.998 166.211C149.998 160.396 150.452 154.944 150.815 150.22C152.176 132.775 153.174 121.327 133.299 112.877C131.303 112.06 129.216 111.06 126.947 109.97C120.866 107.153 113.243 103.61 103.532 100.702C97.2703 98.8851 94.6387 98.1584 93.5496 97.8859L74.4007 111.605Z" fill="black"/>
<path d="M112.063 149.311C113.061 147.494 129.124 119.964 133.662 112.06C126.765 107.699 117.145 103.792 103.804 99.885C89.5561 95.7054 93.2771 97.1593 93.2771 97.1593L73.3115 111.605C96.2719 137.409 107.888 146.495 112.063 149.311Z" fill="#13C8A4"/>
<path d="M112.335 150.31L111.699 149.856C106.708 146.494 95.0916 137.136 72.7662 111.969L72.2217 111.424L92.1875 97.0681C92.1875 96.9772 92.1875 96.7956 92.1875 96.7048C92.4597 95.8869 92.4597 95.7961 103.985 99.2487C117.507 103.246 127.037 107.153 134.024 111.515L134.569 111.878L134.206 112.423C132.663 115.149 129.759 120.055 126.583 125.506C120.593 135.682 113.242 148.403 112.607 149.584L112.335 150.31ZM74.3091 111.696C95.9083 135.955 107.434 145.222 111.881 148.312C113.514 145.404 119.867 134.501 125.494 124.87C128.489 119.782 131.211 115.149 132.845 112.332C126.038 108.153 116.691 104.427 103.713 100.521C97.4511 98.7035 94.8192 97.9767 93.7301 97.704L74.3091 111.696Z" fill="black"/>
<path d="M151.722 181.929C141.376 183.201 130.94 184.109 120.503 184.745C120.866 195.194 121.047 203.371 121.047 203.371L166.969 203.462C166.969 203.462 167.967 197.465 161.886 195.012C157.53 193.286 153.446 192.65 151.722 181.929Z" fill="black"/>
<path d="M156.443 186.472L148.729 192.378C148.275 192.741 148.729 193.468 149.183 193.195L156.897 187.29C157.35 186.926 156.897 186.108 156.443 186.472Z" fill="white"/>
<path d="M158.711 189.379C156.895 190.924 155.353 192.832 154.264 195.012C153.991 195.557 154.808 196.012 155.08 195.467C156.17 193.377 157.622 191.56 159.437 190.015C159.891 189.652 159.164 189.016 158.711 189.379Z" fill="white"/>
<path d="M59.0635 100.975C55.4335 114.785 59.699 152.127 50.2606 171.116C44.8153 182.02 20.9473 224.449 20.9473 224.449L60.2432 248.164C60.2432 248.164 64.1457 243.531 60.2432 238.35C56.3411 233.172 51.9849 230.174 65.5978 207.732C84.7468 176.204 91.9161 159.941 91.9161 126.597C91.9161 111.787 90.6456 98.4307 90.6456 98.4307L59.0635 100.975Z" fill="white"/>
<path d="M60.4241 248.982L20.0391 224.632L20.4019 224.085C20.6743 223.631 44.3609 181.656 49.7152 170.844C55.5233 159.214 56.0679 139.862 56.5217 124.416C56.7941 114.603 57.0662 106.154 58.4274 100.884L58.5184 100.43H58.9719L91.1893 97.7949L91.28 98.4309C91.28 98.5217 92.5507 111.968 92.5507 126.687C92.5507 159.305 85.9257 175.66 66.1415 208.186C53.5269 228.902 56.6124 232.718 60.061 237.078C60.3334 237.352 60.5148 237.625 60.7872 237.989C64.9617 243.531 60.7872 248.618 60.7872 248.618L60.4241 248.982ZM21.8541 224.085L60.061 247.163C60.8779 245.891 62.6022 242.439 59.6981 238.714C59.4257 238.443 59.2443 238.169 58.9719 237.806C55.1605 232.991 51.8933 228.812 64.9617 207.369C84.6552 175.024 91.1893 158.851 91.1893 126.596C91.1893 113.786 90.1909 101.974 89.9188 99.1577L59.5164 101.702C58.246 106.881 58.0645 115.058 57.7921 124.507C57.3386 140.952 56.7941 159.578 50.895 171.48C45.9035 181.474 24.7581 218.997 21.8541 224.085Z" fill="black"/>
<path d="M62.1485 213.639C63.1468 211.822 64.2359 209.823 65.5971 207.734C84.746 176.206 91.9156 159.943 91.9156 126.598C91.9156 111.788 90.6448 98.4321 90.6448 98.4321L59.063 101.067C55.4327 114.877 59.6982 152.22 50.2598 171.209C47.6281 176.388 40.9124 188.835 34.4688 200.283C43.635 204.917 52.801 209.46 62.1485 213.639Z" fill="white"/>
<path d="M62.5127 214.547L61.9682 214.274C52.8929 210.186 43.8176 205.825 34.1977 200.828L33.5625 200.464L33.9256 199.828C42.0933 185.109 47.5386 175.024 49.7164 170.754C55.5248 159.124 56.0693 139.771 56.5229 124.326C56.7953 114.513 57.0674 106.064 58.4289 100.794L58.5196 100.34H58.9734L91.1905 97.7046L91.2814 98.3406C91.2814 98.4314 92.5519 111.878 92.5519 126.597C92.5519 159.215 85.9269 175.569 66.1427 208.096C64.8722 210.186 63.6925 212.185 62.6941 214.002L62.5127 214.547ZM35.4682 199.919C44.6342 204.644 53.3467 208.914 61.9682 212.73C62.8758 211.004 63.9646 209.186 65.1446 207.369C84.8378 175.024 91.3722 158.852 91.3722 126.597C91.3722 113.786 90.3738 101.975 90.1017 99.1584L59.6993 101.702C58.4289 106.881 58.2472 115.058 57.975 124.507C57.5212 140.953 56.9767 159.578 51.0779 171.481C48.7183 175.66 43.5454 185.291 35.4682 199.919Z" fill="black"/>
<path d="M94.2754 161.849C99.9929 140.77 90.6454 98.3398 90.6454 98.3398L59.0633 100.975C56.3407 111.514 58.065 135.682 54.9795 155.035C55.524 155.126 89.6471 161.486 94.2754 161.849Z" fill="#13C8A4"/>
<path d="M94.8195 162.577H94.275C90.554 162.304 68.501 158.306 55.614 155.853L54.1621 155.581L54.2528 154.945C55.7957 145.223 56.1585 134.138 56.4309 124.326C56.7031 114.513 56.9755 106.064 58.3367 100.794L58.4274 100.34H58.8812L91.0078 97.7046L91.0985 98.2497C91.4616 99.976 100.446 141.134 94.7286 162.031L94.8195 162.577ZM55.705 154.49H55.7957C76.3965 158.306 90.0095 160.669 93.7305 161.123C98.631 141.679 91.0985 104.246 90.0095 99.0673L59.5164 101.611C58.2459 106.79 58.0645 114.967 57.7921 124.417C57.52 133.957 57.2476 144.86 55.705 154.49Z" fill="black"/>
<path d="M58.2477 221.816C48.7186 217.546 39.3711 213.003 30.0234 208.188C24.9413 217.365 20.8574 224.45 20.8574 224.45L60.1534 248.165C60.1534 248.165 64.0558 243.531 60.1534 238.351C57.34 234.535 54.2546 231.81 58.2477 221.816Z" fill="black"/>
<path d="M59.9706 228.084L50.3508 229.176C49.8063 229.266 49.8063 230.174 50.3508 230.084L59.9706 228.993C60.5151 228.902 60.5151 227.994 59.9706 228.084Z" fill="white"/>
<path d="M60.4258 231.81C58.0663 232.174 55.7975 233.082 53.7103 234.354C53.1658 234.628 53.7103 235.445 54.1639 235.172C56.1606 233.9 58.3387 233.172 60.6982 232.718C61.2428 232.538 61.0613 231.72 60.4258 231.81Z" fill="white"/>
<path d="M149.09 135.683C147.366 135.319 146.005 133.956 145.732 132.23C145.641 131.685 144.734 131.867 144.825 132.503C145.188 134.501 146.73 136.228 148.818 136.591C149.362 136.591 149.635 135.774 149.09 135.683Z" fill="black"/>
<path d="M79.5751 168.663C79.8473 168.118 79.1213 167.664 78.7582 168.209C77.6691 170.117 77.6691 172.297 78.7582 174.206C79.0306 174.751 79.8473 174.296 79.5751 173.751C78.5768 172.116 78.5768 170.208 79.5751 168.663Z" fill="black"/>
<path d="M125.041 249.527C124.678 249.527 124.315 249.256 124.315 248.802V204.008H169.056C169.42 204.008 169.783 204.281 169.783 204.735C169.783 205.189 169.51 205.462 169.056 205.462H125.677V248.892C125.677 249.256 125.404 249.527 125.041 249.527Z" fill="#13C8A4"/>
<path d="M169.056 205.462C168.693 205.462 168.33 205.189 168.33 204.735V159.942H199.095C199.458 159.942 199.821 160.215 199.821 160.669C199.821 161.123 199.549 161.396 199.095 161.396H169.691V204.825C169.691 205.189 169.419 205.462 169.056 205.462Z" fill="#13C8A4"/>
<path d="M213.071 161.396H204.813C204.45 161.396 204.087 161.123 204.087 160.669C204.087 160.215 204.359 159.942 204.813 159.942H213.071C213.435 159.942 213.797 160.215 213.797 160.669C213.797 161.123 213.435 161.396 213.071 161.396Z" fill="#13C8A4"/>
<path d="M213.072 161.395C212.709 161.395 212.346 161.123 212.346 160.669V134.502C212.346 134.138 212.618 133.775 213.072 133.775C213.525 133.775 213.798 134.047 213.798 134.502V160.669C213.798 161.032 213.435 161.395 213.072 161.395Z" fill="#13C8A4"/>
<path d="M213.072 129.141C212.709 129.141 212.346 128.868 212.346 128.414V115.876H229.315C229.679 115.876 230.042 116.148 230.042 116.603C230.042 117.057 229.769 117.33 229.315 117.33H213.707V128.505C213.798 128.868 213.435 129.141 213.072 129.141Z" fill="#13C8A4"/>
<path d="M303.812 117.33H249.282C248.919 117.33 248.556 117.057 248.556 116.603C248.556 116.148 248.829 115.876 249.282 115.876H303.812C304.175 115.876 304.536 116.148 304.536 116.603C304.536 117.057 304.175 117.33 303.812 117.33Z" fill="#13C8A4"/>
<path d="M228.225 101.799L213.795 79.2667L214.43 78.9035C214.521 78.8124 225.048 73.2703 231.673 82.356C238.299 91.4417 228.951 101.073 228.86 101.163L228.225 101.799ZM215.701 79.8119L228.406 99.6188C230.221 97.4382 235.576 90.1695 230.494 83.1736C225.411 76.1777 217.97 78.7216 215.701 79.8119Z" fill="black"/>
<path d="M196.371 100.975C198.476 100.975 200.183 99.2667 200.183 97.1591C200.183 95.0517 198.476 93.3433 196.371 93.3433C194.266 93.3433 192.56 95.0517 192.56 97.1591C192.56 99.2667 194.266 100.975 196.371 100.975Z" fill="#13C8A4"/>
<path d="M196.371 101.612C193.921 101.612 191.925 99.6136 191.925 97.1605C191.925 94.7072 193.921 92.7085 196.371 92.7085C198.822 92.7085 200.818 94.7072 200.818 97.1605C200.818 99.6136 198.822 101.612 196.371 101.612ZM196.371 94.0712C194.647 94.0712 193.286 95.4343 193.286 97.1605C193.286 98.8868 194.647 100.25 196.371 100.25C198.096 100.25 199.457 98.8868 199.457 97.1605C199.457 95.4343 198.096 94.0712 196.371 94.0712Z" fill="#13C8A4"/>
<path d="M162.976 154.763C162.704 154.763 162.431 154.582 162.34 154.4L156.714 142.043C156.532 141.68 156.714 141.316 157.077 141.135C157.44 140.953 157.803 141.135 157.985 141.498L163.611 153.855C163.793 154.218 163.611 154.582 163.248 154.763C163.248 154.763 163.066 154.763 162.976 154.763Z" fill="black"/>
<path d="M153.991 151.4C153.718 151.4 153.446 151.218 153.355 151.036C153.174 150.673 153.355 150.31 153.718 150.128L166.061 144.495C166.424 144.313 166.787 144.495 166.968 144.858C167.15 145.222 166.968 145.585 166.605 145.767L154.263 151.4C154.172 151.4 154.081 151.4 153.991 151.4Z" fill="black"/>
<path d="M105.074 202.644L101.172 218.453L115.783 213.093L105.074 202.644Z" fill="#13C8A4"/>
<path d="M100.264 219.544L104.801 201.372L117.053 213.456L100.264 219.544ZM105.528 204.007L102.17 217.364L114.512 212.82L105.528 204.007Z" fill="#13C8A4"/>
<path d="M26.3916 130.868C26.2101 130.868 26.0287 130.777 25.9378 130.686L20.4927 125.871C20.2203 125.598 20.2203 125.235 20.402 124.871C20.6742 124.599 21.0373 124.599 21.4001 124.78L26.8454 129.596C27.1178 129.868 27.1178 130.232 26.9361 130.595C26.7547 130.777 26.5732 130.868 26.3916 130.868Z" fill="black"/>
<path d="M0.708821 166.029C0.527398 166.029 0.345977 165.938 0.164296 165.756C-0.10784 165.484 -0.0171287 165.029 0.255264 164.757L8.69506 157.761C8.96746 157.488 9.42127 157.579 9.69341 157.852C9.9658 158.124 9.87509 158.578 9.6027 158.851L1.16264 165.847C0.981215 165.938 0.799791 166.029 0.708821 166.029Z" fill="black"/>
<path d="M103.804 196.012C103.713 196.012 103.623 196.012 103.532 196.012L95.9994 193.286C95.6363 193.195 95.4549 192.741 95.5456 192.377C95.6363 192.014 96.0901 191.832 96.4532 191.923L103.986 194.649C104.349 194.74 104.53 195.194 104.439 195.557C104.349 195.83 104.076 196.012 103.804 196.012Z" fill="black"/>
<path d="M102.353 199.919C102.262 199.919 102.262 199.919 102.171 199.919L95.183 198.102C94.8199 198.011 94.6385 197.648 94.7292 197.285C94.8199 196.921 95.183 196.739 95.5461 196.83L102.534 198.647C102.897 198.738 103.079 199.102 102.988 199.465C102.988 199.738 102.625 199.919 102.353 199.919Z" fill="black"/>
<path d="M135.296 226.085L163.52 210.549V245.711L135.296 226.085Z" fill="#13C8A4"/>
<path d="M164.155 246.983L133.935 226.085L164.155 209.459V246.983ZM136.567 226.178L162.794 244.349V211.64L136.567 226.178Z" fill="#13C8A4"/>
<path d="M13.8332 237.455L7.86035 240.907L11.3089 246.888L17.2817 243.433L13.8332 237.455Z" fill="white"/>
<path d="M11.0557 247.891L6.88086 240.714L14.0504 236.534L18.225 243.712L11.0557 247.891ZM8.78684 241.168L11.6002 245.985L16.41 243.167L13.5966 238.351L8.78684 241.168Z" fill="black"/>
<path d="M107.799 71.6275C118.689 66.5395 122.773 65.9943 129.489 67.2663C134.661 68.2658 135.478 71.6275 136.93 74.7165C139.562 80.1681 135.932 79.8046 135.932 79.8046C135.932 79.8046 137.203 82.1671 133.482 81.8035C133.482 81.8035 132.574 83.0755 129.307 81.8035C126.04 80.5316 113.516 82.2579 111.973 86.528C111.157 88.8903 104.35 86.8916 102.263 82.803C100.538 79.2594 102.898 73.8989 107.799 71.6275Z" fill="white"/>
<path d="M110.067 88.2544C107.254 88.2544 103.261 86.1646 101.718 83.1664C100.901 81.5309 100.81 79.532 101.536 77.5332C102.444 74.8075 104.713 72.3544 107.526 71.0822C118.144 66.1761 122.5 65.2674 129.67 66.6304C134.48 67.5388 135.841 70.4462 137.021 73.2628C137.202 73.6263 137.384 74.0807 137.565 74.4439C138.745 76.8064 138.926 78.5327 138.11 79.532C137.746 79.9863 137.293 80.259 136.839 80.3498C136.839 80.7131 136.839 81.1674 136.567 81.5309C136.113 82.2577 135.206 82.5304 133.753 82.4394C133.209 82.8937 131.848 83.4388 129.125 82.3485C127.219 81.5309 120.322 81.9853 115.966 83.984C114.242 84.8019 113.153 85.7103 112.789 86.7098C112.608 87.1641 112.063 88.0725 110.521 88.1636C110.339 88.2544 110.248 88.2544 110.067 88.2544ZM108.161 72.2636C105.711 73.4447 103.714 75.5342 102.897 77.8965C102.353 79.532 102.353 81.1674 102.988 82.4394C104.44 85.347 108.343 86.9825 110.339 86.8006C110.702 86.8006 111.338 86.7098 111.428 86.2554C111.882 84.8927 113.243 83.7115 115.331 82.8029C119.959 80.7131 127.129 80.0771 129.579 81.0766C132.211 82.1669 132.937 81.3493 132.937 81.3493L133.209 80.9858L133.572 81.0766C135.115 81.2582 135.387 80.895 135.478 80.8042C135.569 80.6223 135.478 80.259 135.387 80.0771L134.752 78.896L136.022 79.0779C136.022 79.0779 136.658 79.1687 137.021 78.7144C137.202 78.4416 137.565 77.5332 136.295 74.9891C136.113 74.535 135.931 74.1715 135.75 73.7171C134.57 70.9914 133.572 68.6291 129.397 67.8115C123.045 66.7212 119.142 67.1756 108.161 72.2636Z" fill="black"/>
<path d="M121.774 81.0768C119.142 81.7128 116.328 80.7135 114.786 78.4421C114.423 77.9878 113.697 78.4421 113.969 78.8964C115.784 81.4403 118.87 82.6215 121.955 81.8947C122.59 81.8039 122.318 80.8952 121.774 81.0768Z" fill="black"/>
<path d="M131.665 82.5305C131.938 82.4397 132.301 82.3486 132.573 82.3486C131.756 80.3499 130.939 78.442 130.032 76.443C129.124 74.6259 128.398 72.4453 126.493 71.6277C125.948 71.355 125.494 72.1726 126.039 72.4453C127.944 73.2629 128.852 75.9886 129.669 77.7149C130.304 79.2596 131.03 80.895 131.665 82.5305Z" fill="black"/>
<path d="M137.02 82.2577C135.75 78.6235 134.116 75.2617 132.029 72.0816C131.757 71.6276 130.94 72.0816 131.212 72.536C133.209 75.7161 134.842 78.987 136.113 82.5304C136.294 82.9847 137.202 82.8028 137.02 82.2577Z" fill="black"/>
<path d="M127.583 79.1693C126.312 77.8063 124.406 78.079 123.045 76.9887C122.228 76.3527 121.774 75.4441 121.048 74.8081C120.322 74.0813 119.596 73.5362 118.689 73.0818C118.144 72.8091 117.691 73.5362 118.235 73.8994C119.324 74.5354 120.232 75.2624 121.048 76.1709C121.593 76.8068 121.956 77.6247 122.682 78.079C123.317 78.4423 124.134 78.5331 124.86 78.715C125.495 78.8966 126.312 79.1693 126.766 79.6234C128.036 80.8045 126.947 82.44 125.223 82.5308C124.678 82.5308 124.678 83.4395 125.223 83.4395C126.312 83.3487 127.582 83.2579 128.127 82.1676C128.763 81.1681 128.399 79.8961 127.583 79.1693Z" fill="black"/>
<path d="M104.349 19.1114C102.716 16.4764 100.174 14.4775 97.1796 13.9323C90.7362 12.8423 84.565 17.7484 83.3852 24.9262C83.3852 24.9262 83.3852 24.9262 83.3852 25.017C83.2942 25.7438 83.2035 26.4709 83.2035 27.1976C80.2995 28.2879 79.7549 32.1038 81.2071 34.4663C82.5683 36.5558 84.8371 37.7369 87.5598 37.0102C89.1026 38.3729 90.8269 39.3724 92.8233 39.8267C101.808 42.0982 106.799 36.3742 106.618 28.8331C106.436 25.5622 106.164 22.0188 104.349 19.1114Z" fill="white"/>
<path d="M96.4535 41.0991C95.183 41.0991 93.9125 40.9174 92.4604 40.5542C90.5546 40.0998 88.7396 39.1003 87.1968 37.8284C84.4741 38.3735 82.0239 37.2832 80.481 34.8299C79.5736 33.2855 79.3012 31.2865 79.8458 29.5603C80.2996 28.2883 81.1162 27.2888 82.2963 26.7437C82.2963 26.1077 82.387 25.4717 82.4777 24.8358V24.745C83.1129 20.9289 85.2003 17.4763 88.2858 15.2957C90.9177 13.3878 94.094 12.6607 97.089 13.2059C100.174 13.7511 102.897 15.6592 104.803 18.6574C106.8 21.7465 107.072 25.7442 107.162 28.8335C107.253 33.1036 105.71 36.7381 102.988 38.9187C101.173 40.4631 98.9947 41.0991 96.4535 41.0991ZM87.6506 36.3746L87.9227 36.6473C89.3749 37.9192 91.0992 38.8279 92.9142 39.3728C96.6352 40.3723 99.9023 39.9179 102.171 38.01C104.531 36.1021 105.892 32.8312 105.892 29.0151C105.892 25.9261 105.529 22.3827 103.804 19.5661C102.08 16.9312 99.7207 15.2049 97.089 14.7505C94.3663 14.2962 91.6437 14.9322 89.2842 16.6585C86.5615 18.5666 84.6558 21.7465 84.0206 25.199V25.2901C83.9296 25.9261 83.8389 26.562 83.8389 27.3796V27.834L83.3851 28.0156C82.1146 28.47 81.5701 29.4694 81.2979 30.1962C80.8441 31.4684 81.0255 33.1036 81.7517 34.2848C83.0222 36.2837 85.0187 37.1013 87.3782 36.5562L87.6506 36.3746Z" fill="black"/>
<path d="M98.0194 27.8946C98.2871 27.4705 98.1608 26.9093 97.7372 26.6413C97.3138 26.373 96.753 26.4996 96.4852 26.9235C96.2175 27.3477 96.3438 27.9088 96.7672 28.1772C97.1908 28.4452 97.7516 28.3188 98.0194 27.8946Z" fill="black"/>
<path d="M103.17 32.2866C103.261 30.2878 102.988 28.198 102.535 26.2901C102.353 25.745 101.536 25.9266 101.627 26.4718C102.081 28.3797 102.353 30.2878 102.262 32.2866C102.172 32.8317 103.079 32.9225 103.17 32.2866Z" fill="black"/>
<path d="M88.2857 32.1037C87.1966 30.2863 84.9278 29.3779 82.9314 30.0139C82.3868 30.1955 82.5682 31.1042 83.1128 30.9225C84.7464 30.3774 86.5614 31.0134 87.469 32.4669C87.8319 33.0121 88.6488 32.5577 88.2857 32.1037Z" fill="black"/>
<path d="M87.9239 27.3796C89.4665 29.1967 90.2835 25.6533 94.8211 22.2916C96.8175 20.8378 105.167 23.2 107.89 17.476C110.34 11.3888 99.9033 11.0252 97.0899 13.9326C90.6463 12.8423 82.1155 18.112 82.9325 28.0156C82.9325 28.1064 86.9256 27.0161 87.9239 27.3796Z" fill="black"/>
<path d="M108.07 105.61C90.0101 108.971 53.6182 106.518 53.6182 106.518C53.6182 106.518 57.0668 85.9843 62.0582 66.5409C66.5959 48.9146 75.9433 42.1911 85.3817 41.6459C89.1027 41.3735 92.8234 42.1911 96.3627 43.5538C98.6316 44.4625 100.447 45.5528 101.899 46.9156C110.702 54.7294 108.161 69.4483 105.347 77.1713C102.08 86.257 108.07 105.61 108.07 105.61Z" fill="white"/>
<path d="M80.2081 108.062C66.232 108.062 53.7989 107.245 53.5267 107.245L52.8008 107.154L52.8915 106.427C52.8915 106.245 56.3401 85.6206 61.4223 66.3588C66.9583 45.0984 78.8469 41.2823 85.381 40.919C89.0113 40.7371 92.8227 41.3731 96.6344 42.8269C98.8125 43.7356 100.809 44.9167 102.352 46.2795C113.061 55.8195 107.253 73.7183 105.982 77.2619C102.806 86.0749 108.614 105.064 108.614 105.246L108.795 105.973L108.069 106.154C100.718 107.608 90.1001 108.062 80.2081 108.062ZM54.4344 105.882C59.698 106.154 90.6446 107.881 107.162 105.064C106.073 101.339 101.717 85.2573 104.711 76.9892C105.891 73.6275 111.427 56.3647 101.444 47.4606C99.9923 46.0978 98.1773 45.0075 96.0899 44.1897C92.4598 42.7361 88.9203 42.1001 85.4717 42.3726C74.7628 43.0086 66.6859 51.6399 62.7835 66.8132C58.2458 83.8943 55.0696 102.066 54.4344 105.882Z" fill="black"/>
<path d="M101.897 46.9156C97.9945 50.0049 91.5511 51.4585 85.3799 41.6459C89.1006 41.3735 92.8216 42.1911 96.3609 43.5538C98.6297 44.4625 100.445 45.5528 101.897 46.9156Z" fill="white"/>
<path d="M95.9082 49.9134C95.4547 49.9134 94.9102 49.9134 94.4564 49.8225C91.0078 49.2774 87.8313 46.6424 84.9272 42.0996L84.292 41.1001L85.4718 41.0093C89.1018 40.8276 92.9135 41.4636 96.7252 42.9174C98.9033 43.8258 100.9 45.007 102.443 46.37L103.078 46.9151L102.443 47.4603C100.9 48.6414 98.6309 49.9134 95.9082 49.9134ZM86.6515 42.2812C89.1018 45.9156 91.8244 47.9144 94.6378 48.4595C97.179 48.9139 99.3571 47.9144 100.809 46.9151C99.4478 45.8248 97.9049 44.9162 96.0899 44.1894C92.9135 42.9174 89.7373 42.2812 86.6515 42.2812Z" fill="black"/>
<path d="M285.2 90.2168H267.685V67.9568H285.2V90.2168Z" fill="#13C8A4"/>
<path d="M276.489 48.0594L259.337 70.3193H293.642L276.489 48.0594Z" fill="#13C8A4"/>
<path d="M232.911 36.2883C232.73 36.2883 232.548 36.1975 232.458 36.1067L226.649 30.2917C226.377 30.0192 226.377 29.5649 226.649 29.2924C226.922 29.0197 227.375 29.0197 227.648 29.2924L233.456 35.1072C233.728 35.3797 233.728 35.834 233.456 36.1067C233.184 36.1975 233.002 36.2883 232.911 36.2883Z" fill="black"/>
<path d="M227.103 36.2888C226.922 36.2888 226.74 36.198 226.649 36.1072C226.377 35.8345 226.377 35.3802 226.649 35.1077L232.458 29.2929C232.73 29.0202 233.184 29.0202 233.456 29.2929C233.728 29.5654 233.728 30.0197 233.456 30.2921L227.648 36.1072C227.375 36.198 227.194 36.2888 227.103 36.2888Z" fill="black"/>
<path d="M157.712 74.5361C163.157 78.0795 169.056 82.5316 156.623 94.2522C146.822 103.429 157.712 74.5361 157.712 74.5361Z" fill="white"/>
<path d="M153.628 96.7048C153.356 96.7048 152.993 96.614 152.721 96.4323C149.726 94.4334 155.171 78.8968 156.986 74.1724L157.259 73.3545L157.985 73.8088C160.616 75.5351 164.246 77.8974 164.519 81.8042C164.791 85.3476 162.341 89.5272 156.986 94.6152C156.079 95.7053 154.808 96.7048 153.628 96.7048ZM157.985 75.5351C154.717 84.53 152.176 94.4333 153.538 95.342C153.538 95.342 154.082 95.7053 156.079 93.7066C161.161 88.891 163.521 85.0752 163.248 81.9859C162.976 79.2604 160.798 77.443 157.985 75.5351Z" fill="black"/>
<path d="M159.709 75.4437C160.525 70.5373 159.164 66.5396 155.625 70.5373C152.085 74.6258 153.537 83.9843 149.272 82.0763C149.272 82.0763 140.015 81.9853 125.041 86.8008C116.147 89.6174 101.264 82.7123 92.642 68.4478C88.1043 74.2626 82.9315 79.623 77.5771 84.711C82.9315 92.1613 88.1043 101.792 102.443 107.335C120.594 114.422 141.104 101.429 152.267 97.0677C163.248 92.7973 158.892 80.3501 159.709 75.4437Z" fill="white"/>
<path d="M113.88 110.15C109.977 110.15 105.984 109.514 102.082 108.06C89.4671 103.154 83.9311 95.2496 79.0306 88.2537C78.3044 87.2542 77.5784 86.1639 76.9432 85.2552L76.5801 84.8009L77.0339 84.3468C83.2958 78.3501 88.1059 73.1712 92.099 68.0832L92.7342 67.2656L93.2788 68.0832C101.81 82.1662 116.512 88.7986 124.951 86.1639C139.835 81.4394 149.001 81.4394 149.364 81.4394H149.546L149.636 81.5302C150.362 81.8026 150.635 81.7118 150.725 81.621C151.542 81.1667 151.996 79.1679 152.45 77.2598C152.994 74.8067 153.629 71.9901 155.263 70.0822C156.715 68.4467 157.986 67.8105 159.075 68.3557C160.89 69.1735 160.98 72.7169 160.527 75.5335C160.345 76.6238 160.436 78.1684 160.527 79.9855C160.89 85.7095 161.434 94.2501 152.54 97.7935C150.544 98.6113 148.093 99.7016 145.552 100.883C136.568 104.971 125.314 110.15 113.88 110.15ZM78.3951 84.8919C79.0306 85.7095 79.5749 86.6182 80.2104 87.4358C84.9294 94.2501 90.3747 101.973 102.626 106.788C117.147 112.422 133.21 105.062 144.826 99.6108C147.367 98.4294 149.818 97.3391 151.905 96.5215C159.891 93.4325 159.438 85.7095 159.075 80.0764C158.984 78.1684 158.893 76.6238 159.075 75.3519C159.619 72.2626 159.075 69.9911 158.348 69.6279C157.895 69.446 157.078 69.9003 156.171 70.9906C154.809 72.6261 154.174 75.17 153.72 77.5325C153.176 79.9855 152.722 82.1662 151.27 82.8021C150.635 83.0746 149.908 83.0746 149.092 82.8021C147.912 82.8021 138.927 83.0746 125.224 87.4358C116.512 90.1616 101.719 84.1649 92.5526 69.6279C88.7411 74.4432 84.2942 79.2588 78.3951 84.8919Z" fill="black"/>
<path d="M156.17 76.6242C155.353 75.5341 153.81 75.5341 152.993 76.6242C152.63 77.0785 153.447 77.5329 153.81 77.0785C155.807 76.1701 156.079 78.3507 155.625 79.6227C155.535 79.8951 155.535 80.1678 155.444 80.3494C155.262 81.0762 155.081 81.8941 154.899 82.6209C154.264 84.8015 153.538 86.3461 151.45 87.5273C148.184 89.2535 144.644 90.5255 141.105 91.4341C140.56 91.6158 140.742 92.4334 141.377 92.3426C144.644 91.525 147.82 90.3438 150.815 88.89C153.538 87.5273 154.808 86.2551 155.625 83.2568C156.17 81.7122 157.531 78.3505 156.17 76.6242Z" fill="black"/>
<path d="M91.9154 66.6299C91.6433 66.6299 91.4619 66.5391 91.2802 66.2667C91.1895 66.0848 88.9207 61.6327 87.7409 57.9986C87.6502 57.635 87.8316 57.2718 88.1947 57.1809C88.5578 57.0899 88.9207 57.2718 89.0114 57.635C90.1911 61.1787 92.46 65.7215 92.5509 65.7215C92.7324 66.0848 92.5509 66.4483 92.2785 66.6299C92.0971 66.6299 92.0064 66.6299 91.9154 66.6299Z" fill="black"/>
<path d="M75.4898 84.5293C75.2174 84.5293 75.036 84.4385 74.8543 84.1658L69.5907 74.8076C69.4093 74.4441 69.5 74.0805 69.8631 73.8989C70.2259 73.7173 70.589 73.8081 70.7705 74.1716L76.0343 83.5298C76.2158 83.8933 76.1251 84.2566 75.7619 84.4385C75.7619 84.5293 75.6712 84.5293 75.4898 84.5293Z" fill="black"/>
<path d="M160.526 79.3506C160.435 79.8049 160.435 80.1684 160.344 80.6228C161.706 82.6215 161.615 85.1656 159.8 87.0735C159.709 87.1643 159.709 87.1644 159.709 87.2552C159.709 87.346 159.709 87.437 159.709 87.5279C159.8 87.8003 160.163 88.073 160.435 87.8003C162.795 85.2564 162.795 81.8039 160.526 79.3506Z" fill="black"/>
<path d="M151.632 81.0771H116.511C114.787 81.0771 114.787 83.8029 116.511 83.8029H151.632C153.357 83.8029 153.357 81.0771 151.632 81.0771Z" fill="black"/>
<path d="M152.357 82.9838L164.246 49.9116C164.881 48.2764 162.249 47.3677 161.705 49.0032L149.816 82.0752C149.272 83.7106 151.813 84.6193 152.357 82.9838Z" fill="black"/>
<path d="M151.631 61.0876C151.45 61.0876 151.269 60.9968 151.087 60.8152L144.281 53.0922C144.008 52.8195 144.099 52.3654 144.371 52.0927C144.644 51.8203 145.097 51.9111 145.37 52.1835L152.176 59.9065C152.448 60.179 152.358 60.6333 152.085 60.906C151.904 60.9968 151.813 61.0876 151.631 61.0876Z" fill="black"/>
<path d="M147.095 65.4476C147.004 65.4476 146.913 65.4476 146.822 65.3568L137.656 60.9956C137.293 60.814 137.203 60.4505 137.294 60.0872C137.475 59.7237 137.838 59.6329 138.201 59.7237L147.367 64.0849C147.73 64.2665 147.821 64.6301 147.73 64.9933C147.639 65.266 147.367 65.4476 147.095 65.4476Z" fill="black"/>
<path d="M381.475 10.3344C381.475 10.072 381.262 9.85938 380.999 9.85938C380.736 9.85938 380.523 10.072 380.523 10.3344V41.967H379.261C378.21 41.967 377.357 42.8176 377.357 43.8669V60.8908C377.357 61.9402 378.21 62.7908 379.261 62.7908H380.523V64.2787C380.523 64.541 380.736 64.7537 380.999 64.7537C381.262 64.7537 381.475 64.541 381.475 64.2787V62.7908H382.737C383.788 62.7908 384.64 61.9402 384.64 60.8908V43.8669C384.64 42.8176 383.788 41.967 382.737 41.967H381.475V10.3344Z" fill="#13C8A4"/>
<path d="M372.771 73.7568C372.771 74.8061 371.919 75.6567 370.868 75.6567L367.392 75.6567C366.341 75.6567 365.489 74.8061 365.489 73.7568L365.489 51.8331C365.489 50.7838 366.341 49.9332 367.392 49.9332L370.868 49.9332C371.919 49.9332 372.771 50.7838 372.771 51.8331L372.771 73.7568Z" fill="#13C8A4"/>
<path d="M393.699 0.474986C393.699 0.212658 393.486 0 393.223 0C392.961 0 392.747 0.212658 392.747 0.474986L392.747 20.5989H391.129C390.078 20.5989 389.226 21.4495 389.226 22.4989V146.418C389.226 147.468 390.078 148.318 391.129 148.318H392.391V157.441C392.391 157.704 392.604 157.916 392.867 157.916C393.13 157.916 393.343 157.704 393.343 157.441V148.318H394.605C395.656 148.318 396.508 147.468 396.508 146.418V22.4989C396.508 21.4495 395.656 20.5989 394.605 20.5989H393.699L393.699 0.474986Z" fill="#13C8A4"/>
<path d="M405.392 15.7714C405.392 15.509 405.179 15.2964 404.916 15.2964C404.653 15.2964 404.44 15.509 404.44 15.7714L404.44 21.7259H403.178C402.127 21.7259 401.274 22.5765 401.274 23.6258V46.4212C401.274 47.4705 402.127 48.3212 403.178 48.3212H404.44V66.3431C404.44 66.6054 404.653 66.818 404.916 66.818C405.179 66.818 405.392 66.6054 405.392 66.3431V48.3212H406.654C407.705 48.3212 408.557 47.4705 408.557 46.4212V23.6258C408.557 22.5765 407.705 21.7259 406.654 21.7259H405.392L405.392 15.7714Z" fill="#13C8A4"/>
<path d="M333.999 16.1141C333.999 15.8518 333.786 15.6392 333.523 15.6392C333.26 15.6392 333.047 15.8518 333.047 16.1141L333.047 28.5626H331.786C330.734 28.5626 329.882 29.4132 329.882 30.4625V53.2579C329.882 54.3073 330.734 55.1579 331.786 55.1579H333.047V89.8321C333.047 90.0945 333.26 90.3071 333.523 90.3071C333.786 90.3071 333.999 90.0945 333.999 89.8321V55.1579H335.261C336.312 55.1579 337.165 54.3073 337.165 53.2579V30.4625C337.165 29.4132 336.312 28.5626 335.261 28.5626H333.999L333.999 16.1141Z" fill="#13C8A4"/>
<path d="M310.262 23.5033C310.262 23.241 310.049 23.0283 309.786 23.0283C309.523 23.0283 309.31 23.241 309.31 23.5033L309.31 39.0054H308.048C306.997 39.0054 306.145 39.856 306.145 40.9053V70.2249C306.145 71.2742 306.997 72.1248 308.048 72.1248H309.31V89.8313C309.31 90.0937 309.523 90.3063 309.786 90.3063C310.049 90.3063 310.262 90.0937 310.262 89.8313V72.1248H311.524C312.575 72.1248 313.427 71.2742 313.427 70.2249V40.9053C313.427 39.856 312.575 39.0054 311.524 39.0054H310.262L310.262 23.5033Z" fill="#13C8A4"/>
<path d="M358.998 57.1073H357.736L357.736 51.9755C357.736 51.7131 357.523 51.5005 357.261 51.5005C356.998 51.5005 356.785 51.7131 356.785 51.9755L356.785 57.1073H355.523C354.471 57.1073 353.619 57.958 353.619 59.0073L353.619 96.3422C353.619 97.3915 354.471 98.2421 355.523 98.2421H356.785L356.785 139.153C356.785 139.415 356.998 139.628 357.261 139.628C357.523 139.628 357.736 139.415 357.736 139.153L357.736 98.2421H358.998C360.05 98.2421 360.902 97.3915 360.902 96.3422L360.902 59.0073C360.902 57.958 360.05 57.1073 358.998 57.1073Z" fill="#EE7D8B"/>
<path d="M417.432 57.1073H416.17L416.17 51.9755C416.17 51.7131 415.957 51.5005 415.694 51.5005C415.431 51.5005 415.218 51.7131 415.218 51.9755L415.218 57.1073H413.956C412.905 57.1073 412.053 57.958 412.053 59.0073L412.053 96.3422C412.053 97.3915 412.905 98.2421 413.956 98.2421H415.218L415.218 139.153C415.218 139.415 415.431 139.628 415.694 139.628C415.957 139.628 416.17 139.415 416.17 139.153L416.17 98.2421H417.432C418.483 98.2421 419.336 97.3915 419.336 96.3422L419.336 59.0073C419.336 57.958 418.483 57.1073 417.432 57.1073Z" fill="#EE7D8B"/>
<path d="M323.392 43.2509H322.13L322.13 40.6303C322.13 40.3679 321.917 40.1553 321.654 40.1553C321.391 40.1553 321.178 40.3679 321.178 40.6303L321.178 43.2509H319.916C318.865 43.2509 318.013 44.1016 318.013 45.1509L318.013 62.3563C318.013 63.4056 318.865 64.2562 319.916 64.2562H321.179L321.179 85.1468C321.179 85.4091 321.392 85.6218 321.655 85.6218C321.918 85.6218 322.131 85.4091 322.131 85.1468L322.131 64.2562H323.392C324.443 64.2562 325.296 63.4056 325.296 62.3563L325.296 45.1509C325.296 44.1016 324.443 43.2509 323.392 43.2509Z" fill="#EE7D8B"/>
<path d="M347.129 45.4484H345.867L345.867 24.5678C345.867 24.3054 345.654 24.0928 345.391 24.0928C345.129 24.0928 344.916 24.3054 344.916 24.5678L344.916 45.4484H343.654C342.602 45.4484 341.75 46.299 341.75 47.3483L341.75 166.249C341.75 167.299 342.602 168.149 343.654 168.149H344.916L344.916 192.369C344.916 192.632 345.129 192.844 345.391 192.844C345.654 192.844 345.867 192.632 345.867 192.369L345.867 168.149H347.129C348.181 168.149 349.033 167.299 349.033 166.249L349.033 47.3483C349.033 46.299 348.181 45.4484 347.129 45.4484Z" fill="#13C8A4"/>
</svg>
