<svg width="68" height="68" viewBox="0 0 68 68" fill="none" xmlns="http://www.w3.org/2000/svg">
<path d="M34 68C52.7777 68 68 52.7777 68 34C68 15.2223 52.7777 0 34 0C15.2223 0 0 15.2223 0 34C0 52.7777 15.2223 68 34 68Z" fill="#13C8A4"/>
<path d="M19 14C18.4477 14 18 14.4477 18 15V54C18 54.5523 18.4477 55 19 55H49C49.5523 55 50 54.5523 50 54V24H41C40.4764 24 40 23.5236 40 23V14H19ZM42 15V22H49L42 15ZM23.5 30H44.5C45.0523 30 45.5 30.4477 45.5 31C45.5 31.5523 45.0523 32 44.5 32H23.5C22.9477 32 22.5 31.5523 22.5 31C22.5 30.4477 22.9477 30 23.5 30ZM23.5 38H44.5C45.0523 38 45.5 38.4477 45.5 39C45.5 39.5523 45.0523 40 44.5 40H23.5C22.9477 40 22.5 39.5523 22.5 39C22.5 38.4477 22.9477 38 23.5 38ZM23.5 46H44.5C45.0523 46 45.5 46.4477 45.5 47C45.5 47.5523 45.0523 48 44.5 48H23.5C22.9477 48 22.5 47.5523 22.5 47C22.5 46.4477 22.9477 46 23.5 46Z" fill="white"/>
</svg>
