<svg width="102" height="12" viewBox="0 0 102 12" fill="none" xmlns="http://www.w3.org/2000/svg">
<g clip-path="url(#clip0)">
<path fill-rule="evenodd" clip-rule="evenodd" d="M14.6746 9.37765H17.9264C17.9446 9.37765 17.9609 9.36587 17.9667 9.3484L19.0667 6.03431L19.0672 6.03273L20.0207 2.74539C20.0239 2.7346 20.0227 2.723 20.0174 2.7131L19.8787 2.45229C19.8713 2.43837 19.8569 2.42969 19.8413 2.42969H15.8533C15.8324 2.42969 15.8147 2.44495 15.8113 2.46571L15.2397 6.03303L15.2396 6.03402L14.6328 9.32697C14.6285 9.35024 14.6437 9.37261 14.6668 9.37693C14.6694 9.37741 14.672 9.37765 14.6746 9.37765Z" fill="white"/>
<path fill-rule="evenodd" clip-rule="evenodd" d="M7.3533 9.37765H10.5913C10.6095 9.37765 10.6258 9.36591 10.6316 9.34848L11.7391 6.03431C11.7393 6.03379 11.7395 6.03326 11.7396 6.03273L12.6996 2.74549C12.7028 2.73464 12.7016 2.72297 12.6962 2.71302L12.5566 2.45218C12.5492 2.43833 12.5348 2.42969 12.5192 2.42969H8.50358C8.48275 2.42969 8.46498 2.44492 8.46163 2.46566L7.88611 6.03325C7.88608 6.03343 7.88605 6.03362 7.88602 6.0338L7.31144 9.32737C7.30737 9.35068 7.32282 9.3729 7.34593 9.37701C7.34837 9.37744 7.35083 9.37765 7.3533 9.37765Z" fill="white"/>
<path fill-rule="evenodd" clip-rule="evenodd" d="M0.224636 9.37765H3.47642C3.49469 9.37765 3.51092 9.36587 3.51672 9.3484L4.61678 6.03431C4.61695 6.03379 4.61711 6.03326 4.61727 6.03273L5.5708 2.74539C5.57392 2.7346 5.57273 2.723 5.56746 2.7131L5.42876 2.45229C5.42136 2.43837 5.40697 2.42969 5.39131 2.42969H1.40333C1.38248 2.42969 1.3647 2.44495 1.36138 2.46571L0.789777 6.03303C0.789724 6.03336 0.789667 6.03369 0.789606 6.03402L0.182852 9.32697C0.178564 9.35024 0.193796 9.37261 0.216873 9.37693C0.219433 9.37741 0.222032 9.37765 0.224636 9.37765Z" fill="white"/>
<path fill-rule="evenodd" clip-rule="evenodd" d="M36.4477 8.04249C36.4477 10.2583 34.7752 11.7397 32.0806 11.7397C30.6713 11.7397 29.324 11.3175 28.5806 10.5854L29.4013 8.97792C29.9589 9.57055 30.8417 9.91335 31.8328 9.91335C33.2885 9.91335 34.1868 9.16578 34.1868 8.05799C34.1868 6.95039 33.3195 6.24911 32.0031 6.24911C31.4146 6.24911 30.9036 6.37306 30.4389 6.62289L29.8504 5.5151L33.0098 1.86441H29.1072V0.0400391H35.8592V1.41122L32.9013 4.57967C35.0384 4.62634 36.4477 6.01496 36.4477 8.04249Z" fill="#FFFFFE"/>
<path fill-rule="evenodd" clip-rule="evenodd" d="M43.0756 0.0400391C44.9495 0.0400391 46.4671 0.663657 47.5976 1.89734L46.2193 3.30145C45.5689 2.45898 44.4694 1.86441 43.1065 1.86441C40.7991 1.86441 39.2658 3.50286 39.2658 5.95279C39.2658 8.43371 40.83 10.0702 43.1375 10.0702C44.6861 10.0702 45.7546 9.36913 46.4827 8.24585L47.9539 9.57249C46.8543 11.0851 45.1817 11.8965 43.0909 11.8965C39.4517 11.8965 37.0049 9.51051 37.0049 5.93749C37.0049 2.39526 39.4363 0.0400391 43.0756 0.0400391Z" fill="#FFFFFE"/>
<path fill-rule="evenodd" clip-rule="evenodd" d="M54.9068 7.51338C54.9068 5.98338 53.9932 4.97048 52.6303 4.97048C51.2522 4.97048 50.3384 5.98338 50.3384 7.51338C50.3384 9.04143 51.2522 10.0543 52.6303 10.0543C53.9932 10.0543 54.9068 9.04143 54.9068 7.51338ZM48.1548 7.51338C48.1548 4.90657 49.9512 3.15967 52.6303 3.15967C55.294 3.15967 57.0905 4.90657 57.0905 7.51338C57.0905 10.1339 55.294 11.8806 52.6303 11.8806C49.9512 11.8806 48.1548 10.1339 48.1548 7.51338Z" fill="#FFFFFE"/>
<path fill-rule="evenodd" clip-rule="evenodd" d="M71.3535 6.43657V11.7238H69.2473V6.77937C69.2473 5.68706 68.566 4.97048 67.5282 4.97048C66.5064 4.97048 65.8248 5.68706 65.8248 6.77937V11.7238H63.7186V6.77937C63.7186 5.68706 63.0373 4.97048 61.9999 4.97048C60.9777 4.97048 60.2961 5.68706 60.2961 6.77937V11.7238H58.1899V3.31654H60.2188L60.2498 4.31394C60.8383 3.55088 61.7209 3.15967 62.7431 3.15967C63.8425 3.15967 64.7253 3.62835 65.2675 4.42434C65.8713 3.59756 66.8468 3.15967 67.9619 3.15967C69.9908 3.15967 71.3535 4.47082 71.3535 6.43657Z" fill="#FFFFFE"/>
<path fill-rule="evenodd" clip-rule="evenodd" d="M85.9724 6.43657V11.7238H83.8662V6.77937C83.8662 5.68706 83.1849 4.97048 82.1471 4.97048C81.1253 4.97048 80.4437 5.68706 80.4437 6.77937V11.7238H78.3375V6.77937C78.3375 5.68706 77.6562 4.97048 76.6186 4.97048C75.5965 4.97048 74.915 5.68706 74.915 6.77937V11.7238H72.8088V3.31654H74.8377L74.8687 4.31394C75.457 3.55088 76.3398 3.15967 77.3618 3.15967C78.4614 3.15967 79.3442 3.62835 79.8862 4.42434C80.4902 3.59756 81.4657 3.15967 82.5808 3.15967C84.6097 3.15967 85.9724 4.47082 85.9724 6.43657Z" fill="#FFFFFE"/>
<path fill-rule="evenodd" clip-rule="evenodd" d="M92.2128 8.21446C91.6708 8.10601 91.1135 8.04209 90.6332 8.04209C89.6421 8.04209 89.0071 8.51097 89.0071 9.22949C89.0071 9.91489 89.4562 10.3683 90.3081 10.3683C91.2836 10.3683 92.1974 9.58758 92.2128 8.21446ZM94.319 6.43657V11.7238H92.2905L92.2438 10.523C91.6864 11.3965 90.7263 11.8806 89.7041 11.8806C87.9695 11.8806 86.8081 10.835 86.8081 9.27577C86.8081 7.65282 88.2329 6.5917 90.3698 6.5917C90.9429 6.5917 91.578 6.65561 92.2128 6.77936V6.62269C92.2128 5.4992 91.4695 4.82911 90.1997 4.82911C89.4097 4.82911 88.7749 5.06345 88.2483 5.4992L87.3347 4.25197C88.2329 3.51796 89.2861 3.15967 90.7417 3.15967C92.8788 3.15967 94.319 4.45532 94.319 6.43657Z" fill="#FFFFFE"/>
<path fill-rule="evenodd" clip-rule="evenodd" d="M95.3564 10.8813L96.1462 9.60308C96.9362 10.0718 97.7258 10.2267 98.5467 10.2267C99.321 10.2267 99.8475 9.89939 99.8475 9.38423C99.8475 8.86907 99.2591 8.58824 98.4227 8.37133L97.7258 8.18347C96.3166 7.80989 95.3564 7.26354 95.3564 5.9369C95.3564 4.26766 96.6572 3.15967 98.6396 3.15967C99.8939 3.15967 100.963 3.425 101.783 3.98664L100.901 5.37526C100.235 5.00167 99.5224 4.82911 98.779 4.82911C98.0202 4.82911 97.4936 5.10993 97.4936 5.5941C97.4936 6.09184 98.0202 6.32618 98.7478 6.51404L99.4448 6.71739C100.87 7.09137 102 7.74578 102 9.22949C102 10.8193 100.606 11.8806 98.5156 11.8806C97.2457 11.8806 96.1153 11.5535 95.3564 10.8813Z" fill="#FFFFFE"/>
</g>
<defs>
<clipPath id="clip0">
<rect width="102" height="12" fill="white"/>
</clipPath>
</defs>
</svg>
