<svg width="16" height="16" viewBox="0 0 16 16" fill="none" xmlns="http://www.w3.org/2000/svg">
<path d="M16 8.05722C15.9447 5.6309 14.8119 4.27491 13.6935 3.52504C12.7974 2.93467 11.7531 2.62449 10.6881 2.63233H10.4203V0H7.89958V2.63233H5.15481V0H2.63319V2.63233H0L0.0116039 5.33333H2.62248V10.6557H0V13.2761H2.63319V16H5.15481V13.2761H7.89958V16H10.4212V13.2761H10.8675C11.747 13.2815 12.6138 13.0611 13.3891 12.6352C16.0669 11.1428 16 8.05722 16 8.05722ZM13.1267 9.28595C12.9629 9.61395 12.7322 9.90189 12.4501 10.1301C12.0008 10.4837 11.4489 10.6726 10.8827 10.6667H5.16195V5.34066L10.8979 5.32601C11.1669 5.32304 11.4348 5.36067 11.6932 5.43771C11.9915 5.52776 12.2695 5.67742 12.5112 5.87808C12.753 6.07873 12.9536 6.32643 13.1017 6.60692C13.3206 7.01685 13.4374 7.47587 13.4417 7.94322C13.4461 8.41058 13.3379 8.87181 13.1267 9.28595V9.28595Z" fill="#2DAE9A"/>
</svg>
