<svg width="16" height="66" viewBox="0 0 16 66" fill="none" xmlns="http://www.w3.org/2000/svg">
<path d="M9 1C9 0.447715 8.55228 2.41411e-08 8 0C7.44772 -2.41411e-08 7 0.447715 7 1L9 1ZM7.29289 65.7071C7.68341 66.0976 8.31658 66.0976 8.7071 65.7071L15.0711 59.3431C15.4616 58.9526 15.4616 58.3195 15.0711 57.9289C14.6805 57.5384 14.0474 57.5384 13.6569 57.9289L8 63.5858L2.34314 57.9289C1.95262 57.5384 1.31945 57.5384 0.92893 57.9289C0.538405 58.3195 0.538405 58.9526 0.92893 59.3431L7.29289 65.7071ZM7 1L7 65L9 65L9 1L7 1Z" fill="black"/>
</svg>
