<svg width="678" height="610" viewBox="0 0 678 610" fill="none" xmlns="http://www.w3.org/2000/svg"><mask id="a" mask-type="alpha" maskUnits="userSpaceOnUse" x="-1" y="0" width="678" height="610"><path fill="#C4C4C4" d="M-1 0h678v610H-1z"/></mask><g mask="url(#a)"><path d="M822.39 289c0 197.933-160.457 358.39-358.39 358.39S105.61 486.933 105.61 289 266.067-69.39 464-69.39 822.39 91.067 822.39 289z" stroke="#000" stroke-opacity="0.3"/><circle cx="464" cy="289" r="232.447" stroke="#000" stroke-opacity="0.3"/><circle cx="464" cy="289" r="188.888" stroke="#000" stroke-opacity="0.3"/><path d="M596.072 289c0 72.941-59.131 132.072-132.072 132.072S331.929 361.941 331.929 289 391.059 156.929 464 156.929 596.072 216.059 596.072 289z" stroke="#000" stroke-opacity="0.3"/><circle cx="464" cy="289" r="463.5" stroke="#000" stroke-opacity="0.3"/><path d="M546.32 73.51a.391.391 0 10-.783 0v26.045h-1.039c-.865 0-1.567.701-1.567 1.565v14.017c0 .864.702 1.565 1.567 1.565h1.039v1.225a.391.391 0 00.783 0v-1.225h1.039c.866 0 1.567-.701 1.567-1.565V101.12c0-.864-.701-1.565-1.567-1.565h-1.039V73.51z" fill="#13C8A4"/><path fill-rule="evenodd" clip-rule="evenodd" d="M535.767 92.192v13.923h-1.039c-.866 0-1.567.701-1.567 1.565v18.052c0 .864.701 1.564 1.567 1.564h1.039v86.39a.391.391 0 00.783 0v-86.39h1.039c.865 0 1.567-.7 1.567-1.564V107.68c0-.864-.702-1.565-1.567-1.565h-1.039V92.192a.391.391 0 10-.783 0z" fill="#13C8A4"/><path d="M459.428 122.013h-1.039v-25.71a.391.391 0 10-.783 0v25.71h-1.039c-.865 0-1.567.7-1.567 1.564v35.983c0 .864.702 1.564 1.567 1.564h1.039v11.733a.391.391 0 00.783 0v-11.733h1.039c.865 0 1.567-.7 1.567-1.564v-35.983c0-.864-.702-1.564-1.567-1.564z" fill="#13C8A4"/><path d="M556.383 65.391a.392.392 0 00-.784 0v16.57h-1.332c-.865 0-1.567.7-1.567 1.564v102.036c0 .864.702 1.564 1.567 1.564h1.039v7.512a.391.391 0 00.783 0v-7.512h1.039c.866 0 1.567-.7 1.567-1.564V83.525c0-.864-.701-1.564-1.567-1.564h-.745v-16.57z" fill="#13C8A4"/><path d="M566.008 77.986a.391.391 0 00-.783 0v4.903h-1.039c-.865 0-1.567.7-1.567 1.564v18.77c0 .864.702 1.565 1.567 1.565h1.039v14.839a.39.39 0 10.783 0v-14.839h1.039c.865 0 1.567-.701 1.567-1.565v-18.77c0-.864-.702-1.564-1.567-1.564h-1.039v-4.903z" fill="#13C8A4"/><path d="M507.24 78.268a.392.392 0 00-.784 0v10.25h-1.038c-.866 0-1.567.7-1.567 1.564v18.77c0 .864.701 1.565 1.567 1.565h1.038v28.55a.392.392 0 00.784 0v-28.55h1.039c.865 0 1.567-.701 1.567-1.565v-18.77c0-.863-.702-1.564-1.567-1.564h-1.039v-10.25z" fill="#13C8A4"/><path d="M487.7 84.353a.392.392 0 00-.784 0v12.764h-1.038c-.866 0-1.567.7-1.567 1.565v24.141c0 .864.701 1.565 1.567 1.565h1.038v14.579a.392.392 0 00.784 0v-14.579h1.038c.866 0 1.568-.701 1.568-1.565V98.682c0-.864-.702-1.565-1.568-1.565H487.7V84.353z" fill="#13C8A4"/><path d="M477.929 96.302a.391.391 0 00-.784 0v10.775h-1.038c-.866 0-1.567.701-1.567 1.565v16.331c0 .864.701 1.565 1.567 1.565h1.038v2.427a.392.392 0 00.784 0v-2.427h1.039c.865 0 1.567-.701 1.567-1.565v-16.331c0-.864-.702-1.565-1.567-1.565h-1.039V96.302z" fill="#EE7D8B"/><path d="M468.16 121.578a.392.392 0 00-.784 0v3.648h-1.038c-.866 0-1.567.7-1.567 1.564v3.459c0 .864.701 1.565 1.567 1.565h1.038v9.388a.392.392 0 00.784 0v-9.388h1.038c.866 0 1.568-.701 1.568-1.565v-3.459c0-.864-.702-1.564-1.568-1.564h-1.038v-3.648z" fill="#EE7D8B"/><path d="M527.817 112.022h-1.038v-4.226a.392.392 0 00-.784 0v4.226h-1.039c-.865 0-1.567.7-1.567 1.564v30.742c0 .864.702 1.564 1.567 1.564h1.039v33.686a.392.392 0 00.784 0v-33.686h1.038c.866 0 1.567-.7 1.567-1.564v-30.742c0-.864-.701-1.564-1.567-1.564z" fill="#EE7D8B"/><path d="M576.959 112.022h-1.038v-4.226a.392.392 0 00-.784 0v4.226h-1.039c-.865 0-1.567.7-1.567 1.564v30.742c0 .864.702 1.564 1.567 1.564h1.039v33.686a.391.391 0 00.784 0v-33.686h1.038c.866 0 1.567-.7 1.567-1.564v-30.742c0-.864-.701-1.564-1.567-1.564z" fill="#EE7D8B"/><path d="M498.508 100.613h-1.039v-2.158a.391.391 0 00-.783 0v2.158h-1.039c-.866 0-1.567.7-1.567 1.564v14.167c0 .864.701 1.564 1.567 1.564h1.039v17.202a.391.391 0 00.784 0v-17.202h1.038c.865 0 1.567-.7 1.567-1.564v-14.167c0-.864-.702-1.564-1.567-1.564z" fill="#EE7D8B"/><path d="M518.048 102.422h-1.038V85.229a.392.392 0 00-.784 0v17.193h-1.039c-.865 0-1.567.701-1.567 1.565v97.903c0 .864.702 1.564 1.567 1.564h1.039v19.943a.392.392 0 00.784 0v-19.943h1.038c.866 0 1.567-.7 1.567-1.564v-97.903c0-.864-.701-1.565-1.567-1.565z" fill="#13C8A4"/><path d="M295 522c-58.5-44-34.5-178.497 89.5-136.5 147.651 50.008 224.277-94.629 192.401-172.466" stroke="#EE7D8B" stroke-width="7" stroke-linecap="round"/><g clip-path="url(#clip0)"><path d="M356.231 56.108l-2.913 5.076-37.598 158.444 1.237 1.987 84.376-25.9-45.102-139.608z" fill="#13C8A4"/><path d="M356.232 56.108l-103.018 104.46 63.744 61.048 18.248-76.904 21.026-88.604z" fill="#fff"/><path d="M313.653 235.541l-1.173.887-13.393 56.441.284 2.861 98.696-86.057-84.414 25.868z" fill="#13C8A4"/><path d="M299.371 295.729l14.283-60.189-63.749-61.026 49.466 121.215z" fill="#fff"/><path d="M316.957 221.615l84.375-25.9-66.126-51.003-18.249 76.903z" fill="#13C8A4"/><path d="M253.215 160.568l63.743 61.047 18.248-76.903-81.991 15.856z" fill="#fff"/></g><path d="M322.072 472.509a.392.392 0 01.784 0v26.046h1.039c.865 0 1.567.701 1.567 1.565v14.017c0 .864-.702 1.565-1.567 1.565h-1.039v1.225a.392.392 0 01-.784 0v-1.225h-1.038a1.566 1.566 0 01-1.567-1.565V500.12c0-.864.701-1.565 1.567-1.565h1.038v-26.046z" fill="#13C8A4"/><path fill-rule="evenodd" clip-rule="evenodd" d="M332.626 491.192v13.923h1.039c.865 0 1.567.701 1.567 1.565v18.052c0 .864-.702 1.564-1.567 1.564h-1.039v16.39a.391.391 0 01-.784 0v-16.39h-1.038c-.865 0-1.567-.7-1.567-1.564V506.68c0-.864.702-1.565 1.567-1.565h1.038v-13.923a.392.392 0 01.784 0z" fill="#13C8A4"/><path d="M312.01 464.391a.391.391 0 01.783 0v16.57h1.332c.866 0 1.568.701 1.568 1.565v102.035c0 .864-.702 1.564-1.568 1.564h-1.038v7.512a.392.392 0 01-.784 0v-7.512h-1.038c-.866 0-1.568-.7-1.568-1.564V482.526c0-.864.702-1.565 1.568-1.565h.745v-16.57z" fill="#13C8A4"/><path d="M302.385 476.986a.39.39 0 11.783 0v4.903h1.039c.865 0 1.567.7 1.567 1.564v18.77c0 .864-.702 1.565-1.567 1.565h-1.039v14.839a.391.391 0 01-.783 0v-14.839h-1.039a1.566 1.566 0 01-1.567-1.565v-18.77c0-.864.701-1.564 1.567-1.564h1.039v-4.903z" fill="#13C8A4"/><path d="M351.472 477.268a.392.392 0 01.784 0v10.25h1.038c.866 0 1.568.7 1.568 1.564v18.77c0 .864-.702 1.565-1.568 1.565h-1.038v28.55a.392.392 0 01-.784 0v-28.55h-1.038a1.566 1.566 0 01-1.567-1.565v-18.77c0-.864.701-1.564 1.567-1.564h1.038v-10.25z" fill="#13C8A4"/><path d="M371.012 483.353a.392.392 0 01.784 0v12.764h1.039c.865 0 1.567.701 1.567 1.565v24.141c0 .864-.702 1.565-1.567 1.565h-1.039v14.579a.391.391 0 01-.784 0v-14.579h-1.038a1.566 1.566 0 01-1.567-1.565v-24.141c0-.864.701-1.565 1.567-1.565h1.038v-12.764z" fill="#EE7D8B"/><path d="M380.783 495.302a.392.392 0 01.784 0v10.775h1.038c.866 0 1.567.701 1.567 1.565v16.331c0 .864-.701 1.565-1.567 1.565h-1.038v2.427a.392.392 0 01-.784 0v-2.427h-1.039a1.566 1.566 0 01-1.567-1.565v-16.331c0-.864.702-1.565 1.567-1.565h1.039v-10.775z" fill="#EE7D8B"/><path d="M390.552 520.578a.392.392 0 01.784 0v3.648h1.039c.865 0 1.567.7 1.567 1.564v3.459c0 .864-.702 1.565-1.567 1.565h-1.039v9.388a.391.391 0 01-.784 0v-9.388h-1.038a1.566 1.566 0 01-1.567-1.565v-3.459c0-.864.701-1.564 1.567-1.564h1.038v-3.648z" fill="#EE7D8B"/><path d="M340.575 511.022h1.039v-4.226a.391.391 0 01.783 0v4.226h1.039c.866 0 1.567.7 1.567 1.564v30.742c0 .864-.701 1.564-1.567 1.564h-1.039v33.686a.39.39 0 11-.783 0v-33.686h-1.039c-.865 0-1.567-.7-1.567-1.564v-30.742c0-.864.702-1.564 1.567-1.564z" fill="#EE7D8B"/><path d="M360.204 499.613h1.039v-2.158a.391.391 0 01.784 0v2.158h1.038c.866 0 1.567.7 1.567 1.564v14.167c0 .864-.701 1.564-1.567 1.564h-1.039v17.202a.391.391 0 01-.783 0v-17.202h-1.039c-.865 0-1.567-.7-1.567-1.564v-14.167c0-.864.702-1.564 1.567-1.564z" fill="#EE7D8B"/><g clip-path="url(#clip1)"><path d="M568.978 501.227l-.858 1.456-11.381 45.604.35.577 24.439-7.192-12.55-40.445z" fill="#EE7D8B"/><path d="M568.978 501.227l-30.082 29.804 18.193 17.834 5.524-22.135 6.365-25.503z" fill="#fff"/><path d="M556.088 552.873l-.341.252-4.055 16.245.073.827 28.774-24.508-24.451 7.184z" fill="#EE7D8B"/><path d="M551.765 570.196l4.324-17.324-18.195-17.826 13.871 35.15z" fill="#fff"/><path d="M557.089 548.864l24.439-7.192-18.915-14.942-5.524 22.134z" fill="#EE7D8B"/><path d="M538.896 531.032l18.193 17.832 5.524-22.134-23.717 4.302z" fill="#fff"/></g><path d="M441 478c-5.5 10-8.292 73.5 42.624 79.5 16.526 1.947 18.401 18.873 26.876 26.5 10 9 34 6 39-8" stroke="#fff" stroke-width="2" stroke-dasharray="2.2 2.2"/><path d="M633.147 348.275C636.398 350.773 658.5 453.5 606.5 446c-36.325-5.239-50 74.5-69.5 32.5" stroke="#fff" stroke-width="2" stroke-dasharray="2.2 2.2"/><path d="M342 447.5c-35.426 30-75.979-36.359-48-69 15-17.5 23.11-50.088 12.645-54.614-10.465-4.525-10.135-22.879-7.801-25.071" stroke="#fff" stroke-width="2" stroke-dasharray="2.2 2.2"/><g clip-path="url(#clip2)"><path d="M608.892 284.308l.132 1.537 15.67 39.969.567.244 14.382-18.291-30.751-23.459z" fill="#13C8A4"/><path d="M608.892 284.308l-6.613 38.108 22.982 3.642-7.606-19.399-8.763-22.351z" fill="#fff"/><path d="M626.638 329.571l-.121.369 5.582 14.237.492.577 8.442-33.473-14.395 18.29z" fill="#13C8A4"/><path d="M632.591 344.754l-5.953-15.183-22.98-3.637 28.933 18.82z" fill="#fff"/><path d="M625.261 326.058l14.382-18.291-21.988-1.108 7.606 19.399z" fill="#13C8A4"/><path d="M602.279 322.416l22.981 3.642-7.605-19.399-15.376 15.757z" fill="#fff"/></g><mask id="b" fill="#fff"><path d="M391.696 301.493c10.271-51.528 55.398-85.943 100.799-76.893 45.401 9.05 73.886 58.138 63.615 109.666a106.623 106.623 0 01-7.84 24.065l-158.561-31.607c-.334-8.24.285-16.692 1.987-25.231z"/></mask><path d="M391.696 301.493c10.271-51.528 55.398-85.943 100.799-76.893 45.401 9.05 73.886 58.138 63.615 109.666a106.623 106.623 0 01-7.84 24.065l-158.561-31.607c-.334-8.24.285-16.692 1.987-25.231z" stroke="#000" stroke-width="8" mask="url(#b)"/><path d="M493.649 235.27a63.78 63.78 0 00-5.648-1.34c-38.424-7.141-76.095 22.181-84.149 65.512a88.988 88.988 0 00-1.377 21.189l11.396 2.118a88.821 88.821 0 011.374-21.189c7.651-41.167 42.038-69.663 78.404-66.29z" fill="#fff"/><path fill-rule="evenodd" clip-rule="evenodd" d="M493.502 340.381l-33.958-7.875 4.585-19.77 33.957 7.876-4.584 19.769z" fill="#000"/><mask id="c" fill="#fff"><path fill-rule="evenodd" clip-rule="evenodd" d="M459.65 318.034l38.813 9.002a3.201 3.201 0 101.447-6.238l-38.813-9.001a3.2 3.2 0 10-1.447 6.237z"/></mask><path fill-rule="evenodd" clip-rule="evenodd" d="M459.65 318.034l38.813 9.002a3.201 3.201 0 101.447-6.238l-38.813-9.001a3.2 3.2 0 10-1.447 6.237z" fill="#13C8A4" stroke="#000" stroke-width="2" mask="url(#c)"/><path fill-rule="evenodd" clip-rule="evenodd" d="M474.912 326.975c-22.528-3.277-43.478 12.352-46.755 34.88-3.277 22.527 12.352 43.477 34.88 46.754 22.527 3.277 43.477-12.352 46.754-34.88 3.277-22.527-12.352-43.477-34.879-46.754z" fill="#13C8A4"/><path fill-rule="evenodd" clip-rule="evenodd" d="M465.202 282.206l4.512 1.05-3.84 16.506-11.073-2.576c-4.539-1.056-7.389-5.635-6.333-10.174 1.056-4.538 5.634-7.388 10.173-6.332l3.877.902 4.93-21.114 2.685.626-4.931 21.112z" fill="#000"/><path d="M469.714 283.256l.114-.487a.498.498 0 01.373.6l-.487-.113zm-4.512-1.05l-.113.487a.498.498 0 01-.374-.601l.487.114zm.672 17.556l.487.113a.5.5 0 01-.6.374l.113-.487zm-11.073-2.576l-.113.487.113-.487zm-6.333-10.174l.487.113-.487-.113zm10.173-6.332l-.113.487.113-.487zm3.877.902l.487.113a.501.501 0 01-.6.374l.113-.487zm4.93-21.114l-.486-.114a.499.499 0 01.6-.373l-.114.487zm2.685.626l.113-.487a.502.502 0 01.373.601l-.486-.114zm-.532 22.649l-4.512-1.05.226-.974 4.513 1.05-.227.974zm-4.214 15.905l3.84-16.505.974.226-3.84 16.506-.974-.227zm-10.473-2.949l11.073 2.576-.226.974-11.073-2.576.226-.974zm-5.959-9.574c-.993 4.271 1.689 8.58 5.959 9.574l-.226.974c-4.808-1.119-7.826-5.966-6.707-10.774l.974.226zm9.573-5.958c-4.27-.994-8.58 1.689-9.573 5.958l-.974-.226c1.118-4.808 5.965-7.825 10.774-6.706l-.227.974zm3.877.902l-3.877-.902.227-.974 3.876.902-.226.974zm-.374-.601l4.931-21.114.973.227-4.93 21.114-.974-.227zm5.531-21.487l2.684.626-.227.974-2.684-.627.227-.973zm3.057 1.227l-4.93 21.112-.974-.228 4.931-21.111.973.227z" fill="#000"/><path d="M476.175 256.754a6.15 6.15 0 00-12.106-2.002 6.147 6.147 0 004.589 7.384 6.146 6.146 0 006.263-2.226l3.191-1.439a2.48 2.48 0 012.936.686l2.255 2.742a2.481 2.481 0 002.936.685l3.231-1.459a2.48 2.48 0 012.936.686l2.252 2.738a2.478 2.478 0 002.937.686l3.231-1.458a2.48 2.48 0 012.936.685l2.252 2.74a2.48 2.48 0 002.936.685l1.964-.886a6.15 6.15 0 10.833-2.967l-2.12.957a2.483 2.483 0 01-2.937-.686l-2.251-2.739a2.48 2.48 0 00-2.937-.686l-3.231 1.458a2.48 2.48 0 01-2.936-.685l-2.252-2.739a2.48 2.48 0 00-2.937-.686l-3.232 1.459a2.48 2.48 0 01-2.936-.686l-2.254-2.74a2.48 2.48 0 00-2.935-.686l-2.614 1.179zm-16.756 54.709l43.094 10.064a6.38 6.38 0 007.663-4.762l6.648-28.468a6.38 6.38 0 00-4.761-7.663l-43.094-10.063a6.38 6.38 0 00-7.664 4.762l-6.648 28.466a6.381 6.381 0 004.762 7.664z" fill="#13C8A4"/><path fill-rule="evenodd" clip-rule="evenodd" d="M465.128 287.217c-1.074 4.6.979 9.012 4.586 9.854 3.606.843 7.401-2.204 8.475-6.804 1.074-4.6-.978-9.012-4.585-9.854-3.607-.842-7.402 2.204-8.476 6.804z" fill="#000"/><path fill-rule="evenodd" clip-rule="evenodd" d="M462.714 286.112c-1.074 4.6.979 9.012 4.586 9.854 3.607.842 7.402-2.204 8.476-6.804 1.074-4.6-.979-9.011-4.586-9.854-3.607-.842-7.401 2.204-8.476 6.804z" fill="#fff"/><path fill-rule="evenodd" clip-rule="evenodd" d="M462.09 285.966c1.163-4.98 5.339-8.194 9.245-7.281 3.905.912 6.226 5.642 5.063 10.623-1.163 4.98-5.339 8.193-9.244 7.281-3.905-.911-6.227-5.642-5.064-10.623zm1.247.291c-.985 4.22.799 8.313 4.108 9.086 3.309.773 6.721-2.107 7.706-6.327.986-4.219-.799-8.312-4.107-9.084-3.309-.774-6.722 2.106-7.707 6.325z" fill="#000"/><path fill-rule="evenodd" clip-rule="evenodd" d="M466.033 286.297c-.378 1.62.344 3.173 1.614 3.47 1.27.296 2.606-.777 2.983-2.396.379-1.619-.344-3.172-1.613-3.469-1.27-.297-2.606.776-2.984 2.395z" fill="#000"/><path fill-rule="evenodd" clip-rule="evenodd" d="M485.741 292.792c-1.074 4.6.979 9.011 4.585 9.854 3.607.842 7.402-2.204 8.476-6.804 1.074-4.6-.979-9.012-4.586-9.854-3.606-.843-7.401 2.204-8.475 6.804z" fill="#000"/><path fill-rule="evenodd" clip-rule="evenodd" d="M482.765 291.243c-1.074 4.6.979 9.011 4.585 9.854 3.607.842 7.402-2.204 8.476-6.804 1.074-4.6-.978-9.012-4.586-9.854-3.606-.842-7.401 2.204-8.475 6.804z" fill="#fff"/><path fill-rule="evenodd" clip-rule="evenodd" d="M482.142 291.098c1.163-4.981 5.339-8.194 9.245-7.282 3.904.912 6.226 5.642 5.063 10.623-1.163 4.98-5.339 8.194-9.245 7.282-3.905-.913-6.226-5.643-5.063-10.623zm1.247.291c-.986 4.22.799 8.312 4.107 9.085 3.309.773 6.722-2.106 7.707-6.326.985-4.22-.799-8.313-4.108-9.086-3.309-.772-6.721 2.107-7.706 6.327z" fill="#000"/><path fill-rule="evenodd" clip-rule="evenodd" d="M486.083 291.428c-.378 1.62.345 3.173 1.615 3.469 1.269.297 2.605-.776 2.983-2.395.379-1.619-.344-3.172-1.614-3.469-1.27-.297-2.606.776-2.984 2.395z" fill="#000"/><path fill-rule="evenodd" clip-rule="evenodd" d="M512.307 293.551l5.11 1.193c4.538 1.06 7.384 5.64 6.325 10.178-1.06 4.538-5.64 7.384-10.179 6.324l-11.071-2.584 3.854-16.503 3.277.765 4.766-20.405 2.683.627-4.765 20.405z" fill="#000"/><path d="M512.307 293.551l-.114.487a.5.5 0 01-.373-.601l.487.114zm5.11 1.193l-.114.487.114-.487zm6.325 10.178l.487.114-.487-.114zm-10.179 6.324l.114-.486-.114.486zm-11.071-2.584l-.114.486a.498.498 0 01-.373-.6l.487.114zm3.854-16.503l-.487-.114a.498.498 0 01.6-.373l-.113.487zm3.277.765l.487.114a.5.5 0 01-.601.373l.114-.487zm4.766-20.405l-.487-.114a.5.5 0 01.6-.373l-.113.487zm2.683.627l.114-.487a.5.5 0 01.373.6l-.487-.113zm-4.651 19.918l5.11 1.193-.228.974-5.11-1.193.228-.974zm5.109 1.193c4.808 1.123 7.821 5.972 6.699 10.779l-.974-.228c.997-4.269-1.682-8.58-5.952-9.577l.227-.974zm6.699 10.779c-1.123 4.807-5.972 7.82-10.78 6.697l.228-.973c4.27.997 8.581-1.682 9.578-5.952l.974.228zm-10.78 6.697l-11.071-2.585.228-.973 11.071 2.585-.228.973zm-11.444-3.185l3.854-16.503.974.228-3.854 16.502-.974-.227zm4.454-16.876l3.278.765-.228.974-3.277-.765.227-.974zm2.677 1.139l4.766-20.406.974.228-4.766 20.405-.974-.227zm5.366-20.779l2.684.627-.228.974-2.683-.627.227-.974zm3.057 1.227l-4.765 20.406-.974-.228 4.765-20.405.974.227z" fill="#000"/><path fill-rule="evenodd" clip-rule="evenodd" d="M468.609 254.766a.64.64 0 01-.914-.883c.259-.346.561-.473.84-.492.283-.02.572.078.824.292.253.215.474.563.588.946.119.403.115.837-.032 1.188-.37.884-.988 1.343-1.643 1.498-1.472.349-3.286-.938-3.219-2.956.036-1.073.656-1.756 1.362-2.331 1.627-1.325 4.15-1.129 5.621.299.672.651 1.034 1.55 1.127 2.522.132 1.372-.277 2.886-1.007 3.951-.329.482-1.048 1.201-1.755 1.499-.664.281-1.315.234-1.806-.304a.639.639 0 11.944-.864c.053.059.123.057.193.044.127-.026.257-.089.385-.167.41-.247.79-.649.983-.931.573-.837.892-2.027.789-3.105-.064-.662-.287-1.283-.744-1.727-1.027-.995-2.786-1.149-3.922-.224-.429.35-.869.727-.891 1.38-.035 1.081.856 1.855 1.644 1.668.314-.074.581-.323.758-.746.051-.121.011-.273-.041-.407a.777.777 0 00-.084-.15z" fill="#000"/><path fill-rule="evenodd" clip-rule="evenodd" d="M516.786 266.194a.64.64 0 01-.914-.882c.259-.346.561-.474.84-.493.283-.019.572.078.824.293.253.214.474.562.588.946.119.403.115.837-.032 1.188-.37.884-.988 1.342-1.643 1.497-1.472.35-3.286-.938-3.219-2.955.036-1.074.656-1.756 1.362-2.331 1.627-1.325 4.15-1.129 5.621.298.672.652 1.034 1.551 1.127 2.523.132 1.372-.277 2.886-1.007 3.951-.329.481-1.048 1.2-1.755 1.498-.664.281-1.315.234-1.806-.303a.64.64 0 11.944-.864c.053.058.123.057.193.043.127-.025.257-.089.385-.166.41-.248.79-.649.983-.932.573-.837.892-2.027.789-3.105-.064-.661-.287-1.283-.744-1.726-1.027-.996-2.786-1.149-3.922-.224-.429.35-.869.727-.891 1.38-.035 1.081.856 1.855 1.644 1.667.314-.074.581-.323.758-.745.051-.121.011-.274-.041-.408a.777.777 0 00-.084-.15z" fill="#000"/><path d="M460.704 414.159l-13.982 49.06-6.888-1.693 9.522-50.159 11.348 2.792z" fill="#000"/><path d="M423.695 473.283c1.998-8.133 11.165-12.875 20.471-10.587 9.306 2.285 15.237 10.733 13.233 18.865-.203.85-.505 1.646-.86 2.412l-33.193-8.15c.042-.848.14-1.688.349-2.54z" fill="#000"/><path d="M521.662 414.062l11.294 49.743-6.833 1.814-15.749-48.561 11.288-2.996z" fill="#000"/><path d="M517.615 483.689c-2.159-8.096 3.603-16.655 12.864-19.125 9.259-2.464 18.517 2.101 20.671 10.189.224.848.346 1.692.401 2.536l-33.027 8.794a13.149 13.149 0 01-.909-2.394z" fill="#000"/><path d="M387.107 391.616l-30.502 40.899-5.838-4.02 26.724-43.511 9.616 6.632z" fill="#000"/><path d="M331.511 433.745c4.75-6.892 15.003-8.071 22.89-2.629 7.89 5.445 10.432 15.447 5.676 22.337a13.333 13.333 0 01-1.666 1.955l-28.138-19.417c.345-.774.735-1.526 1.238-2.246z" fill="#000"/><path d="M389.915 326.081l158.562 31.607 25.065 51.062s-15.313 37.497-121.556 16.319c-79.554-15.858-105.843-62.504-105.843-62.504l43.772-36.484z" fill="#000"/><path d="M484.225 344.88l16.668 3.322-18.021-3.055c.454-.09.905-.176 1.353-.267z" fill="#000"/><path d="M502.846 387.026c-2.06 10.334 4.645 20.385 14.982 22.446 10.334 2.06 20.384-4.652 22.444-14.986 2.061-10.341-4.648-20.387-14.982-22.447-10.338-2.06-20.383 4.646-22.444 14.987z" fill="#13C8A4"/><path d="M508.301 388.113c-1.458 7.318 3.291 14.44 10.615 15.9 7.321 1.459 14.442-3.297 15.9-10.615 1.46-7.321-3.292-14.447-10.613-15.907-7.325-1.46-14.442 3.301-15.902 10.622z" fill="#fff"/><path d="M443.392 375.174c-2.06 10.334 4.648 20.387 14.985 22.447 10.335 2.06 20.384-4.652 22.444-14.986 2.061-10.341-4.648-20.386-14.982-22.446-10.337-2.061-20.386 4.645-22.447 14.985z" fill="#13C8A4"/><path d="M448.848 376.262c-1.459 7.317 3.293 14.44 10.618 15.9 7.321 1.46 14.444-3.296 15.903-10.614 1.459-7.321-3.296-14.448-10.617-15.907-7.324-1.46-14.445 3.299-15.904 10.621z" fill="#fff"/><path d="M383.938 363.323c-2.059 10.334 4.649 20.387 14.989 22.448 10.334 2.06 20.384-4.652 22.444-14.986 2.061-10.341-4.648-20.387-14.982-22.447-10.341-2.061-20.389 4.645-22.451 14.985z" fill="#13C8A4"/><path d="M389.394 364.411c-1.459 7.318 3.297 14.441 10.621 15.901 7.318 1.459 14.441-3.297 15.9-10.615 1.459-7.321-3.296-14.448-10.613-15.906-7.325-1.46-14.449 3.299-15.908 10.62z" fill="#fff"/><path fill-rule="evenodd" clip-rule="evenodd" d="M459.849 370.097l-3.179 10.295 6.074 1.866v.001-.001l4.553-4.522-7.448-7.639zm4.191 17.607l3.501-8.943-4.554 4.521-6.076-1.864 7.129 6.287v-.001z" fill="#000"/><path fill-rule="evenodd" clip-rule="evenodd" d="M526.182 381.194l-10.432 7.205 4.257 6.146 7.501-.868-1.326-12.483zm-8.94 19.33l9.746-5.722-7.5.866-4.262-6.145 2.016 11.001z" fill="#000"/><path fill-rule="evenodd" clip-rule="evenodd" d="M405.589 356.145l3.801 12.835-7.572 2.232-5.591-5.684 9.362-9.383zm-5.459 21.813l-4.221-11.16 5.592 5.681v.001l7.575-2.229-8.946 7.708v-.001z" fill="#000"/></g><defs><clipPath id="clip0"><path fill="#fff" transform="rotate(13.349 -23.56 1224.914)" d="M0 0h152.278v246.331H0z"/></clipPath><clipPath id="clip1"><path fill="#fff" transform="rotate(14.014 -1743.609 2475.942)" d="M0 0h43.953v71.1H0z"/></clipPath><clipPath id="clip2"><path fill="#fff" transform="rotate(-21.408 1066.504 -1415.356)" d="M0 0h40.145v64.94H0z"/></clipPath></defs></svg>