<svg width="244" height="195" viewBox="0 0 244 195" fill="none" xmlns="http://www.w3.org/2000/svg">
<path d="M4.36005 122.048C4.70672 121.653 5.08005 121.456 5.48005 121.456C5.89338 121.456 6.21338 121.494 6.44005 121.57C6.66672 121.646 6.84005 121.737 6.96005 121.843C7.08005 121.934 7.17338 122.093 7.24005 122.32C7.30672 122.578 7.34005 122.98 7.34005 123.526V136.192C7.34005 136.541 7.32672 136.806 7.30005 136.988C7.28672 137.155 7.22672 137.352 7.12005 137.579C6.93338 137.989 6.41338 138.193 5.56005 138.193C4.73338 138.193 4.22005 137.996 4.02005 137.602C3.91338 137.375 3.84672 137.17 3.82005 136.988C3.80672 136.791 3.80005 136.51 3.80005 136.147V128.028L3.54005 128.301C2.99338 128.771 2.52672 129.006 2.14005 129.006C1.75338 129.006 1.34672 128.741 0.920049 128.21C0.506716 127.68 0.300049 127.21 0.300049 126.8C0.300049 126.391 0.540049 125.944 1.02005 125.459L4.30005 122.093L4.36005 122.048Z" fill="#222E3A"/>
<path d="M11.2646 121.434L14.3046 121.456H16.1846C16.5046 121.456 16.7379 121.471 16.8846 121.502C17.0312 121.517 17.2046 121.585 17.4046 121.706C17.7646 121.919 17.9446 122.525 17.9446 123.526C17.9446 124.435 17.7779 124.989 17.4446 125.186C17.2579 125.307 17.0913 125.383 16.9446 125.413C16.8113 125.428 16.5979 125.436 16.3046 125.436H12.8046C12.7779 125.618 12.7112 126.194 12.6046 127.164C12.7512 127.134 12.9846 127.119 13.3046 127.119C14.5712 127.119 15.7112 127.664 16.7246 128.756C17.7379 129.832 18.2446 131.159 18.2446 132.736C18.2446 134.297 17.7646 135.646 16.8046 136.783C15.8446 137.905 14.6512 138.466 13.2246 138.466C11.9846 138.466 10.8646 138.11 9.86458 137.397C9.63791 137.231 9.47125 137.086 9.36458 136.965L9.20458 136.806C8.69791 136.306 8.44458 135.851 8.44458 135.442C8.44458 135.032 8.69125 134.54 9.18458 133.963C9.58458 133.463 9.97125 133.213 10.3446 133.213C10.7179 133.213 11.1646 133.456 11.6846 133.941C11.9246 134.259 12.3379 134.418 12.9246 134.418C13.5246 134.418 13.9646 134.274 14.2446 133.986C14.5379 133.698 14.6846 133.304 14.6846 132.804C14.6846 132.288 14.5246 131.887 14.2046 131.598C13.8979 131.295 13.5446 131.144 13.1446 131.144C12.7446 131.144 12.4246 131.28 12.1846 131.553C11.8246 131.902 11.4579 132.076 11.0846 132.076C10.7246 132.076 10.3046 131.932 9.82458 131.644C9.35791 131.356 9.05125 131.129 8.90458 130.962C8.75791 130.78 8.68458 130.59 8.68458 130.393C8.68458 130.196 8.81791 128.976 9.08458 126.732C9.35125 124.488 9.49125 123.321 9.50458 123.23C9.51791 123.139 9.56458 122.98 9.64458 122.752C9.72458 122.525 9.81791 122.32 9.92458 122.138C10.0446 121.957 10.2179 121.797 10.4446 121.661C10.6846 121.509 10.9579 121.434 11.2646 121.434Z" fill="#222E3A"/>
<path d="M20.7701 123.412C21.1567 122.79 21.6967 122.275 22.3901 121.866C23.0967 121.441 23.9101 121.229 24.8301 121.229C25.7501 121.229 26.5501 121.434 27.2301 121.843C27.9234 122.252 28.4634 122.76 28.8501 123.366C29.2501 123.973 29.5701 124.685 29.8101 125.504C30.2101 126.868 30.4101 128.316 30.4101 129.847C30.4101 132.591 29.8901 134.767 28.8501 136.374C28.4634 136.98 27.9234 137.481 27.2301 137.875C26.5501 138.269 25.7567 138.466 24.8501 138.466C23.9434 138.466 23.1367 138.269 22.4301 137.875C21.7367 137.465 21.1901 136.965 20.7901 136.374C20.4034 135.783 20.0834 135.078 19.8301 134.259C19.4434 132.955 19.2501 131.477 19.2501 129.825C19.2501 128.309 19.4034 127.013 19.7101 125.936C20.0301 124.86 20.3834 124.018 20.7701 123.412ZM24.8101 134.418C26.1834 134.418 26.8701 132.933 26.8701 129.961V129.825C26.8701 126.778 26.1901 125.254 24.8301 125.254C23.4701 125.254 22.7901 126.785 22.7901 129.847C22.7901 132.895 23.4634 134.418 24.8101 134.418Z" fill="#222E3A"/>
<path d="M32.938 123.412C33.3247 122.79 33.8647 122.275 34.558 121.866C35.2647 121.441 36.078 121.229 36.998 121.229C37.918 121.229 38.718 121.434 39.398 121.843C40.0914 122.252 40.6314 122.76 41.018 123.366C41.418 123.973 41.738 124.685 41.978 125.504C42.378 126.868 42.578 128.316 42.578 129.847C42.578 132.591 42.058 134.767 41.018 136.374C40.6314 136.98 40.0914 137.481 39.398 137.875C38.718 138.269 37.9247 138.466 37.018 138.466C36.1114 138.466 35.3047 138.269 34.598 137.875C33.9047 137.465 33.358 136.965 32.958 136.374C32.5714 135.783 32.2514 135.078 31.998 134.259C31.6114 132.955 31.418 131.477 31.418 129.825C31.418 128.309 31.5714 127.013 31.878 125.936C32.198 124.86 32.5514 124.018 32.938 123.412ZM36.978 134.418C38.3514 134.418 39.038 132.933 39.038 129.961V129.825C39.038 126.778 38.358 125.254 36.998 125.254C35.638 125.254 34.958 126.785 34.958 129.847C34.958 132.895 35.6314 134.418 36.978 134.418Z" fill="#222E3A"/>
<path d="M57.1446 132.622C57.1446 133.804 56.8446 134.752 56.2446 135.464C55.6446 136.177 54.9179 136.647 54.0646 136.874V138.33C54.0646 138.86 54.0179 139.232 53.9246 139.444C53.8446 139.656 53.7179 139.8 53.5446 139.876C53.3846 139.952 53.1646 139.99 52.8846 139.99C52.6046 139.99 52.3779 139.952 52.2046 139.876C52.0446 139.8 51.9313 139.664 51.8646 139.467C51.7713 139.209 51.7246 138.822 51.7246 138.307V136.897C51.1779 136.761 50.6846 136.533 50.2446 136.215C49.8046 135.896 49.4979 135.616 49.3246 135.373L49.0646 134.987C48.7846 134.577 48.6446 134.221 48.6446 133.918C48.6446 133.615 48.8713 133.213 49.3246 132.713C49.5913 132.425 49.8713 132.281 50.1646 132.281C50.4713 132.281 50.8913 132.584 51.4246 133.19C51.8379 133.766 52.3046 134.054 52.8246 134.054C53.8113 134.054 54.3046 133.592 54.3046 132.667C54.3046 132.334 54.1179 132.076 53.7446 131.894C53.3713 131.712 52.9179 131.553 52.3846 131.417C51.8513 131.265 51.3179 131.068 50.7846 130.825C50.2513 130.583 49.7979 130.166 49.4246 129.575C49.0513 128.983 48.8646 128.233 48.8646 127.323C48.8646 126.414 49.1179 125.595 49.6246 124.867C50.1313 124.14 50.8313 123.67 51.7246 123.457V122.184C51.7246 121.669 51.7646 121.297 51.8446 121.07C51.9779 120.706 52.3313 120.524 52.9046 120.524C53.2646 120.524 53.5313 120.615 53.7046 120.797C53.8913 120.964 53.9979 121.145 54.0246 121.343C54.0513 121.54 54.0646 121.828 54.0646 122.207V123.48C54.4379 123.571 54.7779 123.7 55.0846 123.867C55.3913 124.034 55.6046 124.17 55.7246 124.276L55.9046 124.458L55.9846 124.526C56.3179 124.875 56.4846 125.163 56.4846 125.39C56.4846 125.618 56.3246 125.997 56.0046 126.527C55.6979 127.058 55.3579 127.323 54.9846 127.323C54.7446 127.323 54.5379 127.255 54.3646 127.119C54.2046 126.982 54.0779 126.868 53.9846 126.778C53.8913 126.687 53.8046 126.611 53.7246 126.55C53.4979 126.383 53.2113 126.3 52.8646 126.3C52.5179 126.3 52.2313 126.399 52.0046 126.596C51.7779 126.778 51.6646 127.035 51.6646 127.369C51.6646 127.702 51.7979 127.975 52.0646 128.187C52.3446 128.385 52.6846 128.521 53.0846 128.597C53.4846 128.657 53.9246 128.771 54.4046 128.938C54.8846 129.089 55.3246 129.271 55.7246 129.484C56.1246 129.696 56.4579 130.075 56.7246 130.621C57.0046 131.151 57.1446 131.818 57.1446 132.622Z" fill="#222E3A"/>
<path d="M98.12 97.7608C98.6667 97.7608 99.0533 97.8366 99.28 97.9882C99.52 98.1246 99.68 98.3444 99.76 98.6476C99.84 98.9357 99.88 99.3223 99.88 99.8074C99.88 100.277 99.8333 100.656 99.74 100.944C99.66 101.232 99.52 101.43 99.32 101.536C99.0267 101.718 98.6133 101.809 98.08 101.809H90.26C89.78 101.809 89.3667 101.604 89.02 101.195C88.6733 100.785 88.5 100.308 88.5 99.7619C88.5 98.9433 88.7467 98.1928 89.24 97.5106C89.7467 96.8132 90.3533 96.222 91.06 95.7369C91.7667 95.2366 92.4733 94.7515 93.18 94.2815C93.8867 93.7964 94.4867 93.2506 94.98 92.6442C95.4867 92.0378 95.74 91.3935 95.74 90.7112C95.74 90.5748 95.6933 90.3853 95.6 90.1427C95.5067 89.885 95.4 89.6804 95.28 89.5287C95.1733 89.362 95 89.2104 94.76 89.0739C94.52 88.9375 94.1867 88.8693 93.76 88.8693C93.3333 88.8693 92.96 89.0512 92.64 89.415C92.3333 89.7637 92.16 90.1124 92.12 90.4611L92.04 90.9841V91.1206C92.04 91.4541 92.0267 91.7042 92 91.871C91.9867 92.0378 91.9267 92.2273 91.82 92.4395C91.62 92.8034 91.1 92.9853 90.26 92.9853C89.3267 92.9853 88.7733 92.6972 88.6 92.1211C88.5333 91.8786 88.5 91.492 88.5 90.9614C88.5 89.3847 88.9933 87.9748 89.98 86.7317C90.98 85.4734 92.28 84.8442 93.88 84.8442C95.4933 84.8442 96.8 85.481 97.8 86.7544C98.8 88.0127 99.3 89.4529 99.3 91.0751C99.3 91.9392 99.1333 92.7579 98.8 93.5311C98.4667 94.3042 98.0667 94.9258 97.6 95.3958C96.6133 96.3963 95.7333 97.071 94.96 97.4197L94.46 97.6471V97.7608H98.12Z" fill="#222E3A"/>
<path d="M111.327 96.4191C111.327 98.117 110.781 99.489 109.687 100.535C108.607 101.566 107.381 102.081 106.007 102.081C104.634 102.081 103.401 101.566 102.307 100.535C101.227 99.5042 100.687 98.1322 100.687 96.4191C100.687 95.7823 100.821 95.1684 101.087 94.5771C101.367 93.9707 101.641 93.5311 101.907 93.2582L102.327 92.8261C102.234 92.7351 102.121 92.6139 101.987 92.4623C101.854 92.3107 101.674 91.9847 101.447 91.4844C101.234 90.969 101.127 90.4384 101.127 89.8926C101.127 88.4069 101.621 87.1789 102.607 86.2087C103.594 85.2384 104.741 84.7533 106.047 84.7533C107.354 84.7533 108.487 85.246 109.447 86.2314C110.407 87.2168 110.887 88.4751 110.887 90.0063C110.887 90.4611 110.788 90.9235 110.587 91.3935C110.401 91.8634 110.207 92.2197 110.007 92.4623L109.707 92.8261C109.827 92.9322 109.974 93.0914 110.147 93.3036C110.334 93.5007 110.574 93.9101 110.867 94.5316C111.174 95.1532 111.327 95.7823 111.327 96.4191ZM107.347 89.8699C107.347 89.5666 107.234 89.2862 107.007 89.0285C106.781 88.7556 106.441 88.6191 105.987 88.6191C105.548 88.6191 105.221 88.748 105.007 89.0057C104.794 89.2634 104.687 89.5515 104.687 89.8699C104.687 90.1731 104.801 90.4611 105.027 90.734C105.267 91.0069 105.601 91.1433 106.027 91.1433C106.467 91.1433 106.794 91.0069 107.007 90.734C107.234 90.4611 107.347 90.1731 107.347 89.8699ZM104.687 97.6925C104.994 98.0564 105.441 98.2383 106.027 98.2383C106.614 98.2383 107.054 98.0564 107.347 97.6925C107.641 97.3287 107.787 96.9421 107.787 96.5328C107.787 96.1083 107.634 95.7141 107.327 95.3503C107.034 94.9864 106.594 94.8045 106.007 94.8045C105.434 94.8045 104.994 94.9864 104.687 95.3503C104.381 95.699 104.227 96.0856 104.227 96.51C104.227 96.9345 104.381 97.3287 104.687 97.6925Z" fill="#222E3A"/>
<path d="M113.848 87.0273C114.235 86.4057 114.775 85.8903 115.468 85.481C116.175 85.0565 116.988 84.8442 117.908 84.8442C118.828 84.8442 119.628 85.0489 120.308 85.4582C121.001 85.8675 121.541 86.3754 121.928 86.9818C122.328 87.5882 122.648 88.3008 122.888 89.1194C123.288 90.4838 123.488 91.9316 123.488 93.4628C123.488 96.2068 122.968 98.3823 121.928 99.9893C121.541 100.596 121.001 101.096 120.308 101.49C119.628 101.884 118.835 102.081 117.928 102.081C117.021 102.081 116.215 101.884 115.508 101.49C114.815 101.081 114.268 100.581 113.868 99.9893C113.481 99.3981 113.161 98.6931 112.908 97.8745C112.521 96.5707 112.328 95.0926 112.328 93.4401C112.328 91.9241 112.481 90.6279 112.788 89.5515C113.108 88.4751 113.461 87.6337 113.848 87.0273ZM117.888 98.0336C119.261 98.0336 119.948 96.5479 119.948 93.5765V93.4401C119.948 90.3929 119.268 88.8693 117.908 88.8693C116.548 88.8693 115.868 90.4005 115.868 93.4628C115.868 96.51 116.541 98.0336 117.888 98.0336Z" fill="#222E3A"/>
<path d="M126.016 87.0273C126.403 86.4057 126.943 85.8903 127.636 85.481C128.343 85.0565 129.156 84.8442 130.076 84.8442C130.996 84.8442 131.796 85.0489 132.476 85.4582C133.169 85.8675 133.709 86.3754 134.096 86.9818C134.496 87.5882 134.816 88.3008 135.056 89.1194C135.456 90.4838 135.656 91.9316 135.656 93.4628C135.656 96.2068 135.136 98.3823 134.096 99.9893C133.709 100.596 133.169 101.096 132.476 101.49C131.796 101.884 131.003 102.081 130.096 102.081C129.189 102.081 128.383 101.884 127.676 101.49C126.983 101.081 126.436 100.581 126.036 99.9893C125.649 99.3981 125.329 98.6931 125.076 97.8745C124.689 96.5707 124.496 95.0926 124.496 93.4401C124.496 91.9241 124.649 90.6279 124.956 89.5515C125.276 88.4751 125.629 87.6337 126.016 87.0273ZM130.056 98.0336C131.429 98.0336 132.116 96.5479 132.116 93.5765V93.4401C132.116 90.3929 131.436 88.8693 130.076 88.8693C128.716 88.8693 128.036 90.4005 128.036 93.4628C128.036 96.51 128.709 98.0336 130.056 98.0336Z" fill="#222E3A"/>
<path d="M150.223 96.2372C150.223 97.4197 149.923 98.3672 149.323 99.0797C148.723 99.7922 147.996 100.262 147.143 100.49V101.945C147.143 102.476 147.096 102.847 147.003 103.059C146.923 103.272 146.796 103.416 146.623 103.491C146.463 103.567 146.243 103.605 145.963 103.605C145.683 103.605 145.456 103.567 145.283 103.491C145.123 103.416 145.009 103.279 144.943 103.082C144.849 102.824 144.803 102.438 144.803 101.922V100.512C144.256 100.376 143.763 100.148 143.323 99.8301C142.883 99.5118 142.576 99.2313 142.403 98.9887L142.143 98.6022C141.863 98.1928 141.723 97.8366 141.723 97.5334C141.723 97.2302 141.949 96.8284 142.403 96.3281C142.669 96.0401 142.949 95.8961 143.243 95.8961C143.549 95.8961 143.969 96.1993 144.503 96.8057C144.916 97.3818 145.383 97.6698 145.903 97.6698C146.889 97.6698 147.383 97.2074 147.383 96.2826C147.383 95.9491 147.196 95.6914 146.823 95.5095C146.449 95.3275 145.996 95.1684 145.463 95.0319C144.929 94.8803 144.396 94.6832 143.863 94.4407C143.329 94.1981 142.876 93.7812 142.503 93.1899C142.129 92.5987 141.943 91.8483 141.943 90.9387C141.943 90.029 142.196 89.2104 142.703 88.4827C143.209 87.755 143.909 87.285 144.803 87.0728V85.7993C144.803 85.2839 144.843 84.9125 144.923 84.6851C145.056 84.3212 145.409 84.1393 145.983 84.1393C146.343 84.1393 146.609 84.2302 146.783 84.4122C146.969 84.5789 147.076 84.7609 147.103 84.9579C147.129 85.155 147.143 85.4431 147.143 85.8221V87.0955C147.516 87.1865 147.856 87.3154 148.163 87.4821C148.469 87.6489 148.683 87.7853 148.803 87.8914L148.983 88.0734L149.063 88.1416C149.396 88.4903 149.563 88.7783 149.563 89.0057C149.563 89.2331 149.403 89.6121 149.083 90.1427C148.776 90.6733 148.436 90.9387 148.063 90.9387C147.823 90.9387 147.616 90.8704 147.443 90.734C147.283 90.5975 147.156 90.4838 147.063 90.3929C146.969 90.3019 146.883 90.2261 146.803 90.1655C146.576 89.9987 146.289 89.9153 145.943 89.9153C145.596 89.9153 145.309 90.0139 145.083 90.211C144.856 90.3929 144.743 90.6506 144.743 90.9841C144.743 91.3177 144.876 91.5905 145.143 91.8028C145.423 91.9999 145.763 92.1363 146.163 92.2121C146.563 92.2728 147.003 92.3865 147.483 92.5532C147.963 92.7048 148.403 92.8867 148.803 93.099C149.203 93.3112 149.536 93.6902 149.803 94.236C150.083 94.7666 150.223 95.4337 150.223 96.2372Z" fill="#222E3A"/>
<path d="M185.16 0.977835C186.093 0.977835 186.64 1.26588 186.8 1.84197C186.88 2.08453 186.92 2.50902 186.92 3.11543C186.92 3.72184 186.747 4.47985 186.4 5.38947C186.053 6.28392 185.633 7.17079 185.14 8.05009C184.66 8.92938 184.173 9.81626 183.68 10.7107C182.507 12.8786 181.92 14.6221 181.92 15.941C181.92 16.2745 181.907 16.5247 181.88 16.6914C181.853 16.843 181.787 17.0098 181.68 17.1917C181.573 17.3585 181.393 17.4722 181.14 17.5328C180.9 17.5935 180.567 17.6238 180.14 17.6238C179.713 17.6238 179.373 17.5935 179.12 17.5328C178.88 17.4722 178.707 17.3509 178.6 17.169C178.493 16.9871 178.427 16.8203 178.4 16.6687C178.387 16.5019 178.38 16.2442 178.38 15.8955C178.38 14.9101 178.527 13.9019 178.82 12.871C179.113 11.825 179.467 10.8926 179.88 10.074C180.293 9.25533 180.707 8.5049 181.12 7.82268C181.533 7.12531 181.887 6.53406 182.18 6.04894C182.473 5.54865 182.62 5.19996 182.62 5.00288H178.06C177.527 5.00288 177.14 4.92708 176.9 4.77548C176.66 4.62387 176.5 4.40405 176.42 4.11601C176.34 3.82796 176.3 3.44896 176.3 2.97899C176.3 2.50902 176.34 2.13001 176.42 1.84197C176.5 1.55392 176.627 1.35684 176.8 1.25072C177.08 1.0688 177.467 0.977835 177.96 0.977835H185.16Z" fill="#13C8A4"/>
<path d="M189.231 2.88803C189.618 2.26646 190.158 1.75101 190.851 1.34168C191.558 0.917195 192.371 0.704952 193.291 0.704952C194.211 0.704952 195.011 0.909615 195.691 1.31894C196.384 1.72827 196.924 2.23614 197.311 2.84255C197.711 3.44896 198.031 4.16149 198.271 4.98014C198.671 6.34456 198.871 7.79236 198.871 9.32355C198.871 12.0676 198.351 14.243 197.311 15.85C196.924 16.4564 196.384 16.9567 195.691 17.3509C195.011 17.7451 194.218 17.9421 193.311 17.9421C192.404 17.9421 191.598 17.7451 190.891 17.3509C190.198 16.9416 189.651 16.4413 189.251 15.85C188.864 15.2588 188.544 14.5538 188.291 13.7352C187.904 12.4314 187.711 10.9533 187.711 9.30081C187.711 7.78478 187.864 6.48858 188.171 5.41221C188.491 4.33583 188.844 3.49444 189.231 2.88803ZM193.271 13.8944C194.644 13.8944 195.331 12.4087 195.331 9.43725V9.30081C195.331 6.2536 194.651 4.73 193.291 4.73C191.931 4.73 191.251 6.26118 191.251 9.32355C191.251 12.3708 191.924 13.8944 193.271 13.8944Z" fill="#13C8A4"/>
<path d="M201.399 2.88803C201.786 2.26646 202.326 1.75101 203.019 1.34168C203.726 0.917195 204.539 0.704952 205.459 0.704952C206.379 0.704952 207.179 0.909615 207.859 1.31894C208.552 1.72827 209.092 2.23614 209.479 2.84255C209.879 3.44896 210.199 4.16149 210.439 4.98014C210.839 6.34456 211.039 7.79236 211.039 9.32355C211.039 12.0676 210.519 14.243 209.479 15.85C209.092 16.4564 208.552 16.9567 207.859 17.3509C207.179 17.7451 206.386 17.9421 205.479 17.9421C204.572 17.9421 203.766 17.7451 203.059 17.3509C202.366 16.9416 201.819 16.4413 201.419 15.85C201.032 15.2588 200.712 14.5538 200.459 13.7352C200.072 12.4314 199.879 10.9533 199.879 9.30081C199.879 7.78478 200.032 6.48858 200.339 5.41221C200.659 4.33583 201.012 3.49444 201.399 2.88803ZM205.439 13.8944C206.812 13.8944 207.499 12.4087 207.499 9.43725V9.30081C207.499 6.2536 206.819 4.73 205.459 4.73C204.099 4.73 203.419 6.26118 203.419 9.32355C203.419 12.3708 204.092 13.8944 205.439 13.8944Z" fill="#13C8A4"/>
<path d="M213.567 2.88803C213.954 2.26646 214.494 1.75101 215.187 1.34168C215.894 0.917195 216.707 0.704952 217.627 0.704952C218.547 0.704952 219.347 0.909615 220.027 1.31894C220.72 1.72827 221.26 2.23614 221.647 2.84255C222.047 3.44896 222.367 4.16149 222.607 4.98014C223.007 6.34456 223.207 7.79236 223.207 9.32355C223.207 12.0676 222.687 14.243 221.647 15.85C221.26 16.4564 220.72 16.9567 220.027 17.3509C219.347 17.7451 218.554 17.9421 217.647 17.9421C216.74 17.9421 215.934 17.7451 215.227 17.3509C214.534 16.9416 213.987 16.4413 213.587 15.85C213.2 15.2588 212.88 14.5538 212.627 13.7352C212.24 12.4314 212.047 10.9533 212.047 9.30081C212.047 7.78478 212.2 6.48858 212.507 5.41221C212.827 4.33583 213.18 3.49444 213.567 2.88803ZM217.607 13.8944C218.98 13.8944 219.667 12.4087 219.667 9.43725V9.30081C219.667 6.2536 218.987 4.73 217.627 4.73C216.267 4.73 215.587 6.26118 215.587 9.32355C215.587 12.3708 216.26 13.8944 217.607 13.8944Z" fill="#13C8A4"/>
<path d="M237.773 12.0979C237.773 13.2804 237.473 14.2279 236.873 14.9404C236.273 15.6529 235.547 16.1229 234.693 16.3503V17.8057C234.693 18.3363 234.647 18.7077 234.553 18.92C234.473 19.1322 234.347 19.2762 234.173 19.352C234.013 19.4278 233.793 19.4658 233.513 19.4658C233.233 19.4658 233.007 19.4278 232.833 19.352C232.673 19.2762 232.56 19.1398 232.493 18.9427C232.4 18.685 232.353 18.2984 232.353 17.783V16.3731C231.807 16.2366 231.313 16.0092 230.873 15.6909C230.433 15.3725 230.127 15.092 229.953 14.8495L229.693 14.4629C229.413 14.0535 229.273 13.6973 229.273 13.3941C229.273 13.0909 229.5 12.6891 229.953 12.1888C230.22 11.9008 230.5 11.7568 230.793 11.7568C231.1 11.7568 231.52 12.06 232.053 12.6664C232.467 13.2425 232.933 13.5305 233.453 13.5305C234.44 13.5305 234.933 13.0681 234.933 12.1434C234.933 11.8098 234.747 11.5521 234.373 11.3702C234 11.1883 233.547 11.0291 233.013 10.8926C232.48 10.741 231.947 10.5439 231.413 10.3014C230.88 10.0588 230.427 9.64191 230.053 9.05066C229.68 8.45942 229.493 7.70898 229.493 6.79937C229.493 5.88975 229.747 5.0711 230.253 4.34341C230.76 3.61572 231.46 3.14575 232.353 2.93351V1.66005C232.353 1.1446 232.393 0.773172 232.473 0.545769C232.607 0.181923 232.96 0 233.533 0C233.893 0 234.16 0.0909619 234.333 0.272885C234.52 0.439647 234.627 0.62157 234.653 0.818653C234.68 1.01574 234.693 1.30378 234.693 1.68279V2.95625C235.067 3.04721 235.407 3.17607 235.713 3.34283C236.02 3.5096 236.233 3.64604 236.353 3.75216L236.533 3.93408L236.613 4.0023C236.947 4.35099 237.113 4.63903 237.113 4.86644C237.113 5.09384 236.953 5.47285 236.633 6.00346C236.327 6.53406 235.987 6.79937 235.613 6.79937C235.373 6.79937 235.167 6.73115 234.993 6.59471C234.833 6.45826 234.707 6.34456 234.613 6.2536C234.52 6.16264 234.433 6.08684 234.353 6.0262C234.127 5.85943 233.84 5.77605 233.493 5.77605C233.147 5.77605 232.86 5.87459 232.633 6.07168C232.407 6.2536 232.293 6.51132 232.293 6.84485C232.293 7.17837 232.427 7.45126 232.693 7.6635C232.973 7.86059 233.313 7.99703 233.713 8.07283C234.113 8.13347 234.553 8.24717 235.033 8.41393C235.513 8.56554 235.953 8.74746 236.353 8.9597C236.753 9.17195 237.087 9.55095 237.353 10.0967C237.633 10.6273 237.773 11.2944 237.773 12.0979Z" fill="#13C8A4"/>
<path d="M0 159.751C0 154.727 3.58172 150.655 8 150.655H60C64.4183 150.655 68 154.727 68 159.751V185.902H0V159.751Z" fill="black"/>
<path d="M88 123.366C88 118.343 91.5817 114.27 96 114.27H148C152.418 114.27 156 118.343 156 123.366V185.902H88V123.366Z" fill="black"/>
<path d="M176 39.2271C176 34.2035 179.582 30.131 184 30.131H236C240.418 30.131 244 34.2035 244 39.2271V185.902H176V39.2271Z" fill="#13C8A4"/>
<path fill-rule="evenodd" clip-rule="evenodd" d="M244 195H0V192.725H244V195Z" fill="black"/>
</svg>
