<svg width="277" height="210" viewBox="0 0 277 210" fill="none" xmlns="http://www.w3.org/2000/svg">
<mask id="mask0" mask-type="alpha" maskUnits="userSpaceOnUse" x="0" y="0" width="277" height="210">
<rect width="277" height="210" fill="#C4C4C4"/>
</mask>
<g mask="url(#mask0)">
<path d="M94 55C92.8017 52.2987 91.2009 48.7 90 46C90.8245 47.8562 93.057 52.8683 93.918 54.7887L94 55Z" fill="#FFC910"/>
<path d="M86.7091 58.1087L86.7092 58.1088C87.2218 59.2352 88.6834 60.0871 91.3602 60.3858C94.0051 60.6809 97.6787 60.4136 102.335 59.4756C111 57.7302 121.32 54.0148 130.998 49.4123C140.679 44.8089 149.683 39.3349 155.728 34.0898C158.527 31.6602 160.421 29.5151 161.481 27.7091C162.547 25.8904 162.713 24.5181 162.271 23.5483C161.209 21.2174 160.147 18.8857 159.086 16.5538C158.902 17.2879 158.565 18.0654 158.09 18.8751C156.952 20.8143 154.969 23.0423 152.129 25.5052C145.992 30.831 136.902 36.3504 127.176 40.9757C117.448 45.602 107.048 49.3506 98.2782 51.1174M86.7091 58.1087L98.1795 50.6272M86.7091 58.1087L83.523 51.1135M86.7091 58.1087L82.7608 50.6463C82.9914 50.8171 83.2459 50.9727 83.523 51.1135M98.2782 51.1174L98.1795 50.6272M98.2782 51.1174C98.2782 51.1174 98.2782 51.1173 98.2783 51.1173L98.1795 50.6272M98.2782 51.1174C93.5743 52.0656 89.7864 52.353 86.9957 52.0413C85.6203 51.8877 84.4465 51.5829 83.523 51.1135M98.1795 50.6272C90.577 52.1597 85.4798 51.9347 83.1601 50.3168L83.523 51.1135" fill="white" stroke="black"/>
<path d="M147.152 25.3971L147.152 25.3971C142.09 29.6985 134.545 34.1901 126.428 37.9687C118.314 41.7463 109.662 44.795 102.4 46.2275C98.7673 46.9438 95.8518 47.1827 93.6832 47.0168C91.4862 46.8488 90.179 46.2755 89.5932 45.5042C89.0455 44.7831 89.0091 43.7083 89.8423 42.1669C90.6732 40.6299 92.3121 38.7556 94.8471 36.6012C99.91 32.3016 107.455 27.8103 115.572 24.0317C123.686 20.2541 132.337 17.2051 139.597 15.7732L139.597 15.7732C143.23 15.0563 146.146 14.8171 148.315 14.9828C150.512 15.1507 151.82 15.724 152.406 16.4953C152.954 17.2165 152.991 18.2913 152.157 19.8324C151.327 21.3692 149.688 23.2433 147.152 25.3971ZM98.7586 50.4664L98.7586 50.4663C107.638 48.715 118.169 44.999 128.021 40.4125C137.87 35.827 147.075 30.3552 153.29 25.0754C156.393 22.4388 158.491 20.072 159.588 18.0416C160.684 16.0154 160.841 14.1965 159.795 12.8217C158.788 11.4972 156.789 10.7724 154.061 10.5639C151.304 10.3533 147.675 10.6597 143.238 11.5344C134.36 13.2844 123.83 16.9999 113.978 21.5861C104.13 26.1712 94.9246 31.6431 88.7096 36.9229L88.7096 36.9229C85.6067 39.5595 83.5096 41.9263 82.4119 43.9569C81.3166 45.9831 81.1593 47.8022 82.2042 49.1772C83.2108 50.502 85.2093 51.2272 87.9373 51.4359C90.6935 51.6468 94.322 51.3407 98.7586 50.4664Z" fill="#13C8A4" stroke="black"/>
<path d="M139.327 14.8723C153.813 11.9108 157.351 16.7344 147.228 25.6419C137.106 34.5506 117.158 44.1685 102.67 47.1287C88.1855 50.0877 84.6506 45.2666 94.7722 36.3566C104.895 27.4517 124.842 17.8313 139.327 14.8723Z" fill="white"/>
<path d="M95.2574 37.3994C105.387 28.5506 125.345 18.9986 139.837 16.0583C147.05 14.5951 151.545 15.0486 153 16.959C152.611 14.0833 147.88 13.1357 139.35 14.8649C124.858 17.804 104.901 27.3597 94.7728 36.2048C89.6843 40.6514 88.0497 44.0706 89.5148 46C89.2436 43.9908 91.0917 41.0378 95.2574 37.3994Z" fill="black"/>
<path d="M125.098 25.694L118.669 31.1003L125.018 29.8595C125.653 29.7354 126.348 29.5443 127.06 29.3036C129.296 28.5479 131.717 27.3034 133.11 26.1308C134.95 24.586 134.309 23.7497 131.675 24.2646L125.324 25.5017L125.098 25.694ZM117.724 37.8939C120.314 37.0091 123.101 35.5723 124.713 34.2173C126.859 32.4144 126.109 31.4378 123.04 32.0384L115.895 33.4319L115.667 33.6229L108.126 39.9611L115.27 38.5676C116.035 38.42 116.866 38.1842 117.724 37.8939ZM129.936 29.6039C131.34 30.1002 131.009 31.4862 128.682 33.4418C125.986 35.7088 121.354 38.1147 117.003 39.6397C115.43 40.1919 113.894 40.6274 112.499 40.8991L111.701 41.053L111.477 41.2454L110.595 41.9849L109.943 42.1152L106.626 42.7616L107.733 41.8298L105.353 42.2939L105.126 42.4837L104.245 43.2245L103.596 43.3523L100.277 44L101.386 43.0681L99 43.5347L101.548 41.3918L101.774 41.2019L103.504 40.8644L104.157 40.7366L111.926 34.2061L114.699 31.8746L121.355 26.2785L118.974 26.7425L121.52 24.6021L121.748 24.4098L123.475 24.0723L124.13 23.947L125.012 23.2037L125.24 23.0114L129.208 22.2371L128.098 23.1714L129.83 22.8315L130.48 22.7061L131.362 21.9641L131.589 21.7743L135.561 21L134.45 21.9319C139.265 20.9926 140.448 22.5274 137.084 25.3565C135.344 26.8195 132.724 28.342 129.936 29.6039Z" fill="#F99B0F"/>
<path d="M125.42 25.0801L125.421 25.0791L125.549 24.9708L131.77 23.7575L131.771 23.7574C132.406 23.6329 132.891 23.5965 133.232 23.622C133.506 23.6425 133.62 23.6977 133.658 23.7214C133.654 23.7481 133.638 23.7973 133.594 23.8776C133.481 24.0859 133.23 24.3809 132.789 24.7512C131.458 25.8695 129.099 27.0872 126.9 27.8329C126.205 28.0678 125.533 28.2513 124.921 28.3716C124.92 28.3716 124.92 28.3717 124.92 28.3717L120.469 29.2397L125.42 25.0801ZM133.659 23.6951C133.659 23.6948 133.661 23.6985 133.66 23.7072C133.658 23.6999 133.658 23.6955 133.659 23.6951ZM109.927 38.101L115.987 33.0068L115.988 33.0059L116.116 32.8976L123.133 31.5292L123.133 31.5292C123.878 31.3839 124.452 31.3407 124.858 31.3715C125.294 31.4046 125.419 31.5125 125.435 31.5329C125.435 31.5331 125.435 31.5334 125.435 31.5335L125.435 31.5336L125.436 31.537C125.436 31.5389 125.436 31.5416 125.436 31.5453C125.436 31.5478 125.436 31.5507 125.436 31.5542C125.434 31.5906 125.418 31.6686 125.349 31.7945C125.21 32.0506 124.909 32.4024 124.392 32.8369C122.842 34.138 120.115 35.5504 117.562 36.4239C116.722 36.7098 115.912 36.9339 115.176 37.0775C115.176 37.0775 115.176 37.0775 115.176 37.0775L109.927 38.101ZM137.404 20.1762C137 20.1453 136.537 20.1527 136.018 20.1986C136.074 20.0691 136.074 19.9182 136.01 19.7844C135.912 19.5787 135.687 19.4656 135.463 19.5093L131.494 20.2847C131.411 20.3011 131.333 20.3386 131.267 20.3936L131.042 20.5844L131.04 20.5859L130.257 21.2414L129.735 21.3442L129.734 21.3444L129.695 21.3519C129.72 21.2444 129.71 21.1289 129.659 21.0239C129.561 20.8182 129.336 20.7051 129.112 20.7487L125.143 21.5229C125.06 21.5392 124.981 21.5767 124.916 21.6318L124.69 21.8231L124.689 21.8241L123.906 22.482L123.38 22.5849L123.38 22.585L121.651 22.9211C121.567 22.9375 121.488 22.9753 121.423 23.031L121.199 23.2213L121.197 23.2233L118.652 25.3603C118.477 25.5069 118.424 25.7531 118.522 25.9588C118.621 26.1645 118.846 26.2776 119.069 26.2339L119.553 26.1394L114.376 30.4932L114.376 30.4933L111.602 32.8257L111.602 32.8257L103.935 39.2726L103.409 39.3723L103.406 39.3729L101.678 39.7129C101.595 39.7291 101.518 39.7658 101.454 39.8196L101.226 40.0095L101.225 40.0106L98.6782 42.152C98.5038 42.2987 98.4506 42.5448 98.5489 42.7504C98.6472 42.956 98.8721 43.0691 99.0958 43.0255L99.7861 42.8907C99.7623 42.9972 99.7732 43.1115 99.8229 43.2155C99.9211 43.4213 100.146 43.5345 100.37 43.4907L103.688 42.8419L103.689 42.8418L104.339 42.7154C104.422 42.6992 104.5 42.6621 104.564 42.6077L105.446 41.8682L105.447 41.868L105.575 41.7601L106.135 41.6509C106.111 41.7575 106.122 41.8718 106.171 41.9759C106.27 42.1816 106.494 42.2949 106.718 42.2513L110.038 41.6049L110.04 41.6046L110.691 41.4756C110.774 41.4592 110.852 41.4221 110.916 41.3677L111.795 40.6283L111.797 40.627L111.924 40.5208L112.593 40.3903C114.016 40.1129 115.578 39.6689 117.167 39.1134L117.167 39.1133C121.554 37.5753 126.247 35.1456 129.005 32.8269C130.18 31.8393 130.944 30.9234 131.187 30.1214C131.314 29.7012 131.309 29.2715 131.094 28.8922C131.052 28.818 131.004 28.749 130.95 28.6849C133.458 27.4904 135.79 26.0996 137.404 24.7402C138.265 24.017 138.877 23.3436 139.208 22.7368C139.536 22.1337 139.646 21.4674 139.231 20.9282C138.857 20.4416 138.173 20.2348 137.404 20.1762Z" fill="#13C8A4" stroke="black" stroke-linecap="round" stroke-linejoin="round"/>
<path d="M88 51.4947L91.8017 60.8717C94.5156 61.1941 98.2588 60.9159 102.968 59.9574C107.625 59.0064 112.755 57.48 118 55.554L114.126 46C108.757 47.9879 103.497 49.5636 98.7298 50.5374C94.2676 51.4466 90.674 51.74 88 51.4947Z" fill="black"/>
<path d="M82.9094 94.7184C74.1998 87.8772 54.4177 90.744 38.7264 101.116C23.0388 111.49 17.3799 125.443 26.0895 132.283C34.8004 139.122 54.5812 136.256 70.2701 125.886C85.9602 115.51 91.6215 101.557 82.9094 94.7184Z" fill="white"/>
<path d="M39.026 102.741C54.7378 92.2923 74.5429 89.4073 83.2631 96.2941C85.2146 97.8356 86.4397 99.7356 87 101.874C86.6966 99.1044 85.3897 96.6477 82.9786 94.7452C74.2583 87.8547 54.452 90.7421 38.7415 101.189C26.5487 109.302 20.4121 119.582 22.3535 127C21.5591 119.746 27.6617 110.3 39.026 102.741Z" fill="black"/>
<path d="M66.7533 110.079L66.7526 110.079C64.7571 111.458 62.4079 112.043 60.8344 111.757L60.8335 111.757C60.3421 111.669 59.952 111.499 59.6695 111.267L59.6689 111.266L56.5268 108.695L65.5255 102.492L65.5276 102.491L65.5546 102.472L68.9174 105.227L68.9175 105.227C69.4599 105.671 69.6071 106.358 69.2625 107.244C68.9119 108.146 68.0645 109.176 66.7533 110.079ZM44.4824 122.429L44.4822 122.428L40.8825 119.48L51.5245 112.144L51.5249 112.144L51.5536 112.124L55.3774 115.255C55.3775 115.255 55.3775 115.255 55.3776 115.255C56.0434 115.8 56.2129 116.644 55.8017 117.702C55.3848 118.774 54.3827 119.99 52.8429 121.051C50.5297 122.645 47.8084 123.339 45.9473 123.031C45.3348 122.928 44.8388 122.721 44.4824 122.429ZM74.1453 102.063L75.284 101.276C75.4133 101.187 75.4932 101.042 75.4996 100.885C75.506 100.728 75.4383 100.578 75.3167 100.478L73.031 98.6075C72.8586 98.4664 72.6138 98.4563 72.4305 98.5828L72.0935 98.8151L72.0932 98.8153L71.095 99.5027L71.0111 99.4344L71.0104 99.4338L70.5294 99.0408L71.6273 98.2834C71.7566 98.1941 71.8365 98.0493 71.843 97.8923C71.8494 97.7353 71.7817 97.5844 71.6601 97.4849L69.3732 95.6131C69.2012 95.4723 68.957 95.462 68.7737 95.5877L68.4365 95.819L68.4357 95.8195L67.4372 96.507L67.3538 96.4391L67.3526 96.4381L66.3581 95.6233C66.1855 95.4819 65.9402 95.4719 65.7567 95.5989L65.4178 95.8334L65.417 95.8339L61.6361 98.4394C61.5067 98.5286 61.4267 98.6735 61.4203 98.8305C61.4138 98.9876 61.4816 99.1386 61.6033 99.2381L62.4606 99.9395L53.1249 106.375L53.1248 106.376L49.0084 109.214L49.0084 109.214L37.7892 116.949L37.7074 116.882L37.7071 116.882L36.7102 116.066C36.539 115.926 36.2959 115.915 36.1128 116.039L35.7719 116.271L35.7719 116.27L35.7687 116.273L31.9883 118.881C31.8589 118.97 31.779 119.115 31.7726 119.272C31.7663 119.43 31.8341 119.58 31.9558 119.68L32.8127 120.38L31.7162 121.136C31.5868 121.226 31.5069 121.37 31.5004 121.527C31.4939 121.684 31.5615 121.835 31.683 121.935L33.5922 123.5L33.5926 123.5L33.9691 123.808C34.1413 123.949 34.386 123.959 34.5692 123.833L35.876 122.933L35.8764 122.933L35.905 122.913L36.4704 123.376L35.3733 124.13C35.2438 124.219 35.1636 124.364 35.157 124.521C35.1504 124.678 35.2181 124.829 35.3397 124.929L37.2506 126.495L37.2514 126.495L37.6234 126.802C37.7956 126.943 38.0407 126.954 38.2244 126.827L39.5328 125.927L39.5344 125.926L39.5621 125.907L39.7278 126.042L39.728 126.042C40.6214 126.771 41.7916 127.21 43.1034 127.393C46.7142 127.905 51.6208 126.556 55.6973 123.746L55.6973 123.746C59.0373 121.443 61.1792 118.593 61.6336 116.042C64.2348 115.631 67.0842 114.516 69.6064 112.777C72.1593 111.017 73.9418 108.921 74.719 106.924C75.417 105.13 75.3134 103.356 74.1453 102.063Z" fill="#13C8A4" stroke="black" stroke-linecap="round" stroke-linejoin="round"/>
<path d="M37.042 186.057C33.305 186.373 30.4541 185.849 28.1638 184.971C27.9461 184.9 27.7894 184.812 27.5717 184.741C27.119 184.537 26.7275 184.317 26.3361 184.096C26.1012 183.964 25.9446 183.876 25.7709 183.726C23.8404 182.485 22.4877 180.951 21.3869 179.61C18.657 176.22 14.3837 177.211 14.3837 177.211L23.0193 207.353C27.934 205.59 38.3764 202.405 38.3764 202.405C38.4498 195.599 37.7983 192.764 37.042 186.057Z" fill="black"/>
<path d="M28.1471 184.911C27.9293 184.839 27.7727 184.751 27.5549 184.68C27.3464 186.056 27.0767 187.448 26.8683 188.824C26.7874 189.242 27.4236 189.394 27.4433 188.993C27.713 187.601 27.9386 186.286 28.1471 184.911Z" fill="white"/>
<path d="M26.3191 184.036C26.0842 183.904 25.9276 183.816 25.7539 183.666C25.4573 185.198 25.2389 186.774 24.9423 188.306C24.8614 188.724 25.4976 188.876 25.5173 188.476C25.8311 187.005 26.0665 185.49 26.3191 184.036Z" fill="white"/>
<path d="M82.9251 94.8759L82.9252 94.876C84.9981 96.5333 86.2043 98.6083 86.6286 100.948C87.0545 103.297 86.6981 105.943 85.5868 108.734C83.3618 114.321 78.1394 120.407 70.3957 125.623C62.6579 130.832 53.9145 134.154 46.0453 135.315C38.1536 136.479 31.2447 135.458 27.0755 132.123L26.7632 132.514L27.0755 132.123C25.0032 130.466 23.7974 128.39 23.373 126.05C22.9472 123.702 23.3035 121.055 24.4145 118.264C26.6389 112.677 31.86 106.592 39.6024 101.377C47.3414 96.1663 56.0858 92.8446 63.9555 91.6837C71.8477 90.5195 78.7566 91.5409 82.9251 94.8759ZM89.4054 90.1504L89.4053 90.1503C84.0192 85.8446 75.3013 84.6468 65.6522 86.0709C55.9805 87.4984 45.2691 91.5725 35.7955 97.9515L35.7955 97.9515C26.3273 104.328 19.8396 111.832 17.0464 118.847C15.6485 122.357 15.1687 125.765 15.7284 128.85C16.2895 131.944 17.8906 134.683 20.5953 136.846C25.9813 141.154 34.6983 142.353 44.3466 140.93C54.0173 139.503 64.7278 135.429 74.2014 129.049C83.6703 122.673 90.1589 115.168 92.9529 108.152C94.3511 104.642 94.8312 101.234 94.2719 98.1474C93.711 95.053 92.1101 92.3138 89.4054 90.1504Z" fill="#13C8A4" stroke="black" stroke-linecap="round" stroke-linejoin="round"/>
<path d="M96.2618 103.249L96.2618 103.25C98.3965 107.579 97.7434 113.124 94.5095 118.977C91.2794 124.823 85.5066 130.907 77.5563 136.233C68.1611 142.527 57.545 146.539 47.9877 147.941C38.4077 149.347 29.995 148.118 24.9065 144.071C23.3432 142.826 22.1857 141.39 21.4058 139.811C21.3453 139.685 21.2658 139.526 21.2058 139.406C20.689 138.357 20.1721 137.308 19.6552 136.259C19.8713 136.452 20.0954 136.641 20.3275 136.826L20.3275 136.826C25.7357 141.128 34.4884 142.326 44.1771 140.905C53.8883 139.48 64.6439 135.41 74.1576 129.037C82.2042 123.647 88.1032 117.454 91.4286 111.435C93.6796 107.36 94.766 103.333 94.5062 99.687L96.2618 103.249Z" fill="white" stroke="black" stroke-linecap="round" stroke-linejoin="round"/>
<path d="M36.4921 140.977C29.9894 141.015 24.3693 139.549 20.5535 136.437C18.9735 135.148 17.7955 133.653 17 132C18.2233 134.546 19.4466 137.088 20.6699 139.635C20.7288 139.755 20.806 139.914 20.8636 140.036C21.6591 141.688 22.8371 143.184 24.4171 144.473C27.9632 147.367 33.0722 148.836 39 149L36.4921 140.977Z" fill="black"/>
<path d="M111.782 191.337L98.9768 191.241L103.122 173.082L115.928 173.177L111.782 191.337Z" fill="#593446"/>
<path d="M100.922 175.056C101.119 175.029 101.281 174.887 101.334 174.695C104.253 164.245 109.498 145.802 114.564 129.663C117.098 121.593 119.585 114.106 121.713 108.486C122.777 105.674 123.748 103.34 124.587 101.637C125.007 100.784 125.388 100.101 125.726 99.5979C126.076 99.0772 126.339 98.8126 126.506 98.7193L126.506 98.7192C126.931 98.4808 127.486 98.4173 128.192 98.5607C128.257 98.5741 128.325 98.5741 128.391 98.5607C128.785 98.4805 129.246 98.4669 129.783 98.5386L129.783 98.5386C133.389 99.0172 138.978 101.544 145.867 105.517C152.733 109.475 160.821 114.827 169.399 120.883C186.553 132.995 205.638 147.905 220.775 160.074C220.877 160.156 221.007 160.195 221.137 160.182C227.536 159.56 232.545 159.121 235.41 158.927L235.376 158.428L235.41 158.927C256.716 157.476 268.063 166.496 271.623 176.347C275.205 186.259 270.983 197.031 261.05 199.553C260.523 199.686 259.599 199.794 258.352 199.875C257.116 199.955 255.595 200.006 253.894 200.035C250.49 200.093 246.38 200.061 242.41 199.992C238.441 199.924 234.614 199.819 231.781 199.731C230.364 199.687 229.195 199.647 228.381 199.619C227.973 199.604 227.655 199.593 227.438 199.585L227.191 199.576L227.128 199.573L227.113 199.573L227.112 199.573L227.108 199.573L227.107 199.573L135.544 194.852C135.476 194.848 135.408 194.859 135.344 194.882C135.287 194.904 135.236 194.916 135.191 194.923L35.2609 202.22L35.8587 186.623L35.8858 186.618C36.1554 186.561 36.5547 186.479 37.0736 186.372C38.1113 186.158 39.627 185.848 41.5386 185.463C45.3616 184.693 50.7677 183.623 57.099 182.425C69.7631 180.028 86.1237 177.116 100.922 175.056ZM172.303 165.642C172.5 165.618 172.663 165.479 172.72 165.289C172.777 165.099 172.716 164.894 172.565 164.766L140.222 137.227C140.108 137.13 139.958 137.089 139.811 137.115C139.665 137.14 139.537 137.23 139.463 137.359L119.58 172.123C119.488 172.284 119.493 172.483 119.592 172.639C119.691 172.796 119.869 172.884 120.054 172.87C122.725 172.658 125.201 172.517 127.427 172.463C127.457 172.462 127.486 172.459 127.515 172.453C138.489 170.207 155.179 167.801 172.303 165.642Z" fill="white" stroke="black" stroke-linecap="round" stroke-linejoin="round"/>
<path d="M199.578 65.6512C199.213 65.6462 198.921 65.6395 198.716 65.6338C198.702 65.5954 198.687 65.5541 198.671 65.51C198.567 65.2236 198.413 64.8189 198.21 64.3422C197.805 63.3914 197.202 62.1421 196.412 60.9705C195.626 59.8056 194.63 58.6772 193.425 58.0166C192.193 57.3417 190.759 57.1664 189.189 57.8967L189.189 57.8968C188.705 58.1225 188.39 58.2069 188.207 58.2165C188.182 58.2179 188.162 58.2176 188.147 58.2166C188.146 58.2015 188.145 58.1819 188.146 58.1571C188.149 58.0775 188.167 57.967 188.208 57.8217C188.29 57.5299 188.45 57.151 188.69 56.6916C189.656 54.8478 191.749 52.0202 194.261 49.0947C196.767 46.1762 199.659 43.1964 202.198 41.0472C203.47 39.971 204.637 39.1166 205.613 38.5808C206.101 38.3128 206.525 38.1334 206.879 38.0418C207.066 37.9935 207.221 37.9725 207.35 37.971C207.354 38.0003 207.358 38.0311 207.363 38.0635C207.408 38.3662 207.48 38.8051 207.592 39.3566C207.814 40.4594 208.193 42.0138 208.817 43.8301C210.065 47.4607 212.301 52.1525 216.252 56.3731C217.542 57.7509 218.178 58.8857 218.373 59.8056C218.562 60.6959 218.346 61.4205 217.83 62.046C217.296 62.6929 216.424 63.2495 215.286 63.716C214.155 64.1799 212.802 64.5386 211.35 64.8133C208.446 65.3628 205.204 65.5662 202.679 65.6312C201.418 65.6636 200.34 65.6614 199.578 65.6512Z" fill="white" stroke="black"/>
<path d="M237.472 61.1439C237.472 61.1439 219.385 60.0225 205.186 63.0676C191.889 65.9204 183.915 72.5665 182.072 74.4475C178.257 78.3395 186.55 100.593 196.682 120.289C206.466 139.3 214.267 157.435 214.267 157.435C214.267 157.435 267.125 155.693 269.795 154.136C265.647 156.553 264.025 128.377 262.926 126.511C259.496 120.677 249.695 85.7337 248.106 77.7492C247.441 74.4015 242.279 63.0693 237.472 61.1439Z" fill="black"/>
<path d="M178.288 73.9858L178.283 73.9237L196.522 62.0723C196.522 62.0723 195.473 77.6969 195.013 90.3214C195.768 97.0938 196.605 105.612 197.138 114.13C200.336 125.228 209 143 209 143C209 143 201.661 134.717 197.687 130.002C197.673 138.843 196.952 146.241 194.964 149.651C191.453 155.682 189.005 154.27 187.171 149.827C181.594 151.793 176.444 152.07 176.444 152.07L171.211 144.029C171.211 144.029 179.193 132.855 183.014 131.519C180.796 117.944 176.121 80.3504 177.062 75.9145C177.226 75.1438 177.659 74.4998 178.288 73.9858Z" fill="black"/>
<path d="M201.479 63.3993L201.989 65.5392L198.435 71.3738L194.165 65.8887L195.476 60.9421L201.479 63.3993Z" fill="#13C8A4"/>
<path d="M218.163 57.0303L221.548 61.8739L208.45 70.0698L202.084 65.5963L200.685 63.5587L208.743 62.236L218.163 57.0303Z" fill="#13C8A4"/>
<path d="M205.178 154.827C201.997 154.98 198.981 155.791 194.87 157.104C192.215 157.954 190.714 160.781 192.06 161.595C193.789 162.641 196.08 162.773 199.988 162.57C202.224 162.455 204.677 162.139 207.205 161.604L205.178 154.827Z" fill="white"/>
<path d="M195.996 157.018L187.008 153.523C187.008 153.523 184.002 156.713 184.404 157.629C184.807 158.541 183.734 163.627 183.734 163.627L187.806 167.866L191.591 167.063C191.591 167.063 192.014 165.521 190.786 165.233C189.555 164.942 191.743 164.278 192.44 163.982C193.138 163.68 198.808 161.526 195.996 157.018Z" fill="white"/>
<path d="M197.425 155.479C193.079 155.261 183.734 154.305 183.734 154.827" stroke="black" stroke-linecap="round" stroke-linejoin="round"/>
<path d="M220.013 57.7161C220.026 57.694 220.033 57.6826 220.033 57.6826L227.743 57.8885C249.02 59.1176 259.68 79.9782 262.37 87.8416C272.589 117.688 274.952 183.568 274.952 183.568L239.625 187.047C239.625 187.047 235.983 174.703 231.426 158.779C219.226 162.772 199.764 167.722 199.764 167.722L195.951 154.907C195.951 154.907 218.849 145.177 226.679 142.039C225.116 136.467 223.552 130.826 222.077 125.407C218.505 112.921 214.242 93.7076 214.626 80.1171C214.999 66.9663 218.92 57.6826 218.92 57.6826L220.013 57.7161Z" fill="black"/>
<mask id="path-30-inside-1" fill="white">
<path fill-rule="evenodd" clip-rule="evenodd" d="M140.726 166.995L140.705 168.331L140.703 168.387L140.862 168.717C141.658 170.272 143.128 170.579 144.813 170.617L200.391 171.775C202.074 171.812 203.553 171.568 204.4 170.049L204.566 169.719L204.595 169.665L204.597 167.892L188.875 167.565L181.169 136.315C180.963 135.482 180.121 134.796 179.286 134.78L134.065 133.964C133.228 133.949 132.721 134.607 132.925 135.446L140.705 166.994L140.726 166.995Z"/>
</mask>
<path fill-rule="evenodd" clip-rule="evenodd" d="M140.726 166.995L140.705 168.331L140.703 168.387L140.862 168.717C141.658 170.272 143.128 170.579 144.813 170.617L200.391 171.775C202.074 171.812 203.553 171.568 204.4 170.049L204.566 169.719L204.595 169.665L204.597 167.892L188.875 167.565L181.169 136.315C180.963 135.482 180.121 134.796 179.286 134.78L134.065 133.964C133.228 133.949 132.721 134.607 132.925 135.446L140.705 166.994L140.726 166.995Z" fill="#13C8A4"/>
<path d="M140.726 166.995L141.726 167.01L141.741 166.013L140.744 165.995L140.726 166.995ZM140.705 168.331L141.705 168.36L141.705 168.347L140.705 168.331ZM140.703 168.387L139.704 168.358L139.697 168.601L139.802 168.82L140.703 168.387ZM140.862 168.717L139.96 169.15L139.966 169.161L139.972 169.173L140.862 168.717ZM144.813 170.617L144.79 171.616L144.792 171.617L144.813 170.617ZM200.391 171.775L200.414 170.775L200.412 170.775L200.391 171.775ZM204.4 170.049L205.273 170.536L205.283 170.518L205.292 170.5L204.4 170.049ZM204.566 169.719L203.686 169.244L203.68 169.256L203.673 169.269L204.566 169.719ZM204.595 169.665L205.475 170.141L205.595 169.918L205.595 169.666L204.595 169.665ZM204.597 167.892L205.597 167.893L205.598 166.913L204.618 166.893L204.597 167.892ZM188.875 167.565L187.904 167.804L188.088 168.549L188.854 168.565L188.875 167.565ZM181.169 136.315L182.14 136.075L182.14 136.075L181.169 136.315ZM179.286 134.78L179.306 133.78L179.304 133.78L179.286 134.78ZM134.065 133.964L134.083 132.964L134.082 132.964L134.065 133.964ZM132.925 135.446L131.953 135.683L131.954 135.686L132.925 135.446ZM140.705 166.994L139.735 167.234L139.919 167.98L140.687 167.994L140.705 166.994ZM139.726 166.979L139.705 168.315L141.705 168.347L141.726 167.01L139.726 166.979ZM139.705 168.302L139.704 168.358L141.703 168.416L141.705 168.36L139.705 168.302ZM139.802 168.82L139.96 169.15L141.763 168.284L141.605 167.954L139.802 168.82ZM139.972 169.173C141.04 171.258 143.045 171.578 144.79 171.616L144.835 169.617C143.211 169.581 142.276 169.286 141.752 168.261L139.972 169.173ZM144.792 171.617L200.371 172.774L200.412 170.775L144.833 169.617L144.792 171.617ZM200.369 172.774C202.111 172.813 204.133 172.582 205.273 170.536L203.526 169.562C202.972 170.555 202.037 170.811 200.414 170.775L200.369 172.774ZM205.292 170.5L205.459 170.17L203.673 169.269L203.507 169.598L205.292 170.5ZM205.446 170.195L205.475 170.141L203.716 169.189L203.686 169.244L205.446 170.195ZM205.595 169.666L205.597 167.893L203.597 167.892L203.595 169.664L205.595 169.666ZM204.618 166.893L188.896 166.565L188.854 168.565L204.576 168.892L204.618 166.893ZM189.846 167.326L182.14 136.075L180.198 136.554L187.904 167.804L189.846 167.326ZM182.14 136.075C181.829 134.819 180.61 133.806 179.306 133.78L179.267 135.78C179.633 135.787 180.097 136.145 180.198 136.555L182.14 136.075ZM179.304 133.78L134.083 132.964L134.046 134.963L179.268 135.78L179.304 133.78ZM134.082 132.964C133.388 132.952 132.734 133.226 132.312 133.775C131.893 134.32 131.791 135.017 131.953 135.683L133.896 135.21C133.875 135.122 133.878 135.064 133.884 135.033C133.889 135.004 133.897 134.995 133.897 134.994C133.897 134.994 133.898 134.993 133.9 134.992C133.902 134.99 133.906 134.987 133.914 134.983C133.93 134.976 133.971 134.962 134.047 134.963L134.082 132.964ZM131.954 135.686L139.735 167.234L141.676 166.755L133.896 135.207L131.954 135.686ZM140.687 167.994L140.708 167.994L140.744 165.995L140.724 165.994L140.687 167.994Z" fill="black" mask="url(#path-30-inside-1)"/>
<path d="M164.079 150.961C164.51 152.399 163.44 153.546 161.692 153.522C159.943 153.496 158.179 152.305 157.75 150.867C157.319 149.424 158.389 148.278 160.138 148.307C161.885 148.331 163.65 149.52 164.079 150.961Z" fill="white"/>
<path d="M180.65 50.953C176.707 43.1287 179.221 33.9289 186.232 30.4748C193.243 27.0207 202.154 30.4393 206.097 38.2635C206.097 38.2635 206.097 38.2636 206.182 38.3324C206.918 37.9445 207.67 37.7103 208.284 37.646C212.93 36.7709 215.936 40.1862 214.93 43.8661C214.03 47.0688 211.183 50.2422 207.07 50.2844C205.895 53.8267 203.578 56.8668 200.516 58.7418C191.037 64.5524 184.593 58.7773 180.65 50.953Z" fill="white"/>
<path d="M213.788 47.715C214.68 46.6114 215.317 45.3014 215.647 44.0235C216.133 42.0298 215.698 40.1327 214.373 38.6395C212.878 37.0088 210.56 36.3967 207.964 36.824C207.434 36.9571 206.905 37.0903 206.306 37.3084C204.359 33.6268 201.18 30.7736 197.449 29.2993C193.479 27.7723 189.298 27.8994 185.758 29.6689C182.149 31.5233 179.542 34.7493 178.501 38.8215C177.459 42.8937 177.85 47.2822 179.83 51.2712C182.69 56.9553 186.157 60.3223 190.094 61.5419C193.384 62.5185 197.039 61.8249 200.752 59.4933C203.814 57.6184 206.216 54.6471 207.545 51.0887C210.311 50.799 212.416 49.413 213.788 47.715ZM182.615 34.4275C183.713 33.0692 184.997 32.0021 186.622 31.2103C189.786 29.5579 193.506 29.4791 196.999 30.9007C200.491 32.3223 203.5 35.0378 205.362 38.6506L205.666 39.3181L206.418 39.084C207.085 38.781 207.837 38.5469 208.367 38.4137C210.348 38.0508 212.104 38.4886 213.173 39.7754C214.142 40.8396 214.443 42.2068 214.045 43.5696C213.333 46.3639 210.778 49.3513 206.904 49.4462L206.358 49.4257L206.185 49.9878C205.146 53.3603 202.967 56.2307 199.973 58.0207C196.619 60.0815 193.426 60.7268 190.545 59.9406C187.017 58.9113 183.89 55.8195 181.233 50.5804C179.371 46.9676 178.944 42.9714 179.949 39.2915C180.605 37.4354 181.517 35.7858 182.615 34.4275Z" fill="black"/>
<path d="M205.183 44.9601C205.774 42.489 208.069 40.6936 210.628 40.6575C211.328 40.6617 211.442 41.7375 210.743 41.7333C208.644 41.7209 206.761 43.0068 206.291 45.1544C206.134 45.8702 205.094 45.591 205.183 44.9601Z" fill="black"/>
<path d="M187.378 52.5649C186.587 50.2388 186.103 47.8805 185.994 45.4049C185.998 44.7051 187.073 44.5921 187.07 45.2919C187.162 47.6137 187.646 49.9721 188.352 52.2293C188.571 52.8281 187.597 53.1636 187.378 52.5649Z" fill="black"/>
<path fill-rule="evenodd" clip-rule="evenodd" d="M191.414 55.8391C191.419 56.1472 191.673 56.3926 191.981 56.3872L191.972 55.8635C191.981 56.3872 191.981 56.3872 191.981 56.3872L191.983 56.3872L191.984 56.3872L191.99 56.387L192.01 56.3865C192.027 56.386 192.051 56.3852 192.081 56.3839C192.14 56.3813 192.226 56.3769 192.33 56.3691C192.538 56.3537 192.826 56.3251 193.146 56.2721C193.759 56.1706 194.596 55.9638 195.176 55.5074C195.657 55.129 196.028 54.5251 196.266 54.0738C196.39 53.8385 196.487 53.6242 196.554 53.4685C196.588 53.3905 196.614 53.3266 196.632 53.2814C196.641 53.2588 196.648 53.2408 196.653 53.2281L196.659 53.2129L196.66 53.2084L196.661 53.2062C196.661 53.2062 196.661 53.206 196.138 53.0114L196.661 53.2062C196.769 52.9174 196.622 52.5959 196.333 52.4885C196.044 52.3811 195.723 52.5279 195.616 52.8165L195.615 52.8183L195.611 52.8277C195.608 52.8366 195.603 52.8505 195.595 52.8688C195.581 52.9055 195.558 52.9599 195.529 53.0276C195.471 53.1635 195.386 53.3504 195.278 53.5541C195.054 53.9808 194.772 54.4056 194.486 54.6306C194.143 54.9007 193.55 55.0741 192.964 55.1712C192.685 55.2174 192.431 55.2427 192.247 55.2563C192.156 55.2631 192.082 55.2669 192.033 55.269C192.008 55.2701 191.989 55.2707 191.977 55.2711L191.964 55.2714L191.962 55.2715C191.654 55.277 191.408 55.5311 191.414 55.8391Z" fill="black"/>
<path fill-rule="evenodd" clip-rule="evenodd" d="M190.453 45.3276L190.174 44.8444C190.453 45.3276 190.453 45.3276 190.453 45.3276L190.454 45.327L190.46 45.3236L190.486 45.3088C190.509 45.2956 190.545 45.2761 190.59 45.2519C190.68 45.2035 190.808 45.1368 190.957 45.0648C191.263 44.9173 191.631 44.7612 191.945 44.683C192.323 44.5885 192.821 44.5573 193.251 44.5539C193.46 44.5523 193.643 44.5572 193.774 44.5626C193.839 44.5652 193.89 44.568 193.925 44.57L193.964 44.5725L193.974 44.5731L193.975 44.5732L194.016 44.0168C194.057 43.4603 194.057 43.4603 194.057 43.4603L194.055 43.4602L194.052 43.4599L194.038 43.459L193.991 43.4561C193.95 43.4537 193.892 43.4506 193.819 43.4476C193.675 43.4417 193.473 43.4362 193.242 43.4381C192.79 43.4416 192.184 43.4729 191.674 43.6004C191.249 43.7065 190.8 43.9018 190.473 44.0596C190.305 44.1402 190.162 44.2147 190.061 44.2692C190.01 44.2965 189.97 44.3189 189.941 44.3348L189.908 44.3535L189.899 44.3588L189.896 44.3604L189.895 44.3609C189.895 44.3609 189.895 44.3612 190.174 44.8444L189.895 44.3609C189.628 44.515 189.536 44.8565 189.69 45.1234C189.844 45.3902 190.186 45.4815 190.453 45.3276ZM193.975 44.5732C194.283 44.5958 194.55 44.365 194.573 44.0578C194.596 43.7504 194.365 43.483 194.057 43.4603L194.016 44.0168" fill="black"/>
<path fill-rule="evenodd" clip-rule="evenodd" d="M179.501 48.3317L179.222 47.8485C179.501 48.3317 179.501 48.3317 179.501 48.3317L179.502 48.3311L179.508 48.3277L179.534 48.3128C179.558 48.2997 179.593 48.2802 179.638 48.256C179.728 48.2076 179.856 48.1409 180.005 48.0689C180.311 47.9214 180.68 47.7653 180.993 47.6871C181.371 47.5925 181.87 47.5614 182.299 47.558C182.508 47.5564 182.692 47.5613 182.822 47.5666C182.887 47.5693 182.939 47.5721 182.974 47.5741L183.013 47.5765L183.022 47.5772L183.024 47.5773L183.065 47.0209C183.106 46.4644 183.106 46.4644 183.106 46.4644L183.104 46.4643L183.1 46.464L183.087 46.4631L183.039 46.4601C182.998 46.4577 182.94 46.4546 182.868 46.4517C182.723 46.4458 182.521 46.4403 182.29 46.4421C181.838 46.4457 181.233 46.477 180.723 46.6044C180.298 46.7105 179.848 46.9059 179.521 47.0636C179.354 47.1443 179.211 47.2187 179.109 47.2732C179.059 47.3006 179.018 47.323 178.99 47.3389L178.956 47.3576L178.947 47.3629L178.944 47.3645L178.944 47.365C178.944 47.365 178.943 47.3653 179.222 47.8485L178.944 47.365C178.677 47.5191 178.585 47.8606 178.739 48.1275C178.893 48.3943 179.234 48.4856 179.501 48.3317ZM183.024 47.5773C183.331 47.5999 183.599 47.3691 183.621 47.0618C183.644 46.7545 183.413 46.487 183.106 46.4644L183.065 47.0209" fill="black"/>
<path d="M204.045 23.3356C198.151 17.7978 185.851 23.2119 183.59 26.5741C173.739 35.2245 171.897 38.2944 174.104 42.597C176.304 45.8248 179.492 49.9723 180.031 46.2879C180.674 41.8982 181.661 35.148 186.626 32.1036C189.006 33.6832 194.058 36.3403 197.177 37.579C197.233 37.6011 197.288 37.6231 197.343 37.6451C200.948 39.0771 204.066 40.316 206.674 38.9785C215.473 37.978 208.56 27.5771 204.045 23.3356Z" fill="black"/>
<path d="M101.585 175.038L119.84 173.082" stroke="black" stroke-linecap="round"/>
<path d="M232 65C229.667 65 224.5 70 225.101 78.5C225.697 86.917 228.435 106 230.601 114.5" stroke="white" stroke-linecap="round"/>
<path fill-rule="evenodd" clip-rule="evenodd" d="M49.0711 74.3431L42.7071 80.7071C42.3166 81.0976 41.6834 81.0976 41.2929 80.7071L34.9289 74.3431C34.5384 73.9526 34.5384 73.3195 34.9289 72.9289C35.3195 72.5384 35.9526 72.5384 36.3431 72.9289L41 77.5858L41 37C41 36.4477 41.4477 36 42 36C42.5523 36 43 36.4477 43 37L43 77.5858L47.6568 72.9289C48.0474 72.5384 48.6805 72.5384 49.0711 72.9289C49.4616 73.3195 49.4616 73.9526 49.0711 74.3431Z" fill="black"/>
<path fill-rule="evenodd" clip-rule="evenodd" d="M60.0711 19.6569L53.7071 13.2929C53.3166 12.9024 52.6834 12.9024 52.2929 13.2929L45.9289 19.6569C45.5384 20.0474 45.5384 20.6805 45.9289 21.0711C46.3195 21.4616 46.9526 21.4616 47.3431 21.0711L52 16.4142L52 57C52 57.5523 52.4477 58 53 58C53.5523 58 54 57.5523 54 57L54 16.4142L58.6568 21.0711C59.0474 21.4616 59.6805 21.4616 60.0711 21.0711C60.4616 20.6805 60.4616 20.0474 60.0711 19.6569Z" fill="black"/>
</g>
</svg>
