<svg width="451" height="383" fill="none" xmlns="http://www.w3.org/2000/svg">
  <path d="M326.313 336.269c35.2 0 34.095-53.544 64.74-60.636 12.249-2.837 18.883-11.879 24.543-21.763 9.419-16.401 34.404-9.752 34.404 9.175v73.224H326.313z" fill="#13C8A4"/>
  <path d="M414.419 112.09c-.936 0-1.694-.761-1.694-1.699 0-.938.758-1.698 1.694-1.698.936 0 1.694.76 1.694 1.698s-.758 1.699-1.694 1.699zM45.053 207.196c-.9357 0-1.6943-.76-1.6943-1.698s.7586-1.698 1.6943-1.698c.9358 0 1.6944.76 1.6944 1.698s-.7586 1.698-1.6944 1.698zM63.6906 11.8886c-.9358 0-1.6944-.7604-1.6944-1.6983 0-.938.7586-1.6984 1.6944-1.6984.9357 0 1.6943.7604 1.6943 1.6984 0 .9379-.7586 1.6983-1.6943 1.6983zM122.993 103.598c-.936 0-1.695-.76-1.695-1.698s.759-1.698 1.695-1.698c.935 0 1.694.76 1.694 1.698s-.759 1.698-1.694 1.698zM282.261 23.7767c-.936 0-1.695-.7604-1.695-1.6984 0-.9379.759-1.6983 1.695-1.6983.935 0 1.694.7604 1.694 1.6983 0 .938-.759 1.6984-1.694 1.6984zM143.324 251.353c-.935 0-1.694-.76-1.694-1.698s.759-1.699 1.694-1.699c.936 0 1.695.761 1.695 1.699 0 .938-.759 1.698-1.695 1.698zM412.523 204.55c-.884-.27-1.383-1.208-1.113-2.094.27-.886 1.206-1.385 2.091-1.114.884.27 1.383 1.207 1.113 2.093-.27.886-1.206 1.385-2.091 1.115z" fill="#fff"/>
  <mask id="a" fill="#fff">
    <path d="M321.23 245.12l45.404 75.864 30.841-18.137c-.748-2.442-1.628-4.883-2.419-7.281l-2.596-7.194c-1.716-4.797-3.564-9.549-5.412-14.301-3.695-9.462-7.611-18.792-11.615-28.122-2.024-4.622-4.047-9.287-6.115-13.865l-3.124-6.889-3.168-6.845c-.66-1.439-1.363-2.922-2.023-4.36"/>
  </mask>
  <path d="M321.23 245.12l45.404 75.864 30.841-18.137c-.748-2.442-1.628-4.883-2.419-7.281l-2.596-7.194c-1.716-4.797-3.564-9.549-5.412-14.301-3.695-9.462-7.611-18.792-11.615-28.122-2.024-4.622-4.047-9.287-6.115-13.865l-3.124-6.889-3.168-6.845c-.66-1.439-1.363-2.922-2.023-4.36" fill="#fff"/>
  <path d="M366.634 320.984l.507.862-.855.503-.51-.851.858-.514zm30.841-18.137l.956-.293.232.755-.681.4-.507-.862zm-2.419-7.281l.94-.34.005.013.004.013-.949.314zm-2.596-7.194l-.941.339-.001-.003.942-.336zm-5.412-14.301l.932-.364v.001l-.932.363zm-11.615-28.122l.916-.402.003.007-.919.395zm-6.115-13.865l.911-.413v.001l-.911.412zm-3.124-6.889l.908-.42.003.007-.911.413zm-3.168-6.845l-.907.42-.002-.003.909-.417zm-40.938 26.257l45.404 75.864-1.716 1.027-45.404-75.864 1.716-1.027zm44.039 75.515l30.841-18.137 1.014 1.724-30.841 18.137-1.014-1.724zm30.392-16.982c-.745-2.432-1.608-4.824-2.413-7.261l1.899-.627c.779 2.359 1.676 4.85 2.426 7.302l-1.912.586zm-2.404-7.235l-2.596-7.194 1.881-.679 2.596 7.194-1.881.679zm-2.597-7.197c-1.71-4.781-3.553-9.52-5.402-14.275l1.864-.725c1.847 4.751 3.7 9.516 5.421 14.327l-1.883.673zm-5.401-14.274c-3.69-9.446-7.601-18.765-11.603-28.091l1.838-.789c4.006 9.335 7.926 18.677 11.628 28.153l-1.863.727zm-11.6-28.084c-2.025-4.626-4.046-9.284-6.111-13.855l1.823-.823c2.071 4.585 4.098 9.258 6.12 13.875l-1.832.803zm-6.11-13.853l-3.124-6.889 1.822-.826 3.124 6.889-1.822.826zm-3.12-6.882l-3.168-6.845 1.815-.84 3.168 6.845-1.815.84zm-3.17-6.848c-.328-.716-.667-1.443-1.009-2.174-.34-.73-.683-1.463-1.014-2.186l1.818-.834c.328.716.667 1.443 1.009 2.174.34.729.683 1.463 1.014 2.186l-1.818.834z" fill="#000" mask="url(#a)"/>
  <path d="M320.91 243.808l38.672-30.985c-3.531-7.64-7.146-15.197-10.804-22.756-1.918-3.959-4.985-6.967-8.603-8.771l-.002-.001-3.584-1.809-.001-.001c-7.994-4.057-16.033-7.981-24.116-11.818-8.127-3.793-16.252-7.497-24.462-11.023-8.213-3.528-16.51-6.922-24.85-10.051 0 0 0 0 0 0l-6.288-2.336s-.001-.001-.002-.001c-2.098-.75-4.19-1.498-6.324-2.201h-.001l-3.191-1.059-3.184-1.057-3.228-.969-1.611-.483-1.184-.323-19.621 48.061 90.592 37.71.155.064.084.144 11.553 19.665z" fill="#13C8A4" stroke="#000"/>
  <path d="M280.566 188.499l-15.518-28.856-47.173 28.295 62.691 12.465v-11.904zM396.817 300.787c2.084 6.849 5.019 11.537 8.181 14.981.279.337.544.552.823.889.678.659 1.342 1.199 2.006 1.738.399.323.664.539 1.05.742 3.547 2.551 7.2 3.872 10.336 4.882 7.892 2.457 9.165 10.733 9.165 10.733l-59.147-.185c-.369-9.956-2.392-22.571-2.392-22.571 11.919-4.915 17.647-7.835 29.978-11.209z" fill="#000"/>
  <path d="M405.128 315.744c.279.336.545.552.824.889-2.273 1.337-4.532 2.796-6.805 4.133-.678.438-1.396-.584-.704-.901 2.259-1.458 4.412-2.783 6.685-4.121zM407.954 318.351c.398.324.664.54 1.049.743-2.485 1.604-5.104 3.1-7.59 4.705-.677.437-1.395-.585-.704-.902 2.366-1.591 4.865-3.075 7.245-4.546z" fill="#fff"/>
  <path d="M143.325 190.213h106.743v84.917H143.325v-84.917z" fill="#000"/>
  <path d="M141.63 276.828h111.827v-88.313H141.63v88.313zm107.407-4.368H146.05v-79.578h102.987v79.578z" fill="#000"/>
  <path d="M167.045 188.515l-25.415 50.95v-15.123l18.191-35.827h7.224z" fill="#2B2B2B"/>
  <path d="M197.543 190.213h106.744v84.917H197.543v-84.917z" fill="#fff"/>
  <path d="M194.155 278.526h111.826v-90.011H194.155v90.011zm106.899-4.956H199.082v-80.099h101.972v80.099z" fill="#fff"/>
  <path d="M304.287 275.13h72.856v59.441h-72.856V275.13z" fill="#fff"/>
  <path d="M302.593 336.269h77.939v-62.838h-77.939v62.838zm73.528-4.388h-69.118v-54.062h69.118v54.062z" fill="#000"/>
  <path d="M143.325 249.655h106.743v84.916H143.325v-84.916z" fill="#fff"/>
  <path d="M141.63 336.27h111.827v-90.012H141.63v90.012zm107.407-4.452H146.05V250.71h102.987v81.108z" fill="#fff"/>
  <path d="M197.543 190.213h106.744v144.358H197.543V190.213z" fill="#fff"/>
  <path d="M194.155 336.269h111.826V188.515H194.155v147.754zm107.406-4.405H198.575V192.92h102.986v138.944z" fill="#000"/>
  <path d="M256.845 188.515l38.222 78.162c2.032 4.123 6.274 6.754 10.914 6.754v-57.239l-28.412-27.677h-20.724zM80.6339 249.655h84.7171v84.916H80.6339v-84.916z" fill="#000"/>
  <path d="M78.9396 336.27H168.74v-90.012H78.9396v90.012zm85.3584-4.452H83.3808V250.71h80.9172v81.108z" fill="#000"/>
  <path d="M122.993 249.655h74.551v84.916h-74.551v-84.916z" fill="#fff"/>
  <path d="M121.298 336.27h77.306v-90.012h-77.306v90.012zm73.529-4.452h-69.118V250.71h69.118v81.108zM261.928 275.13h-3.374v-22.456c-.834.824-1.875 1.604-3.209 2.428-1.333.823-2.499 1.43-3.583 1.82v-3.424c1.875-.911 3.542-2.038 4.958-3.382 1.417-1.3 2.417-2.601 3-3.858h2.167v28.872h.041z" fill="#000"/>
  <path d="M142.943 155.689c12.854-32.524 44.677-60.5444 75.128-50.912 0 0-30.575 32.648-44.053 50.536-9.61 12.76-17.472 38.779-21.715 54.04 8.236 9.006 5.117 26.269 3.369 26.769-4.991 1.626-5.615-9.382-5.615-9.382l-1.872-1c-.749 4.503-1.498 10.132-3.495 11.758-2.995 2.377-5.99-1.126-5.99-1.126-3.619 1.627-7.238-1-7.238-1-16.973-1.126-1.373-47.16 11.481-79.683z" fill="#fff"/>
  <path d="M142.445 239.373c.874 0 1.872-.25 2.746-1.001 2.121-1.751 2.995-6.63 3.619-11.008l.249.125c.125 1.876.874 7.38 3.619 9.257.999.625 2.122.75 3.245.375.499-.125 1.248-.75 1.872-3.377 1.123-4.253 2.371-16.763-4.493-24.643 7.239-26.019 14.352-43.907 21.341-53.164 13.228-17.638 43.679-50.161 43.928-50.412l.999-1.125-1.373-.501c-31.075-9.882-63.147 18.389-76.251 51.413-16.848 42.405-22.464 68.424-16.848 77.431 1.373 2.126 3.37 3.377 5.991 3.628.873.5 3.993 2.251 7.238 1.125 1.123 1.001 2.496 1.877 4.118 1.877zm4.992-15.011l-.25 2.001c-.624 3.878-1.372 9.257-3.119 10.633-2.247 1.751-4.618-.876-4.618-1.001l-.499-.5-.624.25c-2.995 1.376-6.24-.876-6.24-.876l-.25-.125h-.249c-2.122-.125-3.744-1.125-4.743-2.877-3.619-5.879-3.619-23.767 16.973-75.68 12.604-31.773 42.93-59.0427 72.507-50.787-5.491 5.88-31.199 33.65-43.055 49.411-7.113 9.507-14.476 27.77-21.839 54.29l-.125.5.374.375c7.613 8.256 5.117 23.643 3.619 25.394-.624.125-.998.125-1.497-.25-1.997-1.376-2.746-6.63-2.746-8.381v-.501l-3.619-1.876z" fill="#000"/>
  <path d="M139.575 222.235c.249-.75 1.497-.5 1.248.376-1.248 4.128-1.623 8.256-.999 12.509.125.75-1.123.75-1.248 0-.748-4.378-.374-8.631.999-12.885zM131.962 220.359c.249-.751 1.372-.501 1.248.375-1.124 4.253-1.373 8.631-.999 13.01.125.75-1.123.75-1.248 0-.499-4.629-.125-9.007.999-13.385zM175.517 302.313v3.386h-20.325c-.047-.868.139-1.649.417-2.431.511-1.302 1.346-2.561 2.506-3.82 1.16-1.259 2.785-2.692 4.919-4.342 3.341-2.562 5.615-4.602 6.775-6.078 1.16-1.476 1.763-2.909 1.763-4.255 0-1.389-.556-2.562-1.624-3.56-1.067-.955-2.459-1.433-4.176-1.433-1.81 0-3.248.521-4.362 1.52-1.114.998-1.624 2.431-1.671 4.254l-3.898-.39c.279-2.692 1.253-4.776 3.017-6.209 1.717-1.432 4.037-2.127 6.96-2.127 2.97 0 5.29.781 7.007 2.301 1.717 1.519 2.599 3.43 2.599 5.687 0 1.173-.232 2.301-.742 3.387-.511 1.129-1.346 2.301-2.506 3.517-1.16 1.215-3.109 2.908-5.801 5.079-2.274 1.78-3.712 2.996-4.362 3.604-.649.651-1.16 1.259-1.578 1.91h15.082zM333.09 309.164l3.786-.498c.421 2.083 1.169 3.578 2.244 4.529 1.028.905 2.337 1.358 3.832 1.358 1.777 0 3.319-.588 4.534-1.811 1.215-1.178 1.87-2.672 1.87-4.439 0-1.675-.561-3.079-1.73-4.166-1.168-1.087-2.57-1.63-4.346-1.63-.702 0-1.59.135-2.665.407l.421-3.215c.234.045.467.045.608.045 1.636 0 3.085-.408 4.346-1.223 1.309-.815 1.964-2.083 1.964-3.804 0-1.359-.468-2.491-1.403-3.352-.934-.905-2.15-1.313-3.645-1.313-1.496 0-2.711.453-3.693 1.359-.981.906-1.636 2.264-1.916 4.03l-3.786-.634c.467-2.49 1.542-4.393 3.178-5.751 1.636-1.359 3.693-2.038 6.123-2.038 1.683 0 3.225.362 4.674 1.041 1.402.725 2.524 1.676 3.272 2.854.748 1.222 1.122 2.49 1.122 3.849 0 1.314-.374 2.491-1.075 3.533-.701 1.041-1.776 1.902-3.179 2.536 1.823.407 3.272 1.268 4.254 2.536.981 1.268 1.542 2.898 1.542 4.846 0 2.627-.981 4.846-2.944 6.657-1.964 1.812-4.441 2.718-7.479 2.718-2.711 0-4.954-.77-6.777-2.355-1.87-1.54-2.898-3.578-3.132-6.069zM245.702 74.7266l-37.195 14.1909c-8.718 3.3127-13.143 13.2505-9.901 22.1595 3.242 8.908 12.968 13.43 21.686 10.117l33.165-12.669-7.755-33.7984z" fill="#000"/>
  <path d="M266.266 30.8297c5.359 13.1534 6.83 33.6725-11.978 54.4021-.735.7366-1.366 1.4732-1.996 2.2098-1.891 8.7338-4.203 17.2574-8.196 25.3594.631.947 1.261 1.368 1.261 1.368 18.703-8.523 43.079-21.7818 50.014-56.8222 4.412-21.8871-3.468-39.9861-14.71-47.352-6.935-4.5247-12.504-10.5226-16.496-8.9442 0 0-4.833-.7366-7.88 4.209 0 0-5.044.1053-4.518 5.051.315 2.6306 3.362 6.2083 6.514 9.8912l-1.891 1.1576c-3.258-2.8412-9.982-5.1562-8.196.1052 1.786 4.7351 7.565 7.7867 18.072 9.3651z" fill="#fff"/>
  <path d="M265.637.0002c2.942 0 6.305 2.5255 10.087 5.4718 1.681 1.2627 3.467 2.6307 5.464 3.8934 10.822 7.1554 19.753 24.8335 15.025 48.1938-6.62 33.1463-28.159 47.1418-50.434 57.3488l-.42.21-.315-.21c-.105 0-.736-.526-1.471-1.579l-.316-.421.211-.421c4.202-8.523 6.409-17.4672 8.09-25.1487v-.2104l.105-.1053c.63-.7366 1.261-1.4732 1.996-2.315 20.699-22.9394 15.446-44.5108 11.978-53.1394-10.612-1.5784-16.391-4.8404-18.072-9.8913-.735-2.2097-.105-3.262.631-3.7882 1.891-1.2627 5.989.5262 8.405 2.4203l.736-.4209c-3.152-3.5777-5.884-6.945-6.094-9.5756-.21-1.6837.21-3.0516 1.156-4.1039 1.155-1.368 2.942-1.6836 3.677-1.7889 2.837-4.4195 7.145-4.3142 8.195-4.3142.421 0 .946-.1053 1.366-.1053zM245.569 113.224c21.749-9.996 42.658-23.7812 49.173-55.9805 4.518-22.5185-4.308-39.9861-14.395-46.6154-1.996-1.2627-3.782-2.6306-5.569-3.9986-4.202-3.1568-7.775-5.8927-10.296-4.9456l-.211.1052h-.21c-.21 0-4.413-.5261-7.039 3.8934l-.21.421h-.421s-1.891.105-3.047 1.2626c-.63.7366-.84 1.6836-.735 2.8411.21 2.315 3.257 5.8927 6.409 9.4704l.63.7366-3.257 1.8941-.42-.4209c-2.417-2.1045-5.989-3.3673-6.935-2.7359-.525.3156-.21 1.4731 0 1.894 1.471 4.5248 7.145 7.4711 17.232 8.9443l.42.1053.21.4208c3.573 8.6286 9.456 31.2523-12.083 55.244-.63.7366-1.261 1.3679-1.786 2.1045-1.576 7.5763-3.888 16.4156-7.985 24.8336.21.21.42.421.525.526z" fill="#000"/>
  <path d="M265.427 68.9236l-.735-.7365s-5.216 4.6083-17.894 6.3012c-12.678 1.6929-3.435 37.9987-3.435 37.9987l-.21.421.315.421c.735 1.053 1.366 1.579 1.471 1.579l.315.21.42-.21c13.659-6.209 27.634-13.995 38.035-28.2011l.421-.5261-.526-.5261c-4.728-4.5248-9.666-9.0495-14.499-13.3638-.756-.7567-1.556-1.4684-2.372-2.194l-.001-.0002c-.432-.3843-.868-.7724-1.305-1.1731zM256.917 5.8922c2.102 3.8937 4.518 7.6821 7.25 11.26.42.5262 1.366 0 .946-.5261-2.732-3.578-5.044-7.2612-7.25-11.26-.42-.6315-1.261-.1053-.946.5261zM263.011 2.2089c1.892 4.4198 4.729 8.2082 8.616 11.0495.525.421 1.051-.5262.525-.9471-3.677-2.6308-6.409-6.2087-8.195-10.418-.21-.5263-1.156-.3158-.946.3156z" fill="#000"/>
  <path d="M255.151 153.112c-3.128-22.131-18.501-19.069-14.613-34.727 3.888-15.658-5.899-35.6013-23.283-33.2833-13.406 1.7932-14.389 1.3996-20.02 2.1431-17.876 2.4055-27.662 21.8242-20.199 37.8752 0 0 1.877 3.587 2.502 8.617.581 5.029-11.204 15.781-9.104 31.001l84.717-11.626z" fill="#000"/>
  <path d="M241.596 113.788l-10.166 1.895 5.886 13.39 3.924-1.937c-2.23-5.856.267-8.612.356-13.348z" fill="#2B2B2B"/>
  <path d="M183.82 151.152l18.796-25.256c5.683-7.617 4.072-18.352-3.581-24.009-7.652-5.6572-18.437-4.0537-24.121 3.563l-18.035 24.187 26.941 21.515z" fill="#000"/>
  <path d="M224.613 117.367l-32.651-28.586a1 1 0 00-1.152-.1175l-7.271 4.1229c-.605.3427-.684 1.1822-.155 1.632l32.797 27.8616c2.811-3.984 8.432-4.913 8.432-4.913z" fill="#fff"/>
  <path d="M230.874 68.8199c2.345 1.5713 2.981 4.714 1.319 6.9995l-4.885 6.9042c-1.613 2.2855-4.837 2.9045-7.182 1.2856-2.345-1.5713-2.981-4.7139-1.319-6.9994l4.885-6.9042c1.613-2.2856 4.837-2.857 7.182-1.2857z" fill="#13C8A4"/>
  <path d="M243.154 83.3641c-.619 2.2852-3.139 3.6884-5.66 3.1271l-7.561-1.6838c-2.521-.5613-4.069-2.8465-3.45-5.1318.62-2.2852 3.14-3.6884 5.661-3.1271l7.561 1.6838c2.521.5613 4.068 2.8466 3.449 5.1318z" fill="#13C8A4"/>
  <path d="M220.376 83.8362c-.466.1336-.77.5831-.719 1.0658l3.301 31.434s4.1-.471 8.444.984c-1.309-12.85-4.772-29.6316-5.681-33.919-.12-.5649-.691-.8975-1.246-.7385l-4.099 1.1737z" fill="#fff"/>
  <path d="M226.347 140.961c7.501 0 13.555-5.689 13.555-12.737s-6.054-12.738-13.555-12.738c-7.5 0-13.554 5.69-13.554 12.738 0 7.048 6.054 12.737 13.554 12.737z" fill="#fff"/>
  <path d="M236.091 85.6824c-1.09 2.2229-3.952 3.2295-6.359 2.2648l-7.313-3.0198c-2.407-1.0065-3.498-3.6488-2.453-5.8717 1.09-2.2229 3.952-3.2295 6.359-2.2649l7.313 3.0198c2.453 1.0066 3.543 3.6489 2.453 5.8718zM237.707 106.989c-2.231.131-4.154-1.881-4.269-4.418l-.308-7.6983c-.115-2.5369 1.654-4.7239 3.884-4.8552 2.231-.1312 4.154 1.8809 4.269 4.4178l.308 7.6987c.115 2.58-1.615 4.767-3.884 4.855z" fill="#13C8A4"/>
  <path d="M247.951 94.1743c-1.09 2.2229-3.952 3.2294-6.359 2.2648l-7.313-3.0198c-2.407-1.0066-3.497-3.6489-2.452-5.8717 1.09-2.2229 3.951-3.2295 6.359-2.2649l7.312 3.0198c2.453 1.0066 3.543 3.6489 2.453 5.8718zM238.334 117.1c-2.351-.486-3.919-2.955-3.424-5.512l1.403-7.629c.454-2.513 2.764-4.1889 5.156-3.66 2.352.485 3.919 2.955 3.424 5.512l-1.402 7.629c-.454 2.513-2.764 4.145-5.157 3.66z" fill="#13C8A4"/>
  <path d="M252.631 106.605c-1.51 2.154-4.625 2.726-6.938 1.319l-6.938-4.265c-2.313-1.408-2.926-4.3097-1.416-6.4643 1.51-2.1546 4.625-2.7262 6.938-1.3191l6.938 4.2654c2.313 1.451 2.926 4.309 1.416 6.464z" fill="#13C8A4"/>
  <path d="M253.226 121.296c-2.185 1.572-5.367 1.223-7.077-.786l-5.178-6.026c-1.709-2.008-1.329-4.934.855-6.506 2.185-1.572 5.368-1.222 7.078.786l5.177 6.026c1.71 2.009 1.33 4.934-.855 6.506z" fill="#13C8A4"/>
  <path d="M242.788 132.459c-2.653-.131-4.711-2.318-4.574-4.898l.457-7.696c.138-2.536 2.424-4.504 5.123-4.372 2.652.131 4.71 2.317 4.573 4.897l-.457 7.696c-.137 2.58-2.424 4.548-5.122 4.373zM231.192 100.131c-2.422.442-4.719-1.2378-5.136-3.7575l-1.336-7.6474c-.418-2.5639 1.169-4.9952 3.549-5.4372 2.422-.4421 4.719 1.2377 5.136 3.7574l1.336 7.6475c.46 2.5638-1.169 4.9951-3.549 5.4372z" fill="#13C8A4"/>
  <path d="M233.468 90.0116c.042 0 .127 0 .169-.0551.295-.1101.421-.5507.337-.9362l-1.138-4.075 4.676 1.5969c.295.1102.59-.1101.674-.4956.084-.3855-.084-.7709-.379-.8811l-5.687-1.9274c-.21-.055-.421 0-.547.2203-.127.2203-.169.4956-.127.7159l1.475 5.3417c.126.3304.337.4956.547.4956zM247.855 98.5031c.159 0 .317-.1107.436-.332.159-.332.079-.7747-.158-.996l-4.046-3.6519c-.238-.2213-.555-.1106-.714.2214-.158.3319-.079.7746.159.9959l4.045 3.6519c.08.0553.199.1107.278.1107z" fill="#fff"/>
  <path d="M227.194 135.867c4.221 0 7.625-3.412 7.625-7.643s-3.404-7.642-7.625-7.642c-4.22 0-7.624 3.411-7.624 7.642 0 4.185 3.404 7.643 7.624 7.643z" fill="#13C8A4"/>
  <path d="M242.443 108.693c.456 0 .848-.272.848-.589v-5.615c0-.317-.392-.589-.848-.589-.457 0-.848.272-.848.589v5.615c0 .317.391.589.848.589zM246.156 120.582c.079 0 .159 0 .238-.048.238-.144.358-.526.238-.86l-2.342-5.543c-.119-.287-.437-.43-.715-.287-.238.144-.357.526-.238.861l2.343 5.542c.119.191.277.335.476.335z" fill="#fff"/>
  <mask id="b" fill="#fff">
    <path d="M270.4 179.398l38.835 88.938 32.327-14.537c-.564-2.775-1.171-5.462-1.779-8.193l-1.953-8.105c-1.301-5.419-2.69-10.793-4.122-16.123-2.864-10.704-5.901-21.321-9.069-31.893-1.605-5.286-3.211-10.572-4.903-15.814l-2.517-7.885-2.56-7.841"/>
  </mask>
  <path d="M270.4 179.398l38.835 88.938 32.327-14.537c-.564-2.775-1.171-5.462-1.779-8.193l-1.953-8.105c-1.301-5.419-2.69-10.793-4.122-16.123-2.864-10.704-5.901-21.321-9.069-31.893-1.605-5.286-3.211-10.572-4.903-15.814l-2.517-7.885-2.56-7.841" fill="#fff"/>
  <path d="M309.235 268.336l.41.912-.922.415-.404-.927.916-.4zm32.327-14.537l.98-.199.159.784-.729.328-.41-.913zm-1.779-8.193l.972-.234.002.008.002.009-.976.217zm-1.953-8.105l-.972.234v-.001l.972-.233zm-4.122-16.123l-.966.26v-.001l.966-.259zm-9.069-31.893l.957-.29.001.003-.958.287zm-4.903-15.814l-.952.307-.001-.003.953-.304zm-2.517-7.885l.951-.311.002.007-.953.304zm-45.903 13.211l38.836 88.939-1.833.8-38.836-88.938 1.833-.801zm37.509 88.427l32.327-14.537.82 1.825-32.327 14.536-.82-1.824zm31.757-13.425c-.562-2.764-1.167-5.44-1.775-8.176l1.952-.434c.607 2.726 1.217 5.425 1.783 8.211l-1.96.399zm-1.771-8.159l-1.953-8.105 1.945-.469 1.952 8.106-1.944.468zm-1.953-8.106c-1.299-5.407-2.685-10.772-4.116-16.096l1.932-.519c1.434 5.336 2.824 10.719 4.129 16.148l-1.945.467zm-4.116-16.097c-2.861-10.694-5.895-21.3-9.061-31.865l1.916-.574c3.17 10.58 6.21 21.206 9.077 31.922l-1.932.517zm-9.059-31.861c-1.606-5.288-3.209-10.565-4.899-15.798l1.904-.614c1.695 5.251 3.303 10.546 4.908 15.831l-1.913.581zm-4.9-15.801l-2.516-7.885 1.905-.608 2.517 7.885-1.906.608zm-2.514-7.879l-2.56-7.841 1.901-.621 2.56 7.841-1.901.621z" fill="#000" mask="url(#b)"/>
  <mask id="c" fill="#fff">
    <path fill-rule="evenodd" clip-rule="evenodd" d="M303.596 126.494c3.752 10.516 7.37 21.076 10.857 31.682l-45.059 21.837-3.35-7.666-19.534 8.539c-3.431 3.418-8.012 5.885-13.967 6.62l-1.264.038-2.221.971-1.948-.849-19.223.567c-20.852 2.564-35.797-12.906-37.453-24.315l1.764-.232c2.855-1.544 91.878-49.705 98.609-51.422l4.501-1.163c11.783-2.954 24.096 3.535 28.288 15.393z"/>
  </mask>
  <path fill-rule="evenodd" clip-rule="evenodd" d="M303.596 126.494c3.752 10.516 7.37 21.076 10.857 31.682l-45.059 21.837-3.35-7.666-19.534 8.539c-3.431 3.418-8.012 5.885-13.967 6.62l-1.264.038-2.221.971-1.948-.849-19.223.567c-20.852 2.564-35.797-12.906-37.453-24.315l1.764-.232c2.855-1.544 91.878-49.705 98.609-51.422l4.501-1.163c11.783-2.954 24.096 3.535 28.288 15.393z" fill="#13C8A4"/>
  <path d="M314.453 158.176l.95-.313.273.831-.787.381-.436-.899zm-10.857-31.682l-.941.336-.001-.003.942-.333zm-34.202 53.519l.437.899-.936.454-.417-.953.916-.4zm-3.35-7.666l-.401-.916.917-.401.4.917-.916.4zm-19.534 8.539l-.706-.708.133-.133.172-.075.401.916zm-13.967 6.62l.123.993-.047.006-.046.001-.03-1zm-1.264.038l-.4-.917.177-.077.194-.006.029 1zm-2.221.971l.401.916-.4.175-.4-.174.399-.917zm-1.948-.849l-.029-.999.223-.007.206.09-.4.916zm-19.223.567l-.122-.993.047-.005.046-.002.029 1zm-37.453-24.315l-.99.143-.145-1.003 1.005-.132.13.992zm1.764-.232l.476.88-.162.088-.183.024-.131-.992zm98.609-51.422l.25.968-.003.001-.247-.969zm4.501-1.163l-.25-.968.007-.002.243.97zm38.195 47.387c-3.484-10.597-7.1-21.15-10.848-31.658l1.883-.672c3.754 10.524 7.376 21.092 10.865 31.705l-1.9.625zm-44.545 20.625l45.059-21.837.872 1.799-45.058 21.837-.873-1.799zm-1.998-7.166l3.351 7.665-1.833.801-3.35-7.665 1.832-.801zm-20.851 8.023l19.534-8.539.801 1.832-19.534 8.539-.801-1.832zm-13.689 6.544c5.731-.708 10.108-3.073 13.384-6.336l1.412 1.416c-3.586 3.573-8.372 6.141-14.55 6.905l-.246-1.985zm-1.17.03l1.264-.037.059 1.999-1.264.037-.059-1.999zm-2.592 1.054l2.221-.971.801 1.833-2.221.971-.801-1.833zm-1.148-.848l1.947.848-.798 1.834-1.948-.849.799-1.833zm-19.652.483l19.223-.566.059 1.999-19.223.566-.059-1.999zm-36.434-23.459c.781 5.386 4.749 11.891 11.143 16.745 6.365 4.833 15.058 7.968 25.198 6.721l.244 1.985c-10.711 1.318-19.917-2-26.652-7.113-6.706-5.092-11.039-12.027-11.913-18.051l1.98-.287zm.905.904l-1.765.231-.26-1.983 1.764-.231.261 1.983zm98.725-51.445c-.331.084-1.002.34-2.032.791-1.006.44-2.297 1.041-3.834 1.78-3.073 1.479-7.105 3.503-11.771 5.892-9.331 4.777-21.174 11.004-32.899 17.227-23.45 12.446-46.417 24.871-47.844 25.643l-.951-1.759c1.427-.773 24.4-13.201 47.857-25.65 11.728-6.225 23.582-12.457 32.925-17.241 4.671-2.392 8.721-4.424 11.816-5.914 1.546-.744 2.861-1.356 3.899-1.81 1.015-.445 1.828-.766 2.339-.897l.495 1.938zm4.504-1.164l-4.501 1.163-.501-1.936 4.502-1.163.5 1.936zm27.096 14.758c-4.022-11.374-15.823-17.583-27.103-14.756l-.486-1.94c12.286-3.08 25.111 3.688 29.474 16.03l-1.885.666z" fill="#000" mask="url(#c)"/>
  <path d="M266.332 171.532c.103 0 .206 0 .258-.046.361-.135.516-.496.361-.768l-5.419-10.706c-.155-.316-.568-.452-.877-.316-.361.135-.516.497-.361.768l5.419 10.706c.103.226.361.362.619.362z" fill="#000"/>
  <path d="M169.707 176.626c.11 0 .165 0 .276-.045.387-.136.553-.454.387-.772l-1.934-3.907c-.166-.318-.553-.454-.94-.318-.387.136-.553.454-.387.772l1.935 3.907c.11.227.386.363.663.363zM282.857 67.9333c.318 0 .546-.2008.592-.482l.501-5.7445c.045-.2812-.228-.5222-.547-.5624-.319-.0402-.592.2009-.637.4821l-.502 5.7444c-.045.2812.228.5223.547.5624h.046z" fill="#fff"/>
  <path d="M175.906 78.9901c-.984 2.2109-.041 4.8389 2.132 5.8818l6.559 3.0452c2.172 1.0011 4.755.0417 5.78-2.1692.984-2.2109.041-4.8389-2.132-5.8818l-6.559-3.0451c-2.172-1.0012-4.755-.0417-5.78 2.1691z" fill="#13C8A4"/>
  <path d="M171.803 97.0656c1.856 1.9092 4.889 1.9092 6.79.0455l5.658-5.6367c1.902-1.8637 1.902-4.9093.046-6.8185-1.856-1.9092-4.889-1.9092-6.79-.0455l-5.658 5.6367c-1.856 1.9092-1.901 4.9548-.046 6.8185z" fill="#13C8A4"/>
  <path d="M179.172 95.8821c2.073 1.6185 4.925 1.0472 6.393-1.2377l4.364-6.8548c1.468-2.2849.95-5.4267-1.124-7.0452-2.073-1.6185-4.924-1.0473-6.393 1.2377l-4.363 6.8548c-1.469 2.2849-.951 5.4267 1.123 7.0452zM188.213 114.891c2.375-1.293 3.242-4.248 1.964-6.649l-3.837-7.157c-1.278-2.4012-4.201-3.2785-6.576-1.9856-2.374 1.2926-3.242 4.2476-1.963 6.6486l3.836 7.157c1.278 2.401 4.247 3.279 6.576 1.986z" fill="#13C8A4"/>
  <path d="M172.64 109.561c2.332 1.456 5.54.942 7.192-1.114l4.909-6.169c1.652-2.057 1.069-4.8845-1.264-6.3411-2.332-1.4567-5.54-.9426-7.192 1.1139l-4.909 6.1692c-1.652 2.057-1.069 4.927 1.264 6.341zM192.729 124.441c1.764-1.735 1.928-4.716.287-6.674l-4.839-5.829c-1.599-1.913-4.347-2.091-6.151-.311-1.764 1.735-1.928 4.716-.287 6.674l4.839 5.829c1.64 1.913 4.388 2.091 6.151.311z" fill="#13C8A4"/>
  <path d="M176.301 121.809c2.178 1.143 4.767.137 5.835-2.285l3.124-7.267c1.027-2.422.123-5.302-2.055-6.49-2.178-1.142-4.767-.137-5.836 2.285l-3.123 7.267c-1.028 2.423-.123 5.302 2.055 6.49z" fill="#13C8A4"/>
  <path d="M182.91 135.832c2.503.307 4.79-1.49 5.136-4.031l.992-7.669c.302-2.542-1.467-4.864-3.97-5.215-2.503-.306-4.791 1.49-5.136 4.032l-.993 7.669c-.302 2.585 1.468 4.908 3.971 5.214z" fill="#13C8A4"/>
  <path d="M197.217 140.08c2.095-1.566 2.662-4.698 1.222-6.976l-4.32-6.929c-1.441-2.278-4.321-2.895-6.416-1.328-2.094 1.566-2.662 4.698-1.222 6.976l4.321 6.929c1.396 2.325 4.277 2.894 6.415 1.328zM191.179 105.014c2.373-.849 3.58-3.316 2.675-5.5403l-2.675-6.6725c-.906-2.2242-3.537-3.3565-5.909-2.5073-2.372.8492-3.58 3.3161-2.674 5.5403l2.674 6.6728c.906 2.224 3.58 3.356 5.909 2.507z" fill="#13C8A4"/>
  <path d="M181.756 88.3134c.204 0 .408-.1432.49-.3818.123-.334 0-.6681-.245-.8112l-4.047-2.1475c-.286-.1432-.572 0-.695.2863-.122.2864 0 .6681.246.8113l4.046 2.1952c.041.0477.123.0477.205.0477zM188.518 106.995c.085 0 .212-.048.297-.096.253-.193.338-.579.169-.869l-3.977-7.2334c-.169-.2893-.507-.3858-.761-.1929s-.338.5787-.169.8681l3.976 7.2342c.085.193.296.289.465.289zM180.94 120.581c.169 0 .338-.168.366-.462l.984-7.393c.028-.294-.084-.588-.281-.63-.197-.042-.394.126-.422.42l-.984 7.393c-.028.294.084.588.281.63 0 .043.028.042.056.042z" fill="#fff"/>
  <path d="M151.796 336.269c-33.359 0-48.57-49.099-87.8473-44.304-11.7919 1.452-24.9428-22.834-30.3346-31.985-8.9426-15.178-32.614-9.063-32.614 8.491v67.798H151.796z" fill="#13C8A4"/>
  <path d="M90.0413 129.073c.2427-1.277 2.4754-12.628-2.087-18.682l-3.9315 2.791c2.7666 3.736 1.8444 12.06 1.2134 14.993l4.8051.898zM386.947 198.705c.181-1.167 1.627-11.625-2.891-16.984l-3.524 2.723c2.801 3.284 2.349 10.933 1.897 13.613l4.518.648zM325.345 45.855c2.453-6.7707-.515-13.3158-.633-13.5866l-3.482 2.1215 1.741-1.0382-1.741 1.0382c.04.0451 2.216 4.9652.475 9.7499l3.64 1.7152zM355.65 100.202l4.576-1.0849-2.288.5623 2.288-.5221c0-.0402-1.478-4.7794 1.668-8.5548l-3.909-2.2893c-4.433 5.3016-2.431 11.6072-2.335 11.8888zM109.28 195.308l3.547-2.878-1.774 1.46 1.774-1.46c-.05-.042-4.138-3.755-3.498-8.552l-4.877-.458c-.887 6.757 4.581 11.679 4.828 11.888zM70.3099 67.9332l3.5469-2.8783-1.7735 1.46 1.7735-1.46c-.0493-.0417-4.138-3.7542-3.4976-8.5512l-4.877-.4588c-.8867 6.7575 4.5814 11.6797 4.8277 11.8883zM144.172 47.5533l4.734-1.4492-2.342.7246 2.342-.7246c0-.0453-1.844-5.2988 1.196-9.7371l-4.236-2.4003c-4.335 6.2951-1.844 13.2696-1.694 13.5866zM124.18 41.079l-.169.425c-.635 1.6576-1.987 3.0177-3.636 3.6553l-.422.17c-.465.17-.465.85 0 1.02l.422.17c1.649.6376 3.001 1.9977 3.636 3.6553l.169.425c.169.4675.845.4675 1.014 0l.169-.425c.634-1.6576 1.987-3.0177 3.635-3.6553l.423-.17c.465-.17.465-.85 0-1.02l-.423-.17c-1.648-.6376-3.001-1.9977-3.635-3.6553l-.169-.425c-.169-.425-.803-.425-1.014 0zM341.055 3.7463l-.169.4237c-.634 1.6525-1.987 3.0083-3.635 3.6439l-.423.1694c-.465.1695-.465.8474 0 1.017l.423.1694c1.648.6355 3.001 1.9914 3.635 3.6438l.169.4237c.169.4661.845.4661 1.014 0l.169-.4237c.635-1.6524 1.987-3.0083 3.636-3.6438l.422-.1695c.465-.1695.465-.8474 0-1.0169l-.422-.1694c-1.649-.6356-3.001-1.9914-3.636-3.6439l-.169-.4237c-.211-.466-.845-.466-1.014 0zM359.693 144.708l-.169.423c-.634 1.653-1.987 3.009-3.635 3.644l-.423.17c-.465.169-.465.847 0 1.017l.423.169c1.648.636 3.001 1.991 3.635 3.644l.169.424c.169.466.845.466 1.014 0l.169-.424c.634-1.653 1.987-3.008 3.636-3.644l.422-.169c.465-.17.465-.848 0-1.017l-.422-.17c-1.649-.635-3.002-1.991-3.636-3.644l-.169-.423c-.169-.466-.845-.466-1.014 0zM394.939 71.3299c1.749-7.3284 9.882-18.21 18.496-29.7578 9.619-12.8358 20.463-27.4038 24.705-40.1508L433.986 0c-3.979 12.0364-14.648 26.2934-24.005 38.9072-9.27 12.4361-17.272 23.14-19.283 31.3567l4.241 1.066zM85.0811 166.436l4.0245-1.544c-3.6783-9.608-11.3811-15.485-19.5165-21.705-7.9624-6.091-16.1845-12.396-20.5551-22.605l-3.9812 1.672c4.8034 11.239 13.5014 17.888 21.8966 24.322 7.6594 5.877 14.8862 11.367 18.1317 19.86z" fill="#fff"/>
  <path d="M1.3312 334.713v-.5H449.637v2.698H1.3312v-2.198z" fill="#000" stroke="#000"/>
  <path d="M219.894 51.9629c-4.946-10.689-16.733-15.728-26.228-11.23-9.495 4.4979-13.339 16.7375-8.394 27.4266l.001.147c-1.022.4505-1.897 1.0466-2.478 1.6401-4.803 4.161-3.718 10.1799.997 12.1955 4.126 1.7268 9.845 1.3806 13.326-2.9154 4.712 1.7215 9.849 1.8216 14.382.1628 14.038-5.1276 13.339-16.7376 8.394-27.4266z" fill="#fff"/>
  <path d="M188.8 84.1545c-1.908.0174-3.819-.4062-5.44-1.1266-2.506-1.1535-4.14-3.1972-4.606-5.8397-.468-2.9366.824-5.8893 3.442-8.2659.583-.4464 1.166-.8928 1.895-1.3406-2.25-5.126-2.599-10.8575-1.034-16.0183 1.708-5.4562 5.335-9.7535 10.156-12.0031 4.967-2.251 10.543-2.3019 15.701.0037 5.158 2.3056 9.453 6.3836 12 11.8009 3.596 7.7605 4.246 14.2245 2.241 19.3893-1.72 4.2799-5.504 7.5494-11.061 9.5117-4.533 1.6588-9.668 1.7057-14.526.1325-2.616 2.6707-5.834 3.7293-8.768 3.7561zm12.05-43.9287c-2.348.0214-4.545.4826-6.736 1.5319-4.383 1.9516-7.574 5.8037-8.995 10.6691-1.42 4.8654-1.074 10.3029 1.175 15.2818l.448.8781-.874.5962c-.877.4491-1.751 1.0453-2.334 1.4917-2.037 1.7831-3.043 3.998-2.582 6.1994.312 1.9087 1.5 3.3683 3.268 4.0874 3.537 1.5852 8.818 1.3899 12.154-2.6107l.435-.5921.736.2873c4.419 1.7242 9.263 1.8271 13.649.1696 4.972-1.8099 8.32-4.6343 9.898-8.3247 1.864-4.5754 1.22-10.4512-2.077-17.6262-2.249-4.979-6.101-8.767-10.816-10.7825-2.503-.8594-5.002-1.2777-7.349-1.2563z" fill="#000"/>
  <path d="M206.235 59.9122c.81-.0314 1.441-.7146 1.409-1.5259-.031-.8114-.714-1.4436-1.524-1.4122-.81.0314-1.441.7146-1.409 1.5259.032.8113.714 1.4436 1.524 1.4122zM218.507 59.6155c-1.789-2.7766-3.868-5.2567-6.384-7.4387-.74-.5812-1.758.4571-1.018 1.0383 2.369 2.0364 4.448 4.5164 6.235 7.1461.447.7309 1.614-.0148 1.167-.7457zM205.724 43.4202c-3.194 3.5579-19.11 11.643-13.018 19.5273 1.487 2.0449 3.255 2.7639 1.661 4.8369-1.891 1.7817-3.673-.4075-3.673-.4075-2.927.7618-5.827 2.4084-7.426 3.8933-7.842-6.692-8.243-15.8071-4.748-18.6326 0 0 20.257-29.7387 29.869-22.0336 8.431 6.9807-2.665 12.8162-2.665 12.8162zM193.088 72.7902c-3.097-1.4414-6.904-.5248-9.08 2.1404-.581.7402.457 1.7594 1.037 1.0193 1.74-2.2204 4.667-3.1289 7.322-1.8304.885.4328 1.459-.8951.721-1.3293z" fill="#000"/>
  <path d="M206.532 70.7255s1.697 1.5625 3.005 1.6847c1.575.1471 3.756-1.6847 3.756-1.6847" stroke="#000" stroke-linecap="round"/>
  <path d="M339.172 244.338c4.405 7.053 9.099 11.426 13.666 14.338.413.293.774.455 1.187.748.955.537 1.858.942 2.762 1.347.542.243.903.405 1.393.517 4.724 1.794 9.192 2.176 12.989 2.366 9.53.384 13.468 9.28 13.468 9.28l-63.995 24.349c-3.443-11.05-11.416-31.37-11.416-31.37 11.767-9.092 17.251-14.087 29.946-21.575z" fill="#000"/>
  <path d="M352.992 258.596c.413.293.774.456 1.187.749-2.122 2.183-4.193 4.498-6.315 6.681-.622.695-1.731-.235-1.058-.799a216.454 216.454 0 016.186-6.631zM356.931 260.644c.542.244.904.406 1.395.518-2.279 2.546-4.738 5.011-7.016 7.558-.621.694-1.731-.236-1.058-.799 2.149-2.497 4.479-4.912 6.679-7.277zM35.08 377.288c-1.408 0-2.608-.256-3.6-.768-.976-.512-1.816-1.2-2.52-2.064l1.872-1.752c.592.72 1.24 1.264 1.944 1.632.72.368 1.536.552 2.448.552 1.072 0 1.88-.24 2.424-.72s.816-1.128.816-1.944c0-.656-.192-1.176-.576-1.56-.384-.384-1.064-.672-2.04-.864l-1.488-.264c-1.632-.304-2.856-.84-3.672-1.608-.816-.768-1.224-1.824-1.224-3.168 0-.736.136-1.4.408-1.992.288-.608.68-1.112 1.176-1.512.512-.416 1.128-.736 1.848-.96.72-.224 1.528-.336 2.424-.336 1.264 0 2.36.224 3.288.672.928.432 1.72 1.064 2.376 1.896l-1.896 1.68c-.432-.56-.96-1.008-1.584-1.344-.624-.336-1.4-.504-2.328-.504-.96 0-1.704.192-2.232.576-.528.384-.792.944-.792 1.68 0 .704.216 1.232.648 1.584.432.336 1.104.592 2.016.768l1.488.312c1.68.32 2.904.864 3.672 1.632.784.768 1.176 1.824 1.176 3.168 0 .784-.136 1.496-.408 2.136-.272.64-.672 1.192-1.2 1.656-.512.448-1.144.8-1.896 1.056-.752.24-1.608.36-2.568.36zm16.1053-14.64V377h-2.712v-14.352h-4.992v-2.4h12.696v2.4h-4.992zM68.6746 377l-1.512-4.536h-6.264L59.4346 377h-2.76l5.712-16.752h3.408L71.5066 377h-2.832zm-4.584-14.256h-.12l-2.424 7.392h4.944l-2.4-7.392zM77.7732 377h-2.712v-16.752h7.224c1.504 0 2.688.456 3.552 1.368.864.896 1.296 2.12 1.296 3.672 0 1.2-.28 2.2-.84 3-.544.784-1.352 1.336-2.424 1.656l3.624 7.056h-3.024l-3.36-6.768h-3.336V377zm4.32-9.048c.688 0 1.224-.176 1.608-.528.384-.368.576-.888.576-1.56v-1.152c0-.672-.192-1.184-.576-1.536-.384-.368-.92-.552-1.608-.552h-4.32v5.328h4.32zm15.2846-5.304V377h-2.712v-14.352h-4.992v-2.4H102.37v2.4h-4.9922zM112.605 377v-16.752h10.728v2.4h-8.016v4.656h7.272v2.4h-7.272v4.896h8.016v2.4h-10.728zm25.651 0l-1.512-4.536h-6.264L129.016 377h-2.76l5.712-16.752h3.408L141.088 377h-2.832zm-4.584-14.256h-.12l-2.424 7.392h4.944l-2.4-7.392zM147.354 377h-2.712v-16.752h7.224c1.504 0 2.688.456 3.552 1.368.864.896 1.296 2.12 1.296 3.672 0 1.2-.28 2.2-.84 3-.544.784-1.352 1.336-2.424 1.656l3.624 7.056h-3.024l-3.36-6.768h-3.336V377zm4.32-9.048c.688 0 1.224-.176 1.608-.528.384-.368.576-.888.576-1.56v-1.152c0-.672-.192-1.184-.576-1.536-.384-.368-.92-.552-1.608-.552h-4.32v5.328h4.32zm14.167-.216l-1.848-3.552h-.072V377h-2.592v-16.752h3.024l5.472 9.264 1.848 3.552h.072v-12.816h2.592V377h-3.024l-5.472-9.264zM178.702 377v-2.208h2.28v-12.336h-2.28v-2.208h7.296v2.208h-2.304v12.336h2.304V377h-7.296zm16.176-9.264l-1.848-3.552h-.072V377h-2.592v-16.752h3.024l5.472 9.264 1.848 3.552h.072v-12.816h2.592V377h-3.024l-5.472-9.264zm24.357 6.72h-.096c-.176.816-.656 1.496-1.44 2.04-.768.528-1.792.792-3.072.792-.992 0-1.912-.184-2.76-.552-.848-.384-1.584-.936-2.208-1.656-.608-.736-1.088-1.64-1.44-2.712-.336-1.088-.504-2.336-.504-3.744 0-1.392.176-2.624.528-3.696.352-1.088.848-2 1.488-2.736.64-.736 1.408-1.288 2.304-1.656.896-.384 1.896-.576 3-.576 1.504 0 2.776.336 3.816 1.008 1.04.656 1.848 1.576 2.424 2.76l-2.208 1.296c-.32-.784-.816-1.416-1.488-1.896-.672-.496-1.52-.744-2.544-.744-1.328 0-2.4.424-3.216 1.272-.8.848-1.2 2.048-1.2 3.6v2.736c0 1.552.4 2.752 1.2 3.6.816.848 1.888 1.272 3.216 1.272.528 0 1.032-.064 1.512-.192.48-.144.896-.344 1.248-.6.368-.272.656-.6.864-.984.224-.4.336-.864.336-1.392V370.4h-3.456v-2.328h6.072V377h-2.376v-2.544zm16.21 2.544l-3.96-16.752h2.76l1.704 8.064 1.176 5.568h.072l1.344-5.568 1.992-8.064h3.024l1.968 8.064 1.32 5.544h.072l1.224-5.544 1.752-8.064h2.664L248.429 377h-3.048l-2.136-8.664-1.248-5.088h-.048l-1.272 5.088-2.184 8.664h-3.048zm19.986 0v-2.208h2.28v-12.336h-2.28v-2.208h7.296v2.208h-2.304v12.336h2.304V377h-7.296zm17.74-14.352V377h-2.712v-14.352h-4.992v-2.4h12.696v2.4h-4.992zm18.892 7.056h-7.584V377h-2.712v-16.752h2.712v7.056h7.584v-7.056h2.712V377h-2.712v-7.296zm18.652-2.568c1.04 0 1.808-.216 2.304-.648.496-.448.744-1.016.744-1.704v-.168c0-.768-.24-1.352-.72-1.752-.48-.416-1.128-.624-1.944-.624-.8 0-1.48.184-2.04.552-.56.352-1.032.848-1.416 1.488l-1.8-1.56c.256-.368.544-.72.864-1.056.32-.336.696-.624 1.128-.864.432-.256.92-.456 1.464-.6.544-.16 1.168-.24 1.872-.24.784 0 1.512.096 2.184.288.672.192 1.248.48 1.728.864.48.368.856.824 1.128 1.368.272.528.408 1.128.408 1.8 0 .528-.088 1.008-.264 1.44-.16.432-.392.816-.696 1.152-.288.32-.632.584-1.032.792-.384.208-.792.36-1.224.456v.12c.48.096.928.256 1.344.48.432.208.808.488 1.128.84.32.336.568.744.744 1.224.192.464.288 1 .288 1.608 0 .736-.144 1.408-.432 2.016-.288.592-.696 1.104-1.224 1.536-.512.432-1.136.768-1.872 1.008-.736.224-1.552.336-2.448.336-.784 0-1.472-.088-2.064-.264-.592-.16-1.12-.376-1.584-.648-.448-.288-.848-.608-1.2-.96-.336-.368-.632-.744-.888-1.128l1.992-1.56c.208.336.424.648.648.936.24.272.504.512.792.72.304.192.64.344 1.008.456.384.112.816.168 1.296.168 1.024 0 1.808-.24 2.352-.72.544-.496.816-1.176.816-2.04v-.168c0-.864-.288-1.52-.864-1.968-.576-.448-1.392-.672-2.448-.672h-1.776v-2.304h1.704zm17.415 10.152c-2.192 0-3.912-.736-5.16-2.208-1.248-1.488-1.872-3.64-1.872-6.456 0-1.408.16-2.648.48-3.72.32-1.072.784-1.976 1.392-2.712.608-.736 1.344-1.288 2.208-1.656.88-.384 1.864-.576 2.952-.576 1.456 0 2.672.32 3.648.96.992.64 1.768 1.584 2.328 2.832l-2.28 1.248c-.288-.8-.736-1.432-1.344-1.896-.592-.48-1.376-.72-2.352-.72-1.296 0-2.312.44-3.048 1.32-.736.88-1.104 2.096-1.104 3.648v2.544c0 1.552.368 2.768 1.104 3.648.736.88 1.752 1.32 3.048 1.32 1.008 0 1.824-.256 2.448-.768.64-.528 1.112-1.2 1.416-2.016l2.184 1.32c-.56 1.216-1.344 2.168-2.352 2.856-1.008.688-2.24 1.032-3.696 1.032zm16.058 0c-1.088 0-2.08-.184-2.976-.552-.88-.384-1.64-.936-2.28-1.656-.624-.736-1.112-1.64-1.464-2.712-.336-1.088-.504-2.336-.504-3.744 0-1.408.168-2.648.504-3.72.352-1.088.84-1.992 1.464-2.712.64-.736 1.4-1.288 2.28-1.656.896-.384 1.888-.576 2.976-.576s2.072.192 2.952.576c.896.368 1.656.92 2.28 1.656.64.72 1.128 1.624 1.464 2.712.352 1.072.528 2.312.528 3.72 0 1.408-.176 2.656-.528 3.744-.336 1.072-.824 1.976-1.464 2.712-.624.72-1.384 1.272-2.28 1.656-.88.368-1.864.552-2.952.552zm0-2.424c.64 0 1.224-.112 1.752-.336.544-.224 1-.544 1.368-.96.384-.432.68-.952.888-1.56.208-.608.312-1.296.312-2.064v-2.64c0-.768-.104-1.456-.312-2.064-.208-.608-.504-1.12-.888-1.536-.368-.432-.824-.76-1.368-.984-.528-.224-1.112-.336-1.752-.336-.656 0-1.248.112-1.776.336-.528.224-.984.552-1.368.984-.368.416-.656.928-.864 1.536-.208.608-.312 1.296-.312 2.064v2.64c0 .768.104 1.456.312 2.064.208.608.496 1.128.864 1.56.384.416.84.736 1.368.96.528.224 1.12.336 1.776.336zm24.382-10.68h-.12l-1.32 2.712-3.672 6.696-3.672-6.696-1.32-2.712h-.12V377h-2.592v-16.752h3.216l4.488 8.52h.144l4.488-8.52h3.072V377h-2.592v-12.816zm20.507 0h-.12l-1.32 2.712-3.672 6.696-3.672-6.696-1.32-2.712h-.12V377h-2.592v-16.752h3.216l4.488 8.52h.144l4.488-8.52h3.072V377h-2.592v-12.816zM407.232 377l-1.512-4.536h-6.264L397.992 377h-2.76l5.712-16.752h3.408L410.064 377h-2.832zm-4.584-14.256h-.12l-2.424 7.392h4.944l-2.4-7.392zm15.987 14.544c-1.408 0-2.608-.256-3.6-.768-.976-.512-1.816-1.2-2.52-2.064l1.872-1.752c.592.72 1.24 1.264 1.944 1.632.72.368 1.536.552 2.448.552 1.072 0 1.88-.24 2.424-.72s.816-1.128.816-1.944c0-.656-.192-1.176-.576-1.56-.384-.384-1.064-.672-2.04-.864l-1.488-.264c-1.632-.304-2.856-.84-3.672-1.608-.816-.768-1.224-1.824-1.224-3.168 0-.736.136-1.4.408-1.992.288-.608.68-1.112 1.176-1.512.512-.416 1.128-.736 1.848-.96.72-.224 1.528-.336 2.424-.336 1.264 0 2.36.224 3.288.672.928.432 1.72 1.064 2.376 1.896l-1.896 1.68c-.432-.56-.96-1.008-1.584-1.344-.624-.336-1.4-.504-2.328-.504-.96 0-1.704.192-2.232.576-.528.384-.792.944-.792 1.68 0 .704.216 1.232.648 1.584.432.336 1.104.592 2.016.768l1.488.312c1.68.32 2.904.864 3.672 1.632.784.768 1.176 1.824 1.176 3.168 0 .784-.136 1.496-.408 2.136-.272.64-.672 1.192-1.2 1.656-.512.448-1.144.8-1.896 1.056-.752.24-1.608.36-2.568.36z" fill="#fff"/>
</svg>