<svg width="128" height="120" viewBox="0 0 128 120" fill="none" xmlns="http://www.w3.org/2000/svg">
<ellipse cx="63.381" cy="59.9905" rx="48.9689" ry="47.1604" fill="#EE7D8B"/>
<ellipse cx="63.3802" cy="59.9904" rx="26.6585" ry="25.674" fill="white"/>
<path d="M62.7835 112.981C32.5415 112.981 8.02345 89.2594 8.02345 60C8.02345 30.7375 32.5415 7.01872 62.7835 7.01872C93.0257 7.01872 117.544 30.7375 117.544 60C117.544 89.2594 93.0257 112.981 62.7835 112.981ZM124.805 60C124.805 58.0906 119.94 56.425 119.756 54.5593C119.559 52.6687 123.998 50.125 123.61 48.2844C123.235 46.4219 118.132 45.7094 117.579 43.9125C117.007 42.1 120.832 38.7657 120.089 37.0344C119.343 35.2718 114.2 35.5438 113.276 33.8937C112.359 32.2218 115.428 28.2281 114.349 26.6531C113.263 25.0844 108.273 26.3187 107.042 24.8625C105.798 23.4031 108.011 18.9032 106.628 17.5687C105.255 16.2375 100.614 18.3875 99.1018 17.1812C97.59 15.9875 98.8692 11.1625 97.2412 10.1031C95.6227 9.0531 91.4945 12.0344 89.7695 11.1469C88.051 10.25 88.3255 5.275 86.5263 4.5531C84.7238 3.8375 81.29 7.5344 79.4034 6.98119C77.5557 6.43121 76.7998 1.50933 74.8778 1.13749C72.9752 0.771858 70.3586 5.06248 68.3978 4.87498C66.4629 4.69378 64.7507 0 62.7803 0C60.8033 0 59.088 4.69378 57.1628 4.87498C55.2053 5.06248 52.5822 0.771858 50.6796 1.13749C48.7511 1.50933 48.0178 6.43121 46.1571 6.98119C44.2804 7.5344 40.8336 3.8375 39.0376 4.5531C37.2351 5.275 37.5032 10.25 35.7879 11.1469C34.0694 12.0344 29.9442 9.0531 28.3227 10.1031C26.701 11.1532 27.9673 15.9875 26.4685 17.1812C24.9535 18.3843 20.3051 16.2375 18.9258 17.5687C17.5431 18.9032 19.7655 23.4 18.5316 24.8594C17.2782 26.3187 12.3036 25.0781 11.2086 26.6531C10.1232 28.2219 13.208 32.2218 12.2874 33.8937C11.3636 35.5438 6.21772 35.2718 5.46824 37.0344C4.72211 38.7657 8.55968 42.1 7.98149 43.9125C7.42265 45.7094 2.33159 46.4219 1.94071 48.2844C1.56926 50.125 5.99479 52.6687 5.80748 54.5593C5.6266 56.425 0.761719 58.0906 0.761719 60C0.761719 61.9032 5.6266 63.5688 5.80748 65.4312C5.99479 67.3218 1.56926 69.8687 1.94071 71.7031C2.33159 73.5688 7.42265 74.2875 7.98149 76.0844C8.55968 77.8969 4.72211 81.2406 5.46824 82.9719C6.20804 84.7187 11.3636 84.45 12.2874 86.1031C13.208 87.7719 10.1232 91.775 11.2086 93.3375C12.3036 94.9062 17.2782 93.6813 18.5316 95.1406C19.7655 96.5906 17.5431 101.087 18.9193 102.434C20.3051 103.759 24.9535 101.622 26.4685 102.819C27.9673 104.009 26.701 108.841 28.3227 109.894C29.9442 110.941 34.0629 107.959 35.7847 108.856C37.5032 109.747 37.2351 114.728 39.0376 115.444C40.8239 116.162 44.2739 112.456 46.1506 113.016C48.0178 113.566 48.7511 118.484 50.6796 118.853C52.5822 119.225 55.2053 114.931 57.1628 115.125C59.088 115.309 60.8033 120 62.7803 120C64.754 120 66.4629 115.309 68.3978 115.125C70.3586 114.931 72.9848 119.225 74.8778 118.853C76.7998 118.484 77.546 113.566 79.4002 113.016C81.2835 112.456 84.7238 116.162 86.5166 115.456C88.3255 114.728 88.051 109.747 89.7695 108.856C91.4783 107.963 95.6227 110.941 97.2347 109.894C98.8659 108.847 97.59 104.016 99.1018 102.819C100.614 101.622 105.255 103.759 106.622 102.434C108.011 101.097 105.798 96.6 107.042 95.1406C108.273 93.6813 113.263 94.9125 114.342 93.3407C115.428 91.775 112.359 87.7719 113.276 86.1156C114.2 84.45 119.343 84.7187 120.089 82.9719C120.832 81.2406 117.007 77.9 117.579 76.0875C118.132 74.2875 123.235 73.5688 123.61 71.7031C123.998 69.8687 119.559 67.3218 119.756 65.4312C119.94 63.5688 124.805 61.9032 124.805 60Z" fill="#2854C6"/>
<path d="M63.5265 105.747C37.6292 105.747 16.6355 85.4343 16.6355 60.378C16.6355 35.3218 37.6292 15.0124 63.5265 15.0124C89.4239 15.0124 110.414 35.3218 110.414 60.378C110.414 85.4343 89.4239 105.747 63.5265 105.747ZM63.5265 11.9873C35.9042 11.9873 13.5117 33.6529 13.5117 60.3779C13.5117 87.1029 35.9042 108.769 63.5265 108.769C91.1489 108.769 113.541 87.1029 113.541 60.3779C113.541 33.6529 91.1489 11.9873 63.5265 11.9873Z" fill="#2854C6"/>
<path d="M33.0259 36.0101L39.4727 39.9815L38.3594 41.6577L31.9126 37.6864L30.5283 39.7706L28.9824 38.8184L32.8644 32.9736L34.4102 33.9259L33.0259 36.0101Z" fill="white"/>
<path d="M44.1863 35.4993L42.5347 36.6948L36.834 29.3906L40.4305 26.7871C40.7783 26.5354 41.1369 26.3631 41.5065 26.2703C41.8762 26.1774 42.2404 26.1648 42.5994 26.2325C42.9601 26.288 43.3064 26.4194 43.6383 26.6268C43.9702 26.8342 44.2723 27.1123 44.5445 27.4611C44.9311 27.9564 45.1528 28.4728 45.2095 29.0104C45.2735 29.5427 45.1391 30.0603 44.8062 30.5634L48.5326 32.353L46.6962 33.6823L43.2798 31.963L42.0955 32.8204L44.1863 35.4993ZM42.7886 30.2224C43.0349 30.0441 43.1806 29.8459 43.2256 29.6276C43.2725 29.3972 43.2034 29.1634 43.0183 28.9262L42.6589 28.4657C42.4738 28.2286 42.2625 28.1031 42.0251 28.0894C41.7894 28.0634 41.5485 28.1396 41.3022 28.3179L39.5636 29.5764L41.0501 31.4809L42.7886 30.2224Z" fill="white"/>
<path d="M56.9376 29.4989L55.5478 27.666L52.56 28.678L52.6675 30.9452L50.6928 31.614L50.4942 21.9952L52.9049 21.1787L58.9636 28.8126L56.9376 29.4989ZM52.2963 23.2998L52.2322 23.3216L52.4399 26.9286L54.4916 26.2337L52.2963 23.2998Z" fill="white"/>
<path d="M60.9014 19.5576L64.4759 19.6124C65.1011 19.622 65.6703 19.7267 66.1836 19.9266C66.6969 20.1265 67.1316 20.4212 67.4877 20.8107C67.8439 21.1915 68.1169 21.6713 68.3068 22.2503C68.4967 22.8206 68.5854 23.4853 68.5729 24.2445C68.5603 25.0037 68.4497 25.6697 68.2408 26.2425C68.0321 26.8067 67.7434 27.278 67.3746 27.6564C67.0059 28.026 66.5618 28.3029 66.0422 28.487C65.5225 28.671 64.9501 28.7583 64.3249 28.7487L60.7504 28.6939L60.9014 19.5576ZM64.3541 26.9816C64.9702 26.9911 65.4577 26.8327 65.8166 26.5065C66.1754 26.1804 66.3609 25.6508 66.373 24.9178L66.3964 23.5041C66.4085 22.7711 66.2406 22.2361 65.8927 21.8991C65.5448 21.5621 65.0628 21.3889 64.4467 21.3794L62.938 21.3563L62.8455 26.9585L64.3541 26.9816Z" fill="white"/>
<path d="M71.368 29.3167L71.9564 27.8376L73.0988 28.2591L75.3166 22.6849L74.1742 22.2633L74.7627 20.7842L78.9768 22.3392L78.3883 23.8184L77.2459 23.3968L75.0282 28.9711L76.1705 29.3926L75.582 30.8718L71.368 29.3167Z" fill="white"/>
<path d="M83.2091 30.998L83.771 29.0395L83.7402 29.0138L79.5473 33.656L78.0807 32.4274L84.3076 25.5332L86.0101 26.9594L85.025 31.8598L84.4632 33.8183L84.4939 33.844L88.6869 29.2018L90.1534 30.4304L83.9265 37.3246L82.2241 35.8984L83.2091 30.998Z" fill="white"/>
<path d="M90.7718 42.2605L90.7418 42.2017C90.2788 42.3432 89.813 42.3013 89.3444 42.0759C88.8758 41.8505 88.4835 41.4285 88.1675 40.8098C87.9275 40.34 87.797 39.8571 87.7761 39.3613C87.7551 38.8655 87.8496 38.3782 88.0595 37.8994C88.2694 37.4207 88.6027 36.9661 89.0595 36.5357C89.5163 36.1053 90.1025 35.7206 90.8181 35.3816C91.5336 35.0426 92.2139 34.8322 92.8588 34.7504C93.5038 34.6686 94.0952 34.6996 94.6333 34.8434C95.1753 34.9951 95.6599 35.2519 96.0871 35.6136C96.5142 35.9754 96.8698 36.4342 97.1538 36.9902C97.5298 37.7264 97.6871 38.4397 97.6257 39.1301C97.5724 39.8167 97.2945 40.4687 96.7918 41.0862L95.1819 40.0399C95.4513 39.7566 95.6318 39.4279 95.7235 39.0538C95.8233 38.6759 95.7512 38.248 95.5072 37.7703C95.2232 37.2143 94.8305 36.8508 94.3291 36.6799C93.8277 36.5089 93.2193 36.5929 92.5037 36.9319L91.1376 37.5791C90.4302 37.9142 89.9897 38.3272 89.8162 38.8179C89.6508 39.3047 89.7101 39.8261 89.9941 40.3821C90.1061 40.6014 90.2365 40.7974 90.3853 40.97C90.5422 41.1388 90.7115 41.2726 90.8932 41.3713C91.0831 41.4662 91.2752 41.5162 91.4697 41.5213C91.6682 41.5342 91.8732 41.4906 92.0846 41.3905L92.5115 41.1882L91.7315 39.6612L93.2805 38.9273L94.9305 42.1576L90.1859 44.4054L89.4179 42.9018L90.7718 42.2605Z" fill="white"/>
<path d="M30.0345 83.429C29.7321 82.8821 29.5474 82.3439 29.4806 81.8146C29.4218 81.2812 29.4832 80.7702 29.6647 80.2815C29.8543 79.7888 30.1662 79.3224 30.6004 78.8822C31.0426 78.4379 31.6196 78.0332 32.3315 77.6681C33.0353 77.3071 33.7061 77.0719 34.3437 76.9624C34.9893 76.8488 35.5812 76.8517 36.1196 76.9712C36.6659 77.0865 37.1564 77.3145 37.5911 77.6551C38.0259 77.9957 38.3945 78.4395 38.6969 78.9864C39.1101 79.7336 39.2908 80.4319 39.2392 81.0813C39.1956 81.7266 38.9148 82.3699 38.3968 83.0113L36.744 81.9161C37.0363 81.6277 37.2225 81.3147 37.3027 80.9769C37.3951 80.6428 37.32 80.2562 37.0772 79.8171C36.7918 79.301 36.3858 78.9753 35.8593 78.8399C35.3449 78.7082 34.7559 78.8126 34.092 79.153L32.7482 79.8422C32.0843 80.1827 31.6616 80.5972 31.4801 81.0858C31.3108 81.578 31.3688 82.0822 31.6542 82.5983C31.8927 83.0297 32.2022 83.3109 32.5828 83.4421C32.9755 83.5768 33.378 83.6176 33.79 83.5645L33.7185 85.4403C32.9125 85.468 32.1972 85.3257 31.5726 85.0131C30.9604 84.7042 30.4476 84.1762 30.0345 83.429Z" fill="white"/>
<path d="M39.3189 92.8397C38.797 92.508 38.3779 92.1214 38.0616 91.6799C37.7452 91.2384 37.5481 90.7576 37.4702 90.2375C37.3972 89.7102 37.4447 89.1496 37.6127 88.5558C37.7857 87.9547 38.0943 87.33 38.5385 86.6817C38.9827 86.0334 39.4552 85.5181 39.9561 85.1358C40.4618 84.7463 40.9783 84.4837 41.5055 84.3482C42.0376 84.2054 42.5766 84.1872 43.1225 84.2936C43.6685 84.4001 44.2024 84.6191 44.7242 84.9508C45.2461 85.2825 45.6652 85.6691 45.9816 86.1106C46.2979 86.5521 46.4925 87.0366 46.5655 87.5639C46.6434 88.084 46.5959 88.6445 46.4229 89.2456C46.2549 89.8394 45.9488 90.4605 45.5046 91.1088C45.0604 91.757 44.5854 92.276 44.0796 92.6656C43.5788 93.0479 43.0623 93.3104 42.5302 93.4532C42.0031 93.5887 41.4665 93.6033 40.9206 93.4968C40.3747 93.3904 39.8408 93.1713 39.3189 92.8397ZM40.3296 91.3646C40.8515 91.6963 41.3684 91.7895 41.8805 91.6444C42.4 91.5041 42.8694 91.128 43.2887 90.5161L44.0673 89.3797C44.4866 88.7679 44.661 88.2043 44.5906 87.689C44.5278 87.1786 44.2354 86.7575 43.7136 86.4259C43.1917 86.0942 42.6709 85.9985 42.1514 86.1389C41.6393 86.284 41.1737 86.6625 40.7545 87.2744L39.9758 88.4107C39.5566 89.0226 39.3784 89.5838 39.4412 90.0942C39.5116 90.6095 39.8077 91.0329 40.3296 91.3646Z" fill="white"/>
<path d="M52.1604 88.8419L50.6178 94.2442C50.44 94.8669 50.4333 95.3675 50.5978 95.7459C50.7647 96.116 51.1452 96.3797 51.7394 96.5371C52.3335 96.6944 52.8005 96.6552 53.1404 96.4194C53.4827 96.1751 53.7428 95.7417 53.9206 95.119L55.4632 89.7166L57.403 90.2303L55.918 95.4307C55.733 96.0787 55.5065 96.6251 55.2384 97.0701C54.9815 97.5089 54.6645 97.8458 54.2872 98.0808C53.9124 98.3073 53.4762 98.4362 52.9786 98.4673C52.4833 98.49 51.9081 98.4146 51.2528 98.2411C50.5975 98.0675 50.063 97.849 49.6495 97.5856C49.2384 97.3138 48.932 96.9883 48.7301 96.609C48.5307 96.2213 48.4327 95.7744 48.4362 95.2685C48.4509 94.7565 48.5507 94.1765 48.7357 93.5285L50.2207 88.3281L52.1604 88.8419Z" fill="white"/>
<path d="M63.188 99.6782L61.1233 99.7505L60.7783 90.6191L65.2746 90.4616C65.7093 90.4464 66.1059 90.5023 66.4643 90.6295C66.8228 90.7567 67.1292 90.9468 67.3836 91.1999C67.6467 91.4439 67.8529 91.7424 68.0023 92.0952C68.1516 92.448 68.2346 92.8425 68.251 93.2785C68.2744 93.8978 68.1499 94.4436 67.8776 94.916C67.6143 95.388 67.1969 95.7389 66.6252 95.9685L68.6216 99.4878L66.3259 99.5683L64.5422 96.2773L63.0615 96.3292L63.188 99.6782ZM65.1717 94.5785C65.4796 94.5677 65.7168 94.4851 65.8832 94.3309C66.0584 94.1675 66.1404 93.9376 66.1292 93.6411L66.1075 93.0654C66.0963 92.7689 65.9973 92.5497 65.8106 92.4078C65.6326 92.2568 65.3896 92.1867 65.0817 92.1975L62.9083 92.2737L62.9983 94.6546L65.1717 94.5785Z" fill="white"/>
<path d="M77.8783 97.7257C77.1227 98.0651 76.4228 98.2302 75.7784 98.2211C75.1302 98.204 74.5256 98.0808 73.9645 97.8513L74.6162 96.0997C75.5057 96.4706 76.3775 96.4642 77.2317 96.0806C77.6916 95.874 77.9884 95.63 78.122 95.3485C78.2557 95.067 78.2497 94.776 78.1042 94.4754C77.9931 94.246 77.8355 94.0857 77.6313 93.9944C77.4233 93.8953 77.1047 93.9084 76.6755 94.0337L75.7737 94.3087C74.8085 94.6074 74.0108 94.6431 73.3808 94.4157C72.7589 94.1846 72.2795 93.721 71.9425 93.025C71.7625 92.6533 71.6717 92.28 71.6701 91.9051C71.6686 91.5302 71.7497 91.1712 71.9135 90.828C72.0855 90.4811 72.3399 90.1599 72.6766 89.8642C73.0178 89.5569 73.443 89.2889 73.9522 89.0602C74.601 88.7688 75.2196 88.6113 75.8081 88.5877C76.3967 88.5642 76.9594 88.6629 77.4964 88.8839L76.8382 90.6529C76.5218 90.5157 76.1813 90.4424 75.8167 90.4328C75.4565 90.4116 75.0546 90.5006 74.6111 90.6998C74.1923 90.8879 73.9146 91.0993 73.7783 91.3338C73.6419 91.5684 73.635 91.8123 73.7575 92.0654C73.8954 92.3501 74.073 92.5207 74.2903 92.5772C74.5159 92.63 74.8227 92.6029 75.2109 92.496L76.1241 92.2447C77.0762 91.9808 77.8615 91.9507 78.4801 92.1544C79.0948 92.3501 79.5765 92.8079 79.925 93.5276C80.1165 93.9231 80.2188 94.3201 80.2318 94.7187C80.2448 95.1173 80.1651 95.4998 79.9925 95.8662C79.8282 96.2289 79.5691 96.5715 79.2154 96.8941C78.8578 97.2088 78.4121 97.486 77.8783 97.7257Z" fill="white"/>
<path d="M86.1644 93.8306L80.1289 86.7803L85.1107 82.8247L86.2781 84.1883L82.8904 86.8781L84.1269 88.3225L87.0321 86.0158L88.1908 87.3693L85.2856 89.676L86.5913 91.2012L89.9789 88.5114L91.1462 89.875L86.1644 93.8306Z" fill="white"/>
<path d="M96.6616 83.2169C96.3159 83.9476 95.8951 84.5109 95.399 84.9071C94.8946 85.2995 94.3518 85.584 93.7704 85.7605L93.0846 84.021C94.0111 83.7466 94.6697 83.1964 95.0604 82.3705C95.2708 81.9258 95.3319 81.5546 95.2437 81.2569C95.1555 80.9593 94.9547 80.7417 94.6413 80.6042C94.4022 80.4992 94.1742 80.4759 93.9574 80.5343C93.7324 80.589 93.4989 80.7982 93.2571 81.162L92.7569 81.9352C92.2244 82.7661 91.642 83.2921 91.0095 83.5133C90.3809 83.7266 89.7037 83.674 88.978 83.3556C88.5904 83.1855 88.2696 82.9584 88.0157 82.6744C87.7617 82.3903 87.5812 82.0666 87.4743 81.7032C87.3712 81.3318 87.3479 80.9284 87.4046 80.4929C87.4567 80.0459 87.5993 79.5762 87.8322 79.0838C88.129 78.4564 88.4932 77.9496 88.9248 77.5636C89.3564 77.1775 89.8509 76.9006 90.4083 76.7328L91.1008 78.4896C90.7677 78.5832 90.4593 78.7404 90.1756 78.9612C89.8874 79.1704 89.6419 79.4894 89.439 79.9183C89.2474 80.3233 89.1788 80.6577 89.2334 80.9214C89.2879 81.185 89.4471 81.3748 89.7109 81.4905C90.0078 81.6208 90.2579 81.6394 90.4612 81.5464C90.6683 81.4455 90.8834 81.233 91.1064 80.9089L91.6314 80.1466C92.1773 79.3504 92.7541 78.8363 93.3618 78.6042C93.9613 78.3685 94.6362 78.4153 95.3866 78.7446C95.799 78.9255 96.1445 79.1634 96.4232 79.4584C96.7019 79.7533 96.8992 80.094 97.0151 80.4805C97.1348 80.8591 97.1689 81.2817 97.1174 81.7482C97.0578 82.2111 96.9058 82.7007 96.6616 83.2169Z" fill="white"/>
<path d="M26.5117 71.4157V49.7578H41.5215V53.9467H31.4393V58.3837H40.0302V62.5415H31.4393V71.4157H26.5117Z" fill="white"/>
<path d="M50.4028 71.4157H45.4752V49.7578H56.2057C57.2431 49.7578 58.1833 49.9233 59.0261 50.2543C59.869 50.5852 60.5822 51.061 61.1658 51.6816C61.7709 52.2815 62.2356 53.0055 62.5598 53.8536C62.8839 54.7017 63.046 55.6429 63.046 56.6772C63.046 58.1458 62.7002 59.4283 62.0086 60.5247C61.3387 61.621 60.3121 62.4174 58.9289 62.9139L63.3702 71.4157H57.8915L53.9364 63.4724H50.4028V71.4157ZM55.5898 59.5007C56.3246 59.5007 56.8973 59.3249 57.308 58.9733C57.7402 58.6009 57.9563 58.0631 57.9563 57.3598V55.9945C57.9563 55.2912 57.7402 54.7637 57.308 54.4121C56.8973 54.0397 56.3246 53.8536 55.5898 53.8536H50.4028V59.5007H55.5898Z" fill="white"/>
<path d="M67.3197 71.4157V49.7578H82.7184V53.9467H72.2473V58.3837H81.2272V62.5415H72.2473V67.2268H82.7184V71.4157H67.3197Z" fill="white"/>
<path d="M87.0114 71.4157V49.7578H102.41V53.9467H91.939V58.3837H100.919V62.5415H91.939V67.2268H102.41V71.4157H87.0114Z" fill="white"/>
<path fill-rule="evenodd" clip-rule="evenodd" d="M26.5114 75.7797C24.0091 75.7797 21.9805 73.826 21.9805 71.416V49.7582C21.9805 47.3482 24.0091 45.3945 26.5114 45.3945H41.5212C42.2299 45.3945 42.9007 45.5513 43.4981 45.8307C44.0955 45.5513 44.7662 45.3945 45.475 45.3945H56.2055C57.7481 45.3945 59.2799 45.642 60.7365 46.2139L59.0259 50.2546C58.9671 50.2316 58.9079 50.2093 58.8482 50.1878C58.0515 49.9014 57.1706 49.7582 56.2055 49.7582H45.475V71.416H50.4026V63.4728H53.9362L57.8912 71.416H63.3699L58.9286 62.9142C59.4315 62.7337 59.8873 62.5136 60.2959 62.2538C60.3003 62.251 60.3047 62.2482 60.3091 62.2453C61.0182 61.7919 61.5846 61.2185 62.0084 60.525C62.3555 59.9747 62.6155 59.3775 62.7884 58.7333C62.96 58.0942 63.0457 57.409 63.0457 56.6775C63.0457 55.9252 62.96 55.222 62.7884 54.5682C62.7242 54.3232 62.6478 54.0851 62.5595 53.8539C62.2353 53.0058 61.7706 52.2818 61.1655 51.6819C60.582 51.0614 59.8687 50.5856 59.0259 50.2546L60.7365 46.2139C61.6756 46.5827 62.5485 47.0698 63.3362 47.6766C64.1038 46.3172 65.5997 45.3945 67.3194 45.3945H82.7182C83.4948 45.3945 84.2257 45.5827 84.8646 45.9143C85.5035 45.5827 86.2345 45.3945 87.0111 45.3945H102.41C104.912 45.3945 106.941 47.3482 106.941 49.7582V53.947C106.941 55.295 106.306 56.5003 105.309 57.3007C105.401 57.6471 105.45 58.0101 105.45 58.3841V62.5419C105.45 62.9892 105.38 63.4207 105.25 63.827C106.281 64.6268 106.941 65.8528 106.941 67.2272V71.416C106.941 73.826 104.912 75.7797 102.41 75.7797H87.0111C86.2345 75.7797 85.5035 75.5915 84.8646 75.2599C84.2257 75.5915 83.4948 75.7797 82.7182 75.7797H67.3194C66.611 75.7797 65.9407 75.6231 65.3435 75.344C64.7377 75.6264 64.0648 75.7797 63.3699 75.7797H57.8912C56.3786 75.7797 54.9824 75.0545 54.1471 73.8737C53.3312 75.0244 51.9585 75.7797 50.4026 75.7797H45.475C42.9726 75.7797 40.944 73.826 40.944 71.416V66.8167C40.6487 66.8749 40.343 66.9055 40.0299 66.9055H35.97V71.416C35.97 73.826 33.9414 75.7797 31.439 75.7797H26.5114ZM31.439 62.5419H40.0299V58.3841H31.439V53.947H41.5212V49.7582H26.5114V71.416H31.439V62.5419ZM82.7182 71.416V67.2272H72.247V62.5419H81.2269V58.3841H72.247V53.947H82.7182V49.7582H67.3194V71.416H82.7182ZM87.0111 71.416H102.41V67.2272H91.9387V62.5419H100.919V58.3841H91.9387V53.947H102.41V49.7582H87.0111V71.416ZM57.0378 54.2089C56.8006 54.061 56.5231 53.9594 56.2055 53.9039C56.0146 53.8706 55.8093 53.8539 55.5895 53.8539H50.4026V59.5011H55.5895C55.6618 59.5011 55.7324 59.4994 55.8015 59.496C55.9255 59.4899 56.0443 59.4784 56.1582 59.4613C56.6266 59.3913 57.0098 59.2287 57.3077 58.9736C57.332 58.9526 57.3557 58.9311 57.3787 58.9091C57.4287 58.8611 57.4755 58.8107 57.519 58.7578C57.8104 58.4034 57.9561 57.9376 57.9561 57.3601V55.9949C57.9561 55.2916 57.7399 54.7641 57.3077 54.4124C57.2244 54.3369 57.1344 54.2691 57.0378 54.2089Z" fill="#2854C6"/>
<path d="M20.7019 57.1089C20.455 57.1344 20.2332 56.9612 20.2065 56.7219L20.0644 55.4503L17.8298 55.6819C17.336 55.7331 16.8924 55.3866 16.8389 54.908L15.1009 39.3506C15.0475 38.872 15.4044 38.4426 15.8981 38.3914L18.1328 38.1599L17.9651 36.659C17.9384 36.4197 18.1169 36.205 18.3637 36.1794C18.6106 36.1538 18.8324 36.3271 18.8591 36.5663L19.0268 38.0672L21.2622 37.8356C21.756 37.7845 22.1996 38.131 22.2531 38.6095L23.9911 54.1669C24.0445 54.6455 23.6876 55.0749 23.1938 55.1261L20.9584 55.3577L21.1005 56.6293C21.1272 56.8686 20.9488 57.0833 20.7019 57.1089Z" fill="#EE7D8B"/>
<path fill-rule="evenodd" clip-rule="evenodd" d="M20.9582 55.3581L21.1002 56.6296C21.1269 56.8689 20.9485 57.0836 20.7016 57.1092C20.4547 57.1348 20.2329 56.9615 20.2062 56.7222L20.0641 55.4507L17.8295 55.6822C17.3357 55.7334 16.8921 55.3869 16.8386 54.9083L15.1006 39.351C15.0472 38.8724 15.4041 38.4429 15.8978 38.3918L18.1325 38.1602L17.9648 36.6593C17.9381 36.42 18.1166 36.2053 18.3634 36.1797C18.6103 36.1542 18.8321 36.3274 18.8589 36.5667L19.0265 38.0676L21.2619 37.836C21.7557 37.7848 22.1993 38.1313 22.2528 38.6099L23.9908 54.1672C24.0442 54.6458 23.6873 55.0753 23.1936 55.1264L20.9582 55.3581ZM22.6884 56.7149L23.3632 56.6449C24.7373 56.5026 25.7136 55.3119 25.5675 54.0039L23.8295 38.4465C23.6834 37.1385 22.4664 36.1751 21.0923 36.3175L20.4336 36.3857C20.3053 35.3259 19.3148 34.5451 18.1938 34.6612C17.0728 34.7774 16.2775 35.7433 16.3862 36.8051L15.7282 36.8733C14.3541 37.0156 13.3778 38.2063 13.5239 39.5143L15.2619 55.0717C15.408 56.3797 16.625 57.3431 17.9991 57.2007L18.6732 57.1309C18.9053 58.0724 19.8322 58.7354 20.8712 58.6277C21.9103 58.52 22.6696 57.6823 22.6884 56.7149Z" fill="#2854C6"/>
<path d="M22.3491 30.2886C22.1062 30.3386 21.8671 30.1883 21.8149 29.9528L21.1536 26.9697L18.9549 27.4218C18.4692 27.5217 17.991 27.2211 17.8866 26.7502L16.0915 18.6532C15.9871 18.1823 16.2962 17.7198 16.7819 17.6199L18.9806 17.1678L18.2247 13.7585C18.1725 13.5231 18.3271 13.2918 18.5699 13.2419C18.8128 13.192 19.0519 13.3423 19.1041 13.5777L19.8599 16.987L22.058 16.535C22.5437 16.4352 23.022 16.7358 23.1264 17.2067L24.9214 25.3037C25.0258 25.7746 24.7167 26.2371 24.231 26.337L22.0329 26.7889L22.6943 29.772C22.7465 30.0074 22.5919 30.2387 22.3491 30.2886Z" fill="#13C8A4"/>
<path fill-rule="evenodd" clip-rule="evenodd" d="M22.0328 26.788L22.6941 29.7711C22.7463 30.0065 22.5917 30.2378 22.3489 30.2877C22.1061 30.3377 21.8669 30.1874 21.8147 29.9519L21.1534 26.9689L18.9548 27.4209C18.4691 27.5208 17.9908 27.2202 17.8864 26.7493L16.0914 18.6523C15.987 18.1814 16.2961 17.7189 16.7817 17.619L18.9804 17.1669L18.2246 13.7576C18.1724 13.5222 18.3269 13.2909 18.5698 13.241C18.8126 13.1911 19.0517 13.3414 19.1039 13.5768L19.8598 16.9861L22.0579 16.5341C22.5435 16.4343 23.0218 16.7349 23.1262 17.2058L24.9212 25.3028C25.0256 25.7737 24.7165 26.2362 24.2309 26.3361L22.0328 26.788ZM23.9148 27.9628L24.562 27.8297C25.9137 27.5517 26.7574 26.2705 26.4721 24.9839L24.6771 16.8869C24.3919 15.6003 23.0784 14.7626 21.7267 15.0405L21.0795 15.1736L20.6548 13.2579C20.4218 12.2068 19.3475 11.5194 18.2386 11.7474C17.1298 11.9754 16.4406 13.0254 16.6737 14.0765L17.0984 15.9922L16.4506 16.1254C15.0989 16.4033 14.2552 17.6846 14.5405 18.9712L16.3355 27.0682C16.6207 28.3548 17.9342 29.1925 19.2859 28.9146L19.9336 28.7814L20.2638 30.2708C20.4969 31.322 21.5711 32.0093 22.68 31.7813C23.7889 31.5533 24.478 30.5034 24.245 29.4522L23.9148 27.9628Z" fill="#2854C6"/>
<path d="M5.33552 51.3725C5.08904 51.3437 4.9137 51.1266 4.94388 50.8877L5.43579 46.9946L3.20468 46.7332C2.71171 46.6754 2.36103 46.2412 2.42141 45.7634L4.60778 28.4601C4.66815 27.9823 5.11672 27.6418 5.60969 27.6996L7.8408 27.961L8.33276 24.0676C8.36294 23.8287 8.58723 23.6584 8.83371 23.6873C9.08019 23.7162 9.25553 23.9333 9.22535 24.1722L8.73339 28.0657L10.9652 28.3272C11.4582 28.385 11.8089 28.8192 11.7485 29.297L9.56213 46.6003C9.50176 47.0781 9.05319 47.4186 8.56022 47.3608L6.32838 47.0993L5.83647 50.9923C5.80629 51.2312 5.582 51.4014 5.33552 51.3725Z" fill="#13C8A4"/>
<path fill-rule="evenodd" clip-rule="evenodd" d="M6.32853 47.0989L5.83663 50.9919C5.80644 51.2308 5.58215 51.401 5.33567 51.3722C5.08919 51.3433 4.91385 51.1262 4.94403 50.8873L5.43594 46.9943L3.20483 46.7328C2.71187 46.675 2.36118 46.2408 2.42156 45.763L4.60793 28.4598C4.6683 27.9819 5.11687 27.6414 5.60984 27.6992L7.84095 27.9607L8.33291 24.0672C8.3631 23.8283 8.58738 23.658 8.83386 23.6869C9.08035 23.7158 9.25569 23.9329 9.2255 24.1718L8.73354 28.0653L10.9654 28.3268C11.4583 28.3846 11.809 28.8188 11.7487 29.2966L9.56228 46.5999C9.50191 47.0777 9.05334 47.4182 8.56038 47.3604L6.32853 47.0989ZM7.71119 48.7994L8.36881 48.8765C9.74071 49.0373 10.9715 48.0903 11.1365 46.7844L13.3229 29.4811C13.4879 28.1752 12.5288 26.9715 11.1569 26.8107L10.4993 26.7337L10.7997 24.3563C10.9346 23.2893 10.1508 22.3027 9.02543 22.1708C7.90001 22.0389 6.89351 22.8157 6.75868 23.8827L6.45829 26.2601L5.8014 26.1831C4.4295 26.0223 3.19871 26.9693 3.0337 28.2753L0.84733 45.5785C0.682317 46.8845 1.64136 48.0881 3.01326 48.2489L3.67014 48.3259L3.36981 50.7028C3.23498 51.7698 4.01868 52.7564 5.1441 52.8882C6.26952 53.0201 7.27603 52.2434 7.41085 51.1764L7.71119 48.7994Z" fill="#2854C6"/>
<path d="M109.474 107.089C109.711 107.114 109.924 106.947 109.95 106.718L110.086 105.497L112.231 105.72C112.705 105.769 113.13 105.436 113.182 104.977L114.85 90.0464C114.901 89.5871 114.558 89.175 114.084 89.1259L111.94 88.9037L112.101 87.4633C112.126 87.2336 111.955 87.0276 111.718 87.003C111.481 86.9785 111.268 87.1447 111.243 87.3744L111.082 88.8148L108.937 88.5925C108.463 88.5434 108.037 88.8759 107.986 89.3352L106.318 104.266C106.266 104.725 106.609 105.137 107.083 105.186L109.228 105.408L109.092 106.629C109.066 106.858 109.237 107.064 109.474 107.089Z" fill="#EE7D8B"/>
<path fill-rule="evenodd" clip-rule="evenodd" d="M109.228 105.408L109.092 106.628C109.066 106.858 109.238 107.064 109.475 107.088C109.712 107.113 109.924 106.947 109.95 106.717L110.086 105.497L112.231 105.719C112.705 105.768 113.131 105.436 113.182 104.976L114.85 90.0458C114.901 89.5865 114.559 89.1744 114.085 89.1253L111.94 88.9031L112.101 87.4626C112.127 87.233 111.955 87.0269 111.719 87.0024C111.482 86.9778 111.269 87.1441 111.243 87.3737L111.082 88.8142L108.937 88.5919C108.463 88.5428 108.037 88.8753 107.986 89.3346L106.318 104.265C106.267 104.724 106.609 105.136 107.083 105.186L109.228 105.408ZM107.506 106.765L106.913 106.704C105.559 106.564 104.597 105.39 104.741 104.102L106.409 89.1712C106.553 87.8825 107.752 86.933 109.106 87.0734L109.677 87.1324C109.833 86.1132 110.798 85.371 111.888 85.4839C112.978 85.5968 113.757 86.5197 113.685 87.5478L114.254 87.6068C115.609 87.7471 116.571 88.9204 116.427 90.2092L114.759 105.14C114.615 106.428 113.416 107.378 112.061 107.237L111.47 107.176C111.219 108.081 110.315 108.712 109.305 108.607C108.295 108.502 107.551 107.701 107.506 106.765Z" fill="#2854C6"/>
<path d="M107.892 81.3483C108.125 81.3963 108.355 81.252 108.405 81.0261L109.039 78.1632L111.149 78.5971C111.615 78.6929 112.074 78.4044 112.175 77.9525L113.897 70.1818C113.998 69.7299 113.701 69.286 113.235 69.1902L111.125 68.7563L111.85 65.4844C111.9 65.2584 111.752 65.0365 111.519 64.9886C111.286 64.9407 111.056 65.0849 111.006 65.3109L110.281 68.5828L108.171 68.149C107.705 68.0532 107.246 68.3417 107.146 68.7936L105.423 76.5643C105.323 77.0162 105.62 77.4601 106.086 77.5559L108.195 77.9897L107.561 80.8525C107.511 81.0785 107.659 81.3004 107.892 81.3483Z" fill="#13C8A4"/>
<path fill-rule="evenodd" clip-rule="evenodd" d="M108.197 77.9898L107.562 80.8526C107.512 81.0786 107.66 81.3005 107.893 81.3484C108.126 81.3964 108.356 81.2521 108.406 81.0261L109.04 78.1633L111.151 78.5972C111.617 78.693 112.076 78.4045 112.176 77.9526L113.899 70.1819C113.999 69.73 113.702 69.2861 113.236 69.1902L111.126 68.7564L111.851 65.4845C111.901 65.2585 111.753 65.0366 111.52 64.9887C111.287 64.9407 111.057 65.085 111.007 65.311L110.282 68.5829L108.172 68.1491C107.706 68.0533 107.247 68.3418 107.147 68.7937L105.424 76.5644C105.324 77.0163 105.621 77.4602 106.087 77.556L108.197 77.9898ZM106.315 79.1645L105.756 79.0496C104.424 78.7757 103.593 77.5131 103.874 76.2455L105.596 68.4748C105.877 67.2071 107.171 66.3816 108.504 66.6555L109.062 66.7704L109.456 64.9921C109.687 63.9504 110.752 63.2691 111.851 63.4951C112.95 63.721 113.633 64.7617 113.402 65.8034L113.008 67.5817L113.567 67.6966C114.899 67.9706 115.73 69.2331 115.449 70.5008L113.727 78.2715C113.446 79.5391 112.152 80.3647 110.819 80.0908L110.26 79.9758L109.957 81.345C109.726 82.3867 108.661 83.068 107.562 82.842C106.463 82.6161 105.78 81.5754 106.011 80.5337L106.315 79.1645Z" fill="#2854C6"/>
<path d="M123.384 99.3367C123.62 99.309 123.789 99.1006 123.76 98.8713L123.288 95.1352L125.429 94.8843C125.902 94.8288 126.238 94.4121 126.181 93.9536L124.082 77.3476C124.024 76.8891 123.594 76.5623 123.121 76.6177L120.98 76.8686L120.507 73.1321C120.478 72.9028 120.263 72.7394 120.027 72.7671C119.79 72.7949 119.622 73.0032 119.651 73.2325L120.123 76.969L117.981 77.2201C117.508 77.2755 117.171 77.6922 117.229 78.1507L119.328 94.7567C119.386 95.2153 119.816 95.5421 120.289 95.4866L122.431 95.2356L122.903 98.9717C122.932 99.201 123.147 99.3644 123.384 99.3367Z" fill="#13C8A4"/>
<path fill-rule="evenodd" clip-rule="evenodd" d="M122.431 95.2362L122.903 98.9723C122.932 99.2016 123.147 99.365 123.384 99.3373C123.62 99.3095 123.789 99.1012 123.76 98.8719L123.287 95.1358L125.429 94.8849C125.902 94.8294 126.238 94.4127 126.18 93.9542L124.082 77.3482C124.024 76.8896 123.594 76.5628 123.121 76.6183L120.979 76.8692L120.507 73.1327C120.478 72.9034 120.263 72.74 120.026 72.7677C119.79 72.7954 119.622 73.0038 119.651 73.2331L120.123 76.9696L117.981 77.2206C117.508 77.2761 117.171 77.6928 117.229 78.1513L119.327 94.7573C119.385 95.2159 119.816 95.5426 120.289 95.4872L122.431 95.2362ZM121.048 96.9368L120.481 97.0033C119.128 97.1617 117.916 96.2285 117.753 94.9418L115.655 78.3358C115.492 77.0491 116.437 75.863 117.789 75.7046L118.357 75.638L118.076 73.4176C117.943 72.3602 118.719 71.3824 119.835 71.2516C120.95 71.1209 121.948 71.8908 122.081 72.9482L122.362 75.1687L122.929 75.1022C124.281 74.9438 125.494 75.877 125.656 77.1637L127.755 93.7697C127.917 95.0563 126.972 96.2425 125.62 96.4009L125.053 96.4674L125.334 98.6874C125.467 99.7448 124.691 100.723 123.575 100.853C122.46 100.984 121.462 100.214 121.329 99.1568L121.048 96.9368Z" fill="#2854C6"/>
</svg>
