<svg width="145" height="49" viewBox="0 0 145 49" fill="none" xmlns="http://www.w3.org/2000/svg"><path d="M53.9 15.13c0 .75-.22 1.35-.67 1.8-.52.53-1.18.8-2 .8-.79 0-1.46-.27-2-.81a2.7 2.7 0 01-.83-2.01c0-.8.28-1.47.83-2.01a2.74 2.74 0 012-.81c.39 0 .76.07 1.11.22.36.15.64.35.86.6l-.48.48a1.84 1.84 0 00-1.5-.64 2.08 2.08 0 00-2.1 2.16 2.08 2.08 0 002.11 2.16c.6 0 1.11-.2 1.52-.6.26-.27.41-.64.45-1.1h-1.97v-.65h2.63c.03.14.04.27.04.4z" fill="#fff"/><path d="M53.91 15.13h-.18c0 .74-.22 1.3-.65 1.74-.5.51-1.13.77-1.93.77-.77 0-1.4-.26-1.94-.78a2.62 2.62 0 01-.8-1.95c0-.78.27-1.42.8-1.94a2.66 2.66 0 011.94-.79c.37 0 .73.07 1.08.22.34.15.61.34.81.58l.07-.06-.06-.06-.48.47.07.06.07-.05c-.38-.45-.91-.68-1.56-.68-.6 0-1.12.21-1.55.63-.44.42-.66.96-.66 1.62 0 .66.22 1.2.66 1.62.43.42.95.63 1.55.63.62 0 1.16-.21 1.58-.63.28-.28.44-.67.48-1.15l.01-.1h-1.98v-.47h2.54v-.09l-.09.02c.03.13.04.26.04.39h.18c0-.14-.01-.28-.04-.42l-.01-.08h-2.8v.83h2.06v-.09h-.09c-.04.45-.18.79-.43 1.03-.39.39-.87.58-1.45.58-.56 0-1.02-.2-1.43-.58-.4-.38-.6-.87-.6-1.49s.2-1.1.6-1.5c.4-.38.87-.56 1.43-.57.61 0 1.07.2 1.42.61l.06.08.6-.6-.05-.07a2.34 2.34 0 00-.88-.63 2.92 2.92 0 00-1.15-.23c-.81 0-1.5.28-2.07.84a2.8 2.8 0 00-.85 2.07c0 .82.28 1.52.85 2.08.56.55 1.26.83 2.07.83.84 0 1.53-.27 2.06-.82l-.06-.07.06.07c.47-.47.7-1.1.7-1.87z" fill="#fff"/><path d="M58.12 12.84h-2.48v1.7h2.24v.66h-2.24v1.7h2.48v.67h-3.18v-5.4h3.18v.67z" fill="#fff"/><path d="M58.04 12.84v-.09h-2.57v1.9h2.23v.46h-2.23v1.9h2.48v.48h-3v-5.22h3v.57h.18v-.75h-3.36v5.58h3.36v-.85h-2.48V15.3h2.24v-.83h-2.24v-1.53h2.48v-.09h-.1z" fill="#fff"/><path d="M60.95 17.57h-.7v-4.73h-1.52v-.67h3.74v.67h-1.52v4.73z" fill="#fff"/><path d="M61.04 17.58v-.1h-.6v-4.73H58.9v-.48h3.56v.48h-1.52v4.83h.18v-4.65h1.52v-.84h-3.92v.84h1.52v4.74h.88v-.1h-.1z" fill="#fff"/><path d="M65.97 12.17h-.7v5.4h.7v-5.4z" fill="#fff"/><path d="M65.2 17.58h.08v-5.31h.52v5.22h-.6v.18h.78v-5.58h-.88v5.58h.1v-.1z" fill="#fff"/><path d="M69.04 17.57h-.7v-4.73h-1.52v-.67h3.74v.67h-1.52v4.73z" fill="#fff"/><path d="M68.96 17.58v-.1h-.61v-4.73h-1.52v-.48h3.56v.48h-1.52v4.83h.18v-4.65h1.52v-.84h-3.92v.84h1.52v4.74h.88v-.1h-.1z" fill="#fff"/><path d="M74.16 16.46c.4.4.9.6 1.48.6a2 2 0 001.48-.6c.4-.4.6-.92.6-1.55s-.2-1.15-.6-1.55a2 2 0 00-1.48-.61 2 2 0 00-1.48.6c-.4.41-.6.93-.6 1.56s.2 1.14.6 1.55zm3.47.45c-.53.55-1.2.82-1.99.82a2.75 2.75 0 01-2.8-2.82 2.75 2.75 0 012.8-2.82c.8 0 1.45.27 2 .82.53.55.8 1.21.8 2s-.27 1.45-.8 2z" fill="#fff"/><path d="M74.08 16.46l-.06.06c.41.43.94.64 1.54.64.6 0 1.12-.21 1.54-.64.42-.42.63-.96.63-1.6 0-.66-.2-1.2-.63-1.62a2.1 2.1 0 00-1.54-.64c-.6 0-1.13.22-1.54.64a2.2 2.2 0 00-.63 1.61c0 .65.2 1.2.63 1.61l.06-.06.07-.06a2.02 2.02 0 01-.58-1.49c0-.6.2-1.1.58-1.49.38-.38.85-.57 1.4-.58.57 0 1.03.2 1.42.58.39.4.58.88.58 1.5 0 .6-.2 1.09-.58 1.48a1.9 1.9 0 01-1.41.58c-.56 0-1.03-.2-1.41-.58l-.07.06zm3.54.52l-.13-.13c-.52.53-1.16.79-1.93.8-.78-.01-1.41-.27-1.93-.8a2.66 2.66 0 01-.78-1.94 2.66 2.66 0 012.7-2.73c.78 0 1.41.26 1.94.8.52.53.77 1.17.77 1.93 0 .77-.25 1.41-.77 1.94l.13.13c.55-.56.83-1.26.83-2.07 0-.8-.28-1.5-.83-2.06a2.77 2.77 0 00-2.06-.85c-.82 0-1.51.28-2.06.85a2.84 2.84 0 00-.83 2.06 2.84 2.84 0 002.89 2.91c.82 0 1.5-.28 2.06-.84z" fill="#fff"/><path d="M79.39 17.57v-5.4h.85l2.64 4.2h.03l-.03-1.04v-3.16h.7v5.4h-.73l-2.76-4.4h-.03l.03 1.04v3.36h-.7z" fill="#fff"/><path d="M79.48 17.58h.09v-5.31h.7l2.65 4.2h.18l-.04-1.13v-3.07h.52v5.22H83l-2.76-4.4h-.18l.04 1.12v3.28h-.61v.18h.79V14.2l-.03-1.04h-.1v.1h.04v-.1l-.08.05 2.8 4.45h.86v-5.58h-.88v3.25l.03 1.04h.1v-.1h-.04v.1l.08-.05-2.67-4.24h-1v5.58h.1v-.1z" fill="#fff"/><path d="M107.8 32.89h1.7V21.63h-1.7V32.9zm15.24-7.2l-1.94 4.87h-.06l-2-4.87h-1.83l3.02 6.81-1.72 3.8h1.76l4.65-10.61h-1.88zm-9.6 5.92c-.55 0-1.32-.28-1.32-.96 0-.87.96-1.2 1.8-1.2.74 0 1.09.16 1.54.38a2.05 2.05 0 01-2.01 1.78zm.21-6.17c-1.22 0-2.5.54-3.02 1.72l1.5.63c.33-.63.92-.83 1.55-.83.88 0 1.76.52 1.78 1.45v.11c-.3-.17-.96-.43-1.77-.43-1.61 0-3.26.88-3.26 2.53 0 1.5 1.32 2.48 2.81 2.48a2.4 2.4 0 002.16-1.1h.06v.87h1.63v-4.32c0-2-1.5-3.1-3.44-3.1zm-10.46 1.62h-2.4V23.2h2.4a1.96 1.96 0 011.99 1.93c0 .87-.72 1.93-1.99 1.93zm-.04-5.43H99.1V32.9h1.69v-4.27h2.36c1.88 0 3.72-1.35 3.72-3.5 0-2.14-1.84-3.49-3.72-3.49zm-22.1 9.98c-1.17 0-2.15-.97-2.15-2.3 0-1.35.98-2.34 2.15-2.34 1.15 0 2.06.99 2.06 2.33s-.91 2.3-2.06 2.3zm1.94-5.3h-.06a2.68 2.68 0 00-2.03-.85 3.82 3.82 0 00-3.7 3.84 3.8 3.8 0 003.7 3.82c.92 0 1.65-.4 2.03-.87h.06v.55c0 1.46-.79 2.25-2.06 2.25a2.13 2.13 0 01-1.94-1.37l-1.48.61a3.67 3.67 0 003.42 2.26c1.99 0 3.67-1.16 3.67-3.98v-6.88h-1.61v.63zm2.77 6.58h1.7V21.63h-1.7V32.9zm4.2-3.72a2.1 2.1 0 012.01-2.23c.67 0 1.24.33 1.43.81l-3.44 1.42zm5.25-1.27c-.32-.86-1.3-2.44-3.3-2.44-1.98 0-3.63 1.55-3.63 3.83a3.76 3.76 0 003.82 3.83c1.77 0 2.8-1.08 3.22-1.7L94 30.55a2.2 2.2 0 01-1.9 1.06c-.86 0-1.47-.4-1.87-1.16l5.16-2.12-.18-.43zm-41.08-1.26v1.62h3.92a3.38 3.38 0 01-.9 2.04 4.02 4.02 0 01-3.02 1.2 4.28 4.28 0 01-4.29-4.33c0-2.39 1.88-4.32 4.3-4.32 1.3 0 2.24.5 2.95 1.16l1.15-1.14a6.05 6.05 0 00-10.18 4.3 6.05 6.05 0 006.07 5.95 5.5 5.5 0 004.18-1.67 5.35 5.35 0 001.42-3.8c0-.38-.03-.72-.09-1.01h-5.5zm10.05 4.97C63 31.6 62 30.65 62 29.29c0-1.38 1.01-2.32 2.18-2.32 1.17 0 2.18.94 2.18 2.32 0 1.36-1.01 2.32-2.18 2.32zm0-6.15a3.79 3.79 0 00-3.87 3.83 3.8 3.8 0 003.87 3.83 3.8 3.8 0 003.87-3.83 3.79 3.79 0 00-3.87-3.83zm8.44 6.15c-1.16 0-2.17-.96-2.17-2.32 0-1.38 1-2.32 2.17-2.32s2.18.94 2.18 2.32c0 1.36-1 2.32-2.18 2.32zm0-6.15a3.79 3.79 0 00-3.87 3.83 3.8 3.8 0 003.87 3.83 3.8 3.8 0 003.87-3.83 3.79 3.79 0 00-3.87-3.83z" fill="#fff"/><path fill-rule="evenodd" clip-rule="evenodd" d="M20.49 35.03l-.07-.07A1.8 1.8 0 0120 33.7V14.06c0-.6.18-1.06.49-1.33l11.23 11.15-11.23 11.15z" fill="#fff"/><path fill-rule="evenodd" clip-rule="evenodd" d="M35.45 27.73l.08-.05 4.44-2.5-4.44 2.5-.08.05zm0-.14l-3.74-3.71 3.74-3.72 4.52 2.55c.58.32.9.74.95 1.17-.05.42-.37.84-.95 1.16l-4.52 2.55z" fill="#fff"/><path fill-rule="evenodd" clip-rule="evenodd" d="M21.2 35.45zm0-.13c-.3 0-.58-.1-.8-.3l11.24-11.14 3.74 3.71-13.16 7.43c-.36.2-.7.3-1.01.3zm-.8-.16a1.2 1.2 0 01-.06-.06l.06.06z" fill="#fff"/><path fill-rule="evenodd" clip-rule="evenodd" d="M31.58 23.87L20.34 12.72c.22-.19.5-.29.8-.29.31 0 .66.1 1.02.3l13.16 7.43-3.74 3.71zm3.83-3.8L22.16 12.6a2.1 2.1 0 010 0l13.25 7.47z" fill="#fff"/><path d="M22.14 35.15z" fill="#fff"/><path fill-rule="evenodd" clip-rule="evenodd" d="M21.21 35.45c-.31 0-.59-.1-.8-.3l-.06-.05.06-.08c.21.2.49.3.8.3.3 0 .65-.1 1.02-.3l13.16-7.43.08.09-.08.04-13.16 7.43a2.18 2.18 0 01-1.02.3z" fill="#fff"/><path d="M20.42 35.1z" fill="#fff"/><path fill-rule="evenodd" clip-rule="evenodd" d="M20.42 35.1c-.26-.28-.42-.71-.42-1.27v-.13c0 .56.16.99.42 1.27l.07.06-.07.06z" fill="#fff"/><path fill-rule="evenodd" clip-rule="evenodd" d="M20.34 35.1l.07-.07-.07.06z" fill="#fff"/><path d="M40.83 24.34a1.11 1.11 0 010 0z" fill="#fff"/><path fill-rule="evenodd" clip-rule="evenodd" d="M35.4 27.68l-.08-.09 4.52-2.55c.58-.32.9-.74.95-1.16 0 .15-.03.3-.1.46-.14.3-.43.6-.85.83l-4.44 2.5z" fill="#fff"/><path d="M39.93 22.58l-4.44-2.5 4.44 2.5z" fill="#fff"/><path fill-rule="evenodd" clip-rule="evenodd" d="M40.8 23.87c-.06-.42-.38-.84-.96-1.16l-4.52-2.55.08-.09 4.44 2.5c.63.36.95.83.95 1.3z" fill="#fff"/><path d="M20 13.76c.05-.92.56-1.46 1.27-1.46-.3 0-.58.1-.79.3l-.06.06c-.24.25-.4.62-.42 1.1z" fill="#fff"/><path fill-rule="evenodd" clip-rule="evenodd" d="M20 14.08v-.14V13.8c.03-.48.18-.86.42-1.1l.07.06c-.3.27-.49.73-.49 1.33z" fill="#fff"/><path fill-rule="evenodd" clip-rule="evenodd" d="M35.39 20.16l-13.16-7.43a2.1 2.1 0 00-1.02-.3c-.31 0-.59.1-.8.3l-.07-.07a1.14 1.14 0 01.07-.07c.21-.19.48-.29.8-.3.3 0 .65.1 1.02.31l13.24 7.47-.08.09z" fill="#fff"/><rect x="0.75" y="0.75" width="143.422" height="47.0538" rx="7.25" stroke="#fff" stroke-width="1.5"/></svg>