<svg width="423" height="237" viewBox="0 0 423 237" fill="none" xmlns="http://www.w3.org/2000/svg">
<path d="M51.6318 12.7009C51.6318 12.3785 51.8944 12.1172 52.2184 12.1172C52.5423 12.1172 52.805 12.3785 52.805 12.7009V51.5765H54.3602C55.656 51.5765 56.7065 52.6219 56.7065 53.9115V74.8334C56.7065 76.123 55.656 77.1684 54.3602 77.1684H52.805V78.997C52.805 79.3194 52.5423 79.5808 52.2184 79.5808C51.8944 79.5808 51.6318 79.3194 51.6318 78.997V77.1684H50.0767C48.7808 77.1684 47.7303 76.123 47.7303 74.8334V53.9115C47.7303 52.6219 48.7808 51.5765 50.0767 51.5765H51.6318V12.7009Z" fill="#13C8A4"/>
<path fill-rule="evenodd" clip-rule="evenodd" d="M67.4339 40.5855L67.4339 61.367H68.9891C70.2849 61.367 71.3354 62.4124 71.3354 63.702L71.3354 90.6455C71.3354 91.9351 70.2849 92.9805 68.9891 92.9805H67.434L67.4339 221.922C67.4339 222.245 67.1713 222.506 66.8473 222.506C66.5233 222.506 66.2607 222.245 66.2607 221.922L66.2608 92.9805H64.7056C63.4097 92.9805 62.3592 91.9351 62.3592 90.6455L62.3592 63.702C62.3592 62.4124 63.4097 61.367 64.7056 61.367H66.2607V40.5855C66.2607 40.2631 66.5233 40.0017 66.8473 40.0017C67.1713 40.0017 67.4339 40.2631 67.4339 40.5855Z" fill="#13C8A4"/>
<path d="M181.733 85.0949H183.288L183.288 46.721C183.288 46.3986 183.551 46.1372 183.875 46.1372C184.199 46.1372 184.461 46.3986 184.461 46.721L184.461 85.0949H186.017C187.313 85.0949 188.363 86.1403 188.363 87.4299L188.363 141.136C188.363 142.426 187.313 143.471 186.017 143.471H184.461L184.461 220.686C184.461 221.008 184.199 221.27 183.875 221.27C183.551 221.27 183.288 221.008 183.288 220.686L183.288 143.471H181.733C180.437 143.471 179.387 142.426 179.387 141.136L179.387 87.4299C179.387 86.1403 180.437 85.0949 181.733 85.0949Z" fill="#13C8A4"/>
<path d="M36.5642 0.583744C36.5642 0.261351 36.8268 0 37.1508 0C37.4748 0 37.7374 0.261351 37.7374 0.583744L37.7374 25.3155H39.7318C41.0276 25.3155 42.0781 26.3609 42.0781 27.6505V179.944C42.0781 181.234 41.0276 182.279 39.7318 182.279H38.1767V193.491C38.1767 193.813 37.9141 194.075 37.5901 194.075C37.2661 194.075 37.0035 193.813 37.0035 193.491V182.279H35.4482C34.1524 182.279 33.1019 181.234 33.1019 179.944V27.6505C33.1019 26.3609 34.1524 25.3155 35.4482 25.3155H36.5642L36.5642 0.583744Z" fill="#13C8A4"/>
<path d="M22.153 19.3826C22.153 19.0602 22.4156 18.7988 22.7396 18.7988C23.0636 18.7988 23.3262 19.0602 23.3262 19.3826L23.3262 26.7005H24.8812C26.177 26.7005 27.2275 27.7459 27.2275 29.0354V57.0504C27.2275 58.34 26.177 59.3854 24.8812 59.3854H23.3262V81.5337C23.3262 81.8561 23.0636 82.1175 22.7396 82.1175C22.4156 82.1175 22.153 81.8561 22.153 81.5337V59.3854H20.5977C19.3018 59.3854 18.2513 58.34 18.2513 57.0504V29.0354C18.2513 27.7459 19.3018 26.7005 20.5977 26.7005H22.153L22.153 19.3826Z" fill="#13C8A4"/>
<path d="M110.146 19.8035C110.146 19.4811 110.408 19.2197 110.732 19.2197C111.056 19.2197 111.319 19.4811 111.319 19.8035L111.319 35.1022H112.874C114.17 35.1022 115.22 36.1476 115.22 37.4372V65.4522C115.22 66.7417 114.17 67.7871 112.874 67.7871H111.319V110.401C111.319 110.723 111.056 110.985 110.732 110.985C110.408 110.985 110.146 110.723 110.146 110.401V67.7871H108.591C107.295 67.7871 106.244 66.7417 106.244 65.4522V37.4372C106.244 36.1476 107.295 35.1022 108.591 35.1022H110.146L110.146 19.8035Z" fill="#13C8A4"/>
<path d="M139.403 28.8853C139.403 28.5629 139.666 28.3015 139.99 28.3015C140.313 28.3015 140.576 28.5629 140.576 28.8853L140.576 47.9369H142.131C143.427 47.9369 144.478 48.9823 144.478 50.2719V86.3048C144.478 87.5943 143.427 88.6397 142.131 88.6397H140.576V110.401C140.576 110.723 140.313 110.984 139.99 110.984C139.666 110.984 139.403 110.723 139.403 110.401V88.6397H137.848C136.552 88.6397 135.501 87.5943 135.501 86.3048V50.2719C135.501 48.9823 136.552 47.9369 137.848 47.9369H139.403L139.403 28.8853Z" fill="#13C8A4"/>
<path d="M154.031 46.7205C154.031 46.3981 154.294 46.1367 154.618 46.1367C154.942 46.1367 155.205 46.3981 155.205 46.7205L155.205 62.8026H156.76C158.055 62.8026 159.106 63.848 159.106 65.1376V89.5141C159.106 90.8037 158.055 91.8491 156.76 91.8491H155.205V95.4722C155.205 95.7946 154.942 96.056 154.618 96.056C154.294 96.056 154.031 95.7946 154.031 95.4722V91.8491H152.476C151.18 91.8491 150.13 90.8036 150.13 89.5141V65.1376C150.13 63.848 151.18 62.8026 152.476 62.8026H154.031L154.031 46.7205Z" fill="#EE7D8B"/>
<path d="M168.66 84.447C168.66 84.1246 168.923 83.8633 169.247 83.8633C169.57 83.8633 169.833 84.1246 169.833 84.447L169.833 89.8908H171.388C172.684 89.8908 173.735 90.9362 173.735 92.2258V97.3887C173.735 98.6783 172.684 99.7237 171.388 99.7237H169.833V113.737C169.833 114.059 169.57 114.32 169.247 114.32C168.923 114.32 168.66 114.059 168.66 113.737V99.7237H167.105C165.809 99.7237 164.758 98.6783 164.758 97.3887V92.2258C164.758 90.9362 165.809 89.8908 167.105 89.8908H168.66L168.66 84.447Z" fill="#EE7D8B"/>
<path d="M79.334 70.1836H80.8892L80.8892 63.8767C80.8892 63.5543 81.1518 63.293 81.4758 63.293C81.7997 63.293 82.0624 63.5543 82.0624 63.8767L82.0624 70.1836H83.6175C84.9134 70.1836 85.9639 71.229 85.9639 72.5186L85.9639 118.402C85.9639 119.692 84.9134 120.737 83.6175 120.737H82.0624L82.0624 171.015C82.0624 171.338 81.7997 171.599 81.4758 171.599C81.1518 171.599 80.8892 171.338 80.8892 171.015L80.8892 120.737H79.334C78.0381 120.737 76.9876 119.692 76.9876 118.402L76.9876 72.5186C76.9876 71.229 78.0381 70.1836 79.334 70.1836Z" fill="#EE7D8B"/>
<path d="M5.75562 70.1836H7.31082L7.31082 63.8767C7.31082 63.5543 7.57344 63.293 7.89741 63.293C8.22138 63.293 8.484 63.5543 8.484 63.8767L8.484 70.1836H10.0391C11.335 70.1836 12.3855 71.229 12.3855 72.5186L12.3855 118.402C12.3855 119.692 11.335 120.737 10.0391 120.737H8.484L8.484 171.015C8.484 171.338 8.22138 171.599 7.89741 171.599C7.57345 171.599 7.31082 171.338 7.31082 171.015L7.31082 120.737H5.75562C4.45976 120.737 3.40925 119.692 3.40925 118.402L3.40925 72.5186C3.40925 71.229 4.45975 70.1836 5.75562 70.1836Z" fill="#EE7D8B"/>
<path d="M123.219 53.1541H124.774L124.774 49.9334C124.774 49.611 125.037 49.3496 125.361 49.3496C125.685 49.3496 125.947 49.611 125.947 49.9334L125.947 53.1541H127.503C128.798 53.1541 129.849 54.1995 129.849 55.489L129.849 76.634C129.849 77.9236 128.798 78.969 127.503 78.969H125.947L125.947 104.643C125.947 104.965 125.684 105.227 125.36 105.227C125.036 105.227 124.773 104.965 124.773 104.643L124.773 78.969H123.219C121.923 78.969 120.873 77.9236 120.873 76.634L120.873 55.489C120.873 54.1995 121.923 53.1541 123.219 53.1541Z" fill="#EE7D8B"/>
<path d="M93.9622 55.8548H95.5173L95.5173 30.1931C95.5173 29.8707 95.7799 29.6094 96.1039 29.6094C96.4278 29.6094 96.6905 29.8707 96.6905 30.1931L96.6905 55.8548H98.2457C99.5415 55.8548 100.592 56.9002 100.592 58.1898L100.592 204.316C100.592 205.605 99.5415 206.651 98.2457 206.651H96.6905L96.6905 236.416C96.6905 236.739 96.4278 237 96.1039 237C95.7799 237 95.5173 236.739 95.5173 236.416L95.5173 206.651H93.9622C92.6663 206.651 91.6158 205.605 91.6158 204.316L91.6158 58.1898C91.6158 56.9002 92.6663 55.8548 93.9622 55.8548Z" fill="#13C8A4"/>
<path d="M244.034 12.7009C244.034 12.3785 244.297 12.1172 244.621 12.1172C244.945 12.1172 245.207 12.3785 245.207 12.7009V51.5765H246.763C248.058 51.5765 249.109 52.6219 249.109 53.9115V74.8334C249.109 76.123 248.058 77.1684 246.763 77.1684H245.207V78.997C245.207 79.3194 244.945 79.5808 244.621 79.5808C244.297 79.5808 244.034 79.3194 244.034 78.997V77.1684H242.479C241.183 77.1684 240.133 76.123 240.133 74.8334V53.9115C240.133 52.6219 241.183 51.5765 242.479 51.5765H244.034V12.7009Z" fill="#13C8A4"/>
<path fill-rule="evenodd" clip-rule="evenodd" d="M259.836 40.5855L259.836 61.367H261.391C262.687 61.367 263.738 62.4124 263.738 63.702L263.738 90.6455C263.738 91.9351 262.687 92.9805 261.391 92.9805H259.836L259.836 221.922C259.836 222.245 259.574 222.506 259.25 222.506C258.926 222.506 258.663 222.245 258.663 221.922L258.663 92.9805H257.108C255.812 92.9805 254.762 91.9351 254.762 90.6455L254.762 63.702C254.762 62.4124 255.812 61.367 257.108 61.367H258.663V40.5855C258.663 40.2631 258.926 40.0017 259.25 40.0017C259.574 40.0017 259.836 40.2631 259.836 40.5855Z" fill="#13C8A4"/>
<path d="M228.967 0.583744C228.967 0.261351 229.229 0 229.553 0C229.877 0 230.14 0.261351 230.14 0.583744L230.14 25.3155H232.134C233.43 25.3155 234.48 26.3609 234.48 27.6505V179.944C234.48 181.234 233.43 182.279 232.134 182.279H230.579V193.491C230.579 193.813 230.316 194.075 229.992 194.075C229.668 194.075 229.406 193.813 229.406 193.491V182.279H227.851C226.555 182.279 225.504 181.234 225.504 179.944V27.6505C225.504 26.3609 226.555 25.3155 227.851 25.3155H228.967L228.967 0.583744Z" fill="#13C8A4"/>
<path d="M214.555 19.3826C214.555 19.0602 214.818 18.7988 215.142 18.7988C215.466 18.7988 215.729 19.0602 215.729 19.3826L215.729 26.7005H217.284C218.579 26.7005 219.63 27.7459 219.63 29.0354V57.0504C219.63 58.34 218.579 59.3854 217.284 59.3854H215.729V81.5337C215.729 81.8561 215.466 82.1175 215.142 82.1175C214.818 82.1175 214.555 81.8561 214.555 81.5337V59.3854H213C211.704 59.3854 210.654 58.34 210.654 57.0504V29.0354C210.654 27.7459 211.704 26.7005 213 26.7005H214.555L214.555 19.3826Z" fill="#13C8A4"/>
<path d="M302.548 19.8035C302.548 19.4811 302.811 19.2197 303.135 19.2197C303.459 19.2197 303.722 19.4811 303.722 19.8035L303.722 35.1022H305.277C306.573 35.1022 307.623 36.1476 307.623 37.4372V65.4522C307.623 66.7417 306.573 67.7871 305.277 67.7871H303.722V110.401C303.722 110.723 303.459 110.985 303.135 110.985C302.811 110.985 302.548 110.723 302.548 110.401V67.7871H300.993C299.697 67.7871 298.647 66.7417 298.647 65.4522V37.4372C298.647 36.1476 299.697 35.1022 300.993 35.1022H302.548L302.548 19.8035Z" fill="#13C8A4"/>
<path d="M271.736 70.1836H273.292L273.292 63.8767C273.292 63.5543 273.554 63.293 273.878 63.293C274.202 63.293 274.465 63.5543 274.465 63.8767L274.465 70.1836H276.02C277.316 70.1836 278.366 71.229 278.366 72.5186L278.366 118.402C278.366 119.692 277.316 120.737 276.02 120.737H274.465L274.465 171.015C274.465 171.338 274.202 171.599 273.878 171.599C273.554 171.599 273.292 171.338 273.292 171.015L273.292 120.737H271.736C270.44 120.737 269.39 119.692 269.39 118.402L269.39 72.5186C269.39 71.229 270.44 70.1836 271.736 70.1836Z" fill="#EE7D8B"/>
<path d="M198.158 70.1836H199.713L199.713 63.8767C199.713 63.5543 199.976 63.293 200.3 63.293C200.624 63.293 200.886 63.5543 200.886 63.8767L200.886 70.1836H202.441C203.737 70.1836 204.788 71.229 204.788 72.5186L204.788 118.402C204.788 119.692 203.737 120.737 202.441 120.737H200.886L200.886 171.015C200.886 171.338 200.624 171.599 200.3 171.599C199.976 171.599 199.713 171.338 199.713 171.015L199.713 120.737H198.158C196.862 120.737 195.812 119.692 195.812 118.402L195.812 72.5186C195.812 71.229 196.862 70.1836 198.158 70.1836Z" fill="#EE7D8B"/>
<path d="M315.476 47.0755H317.031L317.031 43.8547C317.031 43.5323 317.294 43.271 317.618 43.271C317.942 43.271 318.205 43.5323 318.205 43.8547L318.205 47.0755H319.76C321.056 47.0755 322.106 48.1209 322.106 49.4104L322.106 70.5554C322.106 71.845 321.056 72.8904 319.76 72.8904H318.204L318.204 98.5643C318.204 98.8867 317.941 99.148 317.617 99.148C317.293 99.148 317.031 98.8867 317.031 98.5643L317.031 72.8904H315.476C314.18 72.8904 313.13 71.845 313.13 70.5554L313.13 49.4104C313.13 48.1209 314.18 47.0755 315.476 47.0755Z" fill="#EE7D8B"/>
<path d="M286.365 55.8548H287.92L287.92 30.1931C287.92 29.8707 288.183 29.6094 288.506 29.6094C288.83 29.6094 289.093 29.8707 289.093 30.1931L289.093 55.8548H290.648C291.944 55.8548 292.995 56.9002 292.995 58.1898L292.995 204.316C292.995 205.605 291.944 206.651 290.648 206.651H289.093L289.093 236.416C289.093 236.739 288.83 237 288.506 237C288.183 237 287.92 236.739 287.92 236.416L287.92 206.651H286.365C285.069 206.651 284.018 205.605 284.018 204.316L284.018 58.1898C284.018 56.9002 285.069 55.8548 286.365 55.8548Z" fill="#13C8A4"/>
<rect width="317.933" height="21.0508" transform="matrix(-1 0 0 1 320.933 120.457)" fill="white"/>
<path d="M318.586 131.137L2.99988 131.137" stroke="black" stroke-width="5" stroke-linecap="round" stroke-dasharray="10.2 10.2"/>
<path d="M334.097 99.1967C334.097 98.3269 334.793 97.6218 335.652 97.6218H421.445C422.304 97.6218 423 98.3269 423 99.1967V144.08C423 161.476 409.072 175.577 391.89 175.577H365.207C348.025 175.577 334.097 161.476 334.097 144.08V99.1967Z" fill="#13C8A4"/>
<path d="M329.011 144.064V114.969H371.551C379.589 114.969 386.103 121.483 386.103 129.517C386.103 137.551 379.589 144.064 371.551 144.064H329.011Z" fill="white" stroke="black" stroke-width="3"/>
<path d="M364.143 65.3289C368.576 65.3289 372.169 68.9212 372.169 73.3525L372.169 97.4235C372.169 101.855 368.576 105.447 364.143 105.447C359.711 105.447 356.117 101.855 356.117 97.4235L356.117 73.3525C356.117 68.9212 359.711 65.3289 364.143 65.3289Z" fill="#13C8A4"/>
<path d="M403.656 65.3289C408.088 65.3289 411.682 68.9212 411.682 73.3525L411.682 97.4235C411.682 101.855 408.088 105.447 403.656 105.447C399.223 105.447 395.63 101.855 395.63 97.4235L395.63 73.3525C395.63 68.9212 399.223 65.3289 403.656 65.3289Z" fill="#13C8A4"/>
<path d="M348.091 69.3404C348.091 62.6934 353.481 57.3049 360.13 57.3049H368.156C374.805 57.3049 380.195 62.6934 380.195 69.3404C380.195 75.9875 374.805 81.376 368.156 81.376H360.13C353.481 81.376 348.091 75.9875 348.091 69.3404Z" fill="#EE7D8B"/>
<path d="M387.603 69.3404C387.603 62.6934 392.993 57.3049 399.642 57.3049H407.668C414.317 57.3049 419.707 62.6934 419.707 69.3404C419.707 75.9875 414.317 81.376 407.668 81.376H399.642C392.993 81.376 387.603 75.9875 387.603 69.3404Z" fill="#EE7D8B"/>
<path d="M340.044 134.528C338.1 134.772 336.327 133.394 336.083 131.451C335.839 129.507 337.218 127.735 339.161 127.491C341.105 127.248 342.878 128.625 343.122 130.569C343.366 132.512 341.988 134.284 340.044 134.528Z" fill="black"/>
<path d="M349.444 158.132C341.669 159.887 335.315 159.466 327.992 158.382C325.735 158.132 325.735 154.621 327.992 154.872C336.207 156.791 341.167 156.376 348.692 154.872C350.698 154.371 351.45 157.63 349.444 158.132Z" fill="white"/>
<path d="M175.207 34.0709C169.272 37.69 161.512 35.8194 157.875 29.8928C154.238 23.9661 156.102 16.2278 162.037 12.6087C167.972 8.98954 175.732 10.8602 179.368 16.7868C183.005 22.7134 181.142 30.4518 175.207 34.0709Z" fill="white"/>
<path fill-rule="evenodd" clip-rule="evenodd" d="M178.601 17.2548C175.224 11.7515 168.018 10.0145 162.507 13.3751C156.996 16.7357 155.266 23.9214 158.643 29.4247C162.02 34.928 169.225 36.665 174.736 33.3043C180.247 29.9437 181.978 22.7581 178.601 17.2548ZM161.566 11.8421C167.925 7.96448 176.239 9.96871 180.136 16.3187C184.032 22.6686 182.036 30.9597 175.677 34.8374C169.318 38.715 161.004 36.7108 157.107 30.3608C153.211 24.0108 155.207 15.7197 161.566 11.8421Z" fill="black"/>
<path fill-rule="evenodd" clip-rule="evenodd" d="M169.067 17.7576L169.076 17.7627L169.086 17.7675L171.762 19.1625L171.774 19.1689L171.787 19.1752L172.213 19.3973C173.142 19.8817 173.501 21.0173 173.017 21.9426C172.534 22.8665 171.398 23.2219 170.469 22.7406L170.465 22.7386L170.465 22.7385L166.644 20.747L168.391 17.4061L168.417 17.4197L168.438 17.4301L169.067 17.7576ZM170.394 16.8139L171.801 17.5474L172.386 16.4295C172.574 16.0697 173.006 15.935 173.367 16.1233C173.729 16.3117 173.865 16.7425 173.677 17.1023L173.088 18.2273C174.576 19.1373 175.126 21.0526 174.308 22.6154C173.819 23.5519 172.944 24.1587 171.978 24.3443C172.378 25.2418 172.379 26.3051 171.889 27.2417C171.071 28.8046 169.182 29.4491 167.584 28.7504L167.002 29.8625C166.814 30.2223 166.382 30.357 166.02 30.1686C165.659 29.9802 165.523 29.5495 165.711 29.1897L166.289 28.0847L164.882 27.3513L164.304 28.4565C164.116 28.8163 163.684 28.951 163.322 28.7626C162.961 28.5742 162.825 28.1435 163.013 27.7837L163.591 26.679C163.586 26.6768 163.582 26.6746 163.578 26.6724L161.344 25.5085C160.983 25.3201 160.847 24.8893 161.035 24.5295C161.223 24.1697 161.655 24.035 162.016 24.2234L162.933 24.7011L164.681 21.3593L164.681 21.3593L167.1 16.7333L166.184 16.2557C165.822 16.0673 165.686 15.6366 165.874 15.2768C166.063 14.917 166.495 14.7823 166.856 14.9706L167.773 15.4483L167.773 15.448L169.103 16.1411L169.687 15.0232C169.876 14.6634 170.308 14.5287 170.669 14.717C171.031 14.9054 171.167 15.3362 170.978 15.696L170.394 16.8139ZM168.046 27.3648L167.62 27.143L167.607 27.1359L167.593 27.129L164.224 25.3733L165.972 22.0321L169.793 24.0236L169.793 24.0236C170.723 24.508 171.082 25.6436 170.598 26.5689C170.114 27.4941 168.975 27.8492 168.046 27.3648Z" fill="black"/>
<path d="M267.324 182.345C266.407 187.386 261.556 190.731 256.489 189.815C251.423 188.899 248.06 184.069 248.977 179.027C249.895 173.985 254.746 170.641 259.812 171.557C264.878 172.473 268.242 177.303 267.324 182.345Z" fill="white"/>
<path fill-rule="evenodd" clip-rule="evenodd" d="M259.693 172.209C254.989 171.358 250.484 174.464 249.632 179.145C248.78 183.827 251.904 188.312 256.608 189.163C261.313 190.013 265.817 186.908 266.669 182.226C267.521 177.545 264.398 173.06 259.693 172.209ZM248.322 178.908C249.305 173.507 254.502 169.923 259.931 170.905C265.359 171.886 268.962 177.061 267.979 182.463C266.996 187.865 261.799 191.448 256.371 190.467C250.942 189.485 247.339 184.31 248.322 178.908Z" fill="black"/>
<path fill-rule="evenodd" clip-rule="evenodd" d="M255.282 177.696L255.29 177.693L255.297 177.691L257.385 176.906L257.395 176.902L257.404 176.898L257.737 176.773C258.462 176.501 259.266 176.862 259.54 177.583C259.813 178.303 259.451 179.102 258.728 179.376L258.725 179.377L258.725 179.377L255.744 180.498L254.756 177.894L254.776 177.887L254.792 177.88L255.282 177.696ZM255.413 176.503L256.511 176.09L256.18 175.219C256.074 174.938 256.212 174.635 256.494 174.529C256.776 174.423 257.081 174.56 257.187 174.84L257.52 175.717C258.755 175.347 260.085 175.987 260.547 177.204C260.824 177.934 260.729 178.713 260.357 179.336C261.05 179.557 261.638 180.08 261.916 180.809C262.378 182.027 261.805 183.383 260.633 183.918L260.962 184.784C261.068 185.065 260.93 185.368 260.648 185.474C260.366 185.58 260.061 185.443 259.955 185.163L259.628 184.302L258.53 184.714L258.857 185.576C258.963 185.856 258.825 186.16 258.543 186.266C258.261 186.372 257.956 186.235 257.85 185.954L257.523 185.093C257.52 185.095 257.516 185.096 257.513 185.097L255.771 185.752C255.489 185.858 255.184 185.721 255.077 185.441C254.971 185.16 255.109 184.857 255.391 184.751L256.106 184.482L255.117 181.878L255.117 181.878L253.749 178.273L253.034 178.542C252.752 178.648 252.447 178.511 252.34 178.23C252.234 177.95 252.372 177.646 252.654 177.54L253.369 177.272L253.369 177.271L254.406 176.881L254.075 176.01C253.969 175.73 254.107 175.426 254.389 175.32C254.671 175.214 254.976 175.351 255.082 175.631L255.413 176.503ZM260.093 182.982L259.762 183.107L259.751 183.111L259.741 183.115L257.113 184.103L256.124 181.499L259.105 180.378L259.105 180.378C259.83 180.106 260.635 180.467 260.908 181.188C261.182 181.909 260.819 182.71 260.093 182.982Z" fill="black"/>
<path d="M84.9639 23.9944C80.8941 27.1964 74.9864 26.4977 71.7688 22.4337C68.5511 18.3698 69.242 12.4795 73.3118 9.2775C77.3817 6.07548 83.2893 6.77423 86.507 10.8382C89.7246 14.9022 89.0338 20.7924 84.9639 23.9944Z" fill="white"/>
<path fill-rule="evenodd" clip-rule="evenodd" d="M85.9805 11.2523C82.9927 7.47867 77.507 6.82984 73.7278 9.80314C69.9487 12.7764 69.3072 18.2459 72.295 22.0196C75.2828 25.7933 80.7685 26.4421 84.5477 23.4688C88.3268 20.4955 88.9683 15.026 85.9805 11.2523ZM72.8956 8.75193C77.2561 5.3212 83.5857 6.06985 87.0332 10.4241C90.4807 14.7783 89.7405 21.0893 85.3799 24.52C81.0194 27.9508 74.6898 27.2021 71.2423 22.8479C67.7948 18.4936 68.535 12.1827 72.8956 8.75193Z" fill="black"/>
<path fill-rule="evenodd" clip-rule="evenodd" d="M78.9708 12.4669L78.9783 12.4698L78.9858 12.4726L81.0903 13.2683L81.0998 13.272L81.1094 13.2755L81.4446 13.4023C82.1754 13.6786 82.5419 14.4871 82.2661 15.2144C81.9906 15.9407 81.1816 16.304 80.4516 16.03L80.4486 16.0288L80.4485 16.0288L77.444 14.8927L78.44 12.2665L78.4604 12.2742L78.4767 12.2801L78.9708 12.4669ZM79.8689 11.6514L80.9755 12.0698L81.3087 11.191C81.416 10.9082 81.7236 10.7704 82.0078 10.8778C82.292 10.9853 82.431 11.292 82.3238 11.5748L81.9884 12.4592C83.17 13.0011 83.747 14.3697 83.2811 15.5982C83.0019 16.3344 82.4087 16.8606 81.7102 17.0833C82.0858 17.7121 82.1812 18.4987 81.902 19.235C81.436 20.4636 80.0956 21.1073 78.8507 20.7315L78.5192 21.6057C78.4119 21.8886 78.1043 22.0264 77.8201 21.9189C77.5359 21.8115 77.3969 21.5048 77.5041 21.2219L77.8336 20.3533L76.7272 19.9349L76.3977 20.8037C76.2904 21.0866 75.9828 21.2244 75.6986 21.1169C75.4144 21.0095 75.2754 20.7028 75.3827 20.4199L75.712 19.5515C75.7086 19.5503 75.7053 19.5491 75.7019 19.5478L73.9459 18.8839C73.6617 18.7764 73.5227 18.4697 73.6299 18.1869C73.7372 17.904 74.0448 17.7662 74.329 17.8737L75.0497 18.1462L76.046 15.5192L76.0459 15.5191L77.425 11.8827L76.7044 11.6102C76.4202 11.5028 76.2812 11.1961 76.3885 10.9132C76.4957 10.6304 76.8033 10.4926 77.0875 10.6L77.8081 10.8725L77.8082 10.8723L78.8539 11.2677L79.1872 10.3888C79.2945 10.106 79.6021 9.96817 79.8863 10.0756C80.1705 10.1831 80.3095 10.4898 80.2022 10.7726L79.8689 11.6514ZM79.0694 19.6655L78.7348 19.539L78.7242 19.5349L78.7136 19.531L76.0649 18.5295L77.061 15.903L80.0654 17.039L80.0655 17.039C80.7963 17.3153 81.1628 18.1238 80.887 18.8512C80.6111 19.5785 79.8002 19.9418 79.0694 19.6655Z" fill="black"/>
<path d="M154.629 176.801C151.615 183.748 143.512 186.94 136.53 183.93C129.549 180.92 126.333 172.848 129.347 165.901C132.362 158.953 140.465 155.761 147.446 158.771C154.428 161.781 157.644 169.853 154.629 176.801Z" fill="white"/>
<path fill-rule="evenodd" clip-rule="evenodd" d="M147.056 159.67C140.573 156.875 133.049 159.839 130.25 166.29C127.451 172.742 130.437 180.237 136.92 183.032C143.403 185.827 150.927 182.863 153.726 176.412C156.525 169.96 153.539 162.465 147.056 159.67ZM128.444 165.512C131.674 158.068 140.356 154.648 147.836 157.873C155.316 161.098 158.762 169.746 155.532 177.19C152.303 184.634 143.621 188.054 136.14 184.829C128.66 181.604 125.215 172.955 128.444 165.512Z" fill="black"/>
<path fill-rule="evenodd" clip-rule="evenodd" d="M138.866 166.091L138.878 166.09L138.889 166.088L142.157 165.656L142.172 165.654L142.187 165.652L142.707 165.583C143.842 165.433 144.878 166.221 145.03 167.35C145.181 168.477 144.392 169.506 143.259 169.659L143.255 169.659L143.255 169.659L138.589 170.276L138.042 166.2L138.074 166.196L138.099 166.193L138.866 166.091ZM139.456 164.418L141.174 164.19L140.991 162.827C140.932 162.388 141.232 161.997 141.674 161.938C142.115 161.88 142.508 162.179 142.567 162.618L142.751 163.991C144.652 163.871 146.35 165.235 146.606 167.142C146.759 168.284 146.362 169.374 145.616 170.145C146.539 170.695 147.21 171.643 147.364 172.786C147.62 174.692 146.34 176.451 144.473 176.829L144.656 178.185C144.714 178.624 144.414 179.015 143.973 179.074C143.531 179.132 143.138 178.833 143.079 178.394L142.898 177.046L141.18 177.273L141.361 178.621C141.42 179.06 141.12 179.451 140.679 179.509C140.237 179.568 139.844 179.269 139.785 178.83L139.604 177.482C139.599 177.483 139.594 177.484 139.589 177.484L136.862 177.845C136.421 177.903 136.028 177.604 135.969 177.165C135.91 176.726 136.21 176.336 136.652 176.277L137.771 176.129L137.224 172.052L137.223 172.052L136.466 166.409L135.347 166.557C134.906 166.615 134.513 166.316 134.454 165.877C134.395 165.438 134.696 165.047 135.137 164.989L136.256 164.841L136.256 164.841L137.879 164.626L137.696 163.262C137.638 162.823 137.938 162.432 138.379 162.374C138.821 162.316 139.214 162.615 139.273 163.054L139.456 164.418ZM144.012 175.303L143.493 175.372L143.476 175.374L143.46 175.376L139.347 175.92L138.8 171.844L143.465 171.227L143.465 171.227C144.6 171.077 145.636 171.865 145.788 172.994C145.939 174.123 145.147 175.153 144.012 175.303Z" fill="black"/>
</svg>
