<svg width="105" height="145" viewBox="0 0 105 145" fill="none" xmlns="http://www.w3.org/2000/svg">
<path d="M77.0611 40.7464L77.1064 40.5902C77.1976 40.0189 77.429 39.5926 77.8004 39.3116C78.1851 39.0326 78.5783 38.8708 78.98 38.8263C79.3818 38.7817 79.762 38.6587 80.1207 38.4574C80.4927 38.2581 80.7126 37.9459 80.7805 37.5207C80.8505 37.0823 80.7785 36.7232 80.5646 36.4436C80.364 36.1661 80.0182 35.988 79.5273 35.9093C79.0364 35.8305 78.6589 35.8517 78.3946 35.9728C78.1457 36.0828 77.982 36.2132 77.9035 36.3642L77.8056 36.5937C77.6311 36.9201 77.4493 37.1634 77.2604 37.3239C77.0737 37.4711 76.8542 37.5245 76.6022 37.484C76.3501 37.4436 76.0311 37.3106 75.6453 37.0852C74.898 36.6519 74.5605 36.2093 74.6326 35.7576C74.6644 35.5583 74.736 35.3654 74.8474 35.1788C74.961 34.979 75.0549 34.8169 75.1292 34.6926C75.2056 34.5549 75.3841 34.3315 75.6648 34.0222C75.9587 33.7151 76.2718 33.4587 76.604 33.253C76.9516 33.0363 77.4143 32.8652 77.9922 32.7399C78.5722 32.6013 79.1939 32.5852 79.8573 32.6916C81.2636 32.9173 82.3391 33.5532 83.0838 34.5993C83.8285 35.6454 84.1054 36.7664 83.9145 37.9623C83.8233 38.5336 83.6323 39.0481 83.3415 39.5056C83.0662 39.952 82.7603 40.2913 82.4239 40.5235C81.751 40.9879 81.1477 41.2727 80.6138 41.3778L80.2795 41.4264C80.2434 41.6522 80.2026 41.8228 80.157 41.9382C80.1246 42.0556 80.0437 42.1789 79.9142 42.308C79.8002 42.426 79.6184 42.499 79.369 42.5272C79.135 42.5441 78.8256 42.5217 78.4408 42.46C78.0561 42.3983 77.7496 42.315 77.5214 42.2103C77.3064 42.1077 77.1653 41.9692 77.0978 41.7948C77.0304 41.6205 76.993 41.4714 76.9855 41.3476C76.9935 41.2126 77.0187 41.0122 77.0611 40.7464ZM76.412 44.3012C76.5521 44.1057 76.7622 43.9827 77.0424 43.9322C77.3359 43.8839 77.7745 43.9066 78.3582 44.0003C78.942 44.0939 79.3387 44.2939 79.5484 44.6C79.7734 44.8951 79.8266 45.4146 79.7078 46.1587C79.6229 46.6902 79.493 47.0781 79.3179 47.3226C79.1449 47.5538 78.9117 47.6935 78.6182 47.7418C78.3402 47.7789 77.9159 47.7518 77.3454 47.6602C76.7749 47.5687 76.3593 47.3589 76.0987 47.0309C75.9092 46.7689 75.858 46.3655 75.9449 45.8207L75.9958 45.5018C76.0446 45.1962 76.0884 44.9647 76.1271 44.8074C76.1791 44.6522 76.2741 44.4835 76.412 44.3012Z" fill="white"/>
<path d="M81.5775 156.564C84.1443 158.631 85.6508 160.699 86.5436 162.655C86.5994 162.823 86.711 162.991 86.7668 163.158C86.9342 163.549 87.0458 163.941 87.1574 164.332C87.2132 164.499 87.269 164.723 87.3248 164.891C87.7711 166.847 87.7153 168.691 87.6038 170.2C87.3248 174 90.6169 175.956 90.6169 175.956L103.339 151.478C99.4888 148.795 95.8061 146.281 92.8488 143.319C88.6639 147.566 85.1486 151.757 81.5775 156.564Z" fill="#2854C6"/>
<path d="M40.5655 99.1686C40.5655 99.1686 47.2055 96.3742 52.6737 95.6477C52.3389 90.8415 52.2273 87.656 52.2273 87.656L69.8596 88.8296C71.7567 99.7274 72.5379 115.543 80.5728 129.459C84.1997 135.774 90.4491 140.804 96.9775 146.448C93.3506 151.422 87.5476 157.961 83.8649 162.935C82.8048 161.202 67.0697 152.875 59.0347 131.471C59.2579 148.628 59.8717 166.176 59.8717 166.176L39.8959 164.891C39.8959 164.891 37.1618 128.621 40.5655 99.1686Z" fill="white"/>
<path d="M60.3183 166.567V166.12C60.3183 165.952 59.7603 149.969 59.4813 133.706C66.0655 149.578 76.7788 157.793 81.41 161.37C82.4144 162.152 83.3072 162.823 83.4746 163.102L83.8094 163.661L84.2 163.158C85.9297 160.811 88.2174 158.073 90.3936 155.446C92.8487 152.428 95.4154 149.354 97.3684 146.672L97.5916 146.336L97.3126 146.057C96.643 145.498 95.9734 144.883 95.3038 144.325C89.6124 139.407 84.2558 134.768 81.0195 129.179C74.5469 117.946 72.8171 105.484 71.3664 95.4242C71.0316 93.0211 70.6968 90.7298 70.362 88.662L70.3062 88.3267L51.8928 87.0972V87.5442C51.8928 87.6001 52.0044 90.618 52.3391 95.1448C46.9267 95.9272 40.5657 98.6097 40.5099 98.6656L40.2867 98.7774L40.2309 99.0009C36.883 128.118 39.5613 164.388 39.5613 164.779V165.17L60.3183 166.567ZM58.5886 129.068L58.6444 131.471C58.8675 146.895 59.3697 162.823 59.4813 165.729L40.3425 164.499C40.0635 160.643 37.8874 126.944 41.0121 99.5039C42.2397 99.0009 47.9869 96.7096 52.7855 96.0949L53.1761 96.0389L53.1203 95.6477C52.8413 91.9593 52.7297 89.165 52.6739 88.159L69.525 89.2767C69.8598 91.2886 70.1388 93.4123 70.4736 95.7036C71.9243 105.819 73.6541 118.393 80.1825 129.738C83.4746 135.439 88.887 140.133 94.6342 145.107C95.1922 145.61 95.7502 146.113 96.364 146.56C94.4669 149.131 92.0117 152.093 89.6682 154.943C87.6037 157.458 85.4833 160.029 83.7536 162.264C83.363 161.929 82.7492 161.426 81.8564 160.755C77.0578 157.067 65.7307 148.348 59.3139 131.303L58.5886 129.068Z" fill="#2854C6"/>
<path d="M57.7517 128.732C57.8075 128.732 57.8633 128.732 57.9191 128.676C58.1423 128.621 58.2539 128.341 58.1423 128.118C54.1806 117.779 52.674 105.875 52.674 105.763L52.6182 105.428H52.2834C52.2276 105.428 49.1587 105.26 47.0942 104.701C46.871 104.645 46.6478 104.757 46.592 104.981C46.5362 105.204 46.6478 105.428 46.871 105.484C48.6007 105.931 51.0001 106.154 51.8928 106.21C52.1718 108.278 53.7342 119.008 57.3611 128.397C57.4169 128.621 57.5843 128.732 57.7517 128.732Z" fill="#2854C6"/>
<path d="M8.47144 47.8992L8.12363 47.5011C7.77583 47.103 7.97458 46.7048 8.37206 46.3565C9.76327 44.9133 11.1545 44.4655 12.8438 45.0129C13.9866 43.3209 17.7627 46.8044 20.098 49.5414C20.7936 50.3874 21.837 51.3827 22.9797 52.4277C21.837 55.2643 20.8929 58.2004 19.7998 61.0369C19.6508 61.4848 19.452 61.9327 19.2533 62.3308C18.4583 61.1862 17.6136 60.1412 16.7193 59.2454C16.0237 58.5487 15.5268 57.852 15.0797 57.2051C13.6885 56.2098 11.8998 54.0202 11.8998 54.0202C11.4526 54.468 10.7073 54.1695 9.06767 52.8258C7.42803 51.4822 8.17332 50.2381 8.17332 50.2381C7.27898 48.994 8.47144 47.8992 8.47144 47.8992Z" fill="white"/>
<path d="M19.3523 63.0774L19.6007 62.4802C19.7994 62.0323 19.9485 61.5844 20.1473 61.1863C20.6938 59.7929 21.1906 58.3498 21.6875 57.0061C22.1844 55.563 22.7309 54.07 23.3272 52.6269L23.4265 52.3781L23.2278 52.2288C22.085 51.2335 21.0913 50.2382 20.346 49.3425C19.3026 48.0984 15.6755 44.167 13.5887 44.2665C13.2409 44.2665 12.9428 44.4158 12.6944 44.6646C11.005 44.2167 9.51445 44.6646 8.07355 46.1575C7.82512 46.4064 7.12952 47.1031 7.82512 47.8495L7.97419 47.9988C7.5767 48.5462 7.1792 49.442 7.82512 50.3875C7.57669 50.9847 7.62638 52.1292 8.86853 53.2241C10.1604 54.3189 11.1541 54.9658 11.8497 54.6174C12.3465 55.2146 13.6881 56.7076 14.8308 57.5535C15.278 58.2502 15.8246 58.9469 16.4705 59.5939C17.2655 60.3901 18.0107 61.3356 18.9548 62.6295L19.3523 63.0774ZM22.5819 52.5273C22.0353 53.9207 21.5385 55.3142 21.0416 56.7075C20.5447 58.1009 20.0479 59.4943 19.5013 60.8877C19.402 61.1365 19.3026 61.3356 19.2032 61.5844C18.4082 60.4896 17.7126 59.6934 17.017 58.9967C16.3711 58.3498 15.8743 57.7028 15.4271 57.0061L15.3774 56.9564L15.3277 56.9066C13.9862 55.9611 12.2472 53.8212 12.1975 53.8212L11.9491 53.5226L11.6509 53.8212C11.5019 53.9705 11.0547 54.0701 9.3157 52.5771C7.97418 51.4326 8.52072 50.5368 8.52072 50.487L8.66979 50.2382L8.52072 50.0391C7.77543 49.1434 8.66979 48.2476 8.71948 48.1979L8.96791 47.949L8.37167 47.3021C8.2723 47.2026 8.17293 47.1031 8.6201 46.6552C9.96162 45.3115 11.2038 44.9134 12.6944 45.4111L12.9428 45.5106L13.0918 45.2618C13.1912 45.0627 13.39 45.0129 13.5887 44.9632C14.8805 44.9134 17.6133 47.3519 19.7498 49.7903C20.5447 50.5865 21.4888 51.5321 22.5819 52.5273Z" fill="#2854C6"/>
<path d="M21.8871 51.333C24.6198 53.9705 28.8431 58.8474 32.8677 60.4398C37.8859 62.4304 46.73 51.5818 52.9905 52.2288L51.4005 63.1271C51.4005 63.1271 46.1338 74.0254 36.3954 76.1653C26.6569 78.3052 16.7197 61.2361 16.67 61.1863C17.9122 58.3 19.6015 53.3236 21.8871 51.333Z" fill="#EE7D8B"/>
<path d="M34.6556 76.7625C35.2518 76.7625 35.8481 76.7128 36.4443 76.5635C46.2324 74.3738 51.6482 63.4257 51.6979 63.3262L51.7476 63.2267L53.3872 51.9302L52.9897 51.8805C49.8098 51.5819 46.0834 54.0203 42.506 56.3592C38.8292 58.7977 35.3512 61.0371 32.9663 60.0915C29.7864 58.8474 26.5071 55.4635 23.8241 52.7762C23.2278 52.1293 22.6316 51.5819 22.0851 51.0345L21.8366 50.7856L21.5882 50.9847C19.7001 52.6269 18.2592 56.1602 17.0668 58.9967C16.7687 59.6934 16.5202 60.3404 16.2718 60.9375L16.1724 61.1864L16.3712 61.3854C18.0605 64.1722 26.1593 76.7625 34.6556 76.7625ZM51.0023 63.0276C50.6048 63.8239 45.3878 73.7767 36.2952 75.817C27.7493 77.708 18.8555 64.0727 17.0668 61.1366C17.3152 60.5892 17.5636 59.992 17.8121 59.3451C18.9051 56.7076 20.197 53.4232 21.8863 51.8307C22.3335 52.2786 22.8303 52.7762 23.3272 53.2739C26.0102 56.0109 29.3889 59.4446 32.7178 60.7385C35.5003 61.8333 39.1273 59.4446 42.9532 56.9066C46.2324 54.7668 49.6111 52.5274 52.4432 52.5274C52.4929 52.5274 52.4929 52.5274 52.5425 52.5274L51.0023 63.0276Z" fill="#EE7D8B"/>
<path d="M13.1418 45.6598C13.589 46.8541 14.2846 47.7996 15.2783 48.6456C15.3777 48.7452 15.3777 48.8945 15.2783 48.994C14.1852 50.1883 14.2846 51.8305 15.477 52.9253C15.7255 53.1244 15.3777 53.4727 15.1292 53.2737C14.0858 52.3282 13.6387 50.885 14.2349 49.5414C14.2846 49.4916 14.6821 48.8944 14.6324 48.8944C14.5827 48.5959 13.9865 48.148 13.7877 47.8992C13.2909 47.2522 12.8934 46.5555 12.6449 45.7593C12.5456 45.4607 12.9927 45.3612 13.1418 45.6598Z" fill="#2854C6"/>
<path d="M11.9987 48.7452C13.2409 49.2429 13.4396 50.7856 12.3465 51.5818C12.0981 51.7809 11.8497 51.333 12.0981 51.1339C12.8434 50.6363 12.6944 49.5415 11.8497 49.2429C11.6013 49.0936 11.7006 48.6457 11.9987 48.7452Z" fill="#2854C6"/>
<path d="M9.66348 49.8401C10.6075 50.3875 13.0918 51.9302 12.1478 53.3236C11.949 53.5724 11.5515 53.3236 11.7006 53.0748C12.3465 52.0795 10.061 50.6861 9.36536 50.288C9.11693 50.0889 9.36536 49.6908 9.66348 49.8401Z" fill="#2854C6"/>
<path d="M103.688 47.2949L104.036 46.8968C104.384 46.4987 104.185 46.1006 103.788 45.7522C102.396 44.3091 101.005 43.8612 99.3159 44.4086C98.1731 42.7166 94.397 46.2001 92.0617 48.9371C91.3661 49.7831 90.3227 50.7784 89.1799 51.8235C90.3227 54.66 91.2667 57.5961 92.3598 60.4327C92.5089 60.8806 92.7076 61.3284 92.9064 61.7265C93.7014 60.582 94.546 59.5369 95.4404 58.6411C96.136 57.9445 96.6328 57.2478 97.08 56.6008C98.4712 55.6055 100.26 53.4159 100.26 53.4159C100.707 53.8638 101.452 53.5652 103.092 52.2216C104.732 50.878 103.986 49.6338 103.986 49.6338C104.881 48.3897 103.688 47.2949 103.688 47.2949Z" fill="white"/>
<path d="M92.8079 62.4731L92.5595 61.8759C92.3607 61.4281 92.2116 60.9802 92.0129 60.5821C91.4664 59.1887 90.9695 57.7455 90.4727 56.4019C89.9758 54.9587 89.4292 53.4658 88.833 52.0226L88.7336 51.7738L88.9324 51.6245C90.0752 50.6292 91.0689 49.634 91.8142 48.7382C92.8576 47.4941 96.4846 43.5627 98.5715 43.6623C98.9193 43.6623 99.2174 43.8115 99.4658 44.0604C101.155 43.6125 102.646 44.0604 104.087 45.5533C104.335 45.8021 105.031 46.4988 104.335 47.2453L104.186 47.3946C104.583 47.942 104.981 48.8377 104.335 49.7832C104.583 50.3804 104.534 51.525 103.292 52.6198C102 53.7146 101.006 54.3615 100.31 54.0132C99.8136 54.6104 98.4721 56.1033 97.3293 56.9493C96.8821 57.646 96.3356 58.3427 95.6897 58.9896C94.8947 59.7858 94.1494 60.7314 93.2054 62.0252L92.8079 62.4731ZM89.5783 51.9231C90.1248 53.3165 90.6217 54.7099 91.1186 56.1033C91.6154 57.4967 92.1123 58.8901 92.6588 60.2835C92.7582 60.5323 92.8576 60.7314 92.9569 60.9802C93.7519 59.8854 94.4475 59.0891 95.1431 58.3924C95.789 57.7455 96.2859 57.0986 96.7331 56.4019L96.7828 56.3521L96.8324 56.3023C98.174 55.3568 99.913 53.217 99.9627 53.217L100.211 52.9184L100.509 53.217C100.658 53.3663 101.105 53.4658 102.844 51.9729C104.186 50.8283 103.639 49.9325 103.639 49.8828L103.49 49.634L103.639 49.4349C104.385 48.5391 103.49 47.6434 103.441 47.5936L103.192 47.3448L103.788 46.6979C103.888 46.5983 103.987 46.4988 103.54 46.0509C102.199 44.7073 100.956 44.3092 99.4658 44.8068L99.2174 44.9064L99.0683 44.6575C98.9689 44.4585 98.7702 44.4087 98.5715 44.3589C97.2796 44.3092 94.5469 46.7476 92.4104 49.1861C91.6154 49.9823 90.6714 50.9278 89.5783 51.9231Z" fill="#2854C6"/>
<path d="M90.2731 50.7288C87.5404 53.3663 83.3171 58.2431 79.2925 59.8356C74.2742 61.8262 65.4301 50.9776 59.1697 51.6245L60.7596 62.5228C60.7596 62.5228 66.0263 73.4212 75.7648 75.5611C85.5032 77.7009 95.4404 60.6318 95.4901 60.5821C94.248 57.6957 92.5586 52.7193 90.2731 50.7288Z" fill="#EE7D8B"/>
<path d="M77.5046 76.1583C76.9083 76.1583 76.3121 76.1085 75.7159 75.9592C65.9277 73.7696 60.512 62.8215 60.4623 62.722L60.4126 62.6224L58.7729 51.326L59.1704 51.2762C62.3503 50.9776 66.0768 53.4161 69.6542 55.755C73.3309 58.1934 76.809 60.4328 79.1939 59.4873C82.3738 58.2432 85.6531 54.8592 88.3361 52.172C88.9323 51.525 89.5286 50.9776 90.0751 50.4302L90.3235 50.1814L90.572 50.3805C92.46 52.0227 93.9009 55.5559 95.0934 58.3925C95.3915 59.0892 95.6399 59.7361 95.8884 60.3333L95.9877 60.5821L95.789 60.7812C94.0997 63.5679 86.0009 76.1583 77.5046 76.1583ZM61.1579 62.4234C61.5554 63.2196 66.7724 73.1724 75.8649 75.2128C84.4109 77.1038 93.3047 63.4684 95.0934 60.5323C94.845 59.9849 94.5965 59.3878 94.3481 58.7408C93.255 56.1033 91.9632 52.8189 90.2738 51.2265C89.8267 51.6743 89.3298 52.172 88.833 52.6696C86.1499 55.4066 82.7713 58.8404 79.4423 60.1342C76.6599 61.229 73.0328 58.8404 69.207 56.3024C65.9277 54.1625 62.5491 51.9231 59.717 51.9231C59.6673 51.9231 59.6673 51.9231 59.6176 51.9231L61.1579 62.4234Z" fill="#EE7D8B"/>
<path d="M99.0186 45.0555C98.5714 46.2499 97.8758 47.1954 96.8821 48.0414C96.7827 48.1409 96.7827 48.2902 96.8821 48.3897C97.9752 49.5841 97.8758 51.2263 96.6834 52.3211C96.4349 52.5201 96.7827 52.8685 97.0312 52.6694C98.0746 51.7239 98.5217 50.2808 97.9255 48.9371C97.8758 48.8874 97.4783 48.2902 97.528 48.2902C97.5777 47.9916 98.1739 47.5437 98.3727 47.2949C98.8695 46.648 99.267 45.9513 99.5155 45.1551C99.6148 44.8565 99.1677 44.7569 99.0186 45.0555Z" fill="#2854C6"/>
<path d="M100.161 48.141C98.9193 48.6386 98.7205 50.1813 99.8136 50.9776C100.062 51.1766 100.31 50.7287 100.062 50.5297C99.3167 50.032 99.4658 48.9372 100.31 48.6386C100.559 48.4893 100.46 48.0415 100.161 48.141Z" fill="#2854C6"/>
<path d="M102.497 49.2356C101.553 49.783 99.0683 51.3257 100.012 52.7191C100.211 52.968 100.609 52.7191 100.46 52.4703C99.8136 51.475 102.099 50.0816 102.795 49.6835C103.043 49.4844 102.795 49.0863 102.497 49.2356Z" fill="#2854C6"/>
<path d="M57.8153 48.75L58.7639 51.1531L48.218 52.3826L47.7159 47.4646L57.8153 48.75Z" fill="#EE7D8B"/>
<path d="M49.5572 51.4882C55.4718 46.9055 67.6358 54.8414 69.5888 61.6036C71.5417 68.3658 73.8853 101.171 73.8853 101.171L38.007 100.668C38.007 100.668 40.9085 65.2362 45.0933 59.2564C49.2224 53.2207 47.5485 52.9971 49.5572 51.4882Z" fill="#EE7D8B"/>
<path d="M41.6894 70.5452C41.8568 70.5452 42.08 70.4334 42.08 70.2099C42.08 70.154 42.8054 66.8567 44.312 61.7152C44.3678 61.4916 44.2562 61.2681 44.033 61.2122C43.8098 61.1564 43.5866 61.2681 43.5308 61.4917C41.9684 66.6891 41.2988 69.9864 41.2988 70.0422C41.243 70.2658 41.4104 70.4893 41.6336 70.5452H41.6894Z" fill="white"/>
<path d="M44.5617 43.0713C44.4636 38.584 47.6562 34.8767 51.6621 34.816C55.6681 34.7554 59.0365 38.2931 59.1346 42.7803C59.1346 42.7803 59.1346 42.7803 59.1588 42.8308C59.5846 42.8126 59.9842 42.8692 60.2827 42.9743C62.6251 43.5884 63.2624 45.829 61.9854 47.312C60.8619 48.5969 58.845 49.4415 56.9328 48.5586C55.6074 49.9405 53.8648 50.8396 52.0342 51.0356C46.3668 51.6457 44.6598 47.5585 44.5617 43.0713Z" fill="white"/>
<path d="M60.6068 48.8441C61.2631 48.5289 61.8468 48.0622 62.2812 47.543C62.9461 46.7268 63.1631 45.753 62.8796 44.7711C62.5477 43.6882 61.6102 42.8962 60.3149 42.5244C60.0405 42.4699 59.7661 42.4153 59.4413 42.385C59.3527 40.2536 58.5113 38.2352 57.1103 36.7341C55.6106 35.1562 53.6479 34.2975 51.6196 34.34C49.5409 34.4067 47.6227 35.3279 46.2426 36.9846C44.8624 38.6413 44.0751 40.7587 44.111 43.0397C44.1802 46.2985 45.0414 48.6179 46.5938 50.0463C47.9003 51.2201 49.7443 51.701 51.9767 51.4363C53.8073 51.2403 55.574 50.3917 56.974 49.0361C58.3176 49.5088 59.5973 49.329 60.6068 48.8441ZM49.1156 35.8532C49.9232 35.4653 50.7529 35.2532 51.6792 35.2431C53.5077 35.1724 55.2464 35.9522 56.5486 37.3765C57.8508 38.8009 58.6439 40.7182 58.7082 42.7992L58.7018 43.175L59.1013 43.2316C59.4767 43.2376 59.8762 43.2942 60.1506 43.3487C61.1472 43.6154 61.863 44.2033 62.074 45.0337C62.2872 45.7388 62.125 46.4379 61.6401 46.9813C60.6944 48.1188 58.853 48.9411 57.0396 48.135L56.7915 48.0057L56.5874 48.2279C55.363 49.5614 53.7214 50.4119 51.9412 50.5837C49.935 50.8019 48.3149 50.3998 47.1556 49.4038C45.7503 48.1532 44.9857 46.0359 44.9122 43.0276C44.8479 40.9466 45.5321 39.003 46.8091 37.52C47.5222 36.8048 48.3079 36.2412 49.1156 35.8532Z" fill="#2854C6"/>
<path d="M50.5786 43.5067C50.2959 43.6323 49.9653 43.5048 49.8402 43.2219C49.715 42.939 49.8428 42.6078 50.1255 42.4823C50.4083 42.3567 50.7389 42.4842 50.864 42.7671C50.9891 43.05 50.8614 43.3812 50.5786 43.5067Z" fill="#2854C6"/>
<path d="M46.3436 45.4934C46.4904 44.2433 46.7865 43.0457 47.2825 41.8764C47.4384 41.5532 47.9612 41.737 47.8053 42.0602C47.3356 43.1548 47.0395 44.3524 46.8685 45.552C46.8379 45.8771 46.3129 45.8186 46.3436 45.4934Z" fill="#2854C6"/>
<path d="M47.9334 37.7719C49.625 38.4504 56.4367 38.5354 55.6712 42.2549C55.5045 43.2039 55.0193 43.7471 55.9134 44.1873C56.8602 44.4781 57.1037 43.4301 57.1037 43.4301C58.2349 43.1979 59.5155 43.0183 60.3129 43.2566C61.878 39.6502 60.4756 36.7222 58.8039 36.3445C58.8039 36.3445 46.8722 29.5897 44.8702 33.8403C43.1514 37.6445 47.9334 37.7719 47.9334 37.7719Z" fill="#2854C6"/>
<path d="M57.239 45.6293C58.0541 44.611 59.5065 44.2831 60.6948 44.8317C61.0166 44.9881 60.8332 45.5136 60.5115 45.3572C59.5464 44.8878 58.3958 45.0698 57.7074 45.9644C57.478 46.2626 57.0598 45.9031 57.239 45.6293Z" fill="#2854C6"/>
<path d="M12.8308 51.2417C13.0821 52.0311 13.9258 52.4673 14.7152 52.216C15.5046 51.9647 15.9408 51.1211 15.6895 50.3317L12.8308 51.2417ZM5.37683 27.8265L12.8308 51.2417L15.6895 50.3317L8.23548 26.9164L5.37683 27.8265Z" fill="#EE7D8B"/>
<path d="M99.0877 50.6099C99.0749 51.4384 98.3932 52.1001 97.565 52.0879C96.7369 52.0757 96.076 51.3941 96.0888 50.5655L99.0877 50.6099ZM99.4685 26.0362L99.0877 50.6099L96.0888 50.5655L96.4695 25.9919L99.4685 26.0362Z" fill="#EE7D8B"/>
<path d="M5.75195 27.9823L0 9.71139C36.2535 -3.29167 72.3681 -2.60794 100.49 8.01971L98.9648 28.0502C71.3173 18.5483 35.5268 19.5236 5.75195 27.9823Z" fill="white"/>
<path d="M12.905 46.0358C12.0918 44.9499 13.3568 44.7915 13.9215 45.0177L15.6155 48.7506C14.599 48.4113 13.7181 47.1217 12.905 46.0358Z" fill="white"/>
<path d="M30.8578 4.14568C30.9361 3.90681 31.1046 3.72042 31.3633 3.5865C31.622 3.45259 31.96 3.35041 32.3775 3.27998C32.7949 3.20954 33.1321 3.19026 33.3891 3.22211C33.6461 3.25397 33.8479 3.31017 33.9947 3.39071C34.1415 3.47125 34.2668 3.60054 34.3708 3.77857C34.4846 4.01512 34.5845 4.3894 34.6707 4.90141L36.7192 17.08C36.7758 17.4164 36.8045 17.6749 36.8052 17.8553C36.8179 18.0186 36.7851 18.2197 36.7068 18.4586C36.5718 18.8875 36.0436 19.1798 35.1225 19.3352C34.1149 19.5052 33.4793 19.3342 33.2155 18.822C33.0873 18.5879 32.9801 18.2148 32.894 17.7028L32.1447 13.2483L26.4233 14.2138L27.1763 18.6902C27.2329 19.0267 27.2615 19.2851 27.2623 19.4655C27.275 19.6288 27.2422 19.8299 27.1639 20.0688C27.0289 20.4978 26.5007 20.79 25.5796 20.9454C24.572 21.1154 23.9364 20.9444 23.6726 20.4323C23.5444 20.1981 23.4372 19.8251 23.3511 19.3131L21.3026 7.13453C21.246 6.79807 21.2114 6.54816 21.1987 6.38482C21.1979 6.20441 21.2367 5.99478 21.3149 5.75592C21.45 5.32694 21.9781 5.03473 22.8993 4.87929C23.9069 4.70928 24.5497 4.87912 24.8279 5.38881C24.9417 5.62536 25.0416 5.99964 25.1278 6.51165L25.8807 10.9881L31.6022 10.0227L30.8455 5.52429C30.7889 5.18783 30.7543 4.93792 30.7416 4.77458C30.7409 4.59417 30.7796 4.38454 30.8578 4.14568Z" fill="#2854C6"/>
<path d="M44.2255 15.0508L51.0809 14.1014C51.4222 14.0542 51.6765 14.0339 51.8437 14.0407C52.0238 14.0307 52.2333 14.069 52.4721 14.1555C52.9011 14.3055 53.1804 14.8501 53.3101 15.7893C53.4519 16.8166 53.2604 17.4563 52.7357 17.7084C52.4956 17.8314 52.1159 17.9288 51.5965 18.0008L42.7824 19.2214C41.7437 19.3653 41.0969 19.1707 40.8418 18.6377C40.7204 18.4152 40.6242 18.0472 40.5533 17.5335L38.8636 5.29445C38.7603 4.54602 38.8314 4.0202 39.0768 3.71701C39.3203 3.39913 39.8352 3.18574 40.6217 3.07683L49.3912 1.86234C49.7325 1.81507 49.9868 1.79482 50.1541 1.80156C50.3342 1.79158 50.5436 1.82987 50.7824 1.91645C51.2114 2.06642 51.4907 2.61101 51.6204 3.55022C51.7622 4.57748 51.5708 5.21718 51.0461 5.46931C50.806 5.5923 50.4262 5.68975 49.9069 5.76168L43.0737 6.70799L43.3807 8.93128L47.7877 8.32095C48.129 8.27369 48.3833 8.25343 48.5506 8.26018C48.7306 8.25019 48.9401 8.28849 49.1789 8.37506C49.6079 8.52503 49.8872 9.06962 50.0169 10.0088C50.1587 11.0361 49.9598 11.6768 49.4203 11.931C49.1802 12.054 48.8004 12.1515 48.2811 12.2234L43.9185 12.8275L44.2255 15.0508Z" fill="#2854C6"/>
<path d="M60.3752 14.8664L66.3579 15.3559C66.8418 15.3955 67.1889 15.4834 67.3993 15.6195C67.6108 15.7408 67.7436 15.9226 67.7976 16.1649C67.8517 16.4071 67.8624 16.7276 67.8299 17.1263C67.7986 17.5102 67.7367 17.8173 67.6441 18.0475C67.5515 18.2778 67.4136 18.43 67.2304 18.5042C66.9398 18.629 66.5525 18.6717 66.0686 18.6321L58.1503 17.9842C57.1238 17.9002 56.5455 17.5705 56.4153 16.995C56.3466 16.7516 56.3333 16.3714 56.3755 15.8546L57.3798 3.54012C57.4075 3.20052 57.4354 2.9501 57.4633 2.78888C57.507 2.61409 57.5966 2.42075 57.732 2.20887C57.9698 1.82699 58.5579 1.67445 59.4964 1.75123C60.5229 1.83522 61.1091 2.15817 61.2552 2.72009C61.308 2.97711 61.3134 3.36401 61.2712 3.88081L60.3752 14.8664Z" fill="#2854C6"/>
<path d="M85.0448 9.14652C85.2018 10.0026 85.1557 10.8964 84.9065 11.8278C84.6574 12.7593 84.2511 13.5564 83.6877 14.2192C83.1282 14.8677 82.5051 15.3378 81.8183 15.6296C80.4231 16.2381 79.1091 16.3769 77.8762 16.046L75.2788 15.349L74.629 17.7778C74.5408 18.1074 74.4599 18.3545 74.3862 18.519C74.3302 18.6729 74.218 18.8424 74.0497 19.0276C73.7522 19.3625 73.1602 19.411 72.2736 19.173C71.3039 18.9128 70.8069 18.4953 70.7825 17.9205C70.7645 17.6545 70.8227 17.2708 70.9568 16.7693L74.1483 4.83995C74.2364 4.51038 74.3085 4.26863 74.3646 4.11473C74.4383 3.95021 74.5593 3.77535 74.7276 3.59014C75.0251 3.25529 75.6171 3.20684 76.5036 3.44477L80.9504 4.63815C82.1695 4.96531 83.2312 5.74171 84.1356 6.96737C84.5848 7.56401 84.8878 8.2904 85.0448 9.14652ZM78.9148 12.2471C79.3304 12.3587 79.7812 12.3107 80.2673 12.1033C80.7533 11.8958 81.0807 11.4769 81.2494 10.8464C81.4181 10.2159 81.3437 9.68909 81.0263 9.26603C80.7128 8.82863 80.3413 8.55231 79.9118 8.43706L77.3144 7.74L76.2966 11.5445L78.9148 12.2471Z" fill="#2854C6"/>
<path d="M98.6261 44.339C96.932 43.9996 96.5932 45.3571 96.2544 45.6965V48.0719C97.9485 47.3932 99.9551 44.6052 98.6261 44.339Z" fill="white"/>
</svg>
