<svg width="24" height="24" viewBox="0 0 24 24" fill="none" xmlns="http://www.w3.org/2000/svg">
<rect x="13.5" y="6" width="10.5" height="12" rx="1" fill="#13C8A4"/>
<rect y="10.5" width="10.5" height="9" rx="1" fill="#13C8A4"/>
<path d="M21.75 19.5L21.75 23C21.75 23.5523 21.3023 24 20.75 24L16.75 24C16.1977 24 15.75 23.5523 15.75 23L15.75 19.5L21.75 19.5Z" fill="#13C8A4"/>
<path d="M20.75 -4.37114e-08C21.3023 -1.95703e-08 21.75 0.447715 21.75 1L21.75 4.5L15.75 4.5L15.75 0.999999C15.75 0.447715 16.1977 -2.42698e-07 16.75 -2.18557e-07L20.75 -4.37114e-08Z" fill="#13C8A4"/>
<path d="M7.25 -4.37114e-08C7.80228 -1.95703e-08 8.25 0.447715 8.25 1L8.25 9L2.25 9L2.25 1C2.25 0.447715 2.69772 -2.42698e-07 3.25 -2.18557e-07L7.25 -4.37114e-08Z" fill="#13C8A4"/>
<path d="M8.25 21L8.25 23C8.25 23.5523 7.80228 24 7.25 24L3.25 24C2.69772 24 2.25 23.5523 2.25 23L2.25 21L8.25 21Z" fill="#13C8A4"/>
</svg>
