<svg width="68" height="68" viewBox="0 0 68 68" fill="none" xmlns="http://www.w3.org/2000/svg"><path d="M67.9378 22.1605c-.0007-.5209-.4237-.9426-.9448-.9419l-66.0494.0898c-.5211.0007-.943.4236-.9423.9446L.038 49.1352C.052 59.5539 8.5125 67.9884 18.9348 67.9743l30.194-.0411c10.4223-.0142 18.8597-8.4717 18.8456-18.8904l-.0366-26.8823z" fill="#EBF5F5"/><path d="M67.9378 22.1605c-.0007-.5209-.4237-.9426-.9448-.9419l-66.0494.0898c-.5211.0007-.943.4236-.9423.9446L.038 49.1352C.052 59.5539 8.5125 67.9884 18.9348 67.9743l30.194-.0411c10.4223-.0142 18.8597-8.4717 18.8456-18.8904l-.0366-26.8823z" fill="#13C8A4"/><path d="M59.4676 38.2069c-.0064-4.6884-3.8136-8.484-8.5036-8.4776l-33.9683.0462c-4.69.0064-8.4869 3.8123-8.4805 8.5007.0064 4.6884 3.8136 8.484 8.5036 8.4776l33.9683-.0462c4.69-.0064 8.4869-3.8123 8.4805-8.5007z" fill="#EBF5F5"/><path d="M50.968 32.6936l-33.9682.0462c-3.0529.0042-5.5238 2.4814-5.5196 5.5324.0041 3.051 2.4817 5.5215 5.5346 5.5173l33.9683-.0462c3.0528-.0041 5.5237-2.4814 5.5195-5.5324-.0041-3.0509-2.4817-5.5215-5.5346-5.5173zm-.0054-3.9643c5.242-.0071 9.4979 4.2352 9.505 9.4762.0071 5.2411-4.2372 9.4949-9.4792 9.5021l-33.9682.0462c-5.242.0071-9.4978-4.2352-9.505-9.4762-.0071-5.241 4.2372-9.4949 9.4792-9.5021l33.9682-.0462z" fill="#EBF5F5"/><path d="M50.968 32.6936l-33.9682.0462c-3.0529.0042-5.5238 2.4814-5.5196 5.5324.0041 3.051 2.4817 5.5215 5.5346 5.5173l33.9683-.0462c3.0528-.0041 5.5237-2.4814 5.5195-5.5324-.0041-3.0509-2.4817-5.5215-5.5346-5.5173zm-.0054-3.9643c5.242-.0071 9.4979 4.2352 9.505 9.4762.0071 5.2411-4.2372 9.4949-9.4792 9.5021l-33.9682.0462c-5.242.0071-9.4978-4.2352-9.505-9.4762-.0071-5.241 4.2372-9.4949 9.4792-9.5021l33.9682-.0462z" stroke="#EBF5F5" stroke-width="2"/><path d="M50.968 32.6936l-33.9682.0462c-3.0529.0042-5.5238 2.4814-5.5196 5.5324.0041 3.051 2.4817 5.5215 5.5346 5.5173l33.9683-.0462c3.0528-.0041 5.5237-2.4814 5.5195-5.5324-.0041-3.0509-2.4817-5.5215-5.5346-5.5173zm-.0054-3.9643c5.242-.0071 9.4979 4.2352 9.505 9.4762.0071 5.2411-4.2372 9.4949-9.4792 9.5021l-33.9682.0462c-5.242.0071-9.4978-4.2352-9.505-9.4762-.0071-5.241 4.2372-9.4949 9.4792-9.5021l33.9682-.0462z" stroke="#13C8A4" stroke-width="2"/><path d="M33.9575 12.774c-2.3451.0032-4.2435 1.9061-4.2403 4.2503l.0058 4.2446c.0032 2.3442 1.9068 4.242 4.2518 4.2388 2.345-.0032 4.2434-1.9061 4.2402-4.2503l-.0057-4.2446c-.0032-2.3442-1.9068-4.242-4.2518-4.2388z" fill="#EBF5F5"/><path d="M33.9575 12.774c-2.3451.0032-4.2435 1.9061-4.2403 4.2503l.0058 4.2446c.0032 2.3442 1.9068 4.242 4.2518 4.2388 2.345-.0032 4.2434-1.9061 4.2402-4.2503l-.0057-4.2446c-.0032-2.3442-1.9068-4.242-4.2518-4.2388z" fill="#13C8A4"/><path d="M55.1776 5.256c-1.7931.0024-3.2441 1.4573-3.2417 3.249l.0174 12.7336c.0024 1.7916 1.4574 3.2426 3.2504 3.2402 1.7931-.0025 3.2441-1.4574 3.2416-3.249L58.428 8.4961c-.0024-1.7916-1.4574-3.2426-3.2504-3.2402z" fill="#EBF5F5"/><path d="M55.1776 5.256c-1.7931.0024-3.2441 1.4573-3.2417 3.249l.0174 12.7336c.0024 1.7916 1.4574 3.2426 3.2504 3.2402 1.7931-.0025 3.2441-1.4574 3.2416-3.249L58.428 8.4961c-.0024-1.7916-1.4574-3.2426-3.2504-3.2402z" stroke="#EBF5F5" stroke-width="2"/><path d="M55.1776 5.256c-1.7931.0024-3.2441 1.4573-3.2417 3.249l.0174 12.7336c.0024 1.7916 1.4574 3.2426 3.2504 3.2402 1.7931-.0025 3.2441-1.4574 3.2416-3.249L58.428 8.4961c-.0024-1.7916-1.4574-3.2426-3.2504-3.2402z" stroke="#13C8A4" stroke-width="2"/><path d="M12.7161 5.3136c-1.793.0024-3.244 1.4573-3.2416 3.249l.0173 12.7336c.0025 1.7916 1.4574 3.2426 3.2505 3.2402 1.793-.0025 3.244-1.4574 3.2416-3.249l-.0173-12.7337c-.0025-1.7916-1.4574-3.2426-3.2505-3.2401z" fill="#EBF5F5"/><path d="M12.7161 5.3136c-1.793.0024-3.244 1.4573-3.2416 3.249l.0173 12.7336c.0025 1.7916 1.4574 3.2426 3.2505 3.2402 1.793-.0025 3.244-1.4574 3.2416-3.249l-.0173-12.7337c-.0025-1.7916-1.4574-3.2426-3.2505-3.2401z" stroke="#EBF5F5" stroke-width="2"/><path d="M12.7161 5.3136c-1.793.0024-3.244 1.4573-3.2416 3.249l.0173 12.7336c.0025 1.7916 1.4574 3.2426 3.2505 3.2402 1.793-.0025 3.244-1.4574 3.2416-3.249l-.0173-12.7337c-.0025-1.7916-1.4574-3.2426-3.2505-3.2401z" stroke="#13C8A4" stroke-width="2"/><path d="M63.6704 6.3669c-.0049-3.5164-2.8603-6.363-6.3778-6.3583l-4.2461.0057c-3.5175.0048-6.3651 2.8591-6.3603 6.3754.0049 3.5164 2.8603 6.363 6.3778 6.3583l4.2461-.0057c3.5175-.0048 6.3651-2.8591 6.3603-6.3754z" fill="#EBF5F5"/><path d="M63.6704 6.3669c-.0049-3.5164-2.8603-6.363-6.3778-6.3583l-4.2461.0057c-3.5175.0048-6.3651 2.8591-6.3603 6.3754.0049 3.5164 2.8603 6.363 6.3778 6.3583l4.2461-.0057c3.5175-.0048 6.3651-2.8591 6.3603-6.3754z" fill="#13C8A4"/><path d="M21.2104 6.425C21.2056 2.9085 18.3501.062 14.8326.0667l-4.246.0057C7.069.0772 4.2214 2.9315 4.2263 6.4478c.0048 3.5164 2.8602 6.3631 6.3778 6.3583l4.246-.0057c3.5175-.0048 6.3651-2.8591 6.3603-6.3754z" fill="#EBF5F5"/><path d="M21.2104 6.425C21.2056 2.9085 18.3501.062 14.8326.0667l-4.246.0057C7.069.0772 4.2214 2.9315 4.2263 6.4478c.0048 3.5164 2.8602 6.3631 6.3778 6.3583l4.246-.0057c3.5175-.0048 6.3651-2.8591 6.3603-6.3754z" fill="#13C8A4"/><path d="M46.3683 40.6029c1.0285.1275 1.9656-.6027 2.0931-1.6308.1275-1.0281-.6029-1.9649-1.6314-2.0924-1.0285-.1274-1.9656.6027-2.0931 1.6308-.1275 1.0282.6029 1.965 1.6314 2.0924z" fill="#EBF5F5"/><path d="M46.3683 40.6029c1.0285.1275 1.9656-.6027 2.0931-1.6308.1275-1.0281-.6029-1.9649-1.6314-2.0924-1.0285-.1274-1.9656.6027-2.0931 1.6308-.1275 1.0282.6029 1.965 1.6314 2.0924z" fill="#13C8A4"/><path d="M20.8917 40.6029c1.0285.1275 1.9656-.6027 2.0932-1.6308.1275-1.0281-.6029-1.9649-1.6314-2.0924-1.0285-.1274-1.9657.6027-2.0932 1.6308-.1275 1.0282.6029 1.965 1.6314 2.0924z" fill="#EBF5F5"/><path d="M20.8917 40.6029c1.0285.1275 1.9656-.6027 2.0932-1.6308.1275-1.0281-.6029-1.9649-1.6314-2.0924-1.0285-.1274-1.9657.6027-2.0932 1.6308-.1275 1.0282.6029 1.965 1.6314 2.0924z" fill="#13C8A4"/><path d="M28.8974 54.0493c4.1144.9229 7.4757.6957 11.349.1172 1.194-.1343 1.1914-1.9912-.0025-1.857-4.3445 1.0213-6.9692.8054-10.9508.0149-1.0619-.2638-1.4576 1.4611-.3957 1.7249z" fill="#EBF5F5"/></svg>