<svg width="91" height="90" viewBox="0 0 91 90" fill="none" xmlns="http://www.w3.org/2000/svg">
<path d="M2.18715 90H88.0328C89.1264 90 90.0012 89.122 90.0012 88.0244V81.1097C90.0012 80.0122 89.1264 79.1341 88.0328 79.1341H85.0801V34.2439C85.0801 30.4025 82.0181 27.3293 78.1906 27.3293H65.1771C64.0835 27.3293 63.2086 28.2073 63.2086 29.3049C63.2086 30.4025 64.0835 31.2805 65.1771 31.2805H78.1906C79.831 31.2805 81.0339 32.5976 81.0339 34.1342V79.0244H74.3631C73.5976 72.6585 68.2391 67.6098 61.6776 67.6098C60.5841 67.6098 59.7092 68.4878 59.7092 69.5854C59.7092 70.6829 60.5841 71.561 61.6776 71.561C66.0519 71.561 69.6607 74.7439 70.3169 78.9146H60.1466C59.4905 72.3293 54.46 66.9512 47.8986 65.9634V48.5122C47.8986 47.4146 47.0237 46.5366 45.9301 46.5366C44.8366 46.5366 43.9617 47.4146 43.9617 48.5122V65.9634C37.1815 66.7317 31.823 72.2195 31.1669 79.0244H20.8873C21.5434 74.8537 25.1522 71.6707 29.5265 71.6707C30.6201 71.6707 31.495 70.7927 31.495 69.6951C31.495 68.5976 30.6201 67.7195 29.5265 67.7195C22.9651 67.7195 17.6066 72.6585 16.8411 79.1341H9.40475V34.2439C9.40475 32.5976 10.717 31.3902 12.248 31.3902H27.0113C28.1049 31.3902 28.9797 30.5122 28.9797 29.4146C28.9797 28.3171 28.1049 27.439 27.0113 27.439H12.248C8.42052 27.439 5.35853 30.5122 5.35853 34.3536V79.0244H1.96844C0.874863 79.0244 0 79.9024 0 81V87.9146C0.218715 89.122 1.09357 90 2.18715 90ZM46.9144 69.9146C51.7261 70.4634 55.5536 74.1951 56.2098 79.0244H35.3225C35.9786 74.0854 40.1342 70.1342 45.1646 69.9146H46.9144ZM4.26495 83.0854H7.65502H83.3304H86.2831V86.0488H4.3743V83.0854H4.26495ZM46.1489 18.5488C42.5401 18.5488 39.6968 21.5122 39.6968 25.0244C39.6968 28.6463 42.6494 31.5 46.1489 31.5C49.6483 31.5 52.601 28.5366 52.601 25.0244C52.601 21.4024 49.6483 18.5488 46.1489 18.5488ZM46.1489 27.5488C44.7272 27.5488 43.6336 26.4512 43.6336 25.0244C43.6336 23.5975 44.7272 22.5 46.1489 22.5C47.5705 22.5 48.6641 23.5975 48.6641 25.0244C48.6641 26.4512 47.4611 27.5488 46.1489 27.5488ZM52.601 64.0975V56.0854C51.5074 56.0854 50.7419 55.2073 50.7419 54.1097C50.7419 53.0122 51.6167 52.1341 52.7103 52.1341H60.4747V49.3902C60.4747 48.622 60.256 47.8537 59.8185 47.1951L56.2098 41.4878C55.4443 40.2805 55.0068 38.7439 55.0068 37.3171V18.439C55.0068 16.5732 54.3507 14.8171 53.1477 13.5L45.9301 5.15855L38.8219 13.5C37.619 14.8171 36.9628 16.5732 36.9628 18.439V37.2073C36.9628 38.8536 36.5254 40.3902 35.5412 41.7073L31.6043 47.3049C31.1669 47.9634 30.8388 48.8415 30.8388 49.6098V52.1341H38.7126C39.8061 52.1341 40.681 53.0122 40.681 54.1097C40.681 55.2073 39.8061 56.0854 38.7126 56.0854H38.4938V64.0975C38.4938 65.1951 37.619 66.0732 36.5254 66.0732C35.4318 66.0732 34.557 65.1951 34.557 64.0975V56.0854H28.9797C27.8862 56.0854 27.0113 55.2073 27.0113 54.1097V49.5C27.0113 47.8537 27.5581 46.2073 28.4329 44.8902L32.3698 39.2927C32.8073 38.6341 33.026 37.8658 33.026 37.0975V18.3293C33.026 15.5854 34.0102 12.9512 35.7599 10.7561L44.3991 0.658543C44.7272 0.219519 45.3834 0 45.9301 0C46.4769 0 47.0237 0.219519 47.4612 0.658543L56.2098 10.7561C58.0688 12.8414 59.053 15.5854 59.053 18.3293V37.3171C59.053 38.0854 59.2718 38.7439 59.5998 39.4024L63.2086 45.1098C64.0835 46.4268 64.4116 47.9634 64.4116 49.5V54.2195C64.4116 55.3171 63.5367 56.1951 62.4431 56.1951H56.6472V64.2073C56.6472 65.3049 55.7723 66.1829 54.6787 66.1829C53.5852 66.1829 52.601 65.1951 52.601 64.0975Z" fill="black"/>
<path fill-rule="evenodd" clip-rule="evenodd" d="M84.9001 79.3142V34.2439C84.9001 30.5012 81.9181 27.5093 78.1906 27.5093H65.1771C64.1835 27.5093 63.3886 28.3061 63.3886 29.3049C63.3886 30.3037 64.1835 31.1005 65.1771 31.1005H78.1906C79.9355 31.1005 81.2139 32.5033 81.2139 34.1342V79.2044H74.2034L74.1844 79.0459C73.4292 72.766 68.1435 67.7898 61.6776 67.7898C60.6841 67.7898 59.8892 68.5866 59.8892 69.5854C59.8892 70.5841 60.6841 71.381 61.6776 71.381C66.1415 71.381 69.8249 74.6293 70.4947 78.8867L70.5274 79.0946H59.9837L59.9675 78.9325C59.3194 72.4277 54.3505 67.1168 47.8718 66.1414L47.7186 66.1183V48.5122C47.7186 47.5134 46.9237 46.7166 45.9301 46.7166C44.9366 46.7166 44.1417 47.5134 44.1417 48.5122V66.1242L43.982 66.1423C37.287 66.9009 31.9941 72.3207 31.3461 79.0417L31.3304 79.2044H20.6768L20.7095 78.9964C21.3792 74.7391 25.0626 71.4907 29.5265 71.4907C30.5201 71.4907 31.315 70.6939 31.315 69.6951C31.315 68.6964 30.5201 67.8995 29.5265 67.8995C23.0594 67.8995 17.775 72.7672 17.0198 79.1553L17.001 79.3142H9.22475V34.2439C9.22475 32.4943 10.6215 31.2102 12.248 31.2102H27.0113C28.0048 31.2102 28.7997 30.4134 28.7997 29.4146C28.7997 28.4159 28.0048 27.619 27.0113 27.619H12.248C8.52055 27.619 5.53853 30.611 5.53853 34.3536V79.2044H1.96844C0.974891 79.2044 0.180002 80.0012 0.180002 81V87.8982C0.392058 89.035 1.20699 89.82 2.18715 89.82H88.0328C89.0263 89.82 89.8212 89.0232 89.8212 88.0244V81.1097C89.8212 80.111 89.0263 79.3142 88.0328 79.3142H84.9001ZM0 87.9146V81C0 79.9024 0.874863 79.0244 1.96844 79.0244H5.35853V34.3536C5.35853 30.5122 8.42052 27.439 12.248 27.439H27.0113C28.1049 27.439 28.9797 28.3171 28.9797 29.4146C28.9797 30.5122 28.1049 31.3902 27.0113 31.3902H12.248C10.717 31.3902 9.40475 32.5976 9.40475 34.2439V79.1341H16.8411C17.6066 72.6585 22.9651 67.7195 29.5265 67.7195C30.6201 67.7195 31.495 68.5976 31.495 69.6951C31.495 70.7927 30.6201 71.6707 29.5265 71.6707C25.2154 71.6707 21.6478 74.7624 20.9175 78.8444C20.9068 78.9042 20.8968 78.9642 20.8873 79.0244H31.1669C31.823 72.2195 37.1815 66.7317 43.9617 65.9634V48.5122C43.9617 47.4146 44.8366 46.5366 45.9301 46.5366C47.0237 46.5366 47.8986 47.4146 47.8986 48.5122V65.9634C54.46 66.9512 59.4905 72.3293 60.1466 78.9146H70.3169C70.3074 78.8544 70.2973 78.7944 70.2866 78.7346C69.5564 74.6527 65.9888 71.561 61.6776 71.561C60.5841 71.561 59.7092 70.6829 59.7092 69.5854C59.7092 68.4878 60.5841 67.6098 61.6776 67.6098C68.2391 67.6098 73.5976 72.6585 74.3631 79.0244H81.0339V34.1342C81.0339 32.5976 79.831 31.2805 78.1906 31.2805H65.1771C64.0835 31.2805 63.2086 30.4025 63.2086 29.3049C63.2086 28.2073 64.0835 27.3293 65.1771 27.3293H78.1906C82.0181 27.3293 85.0801 30.4025 85.0801 34.2439V79.1341H88.0328C89.1264 79.1341 90.0012 80.0122 90.0012 81.1097V88.0244C90.0012 89.122 89.1264 90 88.0328 90H2.18715C1.09357 90 0.218715 89.122 0 87.9146ZM46.9246 69.7346L46.9348 69.7358C51.8283 70.2939 55.7209 74.0892 56.3881 79.0002L56.4159 79.2044H35.117L35.144 79.0007C35.8113 73.9781 40.0362 69.9583 45.1568 69.7348L45.1646 69.7345L46.9246 69.7346ZM86.4631 82.9054V86.2288H4.1943V83.0854H4.26495V82.9054H86.4631ZM52.781 55.9054V64.0975C52.781 65.0963 53.6852 66.0029 54.6787 66.0029C55.6723 66.0029 56.4672 65.2061 56.4672 64.2073V56.0151H62.4431C63.4367 56.0151 64.2316 55.2183 64.2316 54.2195V49.5C64.2316 47.9881 63.9087 46.489 63.0587 45.2094L63.0565 45.206L59.4428 39.4909L59.4387 39.4827C59.1031 38.8091 58.873 38.1224 58.873 37.3171V18.3293C58.873 15.6273 57.9036 12.9266 56.0754 10.8759L56.0737 10.874L47.3293 0.781235C46.9253 0.377888 46.4257 0.180002 45.9301 0.180002C45.4161 0.180002 44.8252 0.389048 44.5433 0.766293L44.5362 0.775819L35.8987 10.8707C34.1735 13.036 33.206 15.6303 33.206 18.3293V37.0975C33.206 37.8997 32.9776 38.7029 32.5198 39.3923L32.5171 39.3963L28.5816 44.9918C27.7254 46.2815 27.1913 47.8928 27.1913 49.5V54.1097C27.1913 55.1085 27.9862 55.9054 28.9797 55.9054H34.737V64.0975C34.737 65.0963 35.5319 65.8932 36.5254 65.8932C37.519 65.8932 38.3138 65.0963 38.3138 64.0975V55.9054H38.7126C39.7061 55.9054 40.501 55.1085 40.501 54.1097C40.501 53.111 39.7061 52.3141 38.7126 52.3141H30.6588V49.6098C30.6588 48.7972 31.0029 47.885 31.4544 47.2053L31.457 47.2013L35.3969 41.5995C36.3547 40.3179 36.7828 38.8206 36.7828 37.2073V18.439C36.7828 16.5321 37.4532 14.7328 38.6869 13.3808L45.9291 4.88225L53.2823 13.3804C54.5163 14.7324 55.1868 16.5319 55.1868 18.439V37.3171C55.1868 38.7104 55.6149 40.2135 56.3618 41.3914L59.9685 47.0955C59.9689 47.0961 59.9692 47.0967 59.9696 47.0973C60.4267 47.7862 60.6547 48.5887 60.6547 49.3902V52.3141H52.7103C51.7168 52.3141 50.9219 53.111 50.9219 54.1097C50.9219 55.1224 51.6207 55.9054 52.601 55.9054H52.781ZM59.8185 47.1951L56.2098 41.4878C55.4443 40.2805 55.0068 38.7439 55.0068 37.3171V18.439C55.0068 16.5732 54.3507 14.8171 53.1477 13.5L45.9301 5.15855L38.8219 13.5C37.619 14.8171 36.9628 16.5732 36.9628 18.439V37.2073C36.9628 38.8536 36.5254 40.3902 35.5412 41.7073L31.6043 47.3049C31.1669 47.9634 30.8388 48.8415 30.8388 49.6098V52.1341H38.7126C39.8061 52.1341 40.681 53.0122 40.681 54.1097C40.681 55.2073 39.8061 56.0854 38.7126 56.0854H38.4938V64.0975C38.4938 65.1951 37.619 66.0732 36.5254 66.0732C35.4318 66.0732 34.557 65.1951 34.557 64.0975V56.0854H28.9797C27.8862 56.0854 27.0113 55.2073 27.0113 54.1097V49.5C27.0113 47.8537 27.5581 46.2073 28.4329 44.8902L32.3698 39.2927C32.8073 38.6341 33.026 37.8658 33.026 37.0975V18.3293C33.026 15.5854 34.0102 12.9512 35.7599 10.7561L44.3991 0.658543C44.7272 0.219519 45.3834 0 45.9301 0C46.4769 0 47.0237 0.219519 47.4612 0.658543L56.2098 10.7561C58.0688 12.8414 59.053 15.5854 59.053 18.3293V37.3171C59.053 38.0854 59.2718 38.7439 59.5998 39.4024L63.2086 45.1098C64.0835 46.4268 64.4116 47.9634 64.4116 49.5V54.2195C64.4116 55.3171 63.5367 56.1951 62.4431 56.1951H56.6472V64.2073C56.6472 65.3049 55.7723 66.1829 54.6787 66.1829C53.5852 66.1829 52.601 65.1951 52.601 64.0975V56.0854C51.5074 56.0854 50.7419 55.2073 50.7419 54.1097C50.7419 53.0122 51.6167 52.1341 52.7103 52.1341H60.4747V49.3902C60.4747 48.6219 60.256 47.8537 59.8185 47.1951ZM35.348 78.8444C36.08 73.9897 40.1955 70.1315 45.1646 69.9146H46.9144C51.6661 70.4566 55.4581 74.1026 56.1838 78.8444C56.1929 78.9042 56.2016 78.9642 56.2098 79.0244H35.3225C35.3305 78.9642 35.339 78.9042 35.348 78.8444ZM46.1489 18.7288C42.6421 18.7288 39.8768 21.609 39.8768 25.0244C39.8768 28.5455 42.7475 31.32 46.1489 31.32C49.5483 31.32 52.421 28.4378 52.421 25.0244C52.421 21.5032 49.5503 18.7288 46.1489 18.7288ZM46.1489 27.7288C44.6272 27.7288 43.4536 26.55 43.4536 25.0244C43.4536 23.4988 44.6272 22.32 46.1489 22.32C47.6705 22.32 48.8441 23.4988 48.8441 25.0244C48.8441 26.555 47.5561 27.7288 46.1489 27.7288ZM4.3743 83.0854V86.0488H86.2831V83.0854H4.3743ZM39.6968 25.0244C39.6968 21.5122 42.5401 18.5488 46.1489 18.5488C49.6483 18.5488 52.601 21.4024 52.601 25.0244C52.601 28.5366 49.6483 31.5 46.1489 31.5C42.6494 31.5 39.6968 28.6463 39.6968 25.0244ZM43.6336 25.0244C43.6336 26.4512 44.7272 27.5488 46.1489 27.5488C47.4611 27.5488 48.6641 26.4512 48.6641 25.0244C48.6641 23.5975 47.5705 22.5 46.1489 22.5C44.7272 22.5 43.6336 23.5975 43.6336 25.0244Z" fill="white"/>
<path d="M30.6736 52.3272H39.0875H60.6794V49.2053C60.6794 49.2053 60.6047 48.5799 60.4973 48.1928C60.2073 47.1474 59.1101 45.7881 59.1101 45.7881C59.0133 45.1149 57.1504 43.2077 55.5512 39.5161C55.2709 38.8692 55.1869 37.5473 55.1869 37.5473V19.2096C55.1869 18.7033 55.285 17.5643 54.8926 16.3127C54.62 15.4428 54.2243 14.4796 53.5755 13.7111C51.8661 11.6861 45.9357 4.87268 45.9357 4.87268L38.7653 13.2892C38.7653 13.2892 37.3781 14.808 37.0278 16.3408C36.9684 16.6009 36.8246 16.9298 36.7896 18.0424L36.8036 37.3926C36.8036 37.3926 36.7896 38.7286 36.2992 39.9521C36.0471 40.8099 32.7964 45.2115 31.7314 46.8147C30.6735 48.0381 30.6736 49.4444 30.6736 49.4444V52.3272Z" fill="#13C8A4"/>
<path d="M44.1458 50.359C44.1458 49.3723 44.9456 48.5725 45.9323 48.5725C46.9189 48.5725 47.7188 49.3723 47.7188 50.359V53.4517C47.7188 54.4384 46.9189 55.2382 45.9323 55.2382C44.9456 55.2382 44.1458 54.4384 44.1458 53.4517V50.359Z" fill="black"/>
<path d="M52.1745 25.2002C52.1745 28.6797 49.3641 31.5003 45.8973 31.5003C42.4305 31.5003 39.6201 28.6797 39.6201 25.2002C39.6201 21.7208 42.4305 18.9001 45.8973 18.9001C49.3641 18.9001 52.1745 21.7208 52.1745 25.2002Z" fill="white"/>
<path fill-rule="evenodd" clip-rule="evenodd" d="M45.8973 28.3503C47.6136 28.3503 49.0245 26.9508 49.0245 25.2002C49.0245 23.4497 47.6136 22.0502 45.8973 22.0502C44.181 22.0502 42.7702 23.4497 42.7702 25.2002C42.7702 26.9508 44.181 28.3503 45.8973 28.3503ZM45.8973 31.5003C49.3641 31.5003 52.1745 28.6797 52.1745 25.2002C52.1745 21.7208 49.3641 18.9001 45.8973 18.9001C42.4305 18.9001 39.6201 21.7208 39.6201 25.2002C39.6201 28.6797 42.4305 31.5003 45.8973 31.5003Z" fill="black"/>
</svg>
