<svg width="475" height="248" viewBox="0 0 475 248" fill="none" xmlns="http://www.w3.org/2000/svg">
<mask id="mask0" mask-type="alpha" maskUnits="userSpaceOnUse" x="0" y="0" width="475" height="248">
<path d="M0 0H475V248H0V0Z" fill="#C4C4C4"/>
</mask>
<g mask="url(#mask0)">
<path fill-rule="evenodd" clip-rule="evenodd" d="M475 43.9565H-126V42.9565H475V43.9565Z" fill="#E1E1E1"/>
<path fill-rule="evenodd" clip-rule="evenodd" d="M475 86.9131H-126V85.9131H475V86.9131Z" fill="#E1E1E1"/>
<path fill-rule="evenodd" clip-rule="evenodd" d="M475 129.87H-126V128.87H475V129.87Z" fill="#E1E1E1"/>
<path fill-rule="evenodd" clip-rule="evenodd" d="M475 172.826H-126V171.826H475V172.826Z" fill="#E1E1E1"/>
<path fill-rule="evenodd" clip-rule="evenodd" d="M475 215.783H-126V214.783H475V215.783Z" fill="#E1E1E1"/>
<path fill-rule="evenodd" clip-rule="evenodd" d="M12.6924 248L12.6924 1L13.6924 1L13.6924 248L12.6924 248Z" fill="#E1E1E1"/>
<path fill-rule="evenodd" clip-rule="evenodd" d="M58.9232 248L58.9232 1L59.9232 1L59.9232 248L58.9232 248Z" fill="#E1E1E1"/>
<path fill-rule="evenodd" clip-rule="evenodd" d="M105.154 248L105.154 1L106.154 1L106.154 248L105.154 248Z" fill="#E1E1E1"/>
<path fill-rule="evenodd" clip-rule="evenodd" d="M151.385 248L151.385 1L152.385 1L152.385 248L151.385 248Z" fill="#E1E1E1"/>
<path fill-rule="evenodd" clip-rule="evenodd" d="M197.615 248L197.615 1L198.615 1L198.615 248L197.615 248Z" fill="#E1E1E1"/>
<path fill-rule="evenodd" clip-rule="evenodd" d="M243.846 248L243.846 1L244.846 1L244.846 248L243.846 248Z" fill="#E1E1E1"/>
<path fill-rule="evenodd" clip-rule="evenodd" d="M290.077 248L290.077 1L291.077 1L291.077 248L290.077 248Z" fill="#E1E1E1"/>
<path fill-rule="evenodd" clip-rule="evenodd" d="M336.308 248L336.308 1L337.308 1L337.308 248L336.308 248Z" fill="#E1E1E1"/>
<path fill-rule="evenodd" clip-rule="evenodd" d="M382.538 248L382.538 1L383.538 1L383.538 248L382.538 248Z" fill="#E1E1E1"/>
<path fill-rule="evenodd" clip-rule="evenodd" d="M428.769 248L428.769 1L429.769 1L429.769 248L428.769 248Z" fill="#E1E1E1"/>
<path d="M18.4865 152.554L6 136V172H470V157.874L460.011 164.969L456.515 159.648L449.023 161.422H443.529L439.533 155.51L431.042 157.874H425.548L422.551 155.51L400.075 168.516L391.085 163.195H387.589H384.093L380.596 161.422H368.609L350.629 164.969H346.133H340.639L332.648 163.195L318.663 166.743H313.169L305.677 168.516L299.184 166.743L292.192 168.516L286.698 164.969L281.703 157.874L272.713 152.554L267.219 148.415L261.724 150.189L258.228 152.554H244.743L241.746 148.415H232.256L229.259 145.459H217.272H215.274H209.78H206.784L200.79 140.73L195.296 138.956H183.309L142.853 168.516H135.361H129.367L127.869 164.969L116.881 166.743H111.886L104.893 164.969H101.897L98.4004 166.743L92.9064 164.969L87.9117 157.874H83.916L82.4177 154.327H79.4209V148.415L72.9279 145.459L71.4295 152.554L53.4489 164.969L49.9526 160.239L42.4607 166.743H37.4661L30.4736 160.239L26.4779 154.327L18.4865 152.554Z" fill="url(#paint0_linear)"/>
<path fill-rule="evenodd" clip-rule="evenodd" d="M5.39786 135.202C5.83877 134.869 6.46582 134.957 6.7984 135.398L19.063 151.657L27.0835 153.437L31.2383 159.585L37.8593 165.743H42.0873L50.1139 158.775L53.6775 163.596L70.5335 151.957L72.2072 144.032L80.4209 147.772V153.327H83.0809L84.5792 156.874H88.4307L93.5317 164.12L98.3156 165.664L101.658 163.969H105.018L112.011 165.743H116.8L128.484 163.857L130.03 167.516H142.526L182.983 137.956H195.453L201.268 139.833L207.131 144.459H229.67L232.666 147.415H242.257L245.253 151.554H257.922L261.282 149.281L267.405 147.304L273.27 151.721L282.397 157.123L287.403 164.234L292.368 167.44L299.194 165.708L305.695 167.484L313.052 165.743H318.538L332.633 162.168L340.749 163.969H350.531L368.512 160.422H380.836L384.332 162.195H391.359L400.081 167.357L422.638 154.304L425.895 156.874H430.905L439.958 154.353L444.06 160.422H448.906L456.966 158.514L460.277 163.553L469.421 157.059C469.871 156.739 470.496 156.845 470.815 157.295C471.135 157.746 471.029 158.37 470.579 158.69L459.745 166.385L456.063 160.783L449.139 162.422H442.997L439.108 156.666L431.179 158.874H425.201L422.465 156.715L400.07 169.675L390.811 164.195H383.854L380.357 162.422H368.707L350.726 165.969H340.53L332.664 164.223L318.788 167.743H313.286L305.659 169.548L299.175 167.777L292.015 169.593L285.992 165.704L281.009 158.626L272.155 153.386L267.032 149.526L262.167 151.097L258.535 153.554H244.232L241.236 149.415H231.846L228.849 146.459H206.437L200.312 141.626L195.139 139.956H183.635L143.179 169.516H128.704L127.253 166.081L116.961 167.743H111.761L104.769 165.969H102.136L98.4854 167.821L92.2811 165.818L87.3928 158.874H83.253L81.7546 155.327H78.4209V149.059L73.6486 146.886L72.3256 153.15L53.2204 166.342L49.7915 161.703L42.8342 167.743H37.073L29.7091 160.894L25.8725 155.217L17.9102 153.45L5.20171 136.602C4.86913 136.161 4.95694 135.534 5.39786 135.202Z" fill="#13C8A4"/>
<path fill-rule="evenodd" clip-rule="evenodd" d="M266.71 65.7493C264.815 67.481 263.506 69.2754 263.073 70.9856C262.45 73.4543 260.043 75.2064 257.226 76.4461C254.344 77.7146 250.716 78.5859 247.123 79.1207C243.523 79.6566 239.902 79.8629 237.005 79.7755C235.559 79.7319 234.268 79.6145 233.241 79.4198C232.727 79.3226 232.257 79.2021 231.856 79.0518C231.472 78.9076 231.071 78.7071 230.769 78.4077C230.77 78.4089 230.77 78.4096 230.77 78.4096C230.77 78.4098 230.737 78.3809 230.644 78.3286C230.544 78.2725 230.405 78.2056 230.22 78.1297C229.849 77.9777 229.347 77.8104 228.717 77.6324C227.46 77.277 225.769 76.8991 223.762 76.5213C219.754 75.7665 214.556 75.0248 209.21 74.468C203.863 73.9111 198.391 73.5416 193.83 73.5263C191.548 73.5186 189.512 73.5996 187.843 73.786C186.146 73.9754 184.925 74.2641 184.21 74.6182C182.321 75.5527 178.774 76.4746 174.637 77.3551C170.457 78.2447 165.544 79.1171 160.836 79.9246C159.547 80.1456 158.275 80.3616 157.037 80.5718C153.74 81.1314 150.686 81.6499 148.218 82.1113C146.519 82.4289 145.12 82.7155 144.121 82.9659C143.618 83.0918 143.242 83.2025 142.989 83.2959C142.9 83.3287 142.838 83.355 142.798 83.374C142.518 83.6791 142.143 83.797 141.934 83.8513C141.637 83.9284 141.291 83.9669 140.934 83.9854C140.213 84.0228 139.276 83.9857 138.212 83.9032C136.075 83.7376 133.285 83.3763 130.398 82.9727C129.225 82.8087 128.038 82.638 126.868 82.4697C125.141 82.2214 123.451 81.9784 121.898 81.7701C119.278 81.4187 117.15 81.1812 115.974 81.1812C115.084 81.1812 114.131 80.7981 113.216 80.2797C112.277 79.7472 111.259 79.0022 110.212 78.1324C108.115 76.3914 105.805 74.0723 103.629 71.7322C101.449 69.3874 99.3824 66.999 97.7707 65.1087C97.2908 64.5459 96.8568 64.0339 96.4743 63.5828C95.5452 62.487 94.9203 61.7499 94.6819 61.5141C94.6821 61.5142 94.6818 61.5141 94.6812 61.5136C94.6703 61.5057 94.551 61.4193 94.2158 61.3362C93.8883 61.255 93.45 61.2003 92.9249 61.1897C91.8756 61.1685 90.5825 61.3251 89.332 61.6992C86.7451 62.473 84.8355 63.9856 84.8355 66.2688C84.8355 68.2743 83.3034 69.9658 81.4974 71.3356C79.6303 72.7517 77.1515 74.0608 74.6614 75.2459C73.2696 75.9083 71.7954 76.5672 70.4133 77.1849C69.3727 77.6501 68.3842 78.0918 67.5224 78.4943C66.4826 78.9798 65.5823 79.4271 64.8724 79.8377C64.1368 80.2631 63.7036 80.5949 63.5095 80.8254C62.1999 82.3803 60.3274 82.6359 58.7315 82.4409C57.2466 82.2594 55.8321 81.6768 54.8994 81.155C51.361 80.8 41.9997 79.7495 30.9683 78.1902C19.4524 76.5624 9.0979 69.4067 5.33125 66.0186C4.92064 65.6492 4.88719 65.0169 5.25653 64.6063C5.62588 64.1957 6.25816 64.1623 6.66877 64.5316C10.2672 67.7684 20.2671 74.6576 31.2482 76.2098C42.4831 77.7979 51.9769 78.8562 55.3106 79.1861L55.5316 79.208L55.7226 79.3213C56.4736 79.7672 57.7226 80.3027 58.9741 80.4556C60.2238 80.6084 61.2806 80.3671 61.9797 79.537C62.4133 79.0222 63.11 78.5466 63.8711 78.1064C64.6578 77.6514 65.621 77.1748 66.6762 76.6821C67.6307 76.2364 68.6309 75.79 69.6649 75.3285C70.9964 74.7342 72.3839 74.1149 73.8019 73.44C76.2706 72.2651 78.5937 71.0277 80.2888 69.7421C82.0451 68.4101 82.8355 67.2446 82.8355 66.2688C82.8355 62.5896 85.9475 60.6241 88.7589 59.7831C90.2076 59.3497 91.7077 59.1647 92.9653 59.1901C93.5936 59.2028 94.187 59.2685 94.6971 59.395C95.1784 59.5143 95.7095 59.7172 96.0886 60.0924C96.3936 60.3942 97.1265 61.2587 98.1135 62.423C98.4752 62.8497 98.8711 63.3168 99.2926 63.8111C100.898 65.694 102.943 68.0569 105.094 70.3703C107.249 72.6883 109.49 74.9342 111.489 76.5936C112.489 77.4241 113.406 78.0882 114.203 78.5398C115.024 79.0053 115.608 79.1812 115.974 79.1812C117.309 79.1812 119.575 79.4406 122.164 79.7879C123.722 79.9968 125.433 80.2428 127.17 80.4926C128.34 80.6607 129.521 80.8306 130.675 80.992C133.563 81.3958 136.298 81.7488 138.366 81.9092C139.405 81.9898 140.241 82.0187 140.83 81.9881C141.111 81.9735 141.299 81.947 141.412 81.9203C141.553 81.7799 141.703 81.6916 141.793 81.6425C141.947 81.5575 142.122 81.4841 142.297 81.4194C142.65 81.2892 143.107 81.1582 143.634 81.0259C144.695 80.7601 146.144 80.4644 147.85 80.1454C150.336 79.6806 153.416 79.1578 156.72 78.597C157.954 78.3874 159.22 78.1725 160.498 77.9534C165.205 77.1461 170.084 76.2795 174.221 75.3989C178.401 74.5093 181.697 73.6301 183.323 72.8256C184.365 72.3101 185.875 71.9933 187.621 71.7984C189.394 71.6004 191.512 71.5184 193.836 71.5263C198.487 71.542 204.031 71.9178 209.417 72.4788C214.806 73.04 220.059 73.7889 224.132 74.5558C226.167 74.9389 227.923 75.3295 229.262 75.7078C229.929 75.8966 230.511 76.0874 230.979 76.2794C231.412 76.4569 231.868 76.6823 232.175 76.986C232.175 76.9857 232.199 77.0091 232.268 77.0481C232.335 77.0863 232.43 77.131 232.559 77.1791C232.817 77.2761 233.168 77.3705 233.613 77.4548C234.501 77.6231 235.679 77.7346 237.065 77.7764C239.833 77.8599 243.336 77.6625 246.829 77.1425C250.329 76.6215 253.764 75.7847 256.421 74.6155C259.143 73.4174 260.754 72.002 261.134 70.4957C261.707 68.2309 263.348 66.1125 265.36 64.273C267.391 62.4172 269.896 60.7575 272.363 59.4263C274.829 58.0954 277.297 57.0709 279.27 56.5038C280.251 56.2219 281.153 56.0402 281.892 56.0059C282.26 55.9889 282.633 56.006 282.973 56.0904C283.306 56.1731 283.708 56.3465 283.992 56.7211C284.084 56.8428 284.459 57.1922 285.198 57.7528C285.899 58.2834 286.84 58.9406 287.967 59.6682C290.219 61.1234 293.18 62.8412 296.37 64.3736C299.566 65.9086 302.959 67.2416 306.084 67.9486C309.238 68.6624 311.962 68.7018 313.926 67.8378C318.744 65.7193 323.65 66.2704 327.633 67.2874C329.414 67.7423 331.042 68.2992 332.4 68.7638C332.561 68.8188 332.718 68.8724 332.87 68.9245C333.602 69.1734 334.23 69.3815 334.764 69.5277C335.312 69.6777 335.684 69.7406 335.922 69.7406C336.21 69.7406 336.647 69.8042 337.131 69.8877C337.645 69.9762 338.299 70.1039 339.07 70.2617C340.386 70.5314 342.067 70.8947 344.006 71.3135C344.338 71.3852 344.677 71.4585 345.023 71.5333C349.77 72.558 355.859 73.8591 362.024 74.9737C368.196 76.0897 374.409 77.0124 379.407 77.2884C381.909 77.4266 384.067 77.4001 385.746 77.1682C387.481 76.9284 388.482 76.4966 388.92 76.0235C390.561 74.2525 392.512 73.8088 394.538 74.1234C396.48 74.425 398.517 75.4241 400.493 76.51C401.096 76.8416 401.694 77.1817 402.29 77.5203C403.704 78.3239 405.104 79.1198 406.527 79.7783C408.537 80.7084 410.427 81.2795 412.189 81.1706C414.228 81.0445 416.64 81.0134 419.115 80.9901C419.358 80.9879 419.601 80.9857 419.845 80.9835C422.099 80.963 424.388 80.9423 426.524 80.8589C428.897 80.7662 431.032 80.5974 432.681 80.2785C433.506 80.119 434.172 79.9286 434.671 79.7104C435.184 79.4864 435.426 79.2733 435.526 79.1255C435.82 78.6893 436.266 78.4471 436.671 78.3048C437.085 78.1591 437.564 78.0802 438.064 78.0402C439.066 77.9601 440.331 78.0239 441.731 78.1695C444.54 78.4617 448.096 79.1065 451.602 79.7569C451.882 79.8088 452.161 79.8606 452.439 79.9124C455.678 80.5144 458.827 81.0997 461.338 81.4172C462.704 81.5901 463.835 81.6773 464.667 81.6533C465.085 81.6413 465.385 81.6021 465.585 81.5499C465.67 81.5276 465.719 81.5077 465.742 81.4968C466.522 80.5168 466.958 79.4566 467.366 78.4636C467.413 78.3481 467.46 78.2335 467.507 78.12C467.721 77.6058 467.97 77.0371 468.303 76.6005C468.669 76.1216 469.217 75.7031 470 75.7031C470.552 75.7031 471 76.1508 471 76.7031C471 77.2554 470.552 77.7031 470 77.7031C469.999 77.7031 469.998 77.7031 469.998 77.7031C469.985 77.7122 469.949 77.7412 469.892 77.8149C469.739 78.015 469.579 78.3468 469.354 78.8885C469.31 78.9944 469.264 79.1059 469.217 79.2224C468.811 80.215 468.26 81.5635 467.262 82.7974C466.939 83.1974 466.473 83.3849 466.09 83.4849C465.686 83.5907 465.217 83.6383 464.725 83.6525C463.736 83.681 462.482 83.578 461.087 83.4014C458.515 83.0762 455.309 82.4801 452.089 81.8816C451.805 81.8288 451.521 81.776 451.237 81.7234C447.713 81.0696 444.239 80.4411 441.524 80.1588C440.162 80.0171 439.042 79.9684 438.224 80.0338C437.814 80.0666 437.523 80.125 437.334 80.1917C437.232 80.2274 437.184 80.2567 437.167 80.2683C436.764 80.8521 436.136 81.2528 435.473 81.5428C434.787 81.8428 433.962 82.0678 433.061 82.2421C431.258 82.5909 428.999 82.7637 426.602 82.8574C424.434 82.942 422.114 82.963 419.866 82.9834C419.621 82.9856 419.377 82.9878 419.134 82.9901C416.65 83.0134 414.291 83.0444 412.313 83.1668C410.057 83.3062 407.805 82.5731 405.687 81.5934C404.185 80.898 402.667 80.0354 401.223 79.2148C400.644 78.8862 400.078 78.5643 399.529 78.2626C397.55 77.1746 395.789 76.3416 394.232 76.0997C392.758 75.8709 391.508 76.1724 390.387 77.3827C389.445 78.4002 387.824 78.9 386.019 79.1494C384.158 79.4065 381.855 79.4267 379.296 79.2853C374.172 79.0024 367.863 78.0618 361.668 76.9418C355.467 75.8206 349.348 74.5131 344.601 73.4882C344.253 73.4132 343.913 73.3397 343.581 73.268C341.642 72.8488 339.973 72.4883 338.669 72.2211C337.904 72.0645 337.274 71.9418 336.791 71.8586C336.28 71.7703 336.011 71.7406 335.922 71.7406C335.407 71.7406 334.822 71.6173 334.236 71.4567C333.636 71.2924 332.954 71.0657 332.226 70.8178C332.071 70.765 331.914 70.7112 331.753 70.6564C330.39 70.1902 328.838 69.6592 327.138 69.2252C323.337 68.2547 318.953 67.8121 314.732 69.6685C312.177 70.792 308.937 70.645 305.642 69.8993C302.317 69.1468 298.774 67.7469 295.504 66.1765C292.229 64.6035 289.195 62.8432 286.881 61.3482C285.724 60.6007 284.74 59.9148 283.99 59.3468C283.341 58.855 282.785 58.391 282.478 58.0284C282.391 58.0088 282.232 57.9923 281.985 58.0038C281.466 58.0278 280.733 58.1644 279.822 58.426C278.014 58.9457 275.68 59.9087 273.313 61.1864C270.946 62.4637 268.587 64.0337 266.71 65.7493ZM282.529 58.0431C282.529 58.0432 282.527 58.0426 282.524 58.0413C282.527 58.0424 282.529 58.0431 282.529 58.0431ZM141.497 81.8938C141.498 81.8941 141.492 81.8973 141.476 81.9025C141.489 81.8961 141.497 81.8936 141.497 81.8938ZM142.739 83.4057C142.738 83.4056 142.743 83.4025 142.753 83.3968C142.744 83.4029 142.739 83.4058 142.739 83.4057Z" fill="#EE7D8B"/>
<path d="M29 23.5H5.5V43H470V33L466 37.5L446.5 33L443 30.5H432.5H428.5H423L420.5 23.5L395 37.5L375 33H365.5L345 37.5H335H325H311.5L290.5 33H278L255 37.5L245.5 33H235.5L218.5 30L209 26.5H205V21L192.5 10L170 30L165.5 26.5H157.5L137.5 37.5L133 33H127.5L121 30H110L98.5 37.5H86.5L78.5 30L72.5 37.5L46.5 23.5L37.5 30L29 23.5Z" fill="url(#paint1_linear)"/>
<path fill-rule="evenodd" clip-rule="evenodd" d="M192.497 8.66498L206 20.5479V25.5H209.178L218.762 29.0307L235.588 32H245.725L255.131 36.4554L277.903 32H290.606L311.606 36.5H344.892L365.392 32H375.111L394.85 36.4413L421.047 22.0588L423.705 29.5H443.32L446.919 32.0704L465.647 36.3922L469.253 32.3356C469.62 31.9228 470.252 31.8856 470.664 32.2526C471.077 32.6195 471.114 33.2516 470.747 33.6643L466.353 38.6078L446.081 33.9296L442.68 31.5H422.295L419.953 24.9412L395.15 38.5586L374.889 34H365.608L345.108 38.5H311.394L290.394 34H278.097L254.869 38.5445L245.275 34H235.412L218.238 30.9692L208.822 27.5H204V21.452L192.503 11.335L170.043 31.3L165.157 27.5H157.757L137.324 38.7381L132.586 34H127.28L120.78 31H110.297L98.7973 38.5H86.1046L78.6052 31.4693L72.76 38.7757L46.5776 24.6775L37.483 31.2458L28.6615 24.5H5.5C4.94772 24.5 4.5 24.0523 4.5 23.5C4.5 22.9477 4.94772 22.5 5.5 22.5H29.3385L37.517 28.7541L46.4224 22.3225L72.24 36.2242L78.3948 28.5306L86.8955 36.5H98.2027L109.703 29H121.22L127.72 32H133.414L137.676 36.2619L157.243 25.5H165.843L169.957 28.6999L192.497 8.66498Z" fill="black"/>
<path fill-rule="evenodd" clip-rule="evenodd" d="M7 90C7.55228 90 8 90.4477 8 91L8 105.457C8 106.009 7.55228 106.457 7 106.457C6.44771 106.457 6 106.009 6 105.457L6 91C6 90.4477 6.44772 90 7 90Z" fill="#13C8A4"/>
<path fill-rule="evenodd" clip-rule="evenodd" d="M16.0098 102.343C16.5621 102.343 17.0098 102.791 17.0098 103.343L17.0098 105.457C17.0098 106.009 16.5621 106.457 16.0098 106.457C15.4575 106.457 15.0098 106.009 15.0098 105.457L15.0098 103.343C15.0098 102.791 15.4575 102.343 16.0098 102.343Z" fill="#13C8A4"/>
<path fill-rule="evenodd" clip-rule="evenodd" d="M25.0194 109.543C25.5717 109.543 26.0194 109.991 26.0194 110.543L26.0194 112.657C26.0194 113.209 25.5717 113.657 25.0194 113.657C24.4671 113.657 24.0194 113.209 24.0194 112.657L24.0194 110.543C24.0194 109.991 24.4671 109.543 25.0194 109.543Z" fill="#EE7D8B"/>
<path fill-rule="evenodd" clip-rule="evenodd" d="M34.0292 103.371C34.5815 103.371 35.0292 103.819 35.0292 104.371L35.0292 105.457C35.0292 106.009 34.5815 106.457 34.0292 106.457C33.4769 106.457 33.0292 106.009 33.0292 105.457L33.0292 104.371C33.0292 103.819 33.4769 103.371 34.0292 103.371Z" fill="#13C8A4"/>
<path fill-rule="evenodd" clip-rule="evenodd" d="M43.0388 102.343C43.5911 102.343 44.0388 102.791 44.0388 103.343L44.0388 105.457C44.0388 106.009 43.5911 106.457 43.0388 106.457C42.4865 106.457 42.0388 106.009 42.0388 105.457L42.0388 103.343C42.0388 102.791 42.4865 102.343 43.0388 102.343Z" fill="#13C8A4"/>
<path fill-rule="evenodd" clip-rule="evenodd" d="M52.0486 109.543C52.6009 109.543 53.0486 109.991 53.0486 110.543L53.0486 125C53.0486 125.552 52.6009 126 52.0486 126C51.4963 126 51.0486 125.552 51.0486 125L51.0486 110.543C51.0486 109.991 51.4963 109.543 52.0486 109.543Z" fill="#EE7D8B"/>
<path fill-rule="evenodd" clip-rule="evenodd" d="M61.0582 103.371C61.6105 103.371 62.0582 103.819 62.0582 104.371L62.0582 105.457C62.0582 106.009 61.6105 106.457 61.0582 106.457C60.5059 106.457 60.0582 106.009 60.0582 105.457L60.0582 104.371C60.0582 103.819 60.5059 103.371 61.0582 103.371Z" fill="#13C8A4"/>
<path fill-rule="evenodd" clip-rule="evenodd" d="M70.068 97.2C70.6203 97.2 71.068 97.6477 71.068 98.2L71.068 105.457C71.068 106.009 70.6203 106.457 70.068 106.457C69.5157 106.457 69.068 106.009 69.068 105.457L69.068 98.2C69.068 97.6477 69.5157 97.2 70.068 97.2Z" fill="#13C8A4"/>
<path fill-rule="evenodd" clip-rule="evenodd" d="M79.0776 103.371C79.6299 103.371 80.0776 103.819 80.0776 104.371L80.0776 105.457C80.0776 106.009 79.6299 106.457 79.0776 106.457C78.5254 106.457 78.0776 106.009 78.0776 105.457L78.0776 104.371C78.0776 103.819 78.5254 103.371 79.0776 103.371Z" fill="#13C8A4"/>
<path fill-rule="evenodd" clip-rule="evenodd" d="M88.0874 109.543C88.6397 109.543 89.0874 109.991 89.0874 110.543L89.0874 125C89.0874 125.552 88.6397 126 88.0874 126C87.5351 126 87.0874 125.552 87.0874 125L87.0874 110.543C87.0874 109.991 87.5351 109.543 88.0874 109.543Z" fill="#EE7D8B"/>
<path fill-rule="evenodd" clip-rule="evenodd" d="M97.097 103.371C97.6493 103.371 98.097 103.819 98.097 104.371L98.097 105.457C98.097 106.009 97.6493 106.457 97.097 106.457C96.5448 106.457 96.097 106.009 96.097 105.457L96.097 104.371C96.097 103.819 96.5448 103.371 97.097 103.371Z" fill="#13C8A4"/>
<path fill-rule="evenodd" clip-rule="evenodd" d="M106.107 109.543C106.659 109.543 107.107 109.991 107.107 110.543L107.107 113.686C107.107 114.238 106.659 114.686 106.107 114.686C105.555 114.686 105.107 114.238 105.107 113.686L105.107 110.543C105.107 109.991 105.555 109.543 106.107 109.543Z" fill="#EE7D8B"/>
<path fill-rule="evenodd" clip-rule="evenodd" d="M115.116 102.343C115.669 102.343 116.116 102.791 116.116 103.343L116.116 105.457C116.116 106.009 115.669 106.457 115.116 106.457C114.564 106.457 114.116 106.009 114.116 105.457L114.116 103.343C114.116 102.791 114.564 102.343 115.116 102.343Z" fill="#13C8A4"/>
<path fill-rule="evenodd" clip-rule="evenodd" d="M124.126 100.286C124.679 100.286 125.126 100.733 125.126 101.286L125.126 105.457C125.126 106.009 124.679 106.457 124.126 106.457C123.574 106.457 123.126 106.009 123.126 105.457L123.126 101.286C123.126 100.733 123.574 100.286 124.126 100.286Z" fill="#13C8A4"/>
<path fill-rule="evenodd" clip-rule="evenodd" d="M133.136 109.543C133.688 109.543 134.136 109.991 134.136 110.543L134.136 125C134.136 125.552 133.688 126 133.136 126C132.584 126 132.136 125.552 132.136 125L132.136 110.543C132.136 109.991 132.584 109.543 133.136 109.543Z" fill="#EE7D8B"/>
<path fill-rule="evenodd" clip-rule="evenodd" d="M142.146 103.371C142.698 103.371 143.146 103.819 143.146 104.371L143.146 105.457C143.146 106.009 142.698 106.457 142.146 106.457C141.593 106.457 141.146 106.009 141.146 105.457L141.146 104.371C141.146 103.819 141.593 103.371 142.146 103.371Z" fill="#13C8A4"/>
<path fill-rule="evenodd" clip-rule="evenodd" d="M151.155 100.286C151.708 100.286 152.155 100.733 152.155 101.286L152.155 105.457C152.155 106.009 151.708 106.457 151.155 106.457C150.603 106.457 150.155 106.009 150.155 105.457L150.155 101.286C150.155 100.733 150.603 100.286 151.155 100.286Z" fill="#13C8A4"/>
<path fill-rule="evenodd" clip-rule="evenodd" d="M160.165 103.371C160.717 103.371 161.165 103.819 161.165 104.371L161.165 105.457C161.165 106.009 160.717 106.457 160.165 106.457C159.613 106.457 159.165 106.009 159.165 105.457L159.165 104.371C159.165 103.819 159.613 103.371 160.165 103.371Z" fill="#13C8A4"/>
<path fill-rule="evenodd" clip-rule="evenodd" d="M169.175 109.543C169.727 109.543 170.175 109.991 170.175 110.543L170.175 125C170.175 125.552 169.727 126 169.175 126C168.623 126 168.175 125.552 168.175 125L168.175 110.543C168.175 109.991 168.623 109.543 169.175 109.543Z" fill="#EE7D8B"/>
<path fill-rule="evenodd" clip-rule="evenodd" d="M178.184 90C178.737 90 179.184 90.4477 179.184 91L179.184 105.457C179.184 106.009 178.737 106.457 178.184 106.457C177.632 106.457 177.184 106.009 177.184 105.457L177.184 91C177.184 90.4477 177.632 90 178.184 90Z" fill="#13C8A4"/>
<path fill-rule="evenodd" clip-rule="evenodd" d="M187.194 109.543C187.746 109.543 188.194 109.991 188.194 110.543L188.194 111.629C188.194 112.181 187.746 112.629 187.194 112.629C186.642 112.629 186.194 112.181 186.194 111.629L186.194 110.543C186.194 109.991 186.642 109.543 187.194 109.543Z" fill="#EE7D8B"/>
<path fill-rule="evenodd" clip-rule="evenodd" d="M196.204 102.343C196.756 102.343 197.204 102.791 197.204 103.343L197.204 105.457C197.204 106.009 196.756 106.457 196.204 106.457C195.652 106.457 195.204 106.009 195.204 105.457L195.204 103.343C195.204 102.791 195.652 102.343 196.204 102.343Z" fill="#13C8A4"/>
<path fill-rule="evenodd" clip-rule="evenodd" d="M205.214 90C205.766 90 206.214 90.4477 206.214 91L206.214 105.457C206.214 106.009 205.766 106.457 205.214 106.457C204.661 106.457 204.214 106.009 204.214 105.457L204.214 91C204.214 90.4477 204.661 90 205.214 90Z" fill="#13C8A4"/>
<path fill-rule="evenodd" clip-rule="evenodd" d="M214.223 101.314C214.776 101.314 215.223 101.762 215.223 102.314L215.223 105.457C215.223 106.009 214.776 106.457 214.223 106.457C213.671 106.457 213.223 106.009 213.223 105.457L213.223 102.314C213.223 101.762 213.671 101.314 214.223 101.314Z" fill="#13C8A4"/>
<path fill-rule="evenodd" clip-rule="evenodd" d="M223.233 102.343C223.785 102.343 224.233 102.791 224.233 103.343L224.233 105.457C224.233 106.009 223.785 106.457 223.233 106.457C222.681 106.457 222.233 106.009 222.233 105.457L222.233 103.343C222.233 102.791 222.681 102.343 223.233 102.343Z" fill="#13C8A4"/>
<path fill-rule="evenodd" clip-rule="evenodd" d="M232.243 109.543C232.795 109.543 233.243 109.991 233.243 110.543L233.243 125C233.243 125.552 232.795 126 232.243 126C231.69 126 231.243 125.552 231.243 125L231.243 110.543C231.243 109.991 231.69 109.543 232.243 109.543Z" fill="#EE7D8B"/>
<path fill-rule="evenodd" clip-rule="evenodd" d="M241.252 93.0857C241.805 93.0857 242.252 93.5334 242.252 94.0857L242.252 105.457C242.252 106.009 241.805 106.457 241.252 106.457C240.7 106.457 240.252 106.009 240.252 105.457L240.252 94.0857C240.252 93.5334 240.7 93.0857 241.252 93.0857Z" fill="#13C8A4"/>
<path fill-rule="evenodd" clip-rule="evenodd" d="M250.262 109.543C250.814 109.543 251.262 109.991 251.262 110.543L251.262 119.857C251.262 120.409 250.814 120.857 250.262 120.857C249.71 120.857 249.262 120.409 249.262 119.857L249.262 110.543C249.262 109.991 249.71 109.543 250.262 109.543Z" fill="#EE7D8B"/>
<path fill-rule="evenodd" clip-rule="evenodd" d="M259.272 95.1429C259.824 95.1429 260.272 95.5906 260.272 96.1429L260.272 105.457C260.272 106.009 259.824 106.457 259.272 106.457C258.72 106.457 258.272 106.009 258.272 105.457L258.272 96.1429C258.272 95.5906 258.72 95.1429 259.272 95.1429Z" fill="#13C8A4"/>
<path fill-rule="evenodd" clip-rule="evenodd" d="M268.281 90C268.834 90 269.281 90.4477 269.281 91L269.281 105.457C269.281 106.009 268.834 106.457 268.281 106.457C267.729 106.457 267.281 106.009 267.281 105.457L267.281 91C267.281 90.4477 267.729 90 268.281 90Z" fill="#13C8A4"/>
<path fill-rule="evenodd" clip-rule="evenodd" d="M277.291 109.543C277.844 109.543 278.291 109.991 278.291 110.543L278.291 125C278.291 125.552 277.844 126 277.291 126C276.739 126 276.291 125.552 276.291 125L276.291 110.543C276.291 109.991 276.739 109.543 277.291 109.543Z" fill="#EE7D8B"/>
<path fill-rule="evenodd" clip-rule="evenodd" d="M286.301 109.543C286.853 109.543 287.301 109.991 287.301 110.543L287.301 120.886C287.301 121.438 286.853 121.886 286.301 121.886C285.749 121.886 285.301 121.438 285.301 120.886L285.301 110.543C285.301 109.991 285.749 109.543 286.301 109.543Z" fill="#EE7D8B"/>
<path fill-rule="evenodd" clip-rule="evenodd" d="M295.311 90C295.863 90 296.311 90.4477 296.311 91L296.311 105.457C296.311 106.009 295.863 106.457 295.311 106.457C294.758 106.457 294.311 106.009 294.311 105.457L294.311 91C294.311 90.4477 294.758 90 295.311 90Z" fill="#13C8A4"/>
<path fill-rule="evenodd" clip-rule="evenodd" d="M304.32 100.286C304.873 100.286 305.32 100.733 305.32 101.286L305.32 105.457C305.32 106.009 304.873 106.457 304.32 106.457C303.768 106.457 303.32 106.009 303.32 105.457L303.32 101.286C303.32 100.733 303.768 100.286 304.32 100.286Z" fill="#13C8A4"/>
<path fill-rule="evenodd" clip-rule="evenodd" d="M313.33 101.314C313.882 101.314 314.33 101.762 314.33 102.314L314.33 105.457C314.33 106.009 313.882 106.457 313.33 106.457C312.778 106.457 312.33 106.009 312.33 105.457L312.33 102.314C312.33 101.762 312.778 101.314 313.33 101.314Z" fill="#13C8A4"/>
<path fill-rule="evenodd" clip-rule="evenodd" d="M322.34 109.543C322.892 109.543 323.34 109.991 323.34 110.543L323.34 114.714C323.34 115.267 322.892 115.714 322.34 115.714C321.788 115.714 321.34 115.267 321.34 114.714L321.34 110.543C321.34 109.991 321.788 109.543 322.34 109.543Z" fill="#EE7D8B"/>
<path fill-rule="evenodd" clip-rule="evenodd" d="M331.349 109.543C331.902 109.543 332.349 109.991 332.349 110.543L332.349 125C332.349 125.552 331.902 126 331.349 126C330.797 126 330.349 125.552 330.349 125L330.349 110.543C330.349 109.991 330.797 109.543 331.349 109.543Z" fill="#EE7D8B"/>
<path fill-rule="evenodd" clip-rule="evenodd" d="M340.359 101.314C340.912 101.314 341.359 101.762 341.359 102.314L341.359 105.457C341.359 106.009 340.912 106.457 340.359 106.457C339.807 106.457 339.359 106.009 339.359 105.457L339.359 102.314C339.359 101.762 339.807 101.314 340.359 101.314Z" fill="#13C8A4"/>
<path fill-rule="evenodd" clip-rule="evenodd" d="M349.369 90C349.921 90 350.369 90.4477 350.369 91L350.369 105.457C350.369 106.009 349.921 106.457 349.369 106.457C348.817 106.457 348.369 106.009 348.369 105.457L348.369 91C348.369 90.4477 348.817 90 349.369 90Z" fill="#13C8A4"/>
<path fill-rule="evenodd" clip-rule="evenodd" d="M358.379 109.543C358.931 109.543 359.379 109.991 359.379 110.543L359.379 125C359.379 125.552 358.931 126 358.379 126C357.826 126 357.379 125.552 357.379 125L357.379 110.543C357.379 109.991 357.826 109.543 358.379 109.543Z" fill="#EE7D8B"/>
<path fill-rule="evenodd" clip-rule="evenodd" d="M367.388 103.371C367.941 103.371 368.388 103.819 368.388 104.371L368.388 105.457C368.388 106.009 367.941 106.457 367.388 106.457C366.836 106.457 366.388 106.009 366.388 105.457L366.388 104.371C366.388 103.819 366.836 103.371 367.388 103.371Z" fill="#13C8A4"/>
<path fill-rule="evenodd" clip-rule="evenodd" d="M376.398 103.371C376.95 103.371 377.398 103.819 377.398 104.371L377.398 105.457C377.398 106.009 376.95 106.457 376.398 106.457C375.846 106.457 375.398 106.009 375.398 105.457L375.398 104.371C375.398 103.819 375.846 103.371 376.398 103.371Z" fill="#13C8A4"/>
<path fill-rule="evenodd" clip-rule="evenodd" d="M385.408 109.543C385.96 109.543 386.408 109.991 386.408 110.543L386.408 112.657C386.408 113.209 385.96 113.657 385.408 113.657C384.855 113.657 384.408 113.209 384.408 112.657L384.408 110.543C384.408 109.991 384.855 109.543 385.408 109.543Z" fill="#EE7D8B"/>
<path fill-rule="evenodd" clip-rule="evenodd" d="M394.417 103.371C394.97 103.371 395.417 103.819 395.417 104.371L395.417 105.457C395.417 106.009 394.97 106.457 394.417 106.457C393.865 106.457 393.417 106.009 393.417 105.457L393.417 104.371C393.417 103.819 393.865 103.371 394.417 103.371Z" fill="#13C8A4"/>
<path fill-rule="evenodd" clip-rule="evenodd" d="M403.427 90C403.98 90 404.427 90.4477 404.427 91L404.427 105.457C404.427 106.009 403.98 106.457 403.427 106.457C402.875 106.457 402.427 106.009 402.427 105.457L402.427 91C402.427 90.4477 402.875 90 403.427 90Z" fill="#13C8A4"/>
<path fill-rule="evenodd" clip-rule="evenodd" d="M412.437 90C412.989 90 413.437 90.4477 413.437 91L413.437 105.457C413.437 106.009 412.989 106.457 412.437 106.457C411.885 106.457 411.437 106.009 411.437 105.457L411.437 91C411.437 90.4477 411.885 90 412.437 90Z" fill="#13C8A4"/>
<path fill-rule="evenodd" clip-rule="evenodd" d="M421.447 98.2286C421.999 98.2286 422.447 98.6763 422.447 99.2286L422.447 105.457C422.447 106.009 421.999 106.457 421.447 106.457C420.894 106.457 420.447 106.009 420.447 105.457L420.447 99.2286C420.447 98.6763 420.894 98.2286 421.447 98.2286Z" fill="#13C8A4"/>
<path fill-rule="evenodd" clip-rule="evenodd" d="M430.456 96.1714C431.009 96.1714 431.456 96.6191 431.456 97.1714L431.456 105.457C431.456 106.009 431.009 106.457 430.456 106.457C429.904 106.457 429.456 106.009 429.456 105.457L429.456 97.1714C429.456 96.6191 429.904 96.1714 430.456 96.1714Z" fill="#13C8A4"/>
<path fill-rule="evenodd" clip-rule="evenodd" d="M439.466 109.543C440.018 109.543 440.466 109.991 440.466 110.543L440.466 115.743C440.466 116.295 440.018 116.743 439.466 116.743C438.914 116.743 438.466 116.295 438.466 115.743L438.466 110.543C438.466 109.991 438.914 109.543 439.466 109.543Z" fill="#EE7D8B"/>
<path fill-rule="evenodd" clip-rule="evenodd" d="M448.476 101.314C449.028 101.314 449.476 101.762 449.476 102.314L449.476 105.457C449.476 106.009 449.028 106.457 448.476 106.457C447.923 106.457 447.476 106.009 447.476 105.457L447.476 102.314C447.476 101.762 447.923 101.314 448.476 101.314Z" fill="#13C8A4"/>
<path fill-rule="evenodd" clip-rule="evenodd" d="M457.485 97.2C458.038 97.2 458.485 97.6477 458.485 98.2L458.485 105.457C458.485 106.009 458.038 106.457 457.485 106.457C456.933 106.457 456.485 106.009 456.485 105.457L456.485 98.2C456.485 97.6477 456.933 97.2 457.485 97.2Z" fill="#13C8A4"/>
<path fill-rule="evenodd" clip-rule="evenodd" d="M466.495 109.543C467.047 109.543 467.495 109.991 467.495 110.543L467.495 112.657C467.495 113.209 467.047 113.657 466.495 113.657C465.943 113.657 465.495 113.209 465.495 112.657L465.495 110.543C465.495 109.991 465.943 109.543 466.495 109.543Z" fill="#EE7D8B"/>
<path fill-rule="evenodd" clip-rule="evenodd" d="M11.5049 109.543C12.0572 109.543 12.5049 109.991 12.5049 110.543L12.5049 117.8C12.5049 118.352 12.0572 118.8 11.5049 118.8C10.9526 118.8 10.5049 118.352 10.5049 117.8L10.5049 110.543C10.5049 109.991 10.9526 109.543 11.5049 109.543Z" fill="#EE7D8B"/>
<path fill-rule="evenodd" clip-rule="evenodd" d="M20.5145 109.543C21.0668 109.543 21.5145 109.991 21.5145 110.543L21.5145 122.943C21.5145 123.495 21.0668 123.943 20.5145 123.943C19.9622 123.943 19.5145 123.495 19.5145 122.943L19.5145 110.543C19.5145 109.991 19.9622 109.543 20.5145 109.543Z" fill="#EE7D8B"/>
<path fill-rule="evenodd" clip-rule="evenodd" d="M29.5243 109.543C30.0766 109.543 30.5243 109.991 30.5243 110.543L30.5243 117.8C30.5243 118.352 30.0766 118.8 29.5243 118.8C28.972 118.8 28.5243 118.352 28.5243 117.8L28.5243 110.543C28.5243 109.991 28.972 109.543 29.5243 109.543Z" fill="#EE7D8B"/>
<path fill-rule="evenodd" clip-rule="evenodd" d="M38.5339 97.2C39.0862 97.2 39.5339 97.6477 39.5339 98.2L39.5339 105.457C39.5339 106.009 39.0862 106.457 38.5339 106.457C37.9817 106.457 37.5339 106.009 37.5339 105.457L37.5339 98.2C37.5339 97.6477 37.9817 97.2 38.5339 97.2Z" fill="#13C8A4"/>
<path fill-rule="evenodd" clip-rule="evenodd" d="M47.5437 109.543C48.096 109.543 48.5437 109.991 48.5437 110.543L48.5437 112.657C48.5437 113.209 48.096 113.657 47.5437 113.657C46.9914 113.657 46.5437 113.209 46.5437 112.657L46.5437 110.543C46.5437 109.991 46.9914 109.543 47.5437 109.543Z" fill="#EE7D8B"/>
<path fill-rule="evenodd" clip-rule="evenodd" d="M56.5533 109.543C57.1056 109.543 57.5533 109.991 57.5533 110.543L57.5533 117.8C57.5533 118.352 57.1056 118.8 56.5533 118.8C56.0011 118.8 55.5533 118.352 55.5533 117.8L55.5533 110.543C55.5533 109.991 56.0011 109.543 56.5533 109.543Z" fill="#EE7D8B"/>
<path fill-rule="evenodd" clip-rule="evenodd" d="M65.5631 94.1143C66.1154 94.1143 66.5631 94.562 66.5631 95.1143L66.5631 105.457C66.5631 106.009 66.1154 106.457 65.5631 106.457C65.0108 106.457 64.5631 106.009 64.5631 105.457L64.5631 95.1143C64.5631 94.562 65.0108 94.1143 65.5631 94.1143Z" fill="#13C8A4"/>
<path fill-rule="evenodd" clip-rule="evenodd" d="M74.5728 109.543C75.125 109.543 75.5728 109.991 75.5728 110.543L75.5728 112.657C75.5728 113.209 75.125 113.657 74.5728 113.657C74.0205 113.657 73.5728 113.209 73.5728 112.657L73.5728 110.543C73.5728 109.991 74.0205 109.543 74.5728 109.543Z" fill="#EE7D8B"/>
<path fill-rule="evenodd" clip-rule="evenodd" d="M83.5825 109.543C84.1348 109.543 84.5825 109.991 84.5825 110.543L84.5825 117.8C84.5825 118.352 84.1348 118.8 83.5825 118.8C83.0302 118.8 82.5825 118.352 82.5825 117.8L82.5825 110.543C82.5825 109.991 83.0302 109.543 83.5825 109.543Z" fill="#EE7D8B"/>
<path fill-rule="evenodd" clip-rule="evenodd" d="M92.5923 97.2C93.1446 97.2 93.5923 97.6477 93.5923 98.2L93.5923 105.457C93.5923 106.009 93.1446 106.457 92.5923 106.457C92.04 106.457 91.5923 106.009 91.5923 105.457L91.5923 98.2C91.5923 97.6477 92.04 97.2 92.5923 97.2Z" fill="#13C8A4"/>
<path fill-rule="evenodd" clip-rule="evenodd" d="M101.602 101.314C102.154 101.314 102.602 101.762 102.602 102.314L102.602 105.457C102.602 106.009 102.154 106.457 101.602 106.457C101.05 106.457 100.602 106.009 100.602 105.457L100.602 102.314C100.602 101.762 101.05 101.314 101.602 101.314Z" fill="#13C8A4"/>
<path fill-rule="evenodd" clip-rule="evenodd" d="M110.612 109.543C111.164 109.543 111.612 109.991 111.612 110.543L111.612 117.8C111.612 118.352 111.164 118.8 110.612 118.8C110.059 118.8 109.612 118.352 109.612 117.8L109.612 110.543C109.612 109.991 110.059 109.543 110.612 109.543Z" fill="#EE7D8B"/>
<path fill-rule="evenodd" clip-rule="evenodd" d="M119.621 97.2C120.174 97.2 120.621 97.6477 120.621 98.2L120.621 105.457C120.621 106.009 120.174 106.457 119.621 106.457C119.069 106.457 118.621 106.009 118.621 105.457L118.621 98.2C118.621 97.6477 119.069 97.2 119.621 97.2Z" fill="#13C8A4"/>
<path fill-rule="evenodd" clip-rule="evenodd" d="M128.631 109.543C129.183 109.543 129.631 109.991 129.631 110.543L129.631 113.686C129.631 114.238 129.183 114.686 128.631 114.686C128.079 114.686 127.631 114.238 127.631 113.686L127.631 110.543C127.631 109.991 128.079 109.543 128.631 109.543Z" fill="#EE7D8B"/>
<path fill-rule="evenodd" clip-rule="evenodd" d="M137.641 97.2C138.193 97.2 138.641 97.6477 138.641 98.2L138.641 105.457C138.641 106.009 138.193 106.457 137.641 106.457C137.088 106.457 136.641 106.009 136.641 105.457L136.641 98.2C136.641 97.6477 137.088 97.2 137.641 97.2Z" fill="#13C8A4"/>
<path fill-rule="evenodd" clip-rule="evenodd" d="M146.651 109.543C147.203 109.543 147.651 109.991 147.651 110.543L147.651 113.686C147.651 114.238 147.203 114.686 146.651 114.686C146.098 114.686 145.651 114.238 145.651 113.686L145.651 110.543C145.651 109.991 146.098 109.543 146.651 109.543Z" fill="#EE7D8B"/>
<path fill-rule="evenodd" clip-rule="evenodd" d="M155.66 109.543C156.212 109.543 156.66 109.991 156.66 110.543L156.66 119.857C156.66 120.409 156.212 120.857 155.66 120.857C155.108 120.857 154.66 120.409 154.66 119.857L154.66 110.543C154.66 109.991 155.108 109.543 155.66 109.543Z" fill="#EE7D8B"/>
<path fill-rule="evenodd" clip-rule="evenodd" d="M164.67 109.543C165.222 109.543 165.67 109.991 165.67 110.543L165.67 111.629C165.67 112.181 165.222 112.629 164.67 112.629C164.118 112.629 163.67 112.181 163.67 111.629L163.67 110.543C163.67 109.991 164.118 109.543 164.67 109.543Z" fill="#EE7D8B"/>
<path fill-rule="evenodd" clip-rule="evenodd" d="M173.68 109.543C174.232 109.543 174.68 109.991 174.68 110.543L174.68 117.8C174.68 118.352 174.232 118.8 173.68 118.8C173.127 118.8 172.68 118.352 172.68 117.8L172.68 110.543C172.68 109.991 173.127 109.543 173.68 109.543Z" fill="#EE7D8B"/>
<path fill-rule="evenodd" clip-rule="evenodd" d="M182.689 97.2C183.242 97.2 183.689 97.6477 183.689 98.2L183.689 105.457C183.689 106.009 183.242 106.457 182.689 106.457C182.137 106.457 181.689 106.009 181.689 105.457L181.689 98.2C181.689 97.6477 182.137 97.2 182.689 97.2Z" fill="#13C8A4"/>
<path fill-rule="evenodd" clip-rule="evenodd" d="M191.699 109.543C192.251 109.543 192.699 109.991 192.699 110.543L192.699 112.657C192.699 113.209 192.251 113.657 191.699 113.657C191.147 113.657 190.699 113.209 190.699 112.657L190.699 110.543C190.699 109.991 191.147 109.543 191.699 109.543Z" fill="#EE7D8B"/>
<path fill-rule="evenodd" clip-rule="evenodd" d="M200.709 109.543C201.261 109.543 201.709 109.991 201.709 110.543L201.709 117.8C201.709 118.352 201.261 118.8 200.709 118.8C200.156 118.8 199.709 118.352 199.709 117.8L199.709 110.543C199.709 109.991 200.156 109.543 200.709 109.543Z" fill="#EE7D8B"/>
<path fill-rule="evenodd" clip-rule="evenodd" d="M209.719 97.2C210.271 97.2 210.719 97.6477 210.719 98.2L210.719 105.457C210.719 106.009 210.271 106.457 209.719 106.457C209.166 106.457 208.719 106.009 208.719 105.457L208.719 98.2C208.719 97.6477 209.166 97.2 209.719 97.2Z" fill="#13C8A4"/>
<path fill-rule="evenodd" clip-rule="evenodd" d="M218.728 97.2C219.28 97.2 219.728 97.6477 219.728 98.2L219.728 105.457C219.728 106.009 219.28 106.457 218.728 106.457C218.176 106.457 217.728 106.009 217.728 105.457L217.728 98.2C217.728 97.6477 218.176 97.2 218.728 97.2Z" fill="#13C8A4"/>
<path fill-rule="evenodd" clip-rule="evenodd" d="M227.738 109.543C228.29 109.543 228.738 109.991 228.738 110.543L228.738 113.686C228.738 114.238 228.29 114.686 227.738 114.686C227.186 114.686 226.738 114.238 226.738 113.686L226.738 110.543C226.738 109.991 227.186 109.543 227.738 109.543Z" fill="#EE7D8B"/>
<path fill-rule="evenodd" clip-rule="evenodd" d="M236.748 100.286C237.3 100.286 237.748 100.733 237.748 101.286L237.748 105.457C237.748 106.009 237.3 106.457 236.748 106.457C236.195 106.457 235.748 106.009 235.748 105.457L235.748 101.286C235.748 100.733 236.195 100.286 236.748 100.286Z" fill="#13C8A4"/>
<path fill-rule="evenodd" clip-rule="evenodd" d="M245.757 97.2C246.31 97.2 246.757 97.6477 246.757 98.2L246.757 105.457C246.757 106.009 246.31 106.457 245.757 106.457C245.205 106.457 244.757 106.009 244.757 105.457L244.757 98.2C244.757 97.6477 245.205 97.2 245.757 97.2Z" fill="#13C8A4"/>
<path fill-rule="evenodd" clip-rule="evenodd" d="M254.767 109.543C255.319 109.543 255.767 109.991 255.767 110.543L255.767 113.686C255.767 114.238 255.319 114.686 254.767 114.686C254.215 114.686 253.767 114.238 253.767 113.686L253.767 110.543C253.767 109.991 254.215 109.543 254.767 109.543Z" fill="#EE7D8B"/>
<path fill-rule="evenodd" clip-rule="evenodd" d="M263.777 100.286C264.329 100.286 264.777 100.733 264.777 101.286L264.777 105.457C264.777 106.009 264.329 106.457 263.777 106.457C263.224 106.457 262.777 106.009 262.777 105.457L262.777 101.286C262.777 100.733 263.224 100.286 263.777 100.286Z" fill="#13C8A4"/>
<path fill-rule="evenodd" clip-rule="evenodd" d="M272.786 97.2C273.339 97.2 273.786 97.6477 273.786 98.2L273.786 105.457C273.786 106.009 273.339 106.457 272.786 106.457C272.234 106.457 271.786 106.009 271.786 105.457L271.786 98.2C271.786 97.6477 272.234 97.2 272.786 97.2Z" fill="#13C8A4"/>
<path fill-rule="evenodd" clip-rule="evenodd" d="M281.796 109.543C282.348 109.543 282.796 109.991 282.796 110.543L282.796 113.686C282.796 114.238 282.348 114.686 281.796 114.686C281.244 114.686 280.796 114.238 280.796 113.686L280.796 110.543C280.796 109.991 281.244 109.543 281.796 109.543Z" fill="#EE7D8B"/>
<path fill-rule="evenodd" clip-rule="evenodd" d="M290.806 109.543C291.358 109.543 291.806 109.991 291.806 110.543L291.806 117.8C291.806 118.352 291.358 118.8 290.806 118.8C290.254 118.8 289.806 118.352 289.806 117.8L289.806 110.543C289.806 109.991 290.254 109.543 290.806 109.543Z" fill="#EE7D8B"/>
<path fill-rule="evenodd" clip-rule="evenodd" d="M299.816 94.1143C300.368 94.1143 300.816 94.562 300.816 95.1143L300.816 105.457C300.816 106.009 300.368 106.457 299.816 106.457C299.263 106.457 298.816 106.009 298.816 105.457L298.816 95.1143C298.816 94.562 299.263 94.1143 299.816 94.1143Z" fill="#13C8A4"/>
<path fill-rule="evenodd" clip-rule="evenodd" d="M308.825 97.2C309.377 97.2 309.825 97.6477 309.825 98.2L309.825 105.457C309.825 106.009 309.377 106.457 308.825 106.457C308.273 106.457 307.825 106.009 307.825 105.457L307.825 98.2C307.825 97.6477 308.273 97.2 308.825 97.2Z" fill="#13C8A4"/>
<path fill-rule="evenodd" clip-rule="evenodd" d="M317.835 109.543C318.387 109.543 318.835 109.991 318.835 110.543L318.835 117.8C318.835 118.352 318.387 118.8 317.835 118.8C317.283 118.8 316.835 118.352 316.835 117.8L316.835 110.543C316.835 109.991 317.283 109.543 317.835 109.543Z" fill="#EE7D8B"/>
<path fill-rule="evenodd" clip-rule="evenodd" d="M326.845 109.543C327.397 109.543 327.845 109.991 327.845 110.543L327.845 120.886C327.845 121.438 327.397 121.886 326.845 121.886C326.292 121.886 325.845 121.438 325.845 120.886L325.845 110.543C325.845 109.991 326.292 109.543 326.845 109.543Z" fill="#EE7D8B"/>
<path fill-rule="evenodd" clip-rule="evenodd" d="M335.854 97.2C336.407 97.2 336.854 97.6477 336.854 98.2L336.854 105.457C336.854 106.009 336.407 106.457 335.854 106.457C335.302 106.457 334.854 106.009 334.854 105.457L334.854 98.2C334.854 97.6477 335.302 97.2 335.854 97.2Z" fill="#13C8A4"/>
<path fill-rule="evenodd" clip-rule="evenodd" d="M344.864 97.2C345.416 97.2 345.864 97.6477 345.864 98.2L345.864 105.457C345.864 106.009 345.416 106.457 344.864 106.457C344.312 106.457 343.864 106.009 343.864 105.457L343.864 98.2C343.864 97.6477 344.312 97.2 344.864 97.2Z" fill="#13C8A4"/>
<path fill-rule="evenodd" clip-rule="evenodd" d="M353.874 109.543C354.426 109.543 354.874 109.991 354.874 110.543L354.874 117.8C354.874 118.352 354.426 118.8 353.874 118.8C353.321 118.8 352.874 118.352 352.874 117.8L352.874 110.543C352.874 109.991 353.321 109.543 353.874 109.543Z" fill="#EE7D8B"/>
<path fill-rule="evenodd" clip-rule="evenodd" d="M362.884 109.543C363.436 109.543 363.884 109.991 363.884 110.543L363.884 111.629C363.884 112.181 363.436 112.629 362.884 112.629C362.331 112.629 361.884 112.181 361.884 111.629L361.884 110.543C361.884 109.991 362.331 109.543 362.884 109.543Z" fill="#EE7D8B"/>
<path fill-rule="evenodd" clip-rule="evenodd" d="M371.893 97.2C372.445 97.2 372.893 97.6477 372.893 98.2L372.893 105.457C372.893 106.009 372.445 106.457 371.893 106.457C371.341 106.457 370.893 106.009 370.893 105.457L370.893 98.2C370.893 97.6477 371.341 97.2 371.893 97.2Z" fill="#13C8A4"/>
<path fill-rule="evenodd" clip-rule="evenodd" d="M380.903 109.543C381.455 109.543 381.903 109.991 381.903 110.543L381.903 112.657C381.903 113.209 381.455 113.657 380.903 113.657C380.351 113.657 379.903 113.209 379.903 112.657L379.903 110.543C379.903 109.991 380.351 109.543 380.903 109.543Z" fill="#EE7D8B"/>
<path fill-rule="evenodd" clip-rule="evenodd" d="M389.913 109.543C390.465 109.543 390.913 109.991 390.913 110.543L390.913 117.8C390.913 118.352 390.465 118.8 389.913 118.8C389.36 118.8 388.913 118.352 388.913 117.8L388.913 110.543C388.913 109.991 389.36 109.543 389.913 109.543Z" fill="#EE7D8B"/>
<path fill-rule="evenodd" clip-rule="evenodd" d="M398.922 102.343C399.475 102.343 399.922 102.791 399.922 103.343L399.922 105.457C399.922 106.009 399.475 106.457 398.922 106.457C398.37 106.457 397.922 106.009 397.922 105.457L397.922 103.343C397.922 102.791 398.37 102.343 398.922 102.343Z" fill="#13C8A4"/>
<path fill-rule="evenodd" clip-rule="evenodd" d="M407.932 102.343C408.484 102.343 408.932 102.791 408.932 103.343L408.932 105.457C408.932 106.009 408.484 106.457 407.932 106.457C407.38 106.457 406.932 106.009 406.932 105.457L406.932 103.343C406.932 102.791 407.38 102.343 407.932 102.343Z" fill="#13C8A4"/>
<path fill-rule="evenodd" clip-rule="evenodd" d="M416.942 97.2C417.494 97.2 417.942 97.6477 417.942 98.2L417.942 105.457C417.942 106.009 417.494 106.457 416.942 106.457C416.389 106.457 415.942 106.009 415.942 105.457L415.942 98.2C415.942 97.6477 416.389 97.2 416.942 97.2Z" fill="#13C8A4"/>
<path fill-rule="evenodd" clip-rule="evenodd" d="M425.951 101.314C426.504 101.314 426.951 101.762 426.951 102.314L426.951 105.457C426.951 106.009 426.504 106.457 425.951 106.457C425.399 106.457 424.951 106.009 424.951 105.457L424.951 102.314C424.951 101.762 425.399 101.314 425.951 101.314Z" fill="#13C8A4"/>
<path fill-rule="evenodd" clip-rule="evenodd" d="M434.961 109.543C435.513 109.543 435.961 109.991 435.961 110.543L435.961 111.629C435.961 112.181 435.513 112.629 434.961 112.629C434.409 112.629 433.961 112.181 433.961 111.629L433.961 110.543C433.961 109.991 434.409 109.543 434.961 109.543Z" fill="#EE7D8B"/>
<path fill-rule="evenodd" clip-rule="evenodd" d="M443.971 109.543C444.523 109.543 444.971 109.991 444.971 110.543L444.971 111.629C444.971 112.181 444.523 112.629 443.971 112.629C443.419 112.629 442.971 112.181 442.971 111.629L442.971 110.543C442.971 109.991 443.419 109.543 443.971 109.543Z" fill="#EE7D8B"/>
<path fill-rule="evenodd" clip-rule="evenodd" d="M452.981 94.1143C453.533 94.1143 453.981 94.562 453.981 95.1143L453.981 105.457C453.981 106.009 453.533 106.457 452.981 106.457C452.428 106.457 451.981 106.009 451.981 105.457L451.981 95.1143C451.981 94.562 452.428 94.1143 452.981 94.1143Z" fill="#13C8A4"/>
<path fill-rule="evenodd" clip-rule="evenodd" d="M461.99 101.314C462.543 101.314 462.99 101.762 462.99 102.314L462.99 105.457C462.99 106.009 462.543 106.457 461.99 106.457C461.438 106.457 460.99 106.009 460.99 105.457L460.99 102.314C460.99 101.762 461.438 101.314 461.99 101.314Z" fill="#13C8A4"/>
<path fill-rule="evenodd" clip-rule="evenodd" d="M471 109.543C471.552 109.543 472 109.991 472 110.543L472 114.714C472 115.267 471.552 115.714 471 115.714C470.448 115.714 470 115.267 470 114.714L470 110.543C470 109.991 470.448 109.543 471 109.543Z" fill="#EE7D8B"/>
<path d="M88.8666 171.313C68.7934 154.546 47.7755 151.712 38.3293 173.911C38.3293 173.911 14.7138 174.856 24.8685 193.276C24.8685 193.276 8.80987 208.154 35.0232 220.198C61.0003 232.478 86.5051 195.401 86.5051 195.401L88.8666 171.313Z" fill="#EE7D8B"/>
<path d="M105.634 226.81C102.564 226.81 99.2577 226.338 95.7153 225.157C88.6307 223.032 82.4906 218.308 78.2398 211.696L77.5314 210.751L76.3506 210.988C75.1698 211.224 73.989 211.46 72.8083 211.46C66.1959 211.46 60.7643 206.973 58.1666 202.722C56.5135 199.888 56.5135 196.582 58.1666 193.984C60.0558 190.678 63.8343 188.789 68.7936 188.789C69.7382 188.789 70.919 188.789 71.8636 189.025L73.5167 189.261L73.7529 187.608V187.372C77.059 172.022 89.3391 160.923 103.272 160.923C105.162 160.923 106.815 161.159 108.704 161.395C120.276 163.757 129.249 174.384 130.903 187.372C131.375 191.151 131.139 195.165 130.43 199.18C128.305 209.098 124.762 216.419 119.803 221.142C116.261 225.157 111.302 226.81 105.634 226.81Z" fill="white"/>
<path d="M103.744 163.048C105.397 163.048 107.05 163.284 108.704 163.52C119.567 165.882 128.068 175.564 129.485 187.844C129.958 191.387 129.721 195.165 129.013 198.943C126.888 208.626 123.581 215.71 119.094 219.961C115.552 223.267 111.065 224.921 105.87 224.921C103.036 224.921 99.7297 224.448 96.4235 223.504C89.8111 221.378 83.9073 216.891 79.8926 210.987L78.4757 208.862L76.1141 209.334C75.1695 209.57 73.9887 209.807 73.0441 209.807C67.1402 209.807 62.1809 205.792 60.0555 202.014C58.6386 199.652 58.6386 197.054 60.0555 194.929C61.7086 192.095 65.0148 190.678 69.0294 190.678C69.9741 190.678 70.9187 190.678 71.8633 190.914L75.1695 191.387L75.8779 188.08V187.844C78.7118 173.439 90.5196 163.048 103.744 163.048ZM103.744 159.505C89.1027 159.505 75.8779 170.841 72.3356 187.372V187.608C71.1548 187.372 69.9741 187.372 69.0294 187.372C57.9301 187.372 52.7347 196.582 56.9855 203.903C60.0555 209.098 66.1956 213.585 73.0441 213.585C74.2248 213.585 75.6418 213.349 77.0587 213.113C81.3095 219.961 87.9219 224.921 95.4789 227.282C99.2573 228.463 102.8 228.935 105.87 228.935C112.482 228.935 117.441 226.574 121.456 223.031C127.124 217.6 130.666 209.334 132.555 200.124C133.5 195.873 133.5 191.859 133.028 187.844C131.375 174.383 122.401 163.048 109.412 160.45C107.523 159.505 105.634 159.505 103.744 159.505Z" fill="#EE7D8B"/>
<path d="M130.43 178.398C127.124 169.188 119.095 162.103 109.176 159.978C92.6452 156.436 73.5166 166.827 71.6273 190.914C95.7152 194.929 116.025 190.442 130.43 178.398Z" fill="#EE7D8B"/>
<path d="M110.518 196.289C111.258 195.214 110.986 193.744 109.912 193.004C108.838 192.265 107.367 192.536 106.628 193.61C105.888 194.685 106.159 196.155 107.234 196.895C108.308 197.634 109.778 197.363 110.518 196.289Z" fill="black"/>
<path d="M77.7674 200.833C75.1697 195.873 69.502 193.512 64.0704 194.929C62.6534 195.401 63.1258 197.763 64.5427 197.29C68.7935 196.11 73.5166 197.763 75.642 201.777C76.3505 202.958 78.4759 202.013 77.7674 200.833Z" fill="black"/>
<path d="M123.345 208.154C123.817 202.958 123.345 197.527 122.164 192.331C121.928 190.914 119.567 191.387 119.803 192.804C120.983 197.763 121.22 202.722 120.983 207.918C120.747 209.571 123.109 209.807 123.345 208.154Z" fill="black"/>
<path d="M127.001 198.546C121.883 193.339 121.644 190.444 126.625 185.358L299.771 165.418C302.587 165.094 305.39 166.266 306.985 168.609C318.533 185.579 317.806 198.144 308.461 215.335C306.954 218.107 303.865 219.603 300.731 219.23L127.001 198.546Z" fill="black"/>
<path fill-rule="evenodd" clip-rule="evenodd" d="M299.714 164.921C302.7 164.577 305.691 165.819 307.398 168.328C313.207 176.864 315.963 184.343 316.058 191.883C316.153 199.416 313.592 206.943 308.9 215.574C307.29 218.536 303.997 220.123 300.672 219.727L126.768 199.022L126.645 198.897C124.082 196.29 122.611 194.144 122.526 191.926C122.441 189.692 123.765 187.564 126.268 185.009L126.392 184.882L299.714 164.921ZM306.571 168.89C305.09 166.713 302.474 165.61 299.829 165.914L126.859 185.835C124.47 188.301 123.458 190.13 123.526 191.888C123.593 193.662 124.763 195.534 127.235 198.071L300.79 218.734C303.732 219.084 306.618 217.678 308.021 215.096C312.675 206.536 315.15 199.185 315.058 191.896C314.966 184.613 312.31 177.324 306.571 168.89Z" fill="black"/>
<path d="M108.21 203.499C103.552 198.05 103.407 195.095 108.21 190.062L270.863 174.8C273.607 174.543 276.313 175.716 277.925 177.951C292.593 198.286 292.737 210.184 278.131 227.18C276.39 229.206 273.69 230.117 271.052 229.693L108.21 203.499Z" fill="black"/>
<path fill-rule="evenodd" clip-rule="evenodd" d="M270.816 174.302C273.729 174.029 276.61 175.274 278.331 177.658C285.681 187.848 289.461 196.013 289.506 203.815C289.551 211.633 285.845 218.971 278.511 227.506C276.649 229.672 273.771 230.637 270.972 230.187L108.131 203.993C108.014 203.974 107.907 203.914 107.83 203.824C105.494 201.091 104.182 198.87 104.162 196.629C104.142 194.373 105.429 192.251 107.848 189.717C107.932 189.63 108.043 189.576 108.163 189.564L270.816 174.302ZM277.52 178.243C276.015 176.158 273.484 175.056 270.91 175.298L108.444 190.543C106.15 192.973 105.146 194.811 105.162 196.62C105.178 198.444 106.231 200.389 108.471 203.035L271.131 229.199C273.608 229.598 276.131 228.74 277.752 226.854C285.023 218.393 288.549 211.284 288.506 203.82C288.463 196.34 284.838 188.389 277.52 178.243Z" fill="white"/>
<path d="M335 190.999C335 190.677 335.007 190.44 335.022 190.286C335.05 190.119 335.115 189.93 335.216 189.72C335.417 189.357 335.979 189.176 336.9 189.176C337.591 189.176 338.081 189.294 338.369 189.532C338.613 189.727 338.743 190.028 338.757 190.433C338.772 190.573 338.779 190.775 338.779 191.041V198.375C338.779 198.696 338.765 198.94 338.736 199.108C338.721 199.262 338.657 199.443 338.541 199.653C338.354 200.016 337.8 200.198 336.879 200.198C335.972 200.198 335.417 200.009 335.216 199.632C335.115 199.422 335.05 199.241 335.022 199.087C335.007 198.933 335 198.689 335 198.354V190.999ZM338.541 187.122C338.441 187.318 338.254 187.457 337.98 187.541C337.706 187.625 337.339 187.667 336.879 187.667C336.432 187.667 336.073 187.625 335.799 187.541C335.525 187.457 335.331 187.311 335.216 187.101C335.115 186.892 335.05 186.71 335.022 186.556C335.007 186.389 335 186.144 335 185.823C335 185.502 335.007 185.264 335.022 185.111C335.05 184.943 335.115 184.761 335.216 184.566C335.417 184.189 335.979 184 336.9 184C337.807 184 338.354 184.189 338.541 184.566C338.657 184.775 338.721 184.964 338.736 185.132C338.765 185.285 338.779 185.523 338.779 185.844C338.779 186.165 338.765 186.41 338.736 186.577C338.721 186.731 338.657 186.913 338.541 187.122Z" fill="black"/>
<path d="M348.667 189.155C350.106 189.155 351.301 189.693 352.251 190.768C353.216 191.83 353.698 193.129 353.698 194.666V198.354C353.698 198.675 353.684 198.919 353.655 199.087C353.64 199.241 353.583 199.415 353.482 199.611C353.28 199.988 352.719 200.177 351.798 200.177C350.776 200.177 350.185 199.918 350.027 199.401C349.941 199.164 349.897 198.808 349.897 198.333V194.645C349.897 194.072 349.725 193.625 349.379 193.304C349.048 192.982 348.595 192.822 348.019 192.822C347.457 192.822 346.997 192.989 346.637 193.325C346.291 193.66 346.118 194.1 346.118 194.645V198.354C346.118 198.675 346.104 198.919 346.075 199.087C346.061 199.241 345.996 199.415 345.881 199.611C345.694 199.988 345.139 200.177 344.218 200.177C343.311 200.177 342.757 199.988 342.555 199.611C342.455 199.401 342.39 199.22 342.361 199.066C342.347 198.898 342.339 198.654 342.339 198.333V190.915C342.339 190.608 342.347 190.377 342.361 190.223C342.39 190.056 342.462 189.874 342.577 189.679C342.779 189.329 343.333 189.155 344.24 189.155C345.118 189.155 345.658 189.315 345.859 189.637C346.003 189.874 346.075 190.161 346.075 190.496C346.133 190.398 346.262 190.258 346.464 190.077C346.665 189.895 346.86 189.748 347.047 189.637C347.536 189.315 348.076 189.155 348.667 189.155Z" fill="black"/>
<path d="M364.893 184.566C365.008 184.356 365.203 184.21 365.476 184.126C365.75 184.042 366.11 184 366.556 184C367.017 184 367.384 184.042 367.657 184.126C367.931 184.21 368.118 184.356 368.219 184.566C368.334 184.775 368.399 184.964 368.413 185.132C368.442 185.285 368.456 185.523 368.456 185.844V198.354C368.456 198.675 368.442 198.919 368.413 199.087C368.399 199.241 368.334 199.415 368.219 199.611C368.003 199.988 367.391 200.177 366.383 200.177C365.39 200.177 364.836 199.834 364.72 199.15C364.116 199.82 363.274 200.156 362.194 200.156C360.898 200.156 359.718 199.611 358.653 198.521C357.587 197.418 357.055 196.139 357.055 194.687C357.055 193.22 357.587 191.935 358.653 190.831C359.732 189.727 360.913 189.176 362.194 189.176C363.259 189.176 364.087 189.525 364.677 190.223V185.823C364.677 185.502 364.685 185.264 364.699 185.111C364.728 184.943 364.792 184.761 364.893 184.566ZM361.395 195.944C361.769 196.321 362.223 196.51 362.755 196.51C363.288 196.51 363.727 196.321 364.073 195.944C364.433 195.567 364.613 195.155 364.613 194.708C364.613 194.247 364.44 193.821 364.094 193.429C363.763 193.038 363.31 192.843 362.734 192.843C362.158 192.843 361.697 193.038 361.352 193.429C361.006 193.807 360.834 194.226 360.834 194.687C360.834 195.148 361.021 195.567 361.395 195.944Z" fill="black"/>
<path d="M372.012 190.999C372.012 190.677 372.019 190.44 372.033 190.286C372.062 190.119 372.127 189.93 372.228 189.72C372.429 189.357 372.991 189.176 373.912 189.176C374.603 189.176 375.093 189.294 375.381 189.532C375.625 189.727 375.755 190.028 375.769 190.433C375.784 190.573 375.791 190.775 375.791 191.041V198.375C375.791 198.696 375.776 198.94 375.748 199.108C375.733 199.262 375.668 199.443 375.553 199.653C375.366 200.016 374.812 200.198 373.891 200.198C372.984 200.198 372.429 200.009 372.228 199.632C372.127 199.422 372.062 199.241 372.033 199.087C372.019 198.933 372.012 198.689 372.012 198.354V190.999ZM375.553 187.122C375.453 187.318 375.265 187.457 374.992 187.541C374.718 187.625 374.351 187.667 373.891 187.667C373.444 187.667 373.084 187.625 372.811 187.541C372.537 187.457 372.343 187.311 372.228 187.101C372.127 186.892 372.062 186.71 372.033 186.556C372.019 186.389 372.012 186.144 372.012 185.823C372.012 185.502 372.019 185.264 372.033 185.111C372.062 184.943 372.127 184.761 372.228 184.566C372.429 184.189 372.991 184 373.912 184C374.819 184 375.366 184.189 375.553 184.566C375.668 184.775 375.733 184.964 375.748 185.132C375.776 185.285 375.791 185.523 375.791 185.844C375.791 186.165 375.776 186.41 375.748 186.577C375.733 186.731 375.668 186.913 375.553 187.122Z" fill="black"/>
<path d="M382.914 194.687C382.914 195.273 383.116 195.734 383.519 196.07C383.922 196.391 384.347 196.552 384.793 196.552C385.254 196.552 385.678 196.426 386.067 196.174C386.47 195.909 386.794 195.776 387.039 195.776C387.471 195.776 387.996 196.146 388.615 196.887C388.946 197.292 389.112 197.655 389.112 197.976C389.112 198.507 388.716 199.003 387.924 199.464C387.104 200.023 386.096 200.302 384.901 200.302C383.562 200.302 382.274 199.834 381.036 198.898C380.445 198.451 379.963 197.858 379.589 197.117C379.215 196.363 379.027 195.539 379.027 194.645C379.027 193.737 379.215 192.919 379.589 192.193C379.963 191.453 380.445 190.859 381.036 190.412C382.231 189.49 383.505 189.029 384.858 189.029C385.405 189.029 385.937 189.106 386.456 189.259C386.974 189.399 387.356 189.539 387.6 189.679L387.946 189.888C388.205 190.056 388.406 190.188 388.55 190.286C388.925 190.566 389.112 190.887 389.112 191.25C389.112 191.599 388.961 191.998 388.658 192.445C388.14 193.213 387.643 193.597 387.168 193.597C386.895 193.597 386.506 193.443 386.002 193.136C385.743 192.899 385.369 192.78 384.879 192.78C384.404 192.78 383.958 192.947 383.541 193.283C383.123 193.618 382.914 194.086 382.914 194.687Z" fill="black"/>
<path d="M399.727 190.328C399.814 189.546 400.383 189.155 401.433 189.155C401.995 189.155 402.412 189.197 402.686 189.28C402.959 189.364 403.147 189.511 403.247 189.72C403.362 189.93 403.427 190.119 403.442 190.286C403.47 190.44 403.485 190.677 403.485 190.999V198.333C403.485 198.654 403.47 198.898 403.442 199.066C403.427 199.22 403.37 199.401 403.269 199.611C403.067 199.974 402.571 200.156 401.779 200.156C401.002 200.156 400.476 200.065 400.203 199.883C399.943 199.688 399.792 199.408 399.749 199.045C399.216 199.785 398.324 200.156 397.071 200.156C395.833 200.156 394.682 199.604 393.616 198.5C392.551 197.397 392.018 196.118 392.018 194.666C392.018 193.199 392.551 191.921 393.616 190.831C394.696 189.727 395.877 189.176 397.158 189.176C397.647 189.176 398.094 189.259 398.497 189.427C398.9 189.595 399.18 189.755 399.339 189.909C399.497 190.049 399.627 190.188 399.727 190.328ZM395.797 194.687C395.797 195.148 395.985 195.567 396.359 195.944C396.733 196.307 397.187 196.489 397.719 196.489C398.252 196.489 398.691 196.3 399.036 195.923C399.396 195.546 399.576 195.134 399.576 194.687C399.576 194.226 399.404 193.8 399.058 193.408C398.727 193.017 398.273 192.822 397.698 192.822C397.136 192.822 396.676 193.017 396.316 193.408C395.97 193.8 395.797 194.226 395.797 194.687Z" fill="black"/>
<path d="M413.649 192.864L412.246 192.78V195.671C412.246 196.049 412.303 196.321 412.418 196.489C412.548 196.656 412.778 196.74 413.109 196.74C413.455 196.74 413.714 196.754 413.887 196.782C414.074 196.796 414.268 196.859 414.47 196.971C414.801 197.152 414.966 197.62 414.966 198.375C414.966 199.255 414.765 199.792 414.362 199.988C414.146 200.086 413.952 200.149 413.779 200.177C413.62 200.191 413.383 200.198 413.066 200.198C411.569 200.198 410.432 199.869 409.654 199.213C408.877 198.556 408.488 197.446 408.488 195.881V192.78C408.215 192.822 407.92 192.843 407.603 192.843C407.286 192.843 407.02 192.724 406.804 192.486C406.602 192.249 406.502 191.844 406.502 191.271C406.502 190.698 406.538 190.286 406.61 190.035C406.682 189.769 406.782 189.581 406.912 189.469C407.142 189.287 407.43 189.197 407.776 189.197L408.488 189.28V187.122C408.488 186.801 408.495 186.563 408.51 186.41C408.539 186.256 408.611 186.088 408.726 185.907C408.913 185.558 409.467 185.383 410.389 185.383C411.367 185.383 411.951 185.641 412.138 186.158C412.21 186.382 412.246 186.738 412.246 187.227V189.28C412.879 189.225 413.354 189.197 413.671 189.197C414.002 189.197 414.247 189.211 414.405 189.239C414.578 189.253 414.772 189.315 414.988 189.427C415.362 189.609 415.55 190.147 415.55 191.041C415.55 191.921 415.355 192.458 414.966 192.654C414.751 192.752 414.556 192.815 414.383 192.843C414.225 192.857 413.98 192.864 413.649 192.864Z" fill="black"/>
<path d="M418.253 194.687C418.253 193.01 418.858 191.627 420.067 190.538C421.277 189.448 422.659 188.903 424.213 188.903C425.768 188.903 427.143 189.448 428.338 190.538C429.533 191.613 430.13 192.989 430.13 194.666C430.13 195.825 429.821 196.859 429.202 197.767C428.583 198.661 427.827 199.324 426.934 199.758C426.056 200.177 425.142 200.386 424.192 200.386C423.242 200.386 422.32 200.163 421.428 199.716C420.535 199.255 419.779 198.584 419.16 197.704C418.556 196.81 418.253 195.804 418.253 194.687ZM422.767 196.195C423.227 196.531 423.695 196.698 424.17 196.698C424.645 196.698 425.12 196.524 425.595 196.174C426.071 195.825 426.308 195.308 426.308 194.624C426.308 193.939 426.085 193.429 425.639 193.094C425.192 192.759 424.71 192.591 424.192 192.591C423.674 192.591 423.191 192.766 422.745 193.115C422.299 193.464 422.076 193.981 422.076 194.666C422.076 195.336 422.306 195.846 422.767 196.195Z" fill="black"/>
<path d="M441.092 189.28C441.365 189.364 441.588 189.511 441.761 189.72C441.948 189.916 442.042 190.237 442.042 190.684C442.042 191.131 441.905 191.62 441.631 192.151C441.358 192.682 440.962 192.947 440.444 192.947C440.185 192.947 439.933 192.892 439.688 192.78C439.458 192.668 439.148 192.612 438.759 192.612C438.371 192.612 438.004 192.745 437.658 193.01C437.327 193.276 437.161 193.597 437.161 193.974V198.375C437.161 198.696 437.147 198.94 437.118 199.108C437.104 199.262 437.039 199.443 436.924 199.653C436.708 200.016 436.147 200.198 435.24 200.198C434.549 200.198 434.052 200.079 433.75 199.841C433.519 199.646 433.39 199.345 433.361 198.94C433.361 198.801 433.361 198.598 433.361 198.333V190.978C433.361 190.656 433.368 190.419 433.382 190.265C433.411 190.098 433.476 189.916 433.577 189.72C433.778 189.343 434.34 189.155 435.261 189.155C436.125 189.155 436.665 189.315 436.881 189.637C437.039 189.86 437.118 190.091 437.118 190.328C437.19 190.23 437.291 190.112 437.421 189.972C437.565 189.832 437.86 189.644 438.306 189.406C438.752 189.169 439.141 189.05 439.472 189.05C439.818 189.05 440.105 189.071 440.336 189.113C440.566 189.141 440.818 189.197 441.092 189.28Z" fill="black"/>
<path d="M444.73 199.213C444.457 199.045 444.32 198.78 444.32 198.416C444.32 198.053 444.593 197.501 445.14 196.761C445.299 196.524 445.551 196.405 445.896 196.405C446.256 196.405 446.738 196.579 447.343 196.929C447.948 197.264 448.495 197.432 448.984 197.432C449.862 197.432 450.301 197.264 450.301 196.929C450.301 196.663 449.819 196.468 448.855 196.342C447.948 196.216 447.048 195.888 446.155 195.357C445.738 195.106 445.392 194.715 445.119 194.184C444.845 193.639 444.709 192.996 444.709 192.256C444.709 190.049 446.271 188.945 449.394 188.945C450.417 188.945 451.467 189.183 452.547 189.658C453.051 189.881 453.303 190.161 453.303 190.496C453.303 190.831 453.145 191.243 452.828 191.732C452.511 192.221 452.187 192.465 451.856 192.465C451.683 192.465 451.36 192.361 450.884 192.151C450.424 191.942 449.92 191.837 449.373 191.837C448.524 191.837 448.099 191.991 448.099 192.298C448.099 192.717 448.588 192.989 449.567 193.115C450.517 193.213 451.439 193.478 452.331 193.911C452.749 194.107 453.094 194.449 453.368 194.938C453.656 195.413 453.8 196.014 453.8 196.74C453.8 197.467 453.656 198.088 453.368 198.605C453.094 199.108 452.706 199.485 452.202 199.737C451.28 200.17 450.121 200.386 448.725 200.386C447.343 200.386 446.011 199.995 444.73 199.213Z" fill="black"/>
<path d="M319.047 192.138C319.047 207.221 312.628 219.448 304.709 219.448C296.791 219.448 290.372 207.221 290.372 192.138C290.372 177.055 296.791 164.828 304.709 164.828C312.628 164.828 319.047 177.055 319.047 192.138Z" fill="white"/>
<path fill-rule="evenodd" clip-rule="evenodd" d="M313.077 210.519C315.493 205.918 317.047 199.422 317.047 192.138C317.047 184.853 315.493 178.358 313.077 173.756C310.612 169.061 307.554 166.828 304.709 166.828C301.865 166.828 298.807 169.061 296.342 173.756C293.926 178.358 292.372 184.853 292.372 192.138C292.372 199.422 293.926 205.918 296.342 210.519C298.807 215.215 301.865 217.448 304.709 217.448C307.554 217.448 310.612 215.215 313.077 210.519ZM304.709 219.448C312.628 219.448 319.047 207.221 319.047 192.138C319.047 177.055 312.628 164.828 304.709 164.828C296.791 164.828 290.372 177.055 290.372 192.138C290.372 207.221 296.791 219.448 304.709 219.448Z" fill="black"/>
<path d="M290.372 201.696C290.372 216.779 283.341 229.007 274.668 229.007C265.995 229.007 258.965 216.779 258.965 201.696C258.965 186.613 265.995 174.386 274.668 174.386C283.341 174.386 290.372 186.613 290.372 201.696Z" fill="white"/>
<path fill-rule="evenodd" clip-rule="evenodd" d="M284.038 220.011C286.676 215.423 288.372 208.952 288.372 201.696C288.372 194.441 286.676 187.97 284.038 183.382C281.369 178.74 277.983 176.386 274.668 176.386C271.353 176.386 267.967 178.74 265.298 183.382C262.66 187.97 260.965 194.441 260.965 201.696C260.965 208.952 262.66 215.423 265.298 220.011C267.967 224.653 271.353 227.007 274.668 227.007C277.983 227.007 281.369 224.653 284.038 220.011ZM274.668 229.007C283.341 229.007 290.372 216.779 290.372 201.696C290.372 186.613 283.341 174.386 274.668 174.386C265.995 174.386 258.965 186.613 258.965 201.696C258.965 216.779 265.995 229.007 274.668 229.007Z" fill="black"/>
<path d="M245.042 189.781C246.185 188.621 247.416 188.041 248.735 188.041C250.098 188.041 251.153 188.153 251.901 188.376C252.648 188.599 253.22 188.866 253.615 189.179C254.011 189.446 254.319 189.914 254.539 190.583C254.758 191.341 254.868 192.523 254.868 194.129V231.39C254.868 232.416 254.824 233.196 254.736 233.731C254.692 234.222 254.495 234.801 254.143 235.47C253.527 236.675 251.901 239.083 248.933 240.822C246.577 242.203 244.514 240.242 243.855 239.083C243.503 238.414 243.283 237.812 243.195 237.277C243.151 236.697 243.13 235.872 243.13 234.802L243.195 207.374L242.338 208.177C240.536 209.559 238.997 210.251 237.722 210.251C236.447 210.251 235.106 209.47 233.699 207.909C232.336 206.348 231.655 204.966 231.655 203.762C231.655 202.558 232.446 201.242 234.029 199.815L244.844 189.914L245.042 189.781Z" fill="white"/>
<path fill-rule="evenodd" clip-rule="evenodd" d="M241.192 208.986C239.874 209.829 238.717 210.251 237.722 210.251C236.447 210.251 235.106 209.47 233.699 207.909C232.336 206.348 231.655 204.966 231.655 203.762C231.655 202.558 232.446 201.242 234.029 199.815L244.844 189.914L245.042 189.781C246.185 188.621 247.416 188.041 248.735 188.041C250.098 188.041 251.153 188.153 251.901 188.376C252.648 188.599 253.22 188.866 253.615 189.179C254.011 189.446 254.319 189.914 254.539 190.583C254.758 191.341 254.868 192.523 254.868 194.129V231.39C254.868 232.416 254.824 233.196 254.736 233.731C254.692 234.222 254.495 234.801 254.143 235.47C253.527 236.675 251.901 239.083 248.933 240.822C246.577 242.203 244.514 240.242 243.855 239.083C243.503 238.414 243.283 237.812 243.195 237.277C243.151 236.697 243.13 235.872 243.13 234.802L243.195 207.374L242.338 208.177C241.943 208.48 241.561 208.749 241.192 208.986ZM241.186 211.299C240.034 211.893 238.872 212.251 237.722 212.251C235.603 212.251 233.762 210.967 232.213 209.248L232.192 209.225C230.721 207.54 229.655 205.694 229.655 203.762C229.655 201.685 230.986 199.867 232.684 198.335L243.494 188.439C243.566 188.373 243.643 188.312 243.724 188.258L243.766 188.229C245.162 186.87 246.829 186.041 248.735 186.041C250.17 186.041 251.451 186.154 252.472 186.459C253.32 186.712 254.137 187.059 254.799 187.566C255.66 188.175 256.15 189.082 256.439 189.959C256.446 189.981 256.453 190.004 256.459 190.026C256.762 191.069 256.868 192.487 256.868 194.129V231.39C256.868 232.413 256.827 233.298 256.721 233.988C256.632 234.813 256.319 235.627 255.918 236.391C255.172 237.847 253.31 240.575 249.944 242.548C248.071 243.645 246.226 243.401 244.838 242.681C243.547 242.012 242.604 240.929 242.116 240.072C242.106 240.052 242.095 240.033 242.085 240.014C241.669 239.224 241.355 238.413 241.222 237.601C241.212 237.544 241.206 237.486 241.201 237.428C241.151 236.772 241.13 235.888 241.13 234.802V234.797L241.186 211.299Z" fill="black"/>
<path d="M264.954 206.979C263.971 202.325 266.724 197.282 271.719 195.117C276.714 192.952 282.275 194.391 285 198.29C285.983 202.944 283.231 207.986 278.236 210.151C273.24 212.317 267.68 210.877 264.954 206.979ZM276.788 206.81C278.016 206.278 279.004 205.327 279.533 204.167C280.062 203.008 280.09 201.734 279.609 200.626C279.129 199.519 278.181 198.668 276.973 198.261C275.765 197.855 274.396 197.925 273.167 198.458C271.939 198.99 270.951 199.941 270.422 201.101C269.893 202.26 269.865 203.534 270.345 204.642C270.825 205.75 271.774 206.6 272.982 207.007C274.19 207.414 275.559 207.343 276.788 206.81ZM276.063 205.14C275.326 205.459 274.505 205.502 273.78 205.258C273.055 205.014 272.486 204.503 272.198 203.839C271.91 203.174 271.927 202.41 272.244 201.714C272.562 201.018 273.154 200.448 273.891 200.128C274.628 199.809 275.45 199.766 276.175 200.01C276.899 200.254 277.469 200.765 277.757 201.429C278.045 202.094 278.028 202.858 277.711 203.554C277.393 204.25 276.801 204.82 276.063 205.14Z" fill="black"/>
<path d="M294.996 196.054C294.013 191.401 296.765 186.358 301.76 184.193C306.756 182.027 312.316 183.467 315.042 187.365C316.024 192.019 313.272 197.062 308.277 199.227C303.282 201.392 297.721 199.953 294.996 196.054ZM306.829 195.886C308.057 195.354 309.045 194.403 309.574 193.243C310.103 192.084 310.131 190.81 309.651 189.702C309.171 188.595 308.222 187.744 307.014 187.337C305.806 186.931 304.437 187.001 303.208 187.534C301.98 188.066 300.992 189.017 300.463 190.177C299.934 191.336 299.906 192.61 300.386 193.718C300.867 194.825 301.815 195.676 303.023 196.083C304.231 196.489 305.6 196.419 306.829 195.886ZM306.105 194.216C305.368 194.535 304.546 194.578 303.821 194.334C303.096 194.09 302.527 193.579 302.239 192.915C301.951 192.25 301.968 191.486 302.285 190.79C302.603 190.094 303.195 189.524 303.932 189.204C304.67 188.885 305.491 188.842 306.216 189.086C306.941 189.33 307.51 189.841 307.798 190.505C308.086 191.17 308.069 191.934 307.752 192.63C307.434 193.326 306.842 193.896 306.105 194.216Z" fill="black"/>
<path fill-rule="evenodd" clip-rule="evenodd" d="M215.969 180.218C216.131 180.442 216.08 180.754 215.856 180.916C210.145 185.043 206.802 192.938 206.579 200.786C206.356 208.631 209.253 216.264 215.809 219.96C216.05 220.096 216.135 220.401 215.999 220.641C215.863 220.882 215.559 220.967 215.318 220.831C208.325 216.89 205.35 208.823 205.579 200.757C205.808 192.693 209.239 184.464 215.271 180.105C215.494 179.944 215.807 179.994 215.969 180.218Z" fill="white"/>
<path fill-rule="evenodd" clip-rule="evenodd" d="M203.062 181.295C203.224 181.519 203.174 181.832 202.95 181.993C197.688 185.796 194.603 193.074 194.398 200.313C194.192 207.55 196.864 214.583 202.902 217.987C203.143 218.122 203.228 218.427 203.092 218.668C202.957 218.908 202.652 218.993 202.411 218.858C195.937 215.208 193.186 207.742 193.398 200.285C193.61 192.83 196.782 185.217 202.364 181.183C202.588 181.021 202.9 181.071 203.062 181.295Z" fill="white"/>
<path d="M144.265 179.284C144.265 179.284 133.258 174.295 132.501 179.498C130.602 194.427 148.118 212.193 154.994 227.789C164.517 228.323 174.04 228.158 183.563 228.343C189.352 228.493 194.953 228.632 200.741 228.956C196.66 215.965 189.587 205.078 183.247 201.051C177.465 197.58 177.104 191.79 173.749 188.979C176.187 183.871 161.639 175.537 156.399 181.188C156.399 181.013 150.812 173.881 144.265 179.284Z" fill="white"/>
<path d="M202.607 230.101L198.686 229.881C193.831 229.608 188.603 229.49 183.561 229.382C180.386 229.379 177.212 229.376 174.224 229.383C167.875 229.376 161.526 229.37 154.991 229.004L154.057 228.951L153.686 228.056C151.269 222.85 147.919 217.416 144.196 211.787C137.123 200.724 129.677 189.465 131.006 179.048C131.196 177.66 131.945 176.652 133.066 176.191C136.057 174.785 141.655 176.673 143.894 177.672C145.951 176.214 148.006 175.63 150.247 175.93C153.047 176.262 155.098 177.951 156.402 179.073C159.956 176.475 165.742 177.849 169.844 180.527C173.761 182.845 175.622 185.922 175.243 188.523C176.361 189.81 177.291 191.261 178.035 192.877C179.337 195.398 180.826 197.929 183.809 199.845C190.71 204.079 197.782 215.317 202.05 228.496L202.607 230.101ZM155.93 226.433C161.905 226.768 168.067 226.764 174.043 226.75C177.217 226.753 180.392 226.756 183.566 226.759C188.608 226.867 193.65 226.975 198.691 227.258L198.878 227.269C194.98 215.684 188.466 205.527 182.498 201.87C178.768 199.562 177.094 196.496 175.606 193.789C174.675 192.164 173.932 190.548 172.813 189.611L172.068 188.87L172.443 188.017C173.006 186.649 171.517 184.293 168.533 182.552C164.803 180.244 159.763 179.262 157.517 181.759L156.394 182.92L155.277 181.633C155.277 181.633 153.042 178.885 150.054 178.543C148.374 178.273 146.693 178.879 145.196 180.193L144.448 180.676L143.702 180.284C140.903 179.078 136.425 177.603 134.555 178.547C134.181 178.701 133.994 178.866 133.806 179.555C132.666 188.933 139.74 199.821 146.44 210.514C149.977 215.783 153.513 221.227 155.93 226.433Z" fill="#EE7D8B"/>
<path d="M169.165 224.302C163.38 225.542 157.596 226.434 151.811 227.326C156.272 235.035 159.054 242.477 156.616 248.935C149.863 266.776 96.6565 274.243 96.364 249.57C96.0715 224.897 67.1808 210.498 54.6342 224.345C42.0875 238.192 77.4371 290.677 120.676 307.833C169.88 327.228 194.919 306.935 203.721 290.248C213.648 271.022 202.534 234.141 193.241 218.529C185.402 220.522 177.377 222.504 169.165 224.302Z" fill="black"/>
<path d="M142.872 179.867C139.05 186.377 143.226 193.163 147.404 198.858C148.163 199.811 149.689 198.989 149.119 198.047C145.321 192.92 141.144 186.679 144.584 180.874C144.967 179.805 143.445 178.809 142.872 179.867Z" fill="#EE7D8B"/>
<path d="M154.538 181.822C153.01 186.992 154.707 192.166 159.251 195.871C160.197 196.65 161.527 195.457 160.581 194.678C156.604 191.549 155.096 187.112 156.433 182.474C156.625 181.216 154.919 180.756 154.538 181.822Z" fill="#EE7D8B"/>
<path d="M182.816 156.774C183.38 155.922 184.058 155.496 184.85 155.496C186.074 155.496 186.986 156.018 187.586 157.062C187.718 156.882 187.874 156.696 188.054 156.504C188.246 156.3 188.546 156.084 188.954 155.856C189.362 155.616 189.782 155.496 190.214 155.496C191.174 155.496 191.978 155.868 192.626 156.612C193.274 157.344 193.598 158.562 193.598 160.266V163.416C193.598 163.692 193.586 163.902 193.562 164.046C193.55 164.178 193.496 164.334 193.4 164.514C193.244 164.838 192.782 165 192.014 165C191.258 165 190.796 164.832 190.628 164.496C190.544 164.316 190.49 164.16 190.466 164.028C190.454 163.884 190.448 163.674 190.448 163.398V160.248C190.448 159.204 190.076 158.682 189.332 158.682C188.912 158.682 188.624 158.82 188.468 159.096C188.324 159.372 188.252 159.762 188.252 160.266V163.416C188.252 163.704 188.24 163.914 188.216 164.046C188.204 164.178 188.15 164.334 188.054 164.514C187.886 164.838 187.418 165 186.65 165C185.894 165 185.432 164.832 185.264 164.496C185.18 164.316 185.126 164.16 185.102 164.028C185.09 163.884 185.084 163.674 185.084 163.398V160.248C185.084 159.204 184.712 158.682 183.968 158.682C183.248 158.682 182.888 159.204 182.888 160.248V163.434C182.888 163.71 182.876 163.92 182.852 164.064C182.84 164.196 182.786 164.352 182.69 164.532C182.51 164.844 182.042 165 181.286 165C180.53 165 180.068 164.838 179.9 164.514C179.816 164.334 179.762 164.178 179.738 164.046C179.726 163.914 179.72 163.704 179.72 163.416V157.08C179.72 156.804 179.726 156.6 179.738 156.468C179.762 156.324 179.822 156.168 179.918 156C180.098 155.676 180.524 155.514 181.196 155.514C181.868 155.514 182.306 155.622 182.51 155.838C182.714 156.054 182.816 156.366 182.816 156.774Z" fill="black"/>
<path d="M196.561 160.266C196.561 158.826 197.065 157.638 198.073 156.702C199.081 155.766 200.233 155.298 201.529 155.298C202.825 155.298 203.971 155.766 204.967 156.702C205.963 157.626 206.461 158.808 206.461 160.248C206.461 161.244 206.203 162.132 205.687 162.912C205.171 163.68 204.541 164.25 203.797 164.622C203.065 164.982 202.303 165.162 201.511 165.162C200.719 165.162 199.951 164.97 199.207 164.586C198.463 164.19 197.833 163.614 197.317 162.858C196.813 162.09 196.561 161.226 196.561 160.266ZM200.323 161.562C200.707 161.85 201.097 161.994 201.493 161.994C201.889 161.994 202.285 161.844 202.681 161.544C203.077 161.244 203.275 160.8 203.275 160.212C203.275 159.624 203.089 159.186 202.717 158.898C202.345 158.61 201.943 158.466 201.511 158.466C201.079 158.466 200.677 158.616 200.305 158.916C199.933 159.216 199.747 159.66 199.747 160.248C199.747 160.824 199.939 161.262 200.323 161.562Z" fill="black"/>
<path d="M215.867 155.622C216.095 155.694 216.281 155.82 216.425 156C216.581 156.168 216.659 156.444 216.659 156.828C216.659 157.212 216.545 157.632 216.317 158.088C216.089 158.544 215.759 158.772 215.327 158.772C215.111 158.772 214.901 158.724 214.697 158.628C214.505 158.532 214.247 158.484 213.923 158.484C213.599 158.484 213.293 158.598 213.005 158.826C212.729 159.054 212.591 159.33 212.591 159.654V163.434C212.591 163.71 212.579 163.92 212.555 164.064C212.543 164.196 212.489 164.352 212.393 164.532C212.213 164.844 211.745 165 210.989 165C210.413 165 209.999 164.898 209.747 164.694C209.555 164.526 209.447 164.268 209.423 163.92C209.423 163.8 209.423 163.626 209.423 163.398V157.08C209.423 156.804 209.429 156.6 209.441 156.468C209.465 156.324 209.519 156.168 209.603 156C209.771 155.676 210.239 155.514 211.007 155.514C211.727 155.514 212.177 155.652 212.357 155.928C212.489 156.12 212.555 156.318 212.555 156.522C212.615 156.438 212.699 156.336 212.807 156.216C212.927 156.096 213.173 155.934 213.545 155.73C213.917 155.526 214.241 155.424 214.517 155.424C214.805 155.424 215.045 155.442 215.237 155.478C215.429 155.502 215.639 155.55 215.867 155.622Z" fill="black"/>
<path d="M228.049 159.132C228.049 159.864 227.863 160.41 227.491 160.77C227.131 161.118 226.729 161.292 226.285 161.292H222.019C222.019 161.628 222.217 161.91 222.613 162.138C223.009 162.366 223.405 162.48 223.801 162.48C224.497 162.48 225.043 162.408 225.439 162.264L225.637 162.192C225.925 162.06 226.165 161.994 226.357 161.994C226.741 161.994 227.071 162.264 227.347 162.804C227.503 163.128 227.581 163.404 227.581 163.632C227.581 164.7 226.303 165.234 223.747 165.234C222.859 165.234 222.067 165.084 221.371 164.784C220.687 164.472 220.153 164.064 219.769 163.56C219.013 162.588 218.635 161.502 218.635 160.302C218.635 158.79 219.121 157.584 220.093 156.684C221.077 155.772 222.301 155.316 223.765 155.316C225.433 155.316 226.657 155.904 227.437 157.08C227.845 157.704 228.049 158.388 228.049 159.132ZM224.251 159.654C224.707 159.654 224.935 159.462 224.935 159.078C224.935 158.802 224.827 158.58 224.611 158.412C224.407 158.244 224.107 158.16 223.711 158.16C223.327 158.16 222.943 158.322 222.559 158.646C222.175 158.958 221.983 159.294 221.983 159.654H224.251Z" fill="black"/>
</g>
<defs>
<linearGradient id="paint0_linear" x1="238" y1="136" x2="238" y2="183.613" gradientUnits="userSpaceOnUse">
<stop stop-color="#13C8A4"/>
<stop offset="1" stop-color="#C4C4C4" stop-opacity="0"/>
</linearGradient>
<linearGradient id="paint1_linear" x1="233.5" y1="13.5" x2="232.5" y2="72" gradientUnits="userSpaceOnUse">
<stop/>
<stop offset="1" stop-color="#C4C4C4" stop-opacity="0"/>
</linearGradient>
</defs>
</svg>
