<svg width="425" height="292" viewBox="0 0 425 292" fill="none" xmlns="http://www.w3.org/2000/svg">
<path d="M178.547 10.8602C178.547 10.5846 178.323 10.3611 178.047 10.3611C177.771 10.3611 177.547 10.5846 177.547 10.8602V44.1018H176.221C175.117 44.1018 174.221 44.9957 174.221 46.0984V63.9882C174.221 65.0909 175.117 65.9848 176.221 65.9848H177.547V67.5484C177.547 67.8241 177.771 68.0475 178.047 68.0475C178.323 68.0475 178.547 67.8241 178.547 67.5484V65.9848H179.873C180.977 65.9848 181.873 65.0909 181.873 63.9882V46.0984C181.873 44.9957 180.977 44.1018 179.873 44.1018H178.547V10.8602Z" fill="#13C8A4"/>
<path fill-rule="evenodd" clip-rule="evenodd" d="M165.078 34.7037L165.078 52.4734H163.752C162.648 52.4734 161.752 53.3673 161.752 54.47L161.752 77.5088C161.752 78.6115 162.648 79.5054 163.752 79.5054H165.078L165.078 189.76C165.078 190.036 165.302 190.259 165.578 190.259C165.854 190.259 166.078 190.036 166.078 189.76L166.078 79.5054H167.403C168.508 79.5054 169.403 78.6115 169.403 77.5088L169.403 54.47C169.403 53.3673 168.508 52.4734 167.403 52.4734H166.078V34.7037C166.078 34.4281 165.854 34.2046 165.578 34.2046C165.302 34.2046 165.078 34.4281 165.078 34.7037Z" fill="#13C8A4"/>
<path d="M67.6512 72.7624H66.3257L66.3257 39.9498C66.3257 39.6742 66.1018 39.4507 65.8257 39.4507C65.5495 39.4507 65.3257 39.6742 65.3257 39.9498L65.3257 72.7624H64C62.8954 72.7624 62 73.6563 62 74.759L62 120.682C62 121.785 62.8954 122.678 64 122.678H65.3256L65.3257 188.703C65.3257 188.979 65.5495 189.202 65.8257 189.202C66.1018 189.202 66.3257 188.979 66.3257 188.703L66.3256 122.678H67.6512C68.7558 122.678 69.6512 121.785 69.6512 120.682L69.6512 74.759C69.6512 73.6563 68.7558 72.7624 67.6512 72.7624Z" fill="#13C8A4"/>
<path d="M191.39 0.499145C191.39 0.223475 191.167 0 190.89 0C190.614 0 190.39 0.223475 190.39 0.499145L190.39 21.6466H188.69C187.586 21.6466 186.69 22.5405 186.69 23.6432V153.866C186.69 154.968 187.586 155.862 188.69 155.862H190.016V165.449C190.016 165.725 190.24 165.948 190.516 165.948C190.792 165.948 191.016 165.725 191.016 165.449V155.862H192.342C193.446 155.862 194.342 154.968 194.342 153.866V23.6432C194.342 22.5405 193.446 21.6466 192.342 21.6466H191.39L191.39 0.499145Z" fill="#13C8A4"/>
<path d="M203.674 16.5736C203.674 16.2979 203.45 16.0745 203.174 16.0745C202.898 16.0745 202.674 16.2979 202.674 16.5736L202.674 22.831H201.349C200.244 22.831 199.349 23.7249 199.349 24.8275V48.7824C199.349 49.8851 200.244 50.779 201.349 50.779H202.674V69.7175C202.674 69.9932 202.898 70.2167 203.174 70.2167C203.45 70.2167 203.674 69.9932 203.674 69.7175V50.779H205C206.105 50.779 207 49.8851 207 48.7824V24.8275C207 23.7249 206.105 22.831 205 22.831H203.674L203.674 16.5736Z" fill="#13C8A4"/>
<path d="M128.671 16.9335C128.671 16.6578 128.447 16.4343 128.171 16.4343C127.895 16.4343 127.671 16.6578 127.671 16.9335L127.671 30.0151H126.345C125.241 30.0151 124.345 30.909 124.345 32.0117V55.9665C124.345 57.0692 125.241 57.9631 126.345 57.9631H127.671V94.401C127.671 94.6767 127.895 94.9002 128.171 94.9002C128.447 94.9002 128.671 94.6767 128.671 94.401V57.9631H129.996C131.101 57.9631 131.996 57.0692 131.996 55.9665V32.0117C131.996 30.909 131.101 30.0151 129.996 30.0151H128.671L128.671 16.9335Z" fill="#13C8A4"/>
<path d="M103.733 24.6991C103.733 24.4234 103.509 24.2 103.233 24.2C102.957 24.2 102.733 24.4234 102.733 24.6991L102.733 40.9897H101.407C100.303 40.9897 99.4072 41.8836 99.4072 42.9863V73.7971C99.4072 74.8998 100.303 75.7937 101.407 75.7937H102.733V94.4008C102.733 94.6765 102.957 94.9 103.233 94.9C103.509 94.9 103.733 94.6765 103.733 94.4008V75.7937H105.058C106.163 75.7937 107.058 74.8998 107.058 73.7971V42.9863C107.058 41.8836 106.163 40.9897 105.058 40.9897H103.733L103.733 24.6991Z" fill="#13C8A4"/>
<path d="M91.2636 39.9497C91.2636 39.674 91.0398 39.4506 90.7636 39.4506C90.4875 39.4506 90.2636 39.674 90.2636 39.9497L90.2636 53.7012H88.9382C87.8337 53.7012 86.9382 54.5951 86.9382 55.6978V76.5415C86.9382 77.6442 87.8337 78.5381 88.9382 78.5381H90.2636V81.6361C90.2636 81.9118 90.4875 82.1353 90.7636 82.1353C91.0398 82.1353 91.2636 81.9118 91.2636 81.6361V78.5381H92.5894C93.694 78.5381 94.5894 77.6442 94.5894 76.5415V55.6978C94.5894 54.5951 93.694 53.7012 92.5894 53.7012H91.2636L91.2636 39.9497Z" fill="#EE7D8B"/>
<path d="M78.7945 72.2085C78.7945 71.9328 78.5706 71.7094 78.2945 71.7094C78.0184 71.7094 77.7945 71.9328 77.7945 72.2085L77.7945 76.8634H76.4689C75.3644 76.8634 74.4689 77.7573 74.4689 78.8599V83.2746C74.4689 84.3773 75.3644 85.2712 76.4689 85.2712H77.7945V97.2533C77.7945 97.5289 78.0184 97.7524 78.2945 97.7524C78.5706 97.7524 78.7945 97.5289 78.7945 97.2533V85.2712H80.1201C81.2247 85.2712 82.1201 84.3773 82.1201 83.2746V78.8599C82.1201 77.7573 81.2247 76.8634 80.1201 76.8634H78.7945L78.7945 72.2085Z" fill="#EE7D8B"/>
<path d="M154.934 60.0122H153.609L153.609 54.6193C153.609 54.3436 153.385 54.1201 153.109 54.1201C152.833 54.1201 152.609 54.3436 152.609 54.6193L152.609 60.0122H151.283C150.179 60.0122 149.283 60.9061 149.283 62.0087L149.283 101.243C149.283 102.345 150.179 103.239 151.283 103.239H152.609L152.609 146.231C152.609 146.507 152.833 146.73 153.109 146.73C153.385 146.73 153.609 146.507 153.609 146.231L153.609 103.239H154.934C156.039 103.239 156.934 102.345 156.934 101.243L156.934 62.0087C156.934 60.9061 156.039 60.0122 154.934 60.0122Z" fill="#EE7D8B"/>
<path d="M217.651 60.0122H216.326L216.326 54.6193C216.326 54.3436 216.102 54.1201 215.826 54.1201C215.549 54.1201 215.326 54.3436 215.326 54.6193L215.326 60.0122H214C212.895 60.0122 212 60.9061 212 62.0087L212 101.243C212 102.345 212.895 103.239 214 103.239H215.326L215.326 146.231C215.326 146.507 215.549 146.73 215.826 146.73C216.102 146.73 216.326 146.507 216.326 146.231L216.326 103.239H217.651C218.756 103.239 219.651 102.345 219.651 101.243L219.651 62.0087C219.651 60.9061 218.756 60.0122 217.651 60.0122Z" fill="#EE7D8B"/>
<path d="M117.528 45.4507H116.202L116.202 42.6968C116.202 42.4211 115.978 42.1976 115.702 42.1976C115.426 42.1976 115.202 42.4211 115.202 42.6968L115.202 45.4507H113.876C112.772 45.4507 111.876 46.3446 111.876 47.4473L111.876 65.5279C111.876 66.6306 112.772 67.5245 113.876 67.5245H115.203L115.203 89.4776C115.203 89.7533 115.426 89.9767 115.703 89.9767C115.979 89.9767 116.203 89.7533 116.203 89.4776L116.203 67.5245H117.528C118.632 67.5245 119.528 66.6306 119.528 65.5279L119.528 47.4473C119.528 46.3446 118.632 45.4507 117.528 45.4507Z" fill="#EE7D8B"/>
<path d="M142.465 47.7601H141.14L141.14 25.8174C141.14 25.5417 140.916 25.3182 140.64 25.3182C140.364 25.3182 140.14 25.5417 140.14 25.8174L140.14 47.7601H138.814C137.71 47.7601 136.814 48.654 136.814 49.7566L136.814 174.706C136.814 175.808 137.71 176.702 138.814 176.702H140.14L140.14 202.154C140.14 202.43 140.364 202.653 140.64 202.653C140.916 202.653 141.14 202.43 141.14 202.154L141.14 176.702H142.465C143.57 176.702 144.465 175.808 144.465 174.706L144.465 49.7566C144.465 48.654 143.57 47.7601 142.465 47.7601Z" fill="#13C8A4"/>
<path d="M396.326 58.4C396.326 58.1244 396.102 57.9009 395.826 57.9009C395.55 57.9009 395.326 58.1244 395.326 58.4V91.6416H394C392.895 91.6416 392 92.5355 392 93.6381V111.528C392 112.631 392.895 113.525 394 113.525H395.326V115.088C395.326 115.364 395.55 115.587 395.826 115.587C396.102 115.587 396.326 115.364 396.326 115.088V113.525H397.651C398.756 113.525 399.651 112.631 399.651 111.528V93.6381C399.651 92.5355 398.756 91.6416 397.651 91.6416H396.326V58.4Z" fill="#13C8A4"/>
<path d="M385.403 95.4H384.078V77.6302C384.078 77.3546 383.854 77.1311 383.578 77.1311C383.302 77.1311 383.078 77.3546 383.078 77.6302L383.078 95.4H381.752C380.648 95.4 379.752 96.2939 379.752 97.3965L379.752 120.435C379.752 121.538 380.648 122.432 381.752 122.432H383.078L383.078 232.687C383.078 232.963 383.302 233.186 383.578 233.186C383.854 233.186 384.078 232.963 384.078 232.687L384.078 122.432H385.403C386.508 122.432 387.403 121.538 387.403 120.435L387.403 97.3965C387.403 96.2939 386.508 95.4 385.403 95.4Z" fill="#13C8A4"/>
<path d="M409.7 12.4786C409.7 12.203 409.476 11.9795 409.2 11.9795C408.924 11.9795 408.7 12.203 408.7 12.4786L408.7 33.6261H407C405.895 33.6261 405 34.52 405 35.6227V165.845C405 166.948 405.895 167.842 407 167.842H408.325V177.429C408.325 177.704 408.549 177.928 408.825 177.928C409.102 177.928 409.325 177.704 409.325 177.429V167.842H410.651C411.756 167.842 412.651 166.948 412.651 165.845V35.6227C412.651 34.52 411.756 33.6261 410.651 33.6261H409.7L409.7 12.4786Z" fill="#13C8A4"/>
<path d="M421.674 59.5C421.674 59.2243 421.45 59.0009 421.174 59.0009C420.898 59.0009 420.674 59.2243 420.674 59.5L420.674 65.7574H419.349C418.244 65.7574 417.349 66.6513 417.349 67.7539V91.7088C417.349 92.8115 418.244 93.7054 419.349 93.7054H420.674V112.644C420.674 112.92 420.898 113.143 421.174 113.143C421.45 113.143 421.674 112.92 421.674 112.644V93.7054H423C424.105 93.7054 425 92.8115 425 91.7088V67.7539C425 66.6513 424.105 65.7574 423 65.7574H421.674L421.674 59.5Z" fill="#13C8A4"/>
<path d="M346.326 67.3846C346.326 67.109 346.102 66.8855 345.826 66.8855C345.549 66.8855 345.326 67.109 345.326 67.3846L345.326 80.4662H344C342.895 80.4662 342 81.3601 342 82.4628V106.418C342 107.52 342.895 108.414 344 108.414H345.326V144.852C345.326 145.128 345.549 145.351 345.826 145.351C346.102 145.351 346.326 145.128 346.326 144.852V108.414H347.651C348.756 108.414 349.651 107.52 349.651 106.418V82.4628C349.651 81.3601 348.756 80.4662 347.651 80.4662H346.326L346.326 67.3846Z" fill="#13C8A4"/>
<path d="M321.325 50.4137C321.325 50.138 321.102 49.9146 320.825 49.9146C320.549 49.9146 320.325 50.138 320.325 50.4137L320.325 66.7043H319C317.895 66.7043 317 67.5982 317 68.7009V99.5117C317 100.614 317.895 101.508 319 101.508H320.325V120.115C320.325 120.391 320.549 120.615 320.825 120.615C321.102 120.615 321.325 120.391 321.325 120.115V101.508H322.651C323.756 101.508 324.651 100.614 324.651 99.5117V68.7009C324.651 67.5982 323.756 66.7043 322.651 66.7043H321.325L321.325 50.4137Z" fill="#13C8A4"/>
<path d="M309.264 82.8761C309.264 82.6004 309.04 82.377 308.764 82.377C308.488 82.377 308.264 82.6004 308.264 82.8761L308.264 96.6276H306.938C305.834 96.6276 304.938 97.5215 304.938 98.6242V119.468C304.938 120.571 305.834 121.464 306.938 121.464H308.264V124.563C308.264 124.838 308.488 125.062 308.764 125.062C309.04 125.062 309.264 124.838 309.264 124.563V121.464H310.589C311.694 121.464 312.589 120.571 312.589 119.468V98.6242C312.589 97.5215 311.694 96.6276 310.589 96.6276H309.264L309.264 82.8761Z" fill="#EE7D8B"/>
<path d="M296.794 106.318C296.794 106.042 296.571 105.819 296.294 105.819C296.018 105.819 295.794 106.042 295.794 106.318L295.794 110.973H294.469C293.364 110.973 292.469 111.867 292.469 112.969V117.384C292.469 118.487 293.364 119.381 294.469 119.381H295.794V131.363C295.794 131.638 296.018 131.862 296.294 131.862C296.571 131.862 296.794 131.638 296.794 131.363V119.381H298.12C299.225 119.381 300.12 118.487 300.12 117.384V112.969C300.12 111.867 299.225 110.973 298.12 110.973H296.794L296.794 106.318Z" fill="#EE7D8B"/>
<path d="M372.934 102.939H371.609L371.609 97.5458C371.609 97.2701 371.385 97.0466 371.109 97.0466C370.833 97.0466 370.609 97.2701 370.609 97.5458L370.609 102.939H369.283C368.179 102.939 367.283 103.833 367.283 104.935L367.283 144.169C367.283 145.272 368.179 146.166 369.283 146.166H370.609L370.609 189.157C370.609 189.433 370.833 189.657 371.109 189.657C371.385 189.657 371.609 189.433 371.609 189.157L371.609 146.166H372.934C374.039 146.166 374.934 145.272 374.934 144.169L374.934 104.935C374.934 103.833 374.039 102.939 372.934 102.939Z" fill="#EE7D8B"/>
<path d="M335.528 88.3772H334.202L334.202 85.6233C334.202 85.3476 333.978 85.1241 333.702 85.1241C333.426 85.1241 333.202 85.3476 333.202 85.6233L333.202 88.3772H331.876C330.772 88.3772 329.876 89.2711 329.876 90.3738L329.876 108.454C329.876 109.557 330.772 110.451 331.876 110.451H333.203L333.203 132.404C333.203 132.68 333.426 132.903 333.703 132.903C333.979 132.903 334.203 132.68 334.203 132.404L334.203 110.451H335.528C336.632 110.451 337.528 109.557 337.528 108.454L337.528 90.3738C337.528 89.2711 336.632 88.3772 335.528 88.3772Z" fill="#EE7D8B"/>
<path d="M360.465 81.8667H359.14L359.14 68.7439C359.14 68.4682 358.916 68.2448 358.64 68.2448C358.364 68.2448 358.14 68.4682 358.14 68.7439L358.14 81.8667H356.814C355.71 81.8667 354.814 82.7606 354.814 83.8633L354.814 156.984C354.814 158.086 355.71 158.98 356.814 158.98H358.14V174.202C358.14 174.477 358.364 174.701 358.64 174.701C358.916 174.701 359.14 174.477 359.14 174.202V158.98H360.465C361.57 158.98 362.465 158.086 362.465 156.984L362.465 83.8633C362.465 82.7606 361.57 81.8667 360.465 81.8667Z" fill="#EE7D8B"/>
<path d="M201 135.268L244 111.809H240V97.3334H257L259.5 104.821C257.833 107.815 255.3 113.406 258.5 111.809C262.5 109.812 279 113.805 287 113.805C293.4 113.805 327.167 134.936 341 144.752L333 160.226L257 184.684L204 145.75L201 135.268Z" fill="#13C8A4"/>
<path d="M182.271 244.082C180.584 252.975 177.517 259.262 173.99 264.015C173.683 264.475 173.377 264.782 173.07 265.242C172.303 266.162 171.536 266.929 170.77 267.695C170.31 268.155 170.003 268.462 169.543 268.769C165.402 272.449 160.955 274.595 157.121 276.282C147.46 280.422 147 291.002 147 291.002L222.756 290.542C221.836 277.968 221 247.576 221 247.576C205.205 242.976 198.373 246.689 182.271 244.082Z" fill="black"/>
<path d="M173.837 264.015C173.53 264.475 173.224 264.782 172.917 265.242C175.984 266.622 179.051 268.155 182.118 269.535C183.038 269.995 183.805 268.615 182.885 268.309C179.818 266.775 176.904 265.395 173.837 264.015Z" fill="white"/>
<path d="M170.617 267.695C170.157 268.155 169.851 268.462 169.39 268.769C172.764 270.455 176.291 271.989 179.665 273.675C180.585 274.135 181.352 272.755 180.432 272.448C177.212 270.762 173.838 269.229 170.617 267.695Z" fill="white"/>
<path d="M81.8026 229.424C75.9594 236.345 70.1956 240.318 64.7852 242.731C64.2918 242.981 63.8738 243.098 63.3804 243.348C62.2599 243.774 61.2149 244.066 60.1699 244.358C59.5429 244.533 59.1248 244.65 58.5732 244.692C53.1562 245.869 48.2262 245.559 44.0567 245.149C33.6039 244.021 28 253.013 28 253.013L94.2243 289.741C99.6061 278.337 112 255.063 112 255.063C100.502 243.314 94.5486 239.586 81.8026 229.424Z" fill="black"/>
<path d="M64.6521 242.655C64.1587 242.906 63.7406 243.023 63.2472 243.273C65.2405 245.979 67.1584 248.818 69.1517 251.523C69.7271 252.375 71.0738 251.548 70.423 250.83C68.5051 247.991 66.6454 245.361 64.6521 242.655Z" fill="white"/>
<path d="M60.0371 244.283C59.4101 244.459 58.992 244.576 58.4404 244.617C60.5501 247.74 62.8688 250.805 64.9785 253.928C65.5539 254.779 66.9006 253.953 66.2498 253.235C64.2737 250.187 62.0886 247.198 60.0371 244.283Z" fill="white"/>
<path d="M177 166.215V250.571L223.5 251.07V226.113H266C282.4 220.922 282.833 204.982 281 197.662L262 181.689L215.5 148.745C215.5 148.745 206.4 141.857 194 144.253C181.6 146.649 177.5 159.893 177 166.215Z" fill="white"/>
<path fill-rule="evenodd" clip-rule="evenodd" d="M223.272 210.694C223.439 210.609 223.64 210.624 223.792 210.734L245.292 226.207C245.468 226.334 245.542 226.559 245.476 226.765C245.409 226.971 245.217 227.111 245 227.111H223.5C223.224 227.111 223 226.888 223 226.612V211.138C223 210.951 223.105 210.779 223.272 210.694ZM224 212.114V226.113H243.451L224 212.114Z" fill="black"/>
<path d="M113.5 257.06L73 234.099C78.6667 224.116 90.5 203.252 92.5 199.658C95 195.166 104 179.692 108 173.703C112 167.713 121.5 166.714 124.5 166.714C126.9 166.714 160.5 171.373 177 173.703V176.198L153.5 218.126C148.333 217.295 137.7 215.731 136.5 216.13C135.3 216.529 120.667 243.583 113.5 257.06Z" fill="white"/>
<path fill-rule="evenodd" clip-rule="evenodd" d="M224.5 227.61H251.582L256.953 290.003L1 290.003C0.447715 290.003 0 290.45 0 291.002C0 291.553 0.447715 292 1 292L420 292C420.552 292 421 291.553 421 291.002C421 290.45 420.552 290.003 420 290.003H326.467L322.007 226.68L332.479 176.402L330.521 175.995L320.187 225.614H269.98C276.145 222.642 279.573 217.93 281.282 213.013C283.288 207.244 282.923 201.226 281.97 197.419C281.919 197.216 281.805 197.033 281.644 196.898L262.644 180.925C262.623 180.908 262.601 180.891 262.579 180.875L216.092 147.941L216.067 147.922C216.046 147.907 216.016 147.885 215.977 147.857C215.9 147.802 215.788 147.724 215.644 147.626C215.354 147.431 214.931 147.16 214.387 146.844C213.3 146.212 211.724 145.4 209.749 144.665C205.801 143.197 200.236 142.031 193.81 143.273C187.257 144.539 182.919 148.678 180.179 153.249C177.45 157.803 176.263 162.849 176.003 166.137C176.001 166.163 176 166.189 176 166.215V250.571C176 251.118 176.441 251.563 176.989 251.569L223.489 252.068C223.756 252.071 224.013 251.967 224.203 251.78C224.393 251.592 224.5 251.337 224.5 251.07V227.61ZM194.19 145.233C200.164 144.079 205.349 145.159 209.051 146.536C210.901 147.224 212.375 147.984 213.381 148.569C213.884 148.861 214.27 149.109 214.526 149.282C214.654 149.368 214.75 149.435 214.812 149.48C214.843 149.502 214.866 149.519 214.88 149.529L214.894 149.54L214.896 149.541C214.905 149.547 214.913 149.553 214.921 149.559L261.388 182.479L280.105 198.214C280.137 198.353 280.169 198.494 280.199 198.639C261.329 185.448 225.012 159.985 218.8 155.334C214.753 152.304 211.043 150.631 207.111 150.245C203.185 149.86 199.097 150.764 194.306 152.778C190.351 154.44 187.654 157.886 185.889 161.452C184.122 165.022 183.258 168.774 183.003 171.154L183 171.18V249.637L178 249.583V166.255C178.246 163.219 179.361 158.504 181.896 154.274C184.431 150.044 188.343 146.363 194.19 145.233ZM184 249.648L192.5 249.739V184.52L192.503 184.494C192.75 182.14 193.588 178.429 195.301 174.898C197.011 171.371 199.627 167.959 203.466 166.313C208.112 164.32 212.079 163.424 215.891 163.806C219.708 164.188 223.308 165.845 227.232 168.844C231.354 171.992 246.267 182.553 261.025 193.003C267.96 197.914 274.861 202.801 280.592 206.883C280.852 204.395 280.745 202.026 280.449 200.032C261.842 187.028 224.521 160.865 218.2 156.133C214.247 153.173 210.707 151.601 207.014 151.239C203.315 150.875 199.403 151.718 194.694 153.698C191.049 155.23 188.496 158.439 186.786 161.894C185.084 165.332 184.248 168.953 184 171.234V249.648ZM204.5 249.868L193.5 249.75V184.572C193.741 182.316 194.551 178.734 196.201 175.333C197.859 171.914 200.332 168.743 203.861 167.23C208.424 165.273 212.212 164.441 215.791 164.799C219.366 165.157 222.794 166.71 226.625 169.636C230.761 172.796 245.711 183.383 260.484 193.844C267.588 198.875 274.65 203.876 280.45 208.009C280.237 209.448 279.895 210.914 279.393 212.359C278.978 213.551 278.454 214.731 277.799 215.873C272.264 211.93 264.13 206.219 256.138 200.607C244.603 192.507 233.362 184.614 230.661 182.55C227.716 180.3 225.004 179.048 222.121 178.759C219.242 178.471 216.255 179.148 212.772 180.642C209.863 181.89 207.891 184.471 206.606 187.121C205.318 189.775 204.689 192.563 204.503 194.335L204.5 194.361V249.868ZM205.5 249.879L213.5 249.964V205.052L213.503 205.026C213.651 203.626 214.15 201.428 215.172 199.335C216.191 197.246 217.763 195.197 220.089 194.206C222.845 193.031 225.22 192.493 227.514 192.722C229.813 192.951 231.97 193.942 234.303 195.714C237.058 197.806 251.335 207.896 262.676 215.912L262.677 215.913L262.688 215.92C266.104 218.335 269.253 220.56 271.74 222.322C274.136 220.728 275.94 218.807 277.279 216.728C271.774 212.807 263.646 207.099 255.645 201.481L255.636 201.475L255.625 201.468L255.619 201.463L255.617 201.461C244.056 193.343 232.768 185.417 230.053 183.343C227.202 181.164 224.662 180.017 222.021 179.752C219.375 179.487 216.567 180.101 213.167 181.56C210.569 182.674 208.738 185.014 207.506 187.556C206.282 190.08 205.679 192.739 205.5 194.413V249.879ZM222.5 250.061L214.5 249.975V205.105C214.641 203.803 215.113 201.734 216.071 199.772C217.037 197.792 218.466 195.983 220.482 195.124C223.155 193.984 225.352 193.51 227.415 193.715C229.473 193.92 231.459 194.808 233.697 196.508C236.468 198.612 250.782 208.729 262.128 216.748L262.145 216.76L262.167 216.775C265.41 219.067 268.409 221.187 270.825 222.897C269.371 223.76 267.719 224.51 265.844 225.115H252.086L224.068 205.824L224 205.922V202.653C224 202.377 223.776 202.154 223.5 202.154C223.224 202.154 223 202.377 223 202.653V207.37L222.932 207.468L223 207.515V213.135C223 213.411 223.224 213.634 223.5 213.634V225.115C222.948 225.115 222.5 225.562 222.5 226.113V250.061ZM224 211.498L242.919 225.115H248.564L224 208.203V211.498ZM324.462 290.003L320.068 227.61H278.299L264.139 290.003L324.462 290.003ZM262.088 290.003L276.248 227.61H253.59L258.961 290.003H262.088Z" fill="black"/>
<path fill-rule="evenodd" clip-rule="evenodd" d="M116.331 167.008C119.693 165.975 122.92 165.716 124.5 165.716C124.869 165.716 125.723 165.798 126.879 165.927C128.067 166.06 129.646 166.252 131.521 166.488C135.271 166.962 140.215 167.618 145.597 168.346C156.362 169.802 168.889 171.549 177.14 172.714C177.633 172.784 178 173.205 178 173.703V176.198C178 176.369 177.956 176.537 177.873 176.686L177 178.243L177 222.611L153.393 219.119C153.376 219.117 153.358 219.115 153.341 219.112L153.286 219.103L149.769 218.583L149.784 218.559C147.745 218.251 145.473 217.926 143.384 217.657C141.663 217.435 140.077 217.253 138.853 217.151C138.24 217.1 137.731 217.071 137.348 217.065C137.184 217.063 137.053 217.065 136.952 217.07C136.939 217.086 136.925 217.103 136.911 217.122C136.761 217.313 136.556 217.604 136.297 217.998C135.782 218.782 135.093 219.907 134.27 221.305C132.624 224.096 130.464 227.927 128.113 232.174C123.412 240.665 117.965 250.792 114.383 257.528C114.257 257.766 114.039 257.943 113.779 258.018C113.52 258.094 113.241 258.061 113.006 257.928L72.5062 234.967C72.0262 234.695 71.8579 234.086 72.13 233.607C77.7984 223.621 89.6285 202.762 91.6258 199.173C94.1281 194.677 103.144 179.174 107.168 173.149C109.353 169.877 112.984 168.036 116.331 167.008ZM176 174.57V175.831L174.595 178.121C159.267 175.601 128.317 170.608 123.542 170.21C120.405 169.949 117.425 170.994 114.991 172.464C112.559 173.934 110.628 175.855 109.584 177.419C108 179.79 86.6117 215.846 75.6095 234.43L74.3625 233.724C80.1933 223.451 91.4278 203.64 93.3741 200.143C95.8719 195.655 104.856 180.211 108.832 174.256C110.647 171.538 113.766 169.885 116.919 168.916C120.057 167.953 123.08 167.713 124.5 167.713C124.731 167.713 125.452 167.777 126.657 167.911C127.831 168.042 129.399 168.233 131.27 168.469C135.011 168.942 139.948 169.596 145.328 170.324C155.721 171.73 167.758 173.407 176 174.57ZM76.4792 234.924C87.4978 216.311 108.852 180.314 110.416 177.973C111.372 176.542 113.191 174.719 115.509 173.318C117.825 171.919 120.595 170.967 123.458 171.205C128.141 171.595 158.541 176.495 174.031 179.041L169.845 185.863C158.802 184.258 138.795 181.315 132.082 180.198C122.811 178.656 117.142 184.32 115.084 187.402C113.496 189.779 93.9265 222.488 83.9672 239.169L76.4792 234.924ZM131.918 181.183C138.557 182.287 158.155 185.171 169.277 186.789L165.393 193.118C156.876 191.84 143.423 189.868 137.558 189.179C133.216 188.669 129.863 189.433 127.268 190.793C124.677 192.151 122.873 194.086 121.593 195.874C120.578 197.293 115.437 205.764 109.446 215.736C103.652 225.38 97.0422 236.463 92.5427 244.03L84.837 239.662C94.8126 222.954 114.347 190.305 115.916 187.955C117.858 185.047 123.189 179.731 131.918 181.183ZM93.4124 244.523L101.117 248.891C108.964 235.614 124.23 209.894 126.584 206.369C129.663 201.759 134.29 199.181 138.438 198.664C139.491 198.532 141.065 198.567 142.903 198.7C144.752 198.834 146.902 199.069 149.125 199.35C153.056 199.847 157.23 200.491 160.389 200.979L160.555 201.004L164.826 194.043C156.294 192.764 143.194 190.847 137.442 190.171C133.284 189.683 130.137 190.417 127.732 191.677C125.323 192.94 123.627 194.748 122.407 196.454C121.422 197.83 116.313 206.247 110.304 216.249C104.515 225.885 97.9113 236.958 93.4124 244.523ZM110.068 253.966L101.987 249.384C109.847 236.085 125.082 210.417 127.416 206.923C130.337 202.548 134.71 200.135 138.562 199.654C139.509 199.536 140.998 199.563 142.831 199.696C144.654 199.827 146.785 200.06 149 200.34C152.814 200.823 156.861 201.445 159.989 201.927L156.017 208.4C153.833 208.125 151.722 207.895 149.903 207.763C148.065 207.631 146.491 207.596 145.438 207.727C141.29 208.245 136.663 210.823 133.584 215.433C131.227 218.963 117.825 240.87 110.068 253.966ZM110.938 254.459L113.099 255.685C116.679 248.963 121.861 239.339 126.362 231.208C128.716 226.957 130.886 223.107 132.546 220.292C133.375 218.886 134.083 217.728 134.625 216.903C134.895 216.492 135.135 216.148 135.335 215.893C135.434 215.766 135.537 215.643 135.64 215.54L135.642 215.538C135.708 215.472 135.903 215.276 136.184 215.183C136.381 215.117 136.595 215.093 136.761 215.082C136.945 215.069 137.154 215.065 137.378 215.069C137.826 215.075 138.386 215.109 139.019 215.162C140.288 215.267 141.908 215.453 143.641 215.676C146.036 215.985 148.666 216.367 150.918 216.711L155.444 209.334C153.43 209.085 151.501 208.88 149.831 208.759C147.998 208.627 146.509 208.599 145.562 208.718C141.71 209.198 137.337 211.612 134.416 215.986C132.077 219.489 118.697 241.359 110.938 254.459Z" fill="black"/>
<path d="M252 167.214H254.5C256.33 161.128 258.509 158.701 264 155.733L264.5 145.251C271.7 146.449 273.833 151.075 274 153.238C293.5 150.243 304.5 154.236 310.5 161.224L300.5 176.697L313.445 193.313C314.052 194.091 313.998 195.196 313.318 195.912L306.886 202.69C306.122 203.495 304.848 203.525 304.048 202.756L292.5 191.672H276.5L264.412 202.845C263.624 203.574 262.399 203.551 261.639 202.792L255.414 196.578C254.633 195.798 254.633 194.534 255.414 193.754L260.5 188.677C256.9 186.281 255.333 182.022 255 180.191H252C250.895 180.191 250 179.298 250 178.195V169.21C250 168.108 250.895 167.214 252 167.214Z" fill="#EE7D8B"/>
<path fill-rule="evenodd" clip-rule="evenodd" d="M264 155.234C264.276 155.234 264.5 155.458 264.5 155.733V161.723C264.5 161.999 264.276 162.222 264 162.222C263.724 162.222 263.5 161.999 263.5 161.723V155.733C263.5 155.458 263.724 155.234 264 155.234Z" fill="black"/>
<path fill-rule="evenodd" clip-rule="evenodd" d="M296.5 155.234C296.5 155.51 296.276 155.733 296 155.733H276C275.724 155.733 275.5 155.51 275.5 155.234C275.5 154.959 275.724 154.735 276 154.735H296C296.276 154.735 296.5 154.959 296.5 155.234Z" fill="black"/>
<path d="M268 167.713C268 168.54 267.328 169.21 266.5 169.21C265.672 169.21 265 168.54 265 167.713C265 166.886 265.672 166.215 266.5 166.215C267.328 166.215 268 166.886 268 167.713Z" fill="black"/>
<path fill-rule="evenodd" clip-rule="evenodd" d="M254.724 167.266C254.971 167.39 255.071 167.689 254.947 167.936C254.798 168.234 254.5 169.019 254.5 169.709C254.5 169.985 254.276 170.208 254 170.208C253.724 170.208 253.5 169.985 253.5 169.709C253.5 168.802 253.869 167.857 254.053 167.49C254.176 167.243 254.477 167.143 254.724 167.266Z" fill="black"/>
<path d="M266.274 83.3005C266.202 73.3705 258.833 65.2345 249.886 65.1839C240.938 65.1333 233.648 73.0305 233.72 82.9605C233.72 82.9605 233.72 82.9605 233.67 83.0728C232.718 83.0414 231.829 83.1749 231.17 83.4135C225.98 84.8212 224.703 89.7918 227.65 93.0462C230.242 95.8657 234.8 97.6922 239.011 95.6989C242.06 98.7288 246.009 100.682 250.108 101.077C262.801 102.309 266.347 93.2304 266.274 83.3005Z" fill="white"/>
<path d="M230.827 96.4062C229.342 95.7226 228.008 94.7022 227.004 93.5624C225.467 91.7704 224.919 89.6203 225.489 87.442C226.159 85.0391 228.201 83.2672 231.068 82.4178C231.678 82.2914 232.287 82.165 233.01 82.0912C233.069 77.3734 234.817 72.8903 237.847 69.5398C241.093 66.0174 245.419 64.0768 249.95 64.1284C254.595 64.2326 258.938 66.2309 262.126 69.8676C265.315 73.5043 267.211 78.1725 267.279 83.2199C267.336 90.4316 265.564 95.5811 262.191 98.7738C259.35 101.398 255.264 102.5 250.263 101.961C246.163 101.566 242.164 99.7254 238.95 96.7552C235.981 97.8292 233.113 97.458 230.827 96.4062ZM255.639 67.4243C253.81 66.5829 251.944 66.1308 249.876 66.1277C245.789 66.0094 241.957 67.771 239.143 70.9496C236.328 74.1281 234.682 78.3867 234.673 82.9922L234.712 83.8235L233.824 83.957C232.986 83.9782 232.098 84.1117 231.489 84.2381C229.281 84.849 227.721 86.1647 227.304 88.0063C226.874 89.5708 227.281 91.114 228.399 92.3063C230.585 94.8033 234.749 96.5842 238.745 94.7629L239.291 94.4716L239.761 94.959C242.581 97.8838 246.301 99.7315 250.287 100.074C254.78 100.515 258.371 99.592 260.895 97.3641C263.951 94.5678 265.52 89.8673 265.489 83.2098C265.498 78.6043 263.844 74.3184 260.896 71.064C259.258 69.4964 257.467 68.2657 255.639 67.4243Z" fill="black"/>
<path d="M252.854 84.3395C253.494 84.6113 254.224 84.3224 254.485 83.6941C254.746 83.0658 254.439 82.3361 253.8 82.0643C253.16 81.7925 252.43 82.0815 252.169 82.7097C251.908 83.338 252.215 84.0677 252.854 84.3395Z" fill="black"/>
<path d="M262.397 88.5813C261.988 85.8168 261.248 83.1717 260.064 80.5933C259.695 79.8812 258.539 80.2991 258.908 81.0112C260.029 83.4246 260.768 86.0697 261.228 88.7219C261.317 89.4411 262.486 89.3004 262.397 88.5813Z" fill="black"/>
<path d="M258.523 71.6179C254.787 73.1556 239.573 73.4861 241.525 81.7058C241.959 83.8037 243.079 84.9962 241.11 85.9896C239.013 86.6533 238.401 84.3379 238.401 84.3379C235.858 83.8474 232.986 83.4763 231.219 84.0206C227.488 76.068 230.431 69.5556 234.142 68.6845C234.142 68.6845 260.362 53.479 265.111 62.8487C269.199 71.2362 258.523 71.6179 258.523 71.6179Z" fill="black"/>
<path d="M238.127 89.3857C236.248 87.1621 232.997 86.4714 230.39 87.7042C229.684 88.0554 230.126 89.2079 230.831 88.8568C232.948 87.8032 235.518 88.1792 237.106 90.1333C237.636 90.7846 238.543 89.9846 238.127 89.3857Z" fill="black"/>
<path d="M258.545 103.81C255.889 104.574 250.167 109.22 247.638 111.447L197.375 113.833C192.95 113.833 184.288 116.697 185.047 128.152C185.995 142.471 204.488 140.561 208.756 139.607C213.023 138.652 239.494 128.224 247.164 129.107C253 129.778 257.5 127.282 259 125.785C260.988 123.8 260.441 123.379 264.235 120.993C268.028 118.606 276.563 121.47 277.512 120.993C278.46 120.515 279.883 119.561 278.46 117.652C277.322 116.124 271.347 114.47 268.502 113.833C272.454 113.038 280.641 111.351 281.779 110.97C283.202 110.492 285.099 109.06 283.202 106.674C281.685 104.765 272.77 105.879 268.502 106.674C271.506 105.719 278.081 103.619 280.357 102.856C283.202 101.901 282.728 99.992 280.357 98.5602C277.986 97.1283 261.864 102.856 258.545 103.81Z" fill="white"/>
<path fill-rule="evenodd" clip-rule="evenodd" d="M261.91 103.689C260.542 104.131 259.436 104.489 258.794 104.674C258.25 104.83 257.478 105.211 256.544 105.78C255.626 106.338 254.606 107.043 253.579 107.802C251.526 109.319 249.483 111.02 248.234 112.121C248.081 112.256 247.886 112.335 247.681 112.344L197.418 114.731C197.404 114.731 197.39 114.732 197.375 114.732C195.319 114.732 192.265 115.405 189.838 117.392C187.458 119.34 185.583 122.629 185.945 128.093C186.168 131.459 187.41 133.808 189.169 135.463C190.947 137.136 193.314 138.156 195.855 138.731C200.957 139.885 206.504 139.19 208.559 138.73C209.563 138.505 211.953 137.699 215.186 136.59C215.518 136.476 215.859 136.359 216.206 136.24C219.208 135.209 222.764 133.988 226.407 132.813C230.47 131.502 234.657 130.243 238.317 129.367C241.935 128.501 245.172 127.973 247.267 128.214C252.821 128.853 257.051 126.46 258.364 125.149C258.904 124.61 259.255 124.171 259.588 123.754C260.359 122.79 261.036 121.943 263.755 120.232C264.889 119.519 266.31 119.234 267.727 119.156C269.155 119.077 270.67 119.204 272.058 119.386C273.088 119.521 274.077 119.691 274.915 119.836C275.202 119.885 275.471 119.931 275.718 119.972C276.213 120.054 276.608 120.112 276.9 120.136C277.036 120.148 277.129 120.15 277.189 120.148C277.614 119.926 277.944 119.685 278.087 119.425C278.147 119.316 278.177 119.198 278.154 119.038C278.129 118.862 278.032 118.583 277.738 118.188C277.591 117.991 277.178 117.68 276.423 117.305C275.708 116.949 274.806 116.594 273.829 116.258C271.877 115.587 269.705 115.023 268.306 114.71C267.891 114.617 267.598 114.248 267.602 113.824C267.607 113.4 267.908 113.036 268.324 112.953C270.298 112.555 273.33 111.935 276.009 111.367C278.729 110.791 280.987 110.288 281.493 110.118C282.109 109.911 282.699 109.532 282.956 109.088C283.071 108.89 283.125 108.673 283.089 108.409C283.05 108.132 282.901 107.741 282.497 107.232C282.448 107.171 282.311 107.055 281.99 106.933C281.679 106.815 281.263 106.717 280.744 106.647C279.706 106.506 278.379 106.489 276.926 106.557C274.028 106.694 270.775 107.164 268.668 107.557C268.2 107.644 267.746 107.353 267.63 106.893C267.514 106.433 267.776 105.962 268.229 105.818C271.235 104.862 277.803 102.765 280.07 102.004C281.379 101.565 281.426 101.089 281.415 100.955C281.405 100.815 281.326 100.585 281.069 100.28C280.815 99.9791 280.425 99.6511 279.891 99.3288M278.846 97.4374C279.531 97.4157 280.282 97.4645 280.823 97.7914C281.475 98.185 282.033 98.6326 282.446 99.1224C282.855 99.6081 283.162 100.183 283.21 100.819C283.319 102.236 282.18 103.192 280.644 103.707C279.932 103.946 278.805 104.314 277.498 104.737C278.761 104.699 279.968 104.728 280.987 104.866C281.584 104.948 282.146 105.07 282.629 105.253C283.104 105.433 283.576 105.7 283.907 106.116C284.451 106.8 284.777 107.483 284.871 108.161C284.968 108.852 284.815 109.47 284.514 109.988C283.942 110.975 282.872 111.551 282.066 111.821C281.434 112.033 279.029 112.564 276.383 113.125C275.108 113.395 273.755 113.677 272.473 113.941C273.12 114.133 273.777 114.34 274.414 114.559C275.429 114.907 276.412 115.292 277.225 115.696C277.999 116.08 278.76 116.548 279.182 117.115C279.599 117.675 279.858 118.231 279.937 118.786C280.018 119.356 279.9 119.865 279.663 120.293C279.223 121.091 278.401 121.551 277.917 121.795C277.686 121.911 277.443 121.935 277.294 121.942C277.121 121.951 276.934 121.943 276.749 121.927C276.378 121.896 275.921 121.827 275.424 121.745C275.157 121.701 274.875 121.652 274.58 121.601C273.749 121.458 272.814 121.298 271.823 121.167C270.484 120.992 269.094 120.88 267.826 120.95C266.546 121.021 265.477 121.273 264.715 121.753C262.251 123.302 261.787 123.891 261.103 124.758C260.761 125.191 260.364 125.693 259.636 126.42C257.949 128.104 253.18 130.703 247.061 129.999C245.321 129.799 242.373 130.244 238.737 131.114C235.143 131.975 231.008 133.217 226.961 134.523C223.335 135.692 219.794 136.908 216.792 137.939C216.444 138.058 216.104 138.175 215.771 138.289C212.601 139.376 210.082 140.231 208.953 140.484C206.74 140.978 200.906 141.715 195.458 140.483C192.724 139.865 190.023 138.736 187.934 136.77C185.825 134.786 184.4 132.004 184.149 128.211C183.752 122.22 185.829 118.35 188.696 116.002C191.508 113.701 194.984 112.94 197.354 112.935L247.281 110.564C248.572 109.439 250.531 107.818 252.509 106.357C253.56 105.581 254.627 104.842 255.607 104.245C256.572 103.658 257.512 103.172 258.295 102.947C258.907 102.771 259.968 102.428 261.323 101.99C261.767 101.846 262.242 101.692 262.743 101.531C264.761 100.881 267.172 100.117 269.556 99.4273C271.935 98.7388 274.31 98.1174 276.251 97.7587C277.22 97.5797 278.107 97.4609 278.846 97.4374Z" fill="black"/>
<path d="M325 146.749C321.8 149.145 300.5 170.209 296.5 174.701C293 176.198 279.4 181.789 277 182.188C274 182.687 264 192.171 263.5 193.668C263 195.166 264.5 196.164 266 196.164C267.5 196.164 274.5 191.173 275.5 190.174C276.5 189.176 279.5 188.677 278.5 190.174C277.5 191.672 271 196.164 269.5 199.159C268 202.154 270.4 203.352 272 202.154C274 200.656 278.333 197.495 280.5 195.166C282.333 194.001 285.4 192.57 283 196.164C280 200.656 275.5 202.653 276.5 204.65C277.5 206.646 281.65 204.999 284.5 202.154C287 199.658 293 194.667 295.5 194.168C298 193.668 303.5 193.668 305 192.67C306.5 191.672 308 191.173 310.5 189.176C313 187.179 340 171.706 344.5 168.212C349 164.718 350 157.73 344.5 148.745C339 139.761 329 143.754 325 146.749Z" fill="white"/>
<path fill-rule="evenodd" clip-rule="evenodd" d="M334.248 144.151C330.777 144.386 327.44 146.045 325.54 147.468C324.792 148.028 322.905 149.749 320.38 152.146C317.875 154.523 314.792 157.517 311.682 160.578C305.451 166.711 299.149 173.078 297.173 175.298C297.085 175.397 296.976 175.475 296.855 175.527C295.096 176.279 290.813 178.054 286.669 179.692C284.597 180.51 282.553 181.297 280.874 181.905C279.232 182.499 277.847 182.958 277.148 183.074C276.928 183.111 276.552 183.253 276.015 183.549C275.495 183.836 274.888 184.232 274.221 184.711C272.888 185.669 271.367 186.926 269.912 188.224C268.459 189.521 267.086 190.845 266.051 191.932C265.532 192.477 265.107 192.953 264.8 193.331C264.647 193.52 264.531 193.676 264.45 193.797C264.375 193.909 264.353 193.959 264.352 193.958C264.352 193.958 264.353 193.956 264.354 193.952C264.233 194.313 264.328 194.571 264.593 194.802C264.9 195.07 265.427 195.266 266 195.266C266 195.266 266 195.266 266.001 195.265C266.017 195.263 266.152 195.241 266.455 195.117C266.749 194.996 267.117 194.815 267.544 194.581C268.394 194.115 269.417 193.475 270.438 192.796C271.457 192.118 272.46 191.409 273.268 190.81C274.097 190.195 274.668 189.734 274.864 189.539C275.23 189.173 275.726 188.898 276.194 188.71C276.671 188.517 277.197 188.383 277.675 188.343C277.914 188.323 278.17 188.324 278.415 188.369C278.65 188.412 278.959 188.509 279.214 188.751C279.505 189.027 279.631 189.403 279.595 189.785C279.565 190.123 279.415 190.424 279.249 190.673C278.92 191.166 278.224 191.808 277.477 192.464C277.081 192.811 276.616 193.208 276.129 193.624C275.685 194.002 275.223 194.397 274.779 194.783C273.816 195.62 272.855 196.489 272.046 197.326C271.226 198.175 270.617 198.938 270.305 199.561C269.649 200.87 270.006 201.403 270.173 201.547C270.404 201.744 270.928 201.833 271.46 201.435C271.636 201.303 271.829 201.16 272.035 201.006C274.216 199.379 277.925 196.614 279.84 194.554C279.893 194.498 279.952 194.449 280.017 194.408C280.497 194.103 281.065 193.776 281.614 193.514C282.133 193.267 282.742 193.026 283.268 192.985C283.524 192.965 283.933 192.977 284.288 193.244C284.701 193.554 284.8 194.015 284.778 194.382C284.757 194.725 284.633 195.08 284.472 195.423C284.304 195.78 284.063 196.191 283.749 196.662C282.394 198.691 280.741 200.239 279.454 201.444C279.25 201.636 279.055 201.818 278.871 201.993C278.175 202.656 277.698 203.157 277.441 203.58C277.206 203.965 277.243 204.124 277.305 204.248C277.397 204.432 277.554 204.564 277.898 204.613C278.278 204.667 278.827 204.602 279.515 204.367C280.882 203.901 282.518 202.862 283.864 201.519C285.145 200.239 287.3 198.342 289.453 196.698C290.531 195.876 291.621 195.107 292.611 194.507C293.576 193.923 294.534 193.444 295.323 193.287C296.278 193.096 297.654 192.973 299.031 192.851C299.54 192.806 300.048 192.761 300.535 192.712C301.467 192.619 302.339 192.513 303.063 192.373C303.821 192.226 304.288 192.064 304.501 191.923C305.051 191.556 305.622 191.242 306.197 190.925C306.44 190.791 306.685 190.656 306.928 190.517C307.773 190.036 308.732 189.437 309.938 188.474C310.621 187.928 312.847 186.547 315.768 184.781C318.031 183.412 320.762 181.783 323.628 180.073C324.505 179.549 325.395 179.018 326.288 178.485C333.949 173.908 341.754 169.206 343.947 167.503C345.975 165.929 347.235 163.562 347.351 160.504C347.467 157.424 346.42 153.605 343.732 149.214C341.181 145.046 337.649 143.921 334.248 144.151ZM334.127 142.358C338.101 142.089 342.319 143.46 345.268 148.277C348.08 152.87 349.283 157.037 349.149 160.572C349.015 164.127 347.525 167.001 345.053 168.921C342.746 170.712 334.801 175.493 327.212 180.027C326.316 180.562 325.424 181.094 324.546 181.618C321.682 183.327 318.958 184.953 316.701 186.318C313.715 188.124 311.629 189.425 311.062 189.878C309.768 190.911 308.727 191.561 307.822 192.078C307.522 192.248 307.249 192.399 306.992 192.54C306.452 192.837 305.985 193.094 305.499 193.418C304.962 193.775 304.179 193.987 303.406 194.137C302.598 194.293 301.658 194.406 300.715 194.5C300.16 194.555 299.609 194.604 299.076 194.652C297.743 194.77 296.529 194.878 295.676 195.049C295.216 195.14 294.486 195.473 293.545 196.043C292.629 196.598 291.594 197.326 290.547 198.126C288.45 199.727 286.355 201.572 285.136 202.789C283.632 204.291 281.768 205.498 280.097 206.068C279.266 206.351 278.412 206.501 277.644 206.392C276.839 206.277 276.103 205.866 275.695 205.051C275.257 204.177 275.482 203.337 275.903 202.646C276.302 201.993 276.95 201.34 277.629 200.693C277.826 200.505 278.031 200.313 278.24 200.116C279.531 198.905 281.021 197.508 282.251 195.666C282.417 195.417 282.551 195.201 282.657 195.015C282.573 195.051 282.484 195.091 282.389 195.136C281.956 195.342 281.492 195.605 281.078 195.864C279.021 198.043 275.243 200.858 273.119 202.44C272.909 202.597 272.715 202.742 272.54 202.873C271.472 203.672 269.996 203.762 269.002 202.911C267.944 202.006 267.851 200.442 268.695 198.757C269.133 197.883 269.899 196.961 270.75 196.079C271.614 195.184 272.622 194.275 273.596 193.428C274.082 193.005 274.543 192.613 274.977 192.242C275.443 191.845 275.88 191.472 276.289 191.114C276.677 190.774 276.992 190.485 277.234 190.249C277.113 190.285 276.99 190.327 276.868 190.376C276.524 190.514 276.27 190.677 276.136 190.81C275.832 191.114 275.153 191.651 274.341 192.253C273.509 192.87 272.481 193.596 271.437 194.291C270.395 194.984 269.324 195.655 268.409 196.156C267.953 196.406 267.52 196.622 267.14 196.779C266.793 196.921 266.378 197.063 266 197.063C265.073 197.063 264.1 196.759 263.407 196.154C262.672 195.511 262.267 194.521 262.646 193.384C262.717 193.174 262.84 192.968 262.952 192.8C263.074 192.617 263.227 192.415 263.401 192.2C263.749 191.771 264.21 191.257 264.746 190.694C265.82 189.566 267.229 188.208 268.713 186.884C270.195 185.561 271.768 184.26 273.169 183.253C273.87 182.749 274.54 182.31 275.144 181.977C275.729 181.654 276.322 181.39 276.852 181.302C277.353 181.218 278.568 180.828 280.26 180.216C281.916 179.616 283.941 178.837 286.006 178.021C289.999 176.443 294.119 174.738 295.962 173.953C298.121 171.558 304.332 165.29 310.418 159.299C313.533 156.233 316.625 153.231 319.139 150.844C321.633 148.477 323.608 146.668 324.46 146.03C326.56 144.458 330.223 142.623 334.127 142.358ZM283.438 194.776C283.438 194.776 283.434 194.776 283.426 194.775C283.435 194.775 283.438 194.775 283.438 194.776Z" fill="black"/>
<path d="M297 126.284C297 130.143 293.866 133.272 290 133.272C286.134 133.272 283 130.143 283 126.284C283 122.424 286.134 119.296 290 119.296C293.866 119.296 297 122.424 297 126.284Z" fill="white"/>
<path fill-rule="evenodd" clip-rule="evenodd" d="M290 119.795C286.41 119.795 283.5 122.7 283.5 126.284C283.5 129.868 286.41 132.773 290 132.773C293.59 132.773 296.5 129.868 296.5 126.284C296.5 122.7 293.59 119.795 290 119.795ZM282.5 126.284C282.5 122.149 285.858 118.797 290 118.797C294.142 118.797 297.5 122.149 297.5 126.284C297.5 130.419 294.142 133.771 290 133.771C285.858 133.771 282.5 130.419 282.5 126.284Z" fill="black"/>
<path d="M283 137.265C283 141.124 279.866 144.253 276 144.253C272.134 144.253 269 141.124 269 137.265C269 133.406 272.134 130.277 276 130.277C279.866 130.277 283 133.406 283 137.265Z" fill="white"/>
<path fill-rule="evenodd" clip-rule="evenodd" d="M276 130.776C272.41 130.776 269.5 133.681 269.5 137.265C269.5 140.849 272.41 143.754 276 143.754C279.59 143.754 282.5 140.849 282.5 137.265C282.5 133.681 279.59 130.776 276 130.776ZM268.5 137.265C268.5 133.13 271.858 129.778 276 129.778C280.142 129.778 283.5 133.13 283.5 137.265C283.5 141.4 280.142 144.752 276 144.752C271.858 144.752 268.5 141.4 268.5 137.265Z" fill="black"/>
<path d="M293 155.234C293 153.381 292.263 151.603 290.95 150.293C289.637 148.982 287.857 148.246 286 148.246C284.143 148.246 282.363 148.982 281.05 150.293C279.737 151.603 279 153.381 279 155.234L286 155.234H293Z" fill="white"/>
<path fill-rule="evenodd" clip-rule="evenodd" d="M280.697 149.94C282.103 148.536 284.011 147.747 286 147.747C287.989 147.747 289.897 148.536 291.303 149.94C292.71 151.344 293.5 153.249 293.5 155.234V155.733L278.5 155.733L278.5 155.234C278.5 153.249 279.29 151.344 280.697 149.94ZM286 148.745C284.276 148.745 282.623 149.429 281.404 150.646C280.303 151.745 279.638 153.197 279.519 154.735L292.481 154.735C292.362 153.197 291.697 151.745 290.596 150.646C289.377 149.429 287.724 148.745 286 148.745Z" fill="black"/>
<path d="M288.548 130.013L288.548 130.012C288.548 130.013 288.548 130.013 288.548 130.013ZM290.194 130.395L290.194 130.394C290.194 130.394 290.194 130.394 290.194 130.395ZM286.961 128.42C286.961 128.42 286.962 128.42 286.962 128.42L286.961 128.42ZM286.918 128.609C286.918 128.609 286.918 128.609 286.918 128.609L286.918 128.609ZM288.279 122.767C288.279 122.767 288.279 122.767 288.28 122.767L288.279 122.767ZM290.365 122.217L290.365 122.217L290.365 122.217Z" fill="black" stroke="black"/>
<path fill-rule="evenodd" clip-rule="evenodd" d="M273.479 135.434L273.484 135.431L273.489 135.427L274.926 134.566L274.933 134.562L274.939 134.558L275.168 134.421C275.667 134.122 276.31 134.282 276.609 134.779C276.908 135.276 276.748 135.917 276.251 136.217L276.248 136.218L276.248 136.218L274.197 137.448L273.117 135.651L273.131 135.643L273.142 135.636L273.479 135.434ZM273.415 134.532L274.171 134.079L273.809 133.477C273.693 133.284 273.754 133.04 273.948 132.924C274.142 132.808 274.386 132.868 274.502 133.062L274.866 133.667C275.729 133.227 276.797 133.523 277.302 134.364C277.605 134.867 277.64 135.457 277.448 135.969C277.99 136.04 278.495 136.348 278.798 136.852C279.303 137.693 279.062 138.774 278.268 139.327L278.628 139.925C278.744 140.119 278.683 140.362 278.489 140.479C278.295 140.595 278.051 140.534 277.935 140.341L277.577 139.747L276.822 140.2L277.179 140.794C277.295 140.987 277.234 141.231 277.04 141.347C276.846 141.464 276.602 141.403 276.486 141.209L276.129 140.615C276.127 140.617 276.124 140.618 276.122 140.62L274.923 141.338C274.729 141.455 274.485 141.394 274.369 141.201C274.253 141.007 274.314 140.764 274.508 140.647L275 140.352L273.919 138.555L273.919 138.555L272.424 136.067L271.932 136.362C271.738 136.478 271.494 136.417 271.377 136.224C271.261 136.03 271.322 135.787 271.516 135.67L272.008 135.375L272.008 135.375L272.722 134.947L272.361 134.346C272.244 134.152 272.306 133.909 272.5 133.792C272.694 133.676 272.938 133.737 273.054 133.93L273.415 134.532ZM277.744 138.706L277.516 138.843L277.508 138.848L277.501 138.852L275.693 139.936L274.612 138.139L276.664 136.909L276.664 136.909C277.163 136.61 277.806 136.77 278.105 137.268C278.404 137.765 278.243 138.407 277.744 138.706Z" fill="black"/>
</svg>
