<svg width="351" height="327" viewBox="0 0 351 327" fill="none" xmlns="http://www.w3.org/2000/svg"><g clip-path="url(#clip0)"><path d="M235.58 218.93c-6.86-12.56-17.7-21.63-29.27-29.27-9.7-6.41-20.62-21.78-9.63-39.73 8.18-13.37 25.66-17.47 39.77-9.5 12.06 6.83 25.07 12.36 39.38 12.75a73.17 73.17 0 0036.85-8.77 72.75 72.75 0 0038.12-62.27 73.18 73.18 0 00-8.95-36.81 73.61 73.61 0 00-62.56-38.3 73.18 73.18 0 00-36.85 8.78 72.75 72.75 0 00-27.44 26c-7.38 12.07-9.87 25.82-10.67 39.48-.68 11.5-8.18 29-29.63 28.4-15.95-.43-28.05-13.75-28.23-29.97-.16-13.7-1.98-27.58-8.8-40.04a73.61 73.61 0 00-62.55-38.3 73.18 73.18 0 00-36.85 8.78A72.76 72.76 0 00.15 72.43a73.18 73.18 0 008.95 36.81 73.61 73.61 0 0062.56 38.3c14.2.39 27.37-4.3 39.64-10.38 10.07-5 29.15-7.56 39.55 11.5 7.64 14 2.2 31.07-11.83 39.3-11.8 6.94-22.9 15.4-30.29 27.46a72.75 72.75 0 00-10.67 36.27 73.18 73.18 0 008.94 36.8 73.6 73.6 0 0062.56 38.3 73.17 73.17 0 0036.85-8.78 72.75 72.75 0 0038.12-62.27 73.19 73.19 0 00-8.95-36.8z" fill="#13C8A4"/></g><defs><clipPath id="clip0"><path fill="#fff" d="M0 0h351v327H0z"/></clipPath></defs></svg>