<svg width="784" height="534" viewBox="0 0 784 534" fill="none" xmlns="http://www.w3.org/2000/svg"><g clip-path="url(#clip0)"><path d="M871.39 289c0 197.933-160.457 358.389-358.39 358.389S154.61 486.933 154.61 289C154.61 91.066 315.067-69.39 513-69.39S871.39 91.066 871.39 289z" stroke="#000" stroke-opacity="0.3"/><circle cx="513" cy="289" r="232.447" stroke="#000" stroke-opacity="0.3"/><circle cx="513" cy="289" r="188.888" stroke="#000" stroke-opacity="0.3"/><path d="M645.072 289c0 72.941-59.131 132.072-132.072 132.072S380.929 361.941 380.929 289 440.059 156.929 513 156.929 645.072 216.059 645.072 289z" stroke="#000" stroke-opacity="0.3"/><circle cx="513" cy="289" r="463.5" stroke="#000" stroke-opacity="0.3"/><path d="M591.23 265.757c1.61-7.72-3.347-15.285-11.072-16.895l-104.12-21.71c-7.724-1.611-15.291 3.342-16.901 11.063l-36.111 173.189c-1.61 7.721 3.347 15.285 11.071 16.896l10.941 2.281a14.29 14.29 0 0013.591-4.488l22.982-25.831c7.327-8.235 20.831-5.419 24.257 5.058l10.743 32.862a14.293 14.293 0 0010.666 9.547l10.94 2.281c7.725 1.61 15.292-3.343 16.902-11.063l36.111-173.19z" fill="#fff"/><path d="M596.668 167.324a1.524 1.524 0 00-1.182-1.803l-104.473-21.783a1.524 1.524 0 00-1.804 1.18l-8.865 42.515c-3.435 16.477 7.144 32.621 23.629 36.059l47.76 9.958c16.485 3.437 32.634-7.134 36.07-23.611l8.865-42.515z" fill="#fff"/><path d="M577.948 189.883c1.546-7.415-3.215-14.679-10.633-16.226l-53.73-11.203c-7.418-1.547-14.685 3.21-16.231 10.625-1.546 7.415 3.214 14.679 10.633 16.226l53.729 11.203c7.418 1.547 14.686-3.21 16.232-10.625z" fill="#fff"/><path fill-rule="evenodd" clip-rule="evenodd" d="M512.938 165.56l53.729 11.203c5.702 1.189 9.361 6.773 8.173 12.472-1.189 5.699-6.774 9.356-12.476 8.167l-53.73-11.203c-5.702-1.189-9.361-6.773-8.172-12.472 1.188-5.699 6.774-9.356 12.476-8.167zm54.377 8.097c7.418 1.547 12.179 8.811 10.633 16.226-1.546 7.415-8.814 12.172-16.232 10.625l-53.729-11.203c-7.419-1.547-12.179-8.811-10.633-16.226 1.546-7.415 8.813-12.172 16.231-10.625l53.73 11.203z" fill="#000"/><path d="M546.049 141.204a6.859 6.859 0 00-8.116 5.312l-1.4 6.713a6.86 6.86 0 005.317 8.113 6.859 6.859 0 008.116-5.312l1.399-6.713a6.858 6.858 0 00-5.316-8.113z" fill="#EE7D8B"/><path d="M582.429 134.78a6.859 6.859 0 00-8.116 5.312l-4.199 20.139a6.858 6.858 0 005.317 8.113 6.858 6.858 0 008.115-5.312l4.199-20.139a6.859 6.859 0 00-5.316-8.113z" fill="#fff"/><path d="M515.267 120.776a6.859 6.859 0 00-8.116 5.312l-4.199 20.139a6.86 6.86 0 005.317 8.113 6.859 6.859 0 008.116-5.312l4.199-20.139a6.858 6.858 0 00-5.317-8.113z" fill="#fff"/><path d="M595.162 140.937c1.159-5.561-2.411-11.01-7.975-12.17l-6.716-1.4c-5.564-1.16-11.015 2.407-12.174 7.968-1.16 5.562 2.411 11.01 7.975 12.17l6.716 1.401c5.564 1.16 11.014-2.408 12.174-7.969z" fill="#EE7D8B"/><path d="M528 126.934c1.159-5.561-2.411-11.01-7.975-12.17l-6.716-1.4c-5.564-1.16-11.014 2.407-12.174 7.969-1.159 5.561 2.411 11.009 7.975 12.169l6.716 1.401c5.564 1.16 11.014-2.408 12.174-7.969z" fill="#EE7D8B"/><path d="M556.799 189.848a3.033 3.033 0 003.852-1.884 3.032 3.032 0 00-5.737-1.966 3.031 3.031 0 001.885 3.85z" fill="#000"/><path d="M516.502 181.445a3.031 3.031 0 10-1.885-3.849 3.03 3.03 0 001.885 3.849z" fill="#000"/><path d="M573.879 457.85c1.118-5.361-2.324-10.614-7.688-11.733l-34.966-7.29c-5.364-1.119-10.619 2.321-11.737 7.682-1.118 5.362 2.324 10.615 7.689 11.733l34.965 7.291c5.365 1.118 10.619-2.321 11.737-7.683z" fill="#fff"/><path d="M452.665 432.576c1.117-5.361-2.325-10.614-7.689-11.733l-34.966-7.29c-5.364-1.119-10.619 2.321-11.737 7.682-1.118 5.362 2.325 10.615 7.689 11.733l34.966 7.291c5.364 1.119 10.619-2.321 11.737-7.683z" fill="#fff"/><path d="M590 254.156c-5.364-1.118-10.619 2.321-11.737 7.683l-3.724 17.862c-1.118 5.362 2.324 10.615 7.688 11.733 5.365 1.119 10.619-2.321 11.737-7.682l3.725-17.863c1.118-5.361-2.325-10.614-7.689-11.733z" fill="#EE7D8B"/><path fill-rule="evenodd" clip-rule="evenodd" d="M545.049 452.244c5.15 1.074 8.454 6.117 7.381 11.264-1.074 5.147-6.118 8.449-11.268 7.376-5.149-1.074-8.454-6.117-7.381-11.265 1.073-5.147 6.118-8.448 11.268-7.375z" fill="#EE7D8B"/><path fill-rule="evenodd" clip-rule="evenodd" d="M521.739 447.384c5.149 1.073 8.453 6.116 7.38 11.263-1.073 5.148-6.118 8.45-11.267 7.376-5.15-1.074-8.455-6.116-7.381-11.264 1.073-5.147 6.118-8.449 11.268-7.375z" fill="#EE7D8B"/><path fill-rule="evenodd" clip-rule="evenodd" d="M543.689 456.823c2.789.582 4.615 3.139 4.079 5.713-.537 2.573-3.233 4.188-6.023 3.607-2.789-.582-4.615-3.14-4.079-5.714.537-2.573 3.233-4.187 6.023-3.606z" fill="#000"/><path fill-rule="evenodd" clip-rule="evenodd" d="M520.379 451.963c2.788.582 4.615 3.139 4.078 5.713-.537 2.573-3.233 4.188-6.022 3.607-2.79-.582-4.616-3.14-4.079-5.714.536-2.573 3.232-4.188 6.023-3.606z" fill="#000"/><path fill-rule="evenodd" clip-rule="evenodd" d="M447.921 431.992c5.151 1.074 8.455 6.117 7.382 11.264-1.074 5.148-6.118 8.449-11.268 7.376-5.149-1.074-8.454-6.117-7.381-11.265 1.073-5.147 6.118-8.448 11.267-7.375z" fill="#EE7D8B"/><path fill-rule="evenodd" clip-rule="evenodd" d="M424.612 427.132c5.148 1.074 8.453 6.116 7.38 11.263-1.073 5.148-6.118 8.45-11.267 7.376-5.15-1.073-8.455-6.116-7.382-11.264 1.074-5.147 6.118-8.449 11.269-7.375z" fill="#EE7D8B"/><path fill-rule="evenodd" clip-rule="evenodd" d="M446.561 436.571c2.79.582 4.616 3.139 4.079 5.713-.536 2.574-3.232 4.189-6.022 3.607-2.789-.582-4.615-3.14-4.079-5.713.537-2.574 3.233-4.188 6.022-3.607z" fill="#000"/><path fill-rule="evenodd" clip-rule="evenodd" d="M423.251 431.711c2.789.581 4.615 3.139 4.079 5.712-.537 2.574-3.233 4.189-6.022 3.608-2.79-.582-4.616-3.14-4.079-5.714.536-2.574 3.232-4.188 6.022-3.606z" fill="#000"/><path fill-rule="evenodd" clip-rule="evenodd" d="M571.555 277.249l2.916-13.986c1.476-7.081 8.411-11.625 15.488-10.149 7.077 1.476 11.617 8.412 10.141 15.493l-2.916 13.986c-1.477 7.081-8.411 11.625-15.488 10.149-7.077-1.476-11.618-8.412-10.141-15.493zm3.106.648c-1.118 5.364 2.322 10.619 7.683 11.737 5.362 1.118 10.615-2.324 11.733-7.689l2.916-13.986c1.119-5.364-2.321-10.619-7.682-11.737-5.362-1.118-10.615 2.325-11.733 7.689l-2.917 13.986z" fill="#fff"/><path fill-rule="evenodd" clip-rule="evenodd" d="M641.529 191.892c16.586 13.226 21.625 36.364 12.052 55.339-11.172 22.146-38.174 31.043-60.31 19.869l-1.041-.526 1.053-2.087 1.041.525c20.983 10.593 46.582 2.163 57.174-18.832 9.074-17.986 4.297-39.923-11.424-52.459l-.915-.729 1.458-1.827.912.727zm5.161-6.648c19.761 15.687 25.786 43.212 14.401 65.778-13.266 26.296-45.328 36.858-71.61 23.59l-1.041-.525 1.053-2.087 1.041.525c25.131 12.686 55.787 2.588 68.472-22.556 10.885-21.576 5.127-47.896-13.766-62.893l-.915-.727 1.45-1.832.915.727zm5.165-6.648c22.934 18.15 29.943 50.057 16.745 76.217-15.359 30.444-52.479 42.673-82.909 27.312l-1.042-.526 1.053-2.087 1.041.526c29.278 14.779 64.993 3.015 79.771-26.278 12.697-25.168 5.956-55.87-16.109-73.332l-.917-.724 1.451-1.833.916.725zm5.161-6.648c26.111 20.613 34.101 56.905 19.092 86.655-17.452 34.594-59.632 48.49-94.208 31.036l-1.041-.525 1.053-2.088 1.041.526c33.427 16.874 74.198 3.44 91.07-30.002 14.508-28.759 6.783-63.842-18.452-83.766l-.917-.723 1.445-1.836.917.723z" fill="#fff"/><path fill-rule="evenodd" clip-rule="evenodd" d="M631.177 195.353c-2.126-1.654-2.51-4.745-.858-6.871l19.322-24.859c1.655-2.124 4.745-2.511 6.869-.86a4.912 4.912 0 01.857 6.872l-19.324 24.858c-1.652 2.125-4.742 2.513-6.866.86z" fill="#fff"/><path d="M582.344 289.634c-5.362-1.118-8.801-6.372-7.683-11.737l2.917-13.986c1.118-5.364 6.371-8.806 11.733-7.688 5.361 1.117 8.801 6.372 7.682 11.736l-2.916 13.987c-1.118 5.364-6.371 8.806-11.733 7.688z" fill="#fff"/><path fill-rule="evenodd" clip-rule="evenodd" d="M460.979 254.081l2.915-13.98c1.476-7.077-3.068-14.011-10.149-15.487-7.08-1.477-14.017 3.064-15.492 10.141l-2.915 13.979c-1.476 7.078 3.068 14.012 10.149 15.488 7.08 1.476 14.017-3.064 15.492-10.141zm-3.108-.648c-1.118 5.361-6.372 8.801-11.737 7.682-5.364-1.118-8.806-6.371-7.688-11.733l2.915-13.979c1.118-5.362 6.372-8.801 11.737-7.683 5.364 1.119 8.806 6.372 7.688 11.733l-2.915 13.98z" fill="#fff"/><path fill-rule="evenodd" clip-rule="evenodd" d="M430.914 147.914c-20.498 5.489-34.367 24.674-33.17 45.884 1.396 24.755 22.606 43.697 47.375 42.306l1.164-.066-.131-2.333-1.165.065c-23.479 1.319-43.588-16.635-44.912-40.103-1.134-20.105 12.014-38.293 31.443-43.496l1.13-.302-.607-2.256-1.127.301zm-2.077-8.153c-24.394 6.475-40.919 29.284-39.496 54.509 1.658 29.394 26.844 51.883 56.251 50.231l1.165-.065-.131-2.333-1.165.065c-28.12 1.58-52.201-19.924-53.786-48.029-1.361-24.118 14.438-45.93 37.76-52.12l1.13-.301-.598-2.257-1.13.3zm-2.08-8.155c-28.288 7.463-47.467 33.895-45.818 63.136 1.92 34.031 31.079 60.07 65.127 58.157l1.165-.066-.132-2.332-1.164.065c-32.759 1.84-60.814-23.211-62.661-55.955-1.588-28.133 16.864-53.567 44.08-60.747l1.131-.297-.598-2.259-1.13.298zm-2.078-8.153c-32.185 8.45-54.017 38.507-52.141 71.761 2.182 38.669 35.314 68.257 74.002 66.084l1.165-.065-.132-2.334-1.165.066c-37.402 2.101-69.427-26.501-71.536-63.882-1.814-32.146 19.292-61.202 50.4-69.371l1.13-.295-.592-2.26-1.131.296z" fill="#fff"/><path fill-rule="evenodd" clip-rule="evenodd" d="M439.025 155.221a4.906 4.906 0 003.533-5.952l-7.787-30.497c-.669-2.607-3.348-4.197-5.957-3.533a4.908 4.908 0 00-3.532 5.954l7.79 30.497c.665 2.607 3.345 4.197 5.953 3.531z" fill="#fff"/><path d="M446.133 261.115c5.364 1.119 10.619-2.321 11.737-7.683l2.915-13.979c1.118-5.361-2.325-10.615-7.689-11.733-5.364-1.119-10.619 2.321-11.737 7.683l-2.914 13.979c-1.118 5.362 2.324 10.615 7.688 11.733z" fill="#fff"/><path fill-rule="evenodd" clip-rule="evenodd" d="M511.247 278.381a8.669 8.669 0 005.277 4.051 8.664 8.664 0 006.601-.869 8.654 8.654 0 004.046-5.275 8.657 8.657 0 00-.866-6.592 8.672 8.672 0 00-5.282-4.053 8.669 8.669 0 00-6.596.87 8.658 8.658 0 00-4.045 5.276 8.658 8.658 0 00.865 6.592zm8.855-9.303a5.108 5.108 0 013.124 2.395 5.115 5.115 0 01.514 3.895 5.114 5.114 0 01-2.393 3.117 5.102 5.102 0 01-3.902.512 5.104 5.104 0 01-3.119-2.393 5.117 5.117 0 01-.514-3.896 5.12 5.12 0 012.393-3.117 5.107 5.107 0 013.897-.513z" fill="#000"/><path fill-rule="evenodd" clip-rule="evenodd" d="M520.232 292.36a8.674 8.674 0 00-5.282-4.052 8.669 8.669 0 00-6.596.87 8.655 8.655 0 00-4.045 5.276 8.665 8.665 0 00.864 6.597 8.684 8.684 0 005.278 4.046 8.692 8.692 0 006.599-.863 8.667 8.667 0 004.047-5.282 8.658 8.658 0 00-.865-6.592z" fill="#000"/><path fill-rule="evenodd" clip-rule="evenodd" d="M491.975 298.608c2.446 1.416 3.295 4.564 1.878 7.015a5.134 5.134 0 01-7.01 1.879c-2.453-1.412-3.295-4.563-1.885-7.011a5.148 5.148 0 017.017-1.883zm5.829 2.199a8.66 8.66 0 00-4.05-5.273 8.658 8.658 0 00-6.597-.872 8.666 8.666 0 00-5.273 4.05 8.66 8.66 0 00-.871 6.597 8.662 8.662 0 004.049 5.273 8.686 8.686 0 0011.871-3.178 8.693 8.693 0 00.871-6.597z" fill="#000"/><path fill-rule="evenodd" clip-rule="evenodd" d="M523.728 313.626a5.14 5.14 0 015.139-5.136 5.14 5.14 0 015.129 5.138 5.135 5.135 0 01-5.139 5.136 5.132 5.132 0 01-5.129-5.138zm5.141-8.687c-4.8-.005-8.692 3.889-8.697 8.685.001 4.796 3.893 8.694 8.688 8.693 4.789.003 8.687-3.891 8.692-8.686.003-4.789-3.895-8.689-8.683-8.692z" fill="#000"/><path fill-rule="evenodd" clip-rule="evenodd" d="M528.394 276.498a10.217 10.217 0 01-4.751 6.215 10.129 10.129 0 01-7.738 1.032 10.118 10.118 0 01-6.18-4.762 10.22 10.22 0 01-1.008-7.757 10.213 10.213 0 014.752-6.214 10.121 10.121 0 017.732-1.034 10.123 10.123 0 016.185 4.763 10.215 10.215 0 011.008 7.757zm-6.128 22.869a10.237 10.237 0 01-4.753 6.22 10.143 10.143 0 01-7.736 1.026 10.137 10.137 0 01-6.181-4.755 10.242 10.242 0 01-1.007-7.763 10.22 10.22 0 014.752-6.214 10.143 10.143 0 017.732-1.033 10.142 10.142 0 016.185 4.762 10.21 10.21 0 011.008 7.757zm6.824 3.866c5.617.002 10.184 4.574 10.172 10.225-.008 5.639-4.579 10.23-10.203 10.232-5.619.004-10.183-4.574-10.172-10.224.009-5.64 4.585-10.23 10.203-10.233zm-30.633 4.753a10.188 10.188 0 01-6.191 4.772 10.111 10.111 0 01-7.727-1.014 10.151 10.151 0 01-4.741-6.204 10.253 10.253 0 011.021-7.759 10.192 10.192 0 016.197-4.771 10.13 10.13 0 017.728 1.008 10.158 10.158 0 014.74 6.21c.725 2.73.28 5.49-1.027 7.758zm50.093-7.425c.57-5.39-.054-10.88-1.867-16.036a36.359 36.359 0 00-8.543-13.6 36.376 36.376 0 00-6.446-5.154 35.797 35.797 0 00-7.418-3.558.54.54 0 00-.194-.028 12.794 12.794 0 00-11.948.496 12.913 12.913 0 00-6.005 7.852c-.723 2.696-.495 4.609.145 7.265.425 1.779.427 3.608.002 5.322a10.255 10.255 0 01-2.677 4.751 10.209 10.209 0 01-4.811 2.704c-1.73.419-3.58.399-5.371-.058-2.3-.59-4.234-.761-6.489-.256.033-.124.062-.249.085-.376.678-3.617 2.297-6.818 4.486-9.529 2.472-3.057 5.673-5.508 9.095-7.258a.544.544 0 00.235-.731.538.538 0 00-.727-.234c-3.545 1.813-6.867 4.361-9.439 7.538-2.299 2.85-3.995 6.211-4.711 10.014-.025.112-.042.22-.072.33a.546.546 0 00.117.49 12.81 12.81 0 00-4.664 2.525c.071-.574.156-1.151.257-1.728.159-.886.359-1.778.598-2.67a31.66 31.66 0 016.666-12.58 31.719 31.719 0 0110.437-7.901.55.55 0 00.262-.723.545.545 0 00-.721-.26 32.876 32.876 0 00-10.412 7.743 32.716 32.716 0 00-7.277 13.441 34.567 34.567 0 00-.617 2.761c-.165.929-.29 1.857-.376 2.785a.561.561 0 00.035.243 12.972 12.972 0 00-2.864 5.036 35.417 35.417 0 01-.056-3.587 35.935 35.935 0 011.201-7.955 35.512 35.512 0 017.242-13.833 35.549 35.549 0 0112.518-9.391.551.551 0 00.272-.721.54.54 0 00-.713-.269 36.526 36.526 0 00-20.364 23.933 36.58 36.58 0 00-1.233 8.195c-.102 2.73.106 5.423.6 8.04.047.879.183 1.766.418 2.65a12.836 12.836 0 005.985 7.837 12.778 12.778 0 009.766 1.281c2.671-.717 4.325-1.928 6.268-3.852 1.25-1.237 2.812-2.084 4.445-2.569a10.058 10.058 0 015.501-.082 10.06 10.06 0 014.746 2.845 11.066 11.066 0 012.522 4.39c.765 2.511 1.383 4.203 3.105 6.074-.1.03-.201.06-.296.095-3.467 1.226-7.028 1.425-10.461.877-3.866-.609-7.573-2.164-10.787-4.264a.543.543 0 00-.591.911c3.333 2.176 7.183 3.787 11.208 4.427 3.601.571 7.345.358 10.983-.923.105-.039.216-.077.325-.105a.533.533 0 00.339-.292 12.752 12.752 0 004.479 2.749 31.88 31.88 0 01-1.576.624c-.845.308-1.713.582-2.601.822a31.374 31.374 0 01-14.174.513 31.515 31.515 0 01-12.016-5.111.544.544 0 00-.621.892 32.59 32.59 0 0011.868 5.166 32.36 32.36 0 0015.222-.411 31.79 31.79 0 002.687-.85 32.61 32.61 0 002.596-1.072.53.53 0 00.175-.13 12.88 12.88 0 002.751.301c.993.001 1.989-.098 2.965-.31a35.531 35.531 0 01-2.998 1.804 35.644 35.644 0 01-7.461 2.941 34.963 34.963 0 01-15.547.64 35.287 35.287 0 01-14.339-6.166.532.532 0 00-.749.12.543.543 0 00.116.757 36.357 36.357 0 0014.775 6.361 36.12 36.12 0 0016.023-.663 36.346 36.346 0 0014.109-7.407c.703-.453 1.37-.993 1.988-1.629.205-.206.415-.429.611-.643a12.924 12.924 0 003.397-8.73 12.877 12.877 0 00-3.695-9.076 12.792 12.792 0 00-5.951-3.434c-1.892-.49-3.615-1.433-4.98-2.745a10.114 10.114 0 01-2.812-4.735 10.203 10.203 0 01.07-5.501 10.975 10.975 0 012.67-4.573c1.735-1.773 2.871-3.355 3.585-5.678l.008.009c.098.094.196.188.301.278 2.776 2.393 4.724 5.391 5.964 8.649 1.392 3.67 1.9 7.672 1.687 11.52a.54.54 0 101.082.06c.217-3.988-.31-8.147-1.765-11.964-1.301-3.421-3.343-6.573-6.26-9.088a3.066 3.066 0 01-.252-.231.539.539 0 00-.523-.132c.43-1.818.458-3.644.131-5.377.486.366.965.747 1.432 1.145a30.172 30.172 0 012.004 1.848 31.446 31.446 0 017.502 12.067 31.75 31.75 0 011.574 13.009.547.547 0 00.493.588c.296.023.558-.2.581-.497a32.917 32.917 0 00-1.444-12.907 32.55 32.55 0 00-7.94-13.028 32.965 32.965 0 00-4.283-3.629.547.547 0 00-.301-.1 12.967 12.967 0 00-1.114-2.545 12.91 12.91 0 00-1.915-2.544 35.118 35.118 0 013.325 1.84 35.495 35.495 0 016.256 5.007 35.307 35.307 0 018.293 13.195 35.677 35.677 0 011.809 15.56.55.55 0 00.485.597.54.54 0 00.589-.484z" fill="#13C8A4"/><path d="M520.918 205c4.061 7.484 16.502 9.052 21.539 4.482" stroke="#000" stroke-width="4" stroke-linecap="round"/><path d="M322.396 304.055l-.951 7.89-7.04 3.692 7.211 3.339 1.331 7.838 5.408-5.824 7.866 1.153-3.869-6.943 3.525-7.12-7.798 1.532-5.683-5.557z" fill="#EE7D8B"/><path d="M328.588 346.856l1.253 7.081-5.124 5.046 7.12.996 3.214 6.432 3.151-6.464 7.111-1.07-5.175-4.994 1.179-7.089-6.348 3.376-6.381-3.314z" fill="#EE7D8B"/><path d="M342.713 382.872l3.797 6.987-3.604 7.09 7.82-1.453 5.627 5.619 1.035-7.883 7.086-3.619-7.182-3.423-1.251-7.85-5.472 5.769-7.856-1.237z" fill="#EE7D8B"/><path d="M701.493 332.73l-.668 7.919 6.145 5.042-7.738 1.808-2.893 7.405-4.114-6.799-7.936-.466 5.196-6.014-2.008-7.687 7.325 3.082 6.691-4.29z" fill="#EE7D8B"/><path d="M686.753 373.387l-2.663 6.68 3.994 5.98-7.175-.469-4.45 5.648-1.776-6.97-6.747-2.489 6.081-3.841.283-7.181 5.531 4.593 6.922-1.951z" fill="#EE7D8B"/><path d="M665.618 405.791l-5.134 6.071 2.091 7.673-7.363-3.007-6.649 4.361.583-7.93-6.204-4.98 7.727-1.896 2.816-7.433 4.189 6.759 7.944.382z" fill="#EE7D8B"/><path d="M692.781 63.676c-2.542-1.46-5.405-1.884-8.24-1.983-2.379-.083-5.929-1.6-5.929-5.908 0-3.21 2.614-5.793 5.93-5.908 2.835-.099 5.698-.523 8.239-1.984a14.982 14.982 0 005.497-5.471 14.895 14.895 0 000-14.948 14.983 14.983 0 00-5.497-5.471 15.072 15.072 0 00-15.017 0 14.982 14.982 0 00-5.496 5.471 14.896 14.896 0 00-2.012 7.475c0 2.896 1.035 5.56 2.355 8.033 1.111 2.079 1.673 5.938-2.136 8.127-2.833 1.628-6.369.597-8.136-2.217-1.492-2.377-3.293-4.603-5.814-6.053a15.069 15.069 0 00-15.017 0 14.987 14.987 0 00-5.496 5.472 14.896 14.896 0 000 14.948 14.987 14.987 0 005.496 5.471 15.072 15.072 0 0015.017 0c2.521-1.449 4.322-3.674 5.813-6.05 1.224-1.95 4.282-4.436 8.137-2.219 2.829 1.628 3.703 5.192 2.135 8.129-1.32 2.471-2.354 5.136-2.354 8.031 0 2.624.694 5.202 2.012 7.474a14.988 14.988 0 005.496 5.472 15.073 15.073 0 0015.017 0 14.98 14.98 0 005.496-5.472 14.895 14.895 0 000-14.948 14.972 14.972 0 00-5.496-5.47z" fill="#13C8A4"/><path d="M350.79 144.513c-1.764-1.02-3.751-1.316-5.719-1.385-1.65-.058-4.113-1.118-4.113-4.128 0-2.242 1.813-4.047 4.114-4.127 1.968-.069 3.954-.366 5.718-1.386a10.442 10.442 0 005.21-9.044 10.442 10.442 0 00-5.21-9.044 10.404 10.404 0 00-14.235 3.823 10.453 10.453 0 00-1.396 5.221c0 2.024.718 3.886 1.634 5.613.771 1.452 1.161 4.148-1.482 5.677-1.966 1.138-4.42.417-5.646-1.548-1.035-1.661-2.285-3.216-4.034-4.229a10.41 10.41 0 00-10.421 0A10.453 10.453 0 00310 139a10.442 10.442 0 005.21 9.044 10.398 10.398 0 0010.421 0c1.749-1.012 2.999-2.567 4.033-4.226.85-1.363 2.972-3.1 5.647-1.551 1.963 1.137 2.57 3.628 1.481 5.679-.916 1.727-1.633 3.588-1.633 5.611a10.442 10.442 0 005.21 9.044 10.408 10.408 0 0014.235-3.822 10.47 10.47 0 000-10.443 10.437 10.437 0 00-3.814-3.823z" fill="#13C8A4"/><path d="M222.285 139.813c-2.396-4.387-6.181-7.55-10.216-10.217-3.385-2.238-7.195-7.603-3.361-13.866 2.856-4.667 8.955-6.096 13.879-3.313 4.21 2.38 8.749 4.311 13.744 4.449a25.528 25.528 0 0012.86-3.063 25.389 25.389 0 009.577-9.076 25.391 25.391 0 003.726-12.657 25.535 25.535 0 00-3.122-12.846 25.69 25.69 0 00-21.833-13.364 25.542 25.542 0 00-12.861 3.063A25.394 25.394 0 00215.102 78c-2.577 4.21-3.445 9.006-3.725 13.775-.236 4.011-2.853 10.121-10.339 9.914-5.568-.154-9.791-4.8-9.855-10.462-.054-4.783-.691-9.624-3.067-13.975a25.681 25.681 0 00-9.134-9.593 25.687 25.687 0 00-12.698-3.771 25.54 25.54 0 00-12.861 3.063 25.392 25.392 0 00-13.303 21.733 25.544 25.544 0 003.122 12.846 25.699 25.699 0 0021.833 13.364c4.954.137 9.553-1.495 13.834-3.621 3.516-1.746 10.174-2.64 13.806 4.014 2.665 4.883.764 10.845-4.13 13.718-4.119 2.418-7.993 5.373-10.57 9.583a25.388 25.388 0 00-3.726 12.656 25.543 25.543 0 003.122 12.846 25.683 25.683 0 009.134 9.594 25.684 25.684 0 0012.698 3.77 25.531 25.531 0 0012.861-3.063 25.383 25.383 0 0013.303-21.732 25.543 25.543 0 00-3.122-12.846z" fill="#13C8A4"/><path d="M59.453 459.436c-1.726-3.16-4.453-5.439-7.36-7.361-2.438-1.612-5.183-5.477-2.421-9.989 2.058-3.362 6.452-4.392 9.999-2.387 3.033 1.715 6.303 3.106 9.902 3.206a18.407 18.407 0 009.265-2.207 18.291 18.291 0 009.584-15.658 18.4 18.4 0 00-2.25-9.255 18.511 18.511 0 00-15.729-9.628 18.397 18.397 0 00-9.265 2.208 18.293 18.293 0 00-6.9 6.538c-1.856 3.034-2.481 6.489-2.683 9.925-.17 2.89-2.055 7.292-7.448 7.142-4.012-.111-7.055-3.458-7.1-7.537-.04-3.446-.498-6.933-2.21-10.068a18.507 18.507 0 00-15.729-9.628 18.386 18.386 0 00-9.265 2.207 18.293 18.293 0 00-6.9 6.538 18.294 18.294 0 00-2.684 9.119 18.4 18.4 0 002.25 9.255 18.514 18.514 0 0015.729 9.628c3.568.098 6.882-1.078 9.966-2.61 2.533-1.257 7.33-1.901 9.946 2.893 1.92 3.518.55 7.813-2.975 9.883-2.967 1.742-5.758 3.87-7.615 6.903a18.294 18.294 0 00-2.685 9.119 18.4 18.4 0 002.25 9.255 18.51 18.51 0 0015.728 9.628 18.406 18.406 0 009.266-2.207 18.288 18.288 0 009.584-15.657 18.4 18.4 0 00-2.25-9.255z" fill="#13C8A4"/><path d="M716.282 166.867c-.921-.531-1.957-.685-2.984-.721-.861-.03-2.146-.581-2.146-2.146 0-1.166.946-2.104 2.147-2.146 1.026-.036 2.063-.19 2.983-.721A5.43 5.43 0 00713.563 151a5.436 5.436 0 00-5.437 5.431c0 1.052.375 2.02.853 2.918.402.755.606 2.157-.773 2.952-1.026.592-2.306.217-2.946-.805-.54-.863-1.192-1.672-2.105-2.199a5.446 5.446 0 00-5.437 0 5.425 5.425 0 000 9.406 5.45 5.45 0 005.437 0c.913-.526 1.565-1.335 2.105-2.198.443-.708 1.55-1.611 2.946-.806 1.024.591 1.34 1.886.773 2.953-.478.898-.852 1.866-.852 2.918a5.428 5.428 0 005.436 5.43 5.44 5.44 0 004.709-2.715 5.428 5.428 0 00-1.99-7.418z" fill="#13C8A4"/><path d="M363.696 462.411c-1.457-.817-3.098-1.054-4.724-1.109-1.364-.046-3.398-.894-3.398-3.302 0-1.794 1.498-3.238 3.399-3.302 1.625-.055 3.266-.292 4.723-1.108a8.5 8.5 0 003.151-3.058 8.172 8.172 0 001.153-4.178 8.171 8.171 0 00-1.153-4.177 8.493 8.493 0 00-3.151-3.058 8.814 8.814 0 00-4.304-1.119 8.817 8.817 0 00-4.305 1.119 8.49 8.49 0 00-3.15 3.058 8.155 8.155 0 00-1.153 4.178c0 1.618.593 3.108 1.35 4.49.636 1.162.958 3.318-1.225 4.542-1.624.91-3.651.333-4.664-1.239-.855-1.328-1.887-2.573-3.333-3.383a8.81 8.81 0 00-4.304-1.119 8.814 8.814 0 00-4.304 1.119 8.485 8.485 0 00-3.151 3.058A8.171 8.171 0 00330 458c0 1.467.398 2.907 1.153 4.177a8.485 8.485 0 003.151 3.058 8.814 8.814 0 004.304 1.119 8.81 8.81 0 004.304-1.119c1.445-.81 2.478-2.053 3.332-3.381.702-1.09 2.455-2.479 4.665-1.24 1.622.909 2.123 2.902 1.224 4.543-.757 1.381-1.349 2.87-1.349 4.489 0 1.466.397 2.907 1.153 4.177a8.486 8.486 0 003.151 3.058 8.81 8.81 0 004.304 1.119 8.814 8.814 0 004.304-1.119 8.5 8.5 0 003.151-3.058 8.171 8.171 0 001.153-4.177 8.168 8.168 0 00-1.153-4.177 8.485 8.485 0 00-3.151-3.058z" fill="#13C8A4"/><path d="M683.016 467.293c-1.687-.98-3.587-1.264-5.469-1.33-1.579-.056-3.935-1.074-3.935-3.963 0-2.153 1.735-3.885 3.935-3.962 1.882-.066 3.782-.351 5.469-1.33a9.996 9.996 0 003.649-3.67 10.079 10.079 0 000-10.025 10.004 10.004 0 00-3.649-3.67 9.922 9.922 0 00-9.967 0 9.996 9.996 0 00-3.649 3.67 10.079 10.079 0 00-1.335 5.013c0 1.942.687 3.73 1.563 5.387.738 1.395 1.11 3.983-1.418 5.451-1.88 1.092-4.227.4-5.4-1.487-.99-1.594-2.185-3.087-3.859-4.059a9.922 9.922 0 00-9.967 0 10.001 10.001 0 00-3.649 3.669 10.079 10.079 0 000 10.026 10.001 10.001 0 003.649 3.669 9.92 9.92 0 009.967 0c1.673-.971 2.869-2.464 3.858-4.057.813-1.308 2.843-2.975 5.401-1.488 1.878 1.091 2.459 3.482 1.418 5.451-.877 1.658-1.563 3.445-1.563 5.387 0 1.76.461 3.488 1.336 5.012a9.994 9.994 0 003.648 3.67 9.922 9.922 0 009.967 0 10.004 10.004 0 003.649-3.67 10.075 10.075 0 000-10.025 10.001 10.001 0 00-3.649-3.669z" fill="#13C8A4"/></g><defs><clipPath id="clip0"><path fill="#fff" d="M0 0h784v534H0z"/></clipPath></defs></svg>