<svg width="550" height="200" viewBox="0 0 550 200" fill="none" xmlns="http://www.w3.org/2000/svg">
<mask id="mask0" mask-type="alpha" maskUnits="userSpaceOnUse" x="0" y="0" width="550" height="200">
<rect width="550" height="200" fill="#EFEFEF"/>
</mask>
<g mask="url(#mask0)">
<path fill-rule="evenodd" clip-rule="evenodd" d="M74.329 65.8016H45.6182L45.6105 65.7947C41.092 61.6731 23.571 45.6912 12.9017 60.7045C7.05938 68.9256 11.0652 77.9688 13.5689 81.5861C-6.9623 121.047 9.39626 141.435 20.0789 149.163C19.8118 143.376 20.8579 140.394 21.4143 139.627C25.2869 153.964 35.7141 160.618 40.4435 162.153C38.7075 158.206 38.6074 152.616 38.7743 150.314C43.7152 163.731 54.9659 171.251 59.9736 173.333C72.5262 167.677 79.448 155.631 81.3398 150.314C81.6923 154.481 80.5557 158.567 79.9684 160.678C79.7215 161.566 79.5717 162.104 79.6705 162.153C89.953 158.864 96.7524 145.875 98.8668 139.791C99.4009 140.712 99.9796 146.423 100.202 149.163C120.707 132.521 115.903 109.686 114.622 103.596L114.558 103.29C113.623 98.8174 108.827 87.1764 106.545 81.9149C115.392 69.9121 105.043 54.621 96.5298 54.2921C89.7194 54.029 78.8916 61.8555 74.329 65.8016ZM61.0635 104.441C75.4191 105.043 67.4068 113.814 61.0635 115.129C59.8951 120.5 61.0635 130.427 69.5768 131.242C81.5953 132.393 81.5953 115.622 81.5953 115.622C81.5953 115.622 76.7545 87.9994 58.8935 89.6436C44.6047 90.959 39.3635 107.511 38.529 115.622C38.0839 120.774 39.5639 131.111 49.0452 131.242C58.5264 131.374 59.5613 120.555 58.8935 115.129C50.2134 112.991 45.206 103.777 61.0635 104.441ZM59.8237 137.817C64.4332 137.817 68.1699 136.492 68.1699 134.858C68.1699 133.223 68.1699 132.391 59.8237 132.391C51.561 132.391 51.4775 133.223 51.4775 134.858C51.4775 136.492 55.2142 137.817 59.8237 137.817ZM82.869 90.7822C82.869 93.5064 80.627 95.7148 77.8613 95.7148C75.0956 95.7148 72.8536 93.5064 72.8536 90.7822C72.8536 88.058 75.0956 85.8495 77.8613 85.8495C80.627 85.8495 82.869 88.058 82.869 90.7822ZM42.134 95.7148C44.8997 95.7148 47.1417 93.5064 47.1417 90.7822C47.1417 88.058 44.8997 85.8495 42.134 85.8495C39.3683 85.8495 37.1263 88.058 37.1263 90.7822C37.1263 93.5064 39.3683 95.7148 42.134 95.7148Z" fill="#EE7D8B"/>
<path d="M482.972 153.318C484.946 153.318 486.547 151.71 486.547 149.726C486.547 147.743 484.946 146.135 482.972 146.135C480.997 146.135 479.397 147.743 479.397 149.726C479.397 151.71 480.997 153.318 482.972 153.318Z" fill="#13C8A4"/>
<path d="M500.844 149.726C500.844 151.71 499.244 153.318 497.269 153.318C495.295 153.318 493.694 151.71 493.694 149.726C493.694 147.743 495.295 146.135 497.269 146.135C499.244 146.135 500.844 147.743 500.844 149.726Z" fill="#13C8A4"/>
<path fill-rule="evenodd" clip-rule="evenodd" d="M473.154 88.3755C465.291 88.4075 453.513 88.0708 450.342 86.4998C445.717 84.2087 434.618 77.7934 434.618 64.5048C434.618 56.7148 428.143 66.3378 430.918 80.5428C433.134 91.8904 437.382 98.72 450.109 102.404C447.182 104.746 444.361 108.697 443.639 112.314C444.405 112.741 457.002 114.296 461.149 109.675C461.25 110.056 461.363 110.435 461.486 110.811L471.7 141.997C469.812 144.533 468.665 147.869 468.665 151.525C468.665 159.46 474.067 165.893 480.731 165.893H499.5C506.164 165.893 511.566 159.46 511.566 151.525C511.566 147.865 510.417 144.525 508.525 141.988L518.736 110.811C518.859 110.434 518.972 110.054 519.074 109.671C523.218 114.297 535.821 112.741 536.588 112.314C535.866 108.697 533.044 104.746 530.117 102.404C542.845 98.72 547.092 91.8904 549.309 80.5428C552.084 66.3378 545.609 56.7148 545.609 64.5048C545.609 77.7934 534.51 84.2087 529.885 86.4998C526.713 88.0711 514.931 88.4077 507.068 88.3755C505.714 88.0555 504.253 87.8811 502.776 87.8087C497.33 87.542 492.833 90.6699 490.111 95.242C487.389 90.6699 482.892 87.542 477.446 87.8087C475.969 87.8811 474.508 88.0555 473.154 88.3755ZM483.077 162.298C478.079 162.298 474.027 157.473 474.027 151.522C474.027 145.57 478.079 140.746 483.077 140.746C485.92 140.746 488.456 142.307 490.115 144.748C491.774 142.307 494.311 140.746 497.154 140.746C502.152 140.746 506.203 145.57 506.203 151.522C506.203 157.473 502.152 162.298 497.154 162.298H483.077ZM499.061 115.521C498.801 111.075 502.954 101.396 513.854 102.181C516.19 111.598 507.625 116.306 499.061 115.521ZM481.165 115.521C481.424 111.075 477.272 101.396 466.372 102.181C464.036 111.598 472.601 116.306 481.165 115.521Z" fill="#13C8A4"/>
<path d="M278.706 7.73922C279.477 6.41197 281.393 6.41198 282.164 7.73923L358.023 138.333H202.847L278.706 7.73922Z" fill="#13C8A4"/>
<path d="M165.639 197.023C166.41 198.35 168.327 198.35 169.098 197.023L203.466 137.857H131.272L165.639 197.023Z" fill="#EE7D8B"/>
<path d="M392.73 197.023C393.501 198.35 395.418 198.35 396.189 197.023L430.556 137.857H358.362L392.73 197.023Z" fill="#EE7D8B"/>
<line x1="133.395" y1="139" x2="428.433" y2="139" stroke="#9CA5AB" stroke-width="2" stroke-linecap="round"/>
<line x1="132.272" y1="48.5237" x2="428.268" y2="48.5237" stroke="black" stroke-width="2" stroke-linecap="round"/>
<line x1="133.23" y1="159.952" x2="428.268" y2="159.952" stroke="black" stroke-width="2" stroke-linecap="round"/>
<ellipse cx="253.92" cy="48.5715" rx="5.74913" ry="5.71429" fill="black"/>
<ellipse cx="371.777" cy="160" rx="5.74913" ry="5.71429" fill="black"/>
<path d="M206.969 36.7232V27.2962C206.969 27.0487 206.974 26.8658 206.985 26.7474C207.006 26.629 207.054 26.4945 207.129 26.3438C207.278 26.0533 207.635 25.908 208.201 25.908C208.766 25.908 209.145 25.9833 209.337 26.134C209.54 26.2739 209.657 26.4837 209.689 26.7635C210.094 26.204 210.729 25.9242 211.593 25.9242C212.468 25.9242 213.295 26.3385 214.074 27.1671C214.852 27.9957 215.242 28.9589 215.242 30.0565C215.242 31.1542 214.852 32.1173 214.074 32.9459C213.305 33.7746 212.484 34.1889 211.609 34.1889C210.734 34.1889 210.1 33.9414 209.705 33.4464V36.707C209.705 36.9546 209.694 37.1375 209.673 37.2559C209.662 37.3742 209.614 37.5088 209.529 37.6594C209.454 37.8208 209.321 37.9338 209.129 37.9984C208.937 38.063 208.676 38.0953 208.345 38.0953C208.014 38.0953 207.747 38.063 207.545 37.9984C207.353 37.9338 207.214 37.8262 207.129 37.6756C207.054 37.5249 207.006 37.3904 206.985 37.272C206.974 37.1536 206.969 36.9707 206.969 36.7232ZM210.137 29.1203C209.892 29.4108 209.769 29.7283 209.769 30.0727C209.769 30.417 209.892 30.7345 210.137 31.025C210.393 31.3048 210.713 31.4447 211.097 31.4447C211.492 31.4447 211.823 31.3048 212.089 31.025C212.367 30.7452 212.505 30.4278 212.505 30.0727C212.505 29.7175 212.377 29.4001 212.121 29.1203C211.865 28.8297 211.529 28.6844 211.113 28.6844C210.708 28.6844 210.382 28.8297 210.137 29.1203Z" fill="black"/>
<path d="M222.011 26.0049C222.214 26.0694 222.379 26.1824 222.507 26.3438C222.646 26.4945 222.715 26.742 222.715 27.0864C222.715 27.4307 222.614 27.8074 222.411 28.2163C222.208 28.6253 221.915 28.8297 221.531 28.8297C221.339 28.8297 221.152 28.7867 220.971 28.7006C220.8 28.6145 220.571 28.5715 220.283 28.5715C219.995 28.5715 219.723 28.6737 219.467 28.8782C219.221 29.0826 219.099 29.3301 219.099 29.6207V33.0105C219.099 33.258 219.088 33.4464 219.067 33.5755C219.056 33.6939 219.008 33.8338 218.923 33.9952C218.763 34.275 218.347 34.4149 217.675 34.4149C217.162 34.4149 216.794 34.3234 216.57 34.1405C216.4 33.9898 216.304 33.7584 216.282 33.4464C216.282 33.3387 216.282 33.1827 216.282 32.9782V27.3124C216.282 27.0649 216.288 26.8819 216.298 26.7635C216.32 26.6344 216.368 26.4945 216.442 26.3438C216.592 26.0533 217.008 25.908 217.691 25.908C218.331 25.908 218.731 26.0318 218.891 26.2793C219.008 26.4515 219.067 26.629 219.067 26.812C219.12 26.7366 219.195 26.6452 219.291 26.5376C219.397 26.4299 219.616 26.2847 219.947 26.1017C220.278 25.9188 220.566 25.8273 220.811 25.8273C221.067 25.8273 221.28 25.8434 221.451 25.8757C221.622 25.8973 221.808 25.9403 222.011 26.0049Z" fill="black"/>
<path d="M222.871 30.1695C222.871 28.8782 223.319 27.8128 224.216 26.9734C225.112 26.134 226.136 25.7143 227.288 25.7143C228.44 25.7143 229.459 26.134 230.344 26.9734C231.23 27.802 231.672 28.862 231.672 30.1534C231.672 31.0466 231.443 31.8429 230.984 32.5424C230.526 33.2311 229.966 33.7423 229.304 34.0759C228.653 34.3987 227.976 34.5602 227.272 34.5602C226.568 34.5602 225.885 34.388 225.224 34.0436C224.562 33.6885 224.002 33.1719 223.543 32.494C223.095 31.8052 222.871 31.0304 222.871 30.1695ZM226.216 31.3317C226.557 31.59 226.904 31.7192 227.256 31.7192C227.608 31.7192 227.96 31.5846 228.312 31.3156C228.664 31.0466 228.84 30.6484 228.84 30.1211C228.84 29.5938 228.675 29.201 228.344 28.9427C228.013 28.6844 227.656 28.5553 227.272 28.5553C226.888 28.5553 226.53 28.6898 226.2 28.9589C225.869 29.2279 225.704 29.6261 225.704 30.1534C225.704 30.6699 225.874 31.0627 226.216 31.3317Z" fill="black"/>
<path d="M237.322 25.9242C238.059 25.9242 238.491 26.1286 238.619 26.5376C238.683 26.742 238.715 27.0111 238.715 27.3447C238.715 27.6783 238.677 27.9473 238.603 28.1518C238.539 28.3455 238.432 28.4854 238.283 28.5715C238.059 28.7006 237.733 28.7652 237.306 28.7652L236.282 28.7006V33.0267C236.282 33.4356 236.229 33.7423 236.122 33.9468C236.026 34.1405 235.872 34.2696 235.658 34.3342C235.456 34.3987 235.189 34.431 234.858 34.431C234.527 34.431 234.261 34.3987 234.058 34.3342C233.866 34.2588 233.727 34.1458 233.642 33.9952C233.557 33.8338 233.503 33.6885 233.482 33.5593C233.471 33.4302 233.466 33.2419 233.466 32.9944V28.7167H232.89C232.613 28.6952 232.415 28.6306 232.298 28.523C232.095 28.3186 231.994 27.9258 231.994 27.3447C231.994 26.4622 232.308 26.021 232.938 26.021H233.466V25.1655C233.466 24.3369 233.759 23.5889 234.346 22.9217C234.933 22.2438 235.781 21.9048 236.89 21.9048C237.136 21.9048 237.317 21.9155 237.434 21.9371C237.562 21.9478 237.707 21.9963 237.867 22.0823C238.155 22.2222 238.299 22.6366 238.299 23.3253C238.299 23.8418 238.208 24.2131 238.027 24.4391C237.877 24.6113 237.642 24.7081 237.322 24.7296C237.226 24.7296 237.077 24.7296 236.874 24.7296C236.48 24.7296 236.282 24.8642 236.282 25.1332V26.021L237.322 25.9242ZM239.659 27.3285C239.659 27.081 239.664 26.8981 239.675 26.7797C239.696 26.6505 239.744 26.5053 239.819 26.3438C239.968 26.0641 240.384 25.9242 241.067 25.9242C241.579 25.9242 241.942 26.0156 242.155 26.1986C242.336 26.3492 242.432 26.5806 242.443 26.8927C242.454 27.0003 242.459 27.1563 242.459 27.3608V33.0105C242.459 33.258 242.448 33.4464 242.427 33.5755C242.416 33.6939 242.368 33.8338 242.283 33.9952C242.144 34.275 241.734 34.4149 241.051 34.4149C240.379 34.4149 239.968 34.2696 239.819 33.979C239.744 33.8176 239.696 33.6777 239.675 33.5593C239.664 33.441 239.659 33.2526 239.659 32.9944V27.3285ZM242.283 24.3422C242.208 24.4929 242.07 24.6005 241.867 24.6651C241.664 24.7296 241.392 24.7619 241.051 24.7619C240.72 24.7619 240.454 24.7296 240.251 24.6651C240.048 24.6005 239.904 24.4875 239.819 24.3261C239.744 24.1647 239.696 24.0248 239.675 23.9064C239.664 23.7773 239.659 23.5889 239.659 23.3414C239.659 23.0939 239.664 22.911 239.675 22.7926C239.696 22.6635 239.744 22.5236 239.819 22.3729C239.968 22.0823 240.384 21.9371 241.067 21.9371C241.739 21.9371 242.144 22.0823 242.283 22.3729C242.368 22.5343 242.416 22.6796 242.427 22.8087C242.448 22.9271 242.459 23.1101 242.459 23.3576C242.459 23.6051 242.448 23.7934 242.427 23.9225C242.416 24.0409 242.368 24.1808 242.283 24.3422Z" fill="black"/>
<path d="M248.636 28.7652L247.596 28.7006V30.9282C247.596 31.2187 247.638 31.4286 247.724 31.5577C247.82 31.6869 247.99 31.7514 248.236 31.7514C248.492 31.7514 248.684 31.7622 248.812 31.7837C248.95 31.7945 249.094 31.8429 249.244 31.929C249.489 32.0689 249.612 32.4294 249.612 33.0105C249.612 33.6885 249.462 34.1028 249.164 34.2535C249.004 34.3288 248.86 34.3772 248.732 34.3987C248.614 34.4095 248.438 34.4149 248.204 34.4149C247.094 34.4149 246.251 34.162 245.675 33.6562C245.099 33.1504 244.811 32.2949 244.811 31.0896V28.7006C244.608 28.7329 244.39 28.749 244.155 28.749C243.92 28.749 243.723 28.6575 243.563 28.4746C243.414 28.2917 243.339 27.9796 243.339 27.5384C243.339 27.0971 243.366 26.7797 243.419 26.586C243.472 26.3815 243.547 26.2362 243.643 26.1501C243.814 26.0102 244.027 25.9403 244.283 25.9403L244.811 26.0049V24.3422C244.811 24.0947 244.817 23.9118 244.827 23.7934C244.849 23.675 244.902 23.5459 244.987 23.406C245.126 23.137 245.537 23.0024 246.219 23.0024C246.945 23.0024 247.377 23.2015 247.516 23.5997C247.569 23.7719 247.596 24.0463 247.596 24.4229V26.0049C248.065 25.9618 248.417 25.9403 248.652 25.9403C248.897 25.9403 249.078 25.9511 249.196 25.9726C249.324 25.9833 249.468 26.0318 249.628 26.1179C249.905 26.2578 250.044 26.6721 250.044 27.3608C250.044 28.0388 249.9 28.4531 249.612 28.6037C249.452 28.6791 249.308 28.7275 249.18 28.749C249.062 28.7598 248.881 28.7652 248.636 28.7652Z" fill="black"/>
<path d="M251.087 31.9613C251.194 31.7461 251.354 31.6008 251.568 31.5254C251.792 31.4501 252.133 31.4125 252.592 31.4125C253.061 31.4125 253.397 31.5147 253.6 31.7192C253.813 31.9236 253.92 32.2465 253.92 32.6877V32.9459C253.92 33.2042 253.909 33.3979 253.888 33.5271C253.877 33.6454 253.829 33.7907 253.744 33.9629C253.573 34.275 253.162 34.431 252.512 34.431C251.872 34.431 251.445 34.3288 251.232 34.1243C251.029 33.9091 250.927 33.5002 250.927 32.8975C250.927 32.4778 250.981 32.1657 251.087 31.9613ZM253.232 30.0727C253.029 30.1265 252.757 30.1534 252.416 30.1534C252.074 30.1534 251.802 30.1265 251.6 30.0727C251.397 30.0189 251.253 29.922 251.168 29.7821C251.093 29.6422 251.045 29.5185 251.023 29.4108C251.013 29.3032 251.007 29.1364 251.007 28.9104V23.7934C251.007 23.5674 251.013 23.4006 251.023 23.293C251.045 23.1746 251.098 23.0455 251.184 22.9056C251.269 22.7657 251.413 22.6688 251.616 22.615C251.818 22.5505 252.09 22.5182 252.432 22.5182C252.773 22.5182 253.045 22.5505 253.248 22.615C253.45 22.6688 253.589 22.7711 253.664 22.9217C253.749 23.0616 253.797 23.1908 253.808 23.3091C253.829 23.4168 253.84 23.5836 253.84 23.8095V28.9266C253.84 29.1526 253.829 29.3194 253.808 29.427C253.797 29.5346 253.749 29.6583 253.664 29.7982C253.578 29.9274 253.434 30.0189 253.232 30.0727Z" fill="black"/>
<path d="M324.826 188.152V178.725C324.826 178.477 324.831 178.294 324.842 178.176C324.863 178.057 324.911 177.923 324.986 177.772C325.135 177.482 325.493 177.336 326.058 177.336C326.623 177.336 327.002 177.412 327.194 177.562C327.397 177.702 327.514 177.912 327.546 178.192C327.952 177.632 328.586 177.353 329.45 177.353C330.325 177.353 331.152 177.767 331.931 178.596C332.709 179.424 333.099 180.387 333.099 181.485C333.099 182.583 332.709 183.546 331.931 184.374C331.163 185.203 330.341 185.617 329.466 185.617C328.592 185.617 327.957 185.37 327.562 184.875V188.136C327.562 188.383 327.551 188.566 327.53 188.684C327.519 188.803 327.471 188.937 327.386 189.088C327.311 189.249 327.178 189.362 326.986 189.427C326.794 189.491 326.533 189.524 326.202 189.524C325.871 189.524 325.605 189.491 325.402 189.427C325.21 189.362 325.071 189.255 324.986 189.104C324.911 188.953 324.863 188.819 324.842 188.7C324.831 188.582 324.826 188.399 324.826 188.152ZM327.994 180.549C327.749 180.839 327.626 181.157 327.626 181.501C327.626 181.845 327.749 182.163 327.994 182.454C328.25 182.733 328.57 182.873 328.954 182.873C329.349 182.873 329.68 182.733 329.946 182.454C330.224 182.174 330.362 181.856 330.362 181.501C330.362 181.146 330.234 180.829 329.978 180.549C329.722 180.258 329.386 180.113 328.97 180.113C328.565 180.113 328.24 180.258 327.994 180.549Z" fill="black"/>
<path d="M339.868 177.433C340.071 177.498 340.236 177.611 340.364 177.772C340.503 177.923 340.572 178.17 340.572 178.515C340.572 178.859 340.471 179.236 340.268 179.645C340.066 180.054 339.772 180.258 339.388 180.258C339.196 180.258 339.009 180.215 338.828 180.129C338.657 180.043 338.428 180 338.14 180C337.852 180 337.58 180.102 337.324 180.307C337.079 180.511 336.956 180.759 336.956 181.049V184.439C336.956 184.686 336.945 184.875 336.924 185.004C336.913 185.122 336.865 185.262 336.78 185.424C336.62 185.703 336.204 185.843 335.532 185.843C335.02 185.843 334.652 185.752 334.428 185.569C334.257 185.418 334.161 185.187 334.139 184.875C334.139 184.767 334.139 184.611 334.139 184.407V178.741C334.139 178.493 334.145 178.31 334.155 178.192C334.177 178.063 334.225 177.923 334.3 177.772C334.449 177.482 334.865 177.336 335.548 177.336C336.188 177.336 336.588 177.46 336.748 177.708C336.865 177.88 336.924 178.057 336.924 178.24C336.977 178.165 337.052 178.074 337.148 177.966C337.255 177.858 337.473 177.713 337.804 177.53C338.135 177.347 338.423 177.256 338.668 177.256C338.924 177.256 339.137 177.272 339.308 177.304C339.479 177.326 339.666 177.369 339.868 177.433Z" fill="black"/>
<path d="M340.728 181.598C340.728 180.307 341.177 179.241 342.073 178.402C342.969 177.562 343.993 177.143 345.145 177.143C346.297 177.143 347.316 177.562 348.201 178.402C349.087 179.23 349.53 180.29 349.53 181.582C349.53 182.475 349.3 183.271 348.842 183.971C348.383 184.66 347.823 185.171 347.161 185.504C346.511 185.827 345.833 185.989 345.129 185.989C344.425 185.989 343.742 185.816 343.081 185.472C342.419 185.117 341.859 184.6 341.401 183.922C340.952 183.234 340.728 182.459 340.728 181.598ZM344.073 182.76C344.414 183.018 344.761 183.148 345.113 183.148C345.465 183.148 345.817 183.013 346.169 182.744C346.521 182.475 346.697 182.077 346.697 181.55C346.697 181.022 346.532 180.629 346.201 180.371C345.87 180.113 345.513 179.984 345.129 179.984C344.745 179.984 344.388 180.118 344.057 180.387C343.726 180.656 343.561 181.055 343.561 181.582C343.561 182.098 343.732 182.491 344.073 182.76Z" fill="black"/>
<path d="M355.18 177.353C355.916 177.353 356.348 177.557 356.476 177.966C356.54 178.17 356.572 178.44 356.572 178.773C356.572 179.107 356.534 179.376 356.46 179.58C356.396 179.774 356.289 179.914 356.14 180C355.916 180.129 355.59 180.194 355.164 180.194L354.139 180.129V184.455C354.139 184.864 354.086 185.171 353.979 185.375C353.883 185.569 353.729 185.698 353.515 185.763C353.313 185.827 353.046 185.859 352.715 185.859C352.385 185.859 352.118 185.827 351.915 185.763C351.723 185.687 351.584 185.574 351.499 185.424C351.414 185.262 351.36 185.117 351.339 184.988C351.328 184.859 351.323 184.67 351.323 184.423V180.145H350.747C350.47 180.124 350.272 180.059 350.155 179.951C349.952 179.747 349.851 179.354 349.851 178.773C349.851 177.891 350.166 177.449 350.795 177.449H351.323V176.594C351.323 175.765 351.616 175.017 352.203 174.35C352.79 173.672 353.638 173.333 354.748 173.333C354.993 173.333 355.174 173.344 355.292 173.366C355.42 173.376 355.564 173.425 355.724 173.511C356.012 173.651 356.156 174.065 356.156 174.754C356.156 175.27 356.065 175.642 355.884 175.868C355.734 176.04 355.5 176.137 355.18 176.158C355.084 176.158 354.934 176.158 354.732 176.158C354.337 176.158 354.139 176.293 354.139 176.562V177.449L355.18 177.353ZM357.516 178.757C357.516 178.509 357.521 178.327 357.532 178.208C357.553 178.079 357.601 177.934 357.676 177.772C357.825 177.493 358.241 177.353 358.924 177.353C359.436 177.353 359.799 177.444 360.012 177.627C360.194 177.778 360.29 178.009 360.3 178.321C360.311 178.429 360.316 178.585 360.316 178.789V184.439C360.316 184.686 360.306 184.875 360.284 185.004C360.274 185.122 360.226 185.262 360.14 185.424C360.002 185.703 359.591 185.843 358.908 185.843C358.236 185.843 357.825 185.698 357.676 185.408C357.601 185.246 357.553 185.106 357.532 184.988C357.521 184.869 357.516 184.681 357.516 184.423V178.757ZM360.14 175.771C360.066 175.921 359.927 176.029 359.724 176.094C359.521 176.158 359.249 176.19 358.908 176.19C358.577 176.19 358.311 176.158 358.108 176.094C357.905 176.029 357.761 175.916 357.676 175.755C357.601 175.593 357.553 175.453 357.532 175.335C357.521 175.206 357.516 175.017 357.516 174.77C357.516 174.522 357.521 174.339 357.532 174.221C357.553 174.092 357.601 173.952 357.676 173.801C357.825 173.511 358.241 173.366 358.924 173.366C359.596 173.366 360.002 173.511 360.14 173.801C360.226 173.963 360.274 174.108 360.284 174.237C360.306 174.356 360.316 174.539 360.316 174.786C360.316 175.034 360.306 175.222 360.284 175.351C360.274 175.469 360.226 175.609 360.14 175.771Z" fill="black"/>
<path d="M366.493 180.194L365.453 180.129V182.357C365.453 182.647 365.495 182.857 365.581 182.986C365.677 183.115 365.847 183.18 366.093 183.18C366.349 183.18 366.541 183.191 366.669 183.212C366.808 183.223 366.952 183.271 367.101 183.357C367.346 183.497 367.469 183.858 367.469 184.439C367.469 185.117 367.32 185.531 367.021 185.682C366.861 185.757 366.717 185.806 366.589 185.827C366.471 185.838 366.295 185.843 366.061 185.843C364.951 185.843 364.108 185.59 363.532 185.085C362.956 184.579 362.668 183.723 362.668 182.518V180.129C362.466 180.161 362.247 180.177 362.012 180.177C361.778 180.177 361.58 180.086 361.42 179.903C361.271 179.72 361.196 179.408 361.196 178.967C361.196 178.526 361.223 178.208 361.276 178.014C361.329 177.81 361.404 177.665 361.5 177.579C361.671 177.439 361.884 177.369 362.14 177.369L362.668 177.433V175.771C362.668 175.523 362.674 175.34 362.684 175.222C362.706 175.103 362.759 174.974 362.844 174.834C362.983 174.565 363.394 174.431 364.076 174.431C364.802 174.431 365.234 174.63 365.373 175.028C365.426 175.2 365.453 175.475 365.453 175.851V177.433C365.922 177.39 366.274 177.369 366.509 177.369C366.754 177.369 366.936 177.38 367.053 177.401C367.181 177.412 367.325 177.46 367.485 177.546C367.762 177.686 367.901 178.101 367.901 178.789C367.901 179.467 367.757 179.882 367.469 180.032C367.309 180.108 367.165 180.156 367.037 180.177C366.92 180.188 366.738 180.194 366.493 180.194Z" fill="black"/>
<path d="M368.945 183.39C369.051 183.175 369.211 183.029 369.425 182.954C369.649 182.879 369.99 182.841 370.449 182.841C370.918 182.841 371.254 182.943 371.457 183.148C371.67 183.352 371.777 183.675 371.777 184.116V184.374C371.777 184.633 371.766 184.826 371.745 184.956C371.734 185.074 371.686 185.219 371.601 185.391C371.43 185.703 371.02 185.859 370.369 185.859C369.729 185.859 369.302 185.757 369.089 185.553C368.886 185.338 368.785 184.929 368.785 184.326C368.785 183.906 368.838 183.594 368.945 183.39ZM371.089 181.501C370.886 181.555 370.614 181.582 370.273 181.582C369.931 181.582 369.659 181.555 369.457 181.501C369.254 181.447 369.11 181.35 369.025 181.211C368.95 181.071 368.902 180.947 368.881 180.839C368.87 180.732 368.865 180.565 368.865 180.339V175.222C368.865 174.996 368.87 174.829 368.881 174.721C368.902 174.603 368.955 174.474 369.041 174.334C369.126 174.194 369.27 174.097 369.473 174.044C369.675 173.979 369.947 173.947 370.289 173.947C370.63 173.947 370.902 173.979 371.105 174.044C371.308 174.097 371.446 174.2 371.521 174.35C371.606 174.49 371.654 174.619 371.665 174.738C371.686 174.845 371.697 175.012 371.697 175.238V180.355C371.697 180.581 371.686 180.748 371.665 180.855C371.654 180.963 371.606 181.087 371.521 181.227C371.436 181.356 371.292 181.447 371.089 181.501Z" fill="black"/>
</g>
</svg>
