<svg width="142" height="33" viewBox="0 0 142 33" fill="none" xmlns="http://www.w3.org/2000/svg"><g clip-path="url(#clip0)"><path d="M20.6 24l-6 2.5v-.3c-1 .3-2.3.5-3.5.5-5.6 0-10-3-10-6.3V19c1.8 2.6 5.5 4.4 10 4.3 1.5 0 3-.2 4.3-.5l.5-1.3c-1.5.5-3.2.8-4.8.8-5.6 0-10-2.9-10-6.4v-1c1.8 2.4 5.5 4.2 10 4 2 .2 4-.2 5.6-1l.3-1.2c-1.6.8-3.8 1.3-6 1.3-5.5 0-10-2.8-10-6.4v-1C3 13.2 6.6 14.9 11 15c2.6 0 5-.7 7-1.8l.3-1.5A13.5 13.5 0 0111 14c-5.6-.1-10-3-10-6.6C1 3.9 5.4 1 11 1a12 12 0 018.2 3l.2.4h1.3l-.2-.3C18.8 1.6 15 0 11 0 4.9 0 0 3.4 0 7.4v13.2c.2 4 5 7.1 11 7.1 4 0 7.7-1.5 9.6-3.8z" fill="#253137"/><path fill-rule="evenodd" clip-rule="evenodd" d="M49.5 11c.6-.4.9-1.1 1-2h-1.7c0 .5-.2.9-.4 1.1-.3.2-.7.3-1.2.3s-1-.2-1.2-.6c-.2-.3-.4-1-.4-1.8v-.6c0-.8.2-1.4.4-1.8.3-.4.7-.6 1.3-.6.5 0 .8 0 1 .3.3.3.5.6.5 1.1h1.6a3 3 0 00-1-2c-.5-.5-1.2-.8-2.1-.8-.7 0-1.3.2-1.8.5a3 3 0 00-1.1 1.3c-.3.6-.4 1.3-.4 2V8c0 1.2.3 2.2.8 2.8a3 3 0 002.4 1c1 0 1.7-.2 2.3-.7zm9-1c.2-.7.3-1.3.3-2.1v-.4c0-.7-.1-1.4-.4-2a3.1 3.1 0 00-3-1.9c-.6 0-1.2.2-1.7.5s-.9.8-1.2 1.4c-.3.6-.4 1.3-.4 2V8c0 .8.2 1.5.4 2a3.1 3.1 0 003 1.9c.6 0 1.2-.2 1.7-.5.6-.3 1-.8 1.2-1.4zm-1.8-4.4c.3.5.5 1.1.5 2v.3c0 .8-.2 1.5-.5 1.9-.2.4-.7.6-1.2.6-.6 0-1-.2-1.3-.6-.3-.5-.4-1.1-.4-2v-.3c0-.8.1-1.4.4-1.9.3-.4.7-.6 1.3-.6.5 0 1 .2 1.2.6zm4.3 6h1.6V3.8H61v8zm8.8 0h1.6V3.8h-1.6V9l-3.2-5.3H65v8h1.6V6.5l3.2 5.2zM77 5.2h2.5V3.7H73v1.4h2.4v6.6H77V5zM83 8.2H86V7h-3.1V5h3.6V3.8h-5.3v8h5.3v-1.3H83V8.2zm10.5 2.2H90V3.7h-1.6v8h5v-1.3zM97 8.2h3V7h-3V5h3.6V3.8h-5.3v8h5.3v-1.3H97V8.2zm10.4 3.3c.6-.2 1-.5 1.3-.8V7.5h-3.1v1.2h1.5v1.4c-.3.2-.7.4-1.3.4-.7 0-1.1-.2-1.4-.7-.4-.4-.5-1-.5-1.9v-.5c0-.8.1-1.4.4-1.8.3-.4.7-.6 1.3-.6.4 0 .8 0 1 .3.3.2.4.5.5 1h1.6c-.1-.9-.4-1.5-1-2-.5-.4-1.2-.7-2.2-.7-.6 0-1.2.2-1.7.5a3 3 0 00-1.2 1.3c-.2.6-.4 1.3-.4 2V8c0 .8.2 1.5.5 2 .2.6.6 1 1.2 1.3.5.3 1 .5 1.8.5.6 0 1.2-.1 1.7-.3zm5-2.7h1.4l1.5 2.9h1.7v-.1l-1.7-3.2c.5-.3.8-.5 1-1 .3-.3.4-.7.4-1.3 0-.7-.2-1.3-.7-1.7-.5-.4-1.3-.7-2.2-.7h-3v8h1.7v-3zm2.4-1.7c-.3.2-.6.3-1 .3h-1.3V5.1h1.3c.4 0 .8 0 1 .3.2.2.3.5.3.9 0 .3-.1.6-.3.8zm5.6 3h2.9l.5 1.6h1.8l-3-8H121l-3 8h1.8l.5-1.7zm2.4-1.4h-2l1-3 1 3zm6 3V8.9h1.4c1 0 1.7-.2 2.2-.7.5-.4.8-1 .8-1.8 0-.5-.1-1-.4-1.4-.2-.4-.6-.7-1-1-.5-.1-1-.3-1.6-.3h-3v8h1.6zm1.4-4.1h-1.4V5h1.5c.4 0 .7.1 1 .3.1.3.3.6.3 1s-.2.6-.4.9c-.2.2-.5.3-1 .3zm9.8 4h1.6V3.8h-1.6V7h-3.2V3.7H135v8h1.6V8.3h3.2v3.4z" fill="#253137"/><path fill-rule="evenodd" clip-rule="evenodd" d="M18.2 32.9l2-8.8-6 2.6L18 11.6h-7L12.7 4H35l-1.8 7.5H26l-1.6 4 8-3.3L18.2 33zm2.6-5.4l1-5.2-6 2.6 3.4-14.4h-7l1.3-5.4h20.2l-1.3 5.4h-7l-3 7.2 7-3-8.6 12.8z" fill="#FABF2C"/><path d="M48.5 19h-1.8v4.9h-1V19H44v-.8h4.5v.8zm1.9 1.1c.3-.3.7-.5 1.1-.5 1 0 1.4.5 1.4 1.5V24h-1V21l-.1-.6-.6-.1a1 1 0 00-.8.5v3h-1v-6h1v2.2zM56 24a2 2 0 01-1.4-.5 2 2 0 01-.6-1.5v-.1c0-.5 0-.8.2-1.2.2-.3.4-.6.7-.7.3-.2.7-.3 1-.3.6 0 1 .2 1.3.5.3.4.5 1 .5 1.6v.4h-2.8c0 .3.2.6.4.8.2.2.5.3.8.3.4 0 .7-.2 1-.5l.5.4c-.1.3-.4.5-.6.6-.3.2-.6.2-1 .2zm-.1-3.6c-.3 0-.5.1-.6.3-.2.2-.3.4-.3.8h1.8v-.1c0-.3-.1-.6-.3-.7a.8.8 0 00-.6-.3zm5.5 3.6v-3.5h-.7v-.7h.7v-.4c0-.5.1-.9.4-1.1.2-.3.6-.4 1-.4h.6v.8H63c-.5 0-.7.2-.7.7v.4h.9v.7h-.9v3.5h-1zm5.3-.5c-.3.4-.7.5-1.2.5-.4 0-.8-.1-1-.4-.2-.2-.3-.6-.3-1.1v-2.7h.9v2.7c0 .5.2.8.7.8.4 0 .7-.2.9-.5v-3h1v4.2h-1v-.5zm3.4-4.8v1h.7v.8h-.7V23h.8v.7l-.7.1c-.7 0-1-.4-1-1.2v-2.3h-.7v-.7h.6v-1h1zm4.3 4.8c-.3.4-.7.5-1.2.5-.4 0-.8-.1-1-.4-.2-.2-.4-.6-.4-1.1v-2.7h1v2.7c0 .5.2.8.7.8.4 0 .7-.2.9-.5v-3h1v4.2h-1v-.5zm4.4-2.9h-.4c-.4 0-.7.2-.9.5v2.9h-.9v-4.2h.9v.4a1 1 0 011-.5h.3v1zm2.7 3.4a2 2 0 01-1.5-.5 2 2 0 01-.5-1.5v-.1c0-.5 0-.8.2-1.2.2-.3.4-.6.7-.7.3-.2.6-.3 1-.3.6 0 1 .2 1.3.5.3.4.5 1 .5 1.6v.4h-2.8c0 .3.2.6.4.8.2.2.4.3.7.3.5 0 .8-.2 1.1-.5l.5.4c-.2.3-.4.5-.7.6-.2.2-.6.2-1 .2zm-.1-3.6c-.3 0-.5.1-.6.3l-.4.8h1.8v-.1c0-.3 0-.6-.2-.7a.8.8 0 00-.6-.3zm5 1.4c0-.4 0-.8.2-1a1.8 1.8 0 011.7-1.1c.6 0 1 .2 1.4.5.3.4.5.9.5 1.5v.2c0 .4 0 .8-.2 1.1-.1.3-.4.6-.7.8a2 2 0 01-1 .2c-.6 0-1-.2-1.4-.6-.4-.3-.6-.9-.6-1.5zm.9.1c0 .4 0 .8.3 1 .1.3.4.4.7.4.3 0 .6-.1.7-.4.2-.2.3-.6.3-1 0-.5 0-.8-.3-1a.9.9 0 00-.7-.5c-.3 0-.6.2-.7.4-.2.3-.3.6-.3 1.1zm4.4 2v-3.4h-.6v-.7h.6v-.4c0-.5.1-.9.4-1.1.2-.3.6-.4 1-.4h.6v.8h-.4c-.4 0-.7.2-.7.7v.4h.9v.7h-.9v3.5h-.9zm6-4.1v.4c.3-.3.7-.5 1.2-.5.6 0 1 .2 1.2.6.3-.4.7-.6 1.3-.6.4 0 .8.1 1 .4.2.2.3.6.3 1.1v2.8h-.9V21c0-.2 0-.4-.2-.6l-.6-.1-.5.1a1 1 0 00-.3.5v2.9h-.9V21c0-.5-.3-.7-.8-.7-.3 0-.6.1-.8.4v3h-1v-4.1h1zm6.2 2c0-.4 0-.8.2-1 .1-.4.4-.7.7-.9a2 2 0 011-.2c.6 0 1 .2 1.4.5.3.4.5.9.6 1.5v.2c0 .4-.1.8-.3 1.1-.1.3-.4.6-.7.8a2 2 0 01-1 .2c-.6 0-1-.2-1.4-.6-.4-.3-.5-.9-.5-1.5zm.9.1c0 .4 0 .8.3 1 .1.3.4.4.7.4.3 0 .6-.1.8-.4l.2-1c0-.5 0-.8-.3-1a.9.9 0 00-.7-.5c-.3 0-.6.2-.7.4-.2.3-.3.6-.3 1.1zm5-2.1v.4c.3-.3.7-.5 1.2-.5.9 0 1.3.5 1.3 1.5v2.8h-1V21v-.6l-.6-.1a1 1 0 00-.9.5v3h-1v-4.2h1zm5.7 4.2a2 2 0 01-1.5-.5 2 2 0 01-.5-1.5v-.1c0-.5 0-.8.2-1.2.1-.3.4-.6.7-.7.3-.2.6-.3 1-.3.5 0 1 .2 1.3.5.3.4.4 1 .4 1.6v.4h-2.7c0 .3.1.6.3.8.3.2.5.3.8.3.4 0 .8-.2 1-.5l.6.4c-.2.3-.4.5-.7.6-.3.2-.6.2-1 .2zm-.2-3.6l-.6.3-.3.8h1.8v-.1c0-.3 0-.6-.2-.7a.8.8 0 00-.7-.3zm4.3 2.2l.9-2.8h1l-1.7 4.8c-.3.7-.7 1-1.3 1h-.5v-.7h.2c.3 0 .4 0 .6-.2l.2-.4.2-.4-1.5-4.1h1l1 2.8z" fill="#253137"/></g><defs><clipPath id="clip0"><path fill="#fff" d="M0 0h142v32.9H0z"/></clipPath></defs></svg>