<svg width="137" height="26" fill="none" xmlns="http://www.w3.org/2000/svg"><g clip-path="url(#clip0)"><path d="M11.72 13.079c0 .709.554 1.26 1.267 1.26.713 0 1.267-.551 1.267-1.26 0-.71-.554-1.26-1.267-1.26-.713 0-1.267.55-1.267 1.26zm10.691-1.26c-.713 0-1.267.55-1.267 1.26 0 .709.554 1.26 1.267 1.26.713 0 1.267-.551 1.267-1.26 0-.71-.554-1.26-1.267-1.26zm0 9.532c-.713 0-1.267.552-1.267 1.261 0 .71.554 1.26 1.267 1.26.713 0 1.267-.55 1.267-1.26 0-.709-.554-1.26-1.267-1.26z" fill="#EABD4E"/><path d="M25.104 1.34C23.835-.237 21.54-.316 20.194.944l-.159.158-.317.236c-1.267 1.025-3.167.946-4.355-.236v-.079a3.593 3.593 0 00-1.505-.867c-.079 0-.237-.078-.316-.078h-1.267c-.08 0-.159 0-.238.078h-.158c-.08 0-.159.08-.238.08 0 0-.08 0-.08.078-.078 0-.158.079-.237.079 0 0-.079 0-.079.079-.08.078-.158.078-.237.157 0 0-.08 0-.08.079-.079.079-.158.079-.237.158l-.08.078-.158.158-.317.236C8.87 2.364 6.97 2.285 5.86 1.103c0 0-.08 0-.08-.079L5.624.867C5.147.473 4.593.157 3.96.079H2.534c0 .078-.08.078-.158.157h-.08c-.395.158-.791.315-1.108.63l-.08.08-.237.236c-.317.315-.475.709-.633 1.024 0 .079-.08.158-.08.236 0 .08-.079.158-.079.315C0 3.31 0 3.86.16 4.412c0 .079.079.158.079.236v.08c0 .078.079.157.079.236.079.078.079.157.158.315.159.078.317.236.396.315l.158.157.159.158c1.188 1.182 1.188 3.23-.08 4.49-.158.159-.395.395-.474.552-.08.08-.08.158-.159.316v.078c-.079.08-.079.158-.158.237v.079c0 .078-.08.157-.08.236v.079c0 .078 0 .157-.079.236v1.182c0 .079 0 .157.08.236v.079c.158.552.475 1.103.95 1.576a3.222 3.222 0 010 4.57l-.08.078-.158.158v.079c-.079.078-.158.157-.158.236 0 0 0 .079-.08.079-.078.079-.078.157-.158.236l-.079.079c0 .079-.079.079-.079.157 0 .08-.08.08-.08.158 0 .079 0 .079-.078.158-.159.315-.238.709-.238 1.024v.63c.08.236.08.473.238.63 0 .08.079.158.079.158s0 .079.079.079c0 .079.08.157.08.236 0 0 0 .079.078.079.08.158.159.236.238.315 0 0 0 .079.08.079 0 0 0 .079.078.079 0 .078.08.078.08.078l.079.08c.079.078.158.078.158.157l.08.079s.078 0 .078.078c.08.08.159.158.238.158 0 0 .08 0 .08.079.078.079.158.079.237.157h.079c.08.08.158.08.317.08.079 0 .237.078.316.078h.08c.079 0 .158 0 .237.079h.713c.238 0 .396-.079.633-.079h.08c.079 0 .158-.079.237-.079h.08c.079 0 .158-.079.237-.079h.08c.158-.078.395-.236.554-.315l.237-.236.08-.079a3.127 3.127 0 014.592 0c1.426 1.497 3.802 1.418 5.148-.236.95-1.182.95-2.915 0-4.176-1.267-1.576-3.564-1.655-4.91-.394l-.158.158-.317.236c-1.267 1.024-3.168.945-4.356-.236l-.158-.158-.238-.315c-1.03-1.26-.95-3.152.238-4.333.713-.63 1.03-1.497 1.03-2.364v-.237c0-.787-.317-1.575-.95-2.127 0-.079-.08-.079-.08-.157l-.238-.315c-1.03-1.261-.95-3.152.238-4.334l.08-.079.078-.078a3.127 3.127 0 014.593 0l.08.078.079.08.158.157c.08 0 .08.079.159.079s.079.078.158.078c.08 0 .08.08.158.08.08 0 .08.078.159.078s.079.079.158.079c.08 0 .08.079.158.079.08 0 .08 0 .159.078.079 0 .079 0 .158.08h1.346c.08 0 .159 0 .238-.08h.158c.08 0 .159-.079.238-.079h.08c.078 0 .158-.078.316-.157.317-.158.633-.394.871-.63l.08-.08a3.127 3.127 0 014.592 0c1.346 1.577 3.801 1.498 5.069-.157a3.3 3.3 0 000-4.097z" fill="#EABD4E"/><path d="M43.159 11.11c-.475-.474-.871-.789-1.426-1.025a3.791 3.791 0 00-1.742-.394 4.05 4.05 0 00-1.742.394 2.956 2.956 0 00-1.188 1.024 3.991 3.991 0 00-.713 1.418 5.972 5.972 0 00-.237 1.655c0 .551.079 1.103.317 1.654.158.552.475.946.791 1.34.317.394.792.709 1.267.945.476.237 1.03.315 1.664.315a3.79 3.79 0 001.742-.394c.475-.236.95-.551 1.346-1.024l1.663 1.733a5.565 5.565 0 01-2.138 1.497c-.792.316-1.663.473-2.613.473s-1.901-.157-2.693-.473a6.198 6.198 0 01-2.059-1.339 6.16 6.16 0 01-1.346-2.048c-.317-.788-.475-1.734-.475-2.68 0-.945.158-1.89.475-2.678.317-.788.792-1.497 1.346-2.127a6.197 6.197 0 012.059-1.34c.792-.315 1.742-.472 2.693-.472.95 0 1.82.157 2.613.472.87.316 1.584.867 2.217 1.497L43.16 11.11zm5.385 2.914c0 .63.079 1.26.317 1.734.158.551.475 1.024.791 1.418.317.394.792.709 1.267.866.476.237 1.11.316 1.743.316s1.188-.08 1.742-.316c.475-.236.95-.551 1.267-.866.317-.394.633-.867.792-1.418.158-.552.316-1.103.316-1.734 0-.63-.079-1.26-.316-1.733-.159-.552-.475-1.024-.792-1.418a2.814 2.814 0 00-1.267-.867c-.475-.236-1.109-.315-1.742-.315-.634 0-1.188.079-1.743.315-.475.236-.95.552-1.267.867-.316.394-.633.866-.791 1.418-.159.551-.317 1.103-.317 1.733zm-2.534 0c0-.945.158-1.812.475-2.6a6.296 6.296 0 011.425-2.127c.634-.63 1.267-1.103 2.138-1.418.792-.315 1.663-.552 2.614-.552.95 0 1.821.158 2.613.552a6.332 6.332 0 012.138 1.418c.634.63 1.03 1.34 1.426 2.127.316.788.475 1.655.475 2.6 0 .946-.159 1.812-.475 2.6a6.295 6.295 0 01-1.426 2.128c-.633.63-1.267 1.024-2.138 1.418-.792.315-1.663.551-2.613.551s-1.822-.157-2.614-.551a6.331 6.331 0 01-2.138-1.419c-.633-.63-1.03-1.26-1.425-2.127-.238-.788-.475-1.654-.475-2.6zm15.759 6.382h2.375V7.8H61.77v12.606zM61.214 3.23c0-.472.159-.866.475-1.26.317-.315.713-.552 1.188-.552s.871.158 1.188.552c.317.315.475.788.475 1.26 0 .473-.158.867-.475 1.26-.317.316-.713.552-1.188.552s-.87-.157-1.188-.551c-.316-.315-.475-.788-.475-1.26zM67.47 7.8h2.376v1.97h.08c.316-.71.791-1.26 1.583-1.655.713-.394 1.584-.63 2.613-.63.634 0 1.188.079 1.743.315.554.158 1.029.473 1.425.867.396.394.713.866 1.03 1.497.237.63.395 1.339.395 2.206v8.115H76.34V13c0-.552-.08-1.103-.238-1.497-.158-.394-.396-.788-.633-1.024-.238-.237-.555-.473-.95-.552a4.697 4.697 0 00-1.11-.157c-.475 0-.95.078-1.346.236-.396.158-.791.394-1.108.788-.317.315-.555.788-.713 1.34-.158.55-.238 1.181-.238 1.89v6.54H67.63V7.8h-.159zm20.036 10.636c.633 0 1.187-.078 1.742-.315.554-.236.95-.551 1.346-.945.317-.394.634-.867.792-1.418.158-.552.317-1.103.317-1.813 0-.63-.08-1.26-.317-1.812-.158-.551-.475-1.024-.792-1.418-.396-.394-.792-.709-1.346-.945-.555-.237-1.109-.315-1.742-.315-.634 0-1.188.078-1.743.315-.554.236-.95.551-1.346.945-.317.394-.633.867-.792 1.418-.158.552-.317 1.103-.317 1.813 0 .63.08 1.26.317 1.812.159.551.475 1.024.792 1.418.317.394.792.709 1.346.945.475.158 1.109.315 1.743.315zm6.572 1.891h-2.375v-1.812h-.08c-.475.71-1.108 1.182-1.9 1.576-.792.394-1.663.551-2.534.551-.95 0-1.9-.157-2.693-.472-.792-.316-1.504-.788-2.059-1.419-.554-.63-1.03-1.339-1.267-2.127-.317-.788-.475-1.654-.475-2.6 0-.945.159-1.812.475-2.678.317-.788.713-1.498 1.267-2.128.555-.63 1.267-1.103 2.06-1.418.791-.315 1.662-.473 2.692-.473.87 0 1.742.158 2.534.552.792.394 1.425.945 1.821 1.576h.08V0h2.375v20.327h.08zM106.195 13c0-.552-.08-1.024-.238-1.497a2.958 2.958 0 00-.713-1.182c-.316-.315-.712-.551-1.108-.788-.476-.157-.951-.315-1.584-.315-.555 0-1.109.079-1.584.315-.475.237-.871.473-1.267.867-.317.315-.634.71-.792 1.182-.158.473-.317.866-.317 1.26h7.603V13zm-7.603 1.97c0 .551.159 1.024.396 1.497.238.472.555.866.95 1.181a4.41 4.41 0 001.347.71 5.508 5.508 0 001.584.236c.712 0 1.425-.158 1.979-.552.555-.315 1.03-.788 1.505-1.339l1.821 1.418c-1.346 1.734-3.246 2.6-5.622 2.6-1.03 0-1.901-.157-2.693-.473-.792-.315-1.504-.787-2.059-1.418-.554-.63-1.03-1.26-1.267-2.127-.317-.788-.475-1.654-.475-2.6 0-.945.158-1.812.475-2.6.317-.788.792-1.497 1.346-2.127.555-.63 1.268-1.024 2.06-1.418.791-.316 1.663-.473 2.613-.473 1.108 0 2.059.157 2.851.551.792.394 1.425.867 1.9 1.497.475.63.871 1.34 1.109 2.128.237.787.317 1.575.317 2.442v.867H98.592zm19.481-4.019c-.317-.315-.633-.63-1.029-.866a3.048 3.048 0 00-1.505-.394c-.554 0-1.029.157-1.505.394-.396.236-.633.551-.633 1.024 0 .394.158.71.396.867.237.236.554.394.871.551.317.158.713.237 1.029.315.396.08.713.158.951.158.475.158 1.029.236 1.425.473.475.157.871.394 1.188.709.317.315.554.63.792 1.024.158.394.317.867.317 1.497 0 .71-.159 1.34-.475 1.812-.317.473-.713.946-1.188 1.26a5.297 5.297 0 01-1.663.71 7.715 7.715 0 01-1.822.236c-1.029 0-1.979-.157-2.771-.473-.792-.315-1.505-.866-2.139-1.733l1.822-1.497c.396.394.792.71 1.267 1.024.475.316 1.029.473 1.742.473.317 0 .634 0 .95-.079.317-.078.555-.157.792-.315.238-.157.396-.315.555-.473.158-.236.237-.472.237-.709 0-.315-.079-.63-.317-.866a2.844 2.844 0 00-.791-.552c-.317-.157-.634-.236-.951-.315l-.95-.236c-.475-.158-1.03-.237-1.425-.394a4.185 4.185 0 01-1.188-.63c-.317-.237-.634-.63-.871-1.025-.238-.394-.317-.945-.317-1.497 0-.63.158-1.26.396-1.733.237-.473.633-.867 1.108-1.182a5.281 5.281 0 011.505-.709 6.626 6.626 0 011.742-.236c.871 0 1.663.157 2.455.472.792.316 1.426.867 1.901 1.576l-1.901 1.34zM122.666.316h2.376V13.08l5.385-5.358h3.247l-5.781 5.673 6.335 6.776h-3.405l-5.781-6.46v6.46h-2.376V.315z" fill="#000"/></g><defs><clipPath id="clip0"><path fill="#fff" d="M0 0h137v26H0z"/></clipPath></defs></svg>