<svg width="270" height="280" viewBox="0 0 270 280" fill="none" xmlns="http://www.w3.org/2000/svg">
<path fill-rule="evenodd" clip-rule="evenodd" d="M148.366 126.645C149.042 127.32 149.042 128.415 148.366 129.091L137.448 140L148.366 150.909C149.042 151.584 149.042 152.679 148.366 153.355C147.69 154.03 146.594 154.03 145.918 153.355L135 142.446L124.082 153.355C123.406 154.03 122.31 154.03 121.634 153.355C120.958 152.679 120.958 151.584 121.634 150.909L132.552 140L121.634 129.091C120.958 128.416 120.958 127.321 121.634 126.645C122.31 125.97 123.406 125.97 124.082 126.645L135 137.554L145.918 126.645C146.594 125.97 147.69 125.97 148.366 126.645Z" fill="black"/>
<path d="M1 233.564C1 208.471 21.3422 188.129 46.4357 188.129H223.564C248.658 188.129 269 208.471 269 233.564C269 258.658 248.658 279 223.564 279H46.4357C21.3422 279 1 258.658 1 233.564Z" stroke="#13C8A4" stroke-width="2"/>
<path fill-rule="evenodd" clip-rule="evenodd" d="M89.8343 211.452V255.676H46.4753V211.452H89.8343Z" fill="#13C8A4"/>
<path fill-rule="evenodd" clip-rule="evenodd" d="M75.0714 238.277H79.4104C79.468 238.277 79.5242 238.26 79.5709 238.229C79.6177 238.197 79.6526 238.153 79.6707 238.102L81.2271 233.745C81.2281 233.742 81.229 233.739 81.2299 233.736L82.5972 229.357C82.617 229.293 82.6091 229.224 82.5753 229.166L82.4739 228.987C82.4505 228.946 82.4155 228.912 82.3728 228.888C82.3301 228.864 82.2812 228.852 82.2314 228.852H76.7182C76.653 228.852 76.5899 228.873 76.5402 228.913C76.4905 228.952 76.4574 229.006 76.447 229.066L75.6414 233.737C75.6414 233.739 75.6414 233.742 75.6414 233.744L74.8015 237.975C74.7941 238.012 74.7954 238.05 74.8056 238.086C74.8157 238.122 74.8343 238.156 74.8601 238.185C74.8859 238.214 74.9182 238.237 74.9547 238.253C74.9912 238.269 75.0311 238.277 75.0714 238.277ZM64.3794 238.277H68.702C68.7596 238.277 68.8158 238.26 68.8625 238.229C68.9092 238.197 68.9442 238.153 68.9623 238.102L70.5297 233.745C70.5306 233.742 70.5315 233.739 70.5324 233.736L71.9079 229.357C71.9282 229.293 71.9208 229.225 71.8874 229.166L71.7833 228.987C71.76 228.946 71.7252 228.912 71.6828 228.889C71.6403 228.865 71.5917 228.852 71.5421 228.852H65.9879C65.9227 228.852 65.8595 228.873 65.8098 228.913C65.7601 228.952 65.7271 229.006 65.7166 229.066L64.9055 233.739V233.742L64.1109 237.977C64.1039 238.014 64.1056 238.051 64.1159 238.087C64.1261 238.123 64.1447 238.157 64.1703 238.185C64.1958 238.214 64.2278 238.237 64.264 238.253C64.3001 238.268 64.3395 238.277 64.3794 238.277ZM53.9752 238.277H58.3155C58.3731 238.277 58.4293 238.26 58.476 238.229C58.5228 238.197 58.5577 238.153 58.5758 238.102L60.1322 233.745C60.1332 233.742 60.1341 233.739 60.135 233.736L61.5023 229.357C61.5221 229.293 61.5142 229.224 61.4804 229.166L61.3776 228.987C61.3543 228.946 61.3196 228.912 61.2771 228.889C61.2347 228.865 61.1861 228.852 61.1365 228.852H55.622C55.557 228.852 55.4942 228.874 55.4448 228.913C55.3953 228.952 55.3625 229.007 55.3521 229.066L54.5465 233.737C54.5465 233.739 54.5465 233.742 54.5465 233.744L53.7066 237.975C53.6992 238.011 53.7005 238.049 53.7106 238.086C53.7206 238.122 53.7391 238.156 53.7648 238.184C53.7904 238.213 53.8225 238.237 53.8589 238.252C53.8953 238.268 53.935 238.277 53.9752 238.277Z" fill="white"/>
<path d="M113.486 237.722C113.486 241.419 110.681 243.917 106.166 243.917C103.814 243.917 101.556 243.203 100.299 241.97L101.685 239.278C102.62 240.284 104.103 240.835 105.747 240.835C108.198 240.835 109.682 239.57 109.682 237.722C109.682 235.874 108.23 234.705 106.005 234.705C105.006 234.705 104.168 234.9 103.394 235.321L102.395 233.473L107.682 227.375H101.138V224.326H112.454V226.629L107.489 231.949C111.133 232.013 113.486 234.348 113.486 237.722ZM114.679 233.927C114.679 227.992 118.741 224.067 124.867 224.067C127.995 224.067 130.542 225.105 132.444 227.18L130.123 229.515C129.026 228.122 127.189 227.116 124.9 227.116C121.03 227.116 118.451 229.873 118.451 233.96C118.451 238.11 121.063 240.868 124.932 240.868C127.543 240.868 129.316 239.7 130.542 237.819L133.024 240.024C131.187 242.554 128.382 243.917 124.867 243.917C118.774 243.917 114.679 239.927 114.679 233.927ZM133.378 236.619C133.378 232.24 136.378 229.321 140.892 229.321C145.374 229.321 148.371 232.24 148.371 236.619C148.371 240.998 145.374 243.948 140.892 243.948C136.41 243.917 133.378 240.998 133.378 236.619ZM144.696 236.619C144.696 234.057 143.148 232.37 140.892 232.37C138.57 232.37 137.055 234.057 137.055 236.619C137.055 239.181 138.601 240.868 140.892 240.868C143.181 240.868 144.696 239.181 144.696 236.619ZM172.199 234.802V243.657H168.652V235.387C168.652 233.57 167.524 232.37 165.782 232.37C164.074 232.37 162.914 233.57 162.914 235.387V243.657H159.366V235.387C159.366 233.57 158.238 232.37 156.497 232.37C154.788 232.37 153.627 233.57 153.627 235.387V243.657H150.081V229.581H153.498L153.563 231.268C154.562 230.002 156.045 229.321 157.754 229.321C159.593 229.321 161.075 230.1 161.978 231.429C162.977 230.035 164.621 229.321 166.492 229.321C169.91 229.321 172.199 231.526 172.199 234.802ZM196.637 234.802V243.657H193.094V235.387C193.094 233.57 191.96 232.37 190.216 232.37C188.515 232.37 187.352 233.57 187.352 235.387V243.657H183.806V235.387C183.806 233.57 182.677 232.37 180.937 232.37C179.227 232.37 178.067 233.57 178.067 235.387V243.657H174.52V229.581H177.938L178.001 231.268C179.002 230.002 180.485 229.321 182.194 229.321C184.031 229.321 185.515 230.1 186.418 231.429C187.417 230.035 189.054 229.321 190.925 229.321C194.383 229.321 196.637 231.526 196.637 234.802ZM210.598 234.802V243.657H207.211L207.154 241.646C206.218 243.106 204.603 243.917 202.888 243.917C199.996 243.917 198.026 242.165 198.026 239.538C198.026 236.813 200.407 235.03 203.993 235.03C204.957 235.03 206.02 235.127 207.083 235.354V235.094C207.083 233.213 205.822 232.078 203.695 232.078C202.377 232.078 201.314 232.467 200.45 233.213L198.891 231.138C200.407 229.905 202.151 229.321 204.603 229.321C208.189 229.321 210.598 231.495 210.598 234.802ZM207.055 237.787C206.183 237.599 205.295 237.501 204.404 237.495C202.732 237.495 201.669 238.273 201.669 239.472C201.669 240.608 202.406 241.386 203.866 241.386C205.51 241.386 207.055 240.089 207.055 237.787ZM212.341 242.263L213.66 240.122C214.992 240.901 216.31 241.159 217.685 241.159C218.989 241.159 219.882 240.608 219.882 239.765C219.882 238.921 218.89 238.436 217.501 238.079L216.338 237.754C213.986 237.137 212.37 236.198 212.37 233.991C212.37 231.202 214.567 229.354 217.883 229.354C219.981 229.354 221.781 229.808 223.17 230.748L221.696 233.083C220.605 232.484 219.381 232.172 218.138 232.176C216.891 232.176 215.984 232.662 215.984 233.44C215.984 234.284 216.849 234.673 218.082 234.997L219.244 235.322C221.625 235.938 223.524 237.04 223.524 239.538C223.524 242.197 221.2 243.981 217.685 243.981C215.502 243.917 213.631 243.366 212.341 242.263Z" fill="black"/>
<rect x="1" y="1" width="268" height="90.8713" rx="45.4356" stroke="#F3BA2F" stroke-width="2"/>
<g clip-path="url(#clip0)">
<path d="M38.5214 43.2304L47.0955 34.5368L55.6742 43.235L60.6633 38.1762L47.0955 24.4187L33.5323 38.1716L38.5214 43.2304Z" fill="#F3BA2F"/>
<path d="M34.9982 46.8017L30.0093 41.743L25.0201 46.8019L30.009 51.8605L34.9982 46.8017Z" fill="#F3BA2F"/>
<path d="M38.5214 50.3745L47.0955 59.068L55.6739 50.3702L60.6657 55.4261L60.6633 55.4289L47.0955 69.1861L33.532 55.4335L33.525 55.4265L38.5214 50.3745Z" fill="#F3BA2F"/>
<path d="M64.1824 51.8628L69.1716 46.804L64.1827 41.7453L59.1935 46.8042L64.1824 51.8628Z" fill="#F3BA2F"/>
<path d="M52.1561 46.7998H52.1582L47.0956 41.6665L43.3542 45.4601H43.3539L42.9243 45.8961L42.0375 46.7952L42.0305 46.8023L42.0375 46.8097L47.0956 51.9384L52.1582 46.8051L52.1606 46.8023L52.1561 46.7998Z" fill="#F3BA2F"/>
<path d="M76.9492 35.2662H87.8001C90.4932 35.2662 92.5297 35.967 93.9099 37.3686C94.978 38.4541 95.5119 39.7995 95.5119 41.4044V41.4723C95.5119 42.1505 95.4293 42.7498 95.2629 43.2696C95.0969 43.7901 94.8752 44.2585 94.5979 44.6768C94.3214 45.0955 93.9999 45.4628 93.6344 45.779C93.2686 46.0958 92.8756 46.3673 92.4547 46.5929C93.8085 47.1134 94.8741 47.8195 95.6511 48.7126C96.4276 49.6061 96.8164 50.844 96.8164 52.4263V52.4938C96.8164 53.5793 96.6107 54.5287 96.1989 55.343C95.787 56.1566 95.197 56.8351 94.4288 57.3779C93.6606 57.9206 92.7369 58.3272 91.6572 58.5988C90.5776 58.87 89.3812 59.0054 88.0683 59.0054H76.9492V35.2662ZM86.7153 44.8635C87.8528 44.8635 88.7559 44.6662 89.4244 44.2702C90.0933 43.8746 90.4277 43.2356 90.4277 42.3542V42.2863C90.4277 41.4953 90.1375 40.8907 89.558 40.472C88.9781 40.0537 88.1419 39.8444 87.0497 39.8444H81.9658V44.8635H86.7153ZM88.0868 54.4276C89.2239 54.4276 90.1152 54.219 90.7624 53.8003C91.409 53.382 91.7326 52.7318 91.7326 51.85V51.7824C91.7326 50.9911 91.4313 50.3639 90.8294 49.9C90.2272 49.4371 89.2574 49.2052 87.9194 49.2052H81.9658V54.4279H88.0868V54.4276Z" fill="#F3BA2F"/>
<path d="M103.279 35.2662H108.43V59.0061H103.279V35.2662Z" fill="#F3BA2F"/>
<path d="M116.232 35.2662H120.98L131.951 49.8833V35.2662H137.035V59.0061H132.654L121.315 43.9145V59.0061H116.232V35.2662Z" fill="#F3BA2F"/>
<path d="M152.63 35.0969H157.379L167.413 59.0062H162.028L159.888 53.6819H149.987L147.847 59.0062H142.595L152.63 35.0969ZM158.048 49.0691L154.937 41.3709L151.827 49.0691H158.048Z" fill="#F3BA2F"/>
<path d="M172.974 35.2662H177.723L188.694 49.8833V35.2662H193.778V59.0061H189.396L178.058 43.9145V59.0061H172.974V35.2662Z" fill="#F3BA2F"/>
<path d="M212.315 59.4129C210.597 59.4129 209.004 59.096 207.532 58.4635C206.06 57.8309 204.789 56.9657 203.719 55.8689C202.648 54.7724 201.812 53.478 201.211 51.9858C200.608 50.4934 200.307 48.8994 200.307 47.2036V47.1361C200.307 45.4403 200.608 43.8524 201.211 42.3712C201.812 40.8904 202.648 39.5903 203.719 38.4712C204.789 37.3521 206.071 36.4699 207.565 35.8257C209.058 35.1815 210.71 34.8594 212.515 34.8594C213.607 34.8594 214.605 34.9502 215.508 35.1306C216.411 35.312 217.23 35.5602 217.967 35.8766C218.703 36.1934 219.382 36.5778 220.008 37.0297C220.631 37.4823 221.211 37.9794 221.746 38.5221L218.469 42.3543C217.554 41.518 216.623 40.8618 215.676 40.3873C214.728 39.9128 213.663 39.6752 212.482 39.6752C211.5 39.6752 210.592 39.8675 209.756 40.2519C208.92 40.6362 208.201 41.1673 207.598 41.8455C206.997 42.5236 206.528 43.3096 206.193 44.2024C205.86 45.0959 205.693 46.051 205.693 47.0682V47.1358C205.693 48.153 205.86 49.1144 206.193 50.0182C206.528 50.923 206.99 51.7139 207.582 52.3921C208.172 53.0703 208.886 53.6077 209.722 54.0034C210.559 54.3994 211.478 54.5967 212.482 54.5967C213.82 54.5967 214.951 54.3481 215.876 53.8506C216.802 53.3539 217.722 52.6753 218.636 51.8158L221.914 55.1734C221.311 55.8293 220.686 56.4173 220.041 56.9367C219.394 57.4572 218.686 57.9034 217.916 58.2768C217.147 58.6495 216.305 58.9327 215.392 59.1243C214.477 59.3163 213.451 59.4129 212.315 59.4129Z" fill="#F3BA2F"/>
<path d="M227.976 35.2662H245.602V39.9127H233.06V44.7285H244.097V49.3745H233.06V54.3601H245.77V59.0061H227.976V35.2662Z" fill="#F3BA2F"/>
</g>
<defs>
<clipPath id="clip0">
<rect x="25.2107" y="24.4187" width="220.392" height="44.7674" fill="white"/>
</clipPath>
</defs>
</svg>
