<svg width="153" height="18" viewBox="0 0 153 18" fill="none" xmlns="http://www.w3.org/2000/svg">
<path fill-rule="evenodd" clip-rule="evenodd" d="M19.8432 13.2755H23.8723C23.9258 13.2755 23.978 13.2585 24.0214 13.2267C24.0647 13.195 24.0972 13.1502 24.114 13.0986L25.5593 8.68772C25.5602 8.68472 25.561 8.68171 25.5618 8.67868L26.8315 4.24581C26.8498 4.18104 26.8425 4.11155 26.8111 4.05218L26.717 3.87145C26.6952 3.83003 26.6628 3.79541 26.6231 3.7713C26.5834 3.74719 26.538 3.73451 26.4918 3.73462H21.3724C21.3119 3.73444 21.2532 3.75618 21.2071 3.79593C21.1609 3.83568 21.1302 3.89084 21.1205 3.95149L20.3725 8.67997C20.3725 8.68212 20.3725 8.68428 20.3725 8.68643L19.5926 12.9696C19.5857 13.0069 19.5869 13.0453 19.5963 13.0821C19.6057 13.1189 19.623 13.1531 19.647 13.1824C19.6709 13.2116 19.7009 13.2351 19.7348 13.2512C19.7688 13.2673 19.8058 13.2756 19.8432 13.2755ZM9.9149 13.2755H13.9287C13.9822 13.2755 14.0344 13.2585 14.0778 13.2267C14.1212 13.195 14.1536 13.1502 14.1704 13.0986L15.6258 8.68772C15.6267 8.68472 15.6276 8.68171 15.6284 8.67868L16.9057 4.24581C16.9245 4.18121 16.9176 4.11172 16.8866 4.05218L16.7899 3.87145C16.7683 3.83023 16.736 3.79573 16.6966 3.77163C16.6572 3.74754 16.612 3.73474 16.566 3.73462H11.4085C11.3479 3.73444 11.2893 3.75618 11.2431 3.79593C11.197 3.83568 11.1663 3.89084 11.1566 3.95149L10.4034 8.68126V8.68514L9.66555 12.9721C9.65906 13.0092 9.66063 13.0472 9.67015 13.0836C9.67967 13.12 9.69691 13.1538 9.72066 13.1827C9.74442 13.2116 9.77411 13.2349 9.80766 13.2509C9.84121 13.2669 9.87781 13.2753 9.9149 13.2755ZM0.253745 13.2755H4.2841C4.3376 13.2755 4.38975 13.2585 4.43315 13.2267C4.47654 13.195 4.50897 13.1502 4.52582 13.0986L5.97105 8.68772C5.97195 8.68472 5.9728 8.68171 5.9736 8.67868L7.24326 4.24581C7.26164 4.18104 7.25434 4.11155 7.22291 4.05218L7.12749 3.87145C7.10586 3.83023 7.07361 3.79573 7.03418 3.77163C6.99474 3.74754 6.94961 3.73474 6.90358 3.73462H1.78294C1.72261 3.73475 1.66428 3.75663 1.61838 3.79635C1.57247 3.83608 1.54197 3.89106 1.53231 3.95149L0.784256 8.67997C0.784283 8.68212 0.784283 8.68428 0.784256 8.68643L0.00439224 12.9696C-0.00251644 13.0068 -0.00126241 13.0451 0.00806543 13.0818C0.0173933 13.1185 0.0345656 13.1527 0.0583647 13.1819C0.0821638 13.2111 0.112006 13.2346 0.145772 13.2508C0.179538 13.267 0.216401 13.2754 0.253745 13.2755Z" fill="white"/>
<path d="M54.2308 12.3421C54.2308 15.6842 51.7131 17.9419 47.6611 17.9419C45.5492 17.9419 43.5226 17.2965 42.3941 16.1824L43.6384 13.7491C44.478 14.6579 45.8087 15.1562 47.2845 15.1562C49.4842 15.1562 50.8162 14.0125 50.8162 12.3421C50.8162 10.6717 49.5134 9.61575 47.516 9.61575C46.6191 9.61575 45.8673 9.79131 45.1726 10.1721L44.2757 8.50172L49.0211 2.98967H43.1473V0.233649H53.3046V2.31583L48.848 7.12435C52.1189 7.18244 54.2308 9.29303 54.2308 12.3421ZM55.302 8.91222C55.302 3.54733 58.9481 0 64.4466 0C67.2544 0 69.5405 0.938469 71.2478 2.81411L69.164 4.9247C68.1793 3.6648 66.5305 2.75602 64.4759 2.75602C61.0027 2.75602 58.6873 5.24742 58.6873 8.94191C58.6873 12.6932 61.032 15.1859 64.5051 15.1859C66.8485 15.1859 68.4401 14.1299 69.5405 12.4299L71.7682 14.423C70.1194 16.7104 67.6017 17.9419 64.4466 17.9419C58.9774 17.9419 55.302 14.3352 55.302 8.91222ZM72.0862 11.3455C72.0862 7.38769 74.7782 4.74914 78.8302 4.74914C82.8529 4.74914 85.5437 7.38769 85.5437 11.3455C85.5437 15.3034 82.8529 17.9703 78.8302 17.9703C74.8075 17.9419 72.0862 15.3034 72.0862 11.3455ZM82.2448 11.3455C82.2448 9.02969 80.8556 7.50516 78.8302 7.50516C76.7463 7.50516 75.3863 9.02969 75.3863 11.3455C75.3863 13.6614 76.7743 15.1859 78.8302 15.1859C80.8848 15.1859 82.2448 13.6614 82.2448 11.3455ZM106.931 9.70353V17.707H103.748V10.2315C103.748 8.5895 102.735 7.50516 101.171 7.50516C99.6385 7.50516 98.5965 8.5895 98.5965 10.2315V17.707H95.4122V10.2315C95.4122 8.5895 94.3995 7.50516 92.8372 7.50516C91.303 7.50516 90.261 8.5895 90.261 10.2315V17.707H87.0779V4.98408H90.1452L90.2038 6.50861C91.1007 5.36489 92.4314 4.74914 93.9657 4.74914C95.6157 4.74914 96.9465 5.45267 97.7569 6.65447C98.6538 5.39458 100.13 4.74914 101.809 4.74914C104.876 4.74914 106.931 6.74226 106.931 9.70353ZM128.866 9.70353V17.707H125.686V10.2315C125.686 8.5895 124.668 7.50516 123.103 7.50516C121.576 7.50516 120.532 8.5895 120.532 10.2315V17.707H117.349V10.2315C117.349 8.5895 116.336 7.50516 114.774 7.50516C113.24 7.50516 112.198 8.5895 112.198 10.2315V17.707H109.015V4.98408H112.082L112.139 6.50861C113.037 5.36489 114.368 4.74914 115.902 4.74914C117.551 4.74914 118.883 5.45267 119.694 6.65447C120.59 5.39458 122.06 4.74914 123.739 4.74914C126.843 4.74914 128.866 6.74226 128.866 9.70353ZM141.397 9.70353V17.707H138.357L138.306 15.8894C137.466 17.2087 136.016 17.9419 134.477 17.9419C131.881 17.9419 130.113 16.358 130.113 13.9841C130.113 11.5211 132.25 9.90878 135.469 9.90878C136.334 9.90878 137.288 9.99656 138.242 10.2018V9.96687C138.242 8.26678 137.11 7.24053 135.202 7.24053C134.019 7.24053 133.064 7.59294 132.288 8.26678L130.889 6.39114C132.25 5.27711 133.815 4.74914 136.016 4.74914C139.235 4.74914 141.397 6.71386 141.397 9.70353ZM138.217 12.4015C137.435 12.2309 136.638 12.1422 135.838 12.1368C134.337 12.1368 133.383 12.8404 133.383 13.9247C133.383 14.9509 134.044 15.6545 135.354 15.6545C136.83 15.6545 138.217 14.4824 138.217 12.4015ZM142.962 16.4471L144.145 14.512C145.341 15.2156 146.524 15.4492 147.759 15.4492C148.929 15.4492 149.73 14.9509 149.73 14.1893C149.73 13.4264 148.84 12.9875 147.593 12.6648L146.55 12.3718C144.438 11.8141 142.988 10.9647 142.988 8.97031C142.988 6.44923 144.96 4.77883 147.937 4.77883C149.819 4.77883 151.435 5.18933 152.682 6.03873L151.359 8.14931C150.379 7.60821 149.281 7.3263 148.166 7.3296C147.046 7.3296 146.232 7.7685 146.232 8.47203C146.232 9.23494 147.008 9.58606 148.115 9.87909L149.158 10.1734C151.295 10.7298 153 11.7263 153 13.9841C153 16.3877 150.914 18 147.759 18C145.799 17.9419 144.12 17.4436 142.962 16.4471Z" fill="white"/>
</svg>
