<svg width="276" height="32" viewBox="0 0 276 32" fill="none" xmlns="http://www.w3.org/2000/svg"><path d="M0 4a4 4 0 014-4h268a4 4 0 014 4v24a4 4 0 01-4 4H4a4 4 0 01-4-4V4z" fill="#00A59A"/><path d="M17.03 11.83V23a1 1 0 01-1 1h-.06a1 1 0 01-1-1V11.83l-4.82 4.68a1 1 0 01-1.4 0l-.01-.02a1 1 0 010-1.43L16 8l7.26 7.06a1 1 0 010 1.44l-.02.01a1 1 0 01-1.4 0l-4.81-4.68z" fill="#fff"/><path d="M265.08 8c.73 0 1.32.6 1.32 1.32v8.9c0 1.16-.26 2.18-.77 3.06a5.07 5.07 0 01-2.22 2.02c-.97.47-2.12.7-3.47.7-2 0-3.56-.52-4.67-1.55a5.56 5.56 0 01-1.67-4.28V9.33a1.32 1.32 0 112.65 0v8.66c0 1.3.31 2.26.93 2.88.62.62 1.57.93 2.85.93 2.49 0 3.73-1.28 3.73-3.84V9.32c0-.73.6-1.32 1.32-1.32z" fill="#fff"/><path d="M33.13 12.43h2.54c1.18 0 2.04.18 2.56.52.53.34.79.89.79 1.63 0 .5-.13.91-.39 1.25-.26.33-.63.54-1.11.62v.06c.6.11 1.04.34 1.32.68a2 2 0 01.43 1.35 2.2 2.2 0 01-.8 1.81c-.54.43-1.29.65-2.25.65h-3.09v-8.57zm1.4 3.54h1.35c.58 0 1.01-.09 1.28-.27.27-.19.4-.5.4-.95 0-.4-.14-.7-.43-.88a2.7 2.7 0 00-1.39-.26h-1.2v2.36zm0 1.14v2.71h1.49a2.2 2.2 0 001.32-.33c.3-.23.45-.58.45-1.07 0-.44-.15-.77-.45-.99-.3-.21-.77-.32-1.4-.32h-1.4z" fill="#fff"/><path d="M45.48 21l-.2-.85h-.07c-.19.3-.46.54-.82.7-.35.18-.75.27-1.2.27-.79 0-1.38-.2-1.76-.59-.39-.39-.58-.98-.58-1.77v-4.24h1.39v4c0 .5.1.86.3 1.11.2.25.52.37.96.37.57 0 1-.17 1.27-.51.27-.35.4-.93.4-1.74v-3.23h1.39V21h-1.08z" fill="#fff"/><path d="M47.54 14.52h1.5l1.32 3.67c.2.53.33 1.02.4 1.48h.04c.04-.21.1-.47.2-.78.09-.3.59-1.77 1.48-4.37h1.5l-2.78 7.34c-.5 1.35-1.34 2.02-2.52 2.02-.3 0-.6-.03-.89-.1V22.7c.2.05.44.07.71.07.66 0 1.13-.38 1.4-1.15l.24-.61-2.6-6.48z" fill="#fff"/><path d="M58.22 21v-8.57h1.4v7.37h3.63V21h-5.03z" fill="#fff"/><path d="M70.33 17.75c0 1.06-.28 1.88-.82 2.48-.54.59-1.3.89-2.27.89a3.1 3.1 0 01-1.6-.41 2.7 2.7 0 01-1.07-1.18 4.01 4.01 0 01-.38-1.78c0-1.05.27-1.87.81-2.46.54-.6 1.3-.89 2.28-.89.94 0 1.68.3 2.23.91.54.6.82 1.41.82 2.44zm-4.72 0c0 1.5.55 2.24 1.66 2.24 1.1 0 1.64-.75 1.64-2.24 0-1.48-.55-2.22-1.65-2.22-.58 0-1 .19-1.26.57-.26.38-.4.93-.4 1.65z" fill="#fff"/><path d="M77.62 21h-1.39v-3.98c0-.5-.1-.88-.3-1.12-.2-.25-.52-.37-.96-.37-.58 0-1 .17-1.27.51-.27.35-.4.92-.4 1.73V21H71.9v-6.48H73l.2.85h.07c.2-.3.47-.55.83-.72.36-.16.76-.25 1.2-.25 1.55 0 2.33.8 2.33 2.38V21z" fill="#fff"/><path d="M85 14.52v.76l-1.1.2a1.99 1.99 0 01.35 1.14c0 .67-.23 1.2-.7 1.57a2.9 2.9 0 01-1.9.58c-.2 0-.4-.02-.56-.05-.3.18-.45.4-.45.65 0 .14.07.25.21.33.14.07.4.11.77.11h1.13c.71 0 1.26.15 1.63.46.37.3.55.74.55 1.32 0 .73-.3 1.3-.9 1.7-.61.4-1.49.6-2.63.6-.88 0-1.56-.16-2.02-.48-.47-.3-.7-.75-.7-1.33 0-.4.13-.74.38-1.01s.6-.46 1.06-.56c-.19-.08-.34-.2-.46-.38a.98.98 0 01-.18-.55c0-.24.07-.45.2-.61.15-.17.35-.34.62-.5-.34-.15-.61-.38-.82-.7a2.1 2.1 0 01-.31-1.15c0-.7.22-1.25.66-1.64a2.8 2.8 0 011.9-.58 4.22 4.22 0 011.03.12H85zm-5.09 7.49c0 .3.13.52.4.68.27.16.65.24 1.13.24.75 0 1.31-.1 1.68-.32.36-.21.55-.5.55-.85 0-.29-.1-.49-.3-.6-.2-.12-.58-.18-1.13-.18H81.2c-.4 0-.7.09-.94.27a.92.92 0 00-.35.76zm.6-5.4c0 .41.1.73.3.94.22.22.52.33.9.33.8 0 1.2-.42 1.2-1.27 0-.43-.1-.75-.3-.98-.2-.23-.5-.34-.9-.34s-.7.11-.9.34c-.2.22-.3.55-.3.99z" fill="#fff"/></svg>