<svg width="276" height="32" viewBox="0 0 276 32" fill="none" xmlns="http://www.w3.org/2000/svg"><path d="M.5 4A3.5 3.5 0 014 .5h268a3.5 3.5 0 013.5 3.5v24a3.5 3.5 0 01-3.5 3.5H4A3.5 3.5 0 01.5 28V4z" fill="#fff" stroke="#6B7B8B"/><path d="M17.6 8a6.4 6.4 0 012.63 12.24 6.4 6.4 0 11-8.47-8.47A6.4 6.4 0 0117.6 8zm-2.4 5.6h-1.6v.8a2 2 0 00-.13 4h1.8a.4.4 0 010 .8H12v1.6h1.6v.8h1.6v-.8a2 2 0 00.13-4h-1.8a.4.4 0 010-.8h3.27v-1.6h-1.6v-.8zm2.4-4A4.79 4.79 0 0014 11.21 6.4 6.4 0 0120.79 18a4.8 4.8 0 00-3.2-8.39z" fill="#6B7B8B"/><path d="M265.24 22.07a1.24 1.24 0 01-2.04 1.39l-4.57-6.7L257.1 18v4.7a1.28 1.28 0 11-2.57 0V9.29a1.29 1.29 0 012.57 0v6.36c.7-.88 1.4-1.72 2.1-2.53l3.91-4.7a1.12 1.12 0 111.72 1.43c-1.95 2.33-3.4 4.06-4.36 5.18l4.76 7.05z" fill="#6B7B8B"/><path d="M36.78 13.51c-.8 0-1.44.29-1.9.86-.46.57-.7 1.35-.7 2.36 0 1.05.23 1.84.67 2.38.44.54 1.09.81 1.93.81.36 0 .71-.03 1.05-.1.34-.08.7-.17 1.06-.28v1.2c-.67.25-1.43.38-2.28.38-1.26 0-2.22-.38-2.9-1.14-.67-.76-1-1.85-1-3.26 0-.9.16-1.67.49-2.34a3.5 3.5 0 011.41-1.54 4.28 4.28 0 012.18-.53c.87 0 1.68.18 2.42.55l-.5 1.17c-.29-.14-.6-.26-.92-.36-.32-.1-.66-.16-1.01-.16z" fill="#6B7B8B"/><path d="M41.97 21h-1.38v-9.12h1.38V21z" fill="#6B7B8B"/><path d="M49.69 17.75c0 1.06-.27 1.88-.81 2.48-.55.59-1.3.89-2.27.89a3.1 3.1 0 01-1.6-.41 2.7 2.7 0 01-1.08-1.18 4.01 4.01 0 01-.38-1.78c0-1.05.27-1.87.81-2.46.54-.6 1.3-.89 2.28-.89.94 0 1.68.3 2.23.91.55.6.82 1.41.82 2.44zm-4.72 0c0 1.5.56 2.24 1.66 2.24 1.1 0 1.64-.75 1.64-2.24 0-1.48-.55-2.22-1.65-2.22-.58 0-1 .19-1.26.57-.26.38-.39.93-.39 1.65z" fill="#6B7B8B"/><path d="M55.63 19.15a1.7 1.7 0 01-.7 1.46c-.45.34-1.11.5-1.97.5-.86 0-1.56-.12-2.08-.39v-1.18a5.1 5.1 0 002.13.52c.84 0 1.27-.25 1.27-.77a.6.6 0 00-.14-.4c-.1-.11-.25-.23-.47-.35a7.95 7.95 0 00-.9-.4 4.18 4.18 0 01-1.51-.86c-.26-.29-.4-.66-.4-1.13 0-.55.23-.98.68-1.28.44-.31 1.05-.47 1.82-.47s1.49.16 2.17.47l-.45 1.03a4.81 4.81 0 00-1.76-.43c-.73 0-1.1.2-1.1.62 0 .2.1.37.29.52.19.14.6.33 1.24.58.54.2.92.4 1.17.56.24.18.42.38.54.6.11.22.17.5.17.8z" fill="#6B7B8B"/><path d="M59.96 21.12c-1.01 0-1.8-.3-2.37-.88a3.37 3.37 0 01-.85-2.43c0-1.06.26-1.9.79-2.5.53-.6 1.25-.9 2.17-.9.86 0 1.53.25 2.03.77.5.52.74 1.24.74 2.15v.74h-4.31c.02.63.19 1.11.5 1.45.33.34.78.5 1.36.5a5.09 5.09 0 002.13-.46v1.12c-.33.16-.67.27-1.02.34-.34.06-.73.1-1.17.1zm-.26-5.67c-.43 0-.79.13-1.05.41a2 2 0 00-.47 1.21h2.94c0-.53-.14-.94-.39-1.2-.25-.29-.59-.42-1.03-.42z" fill="#6B7B8B"/><path d="M71.21 21l-.27-.9h-.05c-.31.4-.63.66-.94.8-.32.15-.73.22-1.22.22-.64 0-1.14-.17-1.5-.52a1.94 1.94 0 01-.53-1.46c0-.67.25-1.17.74-1.5.5-.35 1.26-.53 2.27-.57l1.12-.03v-.35c0-.41-.1-.72-.3-.92-.18-.21-.48-.31-.89-.31-.33 0-.65.05-.95.14-.3.1-.6.22-.88.35l-.45-.99a5.21 5.21 0 012.34-.56c.82 0 1.44.18 1.86.54.42.36.64.93.64 1.7V21h-.99zm-2.05-.94c.5 0 .9-.14 1.2-.41.3-.28.46-.68.46-1.18v-.56l-.83.03c-.65.02-1.12.13-1.42.33-.3.2-.44.49-.44.88 0 .3.08.52.26.68.17.15.43.23.77.23z" fill="#6B7B8B"/><path d="M76.53 20c.34 0 .67-.05 1-.15v1.03a3.85 3.85 0 01-1.34.23c-1.3 0-1.94-.68-1.94-2.06v-3.49h-.89v-.6l.95-.51.47-1.37h.85v1.44h1.84v1.04h-1.84v3.47c0 .33.08.58.25.74.16.16.38.23.65.23z" fill="#6B7B8B"/><path d="M87.42 21h-1.38v-4c0-.5-.1-.86-.29-1.1-.18-.25-.48-.37-.88-.37-.53 0-.92.17-1.17.52-.24.34-.37.92-.37 1.72V21h-1.37v-6.48h1.08l.19.85h.07c.18-.3.44-.55.78-.72.34-.16.72-.25 1.13-.25 1 0 1.66.34 1.98 1.02h.1c.18-.32.45-.57.8-.75.35-.18.75-.27 1.2-.27.77 0 1.33.2 1.68.59.36.39.54.98.54 1.79V21h-1.38v-4c0-.5-.1-.86-.29-1.1-.18-.25-.48-.37-.88-.37-.53 0-.92.17-1.17.5-.25.33-.37.84-.37 1.54V21z" fill="#6B7B8B"/><path d="M97.48 21l-.27-.9h-.05c-.31.4-.62.66-.94.8-.32.15-.72.22-1.22.22-.64 0-1.13-.17-1.5-.52a1.94 1.94 0 01-.53-1.46c0-.67.25-1.17.75-1.5a4.3 4.3 0 012.26-.57l1.12-.03v-.35c0-.41-.1-.72-.29-.92-.2-.21-.49-.31-.9-.31-.33 0-.65.05-.95.14-.3.1-.6.22-.88.35l-.45-.99a5.21 5.21 0 012.34-.56c.83 0 1.45.18 1.87.54.42.36.63.93.63 1.7V21h-.99zm-2.05-.94c.5 0 .9-.14 1.2-.41.3-.28.46-.68.46-1.18v-.56l-.83.03c-.65.02-1.12.13-1.42.33-.3.2-.44.49-.44.88 0 .3.09.52.26.68.17.15.43.23.77.23z" fill="#6B7B8B"/><path d="M103.68 14.4c.27 0 .5.02.68.06l-.13 1.28c-.2-.04-.4-.07-.61-.07-.55 0-1 .18-1.34.54-.34.36-.51.83-.51 1.4V21h-1.38v-6.48h1.08l.18 1.14h.07c.22-.38.5-.7.84-.92a2 2 0 011.12-.34z" fill="#6B7B8B"/><path d="M106.9 17.58l.78-.97 1.96-2.09h1.58l-2.6 2.78 2.77 3.7h-1.62l-2.08-2.84-.75.62V21h-1.37v-9.12h1.37v4.45l-.08 1.25h.04z" fill="#6B7B8B"/><path d="M115.27 21.12c-1.01 0-1.8-.3-2.37-.88a3.37 3.37 0 01-.85-2.43c0-1.06.26-1.9.8-2.5.52-.6 1.24-.9 2.17-.9.85 0 1.53.25 2.02.77.5.52.75 1.24.75 2.15v.74h-4.32c.02.63.19 1.11.5 1.45.33.34.78.5 1.36.5a5.08 5.08 0 002.14-.46v1.12c-.34.16-.68.27-1.03.34-.34.06-.73.1-1.17.1zm-.25-5.67c-.44 0-.8.13-1.06.41a2 2 0 00-.47 1.21h2.94c0-.53-.13-.94-.38-1.2-.25-.29-.6-.42-1.03-.42z" fill="#6B7B8B"/><path d="M121.77 20c.33 0 .67-.05 1-.15v1.03a3.86 3.86 0 01-1.33.23c-1.3 0-1.96-.68-1.96-2.06v-3.49h-.88v-.6l.95-.51.46-1.37h.85v1.44h1.85v1.04h-1.85v3.47c0 .33.08.58.25.74.17.16.39.23.66.23z" fill="#6B7B8B"/><path d="M130.48 21.12c-.82 0-1.46-.3-1.91-.89h-.08l.08 1v2.65h-1.38v-9.36h1.12l.19.87h.07a2.16 2.16 0 011.93-.99c.81 0 1.44.3 1.89.88.45.59.68 1.4.68 2.47 0 1.06-.23 1.88-.7 2.48-.45.59-1.08.89-1.9.89zm-.33-5.6c-.55 0-.95.17-1.2.49-.26.32-.38.83-.38 1.53v.2c0 .8.12 1.37.37 1.72.25.36.66.53 1.23.53.48 0 .84-.2 1.1-.58.26-.4.39-.95.39-1.67a2.9 2.9 0 00-.39-1.65 1.27 1.27 0 00-1.13-.56z" fill="#6B7B8B"/><path d="M137.96 14.4c.27 0 .5.02.68.06l-.13 1.28a2.6 2.6 0 00-.61-.07c-.55 0-1 .18-1.34.54-.34.36-.52.83-.52 1.4V21h-1.37v-6.48h1.08l.18 1.14h.07c.21-.38.5-.7.84-.92.34-.22.72-.34 1.12-.34z" fill="#6B7B8B"/><path d="M141.22 21h-1.37v-6.48h1.38V21zm-1.45-8.2c0-.24.06-.43.2-.57a.8.8 0 01.57-.2c.25 0 .44.07.57.2.13.14.2.33.2.57 0 .24-.07.42-.2.56-.14.13-.32.2-.57.2a.8.8 0 01-.57-.2.76.76 0 01-.2-.56z" fill="#6B7B8B"/><path d="M145.81 21.12c-.98 0-1.72-.29-2.24-.86-.5-.57-.76-1.4-.76-2.47 0-1.08.27-1.92.8-2.5.53-.6 1.3-.89 2.31-.89.69 0 1.3.13 1.85.38l-.42 1.11a4.18 4.18 0 00-1.44-.34c-1.12 0-1.68.74-1.68 2.23 0 .73.14 1.28.42 1.64.28.37.69.55 1.23.55.61 0 1.19-.15 1.74-.46v1.2c-.25.15-.51.25-.8.31-.27.07-.6.1-1 .1z" fill="#6B7B8B"/><path d="M151.97 21.12c-1 0-1.8-.3-2.37-.88a3.36 3.36 0 01-.85-2.43c0-1.06.27-1.9.8-2.5.52-.6 1.25-.9 2.17-.9.85 0 1.53.25 2.03.77.5.52.74 1.24.74 2.15v.74h-4.32c.02.63.2 1.11.51 1.45.32.34.77.5 1.35.5a5.1 5.1 0 002.14-.46v1.12c-.34.16-.68.27-1.02.34-.34.06-.74.1-1.18.1zm-.25-5.67c-.44 0-.79.13-1.06.41a2 2 0 00-.47 1.21h2.95c-.01-.53-.14-.94-.39-1.2-.25-.29-.6-.42-1.03-.42z" fill="#6B7B8B"/></svg>