<svg width="84" height="28" fill="none" xmlns="http://www.w3.org/2000/svg"><g clip-path="url(#clip0)"><path d="M28 0H8.75v7H28V0z" fill="#02A6C2"/><path d="M24.5 10.5H8.75v7H24.5v-7zM7 10.5H0v7h7v-7z" fill="#5FCADE"/><path d="M15.75 21h-7v7h7v-7z" fill="#ABEBF4"/></g><path d="M71.557 5.6H66.17l5.943 8.035L65.8 22.4h5.571l3.529-5.113 3.343 5.113H84l-6.314-8.765L83.443 5.6h-5.2L74.9 10.348 71.557 5.6zM50.4 5.6v3.877h5.258V22.4h4.883V9.477H65.8V5.6H50.4zm-14 0v16.8h4.614v-5.844h7.099v-3.652h-7.099v-3.47H49V5.6H36.4z" fill="#fff"/><defs><clipPath id="clip0"><path fill="#fff" d="M0 0h28v28H0z"/></clipPath></defs></svg>