<svg width="400" height="208" viewBox="0 0 400 208" fill="none" xmlns="http://www.w3.org/2000/svg">
<path d="M301.754 59.8863C305.259 48.1924 310.209 37.1465 304.751 33.9269C304.751 33.9269 302.443 27.5507 299.606 29.66C300.69 23.8062 303.884 20.1874 300.912 18.2687C296.034 15.03 286.151 37.7633 286.151 37.7633L284.045 33.9152C284.045 33.9152 289 27.3007 286.808 24.3771C284.617 21.4535 274.363 31.3527 274.262 42.2436C274.146 50.946 273.95 62.4738 273.95 62.4738L301.754 59.8863Z" fill="white"/>
<path d="M273.003 63.7145L302.291 61.1825L302.448 60.6589C303.285 57.8663 304.1 52.7278 304.947 50.223C307.654 42.4724 309.952 36.4059 305.489 33.3841C305.045 32.3041 303.601 29.1256 301.487 28.5037C301.311 28.4519 301.134 28.4 300.844 28.4095C301.148 27.0746 301.576 25.966 302.005 24.8574C303.07 21.9421 303.969 19.2627 301.473 17.6741C300.759 17.1791 299.826 17.0945 298.964 17.4108C294.355 18.7142 288.368 31.0081 286.146 35.8623L285.279 34.2779C286.497 32.4521 289.924 27.0974 287.67 24.0606C287.246 23.556 286.408 22.8347 284.622 23.3542C280.77 24.6903 273.425 32.8811 273.338 42.4466C273.222 51.149 273.026 62.6768 273.026 62.6768L273.003 63.7145ZM300.719 59.3907L274.959 61.3459C275.03 58.2329 275.198 49.356 275.31 42.2667C275.383 34.0266 281.804 26.0389 285.199 24.9482C285.428 24.8255 285.947 24.6932 286.071 24.9196C287.467 26.6595 284.83 31.297 283.269 33.3069L282.936 33.7787L286.281 39.8904L287.033 38.0223C290.059 31.1254 296.022 19.8692 299.479 18.8916C299.998 18.7594 300.174 18.8113 300.412 18.9763C301.541 19.6881 301.289 20.8485 300.171 23.9383C299.586 25.5705 298.948 27.3772 298.611 29.4621L298.169 31.8961L300.154 30.3908C300.549 30.0322 300.725 30.084 300.902 30.1358C301.959 30.4468 303.198 32.7103 303.713 34.1912L303.899 34.5308L304.137 34.6958C307.461 36.7181 305.987 41.3174 303.061 49.4784C302.266 51.8087 301.503 56.7727 300.719 59.3907Z" fill="black"/>
<path d="M273.691 52.5363C273.751 62.3695 275.36 78.9945 271.113 89.388C265.827 102.357 229.352 99.6038 219.284 112.507L242.769 128.963C242.769 128.963 272.886 138.518 294.5 124.058C316.113 109.599 301.746 60.5028 301.741 60.3208C293.857 57.5081 281.485 51.7088 273.691 52.5363Z" fill="black"/>
<path d="M298.766 121.86C297.691 122.979 296.521 124.009 295.163 124.862C273.366 139.326 242.886 129.961 242.608 129.877L242.33 129.793L218.002 112.72L218.625 111.885C223.796 105.385 235.13 102.741 246.007 100.199C257.252 97.6482 267.762 95.1153 270.275 88.9529C273.657 80.7659 273.17 68.5755 272.926 58.7468C272.777 56.4739 272.817 54.3785 272.767 52.3764L272.745 51.4663L273.569 51.3551C280.082 50.741 289.365 54.3392 296.882 57.1609C298.738 57.8441 300.41 58.5318 301.987 59.1307L302.637 59.3881L302.655 60.1161C304.881 68.2574 314.001 106.008 298.766 121.86ZM243.208 128.132C245.432 128.806 273.67 136.768 293.931 123.344C312.922 110.678 303.169 69.6651 300.84 61.071C299.357 60.5608 297.779 59.9618 296.107 59.2741C289.146 56.621 280.602 53.187 274.543 53.5169C274.583 55.155 274.628 56.9752 274.674 58.7953C275.012 68.7128 275.414 81.1784 271.857 89.7338C268.91 96.9085 257.849 99.4549 246.147 102.108C236 104.45 225.486 106.801 220.566 112.293L243.208 128.132Z" fill="black"/>
<path d="M299.916 30.2263C299.297 32.6085 298.379 34.7124 297.056 36.8873C296.556 37.595 295.489 36.9963 295.927 36.1755C297.198 34.1751 298.116 32.0712 298.682 29.8636C298.829 29.0522 300.063 29.415 299.916 30.2263Z" fill="black"/>
<path d="M305.079 35.0682C304.442 36.875 303.804 38.6817 303.167 40.4884C302.843 41.2479 301.61 40.8851 301.933 40.1256C302.571 38.3189 303.208 36.5122 303.846 34.7055C304.055 34.0073 305.288 34.3701 305.079 35.0682Z" fill="black"/>
<path d="M105.188 67.995C100.931 56.5484 95.2745 45.8404 100.513 42.28C100.513 42.28 102.402 35.7701 105.37 37.6945C103.909 31.9217 100.486 28.5137 103.328 26.4098C107.985 22.8673 119.323 44.9246 119.323 44.9246L121.175 40.9504C121.175 40.9504 115.801 34.6649 117.798 31.6079C119.796 28.5508 130.671 37.7769 131.478 48.6389C132.158 57.3159 133.102 68.8074 133.102 68.8074L105.188 67.995Z" fill="white"/>
<path d="M134.127 69.985L104.736 69.3224L104.545 68.8099C103.529 66.0764 102.382 61.0004 101.374 58.5546C98.17 50.9924 95.4831 45.0847 99.741 41.785C100.113 40.6791 101.348 37.4152 103.418 36.66C103.59 36.5971 103.763 36.5341 104.054 36.5251C103.663 35.2123 103.164 34.1333 102.665 33.0542C101.412 30.2128 100.341 27.5962 102.729 25.8519C103.41 25.3124 104.336 25.1686 105.216 25.4295C109.9 26.4368 116.672 38.3242 119.204 43.027L119.967 41.3906C118.633 39.6461 114.866 34.5206 116.918 31.3467C117.308 30.8162 118.098 30.043 119.913 30.4477C123.844 31.5359 131.705 39.2422 132.413 48.7825C133.093 57.4595 134.037 68.9509 134.037 68.9509L134.127 69.985ZM106.189 67.4343L132.021 67.7459C131.749 64.6438 131.005 55.7959 130.434 48.7284C129.826 40.51 122.9 32.9476 119.441 32.0752C119.205 31.9672 118.679 31.8683 118.57 32.102C117.29 33.9273 120.222 38.3874 121.91 40.2937L122.273 40.7433L119.331 47.0553L118.46 45.2389C114.993 38.5489 108.312 27.6955 104.798 26.94C104.272 26.841 104.099 26.904 103.872 27.0838C102.792 27.8661 103.119 29.008 104.435 32.0203C105.125 33.6119 105.878 35.3743 106.35 37.4334L106.949 39.8342L104.87 38.4584C104.453 38.1257 104.28 38.1886 104.108 38.2515C103.073 38.6291 101.983 40.9669 101.566 42.4774L101.402 42.8282L101.175 43.0079C97.9888 45.2377 99.7587 49.7337 103.208 57.6915C104.152 59.9665 105.235 64.8716 106.189 67.4343Z" fill="black"/>
<path d="M132.716 58.8737C133.293 68.6904 132.767 85.3834 137.679 95.4852C143.795 108.091 180.017 103.022 190.901 115.257L168.532 133.174C168.532 133.174 139.097 144.626 116.59 131.572C94.0831 118.518 105.236 68.6095 105.229 68.4276C112.914 65.1188 124.884 58.544 132.716 58.8737Z" fill="black"/>
<path d="M112.19 129.65C113.336 130.698 114.57 131.652 115.98 132.417C138.671 145.463 168.48 134.178 168.752 134.076L169.024 133.975L192.194 115.389L191.518 114.595C185.937 108.438 174.454 106.52 163.434 104.676C152.047 102.846 141.395 100.988 138.487 94.9979C134.581 87.0431 134.276 74.847 133.882 65.0231C133.883 62.7454 133.707 60.6569 133.627 58.6557L133.59 57.7461L132.76 57.6876C126.222 57.4892 117.191 61.6709 109.873 64.9652C108.065 65.7651 106.441 66.5578 104.906 67.2559L104.274 67.5541L104.303 68.2818C102.611 76.5479 95.9577 114.801 112.19 129.65ZM168.04 132.373C165.865 133.188 138.201 142.931 117.112 130.823C97.3375 119.393 104.41 77.8437 106.176 69.1192C107.623 68.5156 109.159 67.8175 110.783 67.0248C117.558 63.934 125.861 59.9633 131.929 59.9068C131.995 61.5442 132.068 63.3634 132.141 65.1827C132.447 75.1012 132.854 87.5666 136.959 95.878C140.366 102.85 151.569 104.687 163.419 106.59C173.697 108.281 184.342 109.958 189.608 115.126L168.04 132.373Z" fill="black"/>
<path d="M105.098 38.279C105.869 40.6168 106.922 42.658 108.384 44.7442C108.928 45.4186 109.954 44.7532 109.464 43.9619C108.066 42.0466 107.013 40.0055 106.305 37.8384C106.105 37.0382 104.898 37.4787 105.098 38.279Z" fill="black"/>
<path d="M100.259 43.4401C101.012 45.2026 101.766 46.965 102.519 48.7274C102.891 49.4647 104.099 49.0242 103.727 48.2869C102.973 46.5244 102.22 44.762 101.466 42.9996C101.212 42.3162 100.005 42.7568 100.259 43.4401Z" fill="black"/>
<path d="M189.5 109.674L194 101.255L212 93.8263V89.3691C213.166 92.3406 210.568 107.291 225 109.674C227.4 110.07 250.021 130.288 260.188 132.764C231.188 134.745 258.5 176.036 245 203.769C245 203.769 145.013 217.141 146.5 196.341C148.186 172.758 170.468 153.51 139.469 138.653C147.296 101.634 171.391 108.305 174 107.198C176.8 106.009 176.75 109.055 189.5 109.674Z" fill="black"/>
<path d="M23.0701 66.7342C23.6234 66.8387 24.1604 66.4888 24.2696 65.9525C24.3788 65.4163 24.0188 64.8968 23.4655 64.7922C22.9123 64.6877 22.3753 65.0376 22.2661 65.5739C22.1569 66.1101 22.5169 66.6296 23.0701 66.7342Z" fill="black"/>
<path d="M348.514 48.4728C349.068 48.5774 349.605 48.2274 349.714 47.6912C349.823 47.1549 349.463 46.6355 348.91 46.5309C348.356 46.4263 347.819 46.7763 347.71 47.3125C347.601 47.8488 347.961 48.3682 348.514 48.4728Z" fill="black"/>
<path d="M32.4258 94.0529C32.9804 93.9972 33.3842 93.517 33.3277 92.9803C33.2713 92.4435 32.776 92.0536 32.2215 92.1093C31.667 92.1649 31.2632 92.6452 31.3196 93.1819C31.376 93.7186 31.8713 94.1086 32.4258 94.0529Z" fill="black"/>
<path d="M124.899 17.4916C125.454 17.4359 125.858 16.9557 125.801 16.419C125.745 15.8823 125.249 15.4923 124.695 15.548C124.14 15.6037 123.737 16.0839 123.793 16.6206C123.849 17.1573 124.345 17.5473 124.899 17.4916Z" fill="black"/>
<path d="M136.899 39.6966C137.454 39.6409 137.858 39.1607 137.801 38.6239C137.745 38.0872 137.249 37.6973 136.695 37.7529C136.14 37.8086 135.737 38.2888 135.793 38.8256C135.849 39.3623 136.345 39.7522 136.899 39.6966Z" fill="black"/>
<path d="M219.293 38.7056C219.848 38.6499 220.251 38.1697 220.195 37.633C220.138 37.0963 219.643 36.7063 219.089 36.762C218.534 36.8177 218.13 37.2979 218.187 37.8346C218.243 38.3713 218.738 38.7613 219.293 38.7056Z" fill="black"/>
<path d="M155.399 48.8759C155.954 48.8202 156.358 48.34 156.301 47.8033C156.245 47.2665 155.749 46.8766 155.195 46.9323C154.64 46.9879 154.237 47.4682 154.293 48.0049C154.349 48.5416 154.845 48.9316 155.399 48.8759Z" fill="black"/>
<path d="M237.793 47.8849C238.348 47.8292 238.751 47.349 238.695 46.8123C238.638 46.2756 238.143 45.8856 237.589 45.9413C237.034 45.997 236.63 46.4772 236.687 47.0139C236.743 47.5506 237.238 47.9406 237.793 47.8849Z" fill="black"/>
<path d="M182.899 6.8716C183.454 6.81593 183.858 6.3357 183.801 5.79899C183.745 5.26227 183.249 4.87232 182.695 4.928C182.14 4.98367 181.737 5.4639 181.793 6.00061C181.849 6.53733 182.345 6.92728 182.899 6.8716Z" fill="black"/>
<path d="M265.293 5.88064C265.848 5.82496 266.251 5.34473 266.195 4.80802C266.139 4.27131 265.643 3.88135 265.089 3.93703C264.534 3.99271 264.13 4.47293 264.187 5.00965C264.243 5.54636 264.739 5.93632 265.293 5.88064Z" fill="black"/>
<path d="M191.899 26.1806C192.454 26.1249 192.858 25.6447 192.801 25.1079C192.745 24.5712 192.249 24.1813 191.695 24.237C191.14 24.2926 190.737 24.7729 190.793 25.3096C190.849 25.8463 191.345 26.2362 191.899 26.1806Z" fill="black"/>
<path d="M274.293 25.1896C274.848 25.1339 275.251 24.6537 275.195 24.117C275.139 23.5803 274.643 23.1903 274.089 23.246C273.534 23.3017 273.13 23.7819 273.187 24.3186C273.243 24.8553 273.739 25.2453 274.293 25.1896Z" fill="black"/>
<path d="M222.899 85.0723C223.454 85.0166 223.858 84.5364 223.801 83.9997C223.745 83.463 223.249 83.073 222.695 83.1287C222.14 83.1844 221.737 83.6646 221.793 84.2013C221.849 84.738 222.345 85.128 222.899 85.0723Z" fill="black"/>
<path d="M125.899 100.519C126.454 100.464 126.858 99.9835 126.801 99.4468C126.745 98.9101 126.249 98.5201 125.695 98.5758C125.14 98.6315 124.737 99.1117 124.793 99.6484C124.849 100.185 125.345 100.575 125.899 100.519Z" fill="black"/>
<path d="M103.899 109.208C104.454 109.153 104.858 108.672 104.801 108.136C104.745 107.599 104.249 107.209 103.695 107.265C103.14 107.32 102.737 107.801 102.793 108.337C102.849 108.874 103.345 109.264 103.899 109.208Z" fill="black"/>
<path d="M122.899 122.725C123.454 122.669 123.858 122.189 123.801 121.652C123.745 121.116 123.249 120.726 122.695 120.781C122.14 120.837 121.737 121.317 121.793 121.854C121.849 122.391 122.345 122.781 122.899 122.725Z" fill="black"/>
<path d="M62.8992 80.2451C63.4538 80.1895 63.8576 79.7092 63.8011 79.1725C63.7447 78.6358 63.2494 78.2459 62.6949 78.3015C62.1403 78.3572 61.7366 78.8374 61.793 79.3741C61.8494 79.9109 62.3447 80.3008 62.8992 80.2451Z" fill="black"/>
<path d="M267.899 101.485C268.454 101.429 268.858 100.949 268.801 100.412C268.745 99.8754 268.249 99.4855 267.695 99.5412C267.14 99.5968 266.737 100.077 266.793 100.614C266.849 101.15 267.345 101.54 267.899 101.485Z" fill="black"/>
<path d="M320.721 102.451C321.275 102.395 321.679 101.915 321.623 101.378C321.566 100.841 321.071 100.451 320.516 100.507C319.962 100.563 319.558 101.043 319.615 101.58C319.671 102.116 320.166 102.506 320.721 102.451Z" fill="black"/>
<path d="M216.899 120.794C217.454 120.738 217.858 120.258 217.801 119.721C217.745 119.184 217.249 118.794 216.695 118.85C216.14 118.906 215.737 119.386 215.793 119.923C215.849 120.459 216.345 120.849 216.899 120.794Z" fill="black"/>
<path d="M295.899 72.5216C296.454 72.466 296.858 71.9857 296.801 71.449C296.745 70.9123 296.249 70.5223 295.695 70.578C295.14 70.6337 294.737 71.1139 294.793 71.6506C294.849 72.1874 295.345 72.5773 295.899 72.5216Z" fill="black"/>
<path d="M370.721 27.1459C371.275 27.0902 371.679 26.61 371.623 26.0733C371.566 25.5366 371.071 25.1466 370.516 25.2023C369.962 25.258 369.558 25.7382 369.615 26.2749C369.671 26.8116 370.166 27.2016 370.721 27.1459Z" fill="black"/>
<path d="M341.721 10.7334C342.275 10.6777 342.679 10.1975 342.623 9.6608C342.566 9.12409 342.071 8.73413 341.516 8.78981C340.962 8.84549 340.558 9.32571 340.615 9.86243C340.671 10.3991 341.166 10.7891 341.721 10.7334Z" fill="black"/>
<path d="M29.2301 119.323C29.2591 118.636 29.6217 112.495 32.9167 109.936L34.6833 111.887C32.6448 113.451 32.0215 117.875 31.9767 119.457L29.2301 119.323Z" fill="black"/>
<path d="M246.905 116.914C246.934 116.227 247.296 110.086 250.591 107.527L252.358 109.478C250.32 111.042 249.696 115.466 249.652 117.048L246.905 116.914Z" fill="black"/>
<path d="M356.726 26.1626C356.755 25.4753 357.118 19.3348 360.413 16.776L362.18 18.7263C360.141 20.291 359.518 24.7145 359.473 26.2968L356.726 26.1626Z" fill="black"/>
<path d="M71.2632 35.8738C70.6011 31.7288 73.1174 28.3184 73.2191 28.1769L75.0307 29.7788L74.1223 28.9907L75.0307 29.7788C75.0021 29.8002 73.1427 32.3699 73.615 35.2999L71.2632 35.8738Z" fill="black"/>
<path d="M144.696 18.022C145.358 13.877 142.842 10.4666 142.74 10.3251L140.929 11.927L141.837 11.1389L140.929 11.927C140.957 11.9484 142.817 14.5181 142.344 17.4481L144.696 18.022Z" fill="black"/>
<path d="M248.674 31.9679C248.012 27.8229 250.528 24.4126 250.63 24.271L252.441 25.8729L251.533 25.0849L252.441 25.8729C252.413 25.8943 250.553 28.464 251.026 31.394L248.674 31.9679Z" fill="black"/>
<path d="M324.352 51.7799C323.69 47.6349 326.206 44.2246 326.308 44.083L328.12 45.6849L327.211 44.8969L328.12 45.6849C328.091 45.7063 326.232 48.2761 326.704 51.2061L324.352 51.7799Z" fill="black"/>
<path d="M14.3672 92.6216C13.7051 88.4766 16.2214 85.0662 16.3231 84.9247L18.1347 86.5266L17.2263 85.7385L18.1347 86.5266C18.1061 86.548 16.2467 89.1177 16.7191 92.0477L14.3672 92.6216Z" fill="black"/>
<path d="M59.2017 66.5043L56.6222 65.373L57.9096 65.9501L56.6176 65.3959C56.6222 65.373 58.0476 62.8286 56.627 60.3186L59.2046 59.4466C61.2086 62.9729 59.2908 66.3542 59.2017 66.5043Z" fill="black"/>
<path d="M283.383 90.5224L280.803 89.391L282.091 89.9682L280.799 89.414C280.803 89.391 282.229 86.8467 280.808 84.3367L283.386 83.4646C285.39 86.991 283.472 90.3723 283.383 90.5224Z" fill="black"/>
<path d="M358.204 49.0085L355.625 47.8771L356.912 48.4543L355.62 47.9001C355.625 47.8771 357.05 45.3327 355.63 42.8227L358.207 41.9507C360.211 45.4771 358.294 48.8584 358.204 49.0085Z" fill="black"/>
<path d="M78.2753 12.8676L78.3979 13.1053C78.8608 14.0337 79.7405 14.755 80.762 15.0437L81.0243 15.1215C81.312 15.1973 81.3457 15.5908 81.0748 15.7118L80.8294 15.8308C79.871 16.2799 79.126 17.1328 78.8273 18.1229L78.7469 18.3771C78.6685 18.6559 78.2623 18.6888 78.1376 18.4265L78.015 18.1887C77.5521 17.2603 76.6725 16.5391 75.6509 16.2503L75.3886 16.1725C75.1009 16.0968 75.0673 15.7032 75.3381 15.5822L75.5835 15.4633C76.5419 15.0141 77.2869 14.1612 77.5856 13.1711L77.6661 12.9169C77.7698 12.6361 78.1506 12.6052 78.2753 12.8676Z" fill="#13C8A4"/>
<path d="M52.3139 91.8013L52.2927 92.0663C52.1962 93.0931 52.5673 94.1489 53.2899 94.9036L53.4735 95.1006C53.6799 95.3083 53.4996 95.663 53.2031 95.6326L52.9294 95.6129C51.8688 95.5232 50.7768 95.886 49.9945 96.588L49.7904 96.7664C49.5751 96.9669 49.2093 96.7936 49.2418 96.5065L49.263 96.2416C49.3594 95.2147 48.9883 94.1589 48.2657 93.4042L48.0822 93.2072C47.8758 92.9995 48.056 92.6448 48.3526 92.6753L48.6262 92.6949C49.6868 92.7847 50.7789 92.4218 51.5611 91.7198L51.7652 91.5414C51.9806 91.3409 52.3464 91.5142 52.3139 91.8013Z" fill="#13C8A4"/>
<path d="M212.13 84.2335L212.229 84.4814C212.601 85.4481 213.407 86.2463 214.396 86.6266L214.649 86.7279C214.928 86.8295 214.924 87.2245 214.643 87.3204L214.387 87.4166C213.39 87.777 212.567 88.5589 212.175 89.5179L212.07 89.7638C211.965 90.0343 211.558 90.0303 211.459 89.7577L211.36 89.5098C210.988 88.5431 210.182 87.7449 209.193 87.3646L208.939 87.2633C208.66 87.1617 208.665 86.7667 208.946 86.6708L209.202 86.5745C210.199 86.2142 211.022 85.4323 211.414 84.4733L211.519 84.2274C211.624 83.9568 212.031 83.9609 212.13 84.2335Z" fill="#13C8A4"/>
<path d="M15.11 47.0983L15.2341 47.3353C15.7029 48.2609 16.5872 48.9769 17.6106 49.2596L17.8733 49.3358C18.1615 49.4099 18.1977 49.8032 17.9276 49.9258L17.683 50.0462C16.7274 50.5011 15.9879 51.3584 15.6955 52.3502L15.6166 52.6049C15.54 52.8841 15.134 52.9194 15.0077 52.6578L14.8836 52.4208C14.4148 51.4952 13.5306 50.7792 12.5071 50.4965L12.2444 50.4203C11.9562 50.3462 11.9201 49.9529 12.1901 49.8303L12.4348 49.7099C13.3903 49.255 14.1299 48.3978 14.4222 47.4059L14.5011 47.1512C14.5777 46.872 14.9837 46.8367 15.11 47.0983Z" fill="#13C8A4"/>
<path d="M56.5742 39.6771L56.8132 39.809C57.7333 40.3325 58.8806 40.4605 59.8965 40.153L60.1594 40.0771C60.4423 39.986 60.6972 40.295 60.5418 40.5407L60.4063 40.7711C59.8684 41.658 59.7408 42.766 60.0634 43.7489L60.143 44.0033C60.2386 44.277 59.9198 44.522 59.6649 44.3708L59.4259 44.2389C58.5057 43.7154 57.3584 43.5874 56.3426 43.8949L56.0796 43.9708C55.7968 44.062 55.5419 43.753 55.6973 43.5073L55.8327 43.2769C56.3706 42.39 56.4983 41.282 56.1757 40.299L56.0961 40.0447C56.0005 39.771 56.3192 39.5259 56.5742 39.6771Z" fill="#13C8A4"/>
<path d="M39.3633 45.635C39.1789 41.2483 35.6325 34.1134 31.879 26.5436C27.6803 18.1245 22.9586 8.57751 21.9289 0.812696L24.5492 0.466142C25.5062 7.79517 30.1605 17.1448 34.2299 25.4075C38.2681 33.5588 41.7576 40.5773 41.9941 45.5014L39.3633 45.635Z" fill="black"/>
<path d="M367.323 64.9168C367.504 60.5316 371.046 53.4016 374.795 45.837C378.988 37.4236 383.704 27.8831 384.728 20.1215L382.106 19.7731C381.155 27.0991 376.506 36.4423 372.442 44.6994C368.409 52.8452 364.924 59.8589 364.692 64.7813L367.323 64.9168Z" fill="black"/>
<path d="M98.8151 10.2141L99.034 10.3763C99.8746 11.0164 100.995 11.2931 102.044 11.12L102.315 11.0789C102.609 11.0252 102.819 11.3654 102.631 11.5892L102.465 11.8005C101.81 12.6115 101.531 13.6957 101.716 14.7143L101.76 14.9775C101.817 15.2618 101.467 15.4637 101.235 15.2803L101.016 15.1181C100.176 14.478 99.0557 14.2013 98.006 14.3744L97.7348 14.4155C97.4418 14.4692 97.2315 14.129 97.4193 13.9051L97.5853 13.6939C98.2406 12.8829 98.5194 11.7986 98.3345 10.7801L98.2905 10.5169C98.2465 10.2538 98.5744 10.0646 98.8151 10.2141Z" fill="#13C8A4"/>
<path d="M169.032 29.0741L168.816 29.2405C167.971 29.8755 167.425 30.8594 167.349 31.8848L167.325 32.1488C167.309 32.4363 166.917 32.5522 166.736 32.3226L166.564 32.1165C165.904 31.3083 164.881 30.7878 163.812 30.7176L163.537 30.696C163.237 30.6816 163.118 30.3055 163.358 30.1318L163.573 29.9654C164.418 29.3304 164.964 28.3465 165.041 27.3211L165.064 27.0571C165.08 26.7695 165.473 26.6537 165.653 26.8833L165.826 27.0894C166.485 27.8976 167.509 28.4181 168.577 28.4883L168.852 28.5099C169.128 28.5315 169.239 28.8841 169.032 29.0741Z" fill="#13C8A4"/>
<path d="M227.358 12.7109L227.143 12.8773C226.298 13.5123 225.752 14.4962 225.675 15.5216L225.652 15.7856C225.636 16.0732 225.243 16.189 225.063 15.9594L224.89 15.7533C224.231 14.9452 223.207 14.4247 222.139 14.3544L221.864 14.3328C221.564 14.3184 221.445 13.9423 221.684 13.7687L221.9 13.6022C222.745 12.9672 223.291 11.9833 223.368 10.958L223.391 10.6939C223.407 10.4064 223.799 10.2905 223.98 10.5201L224.152 10.7263C224.812 11.5344 225.835 12.0549 226.904 12.1251L227.179 12.1468C227.454 12.1684 227.566 12.521 227.358 12.7109Z" fill="#13C8A4"/>
<path d="M259.359 63.273L259.144 63.4395C258.299 64.0745 257.753 65.0584 257.676 66.0837L257.653 66.3478C257.637 66.6353 257.244 66.7512 257.064 66.5216L256.891 66.3154C256.232 65.5073 255.208 64.9868 254.14 64.9166L253.865 64.8949C253.565 64.8806 253.446 64.5045 253.685 64.3308L253.901 64.1644C254.746 63.5294 255.292 62.5455 255.368 61.5201L255.392 61.2561C255.408 60.9685 255.8 60.8527 255.981 61.0823L256.153 61.2884C256.813 62.0965 257.836 62.617 258.905 62.6873L259.18 62.7089C259.455 62.7305 259.567 63.0831 259.359 63.273Z" fill="#13C8A4"/>
<path d="M314.732 14.2556L314.517 14.422C313.672 15.057 313.126 16.0409 313.049 17.0663L313.026 17.3303C313.01 17.6179 312.617 17.7337 312.437 17.5041L312.264 17.298C311.605 16.4898 310.581 15.9693 309.513 15.8991L309.238 15.8775C308.938 15.8631 308.818 15.487 309.058 15.3133L309.274 15.1469C310.119 14.5119 310.665 13.528 310.741 12.5026L310.765 12.2386C310.781 11.9511 311.173 11.8352 311.354 12.0648L311.526 12.2709C312.185 13.0791 313.209 13.5996 314.278 13.6698L314.553 13.6914C314.828 13.7131 314.94 14.0656 314.732 14.2556Z" fill="#13C8A4"/>
<path d="M86.7882 79.628L86.5728 79.7945C85.7281 80.4294 85.182 81.4134 85.1052 82.4387L85.0818 82.7028C85.0658 82.9903 84.6733 83.1061 84.493 82.8765L84.3203 82.6704C83.6612 81.8623 82.6373 81.3418 81.5687 81.2716L81.2935 81.2499C80.9938 81.2355 80.8744 80.8594 81.1144 80.6858L81.3298 80.5193C82.1745 79.8843 82.7206 78.9004 82.7974 77.8751L82.8208 77.611C82.8368 77.3235 83.2293 77.2077 83.4096 77.4373L83.5823 77.6434C84.2414 78.4515 85.2653 78.972 86.3339 79.0422L86.6091 79.0639C86.8842 79.0855 86.9962 79.4381 86.7882 79.628Z" fill="#13C8A4"/>
<path d="M157.037 82.5786L156.822 82.745C155.977 83.38 155.431 84.3639 155.354 85.3893L155.33 85.6533C155.314 85.9409 154.922 86.0567 154.742 85.8271L154.569 85.621C153.91 84.8128 152.886 84.2923 151.817 84.2221L151.542 84.2005C151.243 84.1861 151.123 83.81 151.363 83.6363L151.579 83.4699C152.423 82.8349 152.969 81.851 153.046 80.8256L153.07 80.5616C153.086 80.2741 153.478 80.1582 153.658 80.3878L153.831 80.5939C154.49 81.4021 155.514 81.9226 156.583 81.9928L156.858 82.0144C157.133 82.0361 157.245 82.3886 157.037 82.5786Z" fill="#13C8A4"/>
<path fill-rule="evenodd" clip-rule="evenodd" d="M41.5025 121.54L42.3746 121.847L42.6284 121.175C42.7101 120.959 42.9503 120.851 43.1743 120.929C43.3983 121.008 43.5101 121.24 43.4284 121.456L43.173 122.132C44.1052 122.532 44.5702 123.566 44.2153 124.505C44.0026 125.068 43.5416 125.475 42.9953 125.651C43.2957 126.126 43.3775 126.723 43.1648 127.286C42.8098 128.225 41.7634 128.729 40.7831 128.456L40.5306 129.124C40.4489 129.341 40.2087 129.449 39.9846 129.37C39.7606 129.291 39.6488 129.06 39.7305 128.843L39.9815 128.179L39.1092 127.873L38.8582 128.537C38.7765 128.753 38.5363 128.861 38.3123 128.783C38.0883 128.704 37.9765 128.472 38.0582 128.256L38.309 127.592C38.3064 127.591 38.3038 127.59 38.3012 127.589L36.9172 127.103C36.6932 127.024 36.5814 126.793 36.6631 126.577C36.7448 126.36 36.985 126.252 37.209 126.331L37.777 126.531L39.5864 121.742L39.0182 121.543C38.7942 121.464 38.6824 121.232 38.7641 121.016C38.8459 120.8 39.0861 120.692 39.3101 120.77L40.7025 121.259L40.9563 120.588C41.038 120.371 41.2782 120.263 41.5022 120.342C41.7262 120.421 41.838 120.652 41.7563 120.869L41.5025 121.54ZM40.7988 122.168L40.8106 122.172L40.8224 122.176L42.4709 122.755L42.4827 122.76L42.4946 122.764L42.7546 122.855C43.3306 123.057 43.6254 123.668 43.4153 124.224C43.2051 124.78 42.5719 125.065 41.9959 124.863L39.6278 124.031L40.3864 122.023L40.4023 122.029L40.4086 122.031L40.4178 122.034L40.7988 122.168ZM40.9453 127.643L40.68 127.55L40.6733 127.548L40.6666 127.545L38.5772 126.811L39.336 124.803L41.704 125.635C42.2801 125.838 42.5748 126.449 42.3647 127.005C42.1546 127.561 41.5213 127.846 40.9453 127.643Z" fill="black"/>
<path fill-rule="evenodd" clip-rule="evenodd" d="M324.444 81.3289L325.354 81.1526L325.208 80.4515C325.162 80.2258 325.309 80.0129 325.542 79.9676C325.776 79.9223 325.996 80.0641 326.043 80.2898L326.189 80.9954C327.201 80.8685 328.155 81.5187 328.358 82.4991C328.48 83.0866 328.305 83.6652 327.934 84.0905C328.446 84.3447 328.837 84.8136 328.959 85.4012C329.162 86.3816 328.539 87.3372 327.555 87.5968L327.7 88.2944C327.746 88.5201 327.599 88.733 327.366 88.7783C327.132 88.8236 326.912 88.6818 326.865 88.4561L326.721 87.7629L325.811 87.9392L325.955 88.6324C326.001 88.8581 325.854 89.0711 325.621 89.1163C325.387 89.1616 325.167 89.0198 325.12 88.7941L324.977 88.1013C324.974 88.1018 324.971 88.1024 324.968 88.1029L323.524 88.3826C323.291 88.4279 323.07 88.2861 323.024 88.0604C322.977 87.8347 323.124 87.6218 323.358 87.5765L323.95 87.4617L322.916 82.4635L322.323 82.5783C322.089 82.6236 321.869 82.4818 321.822 82.2561C321.776 82.0304 321.923 81.8175 322.156 81.7722L323.609 81.4906L323.464 80.7894C323.417 80.5637 323.564 80.3508 323.798 80.3055C324.031 80.2602 324.252 80.402 324.298 80.6277L324.444 81.3289ZM324.181 82.2182L324.193 82.216L324.205 82.2134L325.925 81.8803L325.938 81.8781L325.95 81.8755L326.221 81.823C326.822 81.7066 327.403 82.0803 327.523 82.6607C327.643 83.2411 327.256 83.8025 326.655 83.9189L324.184 84.3974L323.751 82.3018L323.767 82.2986L323.774 82.2973L323.783 82.2952L324.181 82.2182ZM327.256 86.821L326.979 86.8746L326.972 86.8759L326.965 86.8773L324.785 87.2995L324.351 85.2036L326.822 84.725C327.423 84.6087 328.004 84.9824 328.124 85.5628C328.244 86.1432 327.857 86.7045 327.256 86.821Z" fill="black"/>
<path fill-rule="evenodd" clip-rule="evenodd" d="M65.5651 103.88L67.6856 102.809L66.8018 101.174C66.5173 100.648 66.7217 100.018 67.2664 99.7434C67.8111 99.4683 68.4626 99.6656 68.7471 100.192L69.6365 101.837C72.0454 100.817 74.8949 101.761 76.1307 104.046C76.8713 105.416 76.8716 106.97 76.2706 108.282C77.7283 108.554 79.0485 109.442 79.7891 110.811C81.0249 113.097 80.1996 115.896 77.9577 117.225L78.8371 118.851C79.1216 119.378 78.9172 120.007 78.3725 120.282C77.8278 120.557 77.1763 120.36 76.8918 119.834L76.018 118.218L73.8969 119.289L74.7708 120.905C75.0553 121.431 74.8509 122.061 74.3062 122.336C73.7615 122.611 73.11 122.414 72.8255 121.888L71.9521 120.272C71.9459 120.276 71.9396 120.279 71.9333 120.282L68.5679 121.982C68.0232 122.257 67.3717 122.059 67.0872 121.533C66.8026 121.007 67.0071 120.378 67.5517 120.103L68.9329 119.405L62.6324 107.754L61.2508 108.451C60.7061 108.726 60.0546 108.529 59.7701 108.003C59.4856 107.477 59.69 106.847 60.2347 106.572L63.6197 104.862L62.7359 103.227C62.4514 102.701 62.6558 102.072 63.2005 101.797C63.7452 101.522 64.3967 101.719 64.6812 102.245L65.5651 103.88ZM65.5798 106.264L65.6088 106.25L65.6373 106.235L69.6456 104.211L69.6746 104.197L69.7033 104.182L70.3354 103.863C71.7361 103.155 73.4537 103.676 74.1853 105.028C74.917 106.381 74.378 108.041 72.9774 108.748L67.2192 111.656L64.5776 106.771L64.6162 106.752L64.6315 106.744L64.6534 106.732L65.5798 106.264ZM76.6358 115.514L75.9907 115.839L75.9744 115.847L75.9582 115.856L70.8777 118.421L68.2357 113.536L73.9935 110.628C75.3945 109.92 77.1121 110.441 77.8438 111.794C78.5754 113.146 78.0365 114.806 76.6358 115.514Z" fill="#13C8A4"/>
<path d="M37.7571 64.6776L32.7746 65.6722L31.5895 60.0878L36.572 59.0932C38.1699 58.7742 39.7312 59.7659 40.0584 61.3077C40.3856 62.8495 39.355 64.3586 37.7571 64.6776ZM33.7752 64.207L37.4995 63.4636C38.4054 63.2828 38.9857 62.433 38.8002 61.5589C38.6147 60.6848 37.7355 60.1264 36.8296 60.3072L33.1053 61.0506L33.7752 64.207Z" fill="black"/>
<path d="M38.6846 69.0482L33.7021 70.0428L32.517 64.4584L37.4995 63.4638C39.0974 63.1448 40.6587 64.1366 40.9859 65.6783C41.3131 67.2201 40.2825 68.7292 38.6846 69.0482ZM34.7027 68.5776L38.427 67.8342C39.3329 67.6534 39.9132 66.8036 39.7277 65.9295C39.5422 65.0554 38.663 64.497 37.7571 64.6778L34.0328 65.4212L34.7027 68.5776Z" fill="black"/>
<path d="M33.1307 61.0464L30.954 61.4809C30.6017 61.5512 30.2682 61.3394 30.1961 60.9995C30.124 60.6595 30.3441 60.3372 30.6964 60.2669L32.8731 59.8324C33.2254 59.762 33.5589 59.9739 33.631 60.3138C33.7031 60.6537 33.483 60.9761 33.1307 61.0464Z" fill="black"/>
<path d="M33.7726 60.9179C33.4203 60.9882 33.0868 60.7764 33.0146 60.4365L32.6617 58.7733C32.5895 58.4333 32.8097 58.111 33.162 58.0407C33.5143 57.9704 33.8477 58.1822 33.9199 58.5221L34.2728 60.1853C34.345 60.5252 34.1249 60.8476 33.7726 60.9179Z" fill="black"/>
<path d="M36.3995 60.3937C36.0473 60.4643 35.7141 60.2527 35.6422 59.9127L35.2908 58.2492C35.2189 57.9092 35.4393 57.5866 35.7915 57.516C36.1437 57.4454 36.4769 57.657 36.5487 57.997L36.9002 59.6605C36.9721 60.0004 36.7517 60.3231 36.3995 60.3937Z" fill="black"/>
<path d="M35.9777 71.3097C35.6254 71.38 35.292 71.1682 35.2198 70.8282L34.8694 69.1772C34.7973 68.8373 35.0174 68.5149 35.3697 68.4446C35.722 68.3743 36.0555 68.5861 36.1276 68.926L36.478 70.5771C36.5502 70.917 36.33 71.2393 35.9777 71.3097Z" fill="black"/>
<path d="M38.6071 70.7849C38.2548 70.8552 37.9214 70.6434 37.8492 70.3035L37.4988 68.6524C37.4267 68.3125 37.6468 67.9902 37.9991 67.9198C38.3514 67.8495 38.6849 68.0613 38.757 68.4013L39.1074 70.0523C39.1796 70.3922 38.9594 70.7146 38.6071 70.7849Z" fill="black"/>
<path d="M34.9857 69.7875L32.809 70.222C32.4567 70.2923 32.1232 70.0805 32.0511 69.7405C31.9789 69.4006 32.1991 69.0783 32.5514 69.008L34.7281 68.5735C35.0804 68.5031 35.4138 68.715 35.486 69.0549C35.5581 69.3948 35.338 69.7171 34.9857 69.7875Z" fill="black"/>
<path fill-rule="evenodd" clip-rule="evenodd" d="M348.992 72.967C349.001 72.9695 349.011 72.9719 349.022 72.9742C349.032 72.9765 349.042 72.9786 349.052 72.9806L353.194 73.9114C353.205 73.9143 353.216 73.9171 353.228 73.9197C353.239 73.9223 353.251 73.9247 353.262 73.9269L353.912 74.0728C355.361 74.3985 356.254 75.7862 355.915 77.1833C355.575 78.5803 354.134 79.4433 352.685 79.1177L346.728 77.7788L347.954 72.7346L347.995 72.7438C348.008 72.7468 348.022 72.7496 348.035 72.7521L348.992 72.967ZM350.5 71.2596L352.693 71.7526L353.104 70.0651C353.236 69.5218 353.782 69.1944 354.346 69.3211C354.909 69.4477 355.248 69.9741 355.116 70.5174L354.703 72.2157C357.07 72.9161 358.501 75.2759 357.927 77.6356C357.584 79.0498 356.594 80.1572 355.33 80.7356C356.197 81.7927 356.573 83.2069 356.229 84.6211C355.655 86.9809 353.285 88.4864 350.84 88.1054L350.432 89.7845C350.3 90.3278 349.753 90.6551 349.19 90.5285C348.626 90.4018 348.287 89.8754 348.419 89.3321L348.825 87.6637L346.632 87.1707L346.226 88.8394C346.094 89.3827 345.547 89.7101 344.984 89.5835C344.42 89.4568 344.081 88.9304 344.213 88.3871L344.619 86.7192C344.612 86.7179 344.605 86.7164 344.599 86.7149L341.117 85.9324C340.553 85.8057 340.214 85.2793 340.346 84.736C340.478 84.1927 341.025 83.8654 341.588 83.992L343.017 84.3131L344.715 77.3268L344.715 77.3268L345.942 72.2823L344.513 71.9612C343.949 71.8346 343.61 71.3082 343.743 70.7649C343.875 70.2216 344.421 69.8942 344.985 70.0209L346.413 70.342L346.413 70.3412L348.487 70.8073L348.897 69.1196C349.029 68.5763 349.576 68.2489 350.139 68.3756C350.703 68.5022 351.042 69.0286 350.91 69.5719L350.5 71.2596ZM350.987 86.1032L350.326 85.9548L350.303 85.9493L350.28 85.9442L345.03 84.7643L346.256 79.7195L352.213 81.0583C353.662 81.384 354.556 82.7718 354.217 84.1688C353.877 85.5659 352.436 86.4289 350.987 86.1032Z" fill="black"/>
<path d="M54.1235 24.038L50.5508 22.2064L52.7567 18.2L56.3294 20.0316C57.4751 20.619 57.9105 21.9925 57.3014 23.0986C56.6924 24.2047 55.2692 24.6254 54.1235 24.038ZM51.9325 21.798L54.603 23.1671C55.2526 23.5001 56.054 23.2632 56.3992 22.6361C56.7445 22.009 56.4994 21.2356 55.8498 20.9025L53.1794 19.5335L51.9325 21.798Z" fill="#13C8A4"/>
<path d="M52.3971 27.1734L48.8245 25.3418L51.0304 21.3353L54.6031 23.1669C55.7488 23.7544 56.1841 25.1279 55.5751 26.234C54.9661 27.3401 53.5429 27.7608 52.3971 27.1734ZM50.2062 24.9334L52.8767 26.3024C53.5263 26.6355 54.3277 26.3986 54.6729 25.7715C55.0182 25.1444 54.7731 24.3709 54.1235 24.0379L51.453 22.6688L50.2062 24.9334Z" fill="#13C8A4"/>
<path d="M53.1973 19.5428L51.6365 18.7426C51.3839 18.6131 51.2909 18.3197 51.4252 18.0759C51.5594 17.832 51.8634 17.7421 52.116 17.8716L53.6768 18.6718C53.9294 18.8013 54.0224 19.0947 53.8881 19.3386C53.7538 19.5824 53.4499 19.6723 53.1973 19.5428Z" fill="#13C8A4"/>
<path d="M53.6577 19.7787C53.4051 19.6492 53.3121 19.3559 53.4464 19.112L54.1034 17.9188C54.2377 17.6749 54.5416 17.585 54.7942 17.7145C55.0469 17.844 55.1398 18.1374 55.0056 18.3813L54.3486 19.5745C54.2143 19.8184 53.9103 19.9083 53.6577 19.7787Z" fill="#13C8A4"/>
<path d="M55.5432 20.7455C55.2906 20.616 55.1976 20.3227 55.3319 20.0788L55.9889 18.8856C56.1232 18.6417 56.4271 18.5518 56.6797 18.6813C56.9324 18.8108 57.0253 19.1042 56.8911 19.3481L56.2341 20.5413C56.0998 20.7852 55.7958 20.875 55.5432 20.7455Z" fill="#13C8A4"/>
<path d="M49.5527 27.2344C49.3 27.1049 49.2071 26.8115 49.3413 26.5676L49.9935 25.3831C50.1278 25.1392 50.4318 25.0494 50.6844 25.1789C50.937 25.3084 51.03 25.6018 50.8957 25.8456L50.2435 27.0302C50.1092 27.274 49.8053 27.3639 49.5527 27.2344Z" fill="#13C8A4"/>
<path d="M51.4382 28.2007C51.1855 28.0712 51.0926 27.7778 51.2268 27.5339L51.879 26.3494C52.0133 26.1056 52.3173 26.0157 52.5699 26.1452C52.8225 26.2747 52.9155 26.5681 52.7812 26.812L52.129 27.9965C51.9947 28.2403 51.6908 28.3302 51.4382 28.2007Z" fill="#13C8A4"/>
<path d="M49.7444 25.814L48.1836 25.0139C47.931 24.8843 47.838 24.591 47.9723 24.3471C48.1066 24.1032 48.4105 24.0134 48.6631 24.1429L50.2239 24.9431C50.4765 25.0726 50.5695 25.3659 50.4352 25.6098C50.301 25.8537 49.997 25.9435 49.7444 25.814Z" fill="#13C8A4"/>
<path d="M14.891 109.821L15.0255 110.038C15.5356 110.887 16.4258 111.51 17.4181 111.712L17.6732 111.768C17.9522 111.819 18.014 112.191 17.7659 112.325L17.5418 112.455C16.6654 112.949 16.0224 113.812 15.8138 114.774L15.7566 115.021C15.7033 115.291 15.3199 115.351 15.1816 115.111L15.0471 114.894C14.5371 114.044 13.6468 113.422 12.6545 113.219L12.3995 113.164C12.1205 113.112 12.0587 112.741 12.3067 112.607L12.5309 112.477C13.4072 111.982 14.0502 111.119 14.2589 110.158L14.3161 109.911C14.3933 109.637 14.7527 109.58 14.891 109.821Z" fill="#13C8A4"/>
<path d="M339.713 20.8713L339.847 21.0884C340.357 21.9376 341.247 22.5606 342.24 22.7627L342.495 22.818C342.774 22.8697 342.836 23.2411 342.587 23.3752L342.363 23.5055C341.487 23.9999 340.844 24.8627 340.635 25.8243L340.578 26.0714C340.525 26.3418 340.141 26.4017 340.003 26.1614L339.869 25.9442C339.359 25.095 338.468 24.472 337.476 24.27L337.221 24.2146C336.942 24.1629 336.88 23.7915 337.128 23.6574L337.352 23.5271C338.229 23.0327 338.872 22.1699 339.08 21.2083L339.138 20.9612C339.215 20.6871 339.574 20.6309 339.713 20.8713Z" fill="#13C8A4"/>
<path d="M370.713 7.35526L370.847 7.57243C371.357 8.42161 372.247 9.04458 373.24 9.24667L373.495 9.30205C373.774 9.35369 373.836 9.72513 373.587 9.85921L373.363 9.98955C372.487 10.4839 371.844 11.3467 371.635 12.3083L371.578 12.5554C371.525 12.8258 371.141 12.8857 371.003 12.6454L370.869 12.4282C370.359 11.579 369.468 10.9561 368.476 10.754L368.221 10.6986C367.942 10.6469 367.88 10.2755 368.128 10.1414L368.352 10.0111C369.229 9.51672 369.872 8.65393 370.08 7.69234L370.138 7.4452C370.215 7.17109 370.574 7.11489 370.713 7.35526Z" fill="#13C8A4"/>
<path d="M384.125 52.0616L384.127 52.3146C384.119 53.2962 384.558 54.2696 385.306 54.9305L385.496 55.1033C385.71 55.2847 385.567 55.6349 385.283 55.6287L385.021 55.631C384.006 55.6267 382.998 56.0542 382.312 56.78L382.133 56.9648C381.945 57.1714 381.583 57.035 381.591 56.7601L381.589 56.5071C381.597 55.5255 381.158 54.5521 380.41 53.8912L380.219 53.7184C380.006 53.537 380.149 53.1868 380.433 53.193L380.695 53.1908C381.71 53.195 382.717 52.7675 383.403 52.0417L383.583 51.8569C383.794 51.6588 384.133 51.7867 384.125 52.0616Z" fill="#13C8A4"/>
<path d="M367.589 104.957L367.646 105.204C367.85 106.166 368.49 107.029 369.364 107.525L369.588 107.656C369.835 107.79 369.772 108.161 369.493 108.213L369.237 108.267C368.244 108.468 367.35 109.089 366.836 109.937L366.701 110.154C366.561 110.394 366.178 110.333 366.126 110.063L366.07 109.816C365.865 108.854 365.226 107.991 364.351 107.495L364.128 107.364C363.88 107.23 363.944 106.859 364.223 106.808L364.478 106.753C365.472 106.552 366.365 105.931 366.879 105.083L367.015 104.866C367.178 104.63 367.537 104.687 367.589 104.957Z" fill="#13C8A4"/>
<path fill-rule="evenodd" clip-rule="evenodd" d="M212.553 151.274H220.536C220.642 151.274 220.746 151.242 220.832 151.183C220.918 151.124 220.982 151.04 221.015 150.944L223.879 142.701C223.881 142.695 223.882 142.69 223.884 142.684L226.399 134.401C226.436 134.28 226.421 134.15 226.359 134.039L226.173 133.701C226.129 133.624 226.065 133.559 225.987 133.514C225.908 133.469 225.818 133.445 225.726 133.445H215.583C215.463 133.445 215.347 133.486 215.256 133.56C215.164 133.634 215.103 133.737 215.084 133.851L213.602 142.687C213.602 142.691 213.602 142.695 213.602 142.699L212.057 150.702C212.043 150.772 212.046 150.844 212.064 150.913C212.083 150.981 212.117 151.045 212.165 151.1C212.212 151.155 212.271 151.198 212.339 151.229C212.406 151.259 212.479 151.274 212.553 151.274ZM192.882 151.274H200.835C200.941 151.274 201.044 151.242 201.13 151.183C201.216 151.124 201.28 151.04 201.314 150.944L204.197 142.701C204.199 142.695 204.201 142.69 204.202 142.684L206.733 134.401C206.77 134.28 206.757 134.15 206.695 134.039L206.504 133.701C206.461 133.624 206.397 133.56 206.319 133.515C206.241 133.47 206.151 133.446 206.06 133.445H195.841C195.721 133.445 195.605 133.486 195.514 133.56C195.422 133.634 195.361 133.737 195.342 133.851L193.85 142.689V142.696L192.388 150.707C192.375 150.776 192.378 150.847 192.397 150.915C192.416 150.983 192.45 151.047 192.497 151.101C192.544 151.155 192.603 151.198 192.67 151.228C192.736 151.258 192.809 151.274 192.882 151.274ZM173.74 151.274H181.726C181.832 151.274 181.935 151.242 182.021 151.183C182.107 151.124 182.171 151.04 182.204 150.944L185.068 142.701C185.07 142.695 185.071 142.69 185.073 142.684L187.589 134.401C187.625 134.28 187.611 134.15 187.548 134.039L187.359 133.701C187.316 133.624 187.252 133.56 187.174 133.515C187.096 133.47 187.007 133.446 186.916 133.445H176.77C176.65 133.446 176.535 133.487 176.444 133.561C176.353 133.635 176.292 133.738 176.273 133.851L174.791 142.687C174.791 142.691 174.791 142.695 174.791 142.699L173.246 150.702C173.232 150.772 173.235 150.844 173.253 150.912C173.272 150.981 173.306 151.044 173.353 151.099C173.4 151.154 173.459 151.198 173.526 151.228C173.593 151.258 173.666 151.274 173.74 151.274Z" fill="#13C8A4"/>
<path d="M171.889 81.8026C170.9 68.5355 179.861 57.0944 191.818 56.3281C203.774 55.5617 214.385 65.5391 215.373 78.8062C215.373 78.8062 215.374 78.8063 215.454 78.9522C216.723 78.836 217.925 78.9449 218.833 79.2121C225.925 80.6868 228.176 87.2252 224.591 91.8016C221.435 95.7695 215.541 98.5647 209.693 96.2316C205.948 100.516 200.882 103.432 195.445 104.281C178.61 106.917 172.878 95.0698 171.889 81.8026Z" fill="white"/>
<path d="M220.714 96.5355C222.625 95.5065 224.296 94.0396 225.514 92.4391C227.373 89.9258 227.87 87.0116 226.871 84.1469C225.712 80.9903 222.788 78.7834 218.862 77.8729C218.034 77.7516 217.206 77.6305 216.231 77.5884C215.636 71.2925 212.809 65.4417 208.392 61.2039C203.667 56.7533 197.672 54.4994 191.62 54.9222C185.421 55.4241 179.835 58.432 175.969 63.5378C172.103 68.6435 170.08 75.0259 170.541 81.772C171.253 91.4075 174.185 98.1464 179.044 102.147C183.128 105.43 188.711 106.583 195.338 105.472C200.775 104.624 205.921 101.854 209.893 97.6359C213.979 98.8383 217.774 98.1186 220.714 96.5355ZM184.375 59.7681C186.727 58.5016 189.173 57.7521 191.938 57.5865C197.389 57.1093 202.703 59.1627 206.814 63.1878C210.924 67.2129 213.59 72.7717 214.105 78.9216L214.144 80.0348L215.347 80.1437C216.469 80.1067 217.671 80.2156 218.499 80.3368C221.517 80.9802 223.746 82.6155 224.506 85.0423C225.252 87.0981 224.876 89.1909 223.511 90.8706C220.863 94.3759 215.49 97.0795 209.949 94.9592L209.188 94.6129L208.612 95.3005C205.162 99.4267 200.39 102.185 195.1 102.954C189.141 103.894 184.239 102.941 180.622 100.163C176.231 96.6672 173.618 90.5122 172.932 81.6188C172.417 75.4688 174.16 69.6158 177.744 65.0394C179.763 62.818 182.023 61.0346 184.375 59.7681Z" fill="black"/>
<path d="M210.146 87.6663C212.435 84.5447 216.738 83.3612 220.384 84.7994C221.372 85.2121 220.902 86.7874 219.914 86.3748C216.95 85.1367 213.529 85.8452 211.601 88.5834C210.958 89.4961 209.65 88.4999 210.146 87.6663Z" fill="black"/>
<path d="M180.469 87.9766C180.714 84.2539 181.414 80.6647 182.714 77.1298C183.13 76.1502 184.719 76.6173 184.304 77.5969C183.07 80.9067 182.371 84.4959 182.046 88.0726C182.004 89.0398 180.428 88.9437 180.469 87.9766Z" fill="black"/>
<path fill-rule="evenodd" clip-rule="evenodd" d="M184.261 94.916C184.088 95.3512 184.303 95.8432 184.743 96.0148L185.037 95.2751C184.743 96.0148 184.743 96.0148 184.743 96.0148L184.744 96.0155L184.747 96.0165L184.755 96.0197L184.784 96.0305C184.808 96.0396 184.842 96.0522 184.885 96.0679C184.971 96.0991 185.094 96.1423 185.247 96.1922C185.551 96.2916 185.975 96.4191 186.46 96.531C187.388 96.7451 188.694 96.942 189.783 96.639C190.686 96.3879 191.567 95.757 192.168 95.2622C192.482 95.0042 192.746 94.7605 192.932 94.5812C193.025 94.4912 193.1 94.4167 193.152 94.3638C193.178 94.3373 193.198 94.3162 193.213 94.3012L193.23 94.2833L193.235 94.278L193.237 94.2753C193.237 94.2753 193.238 94.2751 192.611 93.6981L193.237 94.2753C193.559 93.9328 193.54 93.3965 193.194 93.0778C192.848 92.7593 192.307 92.7785 191.986 93.1206L191.984 93.1228L191.973 93.1339C191.963 93.1443 191.947 93.1607 191.926 93.1821C191.884 93.2251 191.82 93.2885 191.739 93.3665C191.577 93.5231 191.346 93.7357 191.075 93.9589C190.506 94.4268 189.857 94.8585 189.321 95.0079C188.676 95.1871 187.735 95.0857 186.848 94.8809C186.426 94.7834 186.052 94.6712 185.784 94.5834C185.65 94.5397 185.544 94.5024 185.472 94.4765C185.436 94.4636 185.409 94.4535 185.392 94.447L185.374 94.4399L185.37 94.4387C184.931 94.2672 184.434 94.4808 184.261 94.916Z" fill="black"/>
<path fill-rule="evenodd" clip-rule="evenodd" d="M189.072 79.6144L188.961 78.7744C189.072 79.6144 189.072 79.6144 189.072 79.6144L189.074 79.6141L189.085 79.6128L189.131 79.6073C189.172 79.6026 189.233 79.5957 189.311 79.588C189.467 79.5724 189.687 79.5533 189.941 79.5392C190.461 79.5103 191.074 79.5057 191.564 79.5781C192.155 79.6656 192.879 79.9117 193.489 80.1566C193.786 80.2761 194.043 80.3896 194.224 80.4731C194.315 80.5147 194.387 80.5486 194.435 80.5717L194.489 80.5978L194.501 80.6041L194.504 80.6054L194.889 79.8488C195.273 79.0922 195.273 79.0921 195.273 79.0921L195.271 79.0909L195.265 79.0883L195.247 79.0793L195.182 79.0474C195.125 79.0204 195.044 78.9821 194.944 78.9359C194.743 78.8436 194.46 78.7185 194.131 78.5865C193.489 78.3285 192.614 78.0204 191.816 77.9024C191.153 77.8042 190.401 77.8166 189.845 77.8475C189.561 77.8633 189.315 77.8847 189.14 77.9022C189.052 77.911 188.981 77.9188 188.931 77.9246L188.873 77.9315L188.857 77.9335L188.852 77.9341L188.851 77.9343C188.851 77.9343 188.85 77.9345 188.961 78.7744L188.851 77.9343C188.382 77.9952 188.052 78.4208 188.113 78.8846C188.174 79.3484 188.604 79.675 189.072 79.6144ZM194.504 80.6054C194.926 80.8157 195.44 80.6477 195.652 80.2299C195.865 79.812 195.695 79.3026 195.273 79.0921L194.889 79.8488" fill="black"/>
<path fill-rule="evenodd" clip-rule="evenodd" d="M171.801 77.4578L171.689 76.6179C171.801 77.4578 171.801 77.4578 171.801 77.4578L171.803 77.4576L171.813 77.4563L171.859 77.4508C171.9 77.446 171.962 77.4392 172.039 77.4314C172.195 77.4159 172.416 77.3967 172.669 77.3826C173.189 77.3537 173.803 77.3491 174.292 77.4215C174.883 77.5091 175.607 77.7552 176.217 78.0001C176.514 78.1195 176.771 78.2331 176.953 78.3165C177.043 78.3581 177.115 78.392 177.163 78.4152L177.217 78.4413L177.23 78.4475L177.232 78.4488L177.617 77.6922C178.002 76.9356 178.002 76.9355 178.002 76.9355L177.999 76.9343L177.994 76.9317L177.976 76.9228L177.91 76.8909C177.854 76.8638 177.773 76.8256 177.672 76.7793C177.471 76.687 177.188 76.5619 176.86 76.43C176.217 76.172 175.342 75.8638 174.545 75.7458C173.881 75.6476 173.13 75.6601 172.574 75.691C172.289 75.7067 172.044 75.7281 171.868 75.7456C171.78 75.7544 171.709 75.7622 171.66 75.768L171.602 75.7749L171.585 75.777L171.581 75.7776L171.579 75.7778C171.579 75.7778 171.578 75.7779 171.689 76.6179L171.579 75.7778C171.111 75.8387 170.78 76.2642 170.841 76.7281C170.903 77.1919 171.333 77.5185 171.801 77.4578ZM177.232 78.4488C177.654 78.6592 178.168 78.4911 178.381 78.0733C178.593 77.6555 178.423 77.146 178.002 76.9355L177.617 77.6922" fill="black"/>
<path d="M221.234 56.6763C216.139 45.481 195.543 45.9203 190.368 49.3209C171.338 55.7233 166.928 58.9579 167.527 66.276C168.746 72.0826 170.825 79.7538 173.752 74.8999C177.239 69.1168 182.601 60.2239 191.42 58.8419C193.862 62.4417 199.455 69.1063 203.144 72.6579C203.21 72.7213 203.276 72.7845 203.341 72.8476C207.604 76.9523 211.292 80.5036 215.77 80.1444C228.817 83.8593 225.136 65.2509 221.234 56.6763Z" fill="black"/>
<path d="M78.2597 168.431C78.3575 168.178 78.5258 167.994 78.7646 167.881C79.0034 167.767 79.3071 167.684 79.6757 167.632C80.0574 167.578 80.3649 167.568 80.5981 167.602C80.8444 167.633 81.0268 167.687 81.1453 167.764C81.2769 167.838 81.3822 167.963 81.4612 168.138C81.5702 168.335 81.6576 168.662 81.7234 169.119L83.2884 179.973C83.3335 180.286 83.3532 180.516 83.3476 180.663C83.3551 180.808 83.3203 180.986 83.2432 181.196C83.1097 181.575 82.6217 181.823 81.7792 181.942C81.2658 182.015 80.9048 182.026 80.6961 181.976C80.4873 181.925 80.3049 181.825 80.1489 181.674C76.6232 178.182 74.3066 175.902 73.199 174.834L74.1267 181.269C74.1718 181.582 74.1916 181.812 74.1859 181.959C74.1934 182.104 74.1586 182.282 74.0815 182.492C73.948 182.87 73.46 183.119 72.6176 183.238C71.8014 183.354 71.2759 183.248 71.0408 182.922C70.9073 182.742 70.8161 182.575 70.7672 182.422C70.7315 182.268 70.692 182.04 70.6488 181.741L69.0754 170.828C69.004 170.332 69.0115 169.966 69.098 169.727C69.1958 169.474 69.3641 169.29 69.6029 169.177C69.8418 169.063 70.1586 168.978 70.5535 168.923C70.9484 168.867 71.2634 168.862 71.4985 168.909C71.7448 168.94 71.9206 168.995 72.0259 169.073C72.0842 169.105 72.26 169.253 72.5534 169.518C75.8703 172.867 78.0826 175.075 79.1901 176.142L78.237 169.532C78.1656 169.037 78.1732 168.67 78.2597 168.431Z" fill="black"/>
<path d="M94.6168 173.621C94.7315 174.416 94.613 175.038 94.2613 175.487C93.9209 175.921 93.5072 176.173 93.0202 176.241L88.3406 176.903C88.3933 177.268 88.6546 177.544 89.1247 177.73C89.5948 177.917 90.0471 177.979 90.4815 177.918C91.245 177.81 91.8326 177.647 92.2444 177.429L92.4504 177.32C92.7456 177.132 92.9985 177.023 93.2091 176.993C93.6304 176.933 94.0346 177.176 94.422 177.719C94.6439 178.047 94.7727 178.335 94.8084 178.583C94.9757 179.743 93.6574 180.522 90.8537 180.918C89.8796 181.056 88.9873 181.016 88.1768 180.798C87.3777 180.565 86.728 180.205 86.2278 179.717C85.2462 178.778 84.6615 177.657 84.4735 176.353C84.2366 174.71 84.5808 173.324 85.5061 172.196C86.4426 171.052 87.7138 170.367 89.3197 170.14C91.1494 169.881 92.5842 170.33 93.624 171.486C94.1693 172.101 94.5003 172.813 94.6168 173.621ZM90.5324 174.777C91.0326 174.707 91.2526 174.463 91.1925 174.045C91.1492 173.746 90.996 173.521 90.7327 173.372C90.4827 173.221 90.1404 173.176 89.706 173.238C89.2848 173.297 88.8889 173.533 88.5185 173.945C88.1461 174.343 87.9881 174.738 88.0445 175.129L90.5324 174.777Z" fill="black"/>
<path d="M108.455 167.732C109.35 167.978 109.836 168.368 109.913 168.903C109.945 169.125 109.891 169.498 109.752 170.023C109.611 170.535 109.495 170.984 109.402 171.37L107.986 176.918C107.871 177.52 107.601 177.971 107.174 178.271C106.989 178.39 106.746 178.471 106.443 178.514C106.14 178.556 105.828 178.487 105.507 178.307C105.196 178.111 104.978 177.903 104.852 177.681L104.646 177.371C104.503 177.125 103.969 176.163 103.042 174.485C102.955 174.816 102.832 175.359 102.672 176.113C102.523 176.853 102.423 177.319 102.37 177.513C102.329 177.692 102.3 177.816 102.283 177.885C102.277 177.939 102.239 178.05 102.17 178.22C102.1 178.389 102.015 178.541 101.913 178.675C101.642 179.033 101.303 179.241 100.895 179.298C100.487 179.356 100.128 179.294 99.8201 179.111C99.5098 178.916 99.2917 178.707 99.1657 178.485L95.1466 171.71C94.9586 171.338 94.8561 171.093 94.8392 170.975C94.764 170.454 95.0799 169.99 95.787 169.584C96.1838 169.355 96.5138 169.222 96.7771 169.184C97.0403 169.147 97.2594 169.176 97.4343 169.271C97.6204 169.351 97.7549 169.445 97.8376 169.553C97.9185 169.648 97.9871 169.752 98.0435 169.863C98.3425 170.353 98.9865 171.513 99.9755 173.342L100.684 170.009C100.725 169.737 100.837 169.488 101.019 169.263C101.347 168.831 101.708 168.587 102.103 168.531C102.497 168.475 102.848 168.532 103.155 168.701C103.474 168.869 103.702 169.05 103.837 169.244L104.043 169.554C104.964 171.286 105.503 172.274 105.659 172.518L106.396 169.101C106.591 168.222 107.005 167.738 107.637 167.648C107.887 167.613 108.16 167.641 108.455 167.732Z" fill="black"/>
<path d="M112.442 174.572C112.536 174.292 112.708 174.089 112.959 173.96C113.222 173.83 113.636 173.724 114.202 173.644C114.782 173.562 115.214 173.628 115.5 173.84C115.799 174.05 115.987 174.423 116.064 174.958L116.109 175.27C116.154 175.583 116.175 175.82 116.171 175.98C116.179 176.125 116.145 176.31 116.07 176.533C115.913 176.941 115.434 177.202 114.631 177.315C113.841 177.427 113.297 177.378 112.998 177.167C112.71 176.942 112.514 176.464 112.408 175.734C112.335 175.226 112.346 174.838 112.442 174.572ZM114.758 171.909C114.518 172.01 114.187 172.09 113.765 172.15C113.344 172.209 113.004 172.224 112.744 172.194C112.485 172.164 112.29 172.072 112.16 171.918C112.044 171.761 111.963 171.62 111.918 171.493C111.886 171.364 111.85 171.163 111.811 170.89L110.917 164.69C110.877 164.416 110.855 164.213 110.849 164.081C110.855 163.934 110.898 163.768 110.979 163.584C111.06 163.399 111.221 163.257 111.461 163.156C111.7 163.043 112.03 162.956 112.451 162.896C112.873 162.837 113.214 162.828 113.475 162.871C113.735 162.901 113.924 163.001 114.042 163.17C114.172 163.325 114.254 163.473 114.288 163.615C114.333 163.741 114.375 163.941 114.414 164.215L115.308 170.415C115.348 170.689 115.364 170.893 115.356 171.027C115.362 171.159 115.324 171.317 115.243 171.502C115.161 171.673 114.999 171.809 114.758 171.909Z" fill="black"/>
<path d="M294.609 164.641C294.775 164.425 294.988 164.296 295.25 164.253C295.511 164.21 295.826 164.215 296.195 164.267C296.576 164.321 296.874 164.396 297.089 164.493C297.316 164.592 297.476 164.694 297.568 164.801C297.674 164.909 297.739 165.058 297.766 165.248C297.815 165.467 297.806 165.805 297.74 166.262L296.175 177.116C296.13 177.429 296.084 177.655 296.037 177.795C296.003 177.936 295.919 178.097 295.786 178.278C295.551 178.604 295.012 178.707 294.169 178.588C293.656 178.515 293.306 178.426 293.12 178.32C292.934 178.214 292.787 178.067 292.68 177.878C290.283 173.548 288.703 170.717 287.941 169.385L287.013 175.819C286.968 176.132 286.922 176.359 286.875 176.498C286.841 176.64 286.758 176.801 286.624 176.982C286.389 177.308 285.85 177.411 285.008 177.292C284.192 177.176 283.717 176.93 283.583 176.551C283.506 176.341 283.466 176.156 283.462 175.995C283.472 175.837 283.498 175.608 283.541 175.308L285.115 164.395C285.186 163.9 285.297 163.55 285.448 163.345C285.613 163.129 285.827 163 286.088 162.957C286.35 162.914 286.678 162.92 287.073 162.976C287.467 163.032 287.771 163.115 287.984 163.225C288.211 163.324 288.364 163.425 288.443 163.529C288.49 163.576 288.617 163.767 288.824 164.102C291.062 168.237 292.562 170.97 293.323 172.302L294.277 165.692C294.348 165.196 294.459 164.846 294.609 164.641Z" fill="black"/>
<path d="M308.846 174.159C308.731 174.954 308.441 175.519 307.977 175.852C307.528 176.174 307.059 176.301 306.572 176.232L301.893 175.57C301.84 175.935 302.013 176.272 302.412 176.581C302.81 176.891 303.227 177.076 303.661 177.137C304.425 177.245 305.035 177.252 305.492 177.157L305.72 177.109C306.057 177.011 306.331 176.976 306.541 177.006C306.962 177.066 307.282 177.41 307.5 178.04C307.621 178.416 307.663 178.728 307.627 178.976C307.46 180.136 305.974 180.518 303.171 180.121C302.196 179.983 301.351 179.697 300.635 179.263C299.933 178.818 299.411 178.292 299.069 177.685C298.392 176.512 298.148 175.273 298.336 173.969C298.573 172.326 299.295 171.091 300.502 170.265C301.724 169.426 303.139 169.121 304.744 169.348C306.574 169.607 307.825 170.436 308.496 171.835C308.846 172.576 308.962 173.351 308.846 174.159ZM304.598 174.137C305.098 174.208 305.378 174.034 305.438 173.617C305.482 173.317 305.398 173.059 305.187 172.843C304.99 172.629 304.674 172.491 304.24 172.43C303.818 172.37 303.372 172.487 302.9 172.779C302.43 173.058 302.166 173.394 302.11 173.785L304.598 174.137Z" fill="black"/>
<path d="M323.795 172.343C324.585 172.827 324.941 173.337 324.864 173.871C324.832 174.093 324.675 174.437 324.393 174.902C324.113 175.355 323.874 175.753 323.676 176.098L320.748 181.032C320.468 181.578 320.081 181.935 319.586 182.105C319.376 182.168 319.119 182.178 318.816 182.135C318.513 182.093 318.233 181.94 317.976 181.677C317.733 181.403 317.583 181.143 317.524 180.895L317.414 180.54C317.347 180.264 317.105 179.193 316.689 177.324C316.513 177.619 316.241 178.106 315.874 178.786C315.523 179.454 315.294 179.874 315.189 180.046C315.099 180.206 315.036 180.317 315 180.378C314.979 180.428 314.911 180.525 314.797 180.669C314.682 180.812 314.557 180.934 314.422 181.035C314.061 181.303 313.676 181.408 313.268 181.35C312.86 181.293 312.534 181.133 312.289 180.873C312.047 180.599 311.896 180.338 311.838 180.09L309.894 172.472C309.819 172.062 309.79 171.798 309.807 171.681C309.882 171.159 310.317 170.802 311.11 170.608C311.556 170.498 311.91 170.462 312.174 170.499C312.437 170.536 312.639 170.625 312.78 170.765C312.936 170.893 313.039 171.021 313.087 171.147C313.138 171.261 313.175 171.379 313.197 171.502C313.346 172.055 313.637 173.347 314.069 175.377L315.691 172.374C315.807 172.124 315.985 171.916 316.224 171.751C316.66 171.427 317.076 171.293 317.471 171.348C317.866 171.404 318.186 171.556 318.433 171.804C318.692 172.053 318.859 172.29 318.935 172.513L319.045 172.868C319.44 174.787 319.677 175.885 319.758 176.162L321.431 173.086C321.867 172.296 322.401 171.946 323.033 172.036C323.283 172.071 323.537 172.174 323.795 172.343Z" fill="black"/>
<path d="M325.69 180.015C325.859 179.773 326.082 179.625 326.358 179.571C326.648 179.518 327.076 179.532 327.642 179.612C328.221 179.694 328.618 179.877 328.832 180.16C329.059 180.445 329.135 180.855 329.058 181.389L329.012 181.702C328.967 182.015 328.92 182.248 328.871 182.401C328.838 182.542 328.753 182.71 328.618 182.904C328.352 183.252 327.818 183.369 327.015 183.256C326.226 183.144 325.717 182.945 325.489 182.661C325.277 182.364 325.223 181.851 325.329 181.121C325.402 180.613 325.522 180.244 325.69 180.015ZM328.665 178.101C328.406 178.131 328.066 178.116 327.644 178.056C327.223 177.997 326.892 177.917 326.651 177.816C326.411 177.715 326.25 177.573 326.169 177.389C326.101 177.206 326.064 177.048 326.056 176.914C326.062 176.781 326.085 176.578 326.124 176.305L327.018 170.105C327.058 169.831 327.093 169.63 327.125 169.502C327.172 169.362 327.261 169.215 327.39 169.06C327.52 168.906 327.715 168.813 327.974 168.784C328.236 168.741 328.577 168.749 328.998 168.809C329.42 168.868 329.75 168.955 329.988 169.069C330.229 169.169 330.382 169.317 330.448 169.513C330.529 169.697 330.566 169.862 330.558 170.007C330.566 170.141 330.55 170.345 330.51 170.619L329.616 176.819C329.577 177.092 329.534 177.293 329.489 177.419C329.457 177.548 329.376 177.689 329.247 177.844C329.119 177.985 328.925 178.071 328.665 178.101Z" fill="black"/>
<path fill-rule="evenodd" clip-rule="evenodd" d="M97.6099 132.51C98.0224 132.601 98.3329 132.938 98.3854 133.354L100.647 151.239C100.716 151.782 100.327 152.277 99.7794 152.345C99.2314 152.413 98.7315 152.028 98.6629 151.485L96.749 136.352L85.753 153.667C85.5958 153.915 85.3363 154.081 85.0438 154.121C84.7514 154.161 84.456 154.071 84.2368 153.875L59.7903 132.035L61.737 151.519C61.7705 151.855 61.6292 152.185 61.3619 152.394C61.0946 152.603 60.7382 152.663 60.4161 152.553L20.3343 138.877L46.9379 163.252C47.2096 163.501 47.3203 163.878 47.2257 164.232C47.1311 164.587 46.8467 164.86 46.4863 164.944L30.962 168.535L50.699 178.739C51.0393 178.915 51.2479 179.268 51.2358 179.648C51.2237 180.028 50.993 180.368 50.6422 180.522L42.7964 183.973L60.0352 188.812C60.5665 188.962 60.8752 189.509 60.7246 190.035C60.574 190.562 60.0212 190.868 59.4898 190.718L39.591 185.132C39.1859 185.019 38.8961 184.666 38.8662 184.25C38.8364 183.833 39.073 183.443 39.4579 183.274L47.936 179.545L27.647 169.056C27.2763 168.864 27.0652 168.464 27.1176 168.054C27.1701 167.643 27.4751 167.308 27.8823 167.213L44.1968 163.439L15.4869 137.134C15.1398 136.816 15.065 136.301 15.3078 135.899C15.5506 135.497 16.0445 135.318 16.4917 135.471L59.5931 150.177L57.5455 129.682C57.5048 129.275 57.7211 128.885 58.0897 128.7C58.4584 128.516 58.9037 128.575 59.2104 128.849L84.6933 151.615L96.5467 132.95C96.7717 132.595 97.1973 132.419 97.6099 132.51Z" fill="#13C8A4"/>
<path fill-rule="evenodd" clip-rule="evenodd" d="M302.046 132.51C301.633 132.601 301.323 132.938 301.27 133.354L299.009 151.239C298.94 151.782 299.329 152.277 299.877 152.345C300.425 152.413 300.924 152.028 300.993 151.485L302.907 136.352L313.903 153.667C314.06 153.915 314.32 154.081 314.612 154.121C314.905 154.161 315.2 154.071 315.419 153.875L339.866 132.035L337.919 151.519C337.885 151.855 338.027 152.185 338.294 152.394C338.561 152.603 338.918 152.663 339.24 152.553L379.322 138.877L352.718 163.252C352.446 163.501 352.336 163.878 352.43 164.232C352.525 164.587 352.809 164.86 353.17 164.944L368.694 168.535L348.957 178.739C348.617 178.915 348.408 179.268 348.42 179.648C348.432 180.028 348.663 180.368 349.014 180.522L356.86 183.973L339.621 188.812C339.089 188.962 338.781 189.509 338.931 190.035C339.082 190.562 339.635 190.868 340.166 190.718L360.065 185.132C360.47 185.019 360.76 184.666 360.79 184.25C360.82 183.833 360.583 183.443 360.198 183.274L351.72 179.545L372.009 169.056C372.38 168.864 372.591 168.464 372.538 168.054C372.486 167.643 372.181 167.308 371.774 167.213L355.459 163.439L384.169 137.134C384.516 136.816 384.591 136.301 384.348 135.899C384.105 135.497 383.611 135.318 383.164 135.471L340.063 150.177L342.11 129.682C342.151 129.275 341.935 128.885 341.566 128.7C341.197 128.516 340.752 128.575 340.446 128.849L314.963 151.615L303.109 132.95C302.884 132.595 302.459 132.419 302.046 132.51Z" fill="#13C8A4"/>
</svg>
