<svg width="332" height="206" viewBox="0 0 332 206" fill="none" xmlns="http://www.w3.org/2000/svg">
<mask id="mask0" mask-type="alpha" maskUnits="userSpaceOnUse" x="0" y="0" width="332" height="206">
<rect width="332" height="206" rx="4" fill="#F3BA2F"/>
</mask>
<g mask="url(#mask0)">
<path d="M184.81 148.011L183.847 147.3C182.884 146.588 183.131 145.612 183.843 144.649C186.224 140.784 189.087 139.119 193.093 139.51C194.803 135.215 204.851 141.084 211.347 146.002C213.297 147.535 216.089 149.229 219.125 150.985C217.969 157.809 217.301 164.758 216.254 171.558C216.141 172.621 215.918 173.707 215.671 174.684C213.356 172.539 210.98 170.639 208.566 169.092C206.688 167.89 205.251 166.591 203.948 165.377C200.385 163.852 195.365 159.879 195.365 159.879C194.591 161.086 192.797 160.788 188.516 158.613C184.235 156.438 185.282 153.326 185.282 153.326C182.7 151.01 184.81 148.011 184.81 148.011Z" fill="white"/>
<path d="M216.252 176.286L216.513 174.845C216.736 173.759 216.849 172.696 217.097 171.72C217.632 168.374 218.033 164.943 218.482 161.732C218.884 158.301 219.371 154.735 219.992 151.256L220.091 150.658L219.579 150.424C216.567 148.778 213.885 147.06 211.801 145.441C208.888 143.197 198.954 136.266 194.381 137.498C193.611 137.667 193.024 138.142 192.594 138.812C188.637 138.642 185.554 140.355 183.086 144.354C182.657 145.024 181.454 146.902 183.356 148.215L183.758 148.472C183.143 149.875 182.697 152.048 184.585 153.825C184.324 155.266 184.988 157.772 188.269 159.589C191.659 161.383 194.173 162.331 195.544 161.224C196.933 162.303 200.627 164.952 203.566 166.268C204.894 167.591 206.441 168.866 208.185 169.983C210.331 171.357 212.439 173.086 215.155 175.488L216.252 176.286ZM218.294 151.397C217.758 154.743 217.333 158.064 216.908 161.385C216.483 164.706 216.057 168.028 215.522 171.373C215.422 171.971 215.299 172.46 215.199 173.058C212.909 171.023 210.983 169.6 209.106 168.398C207.362 167.281 205.949 166.092 204.621 164.769L204.487 164.683L204.353 164.597C200.925 163.157 196.039 159.271 195.929 159.295L195.234 158.755L194.718 159.56C194.461 159.962 193.519 160.399 188.946 157.942C185.421 156.063 186.197 153.818 186.173 153.708L186.383 153.085L185.956 152.717C183.872 151.099 185.419 148.685 185.505 148.551L185.934 147.88L184.301 146.739C184.032 146.568 183.764 146.396 184.537 145.189C186.857 141.568 189.414 140.085 192.956 140.462L193.554 140.562L193.763 139.939C193.887 139.451 194.303 139.245 194.719 139.038C197.555 138.302 204.786 142.367 210.698 146.721C212.843 148.095 215.391 149.727 218.294 151.397Z" fill="black"/>
<path d="M207.641 143.818C207.52 143.268 207.29 142.742 206.863 142.374L213.244 140.976C213.684 140.88 214.196 141.113 214.316 141.663C214.437 142.214 214.179 142.616 213.629 142.736L207.641 143.818Z" fill="black"/>
<path d="M179.007 148.361L196.828 144.456C197.083 145.092 197.423 145.594 198.07 145.914L179.478 149.987C179.038 150.083 178.526 149.849 178.405 149.299C178.285 148.749 178.567 148.457 179.007 148.361Z" fill="black"/>
<path d="M216.175 149.095C223.503 153.6 235.215 162.332 244.897 163.9C256.972 165.866 271.3 137.595 285.474 135.988L287.232 160.851C287.232 160.851 280.849 187.497 260.324 196.951C239.798 206.405 209.53 173.493 209.396 173.407C210.748 166.424 212.079 154.604 216.175 149.095Z" fill="black"/>
<path d="M256.762 199.115C258.083 198.826 259.379 198.427 260.626 197.808C281.238 188.219 287.926 161.391 287.988 161.147L288.05 160.902L286.209 135.135L285.305 135.218C278.12 136.1 271.05 143.298 264.263 150.204C257.303 157.378 250.687 164.015 244.949 163.082C237.305 161.874 228.406 155.984 221.164 151.345C219.531 150.204 217.946 149.284 216.47 148.339L215.8 147.909L215.346 148.47C211.961 153.016 210.482 161.525 209.216 168.374C208.893 170.059 208.656 171.609 208.395 173.05L208.296 173.648L208.832 173.992C213.922 179.333 237.951 203.236 256.762 199.115ZM286.303 160.824C285.809 162.777 279.078 187.309 259.935 196.23C241.929 204.555 215.634 178.727 210.252 173.104C210.537 171.774 210.798 170.333 211.035 168.783C212.177 162.422 213.447 154.535 216.416 150.195C217.623 150.968 218.964 151.827 220.305 152.686C227.571 157.435 236.715 163.387 244.712 164.633C251.402 165.703 258.276 158.663 265.518 151.197C271.742 144.876 278.138 138.287 284.408 136.913C284.518 136.889 284.518 136.889 284.628 136.865L286.303 160.824Z" fill="black"/>
<path d="M194.066 140.795C195.635 143.219 197.633 144.971 200.242 146.36C200.511 146.531 200.583 146.861 200.411 147.13C198.569 150.3 199.585 153.882 202.755 155.724C203.402 156.043 202.8 156.982 202.154 156.663C199.386 155.079 197.697 152.105 198.366 148.846C198.452 148.712 199.043 147.199 198.933 147.223C198.678 146.587 197.141 145.886 196.581 145.432C195.167 144.243 193.95 142.896 193.014 141.256C192.65 140.645 193.591 140.208 194.066 140.795Z" fill="black"/>
<path d="M193.03 148.17C196.021 148.668 197.208 151.982 195.174 154.272C194.72 154.833 193.953 153.963 194.407 153.402C195.816 151.941 194.956 149.593 192.941 149.343C192.319 149.133 192.322 148.095 193.03 148.17Z" fill="black"/>
<path d="M188.39 151.723C190.745 152.475 196.993 154.68 195.578 158.219C195.258 158.865 194.257 158.508 194.467 157.885C195.415 155.372 189.68 153.4 187.947 152.858C187.301 152.538 187.658 151.538 188.39 151.723Z" fill="black"/>
<path d="M302.397 129.353L304.612 134.066L283.525 137.875L281.891 128.048L302.397 129.353Z" fill="black"/>
<path d="M286.109 135.907C297.443 125.941 322.949 140.359 327.739 153.711C332.529 167.063 341.402 232.742 341.402 232.742L269.069 236.279C269.069 236.279 270.428 164.653 278.101 152.096C285.654 139.434 282.254 139.197 286.109 135.907Z" fill="black"/>
<path d="M272.674 175.231C273.011 175.21 273.446 174.957 273.418 174.507C273.411 174.395 274.455 167.672 276.839 157.14C276.923 156.684 276.67 156.248 276.213 156.164C275.756 156.08 275.321 156.333 275.237 156.79C272.748 167.441 271.816 174.157 271.823 174.269C271.739 174.726 272.105 175.154 272.561 175.238L272.674 175.231Z" fill="white"/>
<path d="M277.815 109.912C281.008 101.474 289.752 96.9738 297.269 99.8858C304.787 102.798 308.409 111.936 305.217 120.374C305.217 120.374 305.217 120.374 305.224 120.486C306.032 120.774 306.734 121.181 307.212 121.602C311.119 124.516 310.623 129.174 307.125 130.974C304.063 132.52 299.665 132.571 296.763 129.482C293.251 131.057 289.324 131.417 285.762 130.4C274.732 127.258 274.622 118.35 277.815 109.912Z" fill="white"/>
<path d="M303.403 132.788C304.864 132.696 306.304 132.267 307.505 131.627C309.359 130.607 310.496 128.956 310.706 126.912C310.902 124.643 309.748 122.458 307.612 120.787C307.141 120.478 306.671 120.17 306.087 119.868C307.526 115.828 307.475 111.43 305.991 107.574C304.38 103.501 301.365 100.418 297.55 98.9655C293.622 97.5201 289.351 97.7889 285.531 99.8349C281.71 101.881 278.649 105.233 277 109.512C274.677 115.639 274.539 120.612 276.36 124.447C277.914 127.622 280.992 129.91 285.355 131.103C288.917 132.12 292.851 131.872 296.482 130.402C298.632 132.298 301.155 132.929 303.403 132.788ZM291.741 99.8954C293.539 99.7822 295.246 100.013 296.982 100.694C300.445 101.943 303.102 104.709 304.46 108.348C305.817 111.986 305.854 116.159 304.409 120.086L304.114 120.782L304.816 121.189C305.512 121.484 306.215 121.891 306.686 122.2C308.344 123.449 309.237 125.086 309.006 126.793C308.873 128.268 308.045 129.449 306.731 130.096C304.111 131.502 300.058 131.644 297.282 128.772L296.917 128.344L296.369 128.604C293.082 130.165 289.38 130.511 285.93 129.487C282.024 128.378 279.304 126.406 277.891 123.674C276.211 120.281 276.377 115.757 278.503 110.094C279.949 106.167 282.687 103.061 286.185 101.261C288.053 100.466 289.942 100.009 291.741 99.8954Z" fill="black"/>
<path d="M288.713 115.231C288.091 115.251 287.57 114.764 287.55 114.143C287.529 113.521 288.016 113 288.638 112.98C289.259 112.959 289.78 113.446 289.801 114.068C289.822 114.689 289.334 115.21 288.713 115.231Z" fill="black"/>
<path d="M279.307 115.686C280.521 113.465 281.974 111.456 283.779 109.649C284.313 109.164 285.149 109.902 284.615 110.387C282.916 112.073 281.463 114.083 280.241 116.191C279.94 116.774 279.005 116.269 279.307 115.686Z" fill="black"/>
<path d="M288.188 102.602C290.83 105.143 303.463 110.442 299.237 116.801C298.212 118.445 296.899 119.092 298.234 120.588C299.78 121.845 301.023 120.074 301.023 120.074C303.306 120.494 305.828 121.125 307.135 122.171C312.767 116.626 312.356 110.107 309.525 108.142C309.525 108.142 292.367 86.5409 285.437 92.9577C279.37 98.7559 288.188 102.602 288.188 102.602Z" fill="black"/>
<path d="M299.486 124.346C301.776 123.073 304.74 123.564 306.554 125.48C307.039 126.014 306.301 126.85 305.816 126.317C304.361 124.716 302.071 124.183 300.112 125.322C299.459 125.701 298.945 124.718 299.486 124.346Z" fill="black"/>
<path d="M295.778 25V27.2222H290.222V42.7778H305.778V37.2222H308V43.8889C308 44.1836 307.883 44.4662 307.675 44.6746C307.466 44.8829 307.184 45 306.889 45H289.111C288.816 45 288.534 44.8829 288.325 44.6746C288.117 44.4662 288 44.1836 288 43.8889V26.1111C288 25.8164 288.117 25.5338 288.325 25.3254C288.534 25.1171 288.816 25 289.111 25H295.778ZM304.207 27.2222H299.111V25H308V33.8889H305.778V28.7933L298 36.5711L296.429 35L304.207 27.2222Z" fill="black"/>
</g>
</svg>
