<svg width="127" height="158" viewBox="0 0 127 158" fill="none" xmlns="http://www.w3.org/2000/svg">
<path fill-rule="evenodd" clip-rule="evenodd" d="M79.9085 61.738C79.8188 61.7641 79.725 61.7126 79.6989 61.6229L75.8335 48.3521C75.8074 48.2624 75.8589 48.1686 75.9486 48.1425C76.0382 48.1164 76.1321 48.1679 76.1582 48.2575L80.0235 61.5284C80.0496 61.618 79.9981 61.7118 79.9085 61.738Z" fill="#13C8A4"/>
<path d="M52.9602 169.37C50.2132 172.236 48.7332 174.937 47.9694 177.409C47.9287 177.618 47.8213 177.835 47.7806 178.044C47.6412 178.537 47.5684 179.021 47.4957 179.505C47.455 179.714 47.4229 179.989 47.3822 180.198C47.1518 182.601 47.5043 184.793 47.8714 186.576C48.7937 191.067 45.1625 193.911 45.1625 193.911L26.1664 166.679C30.3517 162.881 34.3631 159.309 37.4382 155.316C43.0975 159.734 47.9479 164.19 52.9602 169.37Z" fill="#2854C6"/>
<path d="M93.0786 94.5237C93.0786 94.5237 84.7105 92.22 78.0631 92.2018C77.7185 86.4152 77.3583 82.597 77.3583 82.597L56.4688 86.7337C55.8901 100.031 57.4072 119.023 49.9612 136.874C46.6054 144.972 39.9164 151.943 32.9892 159.691C38.0942 165.063 46.0422 171.964 51.2139 177.327C52.2124 175.095 69.7264 162.718 76.012 135.932C78.4037 156.438 80.3892 177.471 80.3892 177.471L104.062 172.837C104.062 172.837 101.71 129.137 93.0786 94.5237Z" fill="white"/>
<path d="M79.9157 178.007L79.8464 177.474C79.8204 177.274 78.0107 158.116 75.8242 138.668C70.415 158.628 58.8851 170.093 53.9047 175.079C52.8257 176.168 51.8627 177.107 51.7059 177.466L51.3924 178.185L50.8477 177.646C48.4169 175.114 45.2586 172.201 42.2511 169.405C38.8495 166.185 35.3059 162.916 32.5564 160.018L32.2377 159.653L32.5278 159.276C33.2414 158.505 33.9463 157.668 34.6599 156.897C40.6994 150.146 46.3821 143.78 49.3837 136.61C55.3783 122.202 55.5144 107.064 55.6894 94.836C55.7172 91.9167 55.7622 89.1308 55.8419 86.6116L55.8567 86.2029L77.6711 81.8783L77.7404 82.4118C77.749 82.4784 78.0833 86.0966 78.3846 91.5498C84.9739 91.6434 92.9913 93.8569 93.0666 93.9149L93.3507 94.0137L93.452 94.2717C101.964 128.493 104.384 172.185 104.444 172.652L104.505 173.119L79.9157 178.007ZM76.1724 132.995L76.4781 135.871C78.6013 154.31 80.4691 173.392 80.786 176.877L103.467 172.44C103.203 167.796 100.582 127.249 92.5964 94.9931C91.0514 94.5835 83.8282 92.7414 77.9983 92.7526L77.5229 92.7465L77.529 92.2711C77.2909 87.8268 76.9913 84.4754 76.9021 83.2665L56.9374 87.2153C56.849 89.6678 56.8447 92.2449 56.7996 95.0309C56.6332 107.325 56.5145 122.597 50.4705 137.147C47.4196 144.459 41.6788 150.9 35.5813 157.727C34.9924 158.414 34.4035 159.1 33.7393 159.729C36.4048 162.502 39.7977 165.655 43.04 168.692C45.8969 171.372 48.8291 174.111 51.2426 176.51C51.6574 176.049 52.313 175.353 53.276 174.415C58.4391 169.269 70.6246 157.109 75.6519 135.775L76.1724 132.995Z" fill="#2854C6"/>
<path d="M77.1215 132.465C77.0548 132.474 76.9881 132.483 76.9128 132.425C76.6374 132.393 76.4608 132.077 76.5595 131.793C79.6919 118.842 79.6479 104.405 79.6306 104.271L79.6453 103.863L80.0454 103.811C80.1121 103.802 83.7536 103.126 86.1342 102.138C86.3923 102.037 86.6763 102.136 86.7776 102.394C86.8789 102.652 86.7802 102.936 86.5222 103.037C84.5243 103.839 81.6916 104.478 80.6334 104.684C80.6204 107.194 80.4159 120.239 77.5363 132.005C77.5043 132.28 77.3215 132.439 77.1215 132.465Z" fill="#2854C6"/>
<path d="M63.7269 37.1513L63.1239 41.3843L75.9982 41.838L75.5125 33.3986L63.7269 37.1513Z" fill="#2854C6"/>
<path d="M74.1428 40.0937C66.3645 35.5437 37.857 52.3534 51.7714 55.2718C50.4854 63.6433 52.7677 103.149 52.7677 103.149L95.5661 96.9811C95.5661 96.9811 96.0307 52.4304 90.103 45.9449C84.2333 39.3841 76.7772 41.5824 74.1428 40.0937Z" fill="#2854C6"/>
<path d="M76.5773 26.2219C75.0271 21.0628 70.0064 18.0185 65.4073 19.4399C60.8081 20.8613 58.2704 26.1532 59.8205 31.3122C59.8205 31.3122 59.8205 31.3122 59.8116 31.3789C59.3184 31.5166 58.8829 31.7298 58.5808 31.9608C56.1322 33.5335 56.2341 36.3284 58.2424 37.5462C60.0019 38.595 62.6191 38.8086 64.4766 37.0892C66.5027 38.1736 68.8266 38.5515 70.9906 38.0941C77.6915 36.6818 78.1275 31.3809 76.5773 26.2219Z" fill="white"/>
<path d="M60.3839 38.7818C59.5174 38.6662 58.6776 38.3506 57.989 37.9195C56.927 37.2351 56.3184 36.2042 56.2785 34.9778C56.2565 33.6181 57.0342 32.3651 58.3762 31.4588C58.6695 31.2944 58.9628 31.1301 59.3227 30.9746C58.6343 28.5084 58.8479 25.8912 59.8923 23.6563C61.0212 21.2969 62.9454 19.5864 65.2783 18.8802C67.6778 18.1828 70.2106 18.5208 72.401 19.8985C74.5915 21.2762 76.2753 23.4003 77.0793 26.0176C78.2075 29.7636 78.0828 32.7318 76.8384 34.94C75.7806 36.7662 73.852 38.0013 71.2037 38.5297C69.0397 38.9872 66.7069 38.6759 64.6053 37.6492C63.2455 38.6888 61.7169 38.9597 60.3839 38.7818ZM68.6997 19.6759C67.6333 19.5336 66.6068 19.6002 65.5448 19.9333C63.4296 20.5329 61.7321 22.0701 60.7721 24.1807C59.812 26.2912 59.6163 28.7751 60.3136 31.1746L60.4602 31.6012L60.0247 31.8144C59.5981 31.961 59.1627 32.1743 58.8694 32.3386C57.8295 33.0139 57.2296 33.9514 57.2961 34.9779C57.3138 35.8621 57.758 36.5998 58.5134 37.0398C60.0152 37.9864 62.4235 38.2399 64.1966 36.6449L64.4321 36.405L64.7476 36.5828C66.6404 37.6494 68.8309 38.0096 70.9283 37.5432C73.3012 37.0458 75.0031 35.9841 75.9586 34.4156C77.1008 32.4651 77.19 29.7635 76.1595 26.3019C75.4621 23.9024 73.9605 21.9382 71.9522 20.7205C70.8725 20.1694 69.7661 19.8182 68.6997 19.6759Z" fill="#2854C6"/>
<path d="M69.8652 28.9362C70.2344 28.9744 70.5647 28.706 70.6029 28.3368C70.6411 27.9676 70.3728 27.6373 70.0035 27.5991C69.6343 27.5609 69.304 27.8292 69.2658 28.1985C69.2276 28.5677 69.496 28.898 69.8652 28.9362Z" fill="#2854C6"/>
<path d="M75.449 29.5987C74.8182 28.2256 74.0363 26.968 73.0366 25.8171C72.739 25.506 72.2102 25.9103 72.5078 26.2214C73.4497 27.2968 74.2316 28.5544 74.8713 29.8608C75.0268 30.2208 75.6045 29.9587 75.449 29.5987Z" fill="#2854C6"/>
<path d="M70.5178 33.8515C71.7401 33.8355 72.9265 33.6698 74.1055 33.3082C74.4332 33.1901 74.3077 32.6664 73.98 32.7845C72.8758 33.1282 71.6894 33.2939 70.5135 33.3383C70.1963 33.3352 70.2006 33.8484 70.5178 33.8515Z" fill="#2854C6"/>
<path d="M70.7035 21.4356C69.0237 22.8396 61.2785 25.4692 63.5309 29.433C64.0729 30.4551 64.8282 30.8951 63.9705 31.7303C62.9974 32.4145 62.331 31.308 62.331 31.308C60.9535 31.4634 59.5313 32.0211 58.7092 32.5898C55.5859 29.0524 55.9953 24.8999 57.7639 23.847C57.7639 23.847 68.8828 11.6954 72.7437 15.806C76.1158 19.5122 70.7035 21.4356 70.7035 21.4356Z" fill="#2854C6"/>
<path d="M63.069 33.9163C61.7583 33.063 59.972 33.2316 58.8121 34.2979C58.5011 34.5956 58.9054 35.1244 59.2164 34.8267C60.1497 33.9337 61.536 33.7117 62.6557 34.4717C63.0289 34.725 63.3756 34.1607 63.069 33.9163Z" fill="#2854C6"/>
<path d="M37.1213 34.9375L37.4625 34.4276C37.8037 33.9176 37.5153 33.4895 37.0054 33.1483C35.1872 31.6965 33.5177 31.3895 31.6534 32.2718C30.0843 30.4967 26.2546 35.0682 23.9732 38.5655C23.2983 39.6426 22.245 40.9434 21.0846 42.3164C22.8247 45.4079 24.3508 48.6437 26.0336 51.7426C26.2722 52.2355 26.5681 52.7208 26.8565 53.149C27.6013 51.7136 28.4183 50.3853 29.3147 49.2213C30.012 48.3159 30.4803 47.4403 30.8988 46.6293C32.3528 45.2764 34.0862 42.4904 34.0862 42.4904C34.6683 42.9387 35.4822 42.4838 37.1703 40.6931C38.8585 38.9024 37.8141 37.583 37.8141 37.583C38.6585 36.0183 37.1213 34.9375 37.1213 34.9375Z" fill="white"/>
<path d="M26.8538 54.0224L26.4785 53.3727C26.1826 52.8873 25.944 52.3945 25.6556 51.9664C24.8179 50.4455 24.03 48.8599 23.2569 47.3889C22.469 45.8033 21.6164 44.168 20.714 42.5973L20.5624 42.326L20.769 42.1246C21.9368 40.8089 22.9329 39.5155 23.6577 38.3738C24.6738 36.7868 28.2649 31.7225 30.6837 31.5248C31.0844 31.4727 31.4501 31.5999 31.7734 31.8489C33.6526 31.081 35.4366 31.3732 37.3194 32.8747C37.6428 33.1237 38.5482 33.821 37.8583 34.7836L37.7089 34.9776C38.2486 35.5478 38.8403 36.5186 38.2374 37.7027C38.6128 38.3523 38.7265 39.6762 37.4591 41.1213C36.1345 42.5737 35.0864 43.4664 34.233 43.1698C33.7498 43.931 32.4274 45.8488 31.2373 46.9928C30.8263 47.861 30.3007 48.7441 29.6533 49.5848C28.8564 50.6195 28.1391 51.8184 27.2448 53.4478L26.8538 54.0224ZM21.5577 42.3714C22.3954 43.8922 23.1759 45.4206 23.9564 46.9489C24.7369 48.4771 25.5174 50.0054 26.3551 51.5263C26.5067 51.7976 26.6509 52.0117 26.8026 52.283C27.5548 50.9049 28.2372 49.885 28.9345 48.9797C29.5819 48.139 30.0577 47.3206 30.4687 46.4524L30.5185 46.3877L30.5683 46.323C31.9725 45.0348 33.6562 42.3135 33.7134 42.3061L33.955 41.9255L34.343 42.2243C34.537 42.3738 35.067 42.4213 36.8473 40.4441C38.2218 38.927 37.4584 37.9784 37.451 37.9212L37.2421 37.6573L37.3841 37.4061C38.1088 36.2643 36.9448 35.3678 36.8801 35.318L36.5567 35.069L37.147 34.2358C37.2466 34.1064 37.3462 33.9771 36.7642 33.5288C35.0181 32.1841 33.5277 31.9121 31.8849 32.7074L31.6136 32.8591L31.4047 32.5952C31.2605 32.3811 31.0241 32.3536 30.7878 32.3261C29.2922 32.4621 26.5084 35.6755 24.4114 38.7997C23.6145 39.8344 22.6683 41.0631 21.5577 42.3714Z" fill="#2854C6"/>
<path d="M31.4068 33.0605C31.0701 34.501 30.41 35.6926 29.3916 36.8143C29.292 36.9436 29.3143 37.1153 29.4436 37.2149C30.8812 38.4251 31.012 40.3288 29.8019 41.7663C29.5454 42.0325 29.9981 42.3811 30.2545 42.115C31.3153 40.8714 31.6149 39.1446 30.7274 37.6884C30.6627 37.6386 30.1156 37.0113 30.1728 37.0038C30.1855 36.653 30.8054 36.0487 30.9972 35.7327C31.4729 34.9143 31.8268 34.0536 31.994 33.1006C32.0639 32.7423 31.5339 32.6948 31.4068 33.0605Z" fill="#2854C6"/>
<path d="M33.184 36.4383C31.8274 37.1964 31.8289 39.0005 33.207 39.7528C33.5229 39.9446 33.7422 39.3923 33.4263 39.2005C32.4934 38.7396 32.5016 37.4581 33.43 36.9883C33.6939 36.7794 33.5126 36.2792 33.184 36.4383Z" fill="#2854C6"/>
<path d="M36.038 37.3481C35.0323 38.1189 32.4009 40.2649 33.6965 41.7263C33.9626 41.9827 34.3833 41.6371 34.1745 41.3732C33.2817 40.3251 35.7065 38.3805 36.4483 37.8186C36.7048 37.5525 36.3592 37.1318 36.038 37.3481Z" fill="#2854C6"/>
<path d="M35.9276 32.2994C34.7006 32.6158 31.4397 33.5623 32.0609 35.4139C32.2056 35.754 32.728 35.6003 32.6389 35.2758C32.2269 33.9621 35.2189 33.1201 36.1214 32.8929C36.4614 32.7482 36.3078 32.2259 35.9276 32.2994Z" fill="#2854C6"/>
<path d="M30.6289 48.5782C30.6289 48.5782 24.1202 59.0018 29.5047 61.3045C32.7593 62.6996 32.6015 53.8434 38.15 49.2166C43.7111 44.5792 51.8447 44.3888 57.0361 50.9728L54.4749 65.633C54.4749 65.633 37.3096 78.9104 25.5096 76.389C13.8793 73.9038 10.8457 60.3666 15.1107 50.589C17.6259 44.8227 19.3917 41.9564 20.9295 41.763C24.4014 41.3266 30.6289 48.5782 30.6289 48.5782Z" fill="#2854C6"/>
<path d="M91.9872 22.8056L91.4607 22.4906C90.9342 22.1756 91.0118 21.6652 91.3268 21.1387C92.3494 19.0488 93.7272 18.0572 95.7897 18.0574C96.4489 15.7818 101.866 18.276 105.424 20.4616C106.495 21.1466 108.003 21.8719 109.639 22.6166C109.388 26.1554 109.393 29.7329 109.197 33.2539C109.192 33.8015 109.132 34.3667 109.055 34.8771C107.768 33.8982 106.461 33.0469 105.153 32.3781C104.135 31.858 103.338 31.2667 102.612 30.7127C100.72 30.1117 97.9611 28.3347 97.9611 28.3347C97.6267 28.9889 96.6964 28.9258 94.4046 28.0292C92.1128 27.1326 92.4925 25.4932 92.4925 25.4932C91.06 24.44 91.9872 22.8056 91.9872 22.8056Z" fill="white"/>
<path d="M109.432 35.6654L109.493 34.9176C109.553 34.3523 109.558 33.8048 109.635 33.2944C109.742 31.5613 109.776 29.7911 109.846 28.1308C109.88 26.3606 109.951 24.5177 110.095 22.712L110.116 22.4019L109.843 22.3082C108.225 21.6184 106.771 20.8753 105.628 20.1532C104.03 19.1533 98.6184 16.1115 96.3474 16.9673C95.963 17.0916 95.6868 17.3629 95.501 17.7263C93.474 17.836 91.9864 18.863 90.9266 21.0256C90.7409 21.389 90.2207 22.4065 91.2559 22.9816L91.474 23.0931C91.23 23.8392 91.1104 24.9698 92.1618 25.7823C92.1003 26.5301 92.5638 27.7754 94.3274 28.5396C96.146 29.2859 97.4752 29.6446 98.1197 29.0115C98.882 29.4929 100.898 30.6609 102.463 31.1859C103.206 31.7949 104.058 32.3684 105.003 32.8514C106.166 33.4459 107.327 34.2228 108.832 35.3132L109.432 35.6654ZM109.236 22.8686C109.129 24.6016 109.077 26.3169 109.025 28.0322C108.973 29.7475 108.922 31.4627 108.815 33.1958C108.794 33.5059 108.755 33.7611 108.734 34.0712C107.465 33.1472 106.412 32.5172 105.394 31.997C104.449 31.514 103.669 30.9777 102.926 30.3687L102.854 30.3316L102.781 30.2944C100.961 29.7305 98.2749 27.9908 98.22 28.0086L97.8388 27.7679L97.6159 28.2039C97.5044 28.422 97.0457 28.6917 94.5908 27.6658C92.6995 26.8823 92.9839 25.6984 92.9661 25.6435L93.0421 25.3156L92.8063 25.1492C91.6628 24.4272 92.3316 23.119 92.3688 23.0463L92.5545 22.6829L91.6646 22.1821C91.5193 22.1078 91.3739 22.0335 91.7083 21.3794C92.7115 19.4171 93.9423 18.5337 95.7675 18.5501L96.0776 18.5711L96.1535 18.2432C96.1923 17.988 96.3942 17.8621 96.5961 17.7361C98.0061 17.2194 101.897 18.9334 105.129 20.8606C106.291 21.4551 107.672 22.161 109.236 22.8686Z" fill="#2854C6"/>
<path d="M96.3505 18.6647C97.271 19.8228 98.3773 20.6176 99.7776 21.1959C99.9229 21.2702 99.9762 21.435 99.9019 21.5803C99.12 23.2891 99.816 25.0658 101.525 25.8477C101.87 25.9785 101.61 26.4873 101.265 26.3564C99.7739 25.686 98.7646 24.2533 98.944 22.5574C98.9812 22.4847 99.2074 21.6836 99.1525 21.7014C98.991 21.3896 98.1721 21.1085 97.8637 20.905C97.0836 20.3687 96.3956 19.742 95.8368 18.9521C95.6204 18.6581 96.0792 18.3884 96.3505 18.6647Z" fill="#2854C6"/>
<path d="M96.1887 22.4782C97.7392 22.5833 98.5095 24.2147 97.5855 25.4841C97.382 25.7925 96.9476 25.3871 97.1511 25.0786C97.7972 24.263 97.2417 23.1082 96.2016 23.0806C95.8737 23.0047 95.8237 22.4749 96.1887 22.4782Z" fill="#2854C6"/>
<path d="M93.9982 24.521C95.237 24.7876 98.5334 25.602 97.9873 27.4771C97.8564 27.8227 97.3283 27.6902 97.4043 27.3624C97.7629 26.0331 94.7395 25.3125 93.8285 25.1218C93.4829 24.9909 93.6154 24.4628 93.9982 24.521Z" fill="#2854C6"/>
<path d="M91.6752 20.6143C92.8196 20.0703 95.9289 18.7059 96.6394 20.5252C96.7464 20.8789 96.247 21.0959 96.1073 20.7897C95.5811 19.5174 92.7453 20.7897 91.907 21.194C91.5533 21.301 91.3363 20.8016 91.6752 20.6143Z" fill="#2854C6"/>
<path d="M103.691 32.3586C103.691 32.3586 114.033 38.9969 110.151 43.3813C107.805 46.0344 104.122 38.1032 97.1659 36.1523C89.1464 33.9032 82.722 37.6456 80.8454 45.8173L89.4307 57.9736C89.4307 57.9736 110.626 62.6338 120.213 55.3078C129.663 48.0871 126.616 34.5531 118.579 27.539C113.839 23.4025 111.017 21.5668 109.544 22.0498C106.219 23.1402 103.691 32.3586 103.691 32.3586Z" fill="#2854C6"/>
<path d="M93.7515 65.3334C93.5514 65.3079 93.3017 65.1404 93.3357 64.8736C93.3442 64.8069 92.9791 60.7609 91.961 54.3947C91.9283 54.1194 92.0957 53.8696 92.371 53.837C92.6464 53.8043 92.8961 53.9717 92.9288 54.2471C94.0051 60.6885 94.3035 64.726 94.295 64.7927C94.3277 65.068 94.0936 65.3092 93.8183 65.3419L93.7515 65.3334Z" fill="white"/>
<path d="M60.0017 66.7162L58.7078 55.865C58.6739 55.5801 58.655 55.3688 58.6511 55.2311C58.6596 55.0919 58.6969 54.9304 58.7629 54.7466C58.8965 54.3915 59.2915 54.1748 59.948 54.0965C60.6045 54.0182 61.0546 54.0525 61.2983 54.1993C61.5528 54.3323 61.7179 54.5576 61.7935 54.8753C62.1874 54.175 62.886 53.765 63.8894 53.6454C64.9051 53.5243 65.922 53.8867 66.94 54.7327C67.958 55.5787 68.5423 56.6335 68.6929 57.897C68.8436 59.1605 68.5236 60.323 67.7331 61.3846C66.9549 62.4448 66.058 63.0354 65.0422 63.1565C64.0265 63.2777 63.2555 63.0806 62.7292 62.5655L63.1767 66.3188C63.2107 66.6037 63.2234 66.8157 63.2149 66.955C63.2188 67.0927 63.1815 67.2542 63.1031 67.4394C63.0385 67.6356 62.8992 67.7841 62.6851 67.885C62.471 67.9859 62.1719 68.0593 61.7879 68.105C61.4039 68.1508 61.0898 68.1506 60.8456 68.1043C60.6138 68.0566 60.4379 67.9519 60.3182 67.7903C60.2108 67.6272 60.1366 67.479 60.0956 67.3457C60.0669 67.2109 60.0356 67.0011 60.0017 66.7162ZM62.6372 57.526C62.3921 57.8944 62.2933 58.2768 62.3405 58.6732C62.3878 59.0696 62.5738 59.4181 62.8986 59.7185C63.2343 60.0052 63.6251 60.1219 64.071 60.0687C64.5294 60.0141 64.8942 59.8072 65.1654 59.4483C65.4491 59.0878 65.5666 58.7032 65.5178 58.2944C65.4691 57.8856 65.2769 57.5379 64.9412 57.2513C64.604 56.9523 64.1939 56.8316 63.7108 56.8892C63.2401 56.9453 62.8822 57.1576 62.6372 57.526Z" fill="white"/>
<path d="M75.9971 52.296C76.2413 52.3423 76.4488 52.4494 76.6196 52.6175C76.8013 52.7717 76.9158 53.047 76.9631 53.4434C77.0103 53.8398 76.9444 54.2874 76.7651 54.7862C76.5859 55.2849 76.2733 55.5609 75.8274 55.6141C75.6044 55.6407 75.3817 55.617 75.1593 55.543C74.9493 55.4675 74.6771 55.4497 74.3426 55.4896C74.0082 55.5295 73.7063 55.6848 73.4371 55.9556C73.1803 56.225 73.0718 56.5268 73.1116 56.8613L73.5769 60.7633C73.6109 61.0482 73.6243 61.2664 73.6173 61.418C73.6211 61.5557 73.5846 61.7234 73.5076 61.921C73.3602 62.2653 72.8963 62.4839 72.1159 62.577C71.5214 62.6478 71.0815 62.5935 70.7962 62.4139C70.5773 62.2642 70.4341 62.0111 70.3665 61.6549C70.3517 61.531 70.3303 61.3514 70.3022 61.116L69.5246 54.5942C69.4907 54.3093 69.4717 54.0979 69.4679 53.9602C69.4749 53.8086 69.5115 53.6409 69.5775 53.4572C69.7111 53.102 70.1742 52.8772 70.967 52.7827C71.7102 52.6941 72.1917 52.7811 72.4115 53.0439C72.5714 53.2258 72.6639 53.4221 72.689 53.6327C72.7406 53.5386 72.8148 53.4229 72.9115 53.2858C73.0206 53.1471 73.2546 52.9496 73.6135 52.6933C73.9724 52.4369 74.2943 52.2917 74.5792 52.2578C74.8765 52.2223 75.1264 52.2114 75.329 52.2249C75.5302 52.226 75.7529 52.2497 75.9971 52.296Z" fill="white"/>
<path d="M77.5675 56.9707C77.3903 55.4843 77.7643 54.1959 78.6897 53.1056C79.615 52.0154 80.7465 51.3905 82.0844 51.231C83.4222 51.0715 84.6627 51.4135 85.8061 52.2571C86.9479 53.0884 87.6075 54.2472 87.7847 55.7337C87.9073 56.7618 87.7503 57.7102 87.3136 58.5789C86.8755 59.4352 86.2953 60.1011 85.5731 60.5767C84.8618 61.0384 84.0974 61.318 83.2798 61.4154C82.4623 61.5129 81.6459 61.4093 80.8306 61.1044C80.0139 60.7872 79.2926 60.2702 78.6669 59.5533C78.0522 58.8226 77.6857 57.9617 77.5675 56.9707ZM81.6104 57.8455C82.0423 58.0955 82.4626 58.1962 82.8713 58.1475C83.2801 58.0987 83.6704 57.8951 84.0423 57.5367C84.4141 57.1783 84.5639 56.6956 84.4915 56.0886C84.4191 55.4817 84.1732 55.0524 83.7538 54.8009C83.3343 54.5494 82.9016 54.4502 82.4557 54.5034C82.0098 54.5566 81.6132 54.7609 81.2662 55.1164C80.9191 55.4718 80.7817 55.953 80.8541 56.56C80.925 57.1546 81.1771 57.5831 81.6104 57.8455Z" fill="white"/>
<path d="M74.756 15.1224L74.4392 21.5455L56.438 27.9621L52.5535 23.0365C52.5535 23.0365 55.5442 23.8343 56.0859 23.384C56.6286 22.9366 56.417 19.6457 56.417 19.6457C56.417 19.6457 58.9286 20.5622 59.9585 20.1675C60.9893 19.7756 59.9367 17.5495 59.9367 17.5495L61.8243 14.0182L61.8414 13.9877L61.8714 14.0015L65.567 15.5426C65.567 15.5426 66.1598 17.9325 67.2061 17.5841C68.2533 17.2384 69.619 14.9398 69.619 14.9398C69.619 14.9398 71.5368 17.6226 72.2401 17.6259C72.9443 17.6318 74.756 15.1224 74.756 15.1224Z" fill="#F3BA2F"/>
</svg>
