<svg width="156" height="88" viewBox="0 0 156 88" fill="none" xmlns="http://www.w3.org/2000/svg">
<path fill-rule="evenodd" clip-rule="evenodd" d="M79 84C101.091 84 119 66.0914 119 44C119 21.9086 101.091 4 79 4C56.9086 4 39 21.9086 39 44C39 66.0914 56.9086 84 79 84ZM79 88C103.301 88 123 68.3005 123 44C123 19.6995 103.301 0 79 0C54.6995 0 35 19.6995 35 44C35 68.3005 54.6995 88 79 88Z" fill="black"/>
<path fill-rule="evenodd" clip-rule="evenodd" d="M121 44C121 42.8954 121.784 42 122.75 42H154.25C155.216 42 156 42.8954 156 44C156 45.1046 155.216 46 154.25 46H122.75C121.784 46 121 45.1046 121 44Z" fill="black"/>
<path fill-rule="evenodd" clip-rule="evenodd" d="M0 44C0 42.8954 0.805887 42 1.8 42H34.2C35.1941 42 36 42.8954 36 44C36 45.1046 35.1941 46 34.2 46H1.8C0.805887 46 0 45.1046 0 44Z" fill="black"/>
</svg>
