<svg width="259" height="208" fill="none" xmlns="http://www.w3.org/2000/svg"><g clip-path="url(#clip0)"><path d="M47.89 141.199c-.582 3.822-1.22 12.688 1.736 19.912 1.34 3.273 3.382 6.414 4.529 7.843 3.975 4.955 14.061 7.451 18.608 8.08 8.371 13.292 21.825 7.616 24.16 10.451 2.334 2.835 11.95 9.832 21.766 11.136 7.853 1.044 14.883-4.409 17.416-7.266l-12.834-6.533c-.209-1.971-1.053-7.619-2.761-14.441-2.134-8.528-4.248-12.188-8.533-15.988-3.428-3.04-10.52-2.524-13.638-1.886-2.135-8.528-6.943-12.026-11.45-15.001-4.506-2.976-12.101.713-11.826 1.251-4.609-9.191-10.382-10.738-16.074-10.937-5.692-.2-10.517 9.557-11.099 13.379z" fill="#fff"/><path d="M54.184 152.783c-2.857 4.124-35.581-10.51-44.684-29.283-13.016-26.844 6.872-58.279 27.837-71.14 1.15-.705 27.83-23.039 71.298-15.37 43.469 7.67 29.26 45.85 72.896 74.338 34.909 22.79 21.072 40.12 9.79 45.937 1.984 15.028-13.986 20.855-22.219 21.891-1.584 14.16-19.324 16.036-25.62 14.791-6.296-1.245-87.579-43.646-89.298-41.164z" stroke="#fff" stroke-width="1.6"/><path d="M59.843 111.87c-4.813-4.472 16.152-38.838 27.236-55.463 2.011-2.555 6.748-8.357 9.611-11.126 3.579-3.46 9.794-3.563 24.316-4.975 14.522-1.413 63.1 10.278 72.835 10.234 3.772-.017 10.292-.444 17.012-.98 11.578-.925 22.951 4.9 25.614 16.205 2.925 12.413 3.822 26.41 3.755 38.511-.072 12.833-10.449 22.746-23.239 23.787l-15.976 1.301c-5.574-7.239-9.859-11.04-11.288-12.306-1.143-1.014-7.236-4.886-10.139-6.695-28.079.874-58.254-32.343-57.958-32.767-13.692 19.756-30.784 32.413-39.673 37.545-8.888 5.132-16.09 2.318-22.106-3.271z" fill="#fff"/><path d="M209.486 3.563h17.018c-.01.228-.088.447-.223.63-.576 1-1.095 2.04-1.661 3.04-.801 1.435-1.55 2.897-2.363 4.327-.516 1.03-1.098 2.026-1.648 3.038h-9.921c-.172 0-.344.008-.517.019-.144.384-.383.721-.576 1.083-.252.414-.456.855-.705 1.27-.264.556-.628 1.054-.893 1.61-.548.94-1.059 1.895-1.595 2.845-.559.971-1.105 1.957-1.639 2.956-.226.354-.434.72-.623 1.094-1.12 1.97-2.203 3.959-3.323 5.928-.095.212-.22.408-.372.583-1.915-.013-3.831 0-5.746 0a2.907 2.907 0 00-.699.1c0-.537.354-.967.593-1.417.288-.605.673-1.166.962-1.773 2.296-4.157 4.568-8.328 6.856-12.488.519-.904.964-1.826 1.485-2.713.651-1.165 1.257-2.358 1.936-3.51.216-.483.507-.925.744-1.396.844-1.52 1.673-3.049 2.514-4.569.1-.237.233-.459.396-.657z" fill="#13C8A4"/><path d="M229.206 9.683c1.133-2.004 2.228-4.03 3.377-6.026h6.147c.09.005.179.02.265.043-.204.313-.375.645-.556.972-1.482 2.692-2.96 5.386-4.434 8.082-.619 1.097-1.196 2.22-1.823 3.311l-.062.022-.012.137a5272.714 5272.714 0 00-8.642 15.753c-5.643.006-11.286.006-16.93 0 .321-.679.701-1.328 1.059-1.988 1.607-2.99 3.256-5.955 4.84-8.946 3.468-.006 6.935-.006 10.402 0 2.142-3.775 4.237-7.58 6.363-11.36h.006zM224.818 155h10.144a.682.682 0 01-.133.375c-.344.596-.653 1.216-.99 1.812-.477.856-.924 1.727-1.409 2.58-.307.613-.654 1.207-.982 1.81h-5.913c-.103 0-.205.005-.308.011-.086.23-.228.43-.343.646-.15.247-.272.51-.421.756-.157.332-.374.629-.532.96-.326.561-.631 1.13-.95 1.696a64.814 64.814 0 00-.977 1.762 7.501 7.501 0 00-.372.652c-.667 1.175-1.313 2.36-1.98 3.533a1.42 1.42 0 01-.222.348c-1.142-.008-2.283 0-3.425 0-.141.003-.28.022-.416.059 0-.32.211-.576.353-.844.172-.361.401-.695.574-1.057 1.368-2.477 2.722-4.964 4.086-7.443.309-.539.574-1.088.885-1.617.388-.695.749-1.405 1.154-2.092.128-.288.302-.551.443-.832.503-.906.997-1.817 1.498-2.723.06-.142.139-.274.236-.392z" fill="#13C8A4"/><path d="M236.572 158.648c.676-1.195 1.328-2.402 2.013-3.592h3.664a.778.778 0 01.158.026c-.122.186-.224.384-.332.579-.883 1.605-1.764 3.211-2.643 4.817-.369.654-.712 1.323-1.086 1.974l-.037.013-.007.082c-1.723 3.127-3.44 6.257-5.151 9.389-3.363.003-6.727.003-10.091 0 .192-.405.418-.792.631-1.185.958-1.783 1.941-3.55 2.886-5.332 2.066-.004 4.133-.004 6.199 0 1.277-2.25 2.526-4.518 3.793-6.771h.003zM181.007 193h5.966a.392.392 0 01-.078.221c-.202.35-.384.715-.582 1.066-.281.503-.543 1.016-.829 1.517-.18.361-.384.71-.577 1.065h-3.479c-.06 0-.12.003-.181.007-.05.134-.134.252-.202.379-.088.145-.16.3-.247.445-.093.195-.22.37-.313.565-.192.33-.371.664-.559.997-.196.341-.388.687-.575 1.037a4.53 4.53 0 00-.219.384c-.392.69-.772 1.387-1.165 2.078a.822.822 0 01-.13.204c-.671-.004-1.343 0-2.015 0a1.057 1.057 0 00-.244.035c0-.188.124-.339.208-.497.101-.212.235-.409.337-.621.805-1.458 1.601-2.92 2.403-4.378.182-.317.338-.641.521-.951.228-.409.441-.827.679-1.231.076-.17.178-.324.261-.49.296-.532.586-1.069.881-1.602a.947.947 0 01.139-.23z" fill="#13C8A4"/><path d="M187.921 195.146c.397-.703.781-1.413 1.184-2.113h2.155a.487.487 0 01.093.015c-.072.11-.132.226-.195.341-.52.944-1.038 1.888-1.555 2.833-.217.385-.419.779-.639 1.161l-.022.008-.004.048c-1.013 1.84-2.023 3.681-3.03 5.523-1.978.002-3.957.002-5.935 0 .112-.238.246-.465.371-.697.563-1.049 1.142-2.088 1.697-3.137 1.216-.002 2.431-.002 3.647 0 .751-1.323 1.485-2.657 2.231-3.982h.002zM39.2 181h8.95a.602.602 0 01-.117.331c-.303.526-.576 1.073-.874 1.599-.42.755-.815 1.524-1.243 2.276-.27.541-.577 1.065-.866 1.597h-5.217c-.091 0-.181.005-.272.01-.076.203-.202.38-.303.57-.133.217-.24.45-.371.667-.139.293-.33.555-.47.847-.288.495-.557.997-.839 1.497a57.693 57.693 0 00-.861 1.554 6.503 6.503 0 00-.328.576c-.589 1.036-1.159 2.082-1.748 3.117-.05.112-.116.215-.195.307-1.008-.007-2.015 0-3.022 0a1.52 1.52 0 00-.368.052c0-.282.186-.508.312-.745.152-.318.354-.613.506-.932 1.207-2.186 2.402-4.38 3.606-6.568.272-.475.506-.96.78-1.426.343-.613.662-1.24 1.019-1.847.113-.253.266-.486.391-.733.444-.8.88-1.604 1.322-2.403.052-.125.123-.242.208-.346z" fill="#13C8A4"/><path d="M49.571 184.218c.596-1.053 1.172-2.119 1.776-3.168h3.233c.047.002.094.01.14.022-.108.165-.198.339-.293.511-.78 1.416-1.557 2.833-2.332 4.251-.326.577-.629 1.167-.96 1.741l-.032.012-.006.072c-1.52 2.759-3.035 5.521-4.544 8.284-2.968.003-5.936.003-8.904 0 .169-.357.369-.698.557-1.045.845-1.573 1.712-3.132 2.545-4.705 1.824-.003 3.647-.003 5.47 0 1.127-1.986 2.229-3.986 3.347-5.975h.003z" fill="#13C8A4"/><path d="M130.985 111.927c5.889 4.967 19.572 16.029 27.201 20.548 9.535 5.649 30.116 19.561 33.135 24.79M112.367 135.225c11.549 9.135 36.222 28.445 42.531 32.611 7.887 5.207 13.902 10.797 14.204 11.319" stroke="#fff" stroke-width="1.6"/><path d="M76.505 137.107c-2.239 1.757-6.229 7.082-5.487 12.231s1.56 13.972 1.876 17.74M100.606 151.079c-2.239 1.757-6.229 7.082-5.487 12.23.742 5.149 1.56 13.972 1.876 17.74M69.793 92.88c2.072-.035 6.473.585 7.504 3.336 1.288 3.439-5.185 12.754-6.15 14.705" stroke="#2854C6" stroke-width="1.6" stroke-linecap="round"/><path d="M71.88 145.037c1.833-.964 9.106-.233 11.266 1.759 2.7 2.489 1.119 13.722 1.137 15.899M96.077 158.807c1.725-.908 8.569-.219 10.602 1.655 2.541 2.343 1.053 12.914 1.07 14.962M50.94 135.769c1.78-.796 8.566.326 10.476 2.325 2.387 2.499.232 12.954.119 15" stroke="#2854C6" stroke-width="1.6" stroke-linecap="round"/></g><defs><clipPath id="clip0"><path fill="#fff" d="M0 0h259v208H0z"/></clipPath></defs></svg>