<svg width="475" height="248" viewBox="0 0 475 248" fill="none" xmlns="http://www.w3.org/2000/svg">
<path d="M89.0596 77.2422L89.0525 73.4243C107.976 73.4321 125.731 61.1642 141.392 50.2936C154.985 40.8678 166.747 32.7596 176.868 34.2139C186.068 35.5502 192.729 41.8861 196.116 52.4839C198.571 60.2179 198.417 67.4852 198.439 67.8098L194.646 67.7024C194.668 67.6295 194.796 60.7123 192.48 53.5765C189.546 44.3869 184.102 39.1722 176.356 38.0347C167.737 36.7539 156.556 44.5201 143.624 53.4691C127.488 64.5943 109.178 77.2517 89.0596 77.2422Z" fill="#13C8A4"/>
<mask id="mask0" mask-type="alpha" maskUnits="userSpaceOnUse" x="0" y="0" width="475" height="248">
<path d="M0 0H475V248H0V0Z" fill="#C4C4C4"/>
</mask>
<g mask="url(#mask0)">
<path d="M404.432 205.306C404.356 205.154 395.046 189.358 383.37 173.79C364.178 148.249 353.533 142.844 348.001 142.806C347.962 142.806 347.924 142.806 347.886 142.806C337.851 142.806 328.923 153.921 323.2 163.284C320.338 167.966 315.569 171.278 310.189 172.381C304.771 173.485 299.315 172.305 294.812 169.108C289.699 165.492 285.235 163.893 281.458 164.35L281 160.582C285.731 159.973 291.111 161.8 297.025 166.025C300.65 168.613 305.038 169.527 309.426 168.651C313.775 167.776 317.629 165.073 319.956 161.305C328.999 146.498 338.424 139 347.924 139C347.962 139 348.001 139 348.039 139C357.387 139.076 370.283 150 386.461 171.544C398.289 187.302 407.637 203.251 407.752 203.403L404.432 205.306Z" fill="#13C8A4"/>
<path d="M224.069 59.1877C222.827 67.6941 228.932 77.8005 237.847 75.6972C244.728 74.0919 245.278 74.2577 248.159 73.5763C257.32 71.4198 261.467 60.6306 256.79 52.4951L224.069 59.1877Z" fill="#2B2B2B"/>
<path d="M368.756 122.999C290.115 121.232 222.53 173.503 143.89 171.735C137.046 140.156 130.195 108.549 123.351 76.9696C201.991 78.7372 269.02 23.8403 348.217 28.2337C355.061 59.8131 361.905 91.3926 368.756 122.999Z" fill="#EE7D8B"/>
<path fill-rule="evenodd" clip-rule="evenodd" d="M368.756 122.999L348.217 28.2337C307.72 25.9872 270.404 39.2436 233.091 52.4993C197.667 65.0839 162.244 77.6679 124.104 76.9848C123.853 76.9803 123.602 76.9752 123.351 76.9696L143.89 171.735C183.21 172.619 219.766 159.993 256.323 147.367C292.646 134.822 328.969 122.277 368.003 122.984C368.254 122.988 368.505 122.994 368.756 122.999ZM367.844 122.249L347.619 28.9345C308.403 26.8954 272.152 39.4074 235.82 52.3066C234.976 52.6064 234.131 52.9065 233.287 53.2066C197.952 65.7595 162.473 78.364 124.263 77.7195L144.483 171.015C183.431 171.76 219.686 159.247 256.084 146.675L256.143 146.655C292.372 134.142 328.745 121.58 367.844 122.249Z" fill="#222E3A"/>
<path d="M342.88 64.2487C344.502 71.7352 346.131 79.2489 347.753 86.7354C334.016 87.29 325.424 100.639 328.226 113.57C328.25 113.679 328.274 113.788 328.297 113.897C277.077 123.031 230.414 148.051 179.215 157.153C179.192 157.044 179.168 156.935 179.144 156.826C176.206 143.269 162.569 134.795 149.144 135.339C147.522 127.852 145.893 120.338 144.271 112.852C158.008 112.297 166.6 98.9484 163.798 86.0172C214.991 76.8887 261.654 51.8685 312.874 42.734C315.824 56.3459 329.461 64.8199 342.88 64.2487Z" fill="white"/>
<path d="M274.719 90.1381C278.179 106.233 267.734 123.689 252.411 129.318C237.012 134.993 220.735 125.41 217.388 109.832C213.963 93.9001 224.002 76.0195 239.696 70.6515C254.91 65.4444 271.325 74.3424 274.719 90.1381Z" fill="black"/>
<path d="M267.974 125.461C267.783 125.502 267.602 125.456 267.457 125.316C267.24 125.107 267.246 124.735 267.456 124.518C277.153 114.949 281.529 101.26 278.821 88.7642C276.024 75.8602 265.786 66.1936 253.321 64.7054C253.024 64.6557 252.796 64.3917 252.846 64.0958C252.896 63.7999 253.161 63.5715 253.457 63.6213C266.367 65.1841 276.994 75.194 279.891 88.5608C282.676 101.41 278.219 115.516 268.235 125.347C268.159 125.392 268.083 125.437 267.974 125.461Z" fill="black"/>
<path d="M278.855 107.113C278.691 107.148 278.51 107.102 278.377 107.017C277.822 106.567 278.299 105.865 279.147 104.769C279.968 103.679 281.306 102.078 282.577 100.691C284.909 98.1332 285.166 98.1344 285.603 98.4387L285.637 98.46C285.814 98.621 285.922 98.8542 285.866 99.1229C285.677 100.361 279.574 106.872 278.943 107.122C278.937 107.095 278.909 107.101 278.855 107.113Z" fill="black"/>
<path d="M277.135 111.96C276.911 111.98 276.724 111.906 276.6 111.733C276.164 111.172 276.883 110.532 277.531 109.964C278.109 109.468 278.937 108.804 279.916 108.05C281.194 107.089 282.629 106.066 283.805 105.298C285.806 103.98 286.258 103.825 286.621 104.317C286.7 104.414 286.841 104.668 286.693 105.042C286.116 106.336 277.981 111.776 277.135 111.96Z" fill="black"/>
<path d="M275.308 116.319C275.09 116.366 274.926 116.402 274.865 116.386C274.684 116.34 274.518 116.233 274.422 116.055C274.371 115.952 274.279 115.658 274.526 115.348C275.127 114.562 278.919 112.942 281.129 112.064C282.495 111.512 287.051 109.726 287.989 109.836C288.34 109.874 288.481 110.129 288.532 110.232C288.582 110.335 288.681 110.656 288.385 111.005C287.375 112.278 277.655 115.81 275.308 116.319Z" fill="black"/>
<path d="M283.381 119.557C283.19 119.598 282.999 119.64 282.808 119.681C280.7 120.109 277.997 120.553 275.527 120.889C274.445 121.038 273.493 121.13 272.82 121.19C271.863 121.255 271.272 121.297 271.148 120.726C271.119 120.59 271.114 120.306 271.395 120.017C272.734 118.814 285.95 116.121 287.646 116.694C288.015 116.814 288.128 117.074 288.164 117.237C288.278 117.897 287.993 118.557 283.381 119.557ZM275.263 119.805C278.652 119.356 283.55 118.494 285.856 117.795C283.417 118.01 278.508 118.96 275.263 119.805Z" fill="black"/>
<path d="M237.516 136.137C237.461 136.149 237.379 136.167 237.319 136.151C231.153 135.122 225.516 132.182 220.987 127.634C216.598 123.199 213.559 117.615 212.219 111.436C210.78 104.793 211.266 97.6762 213.625 90.8944C215.91 84.2997 219.847 78.3443 224.965 73.6152C225.203 73.3927 225.554 73.4307 225.743 73.6461C225.966 73.8829 225.928 74.2332 225.712 74.4225C215.4 83.9256 210.526 98.3495 213.311 111.199C214.603 117.161 217.525 122.599 221.791 126.862C226.142 131.249 231.586 134.088 237.516 135.083C237.812 135.132 238.02 135.429 237.97 135.725C237.896 135.912 237.734 136.09 237.516 136.137Z" fill="black"/>
<path d="M220.591 127.123C219.636 127.33 212.295 125.358 211.341 124.253C211.073 123.941 211.118 123.618 211.176 123.491C211.176 123.491 211.17 123.464 211.197 123.458C211.424 122.924 211.927 122.872 214.407 123.503C215.892 123.894 217.576 124.413 218.826 124.911C220.507 125.545 221.319 125.996 221.072 126.705C221.041 126.826 220.919 127.052 220.591 127.123Z" fill="black"/>
<path d="M223.964 130.297C222.327 130.652 214.416 130.799 213.131 129.88C212.76 129.619 212.777 129.301 212.781 129.187C212.854 128.601 213.349 128.379 216.223 128.327C217.904 128.304 219.92 128.38 221.494 128.524C223.886 128.747 224.602 129.019 224.552 129.714C224.549 129.829 224.487 130.07 224.177 130.223C224.155 130.256 224.074 130.274 223.964 130.297ZM217.292 129.435C217.697 129.461 218.124 129.454 218.612 129.462C218.179 129.442 217.752 129.449 217.292 129.435Z" fill="black"/>
<path d="M217.608 135.636C214.633 136.281 214.159 136.07 213.966 135.969C213.712 135.853 213.55 135.632 213.518 135.354C213.472 134.879 213.441 134.601 218.736 133.197C221.114 132.567 224.323 131.815 226.214 131.576C226.99 131.465 228.078 131.343 228.188 132.117C228.229 132.308 228.134 132.528 227.988 132.645C227.599 132.958 223.025 134.263 221.405 134.699C219.812 135.13 218.563 135.429 217.608 135.636Z" fill="black"/>
<path d="M218.027 141.788C217.563 141.889 217.382 141.842 217.267 141.839C216.97 141.789 216.787 141.601 216.7 141.335C216.54 140.856 216.453 140.59 222.187 137.779C224.796 136.501 228.357 134.874 230.503 134.096C231.696 133.666 232.639 133.405 232.907 134.116C232.976 134.301 232.941 134.537 232.801 134.681C232.484 135.063 227.551 137.615 225.611 138.548C220.916 140.877 218.928 141.593 218.027 141.788Z" fill="black"/>
<path d="M238.122 114.8C237.986 114.83 237.837 114.805 237.738 114.741C237.605 114.656 237.494 114.537 237.458 114.374L232.85 93.1122C232.803 92.8945 232.892 92.6471 233.093 92.5181C233.294 92.3891 233.551 92.3903 233.729 92.5513C234.893 93.4392 236.056 94.327 237.248 95.209C238.206 95.9417 239.192 96.6686 240.151 97.4014C240.625 96.1586 241.092 94.8887 241.56 93.6188C242.123 92.1287 242.68 90.6114 243.242 89.1213C243.322 88.9615 243.435 88.823 243.626 88.7816C243.79 88.7461 243.998 88.7864 244.137 88.8989C245.219 89.8045 246.328 90.7041 247.438 91.6038C248.342 92.3484 249.246 93.093 250.15 93.8376C251.311 91.0208 252.478 88.2312 253.618 85.4475C253.713 85.2274 253.941 85.0925 254.171 85.0996C254.407 85.134 254.612 85.289 254.665 85.534C256.226 92.6063 257.79 99.8205 259.3 106.79C259.359 107.062 259.194 107.354 258.927 107.441C255.474 108.645 251.945 109.895 248.546 111.087C245.147 112.28 241.645 113.523 238.192 114.728C238.177 114.788 238.149 114.794 238.122 114.8ZM234.26 94.3457L238.414 113.511C241.682 112.375 244.972 111.206 248.158 110.088C251.393 108.931 254.764 107.744 258.087 106.597C256.73 100.335 255.338 93.9105 253.935 87.5733C252.928 90.0434 251.893 92.5193 250.858 94.9953C250.779 95.1551 250.66 95.2663 250.475 95.3349C250.311 95.3704 250.13 95.3242 249.991 95.2118C248.909 94.3062 247.8 93.4065 246.69 92.5068C245.786 91.7622 244.882 91.0176 243.984 90.3002C243.51 91.543 243.042 92.8129 242.596 94.0497C242.034 95.5398 241.477 97.0571 240.914 98.5472C240.862 98.7011 240.721 98.8454 240.558 98.8809C240.394 98.9164 240.218 98.8975 240.052 98.7909C238.889 97.9031 237.725 97.0152 236.561 96.1274C235.801 95.5224 235.02 94.9507 234.26 94.3457Z" fill="white"/>
<path d="M332.214 72.9164C332.187 72.9223 332.187 72.9223 332.159 72.9282C321.598 74.1625 310.857 76.1483 299.281 79.0278C298.981 79.0928 298.688 78.9283 298.596 78.6347C298.531 78.3352 298.697 78.0429 298.991 77.9506C310.621 75.0593 321.417 73.0616 332.033 71.8155C332.339 71.7777 332.616 72.0026 332.654 72.308C332.685 72.5862 332.487 72.8572 332.214 72.9164Z" fill="#EE7D8B"/>
<path d="M326.166 81.78L326.138 81.786C320.637 82.6363 314.871 83.715 308.512 85.093C308.212 85.1581 307.913 84.9663 307.848 84.6668C307.783 84.3673 307.976 84.0691 308.276 84.004C314.662 82.62 320.428 81.5413 325.957 80.6851C326.263 80.6473 326.534 80.845 326.599 81.1445C326.637 81.4499 326.466 81.715 326.166 81.78Z" fill="#EE7D8B"/>
<path d="M182.407 115.589C174.084 117.393 166.115 118.721 158.26 119.654C157.953 119.691 157.676 119.466 157.639 119.161C157.601 118.856 157.827 118.579 158.133 118.541C168.694 117.307 179.435 115.321 191.011 112.441C191.311 112.376 191.604 112.541 191.696 112.834C191.788 113.128 191.596 113.426 191.301 113.518C188.263 114.263 185.327 114.956 182.407 115.589Z" fill="#EE7D8B"/>
<path d="M185.433 123.228C179.047 124.612 173.281 125.69 167.752 126.546C167.446 126.584 167.174 126.387 167.11 126.087C167.072 125.782 167.264 125.483 167.57 125.446C173.072 124.595 178.838 123.517 185.197 122.139C185.497 122.074 185.795 122.265 185.86 122.565C185.925 122.864 185.733 123.163 185.433 123.228Z" fill="#EE7D8B"/>
<path d="M336.872 45.8697L329.787 46.2807L329.313 38.061L336.399 37.6501C338.671 37.5182 340.62 39.2518 340.75 41.5212C340.881 43.7905 339.144 45.7379 336.872 45.8697ZM331.473 44.39L336.769 44.0828C338.057 44.0081 339.035 42.9115 338.961 41.6249C338.887 40.3384 337.79 39.3622 336.501 39.4369L331.206 39.7441L331.473 44.39Z" fill="black"/>
<path d="M337.24 52.3028L330.155 52.7138L329.682 44.4941L336.767 44.0832C339.039 43.9514 340.988 45.6849 341.119 47.9543C341.249 50.2236 339.513 52.171 337.24 52.3028ZM331.841 50.8231L337.137 50.5159C338.426 50.4412 339.404 49.3446 339.33 48.058C339.256 46.7715 338.158 45.7953 336.87 45.87L331.574 46.1772L331.841 50.8231Z" fill="black"/>
<path d="M331.241 39.7433L328.146 39.9228C327.645 39.9519 327.228 39.5816 327.2 39.0813C327.171 38.581 327.542 38.165 328.043 38.136L331.138 37.9564C331.639 37.9274 332.055 38.2976 332.084 38.798C332.113 39.2983 331.742 39.7142 331.241 39.7433Z" fill="black"/>
<path d="M332.153 39.6886C331.652 39.7177 331.236 39.3474 331.207 38.8471L331.066 36.3991C331.037 35.8987 331.408 35.4828 331.909 35.4537C332.41 35.4247 332.826 35.7949 332.855 36.2953L332.996 38.7433C333.025 39.2436 332.654 39.6596 332.153 39.6886Z" fill="black"/>
<path d="M335.893 39.4713C335.392 39.5004 334.976 39.1301 334.947 38.6298L334.806 36.1818C334.778 35.6814 335.149 35.2655 335.649 35.2364C336.15 35.2074 336.567 35.5777 336.595 36.078L336.736 38.526C336.765 39.0263 336.394 39.4423 335.893 39.4713Z" fill="black"/>
<path d="M333.035 54.9849C332.534 55.014 332.117 54.6437 332.089 54.1434L331.949 51.7133C331.92 51.2129 332.291 50.797 332.792 50.7679C333.293 50.7389 333.709 51.1092 333.738 51.6095L333.878 54.0396C333.907 54.5399 333.536 54.9559 333.035 54.9849Z" fill="black"/>
<path d="M336.773 54.768C336.272 54.7971 335.855 54.4268 335.827 53.9265L335.687 51.4963C335.658 50.996 336.029 50.5801 336.53 50.551C337.031 50.522 337.447 50.8922 337.476 51.3926L337.616 53.8227C337.645 54.323 337.274 54.739 336.773 54.768Z" fill="black"/>
<path d="M331.98 52.6088L328.885 52.7883C328.384 52.8174 327.968 52.4471 327.939 51.9468C327.91 51.4465 328.281 51.0305 328.782 51.0015L331.877 50.8219C332.378 50.7928 332.795 51.1631 332.823 51.6635C332.852 52.1638 332.481 52.5797 331.98 52.6088Z" fill="black"/>
<path d="M350.206 107.39L343.121 107.801L342.647 99.5812L349.733 99.1702C352.005 99.0384 353.954 100.772 354.084 103.041C354.215 105.311 352.478 107.258 350.206 107.39ZM344.807 105.91L350.103 105.603C351.391 105.528 352.369 104.432 352.295 103.145C352.221 101.859 351.124 100.882 349.835 100.957L344.539 101.264L344.807 105.91Z" fill="black"/>
<path d="M350.574 113.822L343.489 114.233L343.016 106.014L350.101 105.603C352.373 105.471 354.322 107.205 354.453 109.474C354.583 111.743 352.846 113.691 350.574 113.822ZM345.175 112.343L350.471 112.036C351.759 111.961 352.737 110.864 352.663 109.578C352.589 108.291 351.492 107.315 350.204 107.39L344.908 107.697L345.175 112.343Z" fill="black"/>
<path d="M344.574 101.263L341.479 101.443C340.978 101.472 340.562 101.101 340.533 100.601C340.504 100.101 340.875 99.6848 341.376 99.6557L344.472 99.4762C344.973 99.4471 345.389 99.8174 345.418 100.318C345.446 100.818 345.075 101.234 344.574 101.263Z" fill="black"/>
<path d="M345.487 101.208C344.986 101.237 344.569 100.867 344.541 100.367L344.4 97.9188C344.371 97.4185 344.742 97.0026 345.243 96.9735C345.744 96.9444 346.16 97.3147 346.189 97.815L346.33 100.263C346.359 100.763 345.988 101.179 345.487 101.208Z" fill="black"/>
<path d="M349.227 100.991C348.726 101.02 348.31 100.65 348.281 100.15L348.14 97.7017C348.111 97.2013 348.482 96.7854 348.983 96.7563C349.484 96.7273 349.901 97.0976 349.929 97.5979L350.07 100.046C350.099 100.546 349.728 100.962 349.227 100.991Z" fill="black"/>
<path d="M346.369 116.505C345.868 116.534 345.451 116.164 345.423 115.663L345.283 113.233C345.254 112.733 345.625 112.317 346.126 112.288C346.627 112.259 347.043 112.629 347.072 113.129L347.212 115.56C347.241 116.06 346.87 116.476 346.369 116.505Z" fill="black"/>
<path d="M350.106 116.288C349.605 116.317 349.189 115.947 349.16 115.447L349.02 113.016C348.991 112.516 349.362 112.1 349.863 112.071C350.364 112.042 350.781 112.412 350.809 112.913L350.949 115.343C350.978 115.843 350.607 116.259 350.106 116.288Z" fill="black"/>
<path d="M345.314 114.129L342.219 114.308C341.718 114.337 341.301 113.967 341.272 113.467C341.244 112.966 341.615 112.551 342.116 112.521L345.211 112.342C345.712 112.313 346.128 112.683 346.157 113.183C346.186 113.684 345.815 114.1 345.314 114.129Z" fill="black"/>
<path d="M161.677 156.185L154.592 156.596L154.118 148.377L161.204 147.966C163.476 147.834 165.425 149.568 165.555 151.837C165.686 154.106 163.949 156.054 161.677 156.185ZM156.278 154.706L161.574 154.399C162.862 154.324 163.84 153.227 163.766 151.941C163.692 150.654 162.595 149.678 161.306 149.753L156.01 150.06L156.278 154.706Z" fill="black"/>
<path d="M162.045 162.619L154.96 163.03L154.487 154.81L161.572 154.399C163.844 154.267 165.793 156.001 165.924 158.27C166.054 160.54 164.317 162.487 162.045 162.619ZM156.646 161.139L161.942 160.832C163.231 160.757 164.209 159.661 164.135 158.374C164.061 157.087 162.963 156.111 161.675 156.186L156.379 156.493L156.646 161.139Z" fill="black"/>
<path d="M156.046 150.059L152.95 150.239C152.449 150.268 152.033 149.897 152.004 149.397C151.976 148.897 152.347 148.481 152.848 148.452L155.943 148.272C156.444 148.243 156.86 148.613 156.889 149.114C156.918 149.614 156.547 150.03 156.046 150.059Z" fill="black"/>
<path d="M156.958 150.004C156.457 150.033 156.041 149.663 156.012 149.163L155.871 146.715C155.842 146.214 156.213 145.798 156.714 145.769C157.215 145.74 157.631 146.111 157.66 146.611L157.801 149.059C157.83 149.559 157.459 149.975 156.958 150.004Z" fill="black"/>
<path d="M160.698 149.787C160.197 149.816 159.781 149.446 159.752 148.946L159.611 146.498C159.583 145.997 159.954 145.581 160.455 145.552C160.955 145.523 161.372 145.894 161.401 146.394L161.541 148.842C161.57 149.342 161.199 149.758 160.698 149.787Z" fill="black"/>
<path d="M157.84 165.301C157.339 165.33 156.923 164.96 156.894 164.459L156.754 162.029C156.725 161.529 157.096 161.113 157.597 161.084C158.098 161.055 158.514 161.425 158.543 161.925L158.683 164.356C158.712 164.856 158.341 165.272 157.84 165.301Z" fill="black"/>
<path d="M161.578 165.084C161.077 165.113 160.661 164.743 160.632 164.242L160.492 161.812C160.463 161.312 160.834 160.896 161.335 160.867C161.836 160.838 162.252 161.208 162.281 161.708L162.421 164.138C162.45 164.639 162.079 165.055 161.578 165.084Z" fill="black"/>
<path d="M156.785 162.925L153.69 163.104C153.189 163.133 152.772 162.763 152.744 162.263C152.715 161.762 153.086 161.347 153.587 161.317L156.682 161.138C157.183 161.109 157.599 161.479 157.628 161.979C157.657 162.48 157.286 162.896 156.785 162.925Z" fill="black"/>
<path d="M148.48 95.2978L141.395 95.7088L140.922 87.4891L148.007 87.0782C150.279 86.9463 152.228 88.6799 152.359 90.9493C152.489 93.2186 150.752 95.166 148.48 95.2978ZM143.081 93.8181L148.377 93.5109C149.666 93.4362 150.644 92.3396 150.57 91.053C150.495 89.7665 149.398 88.7903 148.11 88.865L142.814 89.1722L143.081 93.8181Z" fill="black"/>
<path d="M148.849 101.731L141.764 102.142L141.29 93.9222L148.376 93.5113C150.648 93.3795 152.597 95.113 152.727 97.3824C152.858 99.6517 151.121 101.599 148.849 101.731ZM143.45 100.251L148.746 99.944C150.034 99.8693 151.012 98.7727 150.938 97.4861C150.864 96.1996 149.767 95.2234 148.478 95.2981L143.182 95.6053L143.45 100.251Z" fill="black"/>
<path d="M142.849 89.1713L139.754 89.3508C139.253 89.3799 138.837 89.0096 138.808 88.5093C138.779 88.009 139.15 87.593 139.651 87.564L142.746 87.3844C143.247 87.3553 143.664 87.7256 143.692 88.226C143.721 88.7263 143.35 89.1422 142.849 89.1713Z" fill="black"/>
<path d="M143.761 89.1166C143.26 89.1457 142.844 88.7754 142.815 88.275L142.674 85.827C142.646 85.3267 143.017 84.9108 143.518 84.8817C144.019 84.8526 144.435 85.2229 144.464 85.7232L144.605 88.1713C144.633 88.6716 144.262 89.0875 143.761 89.1166Z" fill="black"/>
<path d="M147.502 88.8994C147.001 88.9285 146.585 88.5582 146.556 88.0579L146.415 85.6099C146.386 85.1095 146.757 84.6936 147.258 84.6645C147.759 84.6355 148.175 85.0058 148.204 85.5061L148.345 87.9541C148.374 88.4544 148.003 88.8704 147.502 88.8994Z" fill="black"/>
<path d="M144.643 104.413C144.142 104.442 143.726 104.072 143.697 103.572L143.558 101.141C143.529 100.641 143.9 100.225 144.401 100.196C144.902 100.167 145.318 100.537 145.347 101.038L145.487 103.468C145.515 103.968 145.144 104.384 144.643 104.413Z" fill="black"/>
<path d="M148.381 104.196C147.88 104.225 147.464 103.855 147.435 103.355L147.295 100.924C147.267 100.424 147.638 100.008 148.138 99.9791C148.639 99.9501 149.056 100.32 149.085 100.821L149.224 103.251C149.253 103.751 148.882 104.167 148.381 104.196Z" fill="black"/>
<path d="M143.589 102.037L140.493 102.217C139.992 102.246 139.576 101.875 139.547 101.375C139.518 100.875 139.889 100.459 140.39 100.43L143.486 100.25C143.987 100.221 144.403 100.591 144.432 101.092C144.461 101.592 144.09 102.008 143.589 102.037Z" fill="black"/>
<path d="M404.818 142.965C404.818 142.965 418.662 137.148 430.062 135.635C429.364 125.631 429.132 119 429.132 119L465.894 121.443C469.849 144.128 471.478 177.051 488.23 206.018C495.792 219.164 508.821 229.634 522.432 241.384C514.871 251.738 502.772 265.349 495.094 275.703C492.883 272.097 460.077 254.763 443.325 210.206C443.79 245.921 445.07 282.451 445.07 282.451L403.422 279.775C403.422 279.775 397.721 204.273 404.818 142.965Z" fill="white"/>
<path d="M446 283.381V282.451C446 282.102 444.837 248.83 444.255 214.976C457.983 248.015 480.319 265.117 489.975 272.562C492.069 274.191 493.93 275.587 494.279 276.168L494.977 277.332L495.792 276.285C499.398 271.399 504.168 265.698 508.705 260.231C513.824 253.948 519.175 247.55 523.247 241.966L523.712 241.268L523.131 240.686C521.735 239.523 520.339 238.243 518.942 237.08C507.076 226.842 495.908 217.187 489.161 205.553C475.666 182.17 472.059 156.227 469.035 135.286C468.337 130.284 467.639 125.514 466.941 121.21L466.824 120.512L428.434 117.953V118.883C428.434 119 428.666 125.282 429.364 134.705C418.08 136.334 404.818 141.918 404.701 142.034L404.236 142.267L404.12 142.732C397.139 203.343 402.724 278.844 402.724 279.658V280.473L446 283.381ZM442.394 205.204L442.51 210.206C442.976 242.315 444.023 275.47 444.255 281.52L404.352 278.96C403.771 270.933 399.234 200.783 405.748 143.663C408.308 142.616 420.29 137.846 430.295 136.566L431.109 136.45L430.993 135.635C430.411 127.957 430.179 122.141 430.062 120.047L465.196 122.373C465.894 126.561 466.475 130.982 467.173 135.752C470.198 156.809 473.804 182.984 487.416 206.6C494.279 218.466 505.564 228.238 517.546 238.592C518.71 239.639 519.873 240.686 521.153 241.617C517.197 246.968 512.079 253.134 507.193 259.067C502.888 264.302 498.467 269.654 494.861 274.307C494.047 273.609 492.767 272.562 490.906 271.166C480.901 263.488 457.285 245.34 443.906 209.857L442.394 205.204Z" fill="black"/>
<path d="M440.648 204.506C440.765 204.506 440.881 204.506 440.997 204.39C441.463 204.273 441.695 203.692 441.463 203.226C433.203 181.82 430.062 156.925 430.062 156.692L429.945 155.994H429.247C429.131 155.994 422.733 155.645 418.428 154.482C417.963 154.365 417.498 154.598 417.381 155.063C417.265 155.529 417.498 155.994 417.963 156.11C421.569 157.041 426.572 157.506 428.433 157.623C429.015 161.927 432.272 184.264 439.834 203.808C440.067 204.273 440.299 204.506 440.648 204.506Z" fill="black"/>
<path d="M359.33 40.7058C365.729 46.8716 375.617 58.2724 385.04 61.9951C396.79 66.6486 417.498 41.2875 432.156 42.7998L428.433 68.2773C428.433 68.2773 416.102 93.7546 393.3 98.757C378.326 102.042 359.5 88 361.5 77C356.959 71.0088 347.155 63.7801 347.115 63.7402C350.023 56.8764 353.862 45.2429 359.33 40.7058Z" fill="black"/>
<path d="M442.277 40.2404L444.139 45.2428L422.268 47.8022L421.22 37.5647L442.277 40.2404Z" fill="black"/>
<path d="M425.06 45.9408C437.391 36.4013 458.215 48.6165 464.381 66.9975C469.034 80.9577 475.782 149.363 475.782 149.363L400.978 148.316C400.978 148.316 407.028 74.5592 415.753 62.1114C424.478 49.6635 420.872 49.0819 425.06 45.9408Z" fill="black"/>
<path d="M408.656 85.6111C409.005 85.6111 409.471 85.3784 409.471 84.9131C409.471 84.7968 410.983 77.933 414.124 67.2301C414.24 66.7648 414.008 66.2994 413.542 66.1831C413.077 66.0668 412.612 66.2994 412.495 66.7648C409.238 77.5839 407.842 84.4478 407.842 84.5641C407.726 85.0295 408.075 85.4948 408.54 85.6111H408.656Z" fill="white"/>
<path d="M373.639 53.8517C366.31 39.8915 357.934 38.7282 353.281 38.9608C348.627 39.1935 349.791 45.0103 349.791 45.0103L373.639 53.8517Z" fill="white"/>
<path d="M375.501 55.4804L374.454 53.5027C368.87 42.9162 361.773 37.7975 353.281 38.1465C351.885 38.2628 350.721 38.7282 349.907 39.7752C348.278 41.8692 348.976 45.1266 348.976 45.2429L349.093 45.7083L375.501 55.4804ZM354.095 39.7752C361.075 39.7752 366.892 43.8469 371.778 52.223L350.605 44.3122C350.489 43.3815 350.489 41.7529 351.303 40.7059C351.768 40.1242 352.466 39.7752 353.397 39.7752C353.513 39.7752 353.862 39.7752 354.095 39.7752Z" fill="black"/>
<path d="M343.044 47.8023C343.044 47.8023 340.717 41.8692 347.115 42.6836C353.514 43.4979 366.66 43.1489 379.457 58.9705C380.504 60.2502 381.667 61.6462 382.947 63.1586C375.967 69.3243 369.568 75.9554 363.17 82.7029C361.89 79.9108 360.959 77.4678 360.145 75.8391C353.979 63.6239 338.972 69.906 341.299 56.6438C341.299 56.7601 337.343 48.6166 343.044 47.8023Z" fill="white"/>
<path d="M362.821 84.3316L363.751 83.4009C368.986 77.8168 375.967 70.4876 383.528 63.8565L384.11 63.2749L383.528 62.5769C382.249 61.0645 380.969 59.5522 380.038 58.3888C368.405 43.9633 356.538 42.7999 349.442 42.1019C348.628 41.9856 347.813 41.9856 347.115 41.8692C344.905 41.5202 343.276 41.9855 342.346 43.1489C341.299 44.4286 341.531 46.1736 341.764 47.2206C340.717 47.5696 340.019 48.1513 339.554 49.082C338.158 51.7577 339.786 55.8294 340.252 56.9928C338.972 64.6709 343.509 66.2996 348.162 68.0446C352.001 69.4407 356.422 71.1857 359.098 76.4208C359.68 77.4678 360.261 78.8638 360.959 80.4925C361.308 81.3069 361.774 82.2375 362.123 83.2845L362.821 84.3316ZM381.667 63.0422C374.803 69.208 368.405 75.8391 363.402 81.1905C363.17 80.6088 362.937 80.1435 362.704 79.6782C362.006 78.0495 361.425 76.6534 360.843 75.4901C357.818 69.6733 352.932 67.812 348.86 66.2996C344.091 64.5546 340.95 63.3912 342.113 56.8764V56.6438L341.997 56.4111C341.415 55.2478 340.135 51.6413 341.182 49.8963C341.531 49.1983 342.113 48.8493 343.16 48.733L344.207 48.6166L343.858 47.5696C343.625 46.9879 343.16 45.1266 343.858 44.3122C344.44 43.4979 345.836 43.4979 346.999 43.7306C347.697 43.8469 348.511 43.9632 349.326 43.9632C356.19 44.6612 367.59 45.8246 378.759 59.6685C379.573 60.5992 380.62 61.7626 381.667 63.0422Z" fill="black"/>
<path d="M381.201 61.1809C390.973 73.0471 411.913 95.3834 427.851 84.7969C444.953 73.3961 447.279 61.0646 447.279 61.0646L459.96 61.4136C470.779 84.7969 462.636 122.722 415.52 119.697C378.642 117.254 367.473 93.5221 362.122 81.0742C368.288 74.0941 374.802 67.6957 381.201 61.1809Z" fill="black"/>
<path d="M416.102 86.4255C432.04 86.4255 442.51 75.0247 444.953 65.8342C445.069 65.3688 444.837 64.9035 444.371 64.7872C443.906 64.6709 443.441 64.9035 443.324 65.3689C440.765 75.2574 427.968 87.9379 408.889 83.8661C395.511 80.9578 384.808 63.9728 384.691 63.8565C384.459 63.3911 383.877 63.2748 383.528 63.6238C383.063 63.8565 382.946 64.4382 383.295 64.7872C383.761 65.4852 394.464 82.5864 408.656 85.6112C411.216 86.1928 413.775 86.4255 416.102 86.4255Z" fill="white"/>
<path d="M343.16 56.4111C347.93 56.5275 352.351 57.6908 356.655 59.9012C357.353 60.2502 356.771 61.2972 356.073 60.9482C352.002 58.8541 347.814 57.6908 343.16 57.5745C342.462 57.5745 342.462 56.4111 343.16 56.4111Z" fill="black"/>
<path d="M346.301 48.6166C350.024 48.8492 353.63 49.6636 357.12 51.1759C357.818 51.4086 357.469 52.572 356.771 52.3393C353.397 50.9433 349.907 50.1289 346.301 49.8962C345.603 49.6635 345.486 48.5002 346.301 48.6166Z" fill="black"/>
<path d="M412.728 119.814C432.97 119.814 449.723 105.388 457.401 90.73C457.633 90.2647 457.401 89.7994 457.052 89.5667C456.586 89.334 456.121 89.5667 455.888 89.9157C447.861 105.272 429.364 120.512 407.493 117.72C407.028 117.603 406.562 117.952 406.562 118.418C406.446 118.883 406.795 119.348 407.26 119.348C409.122 119.697 410.983 119.814 412.728 119.814Z" fill="white"/>
<path d="M418.312 18.0206C422.152 9.52809 431.458 5.45637 439.02 8.94643C446.582 12.4365 449.723 22.0923 445.884 30.5848C445.884 30.5848 445.884 30.5847 445.884 30.7011C446.698 31.0501 447.396 31.5155 447.862 31.9808C451.701 35.2382 450.886 40.0079 447.164 41.6366C443.906 43.0326 439.369 42.7999 436.577 39.4262C432.854 40.8222 428.783 40.9386 425.176 39.6589C414.008 35.7035 414.473 26.513 418.312 18.0206Z" fill="white"/>
<path d="M443.325 43.2653C444.837 43.2653 446.349 42.9162 447.629 42.3345C449.607 41.4038 450.886 39.7752 451.235 37.6811C451.585 35.3544 450.538 33.0277 448.443 31.1664C447.978 30.8174 447.513 30.4683 446.931 30.1193C450.538 21.2778 447.28 11.5057 439.369 8.01563C435.414 6.2706 430.993 6.27064 426.921 8.13201C422.85 9.99337 419.476 13.2507 417.498 17.5551C414.706 23.7209 414.241 28.8397 415.87 32.9114C417.266 36.2851 420.29 38.8445 424.711 40.3569C428.317 41.6366 432.389 41.6366 436.228 40.3569C438.322 42.4509 440.882 43.2653 443.325 43.2653ZM433.32 8.59731C435.181 8.59731 436.926 8.94631 438.671 9.76066C445.884 13.018 448.676 22.2086 445.07 30.2357L444.721 30.9337L445.419 31.3991C446.117 31.7481 446.815 32.2134 447.28 32.5624C448.909 33.9584 449.723 35.7035 449.374 37.4485C449.141 38.9609 448.211 40.1242 446.815 40.7059C444.023 41.9856 439.835 41.8692 437.159 38.7282L436.81 38.2628L436.228 38.4955C432.738 39.8915 428.899 40.0078 425.409 38.7282C421.454 37.3321 418.778 35.1218 417.498 32.2134C415.986 28.607 416.451 23.9536 419.011 18.2532C420.756 14.2978 423.78 11.273 427.503 9.64435C429.481 8.94634 431.459 8.59731 433.32 8.59731Z" fill="black"/>
<path d="M429.177 24.2118C428.535 24.1928 428.03 23.6567 428.049 23.0145C428.068 22.3722 428.604 21.867 429.246 21.886C429.888 21.905 430.394 22.4411 430.375 23.0833C430.356 23.7255 429.819 24.2308 429.177 24.2118Z" fill="black"/>
<path d="M419.475 24.07C420.871 21.8596 422.5 19.8819 424.477 18.1369C425.059 17.6715 425.874 18.4859 425.292 18.9512C423.43 20.5799 421.802 22.5576 420.406 24.6517C420.057 25.3497 419.126 24.6517 419.475 24.07Z" fill="black"/>
<path d="M429.48 11.1567C432.039 13.9487 444.72 20.2308 439.95 26.5129C438.787 28.1416 437.39 28.7233 438.67 30.352C440.183 31.748 441.579 30.003 441.579 30.003C443.905 30.5847 446.465 31.399 447.744 32.5624C453.91 27.2109 453.91 20.4635 451.118 18.2532C451.118 18.2532 434.831 -5.13028 427.269 1.03548C420.638 6.61957 429.48 11.1567 429.48 11.1567Z" fill="black"/>
<path d="M439.834 34.3074C442.277 33.144 445.302 33.842 447.047 35.936C447.512 36.5177 446.698 37.3321 446.232 36.7504C444.836 35.0054 442.51 34.3073 440.415 35.3544C439.717 35.7034 439.136 34.6564 439.834 34.3074Z" fill="black"/>
<path d="M427.785 31.6346C425.727 33.3906 422.624 33.4993 420.397 31.9283C419.797 31.4869 420.373 30.4895 420.973 30.9309C422.773 32.2551 425.201 32.3272 426.952 30.7739C427.536 30.2561 428.369 31.1169 427.785 31.6346Z" fill="black"/>
<path d="M66.8465 178.379L38.1652 178.278C27.092 178.24 18.0947 187.205 18.0947 198.279L18.0947 247.544L83.8037 247.544L83.8037 195.294C83.8164 185.965 76.2245 178.392 66.8465 178.379Z" fill="#13C8A4"/>
<path fill-rule="evenodd" clip-rule="evenodd" d="M142.131 174.973C144.796 193.884 133.808 212.08 115.85 218.49C94.8908 225.971 71.7747 214.996 64.2205 193.973L63.8652 192.984L65.8406 192.279L66.1959 193.268C73.3568 213.196 95.2691 223.604 115.139 216.511C132.161 210.435 142.578 193.186 140.052 175.26L139.905 174.217L141.984 173.933L142.131 174.973ZM149.602 173.849C152.821 196.336 139.769 217.999 118.413 225.622C93.5262 234.505 66.0799 221.471 57.1106 196.511L56.7553 195.522L58.7305 194.817L59.0858 195.806C67.6621 219.673 93.9051 232.135 117.701 223.641C138.121 216.352 150.604 195.64 147.525 174.142L147.376 173.1L149.453 172.808L149.602 173.849ZM157.076 172.728C160.847 198.788 145.732 223.916 120.975 232.753C92.1626 243.038 60.3853 227.948 50.0005 199.049L49.6452 198.06L51.6204 197.355L51.9756 198.344C61.9669 226.148 92.5399 240.668 120.263 230.772C144.082 222.27 158.627 198.093 154.999 173.021L154.847 171.98L156.925 171.687L157.076 172.728ZM164.547 171.605C168.872 201.241 151.693 229.834 123.537 239.884C90.7975 251.57 54.6889 234.424 42.8892 201.587L42.5339 200.599L44.5094 199.893L44.8646 200.882C56.2723 232.628 91.1761 249.2 122.825 237.903C150.043 228.188 166.649 200.547 162.471 171.903L162.318 170.863L164.395 170.565L164.547 171.605Z" fill="black"/>
<path fill-rule="evenodd" clip-rule="evenodd" d="M133.238 170.798C132.871 168.4 134.527 166.149 136.918 165.791L164.871 161.604C167.261 161.249 169.518 162.916 169.885 165.31C170.251 167.708 168.595 169.959 166.204 170.317L138.251 174.501C135.861 174.859 133.605 173.193 133.238 170.798Z" fill="#13C8A4"/>
<path d="M55.3573 227.329C62.1019 227.338 67.577 221.901 67.5862 215.185L67.6101 197.674C67.6193 190.958 62.1591 185.506 55.4144 185.497C48.6698 185.488 43.1947 190.925 43.1855 197.641L43.1616 215.152C43.1524 221.868 48.6126 227.32 55.3573 227.329Z" fill="#13C8A4"/>
<path fill-rule="evenodd" clip-rule="evenodd" d="M69.4558 215.188L69.4798 197.677C69.4904 189.921 63.1867 183.638 55.4169 183.627C47.6471 183.617 41.3263 189.882 41.3157 197.639L41.2918 215.15C41.2812 222.906 47.5849 229.188 55.3546 229.199C63.1244 229.209 69.4452 222.944 69.4558 215.188ZM67.5861 215.185C67.5769 221.901 62.1019 227.338 55.3572 227.329C48.6125 227.32 43.1523 221.868 43.1615 215.152L43.1854 197.641C43.1946 190.925 48.6697 185.488 55.4144 185.497C62.159 185.506 67.6192 190.958 67.61 197.674L67.5861 215.185Z" fill="black"/>
<path d="M90.5793 102.146C90.4055 101.512 89.7571 101.138 89.1311 101.309L26.6125 118.452C25.9864 118.624 25.6198 119.277 25.7936 119.91L34.7621 152.618C38.2379 165.294 51.2057 172.788 63.7263 169.354L83.1708 164.023C95.6914 160.59 103.024 147.53 99.5478 134.854L90.5793 102.146Z" fill="#13C8A4"/>
<path d="M66.1374 120.031L98.2303 111.231L104.643 134.619L72.5505 143.419C66.0902 145.191 59.4174 141.391 57.6465 134.933C55.8756 128.474 59.6771 121.803 66.1374 120.031Z" fill="white"/>
<path fill-rule="evenodd" clip-rule="evenodd" d="M66.5371 121.489L97.1725 113.088L102.786 133.561L72.1508 141.962C66.495 143.513 60.6541 140.186 59.104 134.533C57.5539 128.88 60.8813 123.039 66.5371 121.489ZM72.5505 143.419C66.0902 145.191 59.4174 141.391 57.6465 134.933C55.8756 128.474 59.6771 121.803 66.1374 120.031L98.2303 111.231L104.643 134.619L72.5505 143.419Z" fill="black"/>
<path d="M61.9173 83.4712C58.6872 84.3569 56.7864 87.6927 57.6719 90.922L62.4816 108.463C63.3671 111.692 66.7034 113.592 69.9336 112.706C73.1637 111.821 75.0645 108.485 74.179 105.256L69.3693 87.7145C68.4838 84.4853 65.1475 82.5855 61.9173 83.4712Z" fill="#13C8A4"/>
<path d="M33.1236 91.3665C29.8935 92.2522 27.9927 95.588 28.8782 98.8172L33.6879 116.358C34.5734 119.587 37.9097 121.487 41.1399 120.602C44.37 119.716 46.2708 116.38 45.3853 113.151L40.5756 95.6098C39.6901 92.3806 36.3538 90.4808 33.1236 91.3665Z" fill="#13C8A4"/>
<path d="M74.416 83.1854C73.0878 78.3416 68.0833 75.4919 63.238 76.8205L57.3893 78.4242C52.5441 79.7528 49.693 84.7565 51.0212 89.6003C52.3493 94.4442 57.3539 97.2938 62.1991 95.9653L68.0478 94.3615C72.893 93.033 75.7442 88.0293 74.416 83.1854Z" fill="#EE7D8B"/>
<path d="M45.6222 91.0807C44.294 86.2369 39.2895 83.3872 34.4442 84.7158L28.5955 86.3195C23.7503 87.6481 20.8991 92.6518 22.2273 97.4956C23.5555 102.339 28.56 105.189 33.4053 103.861L39.254 102.257C44.0992 100.928 46.9504 95.9245 45.6222 91.0807Z" fill="#EE7D8B"/>
<path d="M77.6387 134.551C79.1039 134.34 80.1208 132.981 79.91 131.517C79.6993 130.052 78.3408 129.035 76.8756 129.246C75.4105 129.457 74.3936 130.816 74.6043 132.28C74.8151 133.745 76.1736 134.761 77.6387 134.551Z" fill="black"/>
<path d="M94.1534 127.667C95.6185 127.456 96.6354 126.097 96.4247 124.633C96.214 123.168 94.8554 122.151 93.3903 122.362C91.9252 122.573 90.9083 123.932 91.119 125.396C91.3297 126.861 92.6883 127.877 94.1534 127.667Z" fill="black"/>
<path d="M95.2642 146.375C93.3545 149.94 89.0954 151.78 85.1394 150.806C84.0639 150.518 84.3225 148.816 85.398 149.104C88.6246 149.967 92.0437 148.746 93.6364 145.63C94.1672 144.591 95.7951 145.336 95.2642 146.375Z" fill="black"/>
<path d="M171.046 55.314L171.199 55.6947C171.771 57.1793 172.992 58.3974 174.48 58.9683L174.862 59.1206C175.281 59.2729 175.281 59.8819 174.862 60.0342L174.48 60.1864C172.992 60.7574 171.771 61.9755 171.199 63.4601L171.046 63.8408C170.893 64.2595 170.283 64.2595 170.13 63.8408L169.978 63.4601C169.405 61.9755 168.184 60.7574 166.696 60.1864L166.315 60.0342C165.895 59.8819 165.895 59.2729 166.315 59.1206L166.696 58.9683C168.184 58.3974 169.405 57.1793 169.978 55.6947L170.13 55.314C170.321 54.8953 170.893 54.8953 171.046 55.314Z" fill="#13C8A4"/>
<path d="M108.046 175.314L108.199 175.695C108.771 177.179 109.992 178.397 111.48 178.968L111.862 179.121C112.281 179.273 112.281 179.882 111.862 180.034L111.48 180.186C109.992 180.757 108.771 181.976 108.199 183.46L108.046 183.841C107.893 184.259 107.283 184.259 107.13 183.841L106.978 183.46C106.405 181.976 105.184 180.757 103.696 180.186L103.315 180.034C102.895 179.882 102.895 179.273 103.315 179.121L103.696 178.968C105.184 178.397 106.405 177.179 106.978 175.695L107.13 175.314C107.321 174.895 107.893 174.895 108.046 175.314Z" fill="#13C8A4"/>
<path d="M209.419 192.452L209.703 192.748C210.789 193.911 212.376 194.584 213.97 194.557L214.381 194.556C214.827 194.54 215.055 195.105 214.722 195.403L214.425 195.687C213.259 196.773 212.582 198.359 212.606 199.95L212.607 200.36C212.622 200.806 212.056 201.034 211.758 200.703L211.474 200.407C210.388 199.244 208.8 198.571 207.206 198.597L206.796 198.599C206.349 198.615 206.122 198.05 206.454 197.752L206.751 197.468C207.918 196.382 208.595 194.795 208.57 193.205L208.569 192.794C208.59 192.335 209.121 192.121 209.419 192.452Z" fill="#13C8A4"/>
<path d="M387.029 135.052L386.981 135.46C386.774 137.037 387.263 138.691 388.297 139.904L388.559 140.22C388.855 140.555 388.564 141.089 388.123 141.022L387.715 140.974C386.135 140.763 384.48 141.249 383.267 142.279L382.951 142.54C382.617 142.835 382.081 142.543 382.147 142.102L382.195 141.695C382.402 140.118 381.913 138.464 380.879 137.251L380.617 136.935C380.321 136.6 380.612 136.065 381.054 136.132L381.462 136.181C383.041 136.391 384.696 135.906 385.909 134.876L386.225 134.614C386.593 134.338 387.096 134.612 387.029 135.052Z" fill="#13C8A4"/>
<path d="M236.373 25.3166L236.284 25.7169C235.918 27.2655 236.238 28.9601 237.144 30.2714L237.373 30.6125C237.634 30.975 237.29 31.4778 236.858 31.3666L236.457 31.2769C234.906 30.9083 233.211 31.2246 231.9 32.127L231.56 32.3551C231.197 32.6146 230.693 32.27 230.804 31.8382L230.893 31.4378C231.258 29.8893 230.938 28.1946 230.032 26.8834L229.803 26.5423C229.542 26.1797 229.886 25.677 230.318 25.7882L230.719 25.8779C232.27 26.2465 233.965 25.9302 235.276 25.0278L235.617 24.7997C236.01 24.5617 236.483 24.8848 236.373 25.3166Z" fill="#13C8A4"/>
<path d="M381.046 24.314L381.199 24.6947C381.771 26.1793 382.992 27.3974 384.48 27.9684L384.862 28.1206C385.281 28.2729 385.281 28.8819 384.862 29.0342L384.48 29.1865C382.992 29.7574 381.771 30.9756 381.199 32.4601L381.046 32.8408C380.893 33.2595 380.283 33.2595 380.13 32.8408L379.978 32.4601C379.405 30.9756 378.184 29.7574 376.696 29.1865L376.315 29.0342C375.895 28.8819 375.895 28.2729 376.315 28.1206L376.696 27.9684C378.184 27.3974 379.405 26.1793 379.978 24.6947L380.13 24.314C380.283 23.8953 380.893 23.8953 381.046 24.314Z" fill="#13C8A4"/>
<path d="M340.925 201.235L340.981 201.642C341.176 203.221 342.065 204.699 343.37 205.614L343.703 205.854C344.073 206.103 343.926 206.694 343.481 206.74L343.074 206.795C341.492 206.988 340.012 207.873 339.097 209.175L338.856 209.507C338.607 209.876 338.014 209.728 337.968 209.285L337.912 208.879C337.717 207.299 336.828 205.821 335.523 204.906L335.19 204.666C334.82 204.417 334.968 203.826 335.412 203.78L335.819 203.725C337.401 203.532 338.881 202.647 339.797 201.345L340.037 201.013C340.324 200.653 340.879 200.792 340.925 201.235Z" fill="#13C8A4"/>
</g>
</svg>
