<svg width="261" height="166" viewBox="0 0 261 166" fill="none" xmlns="http://www.w3.org/2000/svg">
<circle cx="60" cy="99" r="58" stroke="black" stroke-width="4"/>
<mask id="mask0" mask-type="alpha" maskUnits="userSpaceOnUse" x="21" y="128" width="81" height="38">
<rect x="21" y="128" width="81" height="38" fill="#C4C4C4"/>
</mask>
<g mask="url(#mask0)">
<ellipse cx="61.5" cy="152.5" rx="40.5" ry="24.5" fill="white"/>
</g>
<path d="M50.4741 139.521C50.723 139.27 50.9911 139.145 51.2783 139.145C51.575 139.145 51.8048 139.169 51.9676 139.217C52.1303 139.265 52.2548 139.323 52.3409 139.391C52.4271 139.448 52.4941 139.55 52.542 139.694C52.5898 139.858 52.6138 140.114 52.6138 140.461V148.517C52.6138 148.738 52.6042 148.907 52.5851 149.023C52.5755 149.129 52.5324 149.254 52.4558 149.399C52.3218 149.659 51.9484 149.789 51.3357 149.789C50.7422 149.789 50.3736 149.664 50.23 149.413C50.1534 149.269 50.1055 149.139 50.0864 149.023C50.0768 148.898 50.072 148.719 50.072 148.488V143.324L49.8853 143.498C49.4928 143.797 49.1577 143.946 48.8801 143.946C48.6025 143.946 48.3105 143.778 48.0041 143.44C47.7073 143.103 47.559 142.804 47.559 142.543C47.559 142.283 47.7313 141.999 48.0759 141.69L50.431 139.55L50.4741 139.521Z" fill="black"/>
<path d="M54.6418 140.388C54.9195 139.993 55.3072 139.665 55.805 139.405C56.3124 139.135 56.8964 139 57.557 139C58.2175 139 58.7919 139.13 59.2802 139.391C59.778 139.651 60.1657 139.974 60.4434 140.36C60.7306 140.745 60.9603 141.198 61.1327 141.719C61.4199 142.587 61.5635 143.508 61.5635 144.481C61.5635 146.227 61.1901 147.61 60.4434 148.632C60.1657 149.018 59.778 149.336 59.2802 149.587C58.7919 149.838 58.2223 149.963 57.5713 149.963C56.9203 149.963 56.3411 149.838 55.8337 149.587C55.3359 149.327 54.9434 149.008 54.6562 148.632C54.3786 148.256 54.1488 147.808 53.9669 147.287C53.6893 146.458 53.5504 145.518 53.5504 144.467C53.5504 143.503 53.6605 142.678 53.8807 141.994C54.1105 141.309 54.3642 140.774 54.6418 140.388ZM57.5426 147.389C58.5287 147.389 59.0217 146.444 59.0217 144.554V144.467C59.0217 142.529 58.5335 141.56 57.557 141.56C56.5805 141.56 56.0922 142.534 56.0922 144.481C56.0922 146.42 56.5757 147.389 57.5426 147.389Z" fill="black"/>
<path d="M63.3786 140.388C63.6562 139.993 64.0439 139.665 64.5418 139.405C65.0492 139.135 65.6332 139 66.2937 139C66.9543 139 67.5287 139.13 68.017 139.391C68.5148 139.651 68.9025 139.974 69.1801 140.36C69.4673 140.745 69.6971 141.198 69.8694 141.719C70.1566 142.587 70.3002 143.508 70.3002 144.481C70.3002 146.227 69.9269 147.61 69.1801 148.632C68.9025 149.018 68.5148 149.336 68.017 149.587C67.5287 149.838 66.9591 149.963 66.3081 149.963C65.6571 149.963 65.0779 149.838 64.5705 149.587C64.0727 149.327 63.6802 149.008 63.3929 148.632C63.1153 148.256 62.8856 147.808 62.7037 147.287C62.426 146.458 62.2872 145.518 62.2872 144.467C62.2872 143.503 62.3973 142.678 62.6175 141.994C62.8473 141.309 63.101 140.774 63.3786 140.388ZM66.2794 147.389C67.2654 147.389 67.7585 146.444 67.7585 144.554V144.467C67.7585 142.529 67.2702 141.56 66.2937 141.56C65.3172 141.56 64.829 142.534 64.829 144.481C64.829 146.42 65.3124 147.389 66.2794 147.389Z" fill="black"/>
<path d="M31.5418 160.576H35.4478C35.7637 160.576 35.9934 160.615 36.1371 160.692C36.2807 160.76 36.3764 160.87 36.4243 161.025C36.4721 161.179 36.4961 161.386 36.4961 161.647C36.4961 161.897 36.4721 162.1 36.4243 162.254C36.3764 162.408 36.295 162.514 36.1801 162.572C35.9982 162.669 35.7493 162.717 35.4334 162.717H30.2637C29.5936 162.717 29.201 162.534 29.0862 162.167C29.0287 162.013 29 161.767 29 161.43V153.388C29 153.167 29.0048 153.003 29.0144 152.897C29.0335 152.781 29.0814 152.651 29.158 152.506C29.292 152.246 29.6654 152.116 30.2781 152.116C30.9482 152.116 31.3455 152.294 31.47 152.651C31.5178 152.815 31.5418 153.065 31.5418 153.403V160.576Z" fill="black"/>
<path d="M37.2128 158.913C37.2128 157.756 37.6149 156.802 38.4191 156.049C39.2233 155.297 40.1423 154.921 41.1763 154.921C42.2102 154.921 43.1245 155.297 43.9191 156.049C44.7137 156.792 45.111 157.742 45.111 158.899C45.111 159.699 44.9052 160.412 44.4935 161.039C44.0818 161.656 43.5792 162.114 42.9857 162.413C42.4017 162.702 41.7938 162.847 41.1619 162.847C40.5301 162.847 39.9174 162.693 39.3238 162.384C38.7302 162.066 38.2276 161.603 37.816 160.996C37.4139 160.379 37.2128 159.684 37.2128 158.913ZM40.2141 159.954C40.5205 160.186 40.8316 160.302 41.1475 160.302C41.4635 160.302 41.7794 160.181 42.0953 159.94C42.4113 159.699 42.5692 159.342 42.5692 158.87C42.5692 158.397 42.4208 158.045 42.124 157.814C41.8273 157.583 41.5066 157.467 41.1619 157.467C40.8173 157.467 40.4966 157.587 40.1998 157.828C39.903 158.069 39.7546 158.426 39.7546 158.899C39.7546 159.361 39.9078 159.713 40.2141 159.954Z" fill="black"/>
<path d="M50.2463 155.095C51.2037 155.095 51.9983 155.466 52.6302 156.209C53.2716 156.941 53.5923 157.838 53.5923 158.899V161.444C53.5923 161.666 53.5827 161.835 53.5636 161.95C53.554 162.056 53.5157 162.177 53.4487 162.312C53.3147 162.572 52.9413 162.702 52.3286 162.702C51.6489 162.702 51.2564 162.524 51.151 162.167C51.0936 162.003 51.0649 161.758 51.0649 161.43V158.884C51.0649 158.489 50.95 158.18 50.7202 157.959C50.5 157.737 50.1985 157.626 49.8155 157.626C49.4422 157.626 49.1358 157.742 48.8965 157.973C48.6667 158.204 48.5518 158.508 48.5518 158.884V161.444C48.5518 161.666 48.5423 161.835 48.5231 161.95C48.5135 162.056 48.4705 162.177 48.3939 162.312C48.2694 162.572 47.9008 162.702 47.2881 162.702C46.685 162.702 46.3164 162.572 46.1824 162.312C46.1154 162.167 46.0723 162.042 46.0532 161.936C46.0436 161.82 46.0388 161.651 46.0388 161.43V156.31C46.0388 156.098 46.0436 155.939 46.0532 155.833C46.0723 155.717 46.1202 155.591 46.1968 155.456C46.3308 155.215 46.6994 155.095 47.3025 155.095C47.8865 155.095 48.2455 155.206 48.3795 155.428C48.4753 155.591 48.5231 155.789 48.5231 156.021C48.5614 155.953 48.6476 155.857 48.7816 155.731C48.9156 155.606 49.0449 155.505 49.1693 155.428C49.4948 155.206 49.8538 155.095 50.2463 155.095Z" fill="black"/>
<path d="M59.5438 161.762C59.18 162.244 58.6008 162.485 57.8062 162.485C57.0116 162.485 56.2649 162.119 55.566 161.386C54.8767 160.644 54.5321 159.781 54.5321 158.797C54.5321 157.814 54.8815 156.951 55.5804 156.209C56.2793 155.466 57.0452 155.095 57.878 155.095C58.2035 155.095 58.5003 155.158 58.7684 155.283C59.0364 155.399 59.2183 155.51 59.3141 155.616C59.4194 155.712 59.5008 155.804 59.5582 155.89C59.5869 155.62 59.6827 155.418 59.8454 155.283C60.0177 155.138 60.2906 155.066 60.6639 155.066C61.0373 155.066 61.3102 155.095 61.4825 155.153C61.6548 155.211 61.7745 155.312 61.8415 155.456C61.9181 155.591 61.9611 155.712 61.9707 155.818C61.9899 155.924 61.9994 156.088 61.9994 156.31V162.297C61.9994 163.406 61.6165 164.298 60.8506 164.973C60.0847 165.658 59.2231 166 58.2658 166C57.5382 166 56.8441 165.822 56.1835 165.465C55.523 165.108 55.1927 164.785 55.1927 164.496C55.1927 164.12 55.3363 163.787 55.6235 163.498C55.8054 163.295 55.9442 163.156 56.0399 163.078C56.1452 163.001 56.2649 162.963 56.3989 162.963C56.533 162.963 56.6718 163.021 56.8154 163.136C57.2749 163.493 57.7727 163.671 58.3089 163.671C58.6726 163.671 58.9694 163.527 59.1992 163.238C59.429 162.948 59.5438 162.601 59.5438 162.196V161.762ZM56.9877 158.812C56.9877 159.12 57.1074 159.4 57.3467 159.651C57.5956 159.901 57.8924 160.027 58.2371 160.027C58.5913 160.027 58.8833 159.901 59.113 159.651C59.3428 159.39 59.4577 159.111 59.4577 158.812C59.4577 158.503 59.3476 158.219 59.1274 157.959C58.9072 157.689 58.6104 157.554 58.2371 157.554C57.8637 157.554 57.5621 157.684 57.3324 157.944C57.1026 158.204 56.9877 158.494 56.9877 158.812Z" fill="black"/>
<path d="M73.3568 159.94L73.6153 159.752C73.9408 159.559 74.1706 159.463 74.3046 159.463C74.6014 159.463 74.9221 159.733 75.2668 160.273C75.4774 160.61 75.5827 160.88 75.5827 161.083C75.5827 161.285 75.5157 161.454 75.3816 161.589C75.2572 161.724 75.1088 161.844 74.9365 161.95C74.7641 162.056 74.5966 162.158 74.4339 162.254C74.2807 162.351 73.96 162.476 73.4717 162.63C72.9835 162.784 72.5096 162.862 72.0501 162.862C71.6001 162.862 71.1406 162.804 70.6715 162.688C70.2119 162.563 69.7333 162.36 69.2354 162.081C68.7472 161.791 68.3068 161.444 67.9143 161.039C67.5218 160.625 67.1963 160.099 66.9378 159.463C66.6889 158.817 66.5644 158.118 66.5644 157.366C66.5644 156.614 66.6889 155.934 66.9378 155.326C67.1867 154.709 67.5026 154.203 67.8856 153.808C68.2781 153.403 68.7233 153.065 69.2211 152.795C70.1593 152.275 71.1023 152.014 72.0501 152.014C72.5 152.014 72.9548 152.087 73.4143 152.231C73.8834 152.366 74.2376 152.506 74.4769 152.651L74.8216 152.853C74.9939 152.959 75.1279 153.046 75.2237 153.113C75.4726 153.316 75.597 153.547 75.597 153.808C75.597 154.058 75.4965 154.324 75.2955 154.603C74.9221 155.124 74.587 155.384 74.2903 155.384C74.1179 155.384 73.8738 155.278 73.5579 155.066C73.1558 154.738 72.6197 154.574 71.9495 154.574C71.3273 154.574 70.7146 154.791 70.1114 155.225C69.8242 155.437 69.5849 155.736 69.3934 156.122C69.2019 156.507 69.1062 156.946 69.1062 157.438C69.1062 157.92 69.2019 158.354 69.3934 158.74C69.5849 159.125 69.829 159.429 70.1258 159.651C70.7098 160.075 71.3177 160.287 71.9495 160.287C72.2463 160.287 72.5239 160.249 72.7824 160.171C73.0505 160.094 73.242 160.017 73.3568 159.94Z" fill="black"/>
<path d="M81.157 155.905C81.2145 155.365 81.5926 155.095 82.2915 155.095C82.6649 155.095 82.9425 155.124 83.1244 155.182C83.3063 155.24 83.4308 155.341 83.4978 155.485C83.5744 155.63 83.6174 155.76 83.627 155.876C83.6462 155.982 83.6557 156.146 83.6557 156.368V161.43C83.6557 161.651 83.6462 161.82 83.627 161.936C83.6174 162.042 83.5791 162.167 83.5121 162.312C83.3781 162.563 83.0478 162.688 82.5213 162.688C82.0043 162.688 81.6549 162.625 81.473 162.5C81.3006 162.365 81.2001 162.172 81.1714 161.921C80.8172 162.432 80.2236 162.688 79.3907 162.688C78.5674 162.688 77.8015 162.307 77.0931 161.545C76.3847 160.784 76.0304 159.901 76.0304 158.899C76.0304 157.886 76.3847 157.004 77.0931 156.252C77.8111 155.49 78.5961 155.109 79.4482 155.109C79.7737 155.109 80.0705 155.167 80.3385 155.283C80.6066 155.399 80.7933 155.51 80.8986 155.616C81.0039 155.712 81.09 155.808 81.157 155.905ZM78.5435 158.913C78.5435 159.231 78.6679 159.521 78.9168 159.781C79.1658 160.032 79.4673 160.157 79.8215 160.157C80.1758 160.157 80.4678 160.027 80.6975 159.766C80.9369 159.506 81.0565 159.222 81.0565 158.913C81.0565 158.595 80.9416 158.301 80.7119 158.031C80.4917 157.761 80.1901 157.626 79.8072 157.626C79.4338 157.626 79.1275 157.761 78.8881 158.031C78.6584 158.301 78.5435 158.595 78.5435 158.913Z" fill="black"/>
<path d="M87.4426 160.157C87.7585 160.157 87.9931 160.239 88.1462 160.403C88.2994 160.567 88.376 160.904 88.376 161.415C88.376 161.926 88.2946 162.269 88.1319 162.442C87.9691 162.606 87.7346 162.688 87.4282 162.688C86.4613 162.688 85.7816 162.457 85.3891 161.994C84.9965 161.521 84.8003 160.74 84.8003 159.651V152.752C84.8003 152.53 84.8051 152.366 84.8147 152.26C84.8338 152.144 84.8769 152.014 84.9439 151.87C85.0779 151.619 85.4513 151.494 86.064 151.494C86.648 151.494 87.0118 151.629 87.1554 151.899C87.232 152.034 87.275 152.159 87.2846 152.275C87.3038 152.381 87.3133 152.545 87.3133 152.766V159.709C87.3133 160.007 87.3564 160.157 87.4426 160.157ZM91.1906 159.709C91.1906 159.892 91.2289 160.012 91.3055 160.07C91.3821 160.128 91.5783 160.157 91.8943 160.157C92.2102 160.157 92.4735 160.239 92.6841 160.403C92.8947 160.567 93 160.904 93 161.415C93 161.926 92.8851 162.269 92.6554 162.442C92.4352 162.606 92.124 162.688 91.7219 162.688C89.6924 162.688 88.6776 161.676 88.6776 159.651L88.6632 152.752C88.6632 152.53 88.668 152.366 88.6776 152.26C88.6967 152.144 88.7446 152.014 88.8212 151.87C88.9648 151.619 89.3381 151.494 89.9413 151.494C90.5252 151.494 90.889 151.629 91.0326 151.899C91.138 152.111 91.1906 152.4 91.1906 152.766V159.709Z" fill="black"/>
<path d="M30 99.4166H32.5C34.3295 93.3311 36.5088 90.904 42 87.9362L42.5 77.4541C49.7 78.6521 51.8333 83.2775 52 85.4405C71.5 82.4457 82.5 86.4387 88.5 93.4268C88.5 93.4268 92.5 98.2031 91.4452 108.203C91.0138 112.293 84.9726 117.208 84.9726 117.208L91.4452 125.516C92.0519 126.294 91.998 127.399 91.3184 128.115L84.8857 134.893C84.1221 135.698 82.848 135.727 82.0476 134.959L70.5 123.875H54.5L42.4122 135.048C41.6236 135.777 40.399 135.753 39.6391 134.995L33.4142 128.781C32.6332 128.001 32.6332 126.737 33.4142 125.957L38.5 120.88C34.9 118.484 33.3333 114.225 33 112.394H30C28.8954 112.394 28 111.5 28 110.398V101.413C28 100.31 28.8954 99.4166 30 99.4166Z" fill="#EE7D8B"/>
<path fill-rule="evenodd" clip-rule="evenodd" d="M42 87.4375C42.2761 87.4375 42.5 87.661 42.5 87.9366V93.9264C42.5 94.2021 42.2761 94.4255 42 94.4255C41.7239 94.4255 41.5 94.2021 41.5 93.9264V87.9366C41.5 87.661 41.7239 87.4375 42 87.4375Z" fill="black"/>
<path d="M46 99.9159C46 100.743 45.3284 101.413 44.5 101.413C43.6716 101.413 43 100.743 43 99.9159C43 99.0889 43.6716 98.4185 44.5 98.4185C45.3284 98.4185 46 99.0889 46 99.9159Z" fill="black"/>
<path fill-rule="evenodd" clip-rule="evenodd" d="M32.7236 99.4693C32.9706 99.5926 33.0707 99.8924 32.9472 100.139C32.7979 100.437 32.5 101.222 32.5 101.912C32.5 102.188 32.2761 102.411 32 102.411C31.7239 102.411 31.5 102.188 31.5 101.912C31.5 101.005 31.8687 100.06 32.0528 99.6925C32.1763 99.446 32.4766 99.346 32.7236 99.4693Z" fill="black"/>
<path d="M71 87.4373C71 85.5839 70.2625 83.8065 68.9497 82.496C67.637 81.1855 65.8565 80.4492 64 80.4492C62.1435 80.4492 60.363 81.1855 59.0503 82.496C57.7375 83.8065 57 85.5839 57 87.4373L64 87.4373H71Z" fill="white"/>
<path fill-rule="evenodd" clip-rule="evenodd" d="M74.5 87.4376C74.5 87.7133 74.2761 87.9368 74 87.9368H54C53.7239 87.9368 53.5 87.7133 53.5 87.4376C53.5 87.162 53.7239 86.9385 54 86.9385H74C74.2761 86.9385 74.5 87.162 74.5 87.4376Z" fill="black"/>
<path fill-rule="evenodd" clip-rule="evenodd" d="M58.6967 82.1431C60.1032 80.739 62.0109 79.9502 64 79.9502C65.9891 79.9502 67.8968 80.739 69.3033 82.1431C70.7098 83.5473 71.5 85.4517 71.5 87.4374V87.9365L56.5 87.9365V87.4374C56.5 85.4517 57.2902 83.5473 58.6967 82.1431ZM64 80.9485C62.2761 80.9485 60.6228 81.6321 59.4038 82.849C58.3032 83.9477 57.6381 85.3999 57.5192 86.9382L70.4808 86.9382C70.3619 85.3999 69.6968 83.9477 68.5962 82.849C67.3772 81.6321 65.7239 80.9485 64 80.9485Z" fill="black"/>
<path fill-rule="evenodd" clip-rule="evenodd" d="M69.3651 55.3715L68.5066 55.1724L68.6658 54.4894C68.7171 54.2696 68.5841 54.0567 68.3636 54.0056C68.1431 53.9545 67.9296 54.087 67.8784 54.3068L67.7191 54.9898L66.3487 54.6723C66.1283 54.6211 65.9147 54.7537 65.8635 54.9735C65.8123 55.1934 65.9452 55.4063 66.1657 55.4574L66.7248 55.587L65.5901 60.4549L65.031 60.3252C64.8105 60.2741 64.597 60.4066 64.5458 60.6265C64.4945 60.8463 64.6275 61.0592 64.848 61.1103L66.2104 61.4262L66.2182 61.4279L66.0609 62.1029C66.0096 62.3227 66.1426 62.5356 66.3631 62.5867C66.5836 62.6378 66.7971 62.5053 66.8484 62.2854L67.0058 61.6102L67.8641 61.8093L67.7068 62.4844C67.6555 62.7042 67.7885 62.9171 68.009 62.9682C68.2295 63.0194 68.443 62.8868 68.4943 62.667L68.6526 61.9876C69.609 62.1413 70.5352 61.5318 70.7578 60.5769C70.8912 60.0047 70.743 59.4326 70.4035 59.0051C70.8972 58.7709 71.2832 58.3227 71.4166 57.7505C71.6391 56.7958 71.0777 55.8413 70.1516 55.5584L70.3118 54.8711C70.363 54.6513 70.2301 54.4384 70.0096 54.3873C69.7891 54.3361 69.5756 54.4687 69.5243 54.6885L69.3651 55.3715ZM67.9299 55.8663L67.9241 55.8649L67.5407 55.776L67.5281 55.7733L67.5123 55.7696L67.0365 57.8107L69.3674 58.3512L69.3699 58.3517C69.9361 58.4816 70.4975 58.1324 70.6291 57.5679C70.7609 57.0026 70.4103 56.4414 69.8433 56.3099L69.5833 56.2496L69.5758 56.248L69.5684 56.2462L67.9357 55.8676L67.9299 55.8663ZM68.4491 61.1174L68.7087 61.1776C69.2757 61.309 69.8386 60.9596 69.9703 60.3943C70.1021 59.829 69.7515 59.2678 69.1845 59.1363L66.8535 58.5958L66.3777 60.6371L68.4327 61.1136L68.4409 61.1154L68.4491 61.1174Z" fill="black"/>
<path fill-rule="evenodd" clip-rule="evenodd" d="M68 51C63.8579 51 60.5 54.3521 60.5 58.4872C60.5 62.6222 63.8579 65.9744 68 65.9744C72.1421 65.9744 75.5 62.6222 75.5 58.4872C75.5 54.3521 72.1421 51 68 51ZM61.5 58.4872C61.5 54.9035 64.4101 51.9983 68 51.9983C71.5899 51.9983 74.5 54.9035 74.5 58.4872C74.5 62.0709 71.5899 64.9761 68 64.9761C64.4101 64.9761 61.5 62.0709 61.5 58.4872Z" fill="black"/>
<path fill-rule="evenodd" clip-rule="evenodd" d="M52.1708 66.2817L51.4153 66.7347L51.0539 66.1334C50.9375 65.9399 50.6937 65.8792 50.4996 65.9956C50.3056 66.1119 50.2445 66.3554 50.3608 66.5489L50.7222 67.1502L49.5163 67.8735C49.3222 67.9899 49.2612 68.2333 49.3775 68.4269C49.4938 68.6204 49.7377 68.6811 49.9318 68.5647L50.4238 68.2697L52.9997 72.5553L52.5076 72.8503C52.3136 72.9667 52.2525 73.2102 52.3688 73.4037C52.4852 73.5972 52.729 73.6579 52.9231 73.5415L54.1221 72.8226L54.1289 72.8184L54.4861 73.4126C54.6024 73.6062 54.8463 73.6668 55.0403 73.5504C55.2344 73.4341 55.2955 73.1906 55.1791 72.9971L54.8218 72.4026L55.5773 71.9497L55.9345 72.5441C56.0509 72.7376 56.2947 72.7982 56.4888 72.6819C56.6828 72.5655 56.7439 72.322 56.6276 72.1285L56.2681 71.5304C57.0624 70.9768 57.3033 69.8958 56.798 69.0551C56.4952 68.5514 55.9902 68.2432 55.4484 68.1718C55.6399 67.6606 55.6051 67.0706 55.3023 66.5668C54.7971 65.7263 53.7287 65.4303 52.8662 65.87L52.5025 65.2649C52.3861 65.0714 52.1423 65.0107 51.9482 65.1271C51.7542 65.2434 51.6931 65.4869 51.8094 65.6804L52.1708 66.2817ZM51.4842 67.6337L51.4791 67.6367L51.1417 67.839L51.1307 67.8458L51.1168 67.8542L52.1969 69.6511L54.2483 68.4211L54.2505 68.4198C54.7478 68.1201 54.9079 67.4793 54.6092 66.9824C54.3101 66.4847 53.6672 66.3248 53.1682 66.624L52.9393 66.7612L52.9328 66.7652L52.9263 66.7691L51.4893 67.6306L51.4842 67.6337ZM55.5156 71.0464L55.744 70.9094C56.243 70.6102 56.4041 69.9683 56.1049 69.4707C55.8058 68.973 55.1629 68.8131 54.6639 69.1123L52.6124 70.3423L53.6926 72.1394L55.5011 71.0551L55.5083 71.0507L55.5156 71.0464Z" fill="black"/>
<path fill-rule="evenodd" clip-rule="evenodd" d="M54 61.981C49.8579 61.981 46.5 65.3331 46.5 69.4681C46.5 73.6032 49.8579 76.9553 54 76.9553C58.1421 76.9553 61.5 73.6032 61.5 69.4681C61.5 65.3331 58.1421 61.981 54 61.981ZM47.5 69.4681C47.5 65.8844 50.4101 62.9792 54 62.9792C57.5899 62.9792 60.5 65.8844 60.5 69.4681C60.5 73.0518 57.5899 75.957 54 75.957C50.4101 75.957 47.5 73.0518 47.5 69.4681Z" fill="black"/>
<path fill-rule="evenodd" clip-rule="evenodd" d="M134 81C134 79.8954 134.895 79 136 79H150C151.105 79 152 79.8954 152 81V134C152 135.105 151.105 136 150 136H136C134.895 136 134 135.105 134 134V81Z" fill="#13C8A4"/>
<path fill-rule="evenodd" clip-rule="evenodd" d="M161 101C161 99.8954 161.895 99 163 99H177C178.105 99 179 99.8954 179 101V134C179 135.105 178.105 136 177 136H163C161.895 136 161 135.105 161 134V101Z" fill="#EE7D8B"/>
<path fill-rule="evenodd" clip-rule="evenodd" d="M188 53C188 51.8954 188.895 51 190 51H205C206.105 51 207 51.8954 207 53V134C207 135.105 206.105 136 205 136H190C188.895 136 188 135.105 188 134V53Z" fill="#13C8A4"/>
<path fill-rule="evenodd" clip-rule="evenodd" d="M215 65C215 63.8954 215.895 63 217 63H232C233.105 63 234 63.8954 234 65V134C234 135.105 233.105 136 232 136H217C215.895 136 215 135.105 215 134V65Z" fill="#EE7D8B"/>
<path fill-rule="evenodd" clip-rule="evenodd" d="M243 32C243 30.8954 243.895 30 245 30H259C260.105 30 261 30.8954 261 32V134C261 135.105 260.105 136 259 136H245C243.895 136 243 135.105 243 134V32Z" fill="#13C8A4"/>
<path fill-rule="evenodd" clip-rule="evenodd" d="M147.615 106.265L166.716 113.322C167.027 112.814 167.438 112.375 167.922 112.033C168.627 111.535 169.482 111.243 170.399 111.243C170.979 111.243 171.537 111.361 172.05 111.576C172.305 111.682 172.548 111.813 172.776 111.964L193.855 90.5944C193.703 90.3631 193.572 90.1168 193.466 89.8576C193.254 89.3386 193.136 88.7719 193.136 88.1813C193.136 86.9721 193.62 85.8777 194.404 85.0849C195.188 84.2925 196.27 83.8027 197.467 83.8027C198.662 83.8027 199.745 84.2925 200.529 85.0849C201.312 85.8777 201.798 86.9721 201.798 88.1813C201.798 88.4571 201.771 88.7302 201.721 88.9974L220.945 96.9903C221.258 96.5196 221.662 96.1137 222.128 95.7978C222.819 95.3296 223.648 95.0569 224.534 95.0569C225.25 95.0569 225.931 95.2371 226.534 95.555C226.893 95.7446 227.222 95.9832 227.513 96.2626L247.622 82.1037C247.564 81.968 247.513 81.8296 247.47 81.6883C247.34 81.2719 247.27 80.8319 247.27 80.3786C247.27 79.1698 247.755 78.075 248.539 77.2826C249.323 76.4905 250.406 76 251.602 76C252.797 76 253.88 76.4905 254.664 77.2826C255.448 78.075 255.932 79.1698 255.932 80.3786C255.932 80.6976 255.895 81.0187 255.825 81.3356V81.3394L255.807 81.4149C255.807 81.4149 255.376 82.5862 255.061 83.0092C254.746 83.4322 254.357 83.7954 253.912 84.0799C253.241 84.5088 252.449 84.7572 251.602 84.7572C250.885 84.7572 250.204 84.5774 249.601 84.2591C249.243 84.0698 248.913 83.8312 248.623 83.5518L228.514 97.7094C228.617 97.9518 228.699 98.2127 228.76 98.4896C228.829 98.8044 228.865 99.1213 228.865 99.4355C228.865 100.645 228.38 101.739 227.596 102.532C226.812 103.324 225.73 103.814 224.534 103.814C223.338 103.814 222.256 103.324 221.472 102.532C220.688 101.739 220.203 100.645 220.203 99.4355C220.203 99.2643 220.216 99.0775 220.241 98.8778C220.252 98.7905 220.265 98.7046 220.282 98.6201L201.055 90.6264C200.741 91.0971 200.339 91.5027 199.872 91.8189C199.182 92.2865 198.354 92.5602 197.467 92.5602C196.887 92.5602 196.329 92.4416 195.816 92.227C195.561 92.1202 195.318 91.9901 195.09 91.8387L174.011 113.208C174.162 113.44 174.293 113.686 174.399 113.945C174.612 114.464 174.73 115.03 174.73 115.621C174.73 116.83 174.245 117.925 173.461 118.718C172.678 119.51 171.595 120 170.399 120C169.203 120 168.121 119.51 167.337 118.718C166.553 117.925 166.068 116.83 166.068 115.621C166.068 115.404 166.084 115.189 166.115 114.977L147.014 107.92C146.703 108.428 146.292 108.868 145.808 109.209C145.103 109.707 144.249 109.999 143.331 109.999C142.136 109.999 141.052 109.509 140.269 108.717C139.485 107.925 139 106.83 139 105.621C139 104.412 139.485 103.317 140.269 102.525C141.052 101.732 142.136 101.242 143.331 101.242C144.454 101.242 145.48 101.679 146.252 102.393C147.03 103.114 147.549 104.116 147.645 105.237C147.648 105.262 147.651 105.324 147.655 105.428C147.659 105.531 147.662 105.596 147.662 105.621C147.662 105.838 147.646 106.053 147.615 106.265Z" fill="black"/>
<path fill-rule="evenodd" clip-rule="evenodd" d="M160.156 9.92373L174.532 13.7759C175.414 14.0123 175.938 14.9191 175.702 15.8013L171.85 30.1776C171.613 31.0598 170.706 31.5834 169.824 31.347C168.942 31.1106 168.418 30.2038 168.655 29.3216L171.474 18.8016L113.348 52.3605C112.557 52.8171 111.546 52.5461 111.089 51.7552C110.632 50.9642 110.903 49.9528 111.694 49.4961L169.82 15.9373L159.3 13.1185C158.418 12.8821 157.894 11.9753 158.131 11.0931C158.367 10.2109 159.274 9.68735 160.156 9.92373Z" fill="black"/>
<path d="M196.521 10.5654C196.521 11.5981 196.22 12.4256 195.619 13.0479C195.017 13.6702 194.289 14.0806 193.433 14.2792V15.5502C193.433 16.0136 193.387 16.338 193.293 16.5234C193.213 16.7087 193.086 16.8345 192.912 16.9007C192.752 16.9669 192.531 17 192.25 17C191.97 17 191.743 16.9669 191.569 16.9007C191.408 16.8345 191.295 16.7153 191.228 16.5432C191.134 16.3181 191.088 15.9805 191.088 15.5304V14.2991C190.54 14.1799 190.045 13.9813 189.604 13.7033C189.163 13.4252 188.855 13.1803 188.682 12.9685L188.421 12.6308C188.14 12.2734 188 11.9622 188 11.6974C188 11.4326 188.227 11.0818 188.682 10.6449C188.949 10.3933 189.23 10.2675 189.524 10.2675C189.831 10.2675 190.252 10.5323 190.787 11.0619C191.201 11.565 191.669 11.8166 192.19 11.8166C193.179 11.8166 193.674 11.4128 193.674 10.6051C193.674 10.3139 193.487 10.0888 193.113 9.92991C192.738 9.77103 192.284 9.63201 191.749 9.51285C191.215 9.38045 190.68 9.20833 190.145 8.9965C189.611 8.78466 189.156 8.42056 188.782 7.90421C188.408 7.38785 188.221 6.73248 188.221 5.93808C188.221 5.14369 188.475 4.42874 188.982 3.79322C189.49 3.15771 190.192 2.74727 191.088 2.56192V1.44977C191.088 0.99961 191.128 0.675234 191.208 0.476636C191.342 0.158879 191.696 0 192.271 0C192.631 0 192.899 0.0794395 193.072 0.238318C193.26 0.383957 193.367 0.542835 193.393 0.714953C193.42 0.887072 193.433 1.13863 193.433 1.46963V2.58178C193.808 2.66121 194.148 2.77375 194.456 2.91939C194.763 3.06503 194.977 3.18419 195.097 3.27687L195.278 3.43575L195.358 3.49533C195.692 3.79984 195.859 4.0514 195.859 4.25C195.859 4.4486 195.699 4.77959 195.378 5.24299C195.071 5.70639 194.73 5.93808 194.356 5.93808C194.115 5.93808 193.908 5.8785 193.734 5.75935C193.574 5.64019 193.447 5.54089 193.353 5.46145C193.26 5.38201 193.173 5.31581 193.093 5.26285C192.865 5.11721 192.578 5.04439 192.23 5.04439C191.883 5.04439 191.596 5.13045 191.368 5.30257C191.141 5.46145 191.027 5.68653 191.027 5.9778C191.027 6.26908 191.161 6.5074 191.428 6.69276C191.709 6.86487 192.05 6.98403 192.451 7.05023C192.852 7.10319 193.293 7.20249 193.774 7.34813C194.255 7.48053 194.696 7.63941 195.097 7.82477C195.498 8.01013 195.833 8.34112 196.1 8.81776C196.381 9.28115 196.521 9.86371 196.521 10.5654Z" fill="black"/>
<path d="M200.142 0.794393L203.19 0.814253H205.074C205.395 0.814253 205.629 0.827492 205.776 0.853972C205.923 0.867212 206.097 0.926792 206.297 1.03271C206.658 1.21807 206.839 1.74766 206.839 2.6215C206.839 3.41589 206.672 3.89914 206.337 4.07126C206.15 4.17718 205.983 4.24338 205.836 4.26986C205.702 4.2831 205.489 4.28972 205.195 4.28972H201.686C201.659 4.4486 201.592 4.95171 201.485 5.79907C201.632 5.77259 201.866 5.75935 202.187 5.75935C203.457 5.75935 204.6 6.23598 205.616 7.18925C206.631 8.12928 207.139 9.28777 207.139 10.6647C207.139 12.0284 206.658 13.2068 205.696 14.1998C204.733 15.1795 203.537 15.6694 202.107 15.6694C200.864 15.6694 199.741 15.3583 198.739 14.736C198.511 14.5903 198.344 14.4646 198.237 14.3586L198.077 14.2196C197.569 13.7827 197.315 13.3855 197.315 13.028C197.315 12.6706 197.562 12.2403 198.057 11.7371C198.458 11.3002 198.846 11.0818 199.22 11.0818C199.594 11.0818 200.042 11.2936 200.563 11.7173C200.804 11.9953 201.218 12.1343 201.806 12.1343C202.408 12.1343 202.849 12.0086 203.129 11.757C203.424 11.5055 203.571 11.1612 203.571 10.7243C203.571 10.2741 203.41 9.92329 203.089 9.67173C202.782 9.40693 202.428 9.27453 202.027 9.27453C201.626 9.27453 201.305 9.39369 201.064 9.63201C200.703 9.93653 200.336 10.0888 199.962 10.0888C199.601 10.0888 199.18 9.96301 198.699 9.71145C198.231 9.45989 197.923 9.26129 197.776 9.11565C197.629 8.95677 197.556 8.79128 197.556 8.61916C197.556 8.44704 197.689 7.38123 197.957 5.42173C198.224 3.46223 198.364 2.44276 198.378 2.36332C198.391 2.28388 198.438 2.14486 198.518 1.94626C198.598 1.74766 198.692 1.56893 198.799 1.41005C198.919 1.25117 199.093 1.11215 199.32 0.992991C199.561 0.860593 199.835 0.794393 200.142 0.794393Z" fill="black"/>
<path d="M209.671 2.5222C210.059 1.97936 210.6 1.52921 211.295 1.17173C212.003 0.801013 212.819 0.615655 213.741 0.615655C214.663 0.615655 215.465 0.794393 216.147 1.15187C216.842 1.50935 217.383 1.95288 217.771 2.48248C218.172 3.01207 218.493 3.63435 218.733 4.3493C219.134 5.54089 219.335 6.8053 219.335 8.14252C219.335 10.5389 218.814 12.4389 217.771 13.8423C217.383 14.3719 216.842 14.8088 216.147 15.153C215.465 15.4973 214.67 15.6694 213.761 15.6694C212.852 15.6694 212.044 15.4973 211.335 15.153C210.64 14.7956 210.092 14.3586 209.691 13.8423C209.303 13.3259 208.983 12.7103 208.729 11.9953C208.341 10.8567 208.147 9.56581 208.147 8.12266C208.147 6.79868 208.301 5.66667 208.608 4.72664C208.929 3.7866 209.283 3.05179 209.671 2.5222ZM213.721 12.1343C215.098 12.1343 215.786 10.8368 215.786 8.24182V8.12266C215.786 5.46145 215.104 4.13084 213.741 4.13084C212.378 4.13084 211.696 5.46807 211.696 8.14252C211.696 10.8037 212.371 12.1343 213.721 12.1343Z" fill="black"/>
<path d="M226.94 2.5222C227.328 1.97936 227.869 1.52921 228.564 1.17173C229.273 0.801013 230.088 0.615655 231.01 0.615655C231.932 0.615655 232.734 0.794393 233.416 1.15187C234.111 1.50935 234.652 1.95288 235.04 2.48248C235.441 3.01207 235.762 3.63435 236.002 4.3493C236.403 5.54089 236.604 6.8053 236.604 8.14252C236.604 10.5389 236.083 12.4389 235.04 13.8423C234.652 14.3719 234.111 14.8088 233.416 15.153C232.734 15.4973 231.939 15.6694 231.03 15.6694C230.121 15.6694 229.313 15.4973 228.604 15.153C227.909 14.7956 227.361 14.3586 226.96 13.8423C226.573 13.3259 226.252 12.7103 225.998 11.9953C225.61 10.8567 225.416 9.56581 225.416 8.12266C225.416 6.79868 225.57 5.66667 225.878 4.72664C226.198 3.7866 226.553 3.05179 226.94 2.5222ZM230.99 12.1343C232.367 12.1343 233.055 10.8368 233.055 8.24182V8.12266C233.055 5.46145 232.374 4.13084 231.01 4.13084C229.647 4.13084 228.965 5.46807 228.965 8.14252C228.965 10.8037 229.64 12.1343 230.99 12.1343Z" fill="black"/>
<path d="M239.138 2.5222C239.526 1.97936 240.067 1.52921 240.762 1.17173C241.471 0.801013 242.286 0.615655 243.208 0.615655C244.13 0.615655 244.932 0.794393 245.614 1.15187C246.309 1.50935 246.851 1.95288 247.238 2.48248C247.639 3.01207 247.96 3.63435 248.2 4.3493C248.601 5.54089 248.802 6.8053 248.802 8.14252C248.802 10.5389 248.281 12.4389 247.238 13.8423C246.851 14.3719 246.309 14.8088 245.614 15.153C244.932 15.4973 244.137 15.6694 243.228 15.6694C242.319 15.6694 241.511 15.4973 240.802 15.153C240.107 14.7956 239.559 14.3586 239.158 13.8423C238.771 13.3259 238.45 12.7103 238.196 11.9953C237.808 10.8567 237.614 9.56581 237.614 8.12266C237.614 6.79868 237.768 5.66667 238.076 4.72664C238.396 3.7866 238.751 3.05179 239.138 2.5222ZM243.188 12.1343C244.565 12.1343 245.253 10.8368 245.253 8.24182V8.12266C245.253 5.46145 244.572 4.13084 243.208 4.13084C241.845 4.13084 241.163 5.46807 241.163 8.14252C241.163 10.8037 241.838 12.1343 243.188 12.1343Z" fill="black"/>
<path d="M251.336 2.5222C251.724 1.97936 252.265 1.52921 252.96 1.17173C253.669 0.801013 254.484 0.615655 255.406 0.615655C256.328 0.615655 257.13 0.794393 257.812 1.15187C258.507 1.50935 259.049 1.95288 259.436 2.48248C259.837 3.01207 260.158 3.63435 260.399 4.3493C260.8 5.54089 261 6.8053 261 8.14252C261 10.5389 260.479 12.4389 259.436 13.8423C259.049 14.3719 258.507 14.8088 257.812 15.153C257.13 15.4973 256.335 15.6694 255.426 15.6694C254.517 15.6694 253.709 15.4973 253 15.153C252.305 14.7956 251.757 14.3586 251.356 13.8423C250.969 13.3259 250.648 12.7103 250.394 11.9953C250.006 10.8567 249.812 9.56581 249.812 8.12266C249.812 6.79868 249.966 5.66667 250.274 4.72664C250.594 3.7866 250.949 3.05179 251.336 2.5222ZM255.386 12.1343C256.763 12.1343 257.451 10.8368 257.451 8.24182V8.12266C257.451 5.46145 256.77 4.13084 255.406 4.13084C254.043 4.13084 253.361 5.46807 253.361 8.14252C253.361 10.8037 254.036 12.1343 255.386 12.1343Z" fill="black"/>
</svg>
