<svg width="342" height="362" viewBox="0 0 342 362" fill="none" xmlns="http://www.w3.org/2000/svg"><path d="M220.43 129.12l.74-1.73c1.86-6.43 5.12-11 9.77-13.7 4.8-2.65 9.55-3.95 14.21-3.9 4.67.06 9.2-.8 13.6-2.61 4.55-1.76 7.51-5.03 8.9-9.82 1.42-4.93 1.1-9.15-.95-12.66-1.9-3.47-5.62-6-11.13-7.6-5.52-1.6-9.88-1.89-13.08-.87-3 .9-5.07 2.17-6.19 3.8l-1.44 2.5c-2.47 3.49-4.9 6.02-7.29 7.6a9.36 9.36 0 01-7.77.9c-2.83-.82-6.3-2.8-10.4-5.92-7.96-6.03-11.2-11.59-9.73-16.67a18.75 18.75 0 013.28-6.34c1.59-2.13 2.9-3.86 3.92-5.18 1.07-1.47 3.44-3.78 7.1-6.93 3.8-3.11 7.75-5.61 11.85-7.5 4.3-2 9.84-3.3 16.64-3.93 6.85-.77 14-.07 21.45 2.09 15.8 4.57 27.23 13.4 34.28 26.45 7.06 13.05 8.64 26.3 4.76 39.76a46.6 46.6 0 01-8.76 16.9c-3.79 4.73-7.78 8.2-11.96 10.38-8.38 4.38-15.7 6.8-21.97 7.25l-3.9.08a29.88 29.88 0 01-2.13 5.7c-.54 1.3-1.64 2.6-3.3 3.9-1.48 1.2-3.67 1.77-6.57 1.74-2.7-.13-6.22-.83-10.54-2.08-4.32-1.25-7.72-2.64-10.19-4.16-2.32-1.49-3.74-3.27-4.26-5.37-.53-2.1-.75-3.86-.66-5.3.29-1.53.86-3.8 1.72-6.78zm-12.48 39.87c1.88-2.05 4.47-3.16 7.75-3.34 3.43-.14 8.43.74 14.99 2.64 6.56 1.9 10.82 4.75 12.79 8.56 2.16 3.7 2.03 9.74-.38 18.11-1.73 5.98-3.77 10.25-6.13 12.8a12.19 12.19 0 01-8.61 3.83c-3.24.03-8.07-.88-14.48-2.74-6.4-1.85-10.87-4.85-13.4-8.98-1.8-3.28-1.81-7.98-.04-14.1l1.03-3.6c1-3.43 1.83-6.02 2.5-7.77.81-1.71 2.14-3.51 3.98-5.41z" fill="#13C8A4"/><path d="M78.23 41.85l.27-.72c.64-2.64 1.88-4.55 3.72-5.73 1.9-1.16 3.8-1.78 5.7-1.84a14 14 0 005.48-1.3 5.77 5.77 0 003.43-4.15c.5-2.03.29-3.74-.6-5.13-.84-1.37-2.4-2.33-4.66-2.88-2.27-.55-4.04-.58-5.33-.11-1.2.42-2.02.97-2.44 1.65l-.54 1.04a11.74 11.74 0 01-2.83 3.22 3.8 3.8 0 01-3.14.5 13.9 13.9 0 01-4.33-2.21c-3.33-2.3-4.75-4.5-4.24-6.59.22-.92.63-1.8 1.22-2.63.6-.9 1.1-1.62 1.5-2.17.4-.62 1.33-1.6 2.76-2.95a22.57 22.57 0 014.68-3.25c1.7-.9 3.93-1.52 6.68-1.9 2.77-.44 5.68-.28 8.75.46 6.5 1.57 11.3 4.94 14.39 10.11 3.1 5.17 3.97 10.52 2.63 16.05a18.94 18.94 0 01-3.25 7.02 15.7 15.7 0 01-4.68 4.43c-3.32 1.93-6.25 3.04-8.78 3.34l-1.59.1c-.25 1.05-.5 1.83-.76 2.35-.2.54-.62 1.09-1.27 1.65-.58.5-1.46.78-2.64.82-1.1 0-2.54-.22-4.31-.65a17.04 17.04 0 01-4.21-1.5 3.68 3.68 0 01-1.83-2.1 7.22 7.22 0 01-.36-2.14c.09-.63.28-1.56.58-2.79zm-4.36 16.4a4.43 4.43 0 013.08-1.49c1.4-.12 3.44.15 6.14.8 2.7.65 4.47 1.73 5.34 3.24.94 1.47 1 3.92.17 7.36-.6 2.46-1.35 4.23-2.26 5.3a4.96 4.96 0 01-3.43 1.71c-1.31.08-3.29-.2-5.93-.84-2.63-.64-4.5-1.77-5.6-3.4-.78-1.3-.87-3.21-.26-5.73l.35-1.47c.34-1.42.64-2.48.88-3.2.3-.71.8-1.47 1.52-2.27z" fill="#13C8A4"/><path d="M310.65 294.35l-.11-.62c-.68-2.15-.6-4.04.2-5.66a9.62 9.62 0 013.27-3.74 11.6 11.6 0 003.33-3.27 4.78 4.78 0 00.68-4.4c-.51-1.66-1.39-2.79-2.62-3.39-1.17-.62-2.69-.64-4.53-.06-1.85.58-3.13 1.3-3.84 2.19-.67.81-1.02 1.55-1.03 2.21l.06.97a9.73 9.73 0 01-.64 3.5c-.4.83-1.07 1.4-2.01 1.7-.95.3-2.3.38-4.03.26-3.35-.21-5.29-1.17-5.82-2.87a6.33 6.33 0 01-.25-2.39l.14-2.18c.03-.62.26-1.7.7-3.27.5-1.58 1.14-3.02 1.95-4.31a17.16 17.16 0 013.94-4.2 18.4 18.4 0 016.41-3.4c5.29-1.66 10.13-1.3 14.54 1.05 4.4 2.35 7.3 5.78 8.7 10.28.68 2.15.9 4.28.68 6.38a13 13 0 01-1.44 5.14c-1.53 2.79-3.14 4.83-4.82 6.12l-1.08.75c.27.85.42 1.52.46 2 .09.46.02 1.03-.2 1.7-.2.62-.7 1.19-1.53 1.72-.78.46-1.9.92-3.34 1.38-1.45.45-2.66.69-3.64.72a3.05 3.05 0 01-2.2-.71c-.53-.5-.92-.95-1.16-1.37a26.1 26.1 0 01-.77-2.23zm3.89 13.53c.14-.93.66-1.72 1.55-2.38.94-.68 2.5-1.36 4.7-2.05 2.2-.69 3.92-.68 5.18.03 1.3.63 2.38 2.35 3.25 5.15.63 2 .85 3.58.66 4.74-.2 1.1-.77 2-1.71 2.68-.9.6-2.43 1.25-4.58 1.92-2.14.67-3.95.66-5.42-.03-1.12-.59-2-1.9-2.63-3.95l-.38-1.2a35.8 35.8 0 01-.74-2.65 7.1 7.1 0 01.12-2.26z" fill="#13C8A4"/><path d="M317.28 160.94l.1-.33a4.1 4.1 0 011.48-2.75c.83-.6 1.67-.95 2.54-1.05a6.4 6.4 0 002.45-.8c.8-.42 1.27-1.1 1.41-2.01.15-.94 0-1.72-.46-2.32-.43-.6-1.18-.97-2.23-1.14a4.34 4.34 0 00-2.43.14c-.54.23-.89.51-1.06.84l-.2.5c-.38.7-.77 1.22-1.18 1.56-.4.32-.87.44-1.41.35a6.36 6.36 0 01-2.06-.86c-1.6-.92-2.33-1.88-2.18-2.85.07-.43.23-.84.46-1.24l.61-1.05a10.33 10.33 0 013.17-3.1 9.45 9.45 0 012.98-1.1c1.25-.3 2.58-.34 4-.11 3.03.48 5.34 1.84 6.94 4.09a9.5 9.5 0 01.56 10.55c-.6.96-1.25 1.7-1.97 2.2-1.45 1-2.74 1.6-3.9 1.83l-.7.1c-.09.5-.17.86-.27 1.11a1.9 1.9 0 01-.52.8c-.25.25-.64.4-1.17.47a9.1 9.1 0 01-2-.14 7.8 7.8 0 01-1.97-.54 1.69 1.69 0 01-.91-.89c-.15-.38-.23-.7-.25-.96.02-.3.08-.72.17-1.3zm-1.4 7.65c.3-.42.76-.69 1.36-.8.63-.1 1.57-.05 2.83.15 1.25.2 2.1.63 2.55 1.29.49.63.6 1.75.35 3.35a6.08 6.08 0 01-.84 2.5c-.37.5-.87.8-1.5.9-.6.09-1.51.03-2.74-.17-1.22-.2-2.11-.64-2.67-1.35-.41-.56-.52-1.43-.34-2.6l.11-.69c.1-.65.2-1.15.28-1.49.12-.33.32-.7.62-1.09z" fill="#13C8A4"/><path d="M168.13 282.82c.36 13.8 3.36 24 7.4 31.97.35.77.73 1.3 1.07 2.06.9 1.57 1.85 2.9 2.8 4.23.56.8.94 1.34 1.54 1.9 5.2 6.5 11.22 10.76 16.45 14.18 13.2 8.46 11.36 24.53 11.36 24.53L97.58 343.65c4.35-18.76 10.02-54.62 10.02-54.62 24.3-3.32 36.25-5.96 60.53-6.2z" fill="#2854C6"/><path d="M175.85 314.87c.34.76.72 1.3 1.06 2.06-4.84 1.38-9.71 3-14.55 4.38-1.46.48-2.26-1.78-.84-2.03 4.88-1.61 9.5-3.03 14.33-4.41z" fill="#fff"/><path d="M179.76 321.07c.57.8.94 1.33 1.55 1.9-5.37 1.77-10.91 3.28-16.28 5.06-1.46.48-2.26-1.78-.83-2.03 5.13-1.81 10.46-3.36 15.56-4.93z" fill="#fff"/><path d="M188.46 246.06c8.03 5.3 15.07 7.64 21.28 8.5.58.11 1.03.1 1.6.22 1.27.1 2.42.1 3.56.08.69 0 1.15 0 1.72-.13 5.83-.39 10.72-2.14 14.8-3.78 10.22-4.2 18.64 3.27 18.64 3.27l-55.62 56.55c-8.94-9.97-27.1-27.52-27.1-27.52 8-15.26 11.37-23.17 21.12-37.19z" fill="#2854C6"/><path d="M209.87 254.41c.58.11 1.04.1 1.61.22-1.18 3.32-2.24 6.76-3.43 10.08-.32 1.03-1.93.59-1.5-.33 1.07-3.44 2.14-6.65 3.32-9.97z" fill="#fff"/><path d="M215 254.67c.7 0 1.15-.01 1.72-.13-1.17 3.78-2.57 7.57-3.74 11.35-.32 1.03-1.94.58-1.5-.33 1.06-3.67 2.35-7.34 3.53-10.9z" fill="#fff"/><path fill-rule="evenodd" clip-rule="evenodd" d="M133.13 143.74s2.4 2.61 1.43 4.25c-.83 1.39-4.74.9-4.74.9s.66 1.7 1.06 2.52a26.07 26.07 0 002.21 3.86c1.13 1.5 3.22.06 6.27-4.32 1.2-1.73 3.74-2.7 5.85-2.7a2.85 2.85 0 012.2 3.36c-3.38 16.51-3.88 16.84-8.06 27.03-2.14 5.21-1.42 9.98-6.14 13.05-5.92 3.85-13.97 3.28-17.88-2.6-1.74-2.63-1.38-5.44-1.98-7.83-.6-2.38-.7-4.86-.3-7.28l4.44-26.2c.3-1.75.85-3.45 1.63-5.04l1.68-3.4c1.31-2.66 4.03-3.93 6.98-3.71h15.85c1.29 0 4.9.8 4.9 2.97s-2.32 4.1-3.61 4.8c-1.29.68-11.79.34-11.79.34z" fill="#fff" stroke="#2854C6" stroke-width="1.5" stroke-linejoin="round"/><path fill-rule="evenodd" clip-rule="evenodd" d="M105.87 163.76l-5.88 8.83c-.06.09-.1.18-.15.28l-16.17 33.88 2.98 17.76 37.29-39.67-18.07-21.08z" fill="#2854C6"/><path d="M137.09 170.16h0l.01-.02.05-.08a43.43 43.43 0 00.8-1.42c.5-.95 1.18-2.25 1.84-3.67a37.1 37.1 0 001.74-4.37c.45-1.43.66-2.64.56-3.47l.75-.09-.75.1c-.1-.77.03-1.86.32-3.2.3-1.37.76-3.08 1.4-5.13.99-3.63 2.41-8.25 4.28-13.84l.71.24-.71-.24a4.96 4.96 0 012.72-2.98 4.96 4.96 0 014.64-.69h0c2.55.92 4 3.6 3.4 6.24h0l-2.8 12.25s0 0 0 0c-.22.93.36 1.85 1.29 2.07h0c.16.03.33.05.5.04l.1-.01c.87-.37 2-.98 3.24-1.73a96.15 96.15 0 004.52-2.93 178.42 178.42 0 004.95-3.52l.09-.07-.93-9.2-10.75-4.66.3-.69-.3.7a5.1 5.1 0 01-2.84-6.2h0a4.13 4.13 0 012.22-2.52c-.63-1.61-.4-3.49.75-4.9l.58.46-.58-.47a4.43 4.43 0 016.38-.52l13.1 11.6.22.2.03.3.16 1.54 1.82.88h.02l.03.02 1.27.72-.37.66.37-.66a6 6 0 012.95 4.18m-48.08 35.08l47.34-34.95m-47.34 34.95h0l1.09.9-.11.23-.08.16-1.22.76.75.14-.85 1.63 2.2-1.37 27.56 5.36.33.07.26-.2 12.17-9.1-.44-.6m-41.66 2.03l50.59-24.4m-2.51-10.7l-.74.14m.74-.13s0 0 0 0l-.74.13m.74-.13l1 5.66v.03l.2 1.1m-1.94-6.66l1 5.7.14.74.5-.32.3.53m0 0l.09.16 1.87 3.38-.65.37m-1.31-3.9l.03.18.05.26-.62.11.37.6-7.45 25.13m8.93-22.38a8.46 8.46 0 01.32 7.56m-.32-7.56l.65-.37a9.22 9.22 0 01.36 8.23l-.69-.3m0 0l-3.3 7.37a18.96 18.96 0 01-5.95 7.45m9.25-14.82l.69.3-3.3 7.38a19.69 19.69 0 01-6.2 7.74l-.44-.6" fill="#fff" stroke="#2854C6" stroke-width="1.5"/><path fill-rule="evenodd" clip-rule="evenodd" d="M80.67 180.1c-2.49-12.35-11.37-22.3-23.2-26.63a29.82 29.82 0 00-40.05 26.98l-1.17 32.58 72.4 14.65a701.4 701.4 0 00-7.98-47.59z" fill="#2854C6"/><path fill-rule="evenodd" clip-rule="evenodd" d="M170.05 279.11c12.97 9.37 32.41-31.01 25.2-40.66-9.56.92-16.3.26-20.22-2a35.9 35.9 0 01-9.95-8.3l-3.15 5.32 8.12 45.64z" fill="#13C8A4"/><path d="M28.84 213.88l-11.8 52.6a26.56 26.56 0 0025.88 32.38h27.1c12.38 0 23.72-6.9 29.42-17.9l11.44-22.1-16.9 43.82h7.77c8.5 0 16.52-3.88 21.8-10.54l5.07-6.39v5.98c0 6.04 4.9 10.95 10.94 10.95a15.6 15.6 0 0014.67-10.3l2.4-6.63 2.67 5.15a21.83 21.83 0 0019.37 11.78c-7.73-23.09-12.15-41.62-13.26-55.6-1.1-13.98.16-35.06 3.81-63.24h-32.81l-59.17 35.52-48.4-5.48z" fill="#fff"/><path d="M28.84 213.88l-11.8 52.6a26.56 26.56 0 0025.88 32.38h27.1c12.38 0 23.72-6.9 29.42-17.9l11.44-22.1-16.9 43.82c8.5 10.22 84.7 9.7 84.7 0-7.74-23.09-12.16-41.62-13.27-55.6-1.1-13.98.16-35.06 3.81-63.24h-32.81l-59.17 35.52-48.4-5.48z" fill="#13C8A4"/><path fill-rule="evenodd" clip-rule="evenodd" d="M157.87 159.88l-19.09 11.95 27.8 5.4 12.16-9.09a18.95 18.95 0 005.96-7.44l3.3-7.37a8.46 8.46 0 00-.32-7.57l-1.88-3.37-.09.05-1.28-7.23a5.25 5.25 0 00-2.58-3.65l-1.27-.73-2.2-1.05-.2-1.97-13.11-11.61-.12-.1a3.68 3.68 0 00-5.18.53 4.14 4.14 0 00-.26 4.86 3.39 3.39 0 00-2.57 2.32 4.34 4.34 0 002.42 5.28l11.15 4.83 1.02 10.07s-11.22 8.4-14.53 8.99c-2.2.39-3.88-.12-5.05-1.53l4.68-13.9.03-.12c.63-2.1-.55-4.3-2.64-4.93a4.22 4.22 0 00-5.22 2.7c-4.3 12.9-6.24 20.55-5.81 22.94.69 3.94-4.4 13.76-4.4 13.76l19.28-12.02z" fill="#fff"/><path fill-rule="evenodd" clip-rule="evenodd" d="M171.53 87.2l-24.06-.72a5.07 5.07 0 00-5.17 4.35l-8.24 52.73a4 4 0 003.5 4.6l22.5 2.51 9.3-5.7 7.04-52.02a5.08 5.08 0 00-4.88-5.75z" fill="#2854C6"/><path d="M152.56 143.57a3.8 3.8 0 110-7.61 3.8 3.8 0 010 7.6zm0-1.45a2.36 2.36 0 100-4.72 2.36 2.36 0 000 4.72zm10.09-52.64l.19-.01a.5.5 0 00.13-.22c.06-.16.08-.32.1-.75v-.06l.44-1.78 1.05.26-.4 1.67c-.03.5-.07.76-.17 1.03-.1.28-.25.51-.45.68-.25.2-.51.28-.93.27l-7.2-.26c-.41-.01-.66-.1-.9-.32a1.55 1.55 0 01-.4-.71c-.09-.3-.1-.56-.09-1.1v-.06l.44-1.77 1.05.26-.4 1.66c-.02.4 0 .55.04.7a.48.48 0 00.12.24l.19.02 7.19.25z" fill="#fff"/><path d="M19.31 309.69L0 330.89h89.83l-9.13-15.6a33.14 33.14 0 00-28.6-16.43h-8.3a33.13 33.13 0 00-24.49 10.83z" fill="#fff"/><path d="M19.31 309.69L0 330.89h89.83l-9.13-15.6a33.14 33.14 0 00-28.6-16.43h-8.3a33.13 33.13 0 00-24.49 10.83z" fill="#2854C6"/><path fill-rule="evenodd" clip-rule="evenodd" d="M170 79.82l-3.8-8.96h-.5a13.93 13.93 0 01-13.93-13.94v-16.1c0-7.7 6.24-13.94 13.92-13.94h43.1c7.69 0 13.92 6.24 13.92 13.94v16.1c0 7.7-6.23 13.94-13.92 13.94h-32.16L170 79.82z" fill="#fff" stroke="#2854C6" stroke-width="1.5"/><path fill-rule="evenodd" clip-rule="evenodd" d="M137.74 170.54s5.58-9.53 5.1-13.5c-.3-2.42 2.03-9.95 7-22.6a4.22 4.22 0 015.35-2.43 4.6 4.6 0 012.93 5.36l-2.8 12.25a2.48 2.48 0 002.56 3.02" fill="#fff"/><path fill-rule="evenodd" clip-rule="evenodd" d="M36.24 167.15l37.38 51 54.5-46.91c.75-.6 1.54-1.18 2.36-1.7l5.64-3.68c1.8 1.45 40.88 14.94 40.88 14.94l-12.67 13.5c-.8.85-1.65 1.65-2.55 2.39l-86.45 71.7a7.11 7.11 0 01-9.12-.1l-46.38-23.7s-7.38-33.06-5.53-47.93c1.84-14.88 8.7-28.26 8.7-28.26a7.75 7.75 0 0113.24-1.25z" fill="#2854C6"/><path d="M59.88 195.76a.66.66 0 10-1.1.73l14.42 21.74c.21.32.65.4.95.17l8.29-6.31a.66.66 0 10-.8-1.06l-7.73 5.88-14.03-21.15z" fill="#fff"/><path d="M171.85 277.6l-.37-1.22a143.1 143.1 0 01-2.7-10.83c-2.53-12.07-3.7-24.69-2.79-37.08a.66.66 0 10-1.32-.1c-.93 12.53.26 25.27 2.81 37.46a143.6 143.6 0 002.73 10.93l.36 1.2a.66.66 0 101.28-.36z" fill="#13C8A4"/><path d="M177.96 127.83a.46.46 0 11.9-.16l2.52 14.89a6.4 6.4 0 01-2.09 5.88l-5.83 5.12a.46.46 0 11-.6-.69l5.83-5.12a5.49 5.49 0 001.79-5.04l-2.52-14.88zm7.63 14.15a.46.46 0 01.9-.14l.67 4.23a6.4 6.4 0 01-.98 4.53l-4.32 6.52a.46.46 0 01-.76-.5l4.32-6.53a5.49 5.49 0 00.84-3.88l-.67-4.23zm-32.96-10.48a.46.46 0 01.92.03c-.16 4.34-1.8 6.9-4.93 7.52a.46.46 0 01-.18-.9c2.65-.53 4.05-2.7 4.2-6.65z" fill="#2854C6"/><path d="M65.22 107.14c5.57 13.3 5.92 27.52-11.5 33.1-11.86 3.77-26.05-1.8-31.62-15.11-5.57-13.32-.36-28.07 11.5-33.1 11.86-5.04 26.05 1.8 31.62 15.1z" fill="#fff"/><path d="M46.18 142.75a27.57 27.57 0 01-25.33-17.08c-5.75-14.04-.36-29.5 12.22-34.9 12.57-5.22 27.48 1.8 33.41 15.83 3.95 9.53 4.5 17.63 1.8 23.74-2.34 5.22-7.19 8.82-14.01 11.16-2.88.9-5.57 1.25-8.09 1.25zm-4.49-50.9c-2.51 0-5.2.53-7.72 1.61-11.14 4.68-16 18.71-10.78 31.3 5.57 13.14 19.58 17.64 30 14.22 6.29-1.98 10.42-5.22 12.4-9.72 2.5-5.4 1.97-12.77-1.8-21.58-3.96-9.72-12.94-15.84-22.1-15.84z" fill="#2854C6"/><path d="M55.34 107.67a1.8 1.8 0 100-3.6 1.8 1.8 0 000 3.6z" fill="#2854C6"/><path d="M56.6 89.14c0-11.87-19.58 1.44-23 3.06-10.6 1.98-19.94 16.01-16.7 28.42 2.69 10.62 14.9 23.21 21.37 20.15 10.6-6.3 12.22-16.73 7.37-26.62 1.8-2.16-.36-5.4.54-7.92 1.26-4.14 10.6-12.95 10.42-17.09z" fill="#2854C6"/><path d="M41.87 113.07c-19.76-1.8-17.43 14.03-10.06 17.63 6.1 2.88 15.45 1.8 19.22-7.2 3.77-8.81-9.16-10.43-9.16-10.43z" fill="#fff"/><path d="M43.66 119.9a8.87 8.87 0 00-11.14 2.35c-.72.9.54 2.16 1.26 1.26a7.22 7.22 0 018.98-1.98c1.08.54 1.98-1.08.9-1.62z" fill="#2854C6"/><path d="M66.66 111.63a37.55 37.55 0 00-7.54-9.35c-.9-.72-2.16.54-1.26 1.26a38.61 38.61 0 017.18 9c.72.9 2.16 0 1.62-.9z" fill="#2854C6"/><path fill-rule="evenodd" clip-rule="evenodd" d="M198.47 36.17a2 2 0 012 2v22.56a2 2 0 01-2 2h-22.65a2 2 0 01-2-2V38.17c0-1.1.9-2 2-2h22.65z" fill="#13C8A4"/><path fill-rule="evenodd" clip-rule="evenodd" d="M191.43 52.57h2.74a.18.18 0 00.17-.12l.98-2.93v-.01l.86-2.95a.18.18 0 00-.01-.13l-.06-.12a.17.17 0 00-.16-.1h-3.48a.17.17 0 00-.17.15l-.51 3.15-.53 2.86v.07c0 .03.02.05.04.07a.17.17 0 00.13.06zm-6.75 0h2.73a.17.17 0 00.16-.12l1-2.93v-.01l.86-2.95a.17.17 0 00-.01-.13l-.07-.12a.16.16 0 00-.06-.07.18.18 0 00-.09-.02h-3.5a.17.17 0 00-.18.14l-.51 3.15-.5 2.86v.07c0 .03.02.05.04.07a.17.17 0 00.13.06zm-6.57 0h2.74a.17.17 0 00.16-.12l.99-2.93v-.01l.86-2.95a.18.18 0 00-.01-.13l-.07-.12a.17.17 0 00-.15-.1h-3.48a.17.17 0 00-.17.15l-.51 3.15-.53 2.86a.17.17 0 00.03.14l.06.04.08.02z" fill="#fff"/></svg>