<svg width="586" height="784" viewBox="0 0 586 784" fill="none" xmlns="http://www.w3.org/2000/svg"><mask id="a" mask-type="alpha" maskUnits="userSpaceOnUse" x="0" y="0" width="586" height="879"><path fill="#C4C4C4" d="M0 0h586v879H0z"/></mask><g mask="url(#a)"><path fill-rule="evenodd" clip-rule="evenodd" d="M639.519 878.935c-47.878-4.483-201.552 4.824-332.747-133.949-56.482-59.744-135.317-122.001-219.24-104.393-73.496 15.421-143.236 83.523-112.657 162.224 46.607 119.955 210.14 80.016 284.713 89.238 19.57 2.419 379.931-13.12 379.931-13.12z" fill="#EE7D8B"/><g stroke-width="2" stroke-miterlimit="1.5" stroke-linecap="round" stroke-linejoin="round"><path d="M493.456 587.399l47.172-46.99" stroke="#EE7D8B"/><path d="M452.125 628.837l14.928-13.944" stroke="#EE7D8B"/><path d="M316.555 608.15l14.367-33.527" stroke="#EE7D8B"/><path d="M267.156 730.419l38.392-95.673" stroke="#EE7D8B"/><path d="M252.182 764.682l6.924-15.596" stroke="#3152BC"/><path d="M-.346 664.698l12.39 12.467" stroke="#EE7D8B"/><path d="M12.791 677.925L129.16 793.62" stroke="#3152BC"/><path d="M-12.252 350.229l41.975 96.755" stroke="#EE7D8B"/><path d="M560.999-7.5L433.964 325.894" stroke="#EE7D8B"/><path d="M207.796 0v221.043" stroke="#EE7D8B"/><path d="M207.258 653.282l-.343 103.656" stroke="#3152BC"/><path d="M207.256 653.282l-.035 10.818" stroke="#EE7D8B"/><path d="M87.871 588.692l43.058 102.951" stroke="#EE7D8B"/><path d="M316.663 765.477l76.956-78.079" stroke="#EE7D8B"/><path d="M291.412 789.75l27.914-28.032" stroke="#3152BC"/><path d="M400.231 793.11l55.128-23.437" stroke="#EE7D8B"/><path d="M55.89 903.857c-22.845 13.418-45.886 17.331-71.434 23.308-15.488 3.624-30.167 10.437-45.866 13.186-48.638 8.512-103.311-9.161-144.153-35.33-63.839-40.902-87.002-132.194-47.655-197.335 13.246-21.927 36.377-40.552 57.18-54.954 101.987-70.612 247.072 10.334 357.333 5.07 71.734-3.424 126.062-60.594 196.739-68.544 160.767-18.082 261.253 126.759 185.085 272.241-22.032 42.081-49.271 79.797-76.216 118.706" stroke="#FFC500"/></g><path d="M211.014 986.636c63.478 0 114.937-51.459 114.937-114.937 0-63.478-51.459-114.937-114.937-114.937-63.478 0-114.937 51.459-114.937 114.937 0 63.478 51.459 114.937 114.937 114.937z" fill="#fff"/><path d="M210.509 771.002c25.419.125 47.068 7.348 64.693 22.27" stroke="#EE7D8B" stroke-width="2" stroke-miterlimit="1.5" stroke-linecap="round" stroke-linejoin="round"/><path d="M123.461 807.206c22.854-27.551 51.328-43.76 88.165-43.089" stroke="#EE7D8B" stroke-width="2" stroke-miterlimit="1.5" stroke-linecap="round" stroke-linejoin="round"/><path d="M233.63 765.818c60.828 15.896 86.255 62.048 86.92 110.884" stroke="#EE7D8B" stroke-width="2" stroke-miterlimit="1.5" stroke-linecap="round" stroke-linejoin="round"/><g><path fill-rule="evenodd" clip-rule="evenodd" d="M263.216 220.919c-3.374 1.864-10.536 6.297-15.318 9.843-14.538 10.781-37.145 39.266-31.674 72.251 2.046 12.345 6.142 34.732 8.844 37.52.377.39-47.138 11.416-53.271 13.822-.317.125-16.754-25.66-21.208-42.209-10.055-37.358-8.094-68.978 14.568-103.129 6.389-9.626 23.226-27.239 23.226-27.239s16.836 8.579 20.986 10.878c6.614 3.662 53.847 28.263 53.847 28.263z" fill="#EE7D8B"/><path fill-rule="evenodd" clip-rule="evenodd" d="M199.279 255.925c-7.539-11.28-21.25-15.233-30.54-9.025-9.289 6.209-10.88 20.389-3.341 31.67 7.539 11.281 21.251 15.234 30.54 9.026 9.29-6.209 10.881-20.39 3.341-31.671zm-2.096 1.401c6.7 10.024 5.608 22.657-2.646 28.173-8.253 5.518-20.344 1.694-27.043-8.329-6.699-10.024-5.608-22.657 2.646-28.174 8.254-5.517 20.344-1.694 27.043 8.33z" fill="#3152BC"/><path d="M196.155 270.315a1.322 1.322 0 01.836.445c.108.124.191.269.246.425.129.368.088.791-.107 1.129a1.3 1.3 0 01-.76.598 1.37 1.37 0 01-.562.044l-2.309-.305a6.123 6.123 0 01-6.795 4.854 6.111 6.111 0 01-4.446-2.918 6.106 6.106 0 01-5.049 1.667 6.128 6.128 0 01-5.31-6.449l-2.283-.301a1.318 1.318 0 01-1.082-.87 1.373 1.373 0 01.107-1.13 1.313 1.313 0 011.322-.641l2.269.299.378-2.879-2.269-.299a1.36 1.36 0 01-.532-.187 1.297 1.297 0 01-.551-.683 1.375 1.375 0 01.108-1.129 1.32 1.32 0 01.31-.363c.133-.106.286-.187.45-.236.182-.054.373-.066.562-.043l2.267.298a1.99 1.99 0 00.003-.026l.601-4.568a1.316 1.316 0 011.491-1.147 1.32 1.32 0 011.146 1.495l-.246 1.874 6.859.904 9.496 1.251.246-1.875a1.316 1.316 0 011.492-1.147 1.319 1.319 0 011.145 1.495l-.246 1.875-.357 2.72 2.295.303c.188.025.37.088.532.187a1.31 1.31 0 01.55.683c.129.369.089.791-.107 1.129a1.307 1.307 0 01-.76.599 1.386 1.386 0 01-.562.043l-2.294-.302-.379 2.879 2.295.302zm-13.693-7.502l-6.858-.902-1.026 7.817a3.456 3.456 0 002.978 3.885 3.452 3.452 0 003.874-2.942l.006-.04 1.026-7.818zm1.605 8.208a3.456 3.456 0 002.984 3.842 3.452 3.452 0 003.88-2.981l.117-.89.725-5.524.176-1.338.001-.012.008-.053-6.858-.904-1.026 7.818-.007.042z" fill="#3152BC"/><path fill-rule="evenodd" clip-rule="evenodd" d="M186.047 193.517l55.697 31.997a1.261 1.261 0 001.256-2.187l-55.697-31.995a1.26 1.26 0 10-1.256 2.185z" fill="#3152BC"/><path fill-rule="evenodd" clip-rule="evenodd" d="M170.479 344.403l46.627-10.86a1.261 1.261 0 00-.649-2.436l-46.627 10.86a1.26 1.26 0 10.649 2.436z" fill="#3152BC"/><path opacity="0.6" d="M80.45 200.463l-10.533 8.651 13.879 3.884 10.092-10.281-13.438-2.254z" fill="#FFC500"/><path d="M69.917 209.115l13.879 3.883-7.2-26.973-6.679 23.09z" fill="#FFC500"/><path d="M76.597 186.025l7.199 26.973 10.092-10.281-17.291-16.692z" fill="#FFC500"/><path d="M70.523 211.386l16.497 13.689-2.618-9.807-13.879-3.882z" fill="#FFC500"/><path d="M84.403 215.269l2.618 9.807 7.485-20.09-10.103 10.283z" fill="#FFC500"/><path fill-rule="evenodd" clip-rule="evenodd" d="M78.045 222.794c2.986 2.843 10.042 8.133 10.162 8.134.66.008 2.512-4.686 3.23-7.512.085-.334 1.207-3.589 1.281-3.398.485 1.243 2.218 14.185 2.63 18.465.14 1.437.357 2.925.306 4.372-.008.208-.209 1.926-.304 1.958-.081.027-.985-1.609-1.117-1.879-.427-.879-1.17-4.178-2.372-4.537-.586-.175-.56 2.238-.545 2.47.156 2.365.34 4.712.242 7.082-.01.249-.202 2.901-.232 2.995-.045.138-1.76-3.325-1.952-4.127-.727-3.026-1.663-6.713-3.585-9.26-.496-.658-1.243.137-1.49.612-.456.872-.352 6.907-.595 6.666-.85-.842-5.66-22.041-5.66-22.041z" fill="#EE7D8B"/><g><path opacity="0.6" d="M317.676 80.186l19.403 15.87-25.507 7.196-18.6-18.868 24.704-4.198z" fill="#FFC500"/><path d="M337.081 96.056l-25.507 7.196 13.135-49.633 12.372 42.437z" fill="#FFC500"/><path d="M324.709 53.62l-13.135 49.632-18.6-18.868 31.735-30.765z" fill="#FFC500"/><path d="M335.977 100.236l-30.283 25.24 4.776-18.045 25.507-7.195z" fill="#FFC500"/><path d="M310.47 107.431l-4.775 18.045-13.843-36.915 18.618 18.87z" fill="#FFC500"/><path fill-rule="evenodd" clip-rule="evenodd" d="M322.188 121.243c-5.48 5.241-18.435 14.997-18.657 15.001-1.211.016-4.636-8.609-5.968-13.803-.157-.614-2.232-6.595-2.369-6.245-.887 2.288-4.023 26.095-4.767 33.967-.25 2.645-.644 5.381-.544 8.044.014.382.393 3.542.568 3.6.149.048 1.805-2.962 2.046-3.461.783-1.618 2.136-7.69 4.345-8.354 1.077-.324 1.04 4.114 1.012 4.542-.277 4.347-.607 8.666-.418 13.024.02.455.384 5.333.441 5.506.08.256 3.219-6.121 3.571-7.598 1.325-5.567 3.033-12.35 6.557-17.041.909-1.212 2.286.245 2.745 1.119.839 1.601.67 12.702 1.119 12.257 1.559-1.552 10.319-40.558 10.319-40.558z" fill="#EE7D8B"/></g><g><path opacity="0.6" d="M534.572 393.042l-13.339-2.8 5.658 13.255 14.335 1.437-6.654-11.892z" fill="#FFC500"/><path d="M521.232 390.242l5.658 13.255L543.421 381l-22.189 9.242z" fill="#FFC500"/><path d="M543.421 381l-16.531 22.497 14.335 1.437L543.421 381z" fill="#FFC500"/><path d="M519.841 392.137l-.353 21.432 6.01-8.178-5.657-13.254z" fill="#FFC500"/><path d="M525.498 405.391l-6.01 8.178 20.354-6.736-14.344-1.442z" fill="#FFC500"/><path fill-rule="evenodd" clip-rule="evenodd" d="M515.651 405.143c-.348 4.107-.057 12.922.016 13.016.406.52 5.228-.974 7.881-2.182.313-.143 3.553-1.307 3.452-1.128-.666 1.155-9.675 10.608-12.754 13.608-1.034 1.009-2.058 2.11-3.22 2.975-.167.125-1.633 1.043-1.717.989-.073-.046.637-1.775.767-2.048.418-.883 2.526-3.527 2.054-4.69-.231-.566-2.097.964-2.269 1.122-1.745 1.601-3.461 3.214-5.372 4.621-.199.148-2.388 1.658-2.48 1.694-.136.051 1.492-3.454 1.998-4.107 1.904-2.46 4.193-5.498 4.978-8.59.202-.799-.886-.884-1.411-.78-.966.19-5.607 4.05-5.571 3.708.124-1.189 13.648-18.208 13.648-18.208z" fill="#EE7D8B"/></g><path fill-rule="evenodd" clip-rule="evenodd" d="M397.889 182.031l43.938-41.469s10.527 16.861 23.698 18.803c13.17 1.943 48.987-4.401 70.504 14.013 21.517 18.414 25.551 34.528 25.551 34.528l-43.662 35.099s-2.74-20.91-26.431-26.44c-23.691-5.529-43.198-2.091-61.46-11.729-18.26-9.639-32.138-22.805-32.138-22.805z" fill="#FFC500"/><g><path fill-rule="evenodd" clip-rule="evenodd" d="M-13.309 17.932L61.397 1.094S72.09 31.119 108.556 48.91c36.464 17.793 34.463 59.667 35.127 61.265.665 1.598-73.285 17.854-73.285 17.854s-8.385-49.835-44.69-57.935c-36.304-8.101-39.017-52.162-39.017-52.162z" fill="#EE7D8B"/><path fill-rule="evenodd" clip-rule="evenodd" d="M72.915 38.532c-14.373-3.055-26.736 3.924-27.72 15.38-.982 11.455 9.762 23.347 24.137 26.404 14.372 3.056 26.735-3.923 27.72-15.378.981-11.456-9.763-23.348-24.137-26.406zm-.221 2.585c12.77 2.717 22.559 13.075 21.685 23.253-.872 10.178-12.054 16.077-24.827 13.361-12.77-2.717-22.559-13.072-21.685-23.252.872-10.179 12.054-16.077 24.827-13.362z" fill="#3152BC"/><path d="M82.817 51.698a1.274 1.274 0 01.924-.27c.174.015.351.064.516.141.393.186.717.535.869.934.061.163.095.334.097.5a1.176 1.176 0 01-.439.947l-1.78 1.449c2.183 2.828 2.014 6.603-.46 8.616-1.482 1.206-3.471 1.517-5.37 1.024.184 1.888-.47 3.728-1.954 4.934-2.475 2.013-6.36 1.535-8.878-1.02l-1.763 1.431a1.217 1.217 0 01-.506.245c-.134.031-.274.039-.416.028a1.533 1.533 0 01-.518-.144 1.744 1.744 0 01-.867-.932 1.442 1.442 0 01-.097-.501 1.194 1.194 0 01.437-.947l1.751-1.424-2.145-2.454-1.75 1.424a1.222 1.222 0 01-.509.245c-.132.03-.272.039-.414.026a1.492 1.492 0 01-.518-.142 1.742 1.742 0 01-.867-.934 1.426 1.426 0 01-.097-.5 1.195 1.195 0 01.437-.947l1.75-1.422a.264.264 0 00-.02-.022l-3.404-3.896c-.551-.63-.537-1.49.034-1.953.57-.464 1.45-.332 2.001.298l1.397 1.599 5.29-4.304 7.324-5.959-1.396-1.598c-.55-.63-.535-1.49.034-1.954.569-.463 1.45-.332 2 .298l1.397 1.598 2.027 2.32 1.77-1.44a1.23 1.23 0 01.509-.244c.134-.031.274-.039.416-.026.174.014.35.064.516.142.393.185.718.535.87.933.06.163.094.333.094.5a1.18 1.18 0 01-.437.947l-1.77 1.44 2.146 2.454 1.769-1.44zm-15.301 4.28l-5.29 4.304 5.823 6.664c1.418 1.62 3.738 1.968 5.204.776 1.454-1.184 1.503-3.427.116-5.046l-.03-.034-5.823-6.664zm7.891 5.045c1.42 1.59 3.716 1.923 5.17.739 1.464-1.192 1.505-3.457.087-5.078l-.663-.76-4.115-4.708-.998-1.142-.008-.01-.039-.044-5.29 4.302 5.824 6.666.032.035z" fill="#3152BC"/><path fill-rule="evenodd" clip-rule="evenodd" d="M80.652 113.551l49.95-10.859a1.362 1.362 0 00-.578-2.661L80.073 110.89a1.362 1.362 0 00.579 2.661z" fill="#3152BC"/><path fill-rule="evenodd" clip-rule="evenodd" d="M6.652 27.55l49.95-10.858a1.361 1.361 0 10-.577-2.66L6.073 24.89a1.362 1.362 0 00.579 2.66z" fill="#3152BC"/></g><path fill-rule="evenodd" clip-rule="evenodd" d="M300.058 882.439s109.461-.504 139.14-59.96c44.541-89.231-27.242-138.602-83.616-145.173-54.339-6.335-107.229 9.611-152.457 36.533-26.423 15.729-69.826 55.504-83.186 70.475-86.005 96.372-174.136 94.521-201.065 76.756-21.207-13.989-35.01-41.142-32.978-61.25 8.119-80.341 100.672-76.307 171.709-64.197 35.982 6.133 89.902-5.29 136.429-25.747 42.717-18.781 75.606-33.331 119.936-48.628 121.681-41.988 200.527-13.523 223.96 21.884 47.183 71.295 38.333 196.457-49.86 232.398-24.083 9.816-53.183.798-77.812-1.392-25.276-2.248-110.2-31.699-110.2-31.699z" fill="#FFC500"/><path fill-rule="evenodd" clip-rule="evenodd" d="M477.984 169.045c-12.329 2.57-19.613 12.317-16.425 21.641 3.188 9.324 15.725 14.937 28.055 12.367 12.329-2.571 19.612-12.317 16.425-21.641-3.189-9.324-15.726-14.938-28.055-12.367zm.72 2.104c10.954-2.285 22.21 2.456 25.043 10.741 2.833 8.284-3.898 16.775-14.853 19.06-10.955 2.283-22.211-2.457-25.044-10.742-2.833-8.285 3.898-16.775 14.854-19.059z" fill="#3152BC"/><path d="M490.293 175.949c.073-.143.178-.269.313-.368.094-.07.201-.125.317-.164.142-.048.297-.071.454-.067.372.009.747.171 1.003.431.105.106.191.229.249.359a1.014 1.014 0 01-.016.894l-.896 1.752c2.69 1.463 3.863 4.482 2.618 6.916-.747 1.459-2.199 2.39-3.858 2.659.797 1.418.919 3.087.172 4.546-1.244 2.433-4.457 3.401-7.316 2.267l-.885 1.732a1.08 1.08 0 01-.631.532 1.329 1.329 0 01-.455.068 1.497 1.497 0 01-1.003-.432 1.26 1.26 0 01-.249-.359 1.026 1.026 0 01.016-.894l.88-1.722-2.529-1.183-.881 1.722a1.079 1.079 0 01-.631.532 1.295 1.295 0 01-.454.066 1.49 1.49 0 01-1.003-.432 1.226 1.226 0 01-.249-.359 1.076 1.076 0 01-.096-.431c0-.162.04-.319.112-.463l.88-1.72-.023-.01-4.016-1.879c-.65-.304-.936-.983-.649-1.544.286-.56 1.023-.761 1.673-.457l1.648.77 2.661-5.203v-.001l3.686-7.205-1.648-.77c-.65-.304-.935-.983-.648-1.543.285-.562 1.022-.763 1.672-.459l1.648.772 2.391 1.118.89-1.741c.075-.142.18-.269.315-.368a1.17 1.17 0 01.316-.164c.143-.048.298-.071.454-.066.372.008.747.17 1.003.431.107.106.191.228.25.359a1.016 1.016 0 01-.016.894l-.891 1.741 2.531 1.184.891-1.741zm-10.522 8.644l-2.661 5.204 6.87 3.214c1.672.781 3.612.25 4.348-1.191.732-1.43-.004-3.206-1.651-3.996l-.036-.017-6.87-3.214zm7.932 1.23c1.663.757 3.579.223 4.311-1.208.736-1.44-.015-3.231-1.688-4.012l-.782-.367-4.854-2.271-1.178-.55-.009-.004-.047-.022-2.662 5.203 6.871 3.214.038.017z" fill="#3152BC"/><path d="M472.248 674.708a.62.62 0 01-.083-.446.769.769 0 01.548-.594.565.565 0 01.64.232l.58.906c1.376-.881 3.08-.613 3.885.646.483.755.537 1.701.232 2.565.863.009 1.669.407 2.151 1.162.806 1.258.422 3.053-.846 4.105l.573.896a.6.6 0 01.083.445.784.784 0 01-.547.595.63.63 0 01-.231.02.573.573 0 01-.224-.072.582.582 0 01-.187-.179l-.569-.891-1.204.881.569.89a.591.591 0 01.089.25.712.712 0 01-.093.431.779.779 0 01-.46.359.652.652 0 01-.231.021.55.55 0 01-.411-.253l-.569-.89c-.003.004-.007.006-.011.008l-1.912 1.398c-.309.227-.698.177-.883-.113-.186-.289-.088-.695.221-.922l.785-.573-1.722-2.692-2.383-3.727-.785.573c-.31.227-.698.176-.884-.112-.185-.29-.088-.696.222-.923l.785-.573 1.138-.833-.576-.901a.596.596 0 01-.089-.249.646.646 0 01.006-.196.741.741 0 01.087-.235.787.787 0 01.46-.36.627.627 0 01.231-.02.55.55 0 01.41.252l.577.9 1.205-.881-.577-.9zm1.278 7.376l1.721 2.692 3.272-2.393c.797-.581 1.054-1.65.577-2.396-.474-.74-1.487-.875-2.28-.307l-.018.012-3.272 2.392zm2.629-3.44c.781-.585 1.03-1.644.558-2.383-.477-.746-1.503-.878-2.298-.296l-.373.273-2.312 1.69-.56.41-.005.004-.022.015 1.721 2.692 3.272-2.392.019-.013z" fill="#EE7D8B"/><path fill-rule="evenodd" clip-rule="evenodd" d="M472.535 675.554l-.469-.732-.001-.001a.82.82 0 01-.112-.597.98.98 0 01.701-.763.857.857 0 01.309-.026.786.786 0 01.31.1.775.775 0 01.258.248l.468.733c1.447-.812 3.165-.48 3.996.82.469.732.566 1.632.337 2.483.827.086 1.577.51 2.047 1.244.829 1.295.49 3.125-.747 4.259l.474.743a.827.827 0 01.113.598.946.946 0 01-.112.304c-.129.222-.35.393-.588.459a.884.884 0 01-.31.026.766.766 0 01-.567-.348l-.449-.7-.859.628.462.723c.064.1.106.214.121.338a.904.904 0 01-.12.563c-.129.223-.35.393-.59.459a.869.869 0 01-.308.026.79.79 0 01-.311-.1.794.794 0 01-.257-.249l-.448-.699-1.738 1.273c-.418.305-.94.22-1.191-.171-.242-.38-.129-.914.276-1.209l.622-.456-1.609-2.516-.004-.007-2.261-3.535-.601.44c-.418.305-.94.22-1.19-.171-.243-.38-.129-.914.276-1.209l.782-.574.003-.001.976-.713-.469-.733a.837.837 0 01-.112-.598.946.946 0 01.112-.304c.128-.222.349-.393.589-.459a.857.857 0 01.309-.026.766.766 0 01.568.348l.454.71.86-.628zm.06 7.217l.003.006 1.723 2.692c.06.094.037.22-.054.287l-.784.575c-.215.156-.297.433-.169.633.121.189.376.204.578.057l1.92-1.404a.21.21 0 01.167-.04c.059.009.11.044.142.095l.569.888a.339.339 0 00.114.112.344.344 0 00.139.044c.05.005.101.001.153-.013a.574.574 0 00.331-.261.506.506 0 00.062-.166.445.445 0 00.004-.131.392.392 0 00-.057-.161l-.57-.891a.214.214 0 01.055-.288l1.204-.881a.212.212 0 01.306.058l.569.889a.336.336 0 00.253.156c.05.005.101 0 .153-.014a.569.569 0 00.393-.426.42.42 0 00-.053-.293l-.573-.896a.212.212 0 01.044-.279c1.181-.981 1.553-2.652.803-3.826-.443-.691-1.182-1.055-1.974-1.063a.213.213 0 01-.199-.285c.283-.801.236-1.678-.212-2.379-.743-1.162-2.318-1.394-3.589-.581a.212.212 0 01-.161.03.214.214 0 01-.133-.094l-.579-.905a.342.342 0 00-.253-.157.442.442 0 00-.153.014.567.567 0 00-.394.427.413.413 0 00.054.293l.575.9a.214.214 0 01-.054.288l-1.204.881a.211.211 0 01-.165.037.219.219 0 01-.142-.094l-.575-.9a.335.335 0 00-.253-.156.395.395 0 00-.152.014.57.57 0 00-.333.26.563.563 0 00-.061.166.419.419 0 00.052.293l.577.9a.216.216 0 01-.053.288l-1.139.832h-.001l-.784.574c-.215.157-.297.434-.168.634.121.189.376.204.578.057l.785-.574a.21.21 0 01.305.057l2.38 3.721zm.803-.859a.211.211 0 00-.053.287l1.721 2.692a.215.215 0 00.306.056l3.271-2.392c.891-.651 1.164-1.85.63-2.684-.536-.839-1.685-1.01-2.584-.365l-3.291 2.406zm1.905 2.557l3.088-2.258c.702-.514.944-1.453.523-2.109-.41-.641-1.29-.741-1.974-.252l-3.128 2.287 1.491 2.332zm.973-5.653l.004-.002c.874-.654 1.14-1.842.61-2.669-.54-.846-1.7-1.012-2.603-.352l-.377.274c.003-.001-.001.001-.001.001l-2.309 1.689c.002-.001 0-.001 0-.001l-.585.429a.214.214 0 00-.054.288l1.722 2.69c.031.05.082.085.14.096a.211.211 0 00.165-.039l3.288-2.404zm-.251-.345c.688-.515.922-1.444.505-2.096-.412-.646-1.302-.742-1.992-.238l-3.11 2.274 1.491 2.331 3.106-2.271z" fill="#EE7D8B"/></g><g><path d="M333.185 593.571c75.177 0 136.119-60.943 136.119-136.119 0-75.177-60.942-136.119-136.119-136.119-75.176 0-136.119 60.942-136.119 136.119 0 75.176 60.943 136.119 136.119 136.119z" fill="#FFC500"/><g fill-rule="evenodd" clip-rule="evenodd" fill="#EE7D8B"><path d="M367.681 364.709c11.061-25.682 15.617-37.986 25.722-63.517a2.192 2.192 0 00-1.23-2.841 2.19 2.19 0 00-2.841 1.23c-10.085 25.482-14.631 37.764-25.672 63.397a2.189 2.189 0 004.021 1.731z"/><path d="M252.535 303.004c6.343 8.856 10.933 19.202 15.601 29.006 6.405 13.452 13.922 26.394 20.592 39.711 6.279 12.536 11.795 25.814 20.147 37.159a2.187 2.187 0 103.525-2.594c-8.205-11.147-13.591-24.209-19.758-36.525-6.658-13.291-14.162-26.208-20.555-39.633-4.776-10.034-9.501-20.609-15.994-29.673a2.189 2.189 0 00-3.558 2.549z"/><path d="M230.114 367.043c8.689 8.675 15.815 13.673 29.596 28.156a2.19 2.19 0 003.171-3.018c-13.819-14.521-20.962-19.537-29.674-28.235a2.189 2.189 0 10-3.093 3.097z"/><path d="M165.748 395.609c28.607 10.283 48.533 17.881 76.383 30.03a2.19 2.19 0 002.882-1.131 2.192 2.192 0 00-1.131-2.882c-27.95-12.191-47.944-19.817-76.654-30.136a2.19 2.19 0 00-1.48 4.119z"/><path d="M240.069 458.165c-21.501-.379-28.168-.382-48.779.123-12.157.298-24.336-.206-36.495-.368a2.19 2.19 0 00-.058 4.377c12.213.163 24.449.666 36.661.366 20.533-.503 27.175-.5 48.594-.121a2.19 2.19 0 002.227-2.15 2.191 2.191 0 00-2.15-2.227z"/><path d="M206.102 586.816c6.245-5.948 11.706-12.659 17.818-18.743 11.565-11.512 23.464-22.68 34.93-34.296 6.844-6.931 13.373-14.392 20.703-20.834a2.19 2.19 0 00-2.89-3.287c-7.406 6.51-14.012 14.042-20.927 21.046-11.458 11.606-23.349 22.766-34.904 34.27-6.089 6.06-11.528 12.749-17.749 18.675a2.187 2.187 0 00-.075 3.093c.833.874 2.22.908 3.094.076z"/><path d="M299.108 527.908c-4.468 9.034-7.732 18.644-11.912 27.814-5.232 11.476-10.94 22.646-15.763 34.308-3.468 8.382-5.463 18.397-10.14 26.202a2.192 2.192 0 00.753 3.003 2.191 2.191 0 003.003-.753c4.783-7.985 6.882-18.206 10.428-26.779 4.804-11.614 10.492-22.737 15.702-34.165 4.16-9.128 7.405-18.696 11.852-27.69a2.189 2.189 0 10-3.923-1.94z"/><path d="M387.189 524.529c7.024 7.582 51.04 46.517 62.756 58.878a2.188 2.188 0 003.176-3.011c-11.708-12.355-55.702-51.265-62.72-58.842a2.19 2.19 0 00-3.212 2.975z"/><path d="M481.636 519.771c-18.947-8.125-52.852-25.416-75.795-35.335a2.19 2.19 0 00-2.877 1.14 2.19 2.19 0 001.141 2.878c22.945 9.921 56.856 27.215 75.806 35.34a2.189 2.189 0 001.725-4.023z"/><path d="M500.128 456.969c-13.177-.538-55.863-.28-83.593-1.143a2.188 2.188 0 10-.136 4.375c27.715.862 70.38.604 83.551 1.141a2.188 2.188 0 10.178-4.373z"/><path d="M485.149 385.401c-32.585 13.927-48.298 22.092-73.455 33.207a2.188 2.188 0 001.768 4.004c25.142-11.108 40.843-19.268 73.407-33.186a2.19 2.19 0 00-1.72-4.025z"/></g><g fill-rule="evenodd" clip-rule="evenodd" fill="#EE7D8B"><path d="M391.318 372.08c3.549-5.143 10.066-15.538 17.667-26.193a.548.548 0 00-.891-.635c-7.605 10.66-14.126 21.06-17.677 26.207a.547.547 0 00.901.621z"/><path d="M291.737 289.376c4.183 10.162 6.31 21.38 8.629 32.085 3.153 14.551 7.503 28.859 10.945 43.34 3.219 13.551 5.519 27.65 11.015 40.521a.548.548 0 001.007-.43c-5.472-12.814-7.752-26.853-10.957-40.344-3.44-14.473-7.789-28.775-10.94-43.319-2.333-10.767-4.48-22.047-8.687-32.269a.547.547 0 10-1.012.416z"/><path d="M271.163 384.749a10.722 10.722 0 00-.242-.343c-1.783-2.45-11.204-14.781-14.768-19.885a.547.547 0 01.897-.626c3.562 5.099 12.973 17.42 14.755 19.867.226.309.343.501.358.539a.508.508 0 01-.001.418.548.548 0 01-.988.05l-.011-.02zm-.052-.276a.547.547 0 01.287-.444.503.503 0 00-.287.444z"/><path d="M202.713 373.735c21.114 14.014 36.886 24.75 51.286 34.034a.546.546 0 10.592-.919c-14.395-9.282-30.163-20.016-51.272-34.027a.549.549 0 00-.606.912z"/><path d="M240.217 439.476a.547.547 0 01.311 1.047 1.105 1.105 0 01-.34.05c-.346.009-1.148-.046-2.345-.161-5.822-.557-21.221-2.537-38.492-5.222a.547.547 0 11.168-1.081c17.242 2.68 32.616 4.657 38.428 5.214 1.197.115 2.189.15 2.27.153z"/><path d="M242.647 514.699c8.281-5.201 16.38-10.988 25.023-15.598a.548.548 0 10-.515-.966c-8.666 4.623-16.787 10.423-25.09 15.637a.548.548 0 00.582.927z"/><path d="M285.318 520.638c-6.405 7.756-25.812 37.562-31.969 45.515a.547.547 0 10.865.67c6.154-7.948 25.547-37.736 31.948-45.488a.546.546 0 10-.844-.697z"/><path d="M370.53 532.929c9.496 11.065 15.927 25.362 23.123 37.925a.546.546 0 10.948-.544c-7.228-12.622-13.701-26.978-23.242-38.094a.546.546 0 10-.829.713z"/><path d="M458.307 546.271c-22.942-15.228-41.109-28.019-62.822-43.429a.546.546 0 10-.634.892c21.723 15.418 39.899 28.214 62.851 43.449a.547.547 0 00.605-.912z"/><path d="M433.556 518.18a1656.852 1656.852 0 00-33.574-19.624.547.547 0 10-.542.951 1644.721 1644.721 0 0133.553 19.612.548.548 0 00.563-.939z"/><path d="M279.736 551.626a1084.485 1084.485 0 0014.334-27.642.546.546 0 10-.978-.49 1083.952 1083.952 0 01-14.32 27.614.548.548 0 00.964.518z"/><path d="M214.624 446.008c9.625.475 18.256.709 26.386.813a.547.547 0 10.014-1.094 713.727 713.727 0 01-26.345-.812.548.548 0 00-.055 1.093z"/><path d="M386.978 369.549a1339.402 1339.402 0 0020.223-43.673.547.547 0 10-1.001-.442 1337.45 1337.45 0 01-20.207 43.636.548.548 0 00.985.479z"/><path d="M468.399 492.031c-17.268-4.754-43.132-11.409-60.372-15.583a.547.547 0 00-.257 1.064c17.23 4.171 43.08 10.823 60.338 15.573a.547.547 0 10.291-1.054z"/><path d="M458.724 433.156c-24.037 5.451-16.538 4.18-41.885 9.596a.548.548 0 10.228 1.07c25.356-5.418 17.854-4.146 41.899-9.599a.547.547 0 00-.242-1.067z"/></g><path fill-rule="evenodd" clip-rule="evenodd" d="M305.797 560.392c3.313-1.46 67.46 23.581 75.631 27.768 15.259 7.818 14.751 20.908-.526 18.65-14.521-2.145-51.801-25.383-82.721-32.342-3.927-.884 4.304-12.614 7.616-14.076z" fill="#292A34"/><path fill-rule="evenodd" clip-rule="evenodd" d="M270.822 598.561c2.14-3.629 66.218-1.302 75.405-1.437 17.159-.251 23.282 14.867 8.899 21.423-13.672 6.232-53.54-10.079-83.85.486-3.849 1.343-2.594-16.842-.454-20.472z" fill="#292A34"/><path fill-rule="evenodd" clip-rule="evenodd" d="M350.446 598.428c7.893-1.147 15.234 4.328 16.381 12.221 1.148 7.893-4.327 15.234-12.22 16.382-7.893 1.147-15.234-4.328-16.382-12.221-1.148-7.893 4.328-15.234 12.221-16.382z" fill="#292A34"/><path fill-rule="evenodd" clip-rule="evenodd" d="M393.775 589.502c7.567-1.101 14.603 4.149 15.704 11.716 1.101 7.565-4.148 14.603-11.715 15.704-7.566 1.099-14.603-4.15-15.703-11.716-1.101-7.567 4.148-14.603 11.714-15.704z" fill="#292A34"/><path fill-rule="evenodd" clip-rule="evenodd" d="M333.105 541.67l21.262-5.73-11.771-43.675-21.262 5.73 11.771 43.675z" fill="#292A34"/><path fill-rule="evenodd" clip-rule="evenodd" d="M358.789 535.131l21.045-6.481-13.31-43.23-21.045 6.479 13.31 43.232z" fill="#292A34"/><path fill-rule="evenodd" clip-rule="evenodd" d="M303.443 513.317c2.127 4.303 28.833 6.326 48.231 2.199 21.98-4.675 33.415-17.776 37.649-21.31 3.082-2.572-.173-12.061-2.909-9.987-1.721 1.304-17.547 19.476-37.157 22.954-21.564 3.827-42.614-3.438-45.29-2.14-3.352 1.625-1.058 7.202-.524 8.284z" fill="#0B7963"/><path fill-rule="evenodd" clip-rule="evenodd" d="M172.163 517.448c.256.132 7.024 16.175 3.754 18.67-9.346 7.13-10.937 8.852-15.509 6.228-.108-.062-2.68 2.024-5.211-1.796-.007-.011-3.547.92-3.812-3.77-.003-.059-4.582-.922-2.328-6.486.021-.052-5.069-2.178.554-6.884.01-.008-3.301-5.459 1.526-6.976 5.734-1.802 15.084-2.062 21.026 1.014z" fill="#292A34"/><path fill-rule="evenodd" clip-rule="evenodd" d="M470.51 304.222c-.211.608-15.685 1.837-14.852-3.092.091-.534-1.083-1.3-1.412-1.575-1.577-1.323-2.78-3.017-3.644-4.934-2.044-4.541-5.054-8.996-3.646-14.312.558-2.106 3.516-1.618 5.02-2.127 1.166-.394-1.384-1.724 1.297-3.562 2.64-1.807 4.167.484 4.163.447-.009-.083 1.408-1.842 2.793-1.966 1.372-.125 2.897 1.51 3.049 1.49.11-.013 2.429-1.25 3.679-.913 2.201.591 2.1 2.222 2.077 2.364-.018.117 2.16.492 2.889 1.044.914.691.85 2.499.914 2.535.121.068 1.152.368 1.587 1.278.869 1.817.539 5.981.38 7.936-.663 8.145-3.265 12.419-4.294 15.387z" fill="#292A34"/><path fill-rule="evenodd" clip-rule="evenodd" d="M458.054 382.001l-5.975-17.694-71.289 24.077 5.976 17.694 71.288-24.077z" fill="#292A34"/><path fill-rule="evenodd" clip-rule="evenodd" d="M270.298 447.119l-17.762-5.778-23.279 71.553 17.761 5.778 23.28-71.553z" fill="#292A34"/><path fill-rule="evenodd" clip-rule="evenodd" d="M373.672 375.96c12.763-1.857 24.634 6.998 26.49 19.761 1.857 12.764-6.998 24.635-19.762 26.491-12.763 1.857-24.634-6.998-26.49-19.762-1.857-12.764 6.998-24.633 19.762-26.49z" fill="#0B7963"/><path fill-rule="evenodd" clip-rule="evenodd" d="M289.379 393.34l58.048-13.463-7.837-33.794-58.048 13.463 7.837 33.794z" fill="#292A34"/><path fill-rule="evenodd" clip-rule="evenodd" d="M347.247 355.139l-66.349 15.389a5.473 5.473 0 01-2.473-10.664l66.349-15.387a5.473 5.473 0 112.473 10.662z" fill="#0B7963"/><g fill-rule="evenodd" clip-rule="evenodd"><path d="M261.953 578.263c26.23-17.533 41.801-27.096 46.716-28.688 5.346 6.355 8.015 9.532 8.015 9.532 1.687 2.004 1.497 3.491-.578 4.461-3.152-2.416-7.944-2.496-11.43-.191-3.489 2.306-4.694 6.353-2.881 9.654.261 1.209-.206 2.475-1.237 3.372-1.035.899-2.503 1.309-3.904 1.094l-11.984-1.081-9.911 6.085c-2.388 1.166-5.215 1.367-7.696.545-2.485-.822-4.357-2.578-5.11-4.783z" fill="#13C8A4"/><path d="M308.668 549.574l-46.094 29.418c-.451.288-1.073.214-1.387-.162l-2.048-2.451c-.319-.376-.207-.918.244-1.205l46.094-29.419c.45-.286 1.076-.214 1.39.162l2.048 2.452c.314.376.204.918-.247 1.205z" fill="#292A34"/></g><g fill-rule="evenodd" clip-rule="evenodd"><path d="M239.491 642.504c15.424-32.369 25.078-50.736 28.962-55.1 8.976 3.379 13.46 5.072 13.46 5.072 2.83 1.065 3.518 2.667 2.053 4.807-4.512-.655-9.258 1.959-11.322 6.238-2.067 4.279-.872 9.022 2.845 11.321.967 1.068 1.252 2.603.768 4.085-.487 1.485-1.686 2.723-3.187 3.294l-12.386 5.653-6.144 11.688c-1.658 2.515-4.312 4.306-7.228 4.875-2.918.572-5.788-.139-7.821-1.933z" fill="#13C8A4"/><path d="M268.453 587.405l-27.924 55.485c-.273.541-.926.817-1.455.616l-3.448-1.311c-.533-.199-.742-.807-.469-1.348l27.923-55.486c.273-.542.93-.821 1.459-.62l3.449 1.312c.528.202.737.809.465 1.352z" fill="#292A34"/></g><path fill-rule="evenodd" clip-rule="evenodd" d="M321.159 370.423c38.509-5.602 74.322 21.115 79.923 59.625 5.602 38.509-21.115 74.321-59.624 79.923-38.509 5.602-74.322-21.115-79.924-59.625-5.601-38.508 21.115-74.322 59.625-79.923z" fill="#13C8A4"/><path fill-rule="evenodd" clip-rule="evenodd" d="M266.787 420.98c12.764-1.857 24.633 6.998 26.489 19.762 1.857 12.764-6.998 24.634-19.761 26.49-12.764 1.857-24.634-6.998-26.491-19.761-1.857-12.764 6.998-24.634 19.763-26.491z" fill="#0B7963"/><path fill-rule="evenodd" clip-rule="evenodd" d="M488.203 324.328c1.851-8.157-3.269-16.282-11.427-18.133l-29.561-6.706c-8.158-1.85-16.283 3.27-18.133 11.428l-10.536 46.443c-1.85 8.158 3.27 16.283 11.428 18.133l29.56 6.706c8.158 1.85 16.283-3.27 18.133-11.427l10.536-46.444z" fill="#13C8A4"/><path fill-rule="evenodd" clip-rule="evenodd" d="M243.29 534.421c7.874-2.825 11.972-11.512 9.146-19.385l-10.238-28.53c-2.824-7.873-11.51-11.971-19.384-9.146l-44.824 16.085c-7.874 2.825-11.972 11.511-9.146 19.384l10.238 28.531c2.825 7.873 11.51 11.971 19.384 9.146l44.824-16.085z" fill="#13C8A4"/><path fill-rule="evenodd" clip-rule="evenodd" d="M330.916 612.633c1.546 9.778 6.561 9.995 12.523 8.985l21.606-3.663c5.963-1.01 10.606-2.497 9.06-12.274l-11.009-70.186c-1.545-9.777-6.494-9.639-12.456-8.628l-21.606 3.663c-5.963 1.011-10.499 3.234-8.952 13.01l10.834 69.093z" fill="#13C8A4"/><path fill-rule="evenodd" clip-rule="evenodd" d="M372.251 605.975c2.673 9.453 7.884 10.777 13.557 8.451l20.56-8.434c5.673-2.327 9.876-5.643 7.202-15.097l-18.358-64.923c-2.672-9.452-8.077-10.383-13.75-8.056l-24.421 7.883c-5.672 2.328-9.937 6.683-7.264 16.137l22.474 64.039z" fill="#13C8A4"/><path fill-rule="evenodd" clip-rule="evenodd" d="M470.037 337.399a4.054 4.054 0 004.888-3.001l3.5-14.62a4.055 4.055 0 00-3-4.888l3.73.893a4.054 4.054 0 013 4.888l-3.499 14.62a4.056 4.056 0 01-4.889 3.001l-3.73-.893z" fill="#292A34"/><path fill-rule="evenodd" clip-rule="evenodd" d="M470.048 337.389l-10.89-2.606a4.056 4.056 0 01-3.001-4.889l3.5-14.621a4.054 4.054 0 014.888-2.999l10.891 2.606a4.056 4.056 0 013.001 4.888l-3.5 14.621a4.055 4.055 0 01-4.889 3zm-6.062-14.546a2.937 2.937 0 003.541-2.174 2.936 2.936 0 00-2.173-3.541 2.937 2.937 0 10-1.368 5.715zm8.121 1.944a2.94 2.94 0 101.365-5.714 2.94 2.94 0 00-1.365 5.714zm-10.098 6.316a2.94 2.94 0 101.366-5.718 2.94 2.94 0 00-1.366 5.718z" fill="#292A34" fill-opacity="0.6"/><path fill-rule="evenodd" clip-rule="evenodd" d="M187.884 539.174a4.054 4.054 0 005.153 2.519l14.22-4.879a4.054 4.054 0 002.519-5.152l1.245 3.628a4.057 4.057 0 01-2.52 5.153l-14.22 4.879a4.057 4.057 0 01-5.153-2.52l-1.244-3.628z" fill="#292A34"/><path fill-rule="evenodd" clip-rule="evenodd" d="M187.901 539.185l-3.634-10.593a4.055 4.055 0 012.52-5.153l14.22-4.879a4.053 4.053 0 015.152 2.52l3.635 10.591a4.055 4.055 0 01-2.52 5.153l-14.22 4.88a4.057 4.057 0 01-5.153-2.519zm9.034-12.915a2.938 2.938 0 105.559-1.907 2.938 2.938 0 00-5.559 1.907zm2.711 7.899a2.938 2.938 0 105.558-1.908 2.94 2.94 0 00-5.558 1.908zm-10.744-5.142a2.94 2.94 0 105.56-1.909 2.94 2.94 0 00-5.56 1.909z" fill="#292A34" fill-opacity="0.6"/><path fill-rule="evenodd" clip-rule="evenodd" d="M344.111 300.398l-10.197-43.665-4.588 1.072 10.198 43.663 4.587-1.07z" fill="#292A34"/><path fill-rule="evenodd" clip-rule="evenodd" d="M355.534 319.5l-18.928 4.404-6.565-28.216 18.929-4.404c7.759-1.805 15.585 3.066 17.39 10.825 1.805 7.759-3.066 15.586-10.826 17.391z" fill="#292A34"/><path d="M318.998 250.385c-.518-5.174 2.87-10.053 8.07-11.268 5.652-1.319 11.304 2.192 12.623 7.845 1.32 5.652-2.191 11.304-7.843 12.624a10.507 10.507 0 01-10.707-3.805l-5.455-2.46a4.24 4.24 0 00-5.018 1.172l-3.855 4.687a4.242 4.242 0 01-5.02 1.171l-5.522-2.493a4.237 4.237 0 00-5.02 1.172l-3.849 4.681a4.239 4.239 0 01-5.021 1.172l-5.523-2.493a4.242 4.242 0 00-5.019 1.172l-3.85 4.683a4.24 4.24 0 01-5.019 1.172l-3.357-1.515c.103 4.861-3.196 9.299-8.119 10.45-5.653 1.319-11.305-2.193-12.625-7.845-1.319-5.652 2.192-11.305 7.844-12.625 4.608-1.076 9.215 1.059 11.476 4.947l3.624 1.636a4.241 4.241 0 005.021-1.172l3.848-4.682a4.241 4.241 0 015.021-1.172l5.523 2.493a4.24 4.24 0 005.019-1.172l3.85-4.683a4.241 4.241 0 015.02-1.172l5.524 2.494a4.239 4.239 0 005.019-1.172c1.186-1.44 2.669-3.244 3.853-4.684a4.239 4.239 0 015.019-1.172l4.468 2.014zm28.642 93.522l-73.666 17.203c-5.866 1.369-11.73-2.275-13.1-8.14l-11.364-48.663c-1.37-5.866 2.275-11.731 8.139-13.1l73.667-17.203c5.865-1.37 11.73 2.275 13.101 8.14l11.364 48.663c1.368 5.865-2.275 11.73-8.141 13.1z" fill="#13C8A4"/><path fill-rule="evenodd" clip-rule="evenodd" d="M255.084 343.537l18.926-4.418-6.588-28.211-18.925 4.42c-7.759 1.811-12.624 9.641-10.813 17.398 1.812 7.758 9.642 12.623 17.4 10.811z" fill="#292A34"/><g fill-rule="evenodd" clip-rule="evenodd"><path d="M343.885 300.478c1.837 7.863-1.673 15.405-7.839 16.845-6.165 1.44-12.652-3.768-14.488-11.631-1.836-7.863 1.673-15.405 7.838-16.845 6.166-1.44 12.653 3.767 14.489 11.631z" fill="#292A34"/><path d="M338.639 301.703c1.837 7.864-1.673 15.406-7.839 16.846-6.165 1.439-12.652-3.769-14.488-11.631-1.836-7.864 1.673-15.406 7.838-16.846 6.166-1.44 12.653 3.768 14.489 11.631z" fill="#fff"/><path d="M339.705 301.454c-1.989-8.514-9.128-14.007-15.804-12.448-6.676 1.56-10.644 9.647-8.656 18.16 1.989 8.513 9.128 14.007 15.803 12.447 6.676-1.558 10.645-9.645 8.657-18.159zm-2.132.498c1.684 7.213-1.366 14.21-7.022 15.531-5.656 1.321-11.49-3.601-13.174-10.815-1.685-7.213 1.366-14.209 7.021-15.53 5.657-1.322 11.491 3.6 13.175 10.814z" fill="#292A34"/><path d="M332.966 302.02c.647 2.768-.588 5.423-2.758 5.931-2.171.507-4.455-1.327-5.101-4.095-.646-2.768.589-5.423 2.759-5.93 2.171-.507 4.455 1.327 5.1 4.094z" fill="#292A34"/></g><g fill-rule="evenodd" clip-rule="evenodd"><path d="M312.979 308.116c1.836 7.864-1.673 15.406-7.838 16.846-6.166 1.44-12.653-3.768-14.489-11.631-1.836-7.864 1.673-15.406 7.839-16.846 6.165-1.44 12.652 3.768 14.488 11.631z" fill="#292A34"/><path d="M307.733 309.341c1.836 7.863-1.673 15.405-7.838 16.845-6.166 1.44-12.653-3.768-14.489-11.631-1.837-7.863 1.673-15.405 7.839-16.845 6.165-1.439 12.652 3.767 14.488 11.631z" fill="#fff"/><path d="M308.798 309.093c-1.988-8.514-9.127-14.007-15.803-12.448-6.675 1.558-10.644 9.645-8.656 18.16 1.988 8.513 9.128 14.006 15.804 12.447 6.676-1.559 10.644-9.646 8.655-18.159zm-2.131.497c1.685 7.214-1.366 14.21-7.022 15.531-5.657 1.321-11.49-3.601-13.174-10.814-1.684-7.214 1.365-14.211 7.022-15.531 5.656-1.321 11.49 3.601 13.174 10.814z" fill="#292A34"/><path d="M302.061 309.658c.646 2.769-.588 5.424-2.759 5.93-2.17.507-4.454-1.326-5.101-4.095-.647-2.767.589-5.422 2.76-5.929 2.17-.507 4.454 1.327 5.1 4.094z" fill="#292A34"/></g><path fill-rule="evenodd" clip-rule="evenodd" d="M263.871 320.999l-10.198-43.664-4.587 1.071 10.196 43.664 4.589-1.071z" fill="#292A34"/><path fill-rule="evenodd" clip-rule="evenodd" d="M332.697 326.985a4.826 4.826 0 015.467 4.079 4.825 4.825 0 01-4.078 5.467 4.825 4.825 0 01-5.467-4.079 4.826 4.826 0 014.078-5.467z" fill="#292A34"/><path fill-rule="evenodd" clip-rule="evenodd" d="M246.219 266.403a1.093 1.093 0 01-2.154-.269c0-.74.281-1.222.644-1.535.366-.316.861-.479 1.426-.445.567.035 1.226.283 1.774.691.576.429 1.016 1.027 1.176 1.658.401 1.589.024 2.848-.712 3.733-1.654 1.986-5.455 2.086-7.434-.74-1.051-1.505-.902-3.075-.527-4.585.866-3.482 4.517-5.801 7.992-5.358 1.588.203 3.005 1.061 4.129 2.294 1.588 1.741 2.582 4.231 2.677 6.436.042.996-.204 2.717-.864 3.85-.62 1.066-1.559 1.669-2.782 1.438a1.094 1.094 0 01.406-2.15c.131.025.226-.049.307-.139.149-.166.262-.386.358-.623.305-.758.414-1.697.388-2.282-.075-1.732-.86-3.687-2.107-5.055-.765-.839-1.708-1.461-2.787-1.598-2.426-.309-4.989 1.286-5.593 3.715-.229.919-.443 1.886.197 2.802 1.06 1.515 3.073 1.659 3.958.594.352-.423.463-1.038.271-1.798-.054-.217-.265-.384-.474-.513a1.353 1.353 0 00-.269-.121z" fill="#292A34"/><path fill-rule="evenodd" clip-rule="evenodd" d="M331.931 246.986a1.095 1.095 0 001.563-1.508c-.443-.592-.959-.81-1.436-.842-.484-.033-.977.133-1.408.5-.433.366-.811.961-1.005 1.617-.203.689-.198 1.431.054 2.031.633 1.511 1.689 2.295 2.809 2.559 2.515.598 5.617-1.603 5.503-5.052-.061-1.835-1.123-3.001-2.329-3.984-2.781-2.265-7.094-1.93-9.609.51-1.149 1.114-1.767 2.65-1.927 4.312-.225 2.345.474 4.933 1.722 6.754.562.823 1.792 2.052 3 2.562 1.136.48 2.249.399 3.088-.519a1.093 1.093 0 10-1.614-1.477c-.091.1-.21.097-.33.074-.218-.043-.44-.152-.659-.284-.699-.424-1.349-1.11-1.68-1.592-.979-1.432-1.525-3.466-1.348-5.309.108-1.13.49-2.193 1.272-2.951 1.755-1.701 4.762-1.964 6.703-.383.734.599 1.486 1.243 1.523 2.359.062 1.849-1.463 3.172-2.81 2.851-.536-.127-.992-.553-1.295-1.275-.087-.207-.019-.467.07-.696.031-.082.089-.176.143-.257z" fill="#292A34"/><g fill-rule="evenodd" clip-rule="evenodd" fill="#fff"><path d="M361.518 421.148l7.931-2.528a.108.108 0 00.076-.102l.186-8.693v-.004l-.151-8.516a.112.112 0 00-.034-.077l-.532-.507a.11.11 0 00-.11-.025l-9.729 3.1a.108.108 0 00-.074.12l1.293 8.88v.003l1.001 8.257c.008.06.063.103.123.096l.02-.004z"/><path d="M343.655 426.838l7.898-2.516a.11.11 0 00.077-.102l.203-8.699v-.005l-.136-8.52a.105.105 0 00-.033-.077l-.536-.507a.11.11 0 00-.108-.025l-9.797 3.122a.108.108 0 00-.075.119l1.284 8.885v.002l1.08 8.233a.11.11 0 00.143.09z"/><path d="M326.264 432.379l7.933-2.526a.111.111 0 00.075-.103l.186-8.693v-.004l-.151-8.515a.114.114 0 00-.034-.078l-.533-.507a.105.105 0 00-.109-.024l-9.729 3.099a.11.11 0 00-.075.12l1.294 8.881v.002l1.001 8.258a.11.11 0 00.123.095c.006-.001.013-.002.019-.005z"/></g></g></g></svg>