<svg width="244" height="151" viewBox="0 0 244 151" fill="none" xmlns="http://www.w3.org/2000/svg">
<path d="M186.178 32.0028C185.392 32.0028 184.754 31.3631 184.754 30.5741C184.754 29.785 185.392 29.1453 186.178 29.1453C186.965 29.1453 187.603 29.785 187.603 30.5741C187.603 31.3631 186.965 32.0028 186.178 32.0028Z" fill="white"/>
<path d="M155.029 75.2058L123.806 86.6323C116.488 89.2997 112.773 97.3018 115.495 104.475C118.216 111.648 136.928 122.339 144.246 119.671L161.538 102.42L155.029 75.2058Z" fill="black"/>
<path d="M172.731 37.9375C177.236 49.0033 178.473 66.2657 162.659 83.7053C162.041 84.325 161.511 84.9447 160.981 85.5644C159.391 92.912 157.447 100.083 154.09 106.899C154.62 107.696 155.15 108.05 155.15 108.05C170.875 100.879 191.371 89.7251 197.202 60.246C200.913 41.8326 194.287 26.6062 184.834 20.4094C179.003 16.6028 174.321 11.5568 170.964 12.8847C170.964 12.8847 166.9 12.265 164.338 16.4257C164.338 16.4257 160.097 16.5143 160.539 20.675C160.804 22.8881 163.366 25.898 166.016 28.9964L164.426 29.9702C161.687 27.58 156.033 25.6324 157.535 30.0587C159.037 34.0424 163.896 36.6096 172.731 37.9375Z" fill="white"/>
<path d="M172.201 12C174.675 12 177.502 14.1247 180.683 16.6034C182.096 17.6657 183.598 18.8165 185.276 19.8788C194.376 25.8986 201.885 40.7709 197.91 60.4237C192.344 88.3093 174.233 100.083 155.504 108.67L155.151 108.847L154.886 108.67C154.797 108.67 154.267 108.228 153.649 107.342L153.384 106.988L153.561 106.634C157.094 99.4636 158.95 91.9388 160.363 85.4765V85.2994L160.452 85.2109C160.982 84.5912 161.512 83.9715 162.13 83.2633C179.534 63.9647 175.117 45.8169 172.201 38.5578C163.279 37.2299 158.42 34.4856 157.006 30.2364C156.388 28.3773 156.918 27.492 157.536 27.0494C159.126 25.9871 162.572 27.4921 164.604 29.0855L165.222 28.7314C162.572 25.7215 160.275 22.8887 160.098 20.6756C159.921 19.2592 160.275 18.1083 161.07 17.2231C162.042 16.0722 163.544 15.8066 164.162 15.7181C166.547 12 170.169 12.0886 171.053 12.0886C171.406 12.0886 171.848 12 172.201 12ZM155.328 107.254C173.615 98.8439 191.196 87.247 196.673 60.1581C200.472 41.2136 193.051 26.5183 184.57 20.9412C182.891 19.8789 181.389 18.728 179.887 17.5772C176.354 14.9214 173.35 12.6197 171.23 13.4165L171.053 13.505H170.876C170.7 13.505 167.166 13.0624 164.957 16.7804L164.78 17.1346H164.427C164.427 17.1346 162.837 17.223 161.865 18.1968C161.335 18.8165 161.158 19.6133 161.247 20.587C161.423 22.5346 163.985 25.5445 166.636 28.5544L167.166 29.1741L164.427 30.7675L164.074 30.4134C162.042 28.6429 159.038 27.5806 158.243 28.1117C157.801 28.3773 158.066 29.3511 158.243 29.7052C159.48 33.5118 164.25 35.9905 172.731 37.2299L173.085 37.3184L173.262 37.6725C176.265 44.9316 181.213 63.9647 163.102 84.1486C162.572 84.7682 162.042 85.2994 161.6 85.9191C160.275 92.2929 158.331 99.7291 154.886 106.811C155.062 106.988 155.239 107.165 155.328 107.254Z" fill="black"/>
<path d="M172.025 69.9844L171.406 69.3648C171.406 69.3648 167.02 73.2417 156.36 74.6659C145.7 76.0901 153.472 106.634 153.472 106.634L153.295 106.988L153.56 107.342C154.179 108.228 154.709 108.67 154.797 108.67L155.062 108.847L155.416 108.67C166.901 103.447 178.65 96.8963 187.397 84.9453L187.75 84.5027L187.308 84.0601C183.333 80.2535 179.181 76.4468 175.117 72.8173C174.481 72.1807 173.808 71.5819 173.122 70.9715L173.122 70.9715C172.759 70.6482 172.392 70.3216 172.025 69.9844Z" fill="black"/>
<path d="M164.869 16.957C166.636 20.2327 168.668 23.4198 170.965 26.4299C171.318 26.8726 172.113 26.4299 171.76 25.9873C169.463 22.9772 167.519 19.8786 165.664 16.5143C165.311 15.9832 164.604 16.4258 164.869 16.957Z" fill="black"/>
<path d="M169.993 13.8584C171.583 17.5767 173.969 20.7638 177.237 23.1542C177.679 23.5083 178.121 22.7115 177.679 22.3574C174.587 20.1441 172.29 17.134 170.788 13.5928C170.612 13.1501 169.816 13.3272 169.993 13.8584Z" fill="black"/>
<path d="M164.416 150.592C161.786 131.974 147.828 124.768 151.097 111.596C154.366 98.4231 146.137 81.6447 131.52 83.5948C120.248 85.1034 119.421 84.7722 114.687 85.3978C99.6568 87.4215 91.4279 103.758 97.7029 117.262C97.7029 117.262 99.2811 120.279 99.8072 124.511C100.296 128.742 90.386 137.787 92.1521 150.592H164.416Z" fill="black"/>
<path d="M97.718 137.368L113.522 116.12C118.301 109.712 116.946 100.681 110.512 95.9217C106.223 92.7496 100.764 92.2911 96.1852 94.2356C91.5206 96.2163 89.5172 101.417 88.1266 106.29C85.4277 115.749 85.3833 125.767 87.9984 135.249L92.1596 150.337L97.718 137.368Z" fill="black"/>
<path d="M186.68 69.1514C186.948 69.1514 187.14 68.9824 187.178 68.7459L187.599 63.9131C187.637 63.6766 187.407 63.4738 187.14 63.44C186.872 63.4062 186.642 63.609 186.604 63.8455L186.183 68.6783C186.144 68.9148 186.374 69.1176 186.642 69.1514H186.68Z" fill="white"/>
<path d="M133.745 55.7132C129.588 46.7243 119.675 42.489 111.688 46.2741C103.701 50.0593 100.465 60.3543 104.622 69.3432C104.622 69.3432 104.622 69.3433 104.624 69.4669C103.763 69.846 103.027 70.3476 102.538 70.8469C98.4983 74.3476 99.4095 79.4095 103.375 81.1037C106.844 82.5551 111.655 82.2627 114.583 78.6487C118.546 80.0955 122.866 80.1785 126.679 78.7823C138.487 74.4666 137.902 64.7021 133.745 55.7132Z" fill="white"/>
<path d="M107.586 82.7953C105.982 82.8104 104.374 82.4545 103.011 81.849C100.904 80.8794 99.5301 79.1609 99.139 76.9385C98.7457 74.4688 99.8332 71.9851 102.036 69.9857C102.526 69.6101 103.016 69.2345 103.63 68.8577C101.738 64.547 101.446 59.7266 102.763 55.3857C104.201 50.7964 107.253 47.1813 111.308 45.2881C115.487 43.3938 120.176 43.3497 124.514 45.2877C128.852 47.2257 132.463 50.6545 134.604 55.2102C137.627 61.7364 138.171 67.1728 136.484 71.5171C135.037 75.1172 131.854 77.8679 127.179 79.5195C123.366 80.9157 119.047 80.9563 114.962 79.6343C112.761 81.881 110.054 82.7721 107.586 82.7953ZM117.731 45.8461C115.757 45.8647 113.909 46.2531 112.066 47.1361C108.379 48.7784 105.694 52.019 104.498 56.1114C103.302 60.2038 103.592 64.7769 105.482 68.964L105.859 69.7024L105.123 70.204C104.387 70.582 103.651 71.0836 103.161 71.4592C101.447 72.9593 100.6 74.8224 100.988 76.6738C101.25 78.279 102.248 79.5064 103.735 80.1107C106.71 81.4432 111.151 81.2778 113.958 77.9123L114.324 77.4142L114.943 77.6557C118.659 79.1048 122.733 79.1902 126.422 77.7952C130.604 76.2718 133.421 73.8957 134.749 70.7914C136.318 66.9429 135.778 62.0011 133.006 55.9673C131.116 51.7803 127.877 48.5952 123.912 46.9011C121.807 46.1788 119.706 45.8276 117.731 45.8461Z" fill="black"/>
<path d="M122.254 62.4029C122.935 62.3764 123.466 61.8015 123.439 61.119C123.413 60.4364 122.839 59.9047 122.158 59.9313C121.477 59.9578 120.946 60.5327 120.973 61.2152C121 61.8978 121.573 62.4295 122.254 62.4029Z" fill="black"/>
<path d="M132.57 62.1544C131.068 59.8186 129.32 57.7324 127.205 55.8971C126.583 55.4082 125.728 56.282 126.349 56.7709C128.34 58.4837 130.087 60.5699 131.589 62.782C131.965 63.3969 132.946 62.7693 132.57 62.1544Z" fill="black"/>
<path d="M121.829 48.5278C119.142 51.5212 105.753 58.3252 110.875 64.9553C112.126 66.675 113.612 67.2793 112.271 69.0233C110.681 70.5223 109.182 68.6813 109.182 68.6813C106.72 69.3228 104.281 70.7084 102.935 71.9578C96.3413 66.3309 96.0063 58.6642 98.9461 56.2868C98.9461 56.2868 115.991 31.2689 124.073 37.7475C131.163 43.6171 121.829 48.5278 121.829 48.5278Z" fill="black"/>
<path d="M111.199 73.2379C108.596 72.0256 105.395 72.7978 103.564 75.0412C103.077 75.6642 103.949 76.5217 104.436 75.8987C105.9 74.0298 108.361 73.2646 110.593 74.3568C111.337 74.7208 111.82 73.6031 111.199 73.2379Z" fill="black"/>
<path fill-rule="evenodd" clip-rule="evenodd" d="M127.868 71.1174C128.079 70.9398 128.394 70.9672 128.572 71.1785C128.75 71.3899 128.722 71.7053 128.511 71.883L128.189 71.5003C128.511 71.883 128.511 71.8829 128.511 71.883L128.51 71.8838L128.509 71.8851L128.503 71.8895L128.485 71.9045C128.47 71.9172 128.447 71.9352 128.419 71.9577C128.362 72.0028 128.281 72.066 128.179 72.1411C127.977 72.2909 127.692 72.4899 127.362 72.6859C127.032 72.8809 126.649 73.0787 126.25 73.2202C125.856 73.3601 125.416 73.4565 124.984 73.4162C124.295 73.3518 123.571 72.9277 123.071 72.582C122.809 72.401 122.585 72.2241 122.426 72.0926C122.346 72.0267 122.282 71.9717 122.238 71.9326C122.215 71.9131 122.198 71.8975 122.186 71.8866L122.171 71.8736L122.167 71.8698L122.166 71.8686C122.166 71.8686 122.165 71.8679 122.504 71.5003M127.868 71.1174C127.868 71.1174 127.868 71.1174 127.868 71.1174V71.1174Z" fill="black"/>
<path d="M102.536 131.364C102.415 131.41 102.295 131.456 102.128 131.382C101.555 131.325 101.13 130.936 101.188 130.363L101.492 117.034C101.549 116.461 101.94 116.037 102.513 116.094C103.087 116.15 103.511 116.539 103.453 117.112L103.15 130.442C103.167 130.848 102.897 131.227 102.536 131.364Z" fill="white"/>
<path fill-rule="evenodd" clip-rule="evenodd" d="M67 4V21H50C47.7909 21 46 22.7909 46 25V29C46 31.2091 47.7909 33 50 33H67V50C67 52.2091 68.7909 54 71 54H75C77.2091 54 79 52.2091 79 50V33H96C98.2091 33 100 31.2091 100 29V25C100 22.7909 98.2091 21 96 21H79V4C79 1.79086 77.2091 0 75 0H71C68.7909 0 67 1.79086 67 4Z" fill="#13C8A4"/>
<path fill-rule="evenodd" clip-rule="evenodd" d="M244 151H0V149H244V151Z" fill="black"/>
<path d="M41.8352 89.7289H59.1667V107.016H41.8352V89.7289Z" fill="white"/>
<path d="M41 107.849H59.8977V89H41V107.849ZM58.3316 106.287H42.5661V90.5621H58.3316V106.287Z" fill="black"/>
<path d="M20.7306 116.729H49.3381V145.263H20.7306V116.729Z" fill="white"/>
<path d="M19.9999 146.097H50.1736V116H19.9999V146.097ZM48.6075 144.534H21.566V117.562H48.6075V144.534Z" fill="black"/>
<path d="M193.835 124.729H227.663V145.557H193.835V124.729Z" fill="white"/>
<path d="M193 146.39H228.394V124H193V146.39ZM226.828 144.828H194.566V125.562H226.828V144.828Z" fill="black"/>
<path d="M200.835 135.666H220.568C220.986 135.666 221.404 135.354 221.404 134.833C221.404 134.312 221.09 134 220.568 134H200.835C200.418 134 200 134.312 200 134.833C200 135.354 200.418 135.666 200.835 135.666Z" fill="black"/>
<path d="M72.2039 129.955C70.7047 129.955 69.4893 128.743 69.4893 127.247C69.4893 125.752 70.7047 124.54 72.2039 124.54C73.7031 124.54 74.9185 125.752 74.9185 127.247C74.9185 128.743 73.7031 129.955 72.2039 129.955Z" fill="white"/>
<path d="M72.2037 130.684C74.0831 130.684 75.6492 129.122 75.6492 127.247C75.6492 125.373 74.0831 123.811 72.2037 123.811C70.3244 123.811 68.7583 125.373 68.7583 127.247C68.7583 129.122 70.3244 130.684 72.2037 130.684ZM72.2037 125.373C73.2478 125.373 74.0831 126.206 74.0831 127.247C74.0831 128.289 73.2478 129.122 72.2037 129.122C71.1597 129.122 70.3244 128.289 70.3244 127.247C70.3244 126.206 71.1597 125.373 72.2037 125.373Z" fill="black"/>
<path d="M72.2039 140.369C70.7047 140.369 69.4893 139.157 69.4893 137.661C69.4893 136.166 70.7047 134.954 72.2039 134.954C73.7031 134.954 74.9185 136.166 74.9185 137.661C74.9185 139.157 73.7031 140.369 72.2039 140.369Z" fill="white"/>
<path d="M72.2037 141.098C74.0831 141.098 75.6492 139.536 75.6492 137.661C75.6492 135.787 74.0831 134.225 72.2037 134.225C70.3244 134.225 68.7583 135.787 68.7583 137.661C68.7583 139.536 70.3244 141.098 72.2037 141.098ZM72.2037 135.787C73.2478 135.787 74.0831 136.62 74.0831 137.661C74.0831 138.703 73.2478 139.536 72.2037 139.536C71.1597 139.536 70.3244 138.703 70.3244 137.661C70.3244 136.62 71.1597 135.787 72.2037 135.787Z" fill="black"/>
</svg>
