<svg width="280" height="81" viewBox="0 0 280 81" fill="none" xmlns="http://www.w3.org/2000/svg"><g clip-path="url(#clip0)"><path d="M102.06 30.87c-.74-.25-2.3-.41-3.87-.41-4.68 0-9.7 3.77-9.7 8.42v22.2H77.81v-39.6h10.27v4c2.39-2.94 6.74-4.82 11.6-4.82 1.2.01 2.41.12 3.61.33l-1.23 9.88z" fill="#434C54"/><path d="M114.14.66a6.82 6.82 0 016.98 6.78 6.82 6.82 0 01-6.98 6.78 6.82 6.82 0 01-6.99-6.78 6.82 6.82 0 016.99-6.78zm5.34 60.41H108.8V21.48h10.68v39.6z" fill="#434C54"/><path d="M151.04 20.66a18.32 18.32 0 00-11.67 4v-3.18H129.1v59.18h10.68V58.3a16.89 16.89 0 0010.69 3.6c5.92 0 11.59-2.62 15.12-6.7a21.1 21.1 0 005.01-13.88c0-11.68-8.71-20.66-19.56-20.66zm-1.3 31.6c-6.63 0-11-4.55-11-10.9 0-6.36 4.37-10.91 11-10.91 5.67 0 10.26 4.88 10.26 10.9 0 6.02-4.59 10.9-10.26 10.9z" fill="#434C54"/><path d="M235.45 61.07h-10.68V3.11h10.68v57.96z" fill="#434C54"/><path d="M279.01 54.79c-3.86 4.57-10.19 7.1-16.35 7.1-11.92 0-20.88-8.16-20.88-20.57 0-11.02 7.56-20.66 19.4-20.66 11.01 0 18.82 9.23 18.82 20.25 0 1.01-.08 2.02-.25 3.02h-27.61c.57 5.55 5.1 9.39 10.76 9.39 4.52 0 8.14-2.53 10.03-4.57l6.08 6.04zm-9.94-18.62a7.93 7.93 0 00-7.9-6.93c-4.43 0-8.05 3.34-8.54 6.93h16.44z" fill="#434C54"/><path d="M198.88 20.66a18.32 18.32 0 00-11.67 4v-3.18h-10.28v59.18h10.69V58.3a16.89 16.89 0 0010.68 3.6c5.92 0 11.6-2.62 15.13-6.7a21.1 21.1 0 005-13.88c0-11.68-8.7-20.66-19.55-20.66zm-1.3 31.6c-6.64 0-11-4.55-11-10.9 0-6.36 4.36-10.91 11-10.91 5.67 0 10.26 4.88 10.26 10.9 0 6.02-4.6 10.9-10.26 10.9z" fill="#434C54"/><path d="M55.78 46.65c-2.4-1.38-5.13-1.79-7.82-1.88-2.25-.08-5.62-1.51-5.62-5.6a5.69 5.69 0 015.62-5.59c2.7-.1 5.41-.5 7.82-1.88a14.2 14.2 0 007.13-12.25 14.08 14.08 0 00-7.13-12.26 14.33 14.33 0 00-19.46 5.18 14.08 14.08 0 00-1.91 7.08c0 2.74.98 5.26 2.23 7.6 1.06 1.97 1.59 5.63-2.03 7.7a5.74 5.74 0 01-7.72-2.1c-1.41-2.25-3.12-4.36-5.51-5.73A14.33 14.33 0 001.9 32.1a14.08 14.08 0 005.22 19.33 14.33 14.33 0 0014.25 0c2.39-1.37 4.1-3.47 5.51-5.72 1.16-1.85 4.07-4.2 7.72-2.1a5.67 5.67 0 012.03 7.7c-1.25 2.33-2.23 4.85-2.23 7.6a14.08 14.08 0 007.12 12.25A14.33 14.33 0 0061 65.98a14.08 14.08 0 00-5.22-19.33z" fill="url(#paint0_linear)"/></g><defs><linearGradient id="paint0_linear" x1="17.7416" y1="15.6915" x2="64.7101" y2="62.9803" gradientUnits="userSpaceOnUse"><stop stop-color="#00AAE4"/><stop offset="1" stop-color="#006097"/></linearGradient><clipPath id="clip0"><path fill="#fff" transform="translate(0 .66)" d="M0 0h280v80H0z"/></clipPath></defs></svg>