<svg width="15" height="16" viewBox="0 0 15 16" fill="none" xmlns="http://www.w3.org/2000/svg">
<path fill-rule="evenodd" clip-rule="evenodd" d="M12.2259 6.61293C12.2259 9.71286 9.71286 12.2259 6.61293 12.2259C3.51299 12.2259 1 9.71286 1 6.61293C1 3.51299 3.51299 1 6.61293 1C9.71286 1 12.2259 3.51299 12.2259 6.61293ZM10.5787 11.9052C9.47384 12.7345 8.10077 13.2259 6.61293 13.2259C2.96071 13.2259 0 10.2651 0 6.61293C0 2.96071 2.96071 0 6.61293 0C10.2651 0 13.2259 2.96071 13.2259 6.61293C13.2259 8.46102 12.4677 10.1321 11.2456 11.332L14.373 14.4594L13.6659 15.1665L10.4916 11.9923L10.5787 11.9052Z" fill="#585F67"/>
</svg>
