<svg width="80" height="80" viewBox="0 0 80 80" fill="none" xmlns="http://www.w3.org/2000/svg">
<path d="M40 80C62.1176 80 80 62.1176 80 40C80 17.8824 62.1176 0 40 0C17.8824 0 0 17.8824 0 40C0 62.1176 17.8824 80 40 80Z" fill="#13C8A4"/>
<path d="M26.447 8.94119L28.6117 15.0588C28.9882 16 29.3647 16.6588 29.9294 17.0353C30.4941 17.4118 31.1529 17.4118 32 17.1294C32.847 16.8471 33.4117 16.3765 33.6 15.7177C33.7882 15.153 33.6941 14.3059 33.4117 13.3647L31.247 7.24708L32.4706 6.87061L34.5412 12.7059C34.8235 13.4588 34.9176 14.1177 35.0117 14.6824C35.1059 15.2471 35.0117 15.8118 34.8235 16.1883C34.6353 16.6588 34.3529 17.0353 33.9764 17.3177C33.6 17.6941 33.0353 17.9765 32.3765 18.1647C31.7176 18.353 31.1529 18.5412 30.5882 18.5412C30.1176 18.5412 29.647 18.353 29.2706 18.1647C28.8941 17.9765 28.5176 17.5059 28.2353 17.0353C27.9529 16.5647 27.6706 15.9059 27.3882 15.2471L25.3176 9.41178L26.447 8.94119Z" fill="white"/>
<path d="M40 16.847C39.2471 16.847 38.6824 16.6588 38.2118 16.3765C37.7412 16.0941 37.2706 15.7176 36.9883 15.247L37.8353 14.5882C38.1177 14.9647 38.4942 15.247 38.8706 15.5294C39.2471 15.7176 39.6236 15.8118 40.1883 15.9059C40.6589 15.9059 41.1295 15.8118 41.4118 15.6235C41.6942 15.4353 41.8824 15.0588 41.8824 14.6823C41.8824 14.4 41.7883 14.1176 41.6 13.9294C41.4118 13.7412 41.0353 13.5529 40.5647 13.4588L39.9059 13.3647C39.5295 13.2706 39.2471 13.2706 38.8706 13.0823C38.5883 12.9882 38.3059 12.8 38.1177 12.6118C37.9295 12.4235 37.7412 12.2353 37.6471 11.9529C37.553 11.6706 37.4589 11.3882 37.4589 11.0118C37.4589 10.6353 37.553 10.2588 37.6471 9.97646C37.8353 9.69411 38.0236 9.41175 38.2118 9.22352C38.4 9.03528 38.7765 8.94116 39.0589 8.84705C39.4353 8.75293 39.8118 8.75293 40.1883 8.75293C40.8471 8.75293 41.3177 8.84705 41.7883 9.1294C42.1648 9.31764 42.5412 9.69411 42.9177 10.0706L42.0706 10.8235C41.8824 10.5412 41.6942 10.3529 41.3177 10.1647C41.0353 9.97646 40.5647 9.88234 40.0942 9.88234C39.6236 9.88234 39.2471 9.97646 38.9648 10.1647C38.6824 10.3529 38.5883 10.6353 38.5883 11.0118C38.5883 11.3882 38.6824 11.6706 38.9648 11.8588C39.2471 12.047 39.6236 12.1412 40.0942 12.2353L40.6589 12.3294C41.5059 12.5176 42.1647 12.7059 42.4471 13.0823C42.8236 13.4588 43.0118 13.9294 43.0118 14.4941C43.0118 15.247 42.7295 15.8118 42.2589 16.2823C41.6 16.6588 40.8471 16.847 40 16.847Z" fill="white"/>
<path d="M46.8706 17.8823C46.4001 17.694 45.9295 17.5058 45.553 17.2234C45.1765 16.9411 44.8942 16.5646 44.7059 16.094C44.5177 15.6234 44.4236 15.1528 44.4236 14.6823C44.4236 14.1176 44.5177 13.5528 44.7059 12.9881C44.8942 12.4234 45.1765 11.8587 45.4589 11.4823C45.7412 11.0117 46.1177 10.7293 46.4942 10.447C46.8706 10.1646 47.3412 10.0705 47.8118 9.97638C48.2824 9.88226 48.753 9.97638 49.2236 10.1646C49.6942 10.3528 50.1648 10.5411 50.4471 10.8234C50.8236 11.1058 51.0118 11.4823 51.2 11.8587C51.3883 12.2352 51.4824 12.7058 51.4824 13.1764C51.4824 13.647 51.3883 14.2117 51.2942 14.6823L51.1059 15.247L45.7412 13.5528L45.6471 13.9293C45.553 14.2117 45.553 14.5881 45.553 14.8705C45.553 15.1528 45.6471 15.4352 45.7412 15.7176C45.8353 15.9999 46.0236 16.1881 46.3059 16.3764C46.5883 16.5646 46.8706 16.7528 47.153 16.847C47.6236 17.0352 48.0942 17.0352 48.4706 16.9411C48.8471 16.847 49.2236 16.5646 49.6 16.2823L50.2589 17.1293C49.8824 17.5999 49.3177 17.8823 48.753 17.9764C48.2824 18.1646 47.6236 18.1646 46.8706 17.8823ZM49.0353 11.1058C48.753 11.0117 48.3765 11.0117 48.0942 11.0117C47.8118 11.0117 47.5295 11.1058 47.2471 11.294C46.9648 11.4823 46.7765 11.6705 46.5883 11.8587C46.4001 12.1411 46.2118 12.4234 46.1177 12.7058V12.7999L50.2589 14.0234L50.353 13.8352C50.5412 13.1764 50.5412 12.6117 50.2589 12.047C49.9765 11.4823 49.6 11.294 49.0353 11.1058Z" fill="white"/>
<path d="M51.2942 19.4823L55.4354 12.894L56.4707 13.5529L55.7177 14.7764H55.8118C56.0942 14.494 56.5648 14.3999 56.9413 14.3058C57.3177 14.2117 57.8824 14.3999 58.4471 14.7764L58.8236 15.0587L58.1648 16.094L57.6001 15.7176C57.0354 15.3411 56.5648 15.1529 56.0942 15.247C55.6236 15.3411 55.3412 15.4352 55.153 15.7176L52.3295 20.1411L51.2942 19.4823Z" fill="white"/>
<path d="M11.6705 54.3057C11.3882 53.6469 11.2 53.0822 11.2 52.5175C11.2 51.9528 11.3882 51.3881 11.5764 50.9175L12.6117 51.3881C12.4235 51.8587 12.3294 52.2352 12.3294 52.7057C12.3294 53.1763 12.4235 53.5528 12.6117 54.0234C12.8 54.494 13.0823 54.7763 13.4588 54.9646C13.7411 55.1528 14.1176 55.1528 14.4941 54.9646C14.7764 54.8704 14.9647 54.5881 15.0588 54.3057C15.1529 54.0234 15.1529 53.6469 14.9647 53.1763L14.7764 52.6116C14.6823 52.2352 14.5882 51.9528 14.4941 51.5763V50.6352C14.4941 50.3528 14.6823 50.0705 14.8705 49.8822C15.0588 49.694 15.3411 49.4116 15.6235 49.3175C16 49.1293 16.2823 49.0352 16.6588 49.0352C16.9411 49.0352 17.3176 49.1293 17.6 49.2234C17.8823 49.3175 18.1647 49.5999 18.3529 49.7881C18.6352 50.0705 18.8235 50.3528 19.0117 50.7293C19.2941 51.294 19.4823 51.8587 19.4823 52.3293C19.4823 52.7999 19.3882 53.2704 19.2 53.741L18.1647 53.3646C18.2588 53.0822 18.3529 52.7999 18.447 52.4234C18.5411 52.0469 18.3529 51.6705 18.1647 51.1999C17.9764 50.7293 17.6941 50.4469 17.3176 50.3528C16.9411 50.2587 16.6588 50.2587 16.3764 50.4469C16 50.6352 15.8117 50.8234 15.8117 51.1999C15.8117 51.4822 15.8117 51.8587 16 52.3293V52.7057C16.2823 53.5528 16.3764 54.2116 16.1882 54.6822C16 55.1528 15.7176 55.5293 15.1529 55.8116C14.4941 56.1881 13.8352 56.1881 13.1764 55.9057C12.5176 55.6234 12.1411 55.0587 11.6705 54.3057Z" fill="white"/>
<path d="M17.6 62.4941C17.2235 62.1177 16.9412 61.7412 16.7529 61.2706C16.5647 60.8 16.5647 60.4235 16.5647 59.9529C16.5647 59.4824 16.7529 59.0118 16.9412 58.5412C17.1294 58.0706 17.5059 57.6 17.9765 57.2235C18.4471 56.7529 18.8235 56.4706 19.2941 56.1882C19.7647 55.9059 20.2353 55.8118 20.7059 55.8118C21.1765 55.8118 21.647 55.8118 22.0235 56C22.4 56.1882 22.8706 56.4706 23.2471 56.8471C23.6235 57.2235 23.9059 57.6 24 58.0706C24.0941 58.5412 24.1882 58.9177 24.1882 59.3882C24.1882 59.8588 24 60.2353 23.8118 60.7059C23.6235 61.1765 23.247 61.5529 22.8706 61.9294L22.6823 62.1177L18.7294 58.1647L18.4471 58.4471C18.2588 58.6353 18.0706 58.9177 17.8823 59.2C17.7882 59.4824 17.6941 59.7647 17.6941 60.0471C17.6941 60.3294 17.6941 60.6118 17.8823 60.8941C17.9765 61.1765 18.1647 61.4588 18.4471 61.7412C18.8235 62.1177 19.2 62.3059 19.5765 62.4C19.9529 62.4941 20.4235 62.4941 20.8941 62.3059L21.0823 63.3412C20.5176 63.5294 19.9529 63.5294 19.2941 63.4353C18.7294 63.3412 18.1647 62.9647 17.6 62.4941ZM22.6823 57.4118C22.4941 57.2235 22.2118 57.0353 21.9294 56.9412C21.647 56.8471 21.3647 56.7529 21.0823 56.7529C20.8 56.7529 20.5176 56.8471 20.2353 56.9412C19.9529 57.0353 19.6706 57.2235 19.4823 57.5059L19.3882 57.6L22.4 60.6118L22.4941 60.5177C22.9647 60.0471 23.2471 59.4824 23.2471 58.9177C23.3412 58.3529 23.0588 57.8824 22.6823 57.4118Z" fill="white"/>
<path d="M24.3764 67.3881C23.9999 67.1999 23.8117 66.9175 23.7176 66.6352C23.6235 66.3528 23.7176 65.9763 23.9058 65.694L28.9882 57.2234L30.0235 57.8822L24.847 66.541L25.7882 67.1057L25.2235 68.0469L24.3764 67.3881Z" fill="white"/>
<path d="M31.1529 70.4942C30.6823 70.306 30.2117 70.1177 29.8352 69.8354C29.4588 69.553 29.1764 69.0824 28.9882 68.706C28.7999 68.2354 28.7058 67.7648 28.7058 67.2942C28.7058 66.7295 28.7999 66.1648 28.894 65.6001C29.0823 65.0354 29.2705 64.4707 29.647 64.0942C29.9293 63.6236 30.3058 63.3412 30.6823 63.0589C31.0587 62.7765 31.5293 62.6824 31.9999 62.5883C32.4705 62.4942 32.9411 62.5883 33.5058 62.6824C33.9764 62.8707 34.447 63.0589 34.7293 63.3412C35.1058 63.6236 35.294 64.0001 35.4823 64.3765C35.6705 64.753 35.7646 65.2236 35.7646 65.6942C35.7646 66.1648 35.6705 66.7295 35.5764 67.2001L35.3882 67.7648L30.0235 66.1648L29.9293 66.5412C29.8352 66.8236 29.8352 67.2001 29.8352 67.4824C29.8352 67.7648 29.9293 68.0471 30.0235 68.3295C30.1176 68.6118 30.3058 68.8001 30.5882 68.9883C30.8705 69.1765 31.1529 69.3648 31.4352 69.4589C31.9058 69.553 32.3764 69.6471 32.7529 69.4589C33.1293 69.3648 33.5058 69.0824 33.8823 68.706L34.5411 69.553C34.1646 70.0236 33.694 70.306 33.0352 70.4942C32.4705 70.6824 31.8117 70.6824 31.1529 70.4942ZM33.1293 63.6236C32.847 63.5295 32.4705 63.5295 32.1882 63.5295C31.9058 63.5295 31.6235 63.6236 31.3411 63.8118C31.0587 64.0001 30.8705 64.1883 30.6823 64.3765C30.494 64.5648 30.3999 64.9412 30.3058 65.2236V65.3177L34.447 66.5412V66.353C34.6352 65.6942 34.6352 65.1295 34.3529 64.5648C34.1646 64.0942 33.694 63.8118 33.1293 63.6236Z" fill="white"/>
<path d="M41.4118 71.7175C40.8471 71.7175 40.3765 71.6234 39.9059 71.4352C39.4353 71.2469 39.0589 70.9646 38.7765 70.6822C38.4942 70.3058 38.2118 69.9293 38.0236 69.4587C37.8353 68.9881 37.7412 68.4234 37.7412 67.7646C37.7412 67.1058 37.7412 66.5411 37.9294 66.0705C38.0236 65.5999 38.3059 65.1293 38.5883 64.7528C38.8706 64.3764 39.2471 64.094 39.6236 63.9058C40.0942 63.7175 40.5647 63.6234 41.0353 63.5293C41.7883 63.5293 42.4471 63.6234 42.9177 63.9999C43.3883 64.2822 43.7647 64.7528 44.0471 65.3175L43.0118 65.8822C42.8236 65.5058 42.6353 65.2234 42.2589 64.9411C41.9765 64.7528 41.5059 64.6587 41.0353 64.6587C40.6589 64.6587 40.3765 64.7528 40.0942 64.8469C39.8118 64.9411 39.6236 65.1293 39.4353 65.3175C39.2471 65.5058 39.153 65.7881 39.0589 66.0705C38.9647 66.3528 38.9647 66.6352 38.9647 67.0116V68.3293C38.9647 68.9881 39.153 69.5528 39.5294 70.0234C39.9059 70.494 40.4706 70.6822 41.1294 70.5881C42.0706 70.5881 42.8236 70.1175 43.2 69.1764L44.0471 69.7411C43.8589 70.3058 43.4824 70.7764 43.0118 71.1528C42.8236 71.4352 42.1647 71.6234 41.4118 71.7175Z" fill="white"/>
<path d="M49.5059 70.1177C49.1295 70.2118 48.753 70.2118 48.4706 70.0236C48.1883 69.8353 48.0001 69.553 47.9059 69.2706L46.3059 64.0001L45.0824 64.3765L44.8 63.3412L45.4589 63.153C45.7412 63.0589 45.8353 62.9648 45.9295 62.8706C46.0236 62.7765 46.0236 62.5883 45.9295 62.3059L45.553 60.8942L46.5883 60.6118L47.2471 62.6824L48.8471 62.2118L49.1295 63.2471L47.5295 63.7177L49.1295 69.0824L50.6353 68.6118L50.9177 69.6471L49.5059 70.1177Z" fill="white"/>
<path d="M50.0706 59.4824C49.8823 59.5765 49.6 59.6706 49.5059 59.5765C49.3176 59.4824 49.2235 59.3883 49.1294 59.2L49.0353 59.0118C48.9412 58.9177 48.9412 58.7294 48.9412 58.5412C48.9412 58.353 49.1294 58.2588 49.3176 58.0706C49.5059 57.9765 49.7882 57.8824 49.8823 57.9765C50.0706 58.0706 50.1647 58.1647 50.2588 58.353L50.3529 58.5412C50.447 58.7294 50.447 58.9177 50.447 59.0118C50.447 59.2 50.3529 59.3883 50.0706 59.4824ZM50.3529 61.3647L51.3882 60.8L54.9647 67.6706L53.9294 68.2353L50.3529 61.3647Z" fill="white"/>
<path d="M60.9881 63.7177C60.6117 64.0941 60.1411 64.2824 59.7646 64.4706C59.3881 64.6588 58.8234 64.6588 58.3528 64.5647C57.8823 64.4706 57.4117 64.3765 56.9411 64.0941C56.4705 63.8118 56.094 63.4353 55.6234 62.9647C55.247 62.4941 54.8705 62.0236 54.6823 61.553C54.494 61.0824 54.3999 60.6118 54.3999 60.1412C54.3999 59.6706 54.494 59.2 54.6823 58.8236C54.8705 58.353 55.1528 57.9765 55.5293 57.6941C55.9058 57.3177 56.3764 57.1294 56.7528 56.9412C57.2234 56.8471 57.694 56.753 58.1646 56.8471C58.6352 56.9412 59.1058 57.0353 59.5764 57.3177C60.047 57.6 60.4234 57.9765 60.894 58.4471C61.2705 58.9177 61.647 59.3883 61.8352 59.8589C62.0234 60.3294 62.1176 60.8 62.1176 61.2706C62.1176 61.7412 62.0234 62.2118 61.8352 62.5883C61.647 63.0589 61.3646 63.4353 60.9881 63.7177ZM60.3293 62.9647C60.7999 62.4941 61.0823 62.0236 61.0823 61.4589C61.0823 60.8941 60.894 60.3294 60.3293 59.6706L59.5764 58.8236C59.0117 58.1647 58.447 57.8824 57.8823 57.8824C57.3176 57.8824 56.7528 58.0706 56.2823 58.4471C55.8117 58.9177 55.5293 59.3883 55.5293 59.953C55.5293 60.5177 55.7175 61.0824 56.2823 61.7412L57.0352 62.5883C57.5999 63.2471 58.1646 63.5294 58.7293 63.5294C59.294 63.6236 59.7646 63.4353 60.3293 62.9647Z" fill="white"/>
<path d="M66.1647 57.8823L59.3882 54.1176L59.9529 53.0823L61.0823 53.647V53.5529C60.8 53.1764 60.6117 52.8 60.5176 52.3294C60.4235 51.8588 60.6117 51.3882 60.8941 50.9176C61.2705 50.2588 61.8352 49.7882 62.4941 49.6C63.1529 49.4117 63.9058 49.6 64.7529 50.0706L69.0823 52.5176L68.5176 53.5529L64.2823 51.2C63.0588 50.5411 62.1176 50.7294 61.5529 51.7647C61.4588 51.9529 61.3647 52.2353 61.2705 52.4235C61.1764 52.6117 61.1764 52.8941 61.1764 53.0823C61.1764 53.2706 61.2705 53.4588 61.3647 53.647C61.4588 53.8353 61.647 54.0235 61.8352 54.1176L66.5411 56.7529L66.1647 57.8823Z" fill="white"/>
</svg>
