<svg width="276" height="32" viewBox="0 0 276 32" fill="none" xmlns="http://www.w3.org/2000/svg"><path d="M0 4a4 4 0 014-4h268a4 4 0 014 4v24a4 4 0 01-4 4H4a4 4 0 01-4-4V4z" fill="#EE7D8B"/><path d="M14.97 20.17V9a1 1 0 011-1h.06a1 1 0 011 1v11.17l4.82-4.68a1 1 0 011.4 0l.01.02a1 1 0 010 1.43L16 24l-7.26-7.06a1 1 0 010-1.44l.02-.01a1 1 0 011.4 0l4.81 4.68z" fill="#fff"/><path d="M258.78 24c-.38 0-.72-.03-1.02-.08-.34-.05-.56-.37-.56-.7v-.75c0-.2.19-.36.4-.32.37.06.7.1 1 .1 1.26 0 1.9-.71 1.9-2.13V9.15a1.15 1.15 0 012.3 0v10.9c0 1.28-.34 2.26-1.03 2.93-.68.68-1.68 1.02-3 1.02z" fill="#fff"/><path d="M33.13 12.43h2.54c1.18 0 2.04.18 2.56.52.53.34.79.89.79 1.63 0 .5-.13.91-.39 1.25-.26.33-.63.54-1.11.62v.06c.6.11 1.04.34 1.32.68a2 2 0 01.43 1.35 2.2 2.2 0 01-.8 1.81c-.54.43-1.29.65-2.25.65h-3.09v-8.57zm1.4 3.54h1.35c.58 0 1.01-.09 1.28-.27.27-.19.4-.5.4-.95 0-.4-.14-.7-.43-.88a2.7 2.7 0 00-1.39-.26h-1.2v2.36zm0 1.14v2.71h1.49a2.2 2.2 0 001.32-.33c.3-.23.45-.58.45-1.07 0-.44-.15-.77-.45-.99-.3-.21-.77-.32-1.4-.32h-1.4z" fill="#fff"/><path d="M45.48 21l-.2-.85h-.07c-.19.3-.46.54-.82.7-.35.18-.75.27-1.2.27-.79 0-1.38-.2-1.76-.59-.39-.39-.58-.98-.58-1.77v-4.24h1.39v4c0 .5.1.86.3 1.11.2.25.52.37.96.37.57 0 1-.17 1.27-.51.27-.35.4-.93.4-1.74v-3.23h1.39V21h-1.08z" fill="#fff"/><path d="M47.54 14.52h1.5l1.32 3.67c.2.53.33 1.02.4 1.48h.04c.04-.21.1-.47.2-.78.09-.3.59-1.77 1.48-4.37h1.5l-2.78 7.34c-.5 1.35-1.34 2.02-2.52 2.02-.3 0-.6-.03-.89-.1V22.7c.2.05.44.07.71.07.66 0 1.13-.38 1.4-1.15l.24-.61-2.6-6.48z" fill="#fff"/><path d="M63.16 18.67c0 .77-.28 1.36-.83 1.8a3.6 3.6 0 01-2.28.65c-.96 0-1.76-.15-2.37-.45v-1.33a6.49 6.49 0 002.47.6c.55 0 .96-.11 1.22-.32.27-.21.4-.5.4-.85 0-.32-.12-.6-.36-.82a5.47 5.47 0 00-1.5-.79 3.97 3.97 0 01-1.65-1.08 2.3 2.3 0 01-.48-1.47c0-.71.25-1.27.76-1.68.5-.41 1.19-.62 2.04-.62a6 6 0 012.45.54l-.44 1.14a5.35 5.35 0 00-2.04-.48c-.46 0-.8.1-1.03.3a.96.96 0 00-.36.78c0 .22.05.41.14.57.1.16.25.3.47.45.21.14.6.33 1.16.56.63.26 1.09.5 1.38.73.3.23.5.48.65.77.13.28.2.62.2 1z" fill="#fff"/><path d="M70.37 21H69v-3.98c0-.5-.1-.88-.3-1.12-.2-.25-.52-.37-.96-.37-.58 0-1 .17-1.28.52-.27.34-.4.92-.4 1.73V21h-1.38v-9.12h1.38v2.32c0 .37-.02.76-.07 1.19h.09c.18-.32.44-.56.78-.73.33-.17.72-.26 1.17-.26 1.57 0 2.35.8 2.35 2.38V21z" fill="#fff"/><path d="M78.04 17.75c0 1.06-.27 1.88-.82 2.48-.54.59-1.3.89-2.26.89a3.1 3.1 0 01-1.61-.41 2.7 2.7 0 01-1.07-1.18 4.01 4.01 0 01-.38-1.78c0-1.05.27-1.87.81-2.46.54-.6 1.3-.89 2.28-.89.94 0 1.68.3 2.23.91.54.6.82 1.41.82 2.44zm-4.72 0c0 1.5.55 2.24 1.66 2.24 1.1 0 1.64-.75 1.64-2.24 0-1.48-.55-2.22-1.65-2.22-.58 0-1 .19-1.26.57-.26.38-.39.93-.39 1.65z" fill="#fff"/><path d="M82.91 14.4c.28 0 .5.02.69.06l-.14 1.28a2.6 2.6 0 00-.6-.07c-.56 0-1 .18-1.35.54-.34.36-.5.83-.5 1.4V21h-1.39v-6.48h1.08l.18 1.14h.08c.21-.38.49-.7.83-.92.35-.22.72-.34 1.12-.34z" fill="#fff"/><path d="M87.22 20c.33 0 .67-.05 1-.15v1.03a3.85 3.85 0 01-1.34.23c-1.3 0-1.95-.68-1.95-2.06v-3.49h-.88v-.6l.95-.51.47-1.37h.85v1.44h1.84v1.04h-1.84v3.47c0 .33.08.58.24.74.17.16.39.23.66.23z" fill="#fff"/></svg>