<svg width="475" height="248" viewBox="0 0 475 248" fill="none" xmlns="http://www.w3.org/2000/svg">
<mask id="mask0" mask-type="alpha" maskUnits="userSpaceOnUse" x="0" y="0" width="475" height="248">
<path d="M0 0H475V248H0V0Z" fill="#C4C4C4"/>
</mask>
<g mask="url(#mask0)">
<path fill-rule="evenodd" clip-rule="evenodd" d="M475 43.9565H-126V42.9565H475V43.9565Z" fill="#E1E1E1"/>
<path fill-rule="evenodd" clip-rule="evenodd" d="M475 86.913H-126V85.913H475V86.913Z" fill="#E1E1E1"/>
<path fill-rule="evenodd" clip-rule="evenodd" d="M475 129.87H-126V128.87H475V129.87Z" fill="#E1E1E1"/>
<path fill-rule="evenodd" clip-rule="evenodd" d="M475 172.826H-126V171.826H475V172.826Z" fill="#E1E1E1"/>
<path fill-rule="evenodd" clip-rule="evenodd" d="M475 215.783H-126V214.783H475V215.783Z" fill="#E1E1E1"/>
<path fill-rule="evenodd" clip-rule="evenodd" d="M12.6925 248L12.6925 1L13.6925 1L13.6925 248L12.6925 248Z" fill="#E1E1E1"/>
<path fill-rule="evenodd" clip-rule="evenodd" d="M58.9232 248L58.9232 1L59.9232 1L59.9232 248L58.9232 248Z" fill="#E1E1E1"/>
<path fill-rule="evenodd" clip-rule="evenodd" d="M105.154 248L105.154 1L106.154 1L106.154 248L105.154 248Z" fill="#E1E1E1"/>
<path fill-rule="evenodd" clip-rule="evenodd" d="M151.385 248L151.385 1L152.385 1L152.385 248L151.385 248Z" fill="#E1E1E1"/>
<path fill-rule="evenodd" clip-rule="evenodd" d="M197.615 248L197.615 1L198.615 1L198.615 248L197.615 248Z" fill="#E1E1E1"/>
<path fill-rule="evenodd" clip-rule="evenodd" d="M243.846 248L243.846 1L244.846 1L244.846 248L243.846 248Z" fill="#E1E1E1"/>
<path fill-rule="evenodd" clip-rule="evenodd" d="M290.077 248L290.077 1L291.077 1L291.077 248L290.077 248Z" fill="#E1E1E1"/>
<path fill-rule="evenodd" clip-rule="evenodd" d="M336.308 248L336.308 1L337.308 1L337.308 248L336.308 248Z" fill="#E1E1E1"/>
<path fill-rule="evenodd" clip-rule="evenodd" d="M382.539 248L382.539 1L383.539 1L383.539 248L382.539 248Z" fill="#E1E1E1"/>
<path fill-rule="evenodd" clip-rule="evenodd" d="M428.769 248L428.769 1L429.769 1L429.769 248L428.769 248Z" fill="#E1E1E1"/>
<path d="M201.74 212.67H186.599V248H201.74V212.67Z" fill="#EE7D8B"/>
<path d="M154.634 195.847H139.493V248H154.634V195.847Z" fill="#EE7D8B"/>
<path d="M15.1412 195.847H-1.90735e-06V248H15.1412V195.847Z" fill="#EE7D8B"/>
<path d="M61 223H46V248H61V223Z" fill="#EE7D8B"/>
<path d="M131.081 212.67H115.94V248H131.081V212.67Z" fill="#EE7D8B"/>
<path d="M248.846 94.9053H233.705V248H248.846V94.9053Z" fill="#EE7D8B"/>
<path d="M225.293 142.011H210.152V248H225.293V142.011Z" fill="#13C8A4"/>
<path d="M178.187 184.07H163.046V248H178.187V184.07Z" fill="#13C8A4"/>
<path d="M107.528 184.07H92.3868V248H107.528V184.07Z" fill="#13C8A4"/>
<path d="M84 207H69V248H84V207Z" fill="#13C8A4"/>
<path d="M38 158H23V248H38V158Z" fill="#13C8A4"/>
<path d="M198.375 45.2757C198.375 69.8979 218.336 89.8582 242.958 89.8582C267.58 89.8582 287.541 69.8979 287.541 45.2757C287.541 20.6534 267.58 0.693115 242.958 0.693115C218.336 0.693115 198.375 20.6534 198.375 45.2757Z" fill="white"/>
<path d="M232.712 71.9528H252.562V87.2567H232.712V71.9528Z" fill="black"/>
<path d="M232.4 87.5667H252.872V71.6409H232.4V87.5667ZM252.251 86.9448H233.021V72.2628H252.251V86.9448Z" fill="black"/>
<path d="M221.76 44.8258C221.76 31.963 232.448 21.7045 245.063 23.1886C254.189 24.2629 261.755 31.7186 263.227 41.1765C264.38 48.1229 262.194 55.2067 257.328 60.296C254.322 63.3187 252.612 67.3932 252.561 71.6554V71.9506H232.711V71.7577C232.693 67.4953 231.009 63.4089 228.018 60.3725C223.979 56.2078 221.733 50.6269 221.76 44.8258Z" fill="#EE7D8B"/>
<path d="M232.332 72.33H252.94V71.6556C252.988 67.491 254.66 63.5096 257.601 60.5598C262.561 55.3918 264.786 48.1831 263.601 41.1185C262.096 31.4453 254.492 23.9172 245.108 22.813C239.199 22.094 233.269 23.9714 228.85 27.9598C224.292 32.1008 221.603 37.9099 221.395 44.0649C221.187 50.2199 223.478 56.1972 227.747 60.6363C230.677 63.5966 232.324 67.5912 232.332 71.7563V72.33ZM252.182 71.5717H233.088C233.032 67.2735 231.312 63.1645 228.289 60.1083C224.165 55.8171 221.951 50.0405 222.152 44.0922C222.353 38.1439 224.95 32.5296 229.354 28.526C233.612 24.6833 239.326 22.8739 245.019 23.5655C254.066 24.6306 261.399 31.8967 262.852 41.2349C263.999 48.0647 261.85 55.0346 257.056 60.0326C254 63.1038 252.253 67.2397 252.182 71.5717Z" fill="#EE7D8B"/>
<path d="M249.638 42.7896C248.533 42.7896 248.008 43.7233 247.544 44.5456C247.069 45.3912 246.735 45.9042 246.131 45.9042C245.526 45.9042 245.195 45.3912 244.717 44.5464C244.255 43.7233 243.73 42.7896 242.626 42.7896C241.522 42.7896 240.997 43.7233 240.536 44.5464C240.059 45.3912 239.728 45.9042 239.122 45.9042C238.517 45.9042 238.188 45.3912 237.709 44.5464C237.246 43.7233 236.723 42.7896 235.618 42.7896C234.514 42.7896 233.993 43.7233 233.531 44.5456C233.057 45.3912 232.725 45.9042 232.117 45.9042C231.902 45.9042 231.728 46.0784 231.728 46.2933C231.728 46.5082 231.902 46.6825 232.117 46.6825C233.22 46.6825 233.743 45.7496 234.205 44.9272C234.679 44.0816 235.011 43.5686 235.618 43.5686C236.226 43.5686 236.555 44.0816 237.032 44.9281C237.494 45.7504 238.019 46.6825 239.121 46.6825C240.222 46.6825 240.748 45.7504 241.21 44.9281C241.686 44.0816 242.017 43.5686 242.624 43.5686C243.23 43.5686 243.56 44.0816 244.037 44.9281C244.499 45.7504 245.024 46.6825 246.126 46.6825C247.229 46.6825 247.756 45.7496 248.22 44.9272C248.696 44.0816 249.029 43.5686 249.634 43.5686C250.238 43.5686 250.572 44.0816 251.047 44.9272C251.511 45.7496 252.036 46.6825 253.141 46.6825C253.356 46.6825 253.53 46.5082 253.53 46.2933C253.53 46.0784 253.356 45.9042 253.141 45.9042C252.535 45.9042 252.201 45.3912 251.727 44.5448C251.267 43.7225 250.742 42.7896 249.638 42.7896Z" fill="white"/>
<path d="M241.906 58.6431H243.365C244.554 58.5285 245.617 59.3838 245.759 60.5696V71.9507H239.513V60.5696C239.655 59.3842 240.718 58.5289 241.906 58.6431Z" fill="white"/>
<path d="M244.572 60.5602C244.746 60.5602 244.907 60.4725 245.002 60.3274L253.965 46.5733C254.072 46.4197 254.088 46.2197 254.005 46.0515C253.922 45.8833 253.754 45.7736 253.567 45.7652C253.379 45.7568 253.202 45.8511 253.105 46.0112L244.143 59.7645C244.039 59.9224 244.03 60.1244 244.12 60.2906C244.21 60.4567 244.384 60.5602 244.572 60.5602Z" fill="white"/>
<path d="M240.699 60.5594C240.799 60.5594 240.897 60.5304 240.98 60.4763C241.095 60.4018 241.175 60.2847 241.203 60.151C241.231 60.0172 241.204 59.8778 241.129 59.7637L232.168 46.0105C232.067 45.8568 231.892 45.7683 231.709 45.7784C231.526 45.7885 231.362 45.8956 231.279 46.0594C231.196 46.2232 231.207 46.4188 231.307 46.5726L240.269 60.3266C240.364 60.4715 240.526 60.559 240.699 60.5594Z" fill="white"/>
<path d="M220.577 9.26645C220.08 8.40544 220.375 7.3043 221.236 6.80698C222.097 6.30966 223.198 6.60449 223.695 7.4655L228.588 15.9389C228.825 16.3497 228.888 16.8382 228.763 17.2958C228.638 17.7533 228.335 18.142 227.922 18.3751L227.891 18.3926C227.042 18.878 225.96 18.5859 225.471 17.7391L220.577 9.26645Z" fill="#EE7D8B"/>
<path d="M227.014 19.0035C227.386 19.0037 227.753 18.9068 228.076 18.7225C228.593 18.4403 228.974 17.9601 229.13 17.3921C229.282 16.8385 229.205 16.2471 228.916 15.7508L224.025 7.27822C223.635 6.6039 222.916 6.18848 222.137 6.18848C221.359 6.18848 220.639 6.60382 220.25 7.27811C219.86 7.9524 219.86 8.78317 220.25 9.45748L225.141 17.9301C225.529 18.5962 226.243 19.0052 227.014 19.0035ZM222.136 6.93981C222.261 6.94013 222.386 6.95662 222.506 6.98887C222.871 7.08634 223.182 7.32588 223.369 7.65404L228.261 16.1275C228.447 16.4509 228.496 16.8354 228.398 17.1953C228.299 17.5553 228.061 17.8608 227.735 18.044C227.412 18.235 227.027 18.2898 226.663 18.1962C226.3 18.1026 225.989 17.8684 225.798 17.5451L220.907 9.07251L220.579 9.26209L220.907 9.07251C220.654 8.63271 220.654 8.09165 220.908 7.65222C221.161 7.21279 221.629 6.9414 222.136 6.93981Z" fill="#EE7D8B"/>
<path d="M206.229 24.9309C205.368 24.4338 205.073 23.3327 205.57 22.4714C206.067 21.6102 207.168 21.315 208.029 21.8121L216.502 26.7044C217.349 27.1935 217.641 28.2748 217.156 29.124L217.138 29.1556C216.905 29.5686 216.516 29.8713 216.059 29.9963C215.601 30.1212 215.113 30.058 214.702 29.8207L206.229 24.9309Z" fill="#EE7D8B"/>
<path d="M215.586 30.4418C215.778 30.4413 215.969 30.4156 216.155 30.3653C217 30.1317 217.624 29.4162 217.741 28.5471C217.858 27.678 217.445 26.823 216.692 26.3742L208.219 21.4827C207.545 21.0935 206.714 21.0935 206.04 21.4828C205.366 21.8721 204.95 22.5916 204.95 23.3702C204.95 24.1488 205.366 24.8683 206.04 25.2576L214.513 30.1491C214.838 30.3396 215.209 30.4406 215.586 30.4418ZM207.132 21.9509C207.38 21.9509 207.625 22.0166 207.84 22.1413L216.313 27.0328C216.799 27.3293 217.063 27.8859 216.986 28.4503C216.908 29.0146 216.504 29.4793 215.955 29.6336C215.597 29.7323 215.213 29.6826 214.892 29.4956L206.419 24.6032C205.861 24.2818 205.589 23.6252 205.756 23.0032C205.923 22.3811 206.488 21.9493 207.132 21.9509Z" fill="#EE7D8B"/>
<path d="M201.637 42.0718H211.47C211.941 42.072 212.393 42.2595 212.726 42.5929C213.059 42.9263 213.245 43.3784 213.245 43.8494V43.8952C213.245 44.3663 213.059 44.8183 212.726 45.1517C212.393 45.4852 211.941 45.6726 211.47 45.6728H201.637C200.643 45.6728 199.837 44.8667 199.837 43.8723C199.837 42.8779 200.643 42.0718 201.637 42.0718Z" fill="#EE7D8B"/>
<path d="M201.638 46.0509H211.471C212.042 46.0507 212.59 45.8233 212.994 45.4187C213.398 45.0142 213.625 44.4657 213.624 43.8941C213.635 43.3073 213.408 42.7412 212.995 42.3243C212.592 41.918 212.043 41.6902 211.471 41.6915H201.638C200.45 41.7147 199.5 42.6838 199.5 43.8712C199.5 45.0587 200.45 46.0277 201.638 46.0509ZM211.471 42.4498C211.841 42.4498 212.197 42.5973 212.458 42.8597C212.72 43.122 212.867 43.4778 212.866 43.8484C212.876 44.2345 212.728 44.6082 212.457 44.8835C212.196 45.1463 211.841 45.2936 211.471 45.2926H201.638C200.866 45.2739 200.25 44.6431 200.25 43.8712C200.25 43.0994 200.866 42.4685 201.638 42.4498H211.471Z" fill="#EE7D8B"/>
<path d="M208.031 65.9297C207.17 66.4268 206.069 66.1316 205.572 65.2703C205.075 64.4091 205.37 63.308 206.231 62.8109L214.704 57.9194C215.115 57.6819 215.603 57.6186 216.061 57.7435C216.518 57.8685 216.907 58.1713 217.14 58.5846L217.158 58.6161C217.643 59.4653 217.351 60.5466 216.504 61.0357L208.031 65.9297Z" fill="#EE7D8B"/>
<path d="M207.135 66.5487C207.516 66.5489 207.891 66.4482 208.221 66.2568L216.693 61.3653C217.446 60.9161 217.858 60.0613 217.741 59.1926C217.624 58.3239 217.001 57.6085 216.156 57.3743C215.602 57.2219 215.01 57.2989 214.514 57.588L206.041 62.4795C205.186 62.9729 204.77 63.9795 205.026 64.9327C205.282 65.886 206.147 66.548 207.135 66.5462V66.5487ZM215.589 58.0586C216.095 58.0599 216.561 58.3326 216.81 58.7728C217.001 59.0957 217.056 59.4812 216.962 59.8444C216.869 60.2076 216.635 60.5188 216.311 60.7093L207.839 65.6008C207.159 65.9919 206.291 65.7591 205.897 65.0803C205.709 64.7539 205.657 64.3658 205.755 64.0016C205.853 63.6375 206.091 63.327 206.418 63.1388L214.891 58.2465C215.103 58.1235 215.344 58.0586 215.589 58.0586Z" fill="#EE7D8B"/>
<path d="M279.044 62.8162C279.906 63.3133 280.201 64.4145 279.704 65.2757C279.207 66.1369 278.106 66.4321 277.244 65.935L268.772 61.0427C267.924 60.5542 267.632 59.4722 268.117 58.6232L268.135 58.5916C268.368 58.1783 268.757 57.8754 269.215 57.7505C269.672 57.6255 270.161 57.6889 270.572 57.9264L279.044 62.8162Z" fill="#EE7D8B"/>
<path d="M278.14 66.5514C279.127 66.5532 279.992 65.8912 280.248 64.9379C280.505 63.9847 280.088 62.9781 279.233 62.4847L270.76 57.5932C270.262 57.3055 269.669 57.229 269.114 57.3808C268.559 57.5326 268.087 57.9001 267.805 58.4014C267.202 59.4352 267.549 60.7623 268.582 61.368L277.054 66.2595C277.384 66.4509 277.759 66.5516 278.14 66.5514ZM269.686 58.0613C269.93 58.0618 270.17 58.1266 270.382 58.2492L278.854 63.1415C279.305 63.3899 279.587 63.8627 279.59 64.3775C279.593 64.8923 279.318 65.3687 278.871 65.623C278.423 65.8774 277.873 65.8699 277.432 65.6035L268.96 60.712C268.296 60.3246 268.067 59.4757 268.446 58.8071C268.629 58.4661 268.944 58.2147 269.317 58.1112C269.437 58.0783 269.561 58.0615 269.686 58.0613Z" fill="#EE7D8B"/>
<path d="M272.029 43.8494C272.028 43.3784 272.214 42.9264 272.547 42.5929C272.88 42.2595 273.331 42.072 273.802 42.0718H283.635C284.63 42.0718 285.436 42.8779 285.436 43.8723C285.436 44.8667 284.63 45.6728 283.635 45.6728H273.802C273.331 45.6726 272.88 45.4851 272.547 45.1517C272.214 44.8182 272.028 44.3662 272.029 43.8952V43.8494Z" fill="#EE7D8B"/>
<path d="M273.803 46.0516H283.636C284.424 46.067 285.16 45.6549 285.559 44.9742C285.958 44.2935 285.958 43.4503 285.559 42.7696C285.16 42.0888 284.424 41.6768 283.636 41.6922H273.803C273.231 41.6926 272.683 41.9201 272.28 42.3246C271.876 42.7292 271.649 43.2775 271.65 43.849V43.8947C271.649 44.4662 271.876 45.0146 272.28 45.4191C272.683 45.8236 273.231 46.0511 273.803 46.0516ZM283.636 42.4505C284.152 42.438 284.634 42.7062 284.895 43.1511C285.157 43.596 285.157 44.1478 284.895 44.5927C284.634 45.0376 284.152 45.3057 283.636 45.2933H273.803C273.432 45.293 273.077 45.1455 272.815 44.8831C272.554 44.6208 272.407 44.2652 272.408 43.8947V43.849C272.407 43.4785 272.554 43.1229 272.815 42.8606C273.077 42.5983 273.432 42.4507 273.803 42.4505H283.636Z" fill="#EE7D8B"/>
<path d="M277.244 21.8156C278.106 21.3185 279.207 21.6137 279.704 22.475C280.201 23.3362 279.906 24.4374 279.044 24.9344L270.572 29.8259C270.161 30.0633 269.672 30.1265 269.215 30.0015C268.757 29.8766 268.368 29.5739 268.135 29.1608L268.117 29.1292C267.632 28.2801 267.924 27.1981 268.772 26.7096L277.244 21.8156Z" fill="#EE7D8B"/>
<path d="M269.687 30.4431C270.064 30.4425 270.435 30.3424 270.761 30.1529L279.233 25.2614C280.276 24.6596 280.633 23.3267 280.031 22.2843C279.429 21.2419 278.096 20.8847 277.054 21.4865L268.581 26.378C267.829 26.8273 267.416 27.682 267.533 28.5507C267.65 29.4195 268.274 30.1348 269.119 30.369C269.304 30.4186 269.495 30.4435 269.687 30.4431ZM278.141 21.9521C278.785 21.9502 279.35 22.3819 279.517 23.004C279.685 23.6262 279.412 24.283 278.854 24.6045L270.382 29.4968C270.058 29.6831 269.673 29.7323 269.313 29.6334C268.953 29.5346 268.647 29.2959 268.464 28.9705C268.273 28.6476 268.219 28.2621 268.312 27.8989C268.406 27.5357 268.64 27.2246 268.963 27.034L277.436 22.1426C277.65 22.0184 277.893 21.9528 278.141 21.9521Z" fill="#EE7D8B"/>
<path d="M261.577 7.46795C262.082 6.62406 263.171 6.34157 264.023 6.83342C264.874 7.32526 265.174 8.40949 264.696 9.2689L259.804 17.7415C259.315 18.5884 258.233 18.8805 257.384 18.395L257.352 18.3776C256.939 18.1443 256.637 17.7556 256.512 17.2981C256.387 16.8406 256.45 16.3522 256.687 15.9414L261.577 7.46795Z" fill="#EE7D8B"/>
<path d="M258.265 18.9971C259.034 19.0008 259.746 18.5925 260.131 17.927L265.023 9.45436C265.43 8.77887 265.44 7.93653 265.05 7.25142C264.66 6.56631 263.93 6.1452 263.142 6.15007C262.354 6.15502 261.629 6.58518 261.248 7.27509L256.356 15.7477C256.069 16.2463 255.993 16.8389 256.145 17.3938C256.297 17.9488 256.664 18.42 257.165 18.7027C257.5 18.8946 257.879 18.996 258.265 18.9971ZM263.138 6.94083C263.645 6.94256 264.113 7.21418 264.366 7.65382C264.62 8.09346 264.62 8.63466 264.367 9.07438L259.475 17.547C259.089 18.2117 258.239 18.441 257.57 18.0608C257.229 17.8773 256.978 17.5626 256.874 17.1895C256.776 16.8308 256.826 16.4476 257.012 16.126L261.905 7.65258C262.092 7.32442 262.403 7.08488 262.768 6.98741C262.889 6.95594 263.013 6.94029 263.138 6.94083Z" fill="#EE7D8B"/>
<path d="M242.614 14.4781C242.143 14.479 241.691 14.2925 241.357 13.9597C241.024 13.6268 240.836 13.175 240.836 12.7038V2.8709C240.836 1.87626 241.642 1.06995 242.637 1.06995C243.631 1.06995 244.438 1.87626 244.438 2.8709V12.7038C244.437 13.1749 244.25 13.6266 243.916 13.9594C243.582 14.2922 243.13 14.4788 242.659 14.4781H242.614Z" fill="#EE7D8B"/>
<path d="M242.613 14.8579H242.659C243.231 14.8588 243.779 14.6324 244.184 14.2287C244.588 13.8249 244.816 13.2768 244.816 12.7053V2.87238C244.816 1.66881 243.84 0.693115 242.637 0.693115C241.433 0.693115 240.458 1.66881 240.458 2.87238V12.7053C240.458 13.2767 240.685 13.8246 241.089 14.2284C241.494 14.6321 242.042 14.8586 242.613 14.8579ZM242.637 1.45058C243.422 1.45149 244.058 2.08752 244.059 2.87238V12.7053C244.058 13.0759 243.91 13.4311 243.648 13.6928C243.386 13.9545 243.03 14.1011 242.659 14.1005H242.613C242.243 14.1009 241.888 13.9542 241.625 13.6925C241.363 13.4309 241.215 13.0757 241.215 12.7053V2.87238C241.216 2.08785 241.852 1.45232 242.637 1.45141V1.45058Z" fill="#EE7D8B"/>
<path d="M422.851 174.044L475 173.86L475 248.028L404.712 248.028L404.712 192.137C404.698 182.158 412.819 174.057 422.851 174.044Z" fill="#13C8A4"/>
<path fill-rule="evenodd" clip-rule="evenodd" d="M371.263 119.108C371.263 119.66 370.815 120.108 370.263 120.108L365.12 120.106C364.568 120.105 364.121 119.658 364.121 119.105C364.121 118.553 364.569 118.105 365.121 118.106L370.264 118.108C370.816 118.108 371.264 118.556 371.263 119.108ZM355.836 119.102C355.836 119.654 355.388 120.102 354.835 120.102L344.55 120.098C343.998 120.097 343.55 119.649 343.551 119.097C343.551 118.545 343.999 118.097 344.551 118.098L354.836 118.102C355.388 118.102 355.836 118.55 355.836 119.102ZM335.266 119.094C335.265 119.646 334.817 120.094 334.265 120.093L323.98 120.089C323.428 120.089 322.98 119.641 322.981 119.089C322.981 118.537 323.429 118.089 323.981 118.089L334.266 118.093C334.818 118.094 335.266 118.542 335.266 119.094ZM314.695 119.086C314.695 119.638 314.247 120.086 313.695 120.085L303.41 120.081C302.858 120.081 302.41 119.633 302.41 119.081C302.411 118.529 302.858 118.081 303.411 118.081L313.696 118.085C314.248 118.086 314.696 118.533 314.695 119.086ZM294.125 119.078C294.125 119.63 293.677 120.077 293.125 120.077L282.84 120.073C282.287 120.073 281.84 119.625 281.84 119.073C281.84 118.52 282.288 118.073 282.841 118.073L293.126 118.077C293.678 118.077 294.125 118.525 294.125 119.078ZM273.555 119.07C273.555 119.622 273.107 120.069 272.555 120.069L262.27 120.065C261.717 120.065 261.27 119.617 261.27 119.065C261.27 118.512 261.718 118.065 262.27 118.065L272.555 118.069C273.108 118.069 273.555 118.517 273.555 119.07ZM252.985 119.061C252.985 119.614 252.537 120.061 251.984 120.061L241.699 120.057C241.147 120.057 240.7 119.609 240.7 119.057C240.7 118.504 241.148 118.057 241.7 118.057L251.985 118.061C252.538 118.061 252.985 118.509 252.985 119.061ZM232.415 119.053C232.414 119.606 231.967 120.053 231.414 120.053L221.129 120.049C220.577 120.049 220.129 119.601 220.13 119.048C220.13 118.496 220.578 118.049 221.13 118.049L231.415 118.053C231.967 118.053 232.415 118.501 232.415 119.053ZM211.844 119.045C211.844 119.597 211.396 120.045 210.844 120.045L200.559 120.041C200.007 120.041 199.559 119.593 199.559 119.04C199.56 118.488 200.007 118.041 200.56 118.041L210.845 118.045C211.397 118.045 211.845 118.493 211.844 119.045ZM191.274 119.037C191.274 119.589 190.826 120.037 190.274 120.037L179.989 120.033C179.437 120.032 178.989 119.585 178.989 119.032C178.989 118.48 179.437 118.032 179.99 118.033L190.275 118.037C190.827 118.037 191.275 118.485 191.274 119.037ZM170.704 119.029C170.704 119.581 170.256 120.029 169.704 120.029L159.419 120.025C158.866 120.024 158.419 119.576 158.419 119.024C158.419 118.472 158.867 118.024 159.419 118.025L169.704 118.029C170.257 118.029 170.704 118.477 170.704 119.029ZM150.134 119.021C150.134 119.573 149.686 120.021 149.134 120.02L138.848 120.016C138.296 120.016 137.849 119.568 137.849 119.016C137.849 118.464 138.297 118.016 138.849 118.016L149.134 118.02C149.687 118.021 150.134 118.469 150.134 119.021ZM129.564 119.013C129.563 119.565 129.116 120.013 128.563 120.012L118.278 120.008C117.726 120.008 117.278 119.56 117.279 119.008C117.279 118.456 117.727 118.008 118.279 118.008L128.564 118.012C129.116 118.013 129.564 118.46 129.564 119.013ZM108.994 119.005C108.993 119.557 108.545 120.004 107.993 120.004L97.7081 120C97.1557 120 96.7082 119.552 96.7084 119C96.7087 118.448 97.1565 118 97.7088 118L107.994 118.004C108.546 118.004 108.994 118.452 108.994 119.005ZM88.4233 118.997C88.4231 119.549 87.9752 119.996 87.4229 119.996L77.1379 119.992C76.5856 119.992 76.138 119.544 76.1383 118.992C76.1385 118.439 76.5864 117.992 77.1387 117.992L87.4237 117.996C87.976 117.996 88.4235 118.444 88.4233 118.997ZM67.8532 118.988C67.8529 119.541 67.405 119.988 66.8528 119.988L56.5677 119.984C56.0154 119.984 55.5679 119.536 55.5681 118.984C55.5683 118.431 56.0162 117.984 56.5685 117.984L66.8536 117.988C67.4058 117.988 67.8534 118.436 67.8532 118.988ZM47.283 118.98C47.2828 119.533 46.8349 119.98 46.2826 119.98L35.9975 119.976C35.4452 119.976 34.9976 119.528 34.9979 118.975C34.9981 118.423 35.446 117.976 35.9982 117.976L46.2834 117.98C46.8356 117.98 47.2832 118.428 47.283 118.98ZM26.7128 118.972C26.7126 119.524 26.2647 119.972 25.7124 119.972L15.4273 119.968C14.875 119.968 14.4275 119.52 14.4277 118.967C14.4279 118.415 14.8758 117.968 15.4281 117.968L25.7132 117.972C26.2655 117.972 26.713 118.42 26.7128 118.972ZM6.1426 118.964C6.14238 119.516 5.69448 119.964 5.1422 119.964L-0.000344082 119.962C-0.552651 119.961 -1.00017 119.514 -0.99995 118.961C-0.999732 118.409 -0.551863 117.961 0.000444294 117.962L5.14299 117.964C5.69527 117.964 6.14282 118.412 6.1426 118.964Z" fill="black"/>
<path d="M385.774 87.1674C385.774 86.2976 386.47 85.5925 387.329 85.5925H473.121C473.98 85.5925 474.677 86.2976 474.677 87.1674V132.051C474.677 149.446 460.748 163.548 443.567 163.548H416.884C399.702 163.548 385.774 149.446 385.774 132.051V87.1674Z" fill="#13C8A4"/>
<path d="M423.228 101.44H379.188V133.535H423.228C432.093 133.535 439.28 126.35 439.28 117.487C439.28 108.625 432.093 101.44 423.228 101.44Z" fill="white"/>
<path fill-rule="evenodd" clip-rule="evenodd" d="M423.228 103.44H381.188V131.535H423.228C430.989 131.535 437.28 125.245 437.28 117.487C437.28 109.73 430.989 103.44 423.228 103.44ZM423.228 133.535C432.093 133.535 439.28 126.35 439.28 117.487C439.28 108.625 432.093 101.44 423.228 101.44H379.188V133.535H423.228Z" fill="black"/>
<path d="M415.82 53.3016C420.252 53.3016 423.846 56.894 423.846 61.3253L423.846 85.3963C423.846 89.8277 420.252 93.42 415.82 93.42C411.387 93.42 407.794 89.8277 407.794 85.3963L407.794 61.3253C407.794 56.894 411.387 53.3016 415.82 53.3016Z" fill="#13C8A4"/>
<path d="M455.332 53.3016C459.765 53.3016 463.358 56.894 463.358 61.3253L463.358 85.3963C463.358 89.8277 459.765 93.42 455.332 93.42C450.9 93.42 447.306 89.8277 447.306 85.3963L447.306 61.3253C447.306 56.894 450.9 53.3016 455.332 53.3016Z" fill="#13C8A4"/>
<path d="M399.768 57.311C399.768 50.664 405.158 45.2755 411.807 45.2755H419.833C426.482 45.2755 431.872 50.664 431.872 57.311C431.872 63.9581 426.482 69.3465 419.833 69.3465H411.807C405.158 69.3465 399.768 63.9581 399.768 57.311Z" fill="#EE7D8B"/>
<path d="M439.28 57.311C439.28 50.664 444.67 45.2755 451.319 45.2755H459.345C465.994 45.2755 471.384 50.664 471.384 57.311C471.384 63.9581 465.994 69.3465 459.345 69.3465H451.319C444.67 69.3465 439.28 63.9581 439.28 57.311Z" fill="#EE7D8B"/>
<path d="M391.721 122.499C389.777 122.742 388.004 121.365 387.76 119.421C387.516 117.478 388.894 115.705 390.838 115.462C392.782 115.218 394.555 116.596 394.799 118.539C395.043 120.482 393.664 122.255 391.721 122.499Z" fill="black"/>
<path fill-rule="evenodd" clip-rule="evenodd" d="M342.32 170.4C339.469 190.629 351.223 210.093 370.433 216.95C392.852 224.952 417.579 213.212 425.66 190.724L426.04 189.666L423.927 188.912L423.547 189.97C415.887 211.286 392.448 222.42 371.193 214.833C352.985 208.334 341.841 189.882 344.544 170.707L344.701 169.592L342.477 169.287L342.32 170.4ZM334.328 169.198C330.885 193.251 344.846 216.424 367.691 224.579C394.312 234.081 423.671 220.139 433.265 193.439L433.645 192.381L431.532 191.627L431.152 192.685C421.978 218.215 393.907 231.546 368.453 222.46C346.61 214.663 333.257 192.507 336.55 169.511L336.709 168.397L334.487 168.084L334.328 169.198ZM326.334 167.999C322.299 195.875 338.468 222.754 364.95 232.207C395.77 243.208 429.762 227.067 440.871 196.154L441.251 195.096L439.138 194.342L438.758 195.399C428.07 225.142 395.367 240.673 365.712 230.087C340.233 220.993 324.674 195.132 328.555 168.312L328.718 167.198L326.495 166.885L326.334 167.999ZM318.342 166.797C313.716 198.499 332.092 229.084 362.209 239.834C397.231 252.335 435.856 233.994 448.477 198.869L448.858 197.811L446.744 197.057L446.364 198.115C434.162 232.073 396.826 249.8 362.971 237.715C333.857 227.323 316.093 197.756 320.563 167.116L320.726 166.003L318.505 165.684L318.342 166.797Z" fill="black"/>
<path fill-rule="evenodd" clip-rule="evenodd" d="M351.832 165.934C352.225 163.369 350.454 160.962 347.896 160.578L317.996 156.099C315.438 155.72 313.025 157.502 312.632 160.064C312.24 162.629 314.012 165.036 316.57 165.419L346.471 169.895C349.027 170.278 351.441 168.496 351.832 165.934Z" fill="#13C8A4"/>
<path d="M435.141 226.405C427.926 226.414 422.07 220.598 422.06 213.414L422.034 194.683C422.024 187.499 427.865 181.667 435.08 181.657C442.294 181.648 448.151 187.464 448.161 194.648L448.186 213.379C448.196 220.563 442.356 226.395 435.141 226.405Z" fill="#13C8A4"/>
<path fill-rule="evenodd" clip-rule="evenodd" d="M420.06 213.417L420.034 194.686C420.023 186.389 426.766 179.669 435.077 179.657C443.388 179.646 450.149 186.348 450.161 194.645L450.186 213.376C450.198 221.673 443.455 228.393 435.144 228.405C426.832 228.416 420.071 221.714 420.06 213.417ZM422.06 213.414C422.07 220.599 427.926 226.414 435.141 226.405C442.356 226.395 448.196 220.563 448.186 213.379L448.161 194.648C448.151 187.464 442.294 181.648 435.08 181.657C427.865 181.667 422.024 187.499 422.034 194.683L422.06 213.414Z" fill="black"/>
<path fill-rule="evenodd" clip-rule="evenodd" d="M353.741 102.252C356.753 106.513 358.434 111.574 358.571 116.792C358.709 122.01 357.297 127.152 354.514 131.567C351.731 135.981 347.702 139.47 342.937 141.591C338.173 143.712 332.887 144.37 327.749 143.481C322.611 142.593 317.851 140.198 314.073 136.6C310.295 133.002 307.668 128.363 306.525 123.27C305.382 118.177 305.775 112.858 307.652 107.988C309.53 103.118 312.809 98.9156 317.074 95.9122C322.779 91.8944 329.843 90.3055 336.716 91.4939C343.59 92.6823 349.712 96.551 353.741 102.252Z" fill="#EE7D8B"/>
<path d="M332.206 138.566C327.662 138.548 323.245 137.06 319.615 134.324C315.984 131.588 313.334 127.751 312.059 123.385C310.784 119.018 310.952 114.356 312.539 110.093C314.126 105.831 317.047 102.195 320.865 99.7295C324.684 97.2637 329.196 96.0993 333.73 96.4099C338.263 96.7205 342.575 98.4895 346.022 101.453C349.47 104.417 351.868 108.416 352.86 112.856C353.852 117.295 353.385 121.937 351.528 126.089C349.869 129.826 347.158 132.997 343.726 135.213C340.294 137.429 336.29 138.595 332.206 138.566ZM332.267 98.0575C327.495 98.0552 322.89 99.8213 319.341 103.016C315.791 106.21 313.548 110.606 313.044 115.358C312.54 120.109 313.81 124.879 316.609 128.749C319.409 132.619 323.54 135.314 328.206 136.316C332.873 137.318 337.745 136.555 341.883 134.175C346.021 131.795 349.133 127.965 350.619 123.425C352.105 118.884 351.86 113.953 349.931 109.583C348.002 105.213 344.526 101.712 340.172 99.7545C337.685 98.642 334.991 98.0667 332.267 98.0663V98.0575Z" fill="white"/>
<path d="M318.031 115.863L316.037 115.467C315.906 115.981 315.906 116.519 316.037 117.033C316.165 117.484 316.397 117.9 316.714 118.246C317.043 118.611 317.44 118.91 317.882 119.125C318.347 119.352 318.84 119.517 319.348 119.618C319.925 119.744 320.517 119.782 321.105 119.732C321.573 119.694 322.029 119.566 322.449 119.354C322.818 119.162 323.138 118.884 323.38 118.545C323.623 118.203 323.791 117.814 323.871 117.402C323.98 116.95 323.952 116.476 323.792 116.039C323.647 115.676 323.429 115.347 323.151 115.072C322.891 114.821 322.595 114.61 322.273 114.447C321.983 114.298 321.746 114.184 321.579 114.113L320.227 113.463C319.948 113.334 319.68 113.181 319.427 113.005C319.275 112.91 319.153 112.772 319.076 112.61C319.034 112.457 319.034 112.296 319.076 112.144C319.102 111.966 319.182 111.8 319.304 111.669C319.417 111.555 319.551 111.465 319.7 111.405C319.856 111.343 320.023 111.31 320.191 111.308C320.362 111.306 320.533 111.321 320.701 111.352C320.938 111.397 321.171 111.464 321.395 111.555C321.589 111.634 321.767 111.747 321.922 111.889C322.069 112.029 322.178 112.204 322.238 112.399C322.291 112.639 322.291 112.888 322.238 113.129L324.232 113.524C324.353 113.048 324.353 112.549 324.232 112.073C324.106 111.658 323.883 111.278 323.582 110.966C323.268 110.641 322.895 110.378 322.484 110.192C322.044 109.988 321.581 109.837 321.105 109.743C320.677 109.659 320.24 109.633 319.805 109.664C319.381 109.69 318.964 109.791 318.575 109.963C318.199 110.132 317.863 110.381 317.592 110.693C317.301 111.034 317.106 111.447 317.03 111.889C316.935 112.264 316.935 112.657 317.03 113.032C317.126 113.356 317.291 113.656 317.513 113.911C317.745 114.172 318.014 114.397 318.312 114.579C318.62 114.774 318.94 114.95 319.269 115.107L320.227 115.573C320.531 115.703 320.824 115.856 321.105 116.03C321.324 116.165 321.515 116.341 321.667 116.549C321.731 116.647 321.774 116.756 321.796 116.871C321.817 116.985 321.815 117.103 321.79 117.217C321.76 117.429 321.654 117.623 321.491 117.762C321.336 117.894 321.153 117.987 320.956 118.035C320.752 118.087 320.542 118.107 320.332 118.097C320.132 118.087 319.932 118.064 319.735 118.026C319.467 117.975 319.208 117.889 318.962 117.771C318.735 117.667 318.529 117.521 318.356 117.34C318.191 117.163 318.07 116.949 318.005 116.716C317.93 116.428 317.93 116.125 318.005 115.837L318.031 115.863Z" fill="white"/>
<path d="M326.401 111.009L324.53 120.4L331.653 121.816L331.995 120.075L326.936 119.072L327.393 116.769L331.942 117.674L332.259 116.065L327.718 115.168L328.113 113.155L333.067 114.14L333.418 112.399L326.401 111.009Z" fill="white"/>
<path d="M334.911 112.698L333.049 122.088L339.68 123.407L340.023 121.675L335.456 120.761L336.975 113.111L334.911 112.698Z" fill="white"/>
<path d="M342.702 114.245L340.84 123.645L347.471 124.964L347.813 123.223L343.246 122.317L344.766 114.659L342.702 114.245Z" fill="white"/>
</g>
</svg>
