<svg fill="none" height="879" viewBox="0 0 586 879" width="586" xmlns="http://www.w3.org/2000/svg" xmlns:xlink="http://www.w3.org/1999/xlink"><linearGradient id="a"><stop offset="0" stop-color="#3139ec"/><stop offset="1" stop-color="#ff0061"/></linearGradient><linearGradient id="b" gradientUnits="userSpaceOnUse" x1="467.485" x2="218.206" xlink:href="#a" y1="635.689" y2="970.073"/><linearGradient id="c" gradientUnits="userSpaceOnUse" x1="632.772" x2="511.109" xlink:href="#a" y1="642.901" y2="806.181"/><linearGradient id="d" gradientUnits="userSpaceOnUse" x1="702.082" x2="523.228" xlink:href="#a" y1="405.476" y2="645.616"/><linearGradient id="e" gradientUnits="userSpaceOnUse" x1="115.532" x2="69.5878" xlink:href="#a" y1="206.233" y2="268.313"/><linearGradient id="f" gradientUnits="userSpaceOnUse" x1="552.44" x2="519.73" xlink:href="#a" y1="98.5948" y2="143.284"/><linearGradient id="g" gradientUnits="userSpaceOnUse" x1="204.554" x2="127.697" xlink:href="#a" y1="-7.46806" y2="96.0849"/><mask id="h" height="879" maskUnits="userSpaceOnUse" width="586" x="0" y="0"><path d="m0 0h586v879h-586z" fill="#f8fafd"/></mask><g mask="url(#h)"><path d="m233.5 851c-106.867 0-193.5-84.842-193.5-189.5s86.633-189.5 193.5-189.5 193.5 84.842 193.5 189.5-86.633 189.5-193.5 189.5z" fill="url(#b)" opacity=".07"/><path d="m518.5 748c-52.191 0-94.5-41.414-94.5-92.5s42.309-92.5 94.5-92.5 94.5 41.414 94.5 92.5-42.309 92.5-94.5 92.5z" fill="url(#c)" opacity=".07"/><path d="m534 560c-76.768 0-139-60.889-139-136s62.232-136 139-136 139 60.889 139 136-62.232 136-139 136z" fill="url(#d)" opacity=".07"/><path d="m72 246c-19.8823 0-36-15.67-36-35s16.1177-35 36-35 36 15.67 36 35-16.1177 35-36 35z" fill="url(#e)" opacity=".07"/><path d="m521 127c-14.359 0-26-11.193-26-25 0-13.8071 11.641-25 26-25s26 11.1929 26 25c0 13.807-11.641 25-26 25z" fill="url(#f)" opacity=".07"/><path d="m132 59c-33.1371 0-60-26.1913-60-58.500004 0-32.308696 26.8629-58.499996 60-58.499996 33.137 0 60 26.1913 60 58.499996 0 32.308704-26.863 58.500004-60 58.500004z" fill="url(#g)" opacity=".07"/><path clip-rule="evenodd" d="m148.061 743.892 50.965 23.024 10.067-22.545-29.622-17.048c-2.756 3.151-8.677 14.024-21.426 10.525-7.823-2.146-9.984 6.044-9.984 6.044z" fill="#3152bc" fill-rule="evenodd"/><path clip-rule="evenodd" d="m199.557 766.912-51.383-24.233-2.008 4.263 51.384 24.233z" fill="#ffc500" fill-rule="evenodd"/><path clip-rule="evenodd" d="m200.514 797.459 55.86 2.522 1.019-24.674-33.824-4.87c-1.395 3.948-2.875 16.24-16.014 17.71-8.061.901-7.041 9.312-7.041 9.312z" fill="#3152bc" fill-rule="evenodd"/><path clip-rule="evenodd" d="m256.868 799.78-56.697-3.491-.289 4.704 56.697 3.491z" fill="#ffc500" fill-rule="evenodd"/><path clip-rule="evenodd" d="m9.58248-48.2372c-10.81596 47.557557 118.99452 180.6722 136.21652 229.7372 24.434 69.609-16.375 101.163 0 157.802 9.283 32.109 75.818 16.12 97.353 34.364 25.072 21.237 24.676 67.491 38.621 96.241 18.123 37.364 74.653 29.25 101.978 7.915 14.765-11.529 10.991-35.926 21.65-51.459 19.216-28.002 60.284-36.315 68.683-73.584 7.3-32.393-21.381-57.015-4.313-89.705 10.744-20.579 34.015-28.166 49.11-43.928 17.477-18.248 18.508-42.936 24.818-72 13.363-61.5439 1.578-147.351426-6.199-161.146-16.821-29.8353-99.451-2.08-127.529-15.9029-19.778-9.7366-41.778-16.2932-63.45-18.512-34.322-3.5144-69.414.3576-103.37 5.9151-62.883 10.2908-233.56852-5.7374-233.56852-5.7374z" fill="#ffc500" fill-rule="evenodd"/><path clip-rule="evenodd" d="m433.244 695.656 49.695-4.616s4.392 20.315 26.465 34.883c22.074 14.567 17.267 41.479 17.562 42.569.295 1.088-48.861 5.392-48.861 5.392s-1.238-32.932-24.021-41.218c-22.784-8.288-20.84-37.01-20.84-37.01z" fill="#ee7d8b" fill-rule="evenodd"/><path clip-rule="evenodd" d="m487.244 716.219c-9.034-3.184-17.609.291-19.206 7.617-1.596 7.326 4.35 15.919 13.382 19.103 9.034 3.183 17.609-.293 19.206-7.618 1.596-7.325-4.35-15.919-13.382-19.102zm-.361 1.653c8.026 2.829 13.482 10.348 12.064 16.857-1.418 6.51-9.139 9.385-17.166 6.557-8.027-2.829-13.483-10.349-12.064-16.858 1.418-6.51 9.139-9.385 17.166-6.556z" fill="#3152bc" fill-rule="evenodd"/><path d="m492.54 725.564c.104-.063.223-.104.349-.115.089-.009.18-.002.271.018.112.025.221.071.322.135.239.153.418.406.483.676.027.111.033.224.02.332-.014.115-.051.224-.108.318-.063.106-.15.193-.254.258l-1.273.787c1.174 2.012.748 4.439-1.019 5.533-1.059.656-2.371.691-3.556.211-.04 1.238-.618 2.371-1.678 3.028-1.768 1.093-4.239.458-5.653-1.406l-1.259.779c-.104.063-.221.104-.347.116-.09.008-.181.002-.272-.018-.111-.026-.221-.072-.322-.136-.238-.152-.418-.406-.483-.676-.026-.112-.033-.224-.019-.332.013-.115.05-.223.107-.319.064-.105.151-.191.254-.257l1.251-.774-1.181-1.766-1.25.773c-.104.064-.222.105-.349.116-.088.008-.18.003-.27-.019-.113-.024-.222-.07-.323-.134-.237-.154-.418-.406-.482-.677-.026-.111-.034-.223-.02-.332.014-.114.05-.224.107-.318.063-.106.151-.193.254-.257l1.25-.774c-.003-.005-.007-.01-.011-.016l-1.872-2.804c-.304-.454-.222-1.008.185-1.261.407-.251.965-.092 1.268.361l.769 1.151 3.78-2.34 5.234-3.237-.768-1.152c-.303-.453-.222-1.008.186-1.259.407-.253.965-.094 1.268.36l.768 1.151 1.115 1.671 1.266-.783c.104-.064.222-.105.349-.117.088-.007.179-.001.27.019.112.025.221.071.322.135.238.153.419.406.483.677.027.111.033.223.021.331-.015.115-.052.224-.108.319-.063.106-.152.193-.255.257l-1.264.783 1.18 1.767zm-10.248 1.483-3.779 2.339 3.204 4.799c.78 1.167 2.251 1.586 3.298.938 1.039-.643 1.259-2.089.498-3.252l-.016-.025zm4.677 3.926c.784 1.147 2.24 1.555 3.279.912 1.047-.647 1.263-2.11.483-3.277l-.365-.547-2.265-3.39-.548-.823-.005-.006-.022-.033-3.78 2.338 3.205 4.799z" fill="#3152bc"/><g clip-rule="evenodd" fill-rule="evenodd"><path d="m487.086 769.079 33.193-2.829c.488-.041.851-.471.809-.96-.041-.488-.471-.851-.96-.81l-33.194 2.829c-.487.041-.85.471-.809.96.042.488.472.851.961.81z" fill="#3152bc"/><path d="m51.4419-2.15453 199.9351 318.75153-30.785-98.73 42.176 66.104-51.177-135.841 41.746 54.62-37.337-104.25 130.324 162.211.114-130.644 26.435 76.969-12.339-73.786 17.492 43.941 1.562-30.3 10.638 80.245 2.195-81.462 26.137 58.38s17.103-175.1408 41.413-243.5489c24.311-68.4091-424.9358-71.5051-424.9358-71.5051z" fill="#3152bc"/><path d="m395.022 473.277c154.845-16.065 286.196 25.304 293.141 92.323 6.944 67.02-113.132 134.474-267.976 150.539-154.844 16.064-286.196-25.305-293.141-92.324-6.944-67.02 113.132-134.473 267.976-150.538z" fill="#fff"/><path d="m259.194 611.657 2.589-18.303c.07-.497.481-.875.981-.903.501-.028.951.302 1.077.787l9.067 35.135c.087.338.002.697-.229.959-.232.261-.577.392-.923.347l-15.379-1.985-7.949 10.187c-.278.354-.749.493-1.175.345-.425-.148-.708-.551-.704-1.002l.248-27.417c.003-.324.154-.628.411-.824.256-.198.589-.265.902-.185zm3.931-12.782-2.014 14.24c-.042.297-.208.561-.457.728-.248.166-.556.218-.846.143l-10.921-2.816-.209 22.973 6.412-8.216c.228-.293.594-.443.962-.396l14.432 1.864z" fill="#3152bc"/><path d="m223.057 595.171-4.425-10.737c-.19-.461-.031-.992.384-1.272.414-.28.966-.229 1.323.121l15.978 15.666c.236.233.35.564.305.892-.045.329-.241.618-.531.779l-7.722 4.286.607 11.835c.025.486-.288.926-.756 1.063-.466.137-.966-.066-1.207-.49l-10.771-18.98c-.161-.284-.181-.627-.054-.927.126-.301.385-.526.7-.609zm-.527-6.795 2.929 7.104c.115.281.105.598-.031.869-.134.272-.379.472-.672.55l-6.012 1.585 7.905 13.931-.413-8.057c-.02-.401.19-.78.541-.974l7.062-3.919z" fill="#3152bc"/><path d="m471.786 510.774c-.149.037-.287.105-.406.202l-57.143 46.086c-.288.232-.433.599-.381.966.052.366.292.679.633.823 8.878 3.736 13.182 9.49 18.674 14.647.241.227.576.327.902.269 30.375-5.394 53.725-12.437 67.859-20.151 9.786-5.342 15.194-11.117 15.789-16.804.412-3.919-1.368-7.89-5.699-11.745-6.096-5.427-17.402-10.727-34.605-15.55l-.537-.007zm5.322.844-4.59 1.141-55.626 44.864c7.911 3.748 12.175 9.078 17.327 13.98 29.831-5.33 52.781-12.237 66.698-19.834 4.578-2.498 8.164-5.063 10.672-7.676 2.378-2.479 3.769-4.978 4.034-7.501.351-3.345-1.309-6.664-5.005-9.954-5.914-5.264-16.883-10.339-33.51-15.02z" fill="#3152bc"/><path d="m419.156 561.617c3.79 1.745 6.215 3.987 9.062 7.048 1.453 1.563 3.242 3.079 4.84 4.726 1.48 1.525 2.8 3.158 3.437 5.089 1.446 4.387-.846 8.472-3.689 11.79-4.76 5.551-9.961 10.735-14.779 16.247-2.897 3.314-7.146 8.452-8.814 13.579-1.198 3.68-1.095 7.355 1.468 10.461 2.71 3.283 7.259 4.516 11.247 5.351 9.492 1.987 19.327.038 28.564-2.271 8.635-2.16 17.372-2.694 26.219-3.432 14.433-1.204 28.597-2.391 41.758 4.612 1.638.872 3.095 1.944 4.279 3.364 3.809 4.562 2.931 9.419.494 13.967-2.611 4.871-6.979 9.406-9.891 12.984-1.583 1.944-3.124 3.864-4.444 6.002-9.992 16.18-9.728 35.317 2.752 50.238 6.915 8.27 16.536 10.977 27.115 10.996 23.84.043 47.35-16.221 54.998-38.585.187-.549-.107-1.147-.655-1.336-.549-.188-1.147.106-1.335.654-7.368 21.55-30.032 37.206-53.004 37.164-9.939-.018-19.011-2.474-25.507-10.242-11.869-14.192-12.078-32.396-2.576-47.784 1.272-2.059 2.761-3.905 4.286-5.779 2.983-3.665 7.438-8.328 10.113-13.318 2.846-5.313 3.716-10.98-.733-16.309-1.36-1.63-3.024-2.872-4.906-3.872-13.53-7.2-28.08-6.09-42.919-4.852-8.96.747-17.807 1.3-26.554 3.487-8.934 2.234-18.444 4.175-27.623 2.253-3.546-.741-7.648-1.713-10.057-4.632-2.073-2.511-2.059-5.494-1.09-8.47 1.58-4.86 5.65-9.703 8.397-12.845 4.822-5.517 10.028-10.706 14.792-16.263 3.317-3.87 5.776-8.701 4.089-13.819-.734-2.226-2.218-4.135-3.924-5.894-1.588-1.636-3.366-3.141-4.81-4.693-3.049-3.279-5.662-5.656-9.721-7.527-.526-.243-1.152-.012-1.394.515s-.012 1.153.515 1.396z" fill="#ee7d8b"/><path d="m338.015 558.978c11.149 6.574 24.139 10.318 38.309 12.247l-9.193 10.63c-16.31-2.198-30.498-6.989-42.237-14.768z" style="fill:#3152bc;stroke:#3152bc;stroke-width:2;stroke-miterlimit:1.5;stroke-linecap:round;stroke-linejoin:round"/><path d="m408.683 506.015c37.724-2.228 69.127 8.623 70.085 24.217.958 15.595-28.891 30.064-66.615 32.293-37.723 2.228-69.126-8.623-70.084-24.217-.957-15.595 28.892-30.065 66.614-32.293z" fill="#3152bc"/><path d="m408.161 498.029c38.429-2.269 70.406 8.548 71.363 24.142s-29.464 30.098-67.893 32.368c-38.428 2.27-70.406-8.548-71.363-24.142-.957-15.593 29.464-30.098 67.893-32.368z" fill="#3152bc"/><path d="m421.52 537.891 8.197 3.215c.046.018.099.007.131-.029l5.81-6.665.003-.003 5.417-6.747c.019-.023.027-.053.022-.082l-.11-.744c-.006-.041-.034-.076-.073-.091l-10.055-3.945c-.054-.021-.113-.003-.141.044l-4.71 7.779c-.001.001-.001.001-.002.002l-4.547 7.101c-.033.052-.015.121.039.154.005.004.013.008.019.011z" fill="#fff"/><path d="m425.116 530.07 4.706-7.771c.287-.474.885-.69 1.423-.479l10.055 3.946c.394.155.67.51.73.915 0 0 .11.744.109.743.048.322-.04.645-.242.896v.001s-5.417 6.746-5.405 6.731c-.016.023-.034.044-.042.052l-5.811 6.664c-.317.364-.839.5-1.305.317l-8.198-3.215-.188-.095c-.566-.35-.715-1.079-.371-1.616zm6.093-6.004-4.3 7.102.021-.038c-.012.025-.027.05-.037.062l-3.928 6.136 6.524 2.56 5.365-6.153 5.031-6.265z" fill="#3152bc"/><path d="m403.06 530.647 8.164 3.204c.046.017.098.005.129-.031l5.831-6.656c0-.003.001-.004.002-.005l5.433-6.739c.019-.023.027-.054.022-.083l-.113-.746c-.006-.04-.033-.074-.073-.09l-10.125-3.973c-.052-.02-.112-.001-.14.045l-4.721 7.775v.003l-4.466 7.133c-.033.052-.015.121.04.154.006.004.011.006.017.009z" fill="#fff"/><path d="m406.575 522.795 4.715-7.768c.288-.473.885-.688 1.423-.477l10.125 3.972c.394.154.668.508.729.913l.113.744c.049.324-.04.649-.244.901l-5.432 6.74-.031.037s-5.83 6.656-5.831 6.657c-.317.362-.838.498-1.302.316l-8.164-3.203c-.061-.025-.121-.054-.177-.089-.571-.345-.727-1.071-.388-1.612zm1.792 1.1-.005.009.002-.004-.013.02.007-.012-3.864 6.173 6.502 2.551 5.379-6.141 5.049-6.265-8.746-3.432z" fill="#3152bc"/><path d="m385.086 523.596 8.198 3.216c.046.017.098.006.129-.03l5.811-6.665.003-.003 5.416-6.747c.019-.023.028-.052.024-.082l-.111-.744c-.006-.041-.034-.076-.073-.091l-10.055-3.945c-.053-.021-.113-.002-.141.044l-4.71 7.779c-.001.001-.001.001-.001.002l-4.548 7.101c-.032.052-.015.121.039.154.006.005.013.008.019.011z" fill="#fff"/><path d="m388.684 515.773 4.705-7.769c.287-.473.884-.69 1.423-.479l10.055 3.946c.394.155.669.51.729.915 0 0 .11.744.11.745.048.321-.041.643-.242.894v.001s-5.417 6.746-5.405 6.731c-.017.023-.035.044-.042.052l-5.812 6.664c-.316.363-.838.5-1.304.317l-8.198-3.215-.188-.095c-.567-.35-.716-1.078-.371-1.616zm6.093-6.002-4.299 7.1c-.007.009-.013.02-.017.026l-3.93 6.136 6.526 2.56 5.364-6.153 5.03-6.265z" fill="#3152bc"/><path d="m408.099 496.979c-23.269 1.375-43.62 7.219-55.976 15.054-8.566 5.431-13.306 11.884-12.904 18.429.401 6.544 5.896 12.39 15.062 16.772 13.224 6.323 34.145 9.729 57.412 8.355 23.268-1.374 43.621-7.219 55.976-15.053 8.566-5.432 13.306-11.884 12.903-18.429-.401-6.544-5.895-12.391-15.061-16.773-13.225-6.323-34.144-9.729-57.412-8.355zm.124 2.1c22.847-1.35 43.396 1.944 56.382 8.152 8.308 3.973 13.506 9.073 13.87 15.004.364 5.93-4.171 11.604-11.931 16.525-12.132 7.692-32.129 13.38-54.975 14.729-22.847 1.35-43.396-1.943-56.383-8.152-8.307-3.973-13.505-9.073-13.869-15.004-.364-5.93 4.171-11.604 11.93-16.524 12.132-7.692 32.13-13.38 54.976-14.73z" fill="#ee7d8b"/><path d="m363.379 592.765c51.81 8.176 102.561 6.853 150.545-19.317.51-.278.698-.917.42-1.427s-.917-.699-1.425-.42c-47.557 25.937-97.864 27.19-149.213 19.086-.572-.09-1.11.302-1.201.875-.09.573.302 1.113.874 1.203z" fill="#3152bc"/><path d="m605.209 478.791c-3.656-2.616-8.396-4.262-13.46-5.363-7.403-1.61-15.498-2.065-21.737-2.87-25.932-3.348-51.919-4.241-78.045-4.771-70.609-1.434-142.573 5.743-210.844 23.736-35.707 9.41-73.93 20.865-105.315 40.809-.49.312-.635.961-.324 1.451.311.491.961.636 1.45.324 31.207-19.829 69.221-31.194 104.724-40.551 68.084-17.943 139.851-25.096 210.266-23.666 26.05.528 51.963 1.416 77.819 4.754 6.187.798 14.217 1.243 21.56 2.839 4.767 1.037 9.241 2.555 12.683 5.019.472.338 1.129.229 1.466-.244.337-.471.228-1.129-.243-1.467z" fill="#ee7d8b"/></g><path d="m398.055 513.486c6.939 0 12.563-1.584 12.563-3.538s-5.624-3.537-12.563-3.537-12.564 1.583-12.564 3.537 5.625 3.538 12.564 3.538z" fill="#292a34"/><g clip-rule="evenodd" fill-rule="evenodd"><path d="m302.282 295.111c6.171-.994 12.506 6.124 14.141 15.885 1.634 9.762-2.05 18.493-8.22 19.487-6.17.993-12.506-6.125-14.141-15.886-1.634-9.76 2.049-18.493 8.22-19.486z" fill="#3152bc"/><path d="m302.115 294.072c-2.757.444-5.094 2.238-6.76 4.968-2.344 3.844-3.357 9.59-2.33 15.731 1.028 6.137 3.858 11.262 7.332 14.167 2.464 2.062 5.26 3.026 8.014 2.582 2.756-.444 5.094-2.237 6.759-4.968 2.345-3.843 3.357-9.59 2.329-15.73-1.027-6.137-3.858-11.262-7.331-14.167-2.465-2.062-5.26-3.026-8.013-2.583zm.334 2.076c2.183-.351 4.377.485 6.332 2.12 3.156 2.64 5.671 7.326 6.606 12.901.932 5.573.077 10.799-2.051 14.288-1.317 2.159-3.12 3.636-5.299 3.987-2.184.352-4.378-.484-6.332-2.12-3.156-2.639-5.673-7.324-6.606-12.9-.933-5.574-.078-10.799 2.05-14.288 1.317-2.159 3.12-3.637 5.3-3.988z" fill="#3152bc"/><path d="m307.692 292.525c6.17-.994 12.507 6.123 14.141 15.885 1.634 9.761-2.049 18.492-8.22 19.487-6.17.993-12.507-6.125-14.141-15.886-1.635-9.761 2.049-18.493 8.22-19.486z" fill="#0b7963"/><path d="m307.524 291.486c-2.758.444-5.095 2.237-6.759 4.967-2.346 3.845-3.358 9.592-2.33 15.732 1.027 6.137 3.858 11.262 7.331 14.167 2.464 2.062 5.261 3.026 8.013 2.582 2.758-.443 5.094-2.237 6.759-4.967 2.346-3.845 3.358-9.591 2.33-15.731-1.027-6.138-3.858-11.262-7.331-14.168-2.464-2.061-5.261-3.025-8.013-2.582zm.334 2.076c2.183-.351 4.376.485 6.332 2.12 3.156 2.64 5.672 7.325 6.605 12.901.933 5.574.079 10.799-2.05 14.288-1.317 2.158-3.121 3.635-5.3 3.986-2.183.353-4.377-.484-6.332-2.118-3.156-2.641-5.672-7.326-6.605-12.902-.933-5.574-.079-10.799 2.05-14.287 1.317-2.159 3.121-3.636 5.3-3.988z" fill="#ffc500"/><path d="m306.549 331.678-1.823 44.573s1.527 13.047 3.611 18.723c2.084 5.674 10.419 25.572 13.38 28.84 2.959 3.269 6.492 8.198 6.492 8.198s28.701 9.988 33.041 13.687c4.341 3.7 12.465 9.001 12.465 9.001s6.419 19.994 7.757 22.681c1.339 2.688 6.022 21.27 13.396 28.357 7.375 7.088 13.538 7.094 15.388 5.654 1.849-1.439.005-5.582-.489-6.672-.494-1.089-10.18-25.204-10.18-25.204l-6.607-62.762 7.069-13.577-51.647-81.177z" fill="#13c8a4"/><path d="m344.155 317.366s-13.966 5.036-24.616 8.383c-5.202 1.635-9.613 2.867-11.22 2.912l-.761 3.985-.055 2.672 32.144-5.625 13.007 4.189z" fill="#13c8a4"/><path d="m310.774 306.628-1.536 20.661-1.092 2.408 17.856-6.144 10.058.73 3.083-2.421-5.073-19.437z" fill="#0b7963"/><path d="m392.98 416.753-14.879 11.304 2.972 21.936s3.372 11.392 4.711 14.08 4.605 28.043 11.979 35.13c3.284 3.157 3.434 11.442 5.963 12.288 3.152 1.053 5.505.699 6.53-.099 1.85-1.44.006-5.583-.488-6.672-.494-1.09-10.18-25.204-10.18-25.204z" fill="#13c8a4"/><path d="m358.369 309.175 51.939 93.174-32.436 25.955-16.169-20.841s7.25-7.458 7.707-9.81c.458-2.353.995-6.13.995-6.13s2.515-.05 3.054 2.043c.54 2.094-.918 8.09-.918 8.09l-3.116 4.817 10.285 9.436 13.718-13.456-6.827-6.742s-36.108-47.004-36.304-54.342c-.194-7.338 2.237-7.053 2.237-7.053l-14.955-7.259z" fill="#13c8a4"/><path d="m358.518 433.118 9.394-1.331s10.642 10.381 11.579 12.57c.936 2.189 3.087 10.543 3.087 10.543s-1.927 3.274-3.89 1.483c-1.965-1.789-3.027-6.538-3.027-6.538s-6.989-9.702-8.012-10.4c-1.024-.7-9.131-6.327-9.131-6.327z" fill="#13c8a4"/><g fill="#3152bc"><path d="m337.813 377.729s1.345 7.841 1.831 13.206c.122 1.337.19 2.516.165 3.366-.012.383-.01.674-.084.825-.254.522-.037 1.152.484 1.406.522.253 1.151.037 1.405-.485.225-.461.345-1.596.277-3.124-.227-5.155-2.006-15.551-2.006-15.551-.098-.571-.642-.956-1.214-.858s-.956.643-.858 1.215z"/><path d="m374.686 410.479 7.614-6.03c.455-.361.533-1.022.172-1.477-.359-.456-1.021-.533-1.477-.172l-7.614 6.03c-.454.359-.532 1.022-.172 1.477s1.022.532 1.477.172z"/><path d="m370.78 406.361 10.063 8.322c.447.369.51 1.033.14 1.48-.369.448-1.032.511-1.479.141l-10.804-8.935c-.432-.357-.508-.99-.172-1.44 0 0 1.699-2.278 2.787-5.172.687-1.829 1.15-3.913.671-5.794-.381-1.496-1.254-2.081-2.738-2.505-.57-.163-1.204-.082-1.822.121-1.052.344-2.059 1.054-2.703 1.83-4.594 5.537-10.054 12.116-12.138 14.628-.189.228-.194.559-.011.792 3.264 4.166 14.957 19.097 14.957 19.097.359.457.279 1.119-.178 1.476-.456.359-1.117.278-1.476-.179 0 0-11.693-14.93-14.957-19.096-.794-1.014-.774-2.443.048-3.434 2.084-2.511 7.543-9.091 12.138-14.628 1.503-1.811 4.457-3.276 6.719-2.629 2.321.662 3.602 1.667 4.198 4.007.582 2.289.094 4.831-.741 7.054-.783 2.081-1.854 3.872-2.502 4.864z"/><path d="m353.641 393.478-13.616 14.888c-.213.233-.231.583-.043.835 3.233 4.353 14.679 19.762 14.679 19.762.345.466.249 1.126-.217 1.472-.466.345-1.124.249-1.47-.217 0 0-11.447-15.41-14.678-19.762-.789-1.061-.714-2.534.178-3.511 3.296-3.603 14.023-15.332 14.023-15.332.246-.269.615-.391.972-.322 2.294.439 4.05 1.312 5.163 2.645 1.144 1.372 1.659 3.248 1.285 5.769-.085.575-.62.971-1.194.886-.573-.085-.97-.621-.884-1.195.264-1.789-.009-3.139-.82-4.111-.748-.897-1.911-1.46-3.378-1.807z"/><path d="m328.243 407.998c1.241 2.054 5.065 8.078 10.151 13.2 4.038 4.067 8.862 7.604 13.837 7.909 12.809.785 20.091.653 39.824-13.037.476-.33 1.132-.211 1.462.265.331.477.212 1.132-.265 1.464-20.38 14.138-27.92 14.218-41.149 13.407-5.441-.332-10.785-4.079-15.199-8.526-6.44-6.484-10.919-14.371-10.919-14.371-.244-.43-.156-.972.212-1.303 0 0 13.33-11.953 16.392-14.151.425-.304.741-.456.887-.496.359-.1.622-.016.79.065.554.269 5.289 3.292 5.289 3.292.489.312.632.963.32 1.452s-.963.632-1.451.32c0 0-3.311-2.123-4.612-2.905-.316.23-.818.604-1.31 1.002-3.792 3.076-11.92 10.32-14.259 12.413z"/></g><path d="m280.417-26.2435-124.415-8.7565 148.14 337.008c3.611 1.197-1.09 9.492 2.108 8.809 39.943-8.535 37.86 3.697 50.063-7.669z" fill="#13c8a4"/><path d="m342.03 280.885c8.253-1.33 16.653 7.75 18.748 20.261 2.095 12.513-2.905 23.75-11.157 25.079-8.252 1.33-16.653-7.75-18.748-20.261-2.094-12.513 2.905-23.75 11.157-25.079z" fill="#3152bc"/><path d="m341.863 279.846c-3.584.577-6.625 2.848-8.813 6.27-3.138 4.907-4.517 12.224-3.212 20.021 1.305 7.794 4.995 14.291 9.566 17.955 3.184 2.553 6.803 3.749 10.384 3.172 3.586-.577 6.626-2.848 8.814-6.27 3.138-4.907 4.518-12.223 3.213-20.021-1.305-7.795-4.995-14.291-9.567-17.955-3.185-2.553-6.802-3.749-10.385-3.172zm.334 2.076c3.021-.486 6.052.585 8.738 2.738 4.234 3.393 7.598 9.44 8.806 16.661 1.209 7.217-.005 13.997-2.91 18.539-1.84 2.879-4.36 4.842-7.377 5.327-3.019.487-6.051-.584-8.736-2.737-4.235-3.393-7.598-9.44-8.808-16.661-1.207-7.217.006-13.998 2.91-18.539 1.841-2.878 4.361-4.842 7.377-5.328z" fill="#3152bc"/><path d="m347.238 281.287c7.3-1.176 14.836 7.48 16.818 19.318s-2.336 22.403-9.637 23.579c-7.3 1.175-14.836-7.481-16.817-19.318-1.982-11.838 2.336-22.403 9.636-23.579z" fill="#13c8a4"/><path d="m346.895 280.277c-3.25.524-6 2.661-7.958 5.916-2.776 4.614-3.958 11.52-2.722 18.902 1.235 7.379 4.604 13.55 8.737 17.049 2.912 2.467 6.212 3.628 9.458 3.106 3.251-.524 6.002-2.663 7.96-5.918 2.775-4.614 3.958-11.52 2.722-18.902-1.235-7.379-4.604-13.548-8.737-17.048-2.912-2.467-6.212-3.628-9.46-3.105zm.335 2.076c2.665-.429 5.347.604 7.737 2.63 3.824 3.238 6.884 8.973 8.026 15.8 1.143 6.822.116 13.214-2.45 17.479-1.603 2.665-3.805 4.483-6.466 4.911-2.666.429-5.347-.604-7.739-2.629-3.822-3.238-6.882-8.974-8.025-15.8-1.143-6.824-.115-13.215 2.45-17.48 1.604-2.665 3.805-4.482 6.467-4.911z" fill="#ffc500"/><path d="m341.464 504.556c-.316-.16-.691-.151-.999.027-22.236 12.81-32.305 24.422-33.9 34.992-1.089 7.21 1.675 14.014 7.342 20.49.324.369.859.465 1.291.232l14.326-7.75c.279-.151.475-.42.533-.734.057-.312-.029-.634-.236-.875-3.417-3.987-5.549-8.221-4.971-13.005.441-3.634 2.428-7.55 6.457-11.898 4.173-4.504 10.502-9.429 19.558-14.908.326-.198.521-.557.506-.939-.014-.382-.234-.726-.575-.899zm-.442 2.133c-21.076 12.223-30.854 23.099-32.38 33.201-.963 6.388 1.457 12.398 6.301 18.154l12.456-6.738c-3.327-4.184-5.236-8.659-4.635-13.627.482-3.979 2.587-8.309 7.002-13.074 4.02-4.34 9.985-9.074 18.401-14.291z" fill="#3152bc"/><path d="m491.185 582.922 57.929 32.036 18.448-11.415-56.692-29.565c.149.494-16.364 8.071-19.685 8.944z" style="fill:#3152bc;stroke:#3152bc;stroke-width:2;stroke-miterlimit:1.5;stroke-linecap:round;stroke-linejoin:round"/><path d="m478.069 502.391c11.423 1.669 25.187 4.981 34.687 11.114l59.81-9.319 2.367-17.239z" style="fill:#ee7d8b;stroke:#ee7d8b;stroke-width:2;stroke-miterlimit:1.5;stroke-linecap:round;stroke-linejoin:round"/><path d="m474.308 542.096 94.389 11.027c.576.067 1.098-.346 1.166-.923.067-.577-.346-1.099-.922-1.167l-94.389-11.025c-.576-.068-1.099.346-1.166.922s.346 1.099.922 1.166z" fill="#3152bc"/><path d="m413.917 468.828c.916-7.629.86-14.506 4.202-21.7 5.056-10.886 12.737-17.191 21.673-21.857 9.108-4.756 19.507-7.83 29.812-12.21 15.161-6.447 29.838-17.739 39.012-31.331 6.256-9.268 13.322-20.501 12.167-32.19-1.568-15.885-11.318-27.669-18.952-40.14-7.398-12.082-12.734-24.848-5.866-42.994 5.405-14.276 16.604-29.454 30.272-37.106 10.091-5.649 22.107-6.401 32.765-10.619 15.671-6.201 25.061-18.397 31.45-33.159.23-.532-.015-1.152-.547-1.383-.533-.23-1.152.015-1.382.548-6.163 14.241-15.175 26.056-30.293 32.038-10.746 4.253-22.847 5.044-33.019 10.739-14.079 7.882-25.644 23.492-31.211 38.197-7.162 18.919-1.674 32.24 6.038 44.837 7.474 12.209 17.118 23.699 18.653 39.249 1.107 11.208-5.818 21.92-11.816 30.806-8.957 13.268-23.293 24.279-38.092 30.572-10.359 4.404-20.807 7.501-29.964 12.282-9.328 4.871-17.328 11.471-22.606 22.835-3.442 7.408-3.44 14.479-4.383 22.335-.069.577.342 1.1.918 1.17.576.069 1.099-.343 1.169-.919z" fill="#ffc500"/><path d="m15.6715 73.7358c.3814 1.9391 1.818 4.0118 4.1647 6.1065 3.2568 2.9087 8.3033 5.9435 14.3975 8.9563 23.3565 11.5424 23.6078 40.8084 34.5215 44.2854 12.2137 3.89 24.4441 9.666 35.2458 16.447 38.516 24.182 37.787 56.231 30.319 90.202-3.784 17.214-9.294 34.921-12.437 52.376-3.173 17.627-3.93 34.998 1.819 51.36 8.897 25.322 29.687 30.44 52.656 32.644 11.253 1.079 23.023 1.47 34.105 3.318 10.922 1.823 21.175 5.059 29.553 11.864 19.717 16.015 22.687 36.215 25.006 54.43 2.397 18.831 4.218 35.561 21.689 44.008.522.253 1.15.034 1.403-.489s.033-1.151-.489-1.405c-16.766-8.106-18.217-24.308-20.518-42.38-2.38-18.689-5.536-39.365-25.767-55.797-8.66-7.034-19.241-10.422-30.531-12.306-11.129-1.856-22.95-2.252-34.25-3.336-22.136-2.124-42.3-6.846-50.874-31.248-5.629-16.022-4.84-33.031-1.733-50.289 3.137-17.43 8.643-35.11 12.421-52.298 7.658-34.834 8.24-67.64-31.255-92.435-10.9487-6.874-22.7373-12.805-35.117-16.75-10.8685-3.462-8.5-31.0713-34.8362-44.0879-5.8914-2.9118-10.7813-5.8278-13.9298-8.6387-1.9232-1.7172-3.1885-3.3545-3.5016-4.9445-.1125-.5689-.6653-.9401-1.2338-.8287-.5696.1126-.9406.6657-.8281 1.2356z" fill="#ffc500"/><path d="m264.559 536.615c.12-.337.061-.713-.158-.996-.218-.284-.566-.436-.923-.406l-71.194 6.132c-.269.023-.519.148-.698.351-6.299 7.137-9.371 14.007-9.166 20.546.205 6.574 3.704 12.87 10.762 18.815.283.239.671.31 1.021.188l70.031-24.305c.278-.097.501-.304.619-.573s.117-.575-.001-.844c-2.944-6.704-2.431-12.922-.293-18.908zm-2.493.831-69.18 5.958c-5.684 6.532-8.553 12.779-8.365 18.773.183 5.913 3.359 11.526 9.562 16.884l68.408-23.743c-2.47-6.287-2.187-12.183-.425-17.872z" fill="#ee7d8b"/><path d="m479.215 675.692 40.955-40.162c.414-.407 1.081-.4 1.486.014.407.415.4 1.081-.015 1.487l-41.297 40.5c-.218.213-.517.321-.82.297l-153.861-12.456c-.352-.028-.667-.231-.837-.541-.17-.309-.173-.684-.008-.997l37.641-71.476c.27-.513.907-.71 1.42-.439.513.27.71.906.439 1.42l-36.898 70.066z" fill="#3152bc"/><path d="m375.923 457.752c1.591.921 2.985.963 4.116.526 1.054-.406 1.906-1.257 2.478-2.356.78-1.503 1.03-3.475.62-5.194-1.277-5.364-5.697-9.542-9.132-13.543-1.348-1.572-3.291-3.819-5.487-5.534-1.564-1.221-3.259-2.168-4.962-2.495-.569-.11-1.121.264-1.23.834-.11.57.263 1.122.833 1.231 1.401.269 2.779 1.083 4.066 2.088 2.079 1.624 3.909 3.759 5.185 5.246 3.229 3.76 7.482 7.618 8.682 12.66.295 1.237.121 2.656-.441 3.737-.322.621-.773 1.135-1.369 1.364-.637.246-1.409.134-2.307-.384-.502-.291-1.145-.119-1.435.384s-.119 1.146.383 1.436z" fill="#3152bc"/><path d="m18.8691 674.975c3.5437 1.067 11.3961 3.013 17.0406 3.919 17.1634 2.755 51.9033-.834 70.8923-26.743 7.107-9.698 19.738-27.546 19.841-31.276.014-.521 39.476 24.738 45.245 27.337.297.134-6.384 28.748-14.764 42.924-18.917 31.997-41.955 51.883-80.6251 59.238-10.9 2.074-34.2985 2.325-34.2985 2.325s-5.4048-17.333-6.6113-21.73c-1.9221-7.005-16.72-55.994-16.72-55.994z" fill="#ee7d8b"/><path d="m85.8247 695.418c-2.6903 12.758 3.7959 24.838 14.2953 27.055 10.499 2.217 21.309-6.213 23.999-18.971 2.69-12.757-3.796-24.838-14.296-27.055-10.4983-2.216-21.309 6.213-23.9983 18.971zm2.3687.5c2.3909-11.336 11.8017-19.069 21.1306-17.099 9.329 1.968 14.816 12.847 12.426 24.183-2.391 11.336-11.802 19.069-21.131 17.101-9.3286-1.97-14.8153-12.849-12.4256-24.185z" fill="#3152bc"/></g><path d="m97.8066 687.903c-.1082-.146-.188-.313-.228-.491-.0284-.125-.0378-.254-.0273-.382.0137-.157.0567-.313.1271-.455.1661-.336.4835-.592.8471-.684.1492-.038.3047-.049.4582-.031.1618.02.3205.072.4634.15.1597.09.2964.213.4067.358l1.3412 1.792c2.573-1.666 6.031-1.077 7.893 1.411 1.116 1.492 1.417 3.342.98 5.017 1.727.05 3.417.859 4.533 2.35 1.862 2.49 1.455 5.978-.867 7.982l1.325 1.771c.109.147.189.313.23.491.028.125.036.254.026.383-.013.157-.056.312-.126.454-.167.337-.485.592-.848.684-.15.038-.305.049-.458.031-.162-.019-.321-.07-.464-.15-.159-.09-.296-.213-.407-.358l-1.317-1.76-2.231 1.673 1.317 1.76c.108.147.188.314.229.491.028.125.037.255.027.383-.013.158-.056.312-.127.454-.167.338-.484.592-.848.685-.149.038-.304.048-.457.03-.163-.019-.321-.07-.464-.15-.16-.089-.297-.212-.407-.358l-1.316-1.759c-.007.005-.013.011-.021.016l-3.541 2.655c-.573.43-1.36.318-1.789-.255s-.315-1.361.258-1.791l1.453-1.09-3.982-5.322-5.5131-7.367-1.4534 1.089c-.5727.429-1.3598.317-1.7886-.255-.4288-.573-.3153-1.362.2575-1.791l1.4534-1.09 2.1092-1.582-1.3326-1.78c-.1082-.147-.1881-.313-.2291-.491-.0273-.126-.0368-.255-.0263-.382.0126-.158.0557-.314.1261-.456.1671-.336.4845-.592.8481-.684.1492-.038.3048-.048.4571-.031.1629.02.3216.072.4646.151.1597.089.2963.212.4067.357l1.3325 1.782 2.2311-1.674zm4.0364 14.45 3.981 5.321 6.06-4.544c1.474-1.105 1.772-3.183.67-4.656-1.095-1.463-3.148-1.766-4.621-.688l-.031.023zm4.561-6.615c1.445-1.112 1.732-3.169.637-4.632-1.102-1.473-3.178-1.769-4.651-.664l-.691.517-4.2812 3.211-1.0372.778-.0095.006-.041.032 3.9809 5.321 6.059-4.545z" fill="#3152bc"/><path clip-rule="evenodd" d="m51.8319 746.421-15.3979-59.772c-.1671-.648-.8281-1.038-1.4744-.871-.6473.167-1.0372.828-.8701 1.475l15.3978 59.773c.1671.648.8271 1.038 1.4745.871.6473-.167 1.0372-.828.8701-1.476z" fill="#3152bc" fill-rule="evenodd"/><path clip-rule="evenodd" d="m165.934 655.801-37.933-24.301c-.575-.342-1.318-.152-1.66.423-.341.574-.153 1.319.422 1.66l37.934 24.301c.574.342 1.317.152 1.659-.423.341-.574.153-1.318-.422-1.66z" fill="#3152bc" fill-rule="evenodd"/><path d="m540.725 393.227-12.758 2.936 10.272 9.28 13.077-4.525z" fill="#3152bc" opacity=".216"/><path d="m527.967 396.162 10.272 9.281 5.348-26.289z" fill="#3152bc"/><path d="m543.593 379.154-5.347 26.289 13.077-4.525z" fill="#3152bc"/><path d="m527.515 398.376 8.328 18.838 1.943-9.557z" fill="#3152bc"/><path d="m537.793 407.657-1.943 9.557 15.029-14.081z" fill="#3152bc"/><path clip-rule="evenodd" d="m529.101 411.41c1.352 3.724 5.157 11.295 5.259 11.348.563.289 4.165-2.956 5.991-5.08.216-.252 2.572-2.573 2.554-2.376-.114 1.277-4.159 13.153-5.635 17.012-.496 1.297-.945 2.67-1.609 3.893-.094.177-1.003 1.568-1.099 1.556-.081-.012-.159-1.807-.157-2.096.01-.938.782-4.095-.098-4.918-.429-.402-1.439 1.685-1.525 1.891-.878 2.101-1.723 4.2-2.821 6.197-.115.21-1.414 2.41-1.482 2.478-.096.1-.089-3.614.089-4.387.669-2.914 1.44-6.487.878-9.501-.146-.778-1.128-.415-1.544-.113-.765.556-3.256 5.794-3.363 5.482-.371-1.087 4.562-21.386 4.562-21.386z" fill="#ee7d8b" fill-rule="evenodd"/><path d="m223.259 421.681-4.784 8.364 10.142-.92 4.085-9.332z" fill="#3152bc" opacity=".36"/><path d="m218.475 430.045 10.142-.92-11.529-16.019z" fill="#3152bc"/><path d="m217.088 413.106 11.529 16.019 4.085-9.332z" fill="#3152bc"/><path d="m219.446 431.394 14.334 4.903-4.192-5.824z" fill="#3152bc"/><path d="m229.587 430.473 4.192 5.824-.101-15.159z" fill="#3152bc"/><path clip-rule="evenodd" d="m227.278 437.044c2.686 1.129 8.676 2.852 8.755 2.823.438-.16.483-3.728.247-5.777-.028-.241-.105-2.675-.007-2.568.633.7 5.027 8.818 6.375 11.544.453.914.97 1.843 1.299 2.814.048.138.346 1.325.291 1.37-.046.038-1.055-.816-1.21-.961-.502-.475-1.821-2.468-2.706-2.403-.431.031.192 1.619.261 1.77.697 1.522 1.407 3.028 1.938 4.619.055.166.595 1.968.599 2.038.005.102-1.997-1.756-2.326-2.238-1.24-1.817-2.785-4.019-4.693-5.219-.493-.31-.787.403-.832.779-.082.692 1.503 4.654 1.283 4.555-.774-.342-9.274-13.146-9.274-13.146z" fill="#ee7d8b" fill-rule="evenodd"/><path clip-rule="evenodd" d="m357.715 686.515s.166 26.033-5.71 31.567c-13.501 12.716-84.588 4.497-84.588 4.497 2.901 20.799.16 41.841-8.459 63.133l-41.182-7.729 6.696-42.816-6.653 14.292-41.72-20.381s23.22-53.825 41.543-66.055c18.324-12.231 68.395-7.325 68.395-7.325z" fill="#ee7d8b" fill-rule="evenodd"/><path clip-rule="evenodd" d="m222.285 742.358-3.965 8.516-43.584-21.293.399-.921s11.418-26.464 24.575-46.553c5.71-8.718 11.764-16.231 17.35-19.959 7.45-4.973 20.051-7.203 32.504-8.036 18.466-1.235 36.577.539 36.577.539l.162.016 72.458 31.154.005.688s.079 12.88-1.906 22.527c-.896 4.351-2.261 8.047-4.134 9.812-1.713 1.614-4.294 2.931-7.527 3.96-4.649 1.481-10.681 2.394-17.338 2.901-22.647 1.726-52.588-1.23-59.224-1.939 2.628 20.541-.196 41.318-8.706 62.338l-.322.797-43.029-8.076zm63.49-85.629c-1.817-.169-18.788-1.675-36.071-.519-12.052.806-24.269 2.876-31.478 7.687-5.408 3.61-11.229 10.921-16.758 19.363-11.623 17.746-21.877 40.503-24.001 45.315l39.851 19.469 6.203-13.321 1.99.606-6.539 41.809 39.332 7.382c8.293-20.839 10.913-41.434 8.074-61.796l-.188-1.346 1.349.156s5.952.688 14.734 1.358c12.426.948 30.519 1.856 45.428.72 6.473-.493 12.34-1.369 16.86-2.808 2.88-.917 5.198-2.05 6.725-3.487 1.652-1.557 2.725-4.869 3.515-8.706 1.678-8.147 1.848-18.649 1.862-21.403z" fill="#ffc500" fill-rule="evenodd"/><path clip-rule="evenodd" d="m242.888 685.659c.413-.168.867-.177 1.305-.253 1.082-.189 2.16-.407 3.241-.605 3.299-.604 6.577-1.267 9.848-2.015.565-.128.919-.693.79-1.259-.128-.565-.693-.92-1.258-.79-3.241.74-6.489 1.397-9.759 1.995-1.075.197-2.147.414-3.224.602-.583.102-1.183.152-1.736.377-.537.22-.795.834-.577 1.372.22.537.833.796 1.37.576z" fill="#ffc500" fill-rule="evenodd"/><path clip-rule="evenodd" d="m245.939 684.278c-2.396 17.113-17.469 42.972-20.556 47.07-.349.464-.256 1.124.207 1.473.464.349 1.123.257 1.472-.207 3.149-4.183 18.514-30.581 20.959-48.043.08-.576-.321-1.108-.895-1.188-.575-.081-1.106.32-1.187.895z" fill="#ffc500" fill-rule="evenodd"/><path clip-rule="evenodd" d="m231.032 663.981s-5.297-24.218-6.677-30.525c-.061-.278.042-.565.265-.74.222-.175.524-.208.78-.085 4.254 2.057 17.188 8.314 21.177 10.244.744.36 1.27 1.054 1.415 1.868.495 2.761 1.804 8.319 1.804 8.319 6.481-2.272 15.991-3.283 29.24-3.869 5.811-16.278 16.547-34.289 27.723-38.946 2.547-1.062 4.697 2.011 7.983 1.877 2.592-.105 6.23-3.587 9.003-3.152 9.134 1.434 18.584 5.713 23.965 12.266 10.705 13.034 23.267 51.836 13.609 65.903-10.492 10.966-33.569 9.005-50.461 3.695-14.001-4.399-24.317-10.889-24.259-10.752.133.3-.374-23.927-.374-23.927l-25.605 6.291s13.653 10.071 21.897 16.152c.848.625 1.194 1.728.855 2.726-.338.997-1.284 1.661-2.336 1.64-10.054-.193-26.519-.51-26.519-.51z" fill="#3152bc" fill-rule="evenodd"/><path clip-rule="evenodd" d="m251.306 654.696s4.862-3.108 9.711 1.395c.387.359-1.082 1.411-2.657 3.716-2.015 2.951-3.179 6.818-4.039 6.639-.861-.179-2.687-6.345-.802-9.412-1.829 1.06-2.023-.637-2.213-2.338z" fill="#fff" fill-rule="evenodd"/><path clip-rule="evenodd" d="m286.386 655.896-19.368-.501c-3.427.267-6.218 2.715-7.964 5.307-1.94 2.879-3.76 8.028-3.675 11.967.553.934 1.663.948 3.333.045 1.268 2.083 3.412 2.607 6.613 1.25 1.143 2.209 3.322 2.529 6.064 1.821l6.204-3.873 9.18 7.925c4.283-.597 5.21-24.796-.387-23.941z" fill="#fff" fill-rule="evenodd"/><path d="m296.993 587.043c-1.141 13.423 6.576 26.17 18.931 24.926 5.569-.561 13.311-7.25 13.023-13.25 0 0 10.296-1.209 9.29-10.277-.269-2.427-4.222-5.822-8.852-4.371l-14.032-3.529z" style="fill-rule:evenodd;clip-rule:evenodd;stroke:#3152bc;stroke-width:2;stroke-miterlimit:1.5;stroke-linecap:round"/><path clip-rule="evenodd" d="m317.758 584.64c.887.247 2.083.897 2.332 1.481.191.448.304.901.398 1.379.268 1.356.644 5.796 3.216 4.017 1.309-.906.655-2.265 1.386-3.385.311-.478 1.09-.683 1.575-.92.925-.455 1.66-1.051 2.128-1.971.666-1.306.477-3.266.148-4.635-.786-3.271-2.713-7.023-5.865-8.565-.839-.41-1.832-.459-2.721-.201-.141.041-.743.508-.796.507-.244-.008-.595-.623-.738-.796-.613-.743-1.405-1.349-2.114-1.996-2.079-1.9-4.562-3.924-7.552-3.863-1.451.029-3.053.871-4.072 1.873-.343.337-.728 1.663-1.208 1.656-1.349-.019-2.991-.875-4.314-1.187-1.891-.447-4.438-.473-6.343-.169-2.104.335-4.476 1.438-5.794 3.165-.85 1.114-.917 2.529-1.204 3.844-.826 3.787-.702 8.054 2.696 10.617 5.171 3.903 12.009 1.855 17.501-.006 2.132-.722 4.349-1.297 6.616-1.331.581-.01 3.549.157 4.725.486z" fill="#ee7d8b" fill-rule="evenodd"/><path clip-rule="evenodd" d="m193.935 154.558c24.25 39.995 44.326 81.153 64.542 123.346 10.684 22.302 22.932 44.719 30.73 68.261.183.551.778.851 1.329.668.55-.183.849-.778.667-1.329-7.827-23.627-20.109-46.128-30.832-68.508-20.244-42.257-40.352-83.474-64.64-123.53-.3-.495-.947-.654-1.443-.353-.496.3-.655.948-.353 1.445z" fill="#3152bc" fill-rule="evenodd"/><path clip-rule="evenodd" d="m185.605 205.041c31.017 42.718 55.098 91.309 76.308 139.478 10.037 22.794 19.263 46.278 30.986 68.292.274.512.91.706 1.422.433s.706-.911.433-1.423c-11.699-21.967-20.901-45.404-30.918-68.149-21.269-48.306-45.426-97.029-76.531-139.867-.341-.47-.998-.574-1.467-.234-.47.342-.574 1.001-.233 1.47z" fill="#3152bc" fill-rule="evenodd"/><path clip-rule="evenodd" d="m416.058 126.808c-1.258 28.59.128 57.195.352 85.788.466 59.365.774 120.234 15.155 178.229.14.563.711.907 1.273.767.563-.14.907-.711.767-1.273-14.341-57.835-14.629-118.539-15.093-177.74-.224-28.556-1.611-57.125-.354-85.679.026-.58-.424-1.071-1.004-1.097-.579-.026-1.07.424-1.096 1.005z" fill="#3152bc" fill-rule="evenodd"/><path clip-rule="evenodd" d="m391.796 140.761c-5.108 56.54-3.182 121.735 3.457 178.113.067.576.59.989 1.166.921s.988-.591.921-1.167c-6.622-56.24-8.547-121.277-3.451-177.678.052-.578-.374-1.09-.951-1.142-.578-.052-1.09.374-1.142.953z" fill="#3152bc" fill-rule="evenodd"/><path clip-rule="evenodd" d="m374.283 671.807c.203 3.372 1.011 10.713 2.014 15.835 3.047 15.573 17.058 44.209 45.21 52.318 10.536 3.036 29.787 8.237 33.011 7.151.451-.151-8.737 41.614-9.144 47.375-.021.297-26.611 3.583-41.381.867-33.338-6.131-57.609-19.608-76.081-50.424-5.207-8.686-12.792-28.655-12.792-28.655s13.131-10.089 16.514-12.508c5.389-3.853 42.649-31.959 42.649-31.959z" fill="#ffc500" fill-rule="evenodd"/><path clip-rule="evenodd" d="m377.875 735.613c-11.764 1.713-20.059 11.074-18.648 20.768 1.409 9.693 12.026 16.301 23.79 14.588 11.765-1.713 20.06-11.074 18.65-20.767-1.41-9.695-12.027-16.302-23.792-14.589zm.318 2.188c10.454-1.523 20.035 4.105 21.288 12.718 1.252 8.614-6.329 16.74-16.781 18.263-10.454 1.522-20.035-4.106-21.288-12.719-1.252-8.613 6.328-16.741 16.781-18.262z" fill="#3152bc" fill-rule="evenodd"/><path d="m388.08 743.514c.091-.14.209-.26.349-.352.097-.063.206-.111.318-.143.139-.038.285-.05.429-.034.34.037.659.228.853.511.079.116.137.246.169.382.035.146.041.297.018.444-.026.165-.088.321-.177.462l-1.112 1.713c2.236 1.679 2.821 4.829 1.279 7.208-.925 1.425-2.414 2.266-3.985 2.418.501 1.497.341 3.199-.584 4.625-1.543 2.38-4.657 3.128-7.103 1.771l-1.098 1.693c-.091.14-.208.26-.348.35-.099.064-.206.113-.318.144-.14.038-.286.051-.43.035-.341-.037-.659-.228-.852-.511-.08-.116-.138-.246-.171-.383-.034-.145-.041-.297-.016-.444.025-.165.087-.322.177-.461l1.091-1.683-2.134-1.385-1.091 1.683c-.092.138-.209.259-.349.35-.098.064-.206.112-.318.144-.139.038-.286.05-.429.035-.341-.037-.659-.229-.854-.511-.078-.116-.136-.247-.169-.383-.034-.145-.041-.297-.018-.445.027-.164.089-.321.178-.461l1.091-1.682c-.007-.004-.013-.008-.019-.012l-3.388-2.199c-.549-.355-.7-1.065-.345-1.613s1.066-.699 1.614-.343l1.39.902 3.3-5.088h-.001l4.57-7.043-1.391-.903c-.548-.355-.7-1.065-.344-1.613.355-.548 1.065-.699 1.613-.342l1.39.901 2.018 1.309 1.104-1.703c.092-.138.209-.259.348-.35.098-.064.206-.112.319-.143.14-.039.286-.05.429-.036.341.037.66.23.853.512.079.115.136.246.17.382.035.145.04.298.017.445-.025.165-.088.321-.178.462l-1.104 1.701 2.135 1.385zm-11.094 8.007-3.298 5.088 5.795 3.76c1.411.915 3.282.518 4.196-.891.908-1.399.52-3.255-.866-4.176l-.031-.019zm7.098 1.826c1.406.887 3.256.485 4.163-.913.914-1.409.514-3.281-.896-4.196l-.661-.428-4.095-2.657-.992-.643-.008-.007-.04-.025-3.299 5.086 5.796 3.762z" fill="#3152bc"/><path clip-rule="evenodd" d="m323.527 722.55 46.3-32.017c.501-.347.626-1.036.28-1.537-.347-.503-1.035-.628-1.537-.282l-46.299 32.017c-.502.347-.627 1.036-.282 1.538.347.502 1.035.628 1.538.281z" fill="#3152bc" fill-rule="evenodd"/><path clip-rule="evenodd" d="m437.005 791.776 10.306-55.364c.112-.6-.284-1.177-.884-1.289-.599-.111-1.176.284-1.287.885l-10.306 55.363c-.113.599.283 1.177.882 1.288.6.113 1.177-.284 1.289-.883z" fill="#3152bc" fill-rule="evenodd"/><path clip-rule="evenodd" d="m328.883 592.801c-.056-.769.379-1.486.951-2.098.962-1.029 2.366-1.787 3.287-1.801.58-.009 1.043-.488 1.034-1.068-.01-.58-.488-1.044-1.068-1.035-1.323.021-3.405.989-4.788 2.467-.991 1.06-1.611 2.361-1.511 3.691.043.579.547 1.013 1.125.97.579-.043 1.013-.548.97-1.126z" fill="#3152bc" fill-rule="evenodd"/><path clip-rule="evenodd" d="m305.227 595.603c.002.022.12 1.309.349 2.385.391 1.846 1.04 4.172 1.856 5.171.368.449.302 1.112-.148 1.479-.448.368-1.111.301-1.478-.148-.964-1.179-1.825-3.888-2.286-6.066-.328-1.545-.434-2.839-.36-3.207.117-.568.673-.936 1.241-.819.557.115.92.65.826 1.205z" fill="#3152bc" fill-rule="evenodd"/><path d="m310.964 596.043c.638 0 1.155-.518 1.155-1.156s-.517-1.156-1.155-1.156c-.637 0-1.154.518-1.154 1.156s.517 1.156 1.154 1.156z" fill="#3152bc"/><path clip-rule="evenodd" d="m283.456 596.747c.811.025 3.909.297 4.652.217.577-.061.995-.581.934-1.157-.062-.577-.58-.996-1.157-.935-.697.075-3.602-.203-4.361-.227-.581-.019-1.066.438-1.084 1.017-.019.58.436 1.066 1.016 1.085z" fill="#3152bc" fill-rule="evenodd"/><path clip-rule="evenodd" d="m289.294 599.367c.43-.121.907.043 1.164.438.318.485.181 1.137-.304 1.455-.043.028-.276.152-.695.209-1.385.19-7.778.765-8.693.909-.573.089-1.111-.303-1.2-.876-.091-.573.301-1.112.874-1.202.92-.144 7.343-.725 8.734-.915z" fill="#3152bc" fill-rule="evenodd"/><path clip-rule="evenodd" d="m293.625 607.296c.213-.288.569-.46.952-.421.577.06.997.576.937 1.154-.006.066-.077.444-.501.85-1.05 1.006-6.24 5.381-6.451 5.559-.445.372-1.108.314-1.481-.13-.373-.445-.315-1.109.129-1.482.208-.175 5.318-4.477 6.35-5.466z" fill="#3152bc" fill-rule="evenodd"/><path clip-rule="evenodd" d="m327.791 631.094c.747 5.154-.214 22.57-.58 25.923-.063.577.355 1.096.931 1.159.577.063 1.097-.354 1.16-.931.372-3.422 1.331-21.194.569-26.453-.083-.574-.617-.973-1.191-.889-.574.083-.973.616-.889 1.191z" fill="#fff" fill-rule="evenodd"/><path clip-rule="evenodd" d="m332.295 659.236c-.064-.01-.527-.088-1.086-.17-2.87-.422-10.229-1.399-14.599-1.676-6.191-.392-24.483-2.059-28.236-1.631-.576.066-1.097-.349-1.163-.926-.065-.576.349-1.097.926-1.164 3.801-.433 22.334 1.224 28.607 1.622 4.976.315 13.785 1.527 15.642 1.826.352.058.553.12.587.134.535.226.784.844.558 1.379-.206.488-.739.739-1.236.606z" fill="#fff" fill-rule="evenodd"/><path clip-rule="evenodd" d="m293.686 655.361c.809 4.101 1.593 8.168 1.219 12.4-.358 4.049-1.803 7.828-3.227 11.584-.206.542.067 1.15.61 1.356.542.206 1.149-.067 1.355-.61 1.492-3.935 2.981-7.901 3.356-12.144.393-4.434-.404-8.697-1.251-12.994-.112-.569-.665-.94-1.235-.827-.568.112-.939.665-.827 1.235z" fill="#fff" fill-rule="evenodd"/><path clip-rule="evenodd" d="m293.422 644.236c.339-.995 3.923-11.334 4.376-12.17.276-.51.087-1.149-.423-1.425-.51-.278-1.148-.087-1.425.423-.465.858-4.17 11.471-4.518 12.493-.187.549.108 1.148.656 1.335.549.187 1.147-.107 1.334-.656z" fill="#fff" fill-rule="evenodd"/><path clip-rule="evenodd" d="m272.116 661.659c-4.27 3.081-6.121 7.4-6.874 11.509-.052.286.137.56.423.612.284.053.559-.136.611-.422.708-3.869 2.435-7.945 6.455-10.846.235-.17.289-.499.119-.734s-.498-.288-.734-.119z" fill="#3152bc" fill-rule="evenodd"/><path clip-rule="evenodd" d="m264.898 659.194c-4.125 3.845-6.19 8.109-6.526 12.72-.021.289.197.542.486.563s.541-.197.562-.486c.318-4.364 2.29-8.39 6.194-12.027.213-.198.224-.531.027-.743-.198-.212-.531-.224-.743-.027z" fill="#3152bc" fill-rule="evenodd"/></g></svg>