<svg width="287" height="287" viewBox="0 0 287 287" fill="none" xmlns="http://www.w3.org/2000/svg">
<path d="M286 143.5C286 222.201 222.201 286 143.5 286C64.7994 286 1 222.201 1 143.5C1 64.7994 64.7994 1 143.5 1C222.201 1 286 64.7994 286 143.5Z" fill="white"/>
<path fill-rule="evenodd" clip-rule="evenodd" d="M143.5 284C221.096 284 284 221.096 284 143.5C284 65.904 221.096 3 143.5 3C65.904 3 3 65.904 3 143.5C3 221.096 65.904 284 143.5 284ZM143.5 286C222.201 286 286 222.201 286 143.5C286 64.7994 222.201 1 143.5 1C64.7994 1 1 64.7994 1 143.5C1 222.201 64.7994 286 143.5 286Z" fill="#D2D4D7"/>
<path fill-rule="evenodd" clip-rule="evenodd" d="M143.5 283C220.544 283 283 220.544 283 143.5C283 66.4563 220.544 4 143.5 4C66.4563 4 4 66.4563 4 143.5C4 220.544 66.4563 283 143.5 283ZM287 143.5C287 222.753 222.753 287 143.5 287C64.2471 287 0 222.753 0 143.5C0 64.2471 64.2471 0 143.5 0C222.753 0 287 64.2471 287 143.5ZM284 143.5C284 221.096 221.096 284 143.5 284C65.904 284 3 221.096 3 143.5C3 65.904 65.904 3 143.5 3C221.096 3 284 65.904 284 143.5ZM286 143.5C286 222.201 222.201 286 143.5 286C64.7994 286 1 222.201 1 143.5C1 64.7994 64.7994 1 143.5 1C222.201 1 286 64.7994 286 143.5Z" fill="#D2D4D7"/>
<path d="M76.5 155C36.4594 155 4.00003 122.541 4.00003 82.5C4.00003 42.4594 36.4594 10 76.5 10C116.541 10 149 42.4594 149 82.5C149 122.541 116.541 155 76.5 155Z" fill="white"/>
<path d="M235.194 202.015C211 202.015 191.388 182.402 191.388 158.208C191.388 134.015 211 114.402 235.194 114.402C259.387 114.402 279 134.015 279 158.208C279 182.402 259.387 202.015 235.194 202.015Z" fill="#13C8A4"/>
<path d="M115.221 119.754L133.254 131.529L113.327 140.999L115.221 119.754Z" fill="#13C8A4"/>
<path d="M101.739 115.421L108.732 118.111L106.042 125.104L99.049 122.414L101.739 115.421Z" fill="#13C8A4"/>
<path d="M187.847 254.055C186.941 258.831 185.294 262.207 183.4 264.759C183.236 265.006 183.071 265.171 182.906 265.418C182.495 265.912 182.083 266.324 181.671 266.736C181.424 266.983 181.259 267.147 181.012 267.312C178.789 269.288 176.401 270.441 174.343 271.347C169.155 273.57 168.908 279.252 168.908 279.252L209.585 279.005C209.091 272.253 209.091 259.49 209.091 259.49C200.61 257.019 196.493 255.455 187.847 254.055Z" fill="black"/>
<path d="M183.318 264.76C183.153 265.007 182.989 265.171 182.824 265.418C184.471 266.159 186.118 266.983 187.764 267.724C188.258 267.971 188.67 267.23 188.176 267.065C186.529 266.242 184.965 265.501 183.318 264.76Z" fill="white"/>
<path d="M181.589 266.736C181.342 266.983 181.177 267.147 180.93 267.312C182.742 268.218 184.635 269.041 186.447 269.947C186.941 270.194 187.353 269.453 186.859 269.288C185.129 268.383 183.318 267.559 181.589 266.736Z" fill="white"/>
<path d="M244.252 250.35C248.039 253.396 250.263 256.443 251.58 259.325C251.662 259.572 251.827 259.819 251.909 260.066C252.156 260.642 252.321 261.219 252.486 261.795C252.568 262.042 252.65 262.372 252.733 262.619C253.392 265.501 253.309 268.218 253.145 270.441C252.733 276.04 257.591 278.922 257.591 278.922L276.365 242.856C270.683 238.904 265.249 235.199 260.885 230.834C254.709 237.092 249.521 243.268 244.252 250.35Z" fill="black"/>
<path d="M183.73 165.784C183.73 165.784 193.528 161.666 201.598 160.596C201.104 153.515 200.939 148.821 200.939 148.821L226.959 150.55C229.759 166.607 230.912 189.91 242.769 210.413C248.121 219.718 257.344 227.129 266.978 235.445C261.626 242.774 253.062 252.408 247.627 259.736C246.063 257.184 222.842 244.915 210.985 213.378C211.314 238.657 212.22 264.512 212.22 264.512L182.741 262.618C182.741 262.618 178.707 209.178 183.73 165.784Z" fill="white"/>
<path d="M212.879 265.089V264.43C212.879 264.183 212.056 240.633 211.644 216.672C221.36 240.057 237.17 252.161 244.004 257.431C245.487 258.584 246.804 259.572 247.051 259.984L247.545 260.807L248.122 260.066C250.674 256.608 254.05 252.573 257.262 248.703C260.885 244.256 264.672 239.727 267.554 235.775L267.884 235.281L267.472 234.869C266.484 234.046 265.496 233.14 264.508 232.317C256.109 225.07 248.204 218.236 243.428 210.002C233.876 193.451 231.324 175.089 229.183 160.267C228.689 156.726 228.195 153.35 227.701 150.303L227.618 149.809L200.445 147.998V148.657C200.445 148.739 200.61 153.185 201.104 159.855C193.117 161.008 183.73 164.96 183.647 165.043L183.318 165.207L183.236 165.537C178.295 208.437 182.248 261.878 182.248 262.454V263.03L212.879 265.089ZM210.326 209.837L210.409 213.378C210.738 236.104 211.479 259.572 211.644 263.854L183.4 262.042C182.989 256.361 179.777 206.708 184.388 166.278C186.2 165.537 194.681 162.161 201.763 161.255L202.339 161.173L202.257 160.596C201.845 155.162 201.68 151.044 201.598 149.562L226.465 151.209C226.96 154.174 227.371 157.303 227.865 160.679C230.006 175.583 232.559 194.11 242.193 210.825C247.051 219.224 255.038 226.141 263.52 233.469C264.343 234.21 265.166 234.952 266.072 235.61C263.273 239.398 259.65 243.762 256.191 247.962C253.144 251.667 250.015 255.455 247.463 258.749C246.886 258.254 245.981 257.513 244.663 256.525C237.582 251.091 220.866 238.245 211.397 213.131L210.326 209.837Z" fill="black"/>
<path d="M251.58 259.243C251.662 259.49 251.827 259.737 251.909 259.984C253.391 258.913 254.791 257.76 256.273 256.69C256.685 256.361 256.273 255.619 255.862 255.949C254.462 257.102 253.062 258.172 251.58 259.243Z" fill="white"/>
<path d="M252.486 261.713C252.568 261.96 252.65 262.289 252.733 262.536C254.38 261.301 256.026 260.148 257.591 258.913C258.003 258.584 257.591 257.843 257.179 258.172C255.615 259.407 254.05 260.56 252.486 261.713Z" fill="white"/>
<path d="M209.091 209.343C209.174 209.343 209.256 209.343 209.338 209.261C209.668 209.178 209.832 208.767 209.668 208.437C203.821 193.204 201.598 175.665 201.598 175.5L201.516 175.006H201.022C200.939 175.006 196.411 174.759 193.364 173.936C193.034 173.853 192.705 174.018 192.623 174.347C192.54 174.677 192.705 175.006 193.034 175.088C195.587 175.747 199.128 176.077 200.445 176.159C200.857 179.206 203.163 195.015 208.515 208.849C208.597 209.178 208.844 209.343 209.091 209.343Z" fill="black"/>
<path d="M78.9852 158C120.342 158 153.92 124.422 153.92 83.0648C153.92 82.5462 153.531 82.0276 152.883 82.0276C152.235 82.0276 151.846 82.4166 151.846 83.0648C151.846 123.385 119.046 156.055 78.8555 156.055C66.9281 156.055 55.1304 153.073 44.7588 147.628C44.2402 147.369 43.7216 147.499 43.4623 148.017C43.203 148.536 43.3326 149.054 43.8512 149.314C54.6118 154.888 66.7985 158 78.9852 158Z" fill="black"/>
<path d="M73.0214 129.737C73.54 129.737 73.9289 129.348 73.9289 128.83C74.0586 128.311 73.6696 127.793 73.151 127.793C70.4285 127.404 67.7059 126.885 65.113 125.977C64.5944 125.848 64.0758 126.107 63.9462 126.626C63.8165 127.144 64.0758 127.663 64.5944 127.793C67.1873 128.7 70.0395 129.348 73.0214 129.737C72.8917 129.737 72.8917 129.737 73.0214 129.737Z" fill="black"/>
<path d="M52.2782 121.57C52.5375 121.57 52.9265 121.44 53.0561 121.181C53.3154 120.792 53.3154 120.143 52.7968 119.884C49.1667 117.291 45.796 114.18 43.0734 110.55C42.6845 110.161 42.1659 110.031 41.6473 110.42C41.2584 110.809 41.1287 111.328 41.5177 111.846C44.3699 115.606 47.8703 118.847 51.63 121.57C51.8893 121.57 52.019 121.57 52.2782 121.57Z" fill="black"/>
<path d="M38.0172 105.234C38.1468 105.234 38.2765 105.234 38.4061 105.105C38.9247 104.845 39.0544 104.327 38.7951 103.808C35.4243 97.4555 33.7389 90.1953 33.7389 82.9351C33.7389 66.9887 41.9065 52.5981 55.5193 44.3007C56.0379 44.0415 56.1675 43.3932 55.9083 43.0043C55.649 42.4857 55.0007 42.3561 54.6118 42.6154C40.3508 51.3016 31.9238 66.3405 31.9238 82.9351C31.9238 90.4545 33.7389 97.974 37.2393 104.716C37.2393 104.975 37.6282 105.234 38.0172 105.234Z" fill="black"/>
<path d="M109.452 49.2272C109.711 49.2272 109.971 49.0976 110.23 48.8383C110.619 48.4494 110.489 47.8012 110.1 47.4122C101.544 39.8928 90.5237 35.7441 78.9852 35.7441C75.7441 35.7441 72.6326 36.0034 69.5211 36.6516C69.0025 36.7812 68.6136 37.2999 68.7432 37.8184C68.8729 38.337 69.3915 38.7259 69.91 38.5963C72.8919 37.9481 76.0034 37.6888 78.9852 37.6888C90.0051 37.6888 100.506 41.7078 108.804 48.8383C108.933 49.0976 109.193 49.2272 109.452 49.2272Z" fill="black"/>
<path d="M19.4778 83.9723C19.9964 83.9723 20.515 83.5833 20.515 82.9351C20.515 80.9904 20.6446 78.9161 20.7743 76.9715C23.7561 47.0233 48.7777 24.465 78.9851 24.465C79.5037 24.465 80.0223 24.0761 80.0223 23.4279C80.0223 22.7796 79.6334 22.3906 78.9851 22.3906C47.8702 22.3906 22.0707 45.7269 18.9592 76.5825C18.6999 78.6569 18.6999 80.7312 18.6999 82.8055C18.5703 83.4537 18.9592 83.9723 19.4778 83.9723Z" fill="black"/>
<path d="M106.211 31.2065C106.6 31.2065 106.859 31.0768 107.118 30.6879C107.377 30.1693 107.118 29.6507 106.729 29.3914C101.414 26.6688 95.7093 24.7242 89.7456 23.5574C89.227 23.4277 88.7084 23.8166 88.5788 24.3352C88.4492 24.8538 88.8381 25.3724 89.3567 25.502C95.0611 26.5392 100.636 28.4839 105.822 31.0768C105.951 31.0768 106.081 31.2065 106.211 31.2065Z" fill="black"/>
<path d="M93.5054 141.535C93.6351 141.535 93.6351 141.535 93.7648 141.535C109.063 137.646 122.546 127.663 130.714 114.05C130.973 113.532 130.843 113.013 130.325 112.754C129.806 112.494 129.288 112.624 129.028 113.143C121.12 126.366 108.026 135.96 93.2462 139.72C92.7276 139.85 92.4683 140.368 92.5979 140.887C92.7276 141.276 93.1165 141.535 93.5054 141.535Z" fill="black"/>
<path d="M78.9851 143.35C79.5037 143.35 80.0223 142.961 80.0223 142.313C80.0223 141.665 79.6334 141.276 78.9851 141.276C65.6316 141.276 52.5374 136.608 42.1658 128.311C41.7769 127.922 41.1286 128.052 40.7397 128.441C40.3508 128.83 40.4804 129.478 40.8693 129.867C51.6299 138.553 65.1131 143.35 78.9851 143.35Z" fill="black"/>
<path d="M9.88396 110.679C10.0136 110.679 10.1433 110.679 10.2729 110.55C10.7915 110.42 11.0508 109.772 10.7915 109.253C7.55035 100.826 5.86498 92.0103 5.86498 82.9352C5.86498 63.229 13.6437 44.6897 27.7751 30.8176C28.164 30.4287 28.164 29.7805 27.7751 29.3916C27.3861 29.0026 26.7379 29.0026 26.349 29.3916C11.8287 43.6526 3.92029 62.5808 3.92029 82.9352C3.92029 92.2696 5.60568 101.345 8.97646 110.031C9.10611 110.42 9.49502 110.679 9.88396 110.679Z" fill="black"/>
<path d="M39.573 21.3536C39.7026 21.3536 39.9619 21.3536 40.0916 21.224C43.7216 19.02 47.4813 17.0753 51.3707 15.3899C51.8893 15.1306 52.1486 14.6121 51.8893 14.0935C51.63 13.5749 51.1114 13.3156 50.5929 13.5749C46.5738 15.2603 42.6844 17.205 39.0544 19.5386C38.5358 19.7979 38.4062 20.4461 38.7951 20.8351C38.9247 21.0944 39.184 21.3536 39.573 21.3536Z" fill="black"/>
<path d="M144.067 48.7087C144.197 48.7087 144.327 48.7087 144.586 48.579C145.104 48.3198 145.234 47.6715 144.975 47.2826C135.9 30.688 121.12 18.1123 103.229 12.019C95.4501 9.42607 87.2825 8 78.9851 8C78.4666 8 77.948 8.38892 77.948 9.03715C77.948 9.68538 78.3369 10.0743 78.9851 10.0743C87.0232 10.0743 95.0612 11.3708 102.581 13.9637C119.953 19.9274 134.344 32.114 143.16 48.3197C143.289 48.4494 143.678 48.7087 144.067 48.7087Z" fill="black"/>
<path d="M124.88 87.9913C125.398 87.9913 125.787 87.6024 125.787 87.0838C125.917 85.6577 126.047 84.1019 126.047 82.6758C126.047 75.0267 124.232 67.5073 120.731 60.7658C120.472 60.2472 119.953 60.1176 119.435 60.3768C118.916 60.6361 118.786 61.1547 119.046 61.6733C122.417 68.1556 124.102 75.4157 124.102 82.6758C124.102 84.1019 123.972 85.5281 123.843 86.9542C123.972 87.4728 124.361 87.9913 124.88 87.9913Z" fill="black"/>
<path d="M129.384 87.2289L128.807 86.5701C128.231 85.9114 128.56 85.2527 129.219 84.6763C131.524 82.2883 133.83 81.5472 136.63 82.453C138.524 79.6534 144.782 85.4173 148.652 89.9462C149.805 91.346 151.534 92.9928 153.428 94.722C151.534 99.4156 149.969 104.274 148.158 108.967C147.911 109.708 147.581 110.449 147.252 111.108C145.934 109.214 144.535 107.485 143.052 106.003C141.9 104.85 141.076 103.697 140.335 102.627C138.03 100.98 135.065 97.357 135.065 97.357C134.324 98.0981 133.089 97.6041 130.372 95.3808C127.654 93.1576 128.89 91.099 128.89 91.099C127.407 89.0404 129.384 87.2289 129.384 87.2289Z" fill="white"/>
<path d="M147.417 112.343L147.828 111.355C148.158 110.614 148.405 109.873 148.734 109.214C149.64 106.909 150.463 104.521 151.287 102.298C152.11 99.9097 153.016 97.4394 154.004 95.0515L154.169 94.6397L153.839 94.3927C151.946 92.7459 150.299 91.099 149.064 89.6169C147.334 87.5583 141.323 81.0532 137.865 81.2179C137.289 81.2179 136.795 81.4649 136.383 81.8766C133.583 81.1356 131.113 81.8766 128.725 84.3469C128.313 84.7586 127.16 85.9115 128.313 87.1466L128.56 87.3936C127.902 88.2994 127.243 89.7815 128.313 91.346C127.902 92.3342 127.984 94.228 130.042 96.0396C132.183 97.8511 133.83 98.9216 134.983 98.3452C135.806 99.3333 138.03 101.804 139.924 103.203C140.665 104.356 141.57 105.509 142.641 106.579C143.958 107.897 145.193 109.461 146.758 111.602L147.417 112.343ZM152.769 94.8868C151.863 97.1924 151.04 99.498 150.216 101.804C149.393 104.109 148.57 106.415 147.664 108.72C147.499 109.132 147.334 109.461 147.17 109.873C145.852 108.062 144.699 106.744 143.547 105.591C142.476 104.521 141.653 103.45 140.912 102.298L140.829 102.215L140.747 102.133C138.524 100.568 135.642 97.0277 135.559 97.0277L135.148 96.5336L134.654 97.0277C134.407 97.2747 133.666 97.4394 130.784 94.9691C128.56 93.0753 129.466 91.5931 129.466 91.5107L129.713 91.099L129.466 90.7696C128.231 89.2875 129.713 87.8053 129.795 87.7229L130.207 87.3112L129.219 86.2408C129.054 86.0761 128.89 85.9114 129.631 85.1703C131.854 82.9471 133.913 82.2884 136.383 83.1118L136.795 83.2765L137.042 82.8648C137.206 82.5354 137.536 82.453 137.865 82.3707C140.006 82.2883 144.535 86.3231 148.075 90.3579C149.393 91.6754 150.957 93.2399 152.769 94.8868Z" fill="black"/>
<path d="M146.346 87.8061C146.346 87.3944 146.264 86.9827 146.017 86.6533H150.793C151.122 86.6533 151.452 86.9003 151.452 87.3121C151.452 87.7238 151.205 87.9708 150.793 87.9708L146.346 87.8061Z" fill="black"/>
<path d="M125.184 86.5703H138.524C138.606 87.0644 138.771 87.4761 139.182 87.8055H125.267C124.937 87.8055 124.608 87.5584 124.608 87.1467C124.608 86.735 124.855 86.5703 125.184 86.5703Z" fill="black"/>
<path d="M151.616 92.9105C156.145 97.2747 163.144 105.344 169.814 107.979C178.13 111.273 192.787 93.3222 203.162 94.3927L200.528 112.426C200.528 112.426 191.799 130.459 175.66 133.999C159.521 137.54 143.052 109.297 142.97 109.214C145.029 104.438 147.828 96.2042 151.616 92.9105Z" fill="black"/>
<path d="M172.778 134.988C173.766 134.988 174.754 134.905 175.742 134.658C191.964 131.035 200.939 112.92 201.022 112.755L201.104 112.591L203.821 93.8988L203.163 93.8164C197.893 93.3224 191.717 97.3572 185.788 101.227C179.695 105.262 173.931 108.967 169.978 107.403C164.709 105.344 159.274 99.7451 154.827 95.2986C153.839 94.2281 152.851 93.3224 151.945 92.4166L151.534 92.0049L151.122 92.3343C147.993 95.0516 145.605 100.898 143.629 105.591C143.135 106.744 142.723 107.815 142.311 108.803L142.147 109.214L142.476 109.544C145.276 114.155 158.698 134.988 172.778 134.988ZM199.869 112.261C199.21 113.579 190.564 130.047 175.495 133.423C161.333 136.552 146.593 113.99 143.629 109.132C144.041 108.226 144.452 107.238 144.864 106.168C146.676 101.804 148.816 96.3691 151.616 93.7341C152.357 94.4752 153.181 95.2986 154.004 96.122C158.451 100.651 164.05 106.332 169.567 108.473C174.178 110.285 180.189 106.332 186.529 102.133C191.964 98.5923 197.563 94.8869 202.257 94.8869C202.339 94.8869 202.339 94.8869 202.421 94.8869L199.869 112.261Z" fill="black"/>
<path d="M137.124 83.5235C137.865 85.4997 139.018 87.0643 140.665 88.4641C140.829 88.6288 140.829 88.8758 140.665 89.0405C138.853 91.0167 139.018 93.734 140.994 95.5455C141.406 95.8749 140.829 96.4513 140.418 96.1219C138.688 94.5574 137.947 92.1695 138.935 89.9462C139.018 89.8639 139.677 88.8758 139.594 88.8758C139.512 88.3817 138.524 87.6407 138.194 87.2289C137.371 86.1585 136.712 85.0057 136.3 83.6882C136.136 83.1942 136.877 83.0295 137.124 83.5235Z" fill="black"/>
<path d="M135.23 88.6287C137.289 89.4522 137.618 92.0048 135.806 93.3223C135.395 93.6516 134.983 92.9105 135.395 92.5812C136.63 91.7577 136.383 89.9462 134.983 89.4522C134.571 89.2051 134.736 88.4641 135.23 88.6287Z" fill="black"/>
<path d="M131.36 90.4402C132.925 91.346 137.042 93.8986 135.477 96.2042C135.148 96.6159 134.489 96.2042 134.736 95.7925C135.807 94.1456 132.019 91.84 130.866 91.1812C130.454 90.8519 130.866 90.1932 131.36 90.4402Z" fill="black"/>
<path d="M210.326 92.6636L211.726 96.2044L196.164 98.0159L195.422 90.7698L210.326 92.6636Z" fill="black"/>
<path d="M198.14 96.6984C206.868 89.9463 224.819 101.639 227.701 111.602C230.583 121.566 234.041 169.901 234.041 169.901L181.095 169.16C181.095 169.16 185.377 116.955 191.552 108.144C197.646 99.251 195.175 98.9216 198.14 96.6984Z" fill="black"/>
<path d="M186.529 124.777C186.776 124.777 187.106 124.612 187.106 124.283C187.106 124.201 188.176 119.343 190.4 111.767C190.482 111.438 190.317 111.108 189.988 111.026C189.658 110.944 189.329 111.108 189.247 111.438C186.941 119.096 185.953 123.954 185.953 124.036C185.871 124.365 186.118 124.695 186.447 124.777H186.529Z" fill="white"/>
<path d="M178.13 139.763H182.412C185.047 139.763 187.188 137.623 187.188 134.988V129.8C187.188 127.165 185.047 125.024 182.412 125.024H178.13C177.801 125.024 177.472 125.271 177.472 125.683C177.472 126.095 177.719 126.342 178.13 126.342H182.412C184.388 126.342 185.953 127.988 185.953 129.882V135.07C185.953 137.046 184.306 138.611 182.412 138.611H178.13C177.801 138.611 177.472 138.858 177.472 139.269C177.472 139.681 177.801 139.763 178.13 139.763Z" fill="white"/>
<path d="M174.013 141.493C177.719 141.493 180.765 138.446 180.765 134.741V124.201H167.261V134.741C167.261 138.446 170.226 141.493 174.013 141.493Z" fill="white"/>
<path d="M174.013 142.069C178.048 142.069 181.342 138.775 181.342 134.741V123.542H166.602V134.741C166.602 138.775 169.896 142.069 174.013 142.069ZM180.107 124.777V134.741C180.107 138.117 177.389 140.834 174.013 140.834C170.637 140.834 167.92 138.117 167.92 134.741V124.777H180.107Z" fill="black"/>
<path d="M172.778 120.331C173.107 120.331 173.354 120.083 173.354 119.836L174.507 111.685C174.59 111.355 174.343 111.026 174.013 110.943C173.684 110.861 173.354 111.108 173.272 111.438L172.119 119.589C172.037 119.919 172.284 120.248 172.613 120.331C172.778 120.331 172.778 120.331 172.778 120.331Z" fill="white"/>
<path d="M176.895 120.907C177.142 120.907 177.307 120.825 177.472 120.578L179.366 117.037C179.53 116.708 179.448 116.378 179.119 116.214C178.789 116.049 178.46 116.131 178.295 116.461L176.401 120.001C176.237 120.331 176.319 120.66 176.648 120.825C176.648 120.825 176.731 120.907 176.895 120.907Z" fill="white"/>
<path d="M193.281 77.3478C195.999 71.3368 202.586 68.4548 207.938 70.9251C213.291 73.3954 215.514 80.2298 212.797 86.2408C212.797 86.2408 212.797 86.2409 212.797 86.3232C213.373 86.5702 213.867 86.8996 214.196 87.2289C216.914 89.5345 216.337 92.9106 213.702 94.0634C211.397 95.0515 208.185 94.8868 206.209 92.4989C203.574 93.487 200.692 93.5693 198.14 92.6635C190.235 89.8639 190.564 83.3588 193.281 77.3478Z" fill="white"/>
<path d="M210.903 95.2162C211.973 95.2162 213.044 94.9692 213.949 94.5575C215.349 93.8987 216.255 92.7459 216.502 91.2638C216.749 89.6169 216.008 87.97 214.526 86.6526C214.196 86.4055 213.867 86.1585 213.455 85.9115C214.69 83.0295 214.855 79.8181 213.949 76.9361C212.961 73.8895 210.903 71.5016 208.185 70.2664C205.386 69.0313 202.257 69.0313 199.375 70.3487C196.493 71.6662 194.105 73.9718 192.705 77.0185C190.729 81.3826 190.399 85.0057 191.552 87.8877C192.54 90.2756 194.681 92.0872 197.81 93.1576C200.363 94.0634 203.245 94.0634 205.962 93.1576C207.444 94.6398 209.256 95.2162 210.903 95.2162ZM203.904 70.6781C205.221 70.6781 206.456 70.9252 207.691 71.5016C210.162 72.572 211.973 74.7129 212.797 77.4302C213.62 80.1475 213.455 83.1942 212.22 85.9938L211.973 86.4879L212.467 86.8173C212.961 87.0643 213.455 87.3937 213.785 87.6407C214.938 88.6288 215.514 89.8639 215.267 91.0991C215.102 92.1695 214.443 92.9929 213.455 93.4047C211.479 94.3104 208.515 94.2281 206.621 92.0048L206.374 91.6755L205.962 91.8401C203.492 92.8282 200.775 92.9106 198.304 92.0048C195.505 91.0167 193.611 89.4522 192.705 87.3937C191.635 84.841 191.964 81.5473 193.775 77.5126C195.011 74.7129 197.152 72.572 199.786 71.4192C201.186 70.9251 202.586 70.6781 203.904 70.6781Z" fill="black"/>
<path d="M200.99 81.7307C200.535 81.7173 200.177 81.3379 200.191 80.8833C200.204 80.4287 200.584 80.0711 201.038 80.0845C201.493 80.098 201.851 80.4774 201.837 80.932C201.824 81.3866 201.444 81.7442 200.99 81.7307Z" fill="black"/>
<path d="M194.105 81.6296C195.093 80.0651 196.246 78.6653 197.646 77.4301C198.057 77.1008 198.634 77.6772 198.222 78.0065C196.905 79.1593 195.752 80.5592 194.764 82.0413C194.517 82.4531 193.858 82.0413 194.105 81.6296Z" fill="black"/>
<path d="M201.186 72.4897C202.998 74.4659 211.973 78.9124 208.597 83.3589C207.774 84.5117 206.786 84.9234 207.691 86.0762C208.762 87.0643 209.75 85.8292 209.75 85.8292C211.397 86.2409 213.208 86.8173 214.114 87.6408C218.478 83.853 218.478 79.0771 216.502 77.5126C216.502 77.5126 204.974 60.9618 199.622 65.3259C194.928 69.2784 201.186 72.4897 201.186 72.4897Z" fill="black"/>
<path d="M208.432 88.8759C210.162 88.0525 212.303 88.5466 213.538 90.0287C213.867 90.4404 213.291 91.0168 212.961 90.6051C211.973 89.37 210.326 88.8759 208.844 89.617C208.35 89.864 208.021 89.1229 208.432 88.8759Z" fill="black"/>
<path d="M182.165 133.752C182.165 133.752 180.107 128.894 182.577 128.565C189.658 127.741 197.563 135.482 204.727 138.528C204.727 142.728 204.398 146.927 204.233 151.127C204.151 153.679 204.068 156.15 204.068 158.702C198.057 156.891 193.117 153.762 191.388 150.962C189.906 148.409 187.188 148.245 185.953 146.763C183.483 147.833 179.942 141.41 182.742 139.105C182.659 139.105 179.448 136.634 182.165 133.752Z" fill="white"/>
<path d="M204.563 159.526V157.797C204.563 155.656 204.645 153.35 204.727 151.127C204.81 149.727 204.892 148.327 204.974 147.01C205.139 144.21 205.304 141.41 205.304 138.528V138.117L204.892 137.952C202.504 136.882 200.034 135.399 197.481 133.753C192.458 130.624 187.353 127.33 182.412 127.906C181.754 127.989 181.26 128.318 181.013 128.812C180.271 130.129 181.013 132.6 181.424 133.588C180.683 134.494 180.354 135.399 180.436 136.388C180.518 137.623 181.26 138.528 181.754 139.105C180.436 140.669 180.93 143.222 182.083 145.033C183.071 146.763 184.471 147.586 185.706 147.421C186.282 147.915 186.941 148.327 187.682 148.657C188.835 149.233 189.988 149.892 190.811 151.209C192.623 154.256 197.728 157.385 203.821 159.279L204.563 159.526ZM204.068 138.94C204.068 141.575 203.904 144.292 203.739 146.927C203.657 148.327 203.574 149.727 203.492 151.127C203.41 153.35 203.327 155.573 203.327 157.797V157.879C197.975 156.15 193.364 153.268 191.799 150.633C190.811 148.986 189.411 148.245 188.176 147.586C187.435 147.174 186.694 146.845 186.282 146.351L185.953 146.022L185.541 146.186C184.883 146.433 183.812 145.775 183.071 144.457C182.083 142.81 181.754 140.587 182.989 139.599L183.565 139.105L182.989 138.611C182.989 138.611 181.754 137.623 181.671 136.305C181.589 135.564 181.918 134.823 182.577 134.164L182.824 133.835L182.659 133.506C182.165 132.27 181.589 130.294 182.083 129.471C182.165 129.306 182.248 129.224 182.577 129.141C187.024 128.647 191.964 131.776 196.822 134.741C199.21 136.305 201.681 137.87 204.068 138.94Z" fill="black"/>
<path d="M200.198 144.951C200.939 142.399 201.516 139.846 202.092 137.293C205.633 139.27 209.091 140.505 212.22 139.434C220.866 136.47 224.078 120.66 214.114 112.838C204.151 105.015 203.245 94.3928 203.245 94.3928C218.972 95.0516 234.123 104.521 241.122 123.624C249.027 145.363 238.734 156.397 230.583 160.267C221.196 164.631 203.986 159.69 196.822 155.573C197.975 152.115 199.128 148.574 200.198 144.951Z" fill="black"/>
<path d="M182.577 133.011C185.624 131.365 188.588 133.176 191.058 134.988C191.47 135.317 191.058 135.976 190.647 135.729C188.423 134.082 185.706 132.27 182.989 133.753C182.495 133.917 182.083 133.258 182.577 133.011Z" fill="black"/>
<path d="M183.4 138.199C185.788 137.54 188.094 138.281 189.658 140.258C189.988 140.669 189.411 141.246 189.082 140.834C187.765 139.105 185.788 138.446 183.647 139.022C183.071 139.105 182.906 138.364 183.4 138.199Z" fill="black"/>
<path d="M185.459 144.128C185.788 144.622 186.118 145.116 186.447 145.527C186.777 145.939 186.035 146.351 185.706 145.939C185.377 145.445 185.047 144.951 184.718 144.539C184.471 144.045 185.212 143.634 185.459 144.128Z" fill="black"/>
<path d="M209.585 140.175C211.479 140.175 213.867 139.764 216.42 138.528C219.137 137.211 221.031 135.152 221.854 132.517C223.172 128.4 222.102 122.966 218.643 116.461C218.478 116.131 218.149 116.049 217.82 116.214C217.49 116.378 217.408 116.708 217.573 117.037C220.784 123.13 221.854 128.4 220.702 132.106C219.961 134.411 218.314 136.223 215.926 137.376C209.75 140.34 205.057 137.952 204.974 137.952C204.645 137.787 204.316 137.952 204.151 138.199C203.986 138.528 204.069 138.858 204.398 139.022C204.48 139.187 206.456 140.175 209.585 140.175Z" fill="white"/>
<path d="M218.643 162.325C223.09 162.325 227.289 161.914 230.583 160.843C230.912 160.761 231.077 160.349 230.994 160.102C230.912 159.855 230.5 159.608 230.253 159.69C220.702 162.819 201.927 160.02 196.905 158.126C196.575 157.961 196.246 158.126 196.081 158.455C195.999 158.785 196.081 159.114 196.411 159.279C200.034 160.679 209.668 162.325 218.643 162.325Z" fill="white"/>
<path d="M151.946 62.9379C152.11 62.9379 152.275 62.8556 152.357 62.7732C152.604 62.5262 152.604 62.1145 152.357 61.8675L146.923 56.4328C146.676 56.1858 146.264 56.1858 146.017 56.4328C145.77 56.6799 145.77 57.0916 146.017 57.3386L151.452 62.7732C151.616 62.8556 151.781 62.9379 151.946 62.9379Z" fill="#13C8A4"/>
<path d="M146.429 62.9378C146.593 62.9378 146.758 62.8554 146.84 62.7731L152.275 57.3385C152.522 57.0915 152.522 56.6797 152.275 56.4327C152.028 56.1857 151.616 56.1857 151.369 56.4327L145.935 61.8673C145.688 62.1144 145.688 62.5261 145.935 62.7731C146.182 62.8554 146.346 62.9378 146.429 62.9378Z" fill="#13C8A4"/>
<path d="M124.443 47.4576C124.526 53.1393 129.054 57.7504 134.736 57.7504C140.418 57.7504 145.029 53.1393 145.029 47.4576C145.029 41.776 140.418 37.1648 134.736 37.1648C129.054 37.1648 124.361 39.8821 124.443 47.4576Z" fill="#13C8A4"/>
<path d="M54.8 70C55.0133 69.6267 55.3733 69.3733 55.88 69.24C56.4133 69.08 57.0933 69 57.92 69C58.7733 69 59.4533 69.0933 59.96 69.28C60.4667 69.44 60.8267 69.72 61.04 70.12C61.2533 70.4933 61.3733 70.84 61.4 71.16C61.4533 71.48 61.48 71.9467 61.48 72.56V94.8C61.48 95.84 61.3467 96.6133 61.08 97.12C60.84 97.6 60.4533 97.92 59.92 98.08C59.4133 98.24 58.7733 98.32 58 98.32C57.2267 98.32 56.6133 98.2533 56.16 98.12C55.7067 97.9867 55.36 97.8267 55.12 97.64C54.88 97.4533 54.7067 97.1867 54.6 96.84C54.44 96.3867 54.36 95.6933 54.36 94.76V89.88H43.52C41.6533 89.88 40.5467 89.3733 40.2 88.36C40.0667 87.9333 40 87.36 40 86.64C40 85.92 40.04 85.3867 40.12 85.04L43.44 71.64C43.6 71.0267 43.7333 70.56 43.84 70.24C43.9733 69.92 44.2133 69.6133 44.56 69.32C44.9333 69.0267 45.4 68.88 45.96 68.88C46.52 68.88 47.1333 68.9733 47.8 69.16C49.6667 69.6667 50.6 70.52 50.6 71.72C50.6 72.1467 50.5067 72.7067 50.32 73.4C50.2933 73.4533 50.28 73.4933 50.28 73.52L47.84 83.28H54.36V72.36C54.36 71.7467 54.3733 71.2933 54.4 71C54.4533 70.7067 54.5867 70.3733 54.8 70Z" fill="#13C8A4"/>
<path d="M67.1119 72.44C67.8852 71.3467 68.9652 70.44 70.3519 69.72C71.7652 68.9733 73.3919 68.6 75.2319 68.6C77.0719 68.6 78.6719 68.96 80.0319 69.68C81.4185 70.4 82.4985 71.2933 83.2719 72.36C84.0719 73.4267 84.7119 74.68 85.1919 76.12C85.9919 78.52 86.3919 81.0667 86.3919 83.76C86.3919 88.5867 85.3519 92.4133 83.2719 95.24C82.4985 96.3067 81.4185 97.1867 80.0319 97.88C78.6719 98.5733 77.0852 98.92 75.2719 98.92C73.4585 98.92 71.8452 98.5733 70.4319 97.88C69.0452 97.16 67.9519 96.28 67.1519 95.24C66.3785 94.2 65.7385 92.96 65.2319 91.52C64.4585 89.2267 64.0719 86.6267 64.0719 83.72C64.0719 81.0533 64.3785 78.7733 64.9919 76.88C65.6319 74.9867 66.3385 73.5067 67.1119 72.44ZM75.1919 91.8C77.9385 91.8 79.3119 89.1867 79.3119 83.96V83.72C79.3119 78.36 77.9519 75.68 75.2319 75.68C72.5119 75.68 71.1519 78.3733 71.1519 83.76C71.1519 89.12 72.4985 91.8 75.1919 91.8Z" fill="#13C8A4"/>
<path d="M105.848 91C105.848 88.7067 106.448 86.88 107.648 85.52C108.848 84.16 110.514 83.48 112.648 83.48C114.808 83.48 116.461 84.1467 117.608 85.48C118.754 86.8133 119.328 88.6667 119.328 91.04C119.328 93.3867 118.754 95.2133 117.608 96.52C116.461 97.8 114.834 98.44 112.728 98.44C110.621 98.44 108.941 97.7733 107.688 96.44C106.461 95.08 105.848 93.2667 105.848 91ZM112.568 93.64C114.194 93.64 115.008 92.7333 115.008 90.92C115.008 89.96 114.808 89.28 114.408 88.88C114.034 88.48 113.421 88.28 112.568 88.28C111.741 88.28 111.141 88.4933 110.768 88.92C110.394 89.32 110.208 90 110.208 90.96C110.208 91.92 110.394 92.6133 110.768 93.04C111.168 93.44 111.768 93.64 112.568 93.64ZM89.0078 76.44C89.0078 74.1467 89.6078 72.32 90.8078 70.96C92.0078 69.6 93.6745 68.92 95.8078 68.92C97.9412 68.92 99.5811 69.5867 100.728 70.92C101.901 72.2533 102.488 74.0933 102.488 76.44C102.488 78.7867 101.901 80.6133 100.728 81.92C99.5811 83.2 97.9545 83.84 95.8478 83.84C93.7678 83.84 92.1011 83.1733 90.8478 81.84C89.6211 80.5067 89.0078 78.7067 89.0078 76.44ZM95.7278 79.04C97.3278 79.04 98.1278 78.1467 98.1278 76.36C98.1278 75.4 97.9411 74.72 97.5678 74.32C97.1945 73.92 96.5811 73.72 95.7278 73.72C94.9011 73.72 94.2878 73.9333 93.8878 74.36C93.5145 74.76 93.3278 75.44 93.3278 76.4C93.3278 77.3333 93.5278 78.0133 93.9278 78.44C94.3278 78.84 94.9278 79.04 95.7278 79.04ZM110.488 67.92C110.834 67.3067 111.168 67 111.488 67C111.834 67 112.328 67.1733 112.968 67.52C113.608 67.8667 113.928 68.24 113.928 68.64C113.928 68.8267 113.834 69.08 113.648 69.4L98.1678 98.64L98.0878 98.76C97.7945 99.2933 97.4878 99.56 97.1678 99.56C96.8478 99.56 96.3678 99.3867 95.7278 99.04C95.0878 98.72 94.7678 98.4 94.7678 98.08C94.7678 97.76 94.8611 97.44 95.0478 97.12L110.488 67.92Z" fill="#13C8A4"/>
</svg>
