<svg width="160" height="160" viewBox="0 0 160 160" fill="none" xmlns="http://www.w3.org/2000/svg">
<path d="M159.443 80.0007C159.443 123.876 123.875 159.443 80.0006 159.443C36.1257 159.443 0.558105 123.876 0.558105 80.0007C0.558105 36.1258 36.1257 0.558167 80.0006 0.558167C123.875 0.558167 159.443 36.1258 159.443 80.0007Z" fill="white"/>
<path fill-rule="evenodd" clip-rule="evenodd" d="M80.0006 158.328C123.26 158.328 158.328 123.26 158.328 80.0007C158.328 36.7416 123.26 1.67315 80.0006 1.67315C36.7415 1.67315 1.67309 36.7416 1.67309 80.0007C1.67309 123.26 36.7415 158.328 80.0006 158.328ZM80.0006 159.443C123.875 159.443 159.443 123.876 159.443 80.0007C159.443 36.1258 123.875 0.558167 80.0006 0.558167C36.1257 0.558167 0.558105 36.1258 0.558105 80.0007C0.558105 123.876 36.1257 159.443 80.0006 159.443Z" fill="#9CA5AB"/>
<path fill-rule="evenodd" clip-rule="evenodd" d="M80 157.77C122.951 157.77 157.77 122.951 157.77 80C157.77 37.0488 122.951 2.22997 80 2.22997C37.0488 2.22997 2.22997 37.0488 2.22997 80C2.22997 122.951 37.0488 157.77 80 157.77ZM160 80C160 124.183 124.183 160 80 160C35.8172 160 0 124.183 0 80C0 35.8172 35.8172 0 80 0C124.183 0 160 35.8172 160 80ZM158.328 80C158.328 123.259 123.259 158.328 80 158.328C36.7409 158.328 1.67247 123.259 1.67247 80C1.67247 36.7409 36.7409 1.67247 80 1.67247C123.259 1.67247 158.328 36.7409 158.328 80ZM159.443 80C159.443 123.875 123.875 159.443 80 159.443C36.1251 159.443 0.557491 123.875 0.557491 80C0.557491 36.1251 36.1251 0.557491 80 0.557491C123.875 0.557491 159.443 36.1251 159.443 80Z" fill="#9CA5AB"/>
<path d="M31.8502 118.621L36.7893 123.957L30.4243 126.779L28.5575 124.148L31.8502 118.621Z" fill="white"/>
<path d="M30.3477 127.054L28.2898 124.158L31.803 118.249L37.1536 124.026L30.3477 127.054ZM28.819 124.129L30.4947 126.495L36.4187 123.864L31.8912 118.984L28.819 124.129Z" fill="white"/>
<path fill-rule="evenodd" clip-rule="evenodd" d="M111.336 45C113.545 45 115.336 46.7909 115.336 49V111C115.336 113.209 113.545 115 111.336 115H49C46.7909 115 45 113.209 45 111V49C45 46.7909 46.7909 45 49 45H111.336Z" fill="#13C8A4"/>
<path fill-rule="evenodd" clip-rule="evenodd" d="M91.4885 88.2277H98.7219C98.8179 88.2278 98.9116 88.1979 98.9895 88.1422C99.0674 88.0865 99.1256 88.0079 99.1559 87.9175L101.75 80.1813C101.752 80.176 101.754 80.1707 101.755 80.1654L104.034 72.3906C104.067 72.2771 104.054 72.1552 103.998 72.051L103.829 71.7341C103.79 71.6614 103.732 71.6007 103.66 71.5584C103.589 71.5161 103.508 71.4939 103.425 71.4941H94.2338C94.1251 71.4938 94.0199 71.5319 93.937 71.6016C93.8541 71.6713 93.799 71.7681 93.7816 71.8744L92.4386 80.1677C92.4387 80.1714 92.4387 80.1752 92.4386 80.179L91.0385 87.6911C91.0261 87.7566 91.0284 87.824 91.0453 87.8885C91.0622 87.9531 91.0932 88.0131 91.1362 88.0643C91.1791 88.1156 91.233 88.1568 91.2939 88.1851C91.3548 88.2133 91.4213 88.2279 91.4885 88.2277ZM73.6642 88.2277H80.8702C80.9662 88.2278 81.0599 88.1979 81.1378 88.1422C81.2157 88.0865 81.2739 88.0079 81.3042 87.9175L83.917 80.1813C83.9187 80.176 83.9202 80.1707 83.9216 80.1654L86.2147 72.3906C86.2485 72.2773 86.2362 72.1555 86.1805 72.051L86.0069 71.7341C85.9681 71.6618 85.9102 71.6013 85.8394 71.559C85.7686 71.5167 85.6876 71.4943 85.6049 71.4941H76.3456C76.2369 71.4938 76.1317 71.5319 76.0488 71.6016C75.9659 71.6713 75.9108 71.7681 75.8934 71.8744L74.5413 80.1699V80.1767L73.2165 87.6957C73.2049 87.7606 73.2077 87.8274 73.2248 87.8911C73.2419 87.9549 73.2728 88.0142 73.3155 88.0649C73.3581 88.1156 73.4114 88.1564 73.4717 88.1846C73.5319 88.2127 73.5976 88.2274 73.6642 88.2277ZM56.3196 88.2277H63.5553C63.6513 88.2278 63.7449 88.1979 63.8228 88.1422C63.9007 88.0865 63.959 88.0079 63.9892 87.9175L66.5838 80.1813C66.5854 80.176 66.587 80.1707 66.5884 80.1654L68.8678 72.3906C68.9008 72.2771 68.8877 72.1552 68.8313 72.051L68.66 71.7341C68.6211 71.6618 68.5632 71.6013 68.4924 71.559C68.4217 71.5167 68.3406 71.4943 68.258 71.4941H59.0649C58.9566 71.4943 58.8519 71.5327 58.7695 71.6024C58.6871 71.672 58.6323 71.7685 58.615 71.8744L57.272 80.1677C57.272 80.1714 57.272 80.1752 57.272 80.179L55.8719 87.6911C55.8595 87.7564 55.8617 87.8236 55.8785 87.888C55.8952 87.9523 55.9261 88.0123 55.9688 88.0635C56.0115 88.1147 56.0651 88.1559 56.1257 88.1843C56.1863 88.2127 56.2525 88.2275 56.3196 88.2277Z" fill="white"/>
</svg>
