<svg width="139" height="136" viewBox="0 0 139 136" fill="none" xmlns="http://www.w3.org/2000/svg">
<path d="M102.196 5.34423L82.4585 21.179L59.5384 24.006L37.9241 27.117L16.8803 42.6677L4 53L16.8802 63.7356L35.282 85.6729L53.6838 104.806L53.6838 128.678L74.6282 112.723L96.3419 110.016L113.29 94.9094L139 91.3546L124.057 71.6522L120.598 48.3494L102.196 5.34423Z" fill="#13C8A4"/>
<path d="M88.3328 18.2101C88.4659 27.4972 95.7872 35.0345 104.972 35.0345C114.157 35.0345 121.611 27.4972 121.611 18.2101C121.611 8.92307 114.157 1.38574 104.972 1.38574C95.7872 1.38574 88.1997 5.82738 88.3328 18.2101Z" fill="#EE7D8B"/>
<path d="M37.6117 97.8273C37.1088 98.8101 37.4983 100.016 38.4817 100.52C39.465 101.024 40.6698 100.636 41.1727 99.6534L37.6117 97.8273ZM102.535 31.7598C102.07 30.7572 100.881 30.3206 99.8791 30.7844L83.5543 38.3434C82.5525 38.8073 82.1175 39.996 82.5826 40.9986C83.0477 42.0011 84.2369 42.4378 85.2386 41.974L99.7496 35.2549L106.487 49.7771C106.952 50.7796 108.141 51.2163 109.143 50.7525C110.145 50.2886 110.58 49.0998 110.115 48.0973L102.535 31.7598ZM75.2247 67.7413L74.9457 69.7216L75.2247 67.7413ZM41.1727 99.6534L53.5236 75.5152L49.9626 73.689L37.6117 97.8273L41.1727 99.6534ZM66.9103 68.5787L74.9457 69.7216L75.5037 65.7611L67.4683 64.6182L66.9103 68.5787ZM93.2808 58.7521L102.599 33.2894L98.8432 31.91L89.5247 57.3727L93.2808 58.7521ZM74.9457 69.7216C82.8849 70.8507 90.5262 66.2791 93.2808 58.7521L89.5247 57.3727C87.4182 63.1286 81.5748 66.6246 75.5037 65.7611L74.9457 69.7216ZM53.5236 75.5152C56.0472 70.5832 61.4221 67.7981 66.9103 68.5787L67.4683 64.6182C60.2913 63.5975 53.2627 67.2395 49.9626 73.689L53.5236 75.5152Z" fill="black"/>
<path d="M46.6352 60.37L49.2779 57.6979C50.0609 56.9062 50.0609 55.5206 49.2779 54.6299C48.4949 53.8382 47.1246 53.8382 46.2437 54.6299L43.601 57.302L41.0562 54.6299C40.2732 53.8382 38.9029 53.8382 38.022 54.6299C37.2389 55.4217 37.2389 56.8072 38.022 57.6979L40.6647 60.37L38.022 63.0421C37.2389 63.8339 37.2389 65.2194 38.022 66.1101C38.805 66.9019 40.1753 66.9019 41.0562 66.1101L43.6989 63.438L46.3416 66.1101C46.7331 66.506 47.2225 66.7039 47.8098 66.7039C48.397 66.7039 48.8864 66.506 49.2779 66.1101C50.0609 65.3184 50.0609 63.9328 49.2779 63.0421L46.6352 60.37Z" fill="white"/>
<path d="M71.0067 36.5192L73.6494 33.8471C74.4324 33.0553 74.4324 31.6698 73.6494 30.7791C72.8663 29.9874 71.496 29.9874 70.6151 30.7791L67.9724 33.4512L65.3297 30.7791C64.5467 29.9874 63.1764 29.9874 62.2955 30.7791C61.5125 31.5708 61.5125 32.9564 62.2955 33.8471L64.9382 36.5192L62.2955 39.1913C61.5125 39.983 61.5125 41.3686 62.2955 42.2593C63.0785 43.051 64.4488 43.051 65.3297 42.2593L67.9724 39.5872L70.6151 42.2593C71.0067 42.6552 71.496 42.8531 72.0833 42.8531C72.6706 42.8531 73.16 42.6552 73.5515 42.2593C74.3345 41.4675 74.3345 40.082 73.5515 39.1913L71.0067 36.5192Z" fill="white"/>
<path d="M111.626 73.9284L114.269 71.2563C115.052 70.4645 115.052 69.079 114.269 68.1883C113.486 67.3965 112.115 67.3965 111.235 68.1883L108.592 70.8604L105.949 68.1883C105.166 67.3965 103.796 67.3965 102.915 68.1883C102.132 68.98 102.132 70.3656 102.915 71.2563L105.558 73.9284L102.915 76.6005C102.132 77.3922 102.132 78.7778 102.915 79.6685C103.698 80.4602 105.068 80.4602 105.949 79.6685L108.592 76.9964L111.235 79.6685C111.626 80.0643 112.115 80.2623 112.703 80.2623C113.29 80.2623 113.779 80.0643 114.171 79.6685C114.954 78.8767 114.954 77.4912 114.171 76.6005L111.626 73.9284Z" fill="white"/>
<path d="M75.5091 92.6335L78.1518 89.9613C78.9348 89.1696 78.9348 87.7841 78.1518 86.8934C77.3688 86.1016 75.9985 86.1016 75.1176 86.8934L72.4749 89.5655L69.8322 86.8934C69.0492 86.1016 67.6789 86.1016 66.798 86.8934C66.0149 87.6851 66.0149 89.0706 66.798 89.9613L69.4407 92.6335L66.798 95.3056C66.0149 96.0973 66.0149 97.4828 66.798 98.3735C67.581 99.1653 68.9513 99.1653 69.8322 98.3735L72.4749 95.7014L75.1176 98.3735C75.5091 98.7694 75.9985 98.9674 76.5858 98.9674C77.173 98.9674 77.6624 98.7694 78.0539 98.3735C78.8369 97.5818 78.8369 96.1963 78.0539 95.3056L75.5091 92.6335Z" fill="white"/>
<path d="M104.872 11.2825C101.153 11.2825 98.1189 14.3504 98.1189 18.1112C98.1189 21.8719 101.153 24.9399 104.872 24.9399C108.592 24.9399 111.528 21.8719 111.528 18.1112C111.528 14.3504 108.592 11.2825 104.872 11.2825ZM107.711 18.1112C107.711 19.6947 106.439 20.9812 104.872 20.9812C103.306 20.9812 102.034 19.6947 102.034 18.1112C102.034 16.5277 103.306 15.2412 104.872 15.2412C106.439 15.2412 107.711 16.5277 107.711 18.1112Z" fill="white"/>
</svg>
