<svg width="160" height="160" viewBox="0 0 160 160" fill="none" xmlns="http://www.w3.org/2000/svg">
<path d="M159.443 80C159.443 123.875 123.875 159.443 80.0001 159.443C36.1252 159.443 0.557617 123.875 0.557617 80C0.557617 36.1251 36.1252 0.557526 80.0001 0.557526C123.875 0.557526 159.443 36.1251 159.443 80Z" fill="white"/>
<path fill-rule="evenodd" clip-rule="evenodd" d="M80.0001 158.328C123.259 158.328 158.328 123.259 158.328 80C158.328 36.7409 123.259 1.67251 80.0001 1.67251C36.741 1.67251 1.6726 36.7409 1.6726 80C1.6726 123.259 36.741 158.328 80.0001 158.328ZM80.0001 159.443C123.875 159.443 159.443 123.875 159.443 80C159.443 36.1251 123.875 0.557526 80.0001 0.557526C36.1252 0.557526 0.557617 36.1251 0.557617 80C0.557617 123.875 36.1252 159.443 80.0001 159.443Z" fill="#9CA5AB"/>
<path fill-rule="evenodd" clip-rule="evenodd" d="M80 157.77C122.951 157.77 157.77 122.951 157.77 80C157.77 37.0488 122.951 2.22997 80 2.22997C37.0488 2.22997 2.22997 37.0488 2.22997 80C2.22997 122.951 37.0488 157.77 80 157.77ZM160 80C160 124.183 124.183 160 80 160C35.8172 160 0 124.183 0 80C0 35.8172 35.8172 0 80 0C124.183 0 160 35.8172 160 80ZM158.328 80C158.328 123.259 123.259 158.328 80 158.328C36.7409 158.328 1.67247 123.259 1.67247 80C1.67247 36.7409 36.7409 1.67247 80 1.67247C123.259 1.67247 158.328 36.7409 158.328 80ZM159.443 80C159.443 123.875 123.875 159.443 80 159.443C36.1251 159.443 0.557491 123.875 0.557491 80C0.557491 36.1251 36.1251 0.557491 80 0.557491C123.875 0.557491 159.443 36.1251 159.443 80Z" fill="#9CA5AB"/>
<mask id="mask0" mask-type="alpha" maskUnits="userSpaceOnUse" x="2" y="2" width="156" height="156">
<circle cx="80" cy="80" r="78" fill="#9CA5AB"/>
</mask>
<g mask="url(#mask0)">
<path d="M124.04 35.9597H36.6948V123.046H124.04V35.9597Z" fill="#EE7D8B"/>
<path d="M126.21 125.21H34.7959V33.7961H126.21V125.21ZM38.8648 121.153H122.141V38.1234H38.8648V121.153Z" fill="#EE7D8B"/>
<path d="M80.8658 100.768C73.081 100.768 66.1017 96.7411 62.3436 90.0301C61.8067 88.9563 62.0751 87.8826 63.1488 87.3457C64.2226 86.8088 65.2964 87.0774 65.8332 88.1511C68.7861 93.5199 74.6917 97.0096 80.8658 97.0096C90.2612 97.0096 98.046 89.2248 98.046 79.8294C98.046 70.434 90.2612 62.6494 80.8658 62.6494C71.4704 62.6494 63.6858 70.434 63.6858 79.8294C63.6858 80.9032 62.8805 81.9769 61.5383 81.9769C60.1961 81.9769 59.3906 81.1716 59.3906 79.8294C59.3906 68.0181 69.0545 58.6228 80.5974 58.6228C92.1403 58.6228 101.804 68.2865 101.804 79.8294C101.804 91.3723 92.6771 100.768 80.8658 100.768Z" fill="white"/>
<path d="M80.8655 112.579C62.6116 112.579 47.5791 97.5464 47.5791 79.2925C47.5791 61.0386 62.6116 46.0061 80.8655 46.0061C89.9924 46.0061 99.1195 50.0327 105.294 56.7437C106.099 57.549 106.099 58.8911 105.294 59.6964C104.488 60.5018 103.146 60.5018 102.341 59.6964C96.7034 53.7908 88.9187 50.3011 80.8655 50.3011C64.7591 50.3011 51.6057 63.4547 51.6057 79.561C51.6057 95.6674 64.7591 108.821 80.8655 108.821C96.9719 108.821 110.125 95.6674 110.125 79.561C110.125 75.8029 109.32 72.3132 107.978 68.8235C107.441 67.7497 107.978 66.6759 109.052 66.1391C110.125 65.6022 111.199 66.139 111.736 67.2127C113.347 71.2393 114.152 75.266 114.152 79.561C114.152 97.8149 99.3878 112.579 80.8655 112.579Z" fill="white"/>
<path d="M90.5679 97.4527C90.229 91.6902 85.9354 90.6732 85.9354 90.6732C85.5964 87.2835 80.7378 86.2667 80.7378 86.2667C82.0937 79.8262 84.1275 77.6794 83.1106 75.7585C81.5288 72.7078 78.704 74.9676 75.5403 81.973C75.2013 82.7639 74.8623 83.5549 74.5233 84.3458C73.7324 83.7809 72.7155 83.8939 71.3596 85.4757C68.1959 89.4304 66.5011 93.611 67.857 103.102C67.518 103.893 67.179 104.571 66.7271 105.249L81.9807 125.248C81.9807 125.248 85.4834 123.101 86.3873 115.983C86.9522 112.028 87.6302 106.266 88.1952 103.328C91.4719 103.78 90.6809 100.39 90.5679 97.4527Z" fill="white"/>
<path d="M81.8675 126.265L65.71 105.249L65.936 104.797C66.2749 104.232 66.6139 103.667 66.8399 102.989C65.484 93.3848 67.1788 89.0912 70.5685 84.9106C71.8114 83.3287 73.0543 83.1027 73.8453 83.2157C74.0712 82.6508 74.2972 82.0858 74.5232 81.6338C77.009 76.3233 79.1558 73.7246 81.1896 73.6116C81.8676 73.6116 82.8845 73.9505 83.6754 75.4194C84.3534 76.8883 83.9014 78.2442 83.1105 80.391C82.6585 81.7469 81.9805 83.4417 81.5286 85.8145C82.9975 86.2665 85.9352 87.5094 86.5002 90.2211C87.7431 90.7861 90.9068 92.4809 91.1327 97.5655C91.1327 98.0175 91.2457 98.3564 91.2457 98.8084C91.3587 100.729 91.5847 102.65 90.4548 103.667C90.0029 104.119 89.4379 104.232 88.76 104.232C88.308 106.492 87.856 109.881 87.517 112.819C87.4041 113.949 87.1781 115.079 87.0651 116.096C86.0482 123.553 82.4325 125.926 82.2065 126.039L81.8675 126.265ZM67.7438 105.023L82.0935 123.892C82.9975 122.988 84.9183 120.502 85.5962 115.757C85.7092 114.74 85.8222 113.723 86.0482 112.593C86.5001 109.203 86.9521 105.249 87.517 103.102L87.743 102.311L88.534 102.424C88.873 102.537 89.4379 102.537 89.6639 102.311C90.1158 101.859 90.0029 100.164 89.8899 98.8084C89.8899 98.3564 89.7768 97.9045 89.7768 97.5655C89.5509 92.5939 85.9352 91.577 85.8222 91.577L85.2572 91.464L85.1443 90.899C84.9183 88.1873 80.6247 87.2834 80.6247 87.1704L79.8337 86.9444L79.9467 86.1534C80.5116 83.3287 81.3026 81.2949 81.7546 79.713C82.4325 77.7922 82.7715 76.8883 82.3195 76.0974C81.9806 75.5324 81.7546 75.1934 81.4156 75.1934C81.0766 75.1934 79.3818 75.5324 76.218 82.1988C75.8791 82.9897 75.5401 83.7807 75.2012 84.5716L74.8621 85.4755L73.9582 84.9106C73.7322 84.7976 73.1673 84.3456 71.9244 85.8145C68.8737 89.6562 67.2918 93.6108 68.6477 102.763V102.989L68.5347 103.215C68.3087 104.006 68.0827 104.571 67.7438 105.023Z" fill="black"/>
<path d="M67.1785 104.345C61.19 116.322 57.3484 120.729 50.23 122.762C39.4959 125.926 13.8472 111.802 -2.19737 114.401L-6.03906 147.281C-6.03906 147.281 17.2369 162.422 44.1286 160.275C67.4045 158.354 82.8842 134.513 85.7089 122.762C82.8842 114.966 73.619 108.639 67.1785 104.345Z" fill="#13C8A4"/>
<path d="M38.8181 161.405C14.2993 161.405 -6.26497 148.185 -6.49095 148.072L-6.94287 147.733L-2.98822 113.723L-2.3103 113.61C6.16396 112.141 17.011 115.305 27.4061 118.243C36.4453 120.841 45.0325 123.327 50.0041 121.858C56.7835 119.938 60.5122 115.87 66.5007 103.893L66.9526 102.989L67.7436 103.554C74.071 107.848 83.6752 114.288 86.6129 122.423L86.7259 122.649L86.6129 122.875C83.6752 134.852 67.8565 159.145 44.3546 161.066C42.3208 161.292 40.513 161.405 38.8181 161.405ZM-5.13506 146.829C-1.85834 148.863 19.7228 161.405 44.0156 159.371C66.6137 157.563 81.8674 134.4 84.8051 122.762C82.0934 115.531 73.619 109.655 67.5176 105.475C61.6421 117.226 57.5745 121.406 50.4561 123.44C45.0326 125.022 36.2193 122.423 26.8411 119.824C17.35 117.113 6.61593 113.949 -1.51936 115.079L-5.13506 146.829Z" fill="#13C8A4"/>
<path d="M79.8336 87.2835L79.0427 89.5433C78.8167 90.2212 79.8336 90.5602 80.1726 89.8823C80.3986 89.0913 80.7376 88.4134 80.9635 87.6225C81.1895 86.8315 80.0596 86.6056 79.8336 87.2835Z" fill="black"/>
<path d="M89.5506 97.7913C89.4376 97.1134 88.3077 97.3394 88.4207 98.1303C88.5337 99.0342 88.4207 99.9381 88.0818 100.842C87.8558 101.52 88.8727 101.859 89.2117 101.181C89.6636 99.9381 89.7766 98.9212 89.5506 97.7913Z" fill="black"/>
<path d="M73.6191 85.9276C72.2633 88.5264 71.3593 91.2382 70.9073 94.176C70.7944 94.8539 71.9243 95.1928 72.0372 94.5149C72.4892 91.6902 73.2802 89.0913 74.6361 86.4926C74.8621 85.8146 73.9581 85.2497 73.6191 85.9276Z" fill="black"/>
<path d="M85.2571 91.351C85.0311 91.8029 84.9181 92.3679 84.6921 92.8198C84.4661 93.4978 85.483 93.8367 85.822 93.1588C86.048 92.7068 86.161 92.1419 86.387 91.6899C86.6129 91.012 85.483 90.673 85.2571 91.351Z" fill="black"/>
</g>
</svg>
