<svg width="287" height="287" viewBox="0 0 287 287" fill="none" xmlns="http://www.w3.org/2000/svg">
<path d="M286 143.5C286 222.201 222.201 286 143.5 286C64.7994 286 1 222.201 1 143.5C1 64.7994 64.7994 1 143.5 1C222.201 1 286 64.7994 286 143.5Z" fill="white"/>
<path fill-rule="evenodd" clip-rule="evenodd" d="M143.5 284C221.096 284 284 221.096 284 143.5C284 65.904 221.096 3 143.5 3C65.904 3 3 65.904 3 143.5C3 221.096 65.904 284 143.5 284ZM143.5 286C222.201 286 286 222.201 286 143.5C286 64.7994 222.201 1 143.5 1C64.7994 1 1 64.7994 1 143.5C1 222.201 64.7994 286 143.5 286Z" fill="#D2D4D7"/>
<path fill-rule="evenodd" clip-rule="evenodd" d="M143.5 283C220.544 283 283 220.544 283 143.5C283 66.4563 220.544 4 143.5 4C66.4563 4 4 66.4563 4 143.5C4 220.544 66.4563 283 143.5 283ZM287 143.5C287 222.753 222.753 287 143.5 287C64.2471 287 0 222.753 0 143.5C0 64.2471 64.2471 0 143.5 0C222.753 0 287 64.2471 287 143.5ZM284 143.5C284 221.096 221.096 284 143.5 284C65.904 284 3 221.096 3 143.5C3 65.904 65.904 3 143.5 3C221.096 3 284 65.904 284 143.5ZM286 143.5C286 222.201 222.201 286 143.5 286C64.7994 286 1 222.201 1 143.5C1 64.7994 64.7994 1 143.5 1C222.201 1 286 64.7994 286 143.5Z" fill="#D2D4D7"/>
<path d="M172 232C133.846 232 135.054 174.191 101.888 166.532C88.6275 163.463 81.4062 153.679 75.2879 143.056C65.0731 125.352 38 132.512 38 152.945V232H172Z" fill="#13C8A4"/>
<path d="M190 232C206.515 232 205.992 206.891 220.347 203.564C226.087 202.231 229.212 197.982 231.86 193.368C236.282 185.678 248 188.788 248 197.663V232H190Z" fill="#13C8A4"/>
<path d="M57.1259 212.768L65.9853 222.339L54.5683 227.402L51.2196 222.682L57.1259 212.768Z" fill="white"/>
<path d="M54.4364 227.903L50.745 222.708L57.0468 212.109L66.6445 222.471L54.4364 227.903ZM51.6942 222.656L54.7001 226.901L65.3262 222.181L57.205 213.427L51.6942 222.656Z" fill="white"/>
<path d="M66.961 231.779H37.6932V189.063H66.961V231.779ZM38.4843 230.988H66.17V189.854H38.4843V230.988Z" fill="black"/>
<path d="M66.5655 227.586H38.0887V231.357H66.5655V227.586Z" fill="black"/>
<path d="M66.961 231.752H37.6932V227.191H66.961V231.752ZM38.4843 230.961H66.17V227.982H38.4843V230.961Z" fill="black"/>
<path d="M66.539 214.693C66.4336 214.693 66.3281 214.666 66.249 214.587L41.2527 189.591C41.0945 189.433 41.0945 189.195 41.2527 189.037C41.4109 188.879 41.6482 188.879 41.8064 189.037L66.8027 214.033C66.9609 214.192 66.9609 214.429 66.8027 214.587C66.75 214.666 66.6445 214.693 66.539 214.693Z" fill="black"/>
<path d="M66.5392 221.785C66.4337 221.785 66.3282 221.759 66.2491 221.68L37.6932 193.15C37.535 192.992 37.535 192.755 37.6932 192.597C37.8514 192.438 38.0888 192.438 38.247 192.597L66.8028 221.126C66.9611 221.284 66.9611 221.522 66.8028 221.68C66.7501 221.759 66.6446 221.785 66.5392 221.785Z" fill="black"/>
<path d="M66.5392 228.878C66.4337 228.878 66.3282 228.852 66.2491 228.773L37.746 200.296C37.5878 200.138 37.5878 199.901 37.746 199.742C37.9042 199.584 38.1415 199.584 38.2997 199.742L66.8028 228.219C66.961 228.377 66.961 228.615 66.8028 228.773C66.7501 228.852 66.6446 228.878 66.5392 228.878Z" fill="black"/>
<path d="M60.6065 230.065C60.501 230.065 60.3956 230.038 60.3165 229.959L37.7987 207.442C37.6405 207.283 37.6405 207.046 37.7987 206.888C37.9569 206.73 38.1942 206.73 38.3524 206.888L60.8702 229.406C61.0284 229.564 61.0284 229.801 60.8702 229.959C60.8174 230.038 60.712 230.065 60.6065 230.065Z" fill="black"/>
<path d="M54.1201 230.671C54.0146 230.671 53.9092 230.645 53.8301 230.566L37.8514 214.587C37.6932 214.429 37.6932 214.192 37.8514 214.033C38.0096 213.875 38.2469 213.875 38.4051 214.033L54.3838 230.012C54.542 230.17 54.542 230.408 54.3838 230.566C54.331 230.645 54.2256 230.671 54.1201 230.671Z" fill="black"/>
<path d="M46.1308 229.801C46.0253 229.801 45.9199 229.775 45.8408 229.696L37.7987 221.654C37.6405 221.495 37.6405 221.258 37.7987 221.1C37.9569 220.942 38.1942 220.942 38.3524 221.1L46.3945 229.142C46.5527 229.3 46.5527 229.537 46.3945 229.696C46.3417 229.775 46.2363 229.801 46.1308 229.801Z" fill="black"/>
<path d="M66.592 207.547C66.4865 207.547 66.3811 207.521 66.302 207.442L48.4512 189.591C48.293 189.433 48.293 189.195 48.4512 189.037C48.6094 188.879 48.8467 188.879 49.0049 189.037L66.8557 206.888C67.0139 207.046 67.0139 207.283 66.8557 207.442C66.8029 207.521 66.6975 207.547 66.592 207.547Z" fill="black"/>
<path d="M66.6447 200.401C66.5392 200.401 66.4337 200.375 66.3546 200.296L55.6495 189.591C55.4913 189.433 55.4913 189.195 55.6495 189.037C55.8077 188.879 56.045 188.879 56.2032 189.037L66.9084 199.742C67.0666 199.9 67.0666 200.138 66.9084 200.296C66.8556 200.375 66.7501 200.401 66.6447 200.401Z" fill="black"/>
<path d="M66.6711 193.256C66.5656 193.256 66.4601 193.23 66.381 193.15L62.8478 189.591C62.6896 189.433 62.6896 189.195 62.8478 189.037C63.006 188.879 63.2433 188.879 63.4015 189.037L66.9347 192.597C67.0929 192.755 67.0929 192.992 66.9347 193.15C66.882 193.23 66.7765 193.256 66.6711 193.256Z" fill="black"/>
<path d="M38.1414 214.693C38.036 214.693 37.9305 214.666 37.8514 214.587C37.6932 214.429 37.6932 214.192 37.8514 214.033L62.8477 189.037C63.0059 188.879 63.2432 188.879 63.4014 189.037C63.5596 189.195 63.5596 189.433 63.4014 189.591L38.4315 214.587C38.3524 214.666 38.2469 214.693 38.1414 214.693Z" fill="black"/>
<path d="M38.1414 221.785C38.036 221.785 37.9305 221.759 37.8514 221.68C37.6932 221.522 37.6932 221.284 37.8514 221.126L66.3809 192.597C66.5391 192.438 66.7764 192.438 66.9346 192.597C67.0929 192.755 67.0929 192.992 66.9346 193.15L38.4315 221.68C38.3524 221.759 38.2469 221.785 38.1414 221.785Z" fill="black"/>
<path d="M38.1414 228.878C38.036 228.878 37.9305 228.852 37.8514 228.773C37.6932 228.615 37.6932 228.377 37.8514 228.219L66.3546 199.742C66.5128 199.584 66.7501 199.584 66.9083 199.742C67.0665 199.901 67.0665 200.138 66.9083 200.296L38.4051 228.773C38.3524 228.852 38.2469 228.878 38.1414 228.878Z" fill="black"/>
<path d="M43.415 230.724C43.3095 230.724 43.204 230.698 43.1249 230.618C42.9667 230.46 42.9667 230.223 43.1249 230.065L66.3019 206.888C66.4601 206.73 66.6974 206.73 66.8556 206.888C67.0138 207.046 67.0138 207.283 66.8556 207.442L43.6787 230.618C43.6259 230.698 43.5204 230.724 43.415 230.724Z" fill="black"/>
<path d="M50.6924 230.539C50.5869 230.539 50.4814 230.513 50.4023 230.434C50.2441 230.276 50.2441 230.038 50.4023 229.88L66.2491 214.033C66.4073 213.875 66.6446 213.875 66.8028 214.033C66.961 214.192 66.961 214.429 66.8028 214.587L50.956 230.434C50.9033 230.513 50.7978 230.539 50.6924 230.539Z" fill="black"/>
<path d="M57.5479 230.777C57.4424 230.777 57.337 230.75 57.2579 230.671C57.0997 230.513 57.0997 230.276 57.2579 230.118L66.2492 221.126C66.4074 220.968 66.6447 220.968 66.8029 221.126C66.9611 221.284 66.9611 221.522 66.8029 221.68L57.838 230.671C57.7589 230.75 57.6534 230.777 57.5479 230.777Z" fill="black"/>
<path d="M38.0888 207.547C37.9833 207.547 37.8778 207.521 37.7987 207.442C37.6405 207.283 37.6405 207.046 37.7987 206.888L55.6494 189.037C55.8076 188.879 56.0449 188.879 56.2032 189.037C56.3614 189.195 56.3614 189.433 56.2032 189.591L38.3524 207.442C38.2997 207.521 38.1942 207.547 38.0888 207.547Z" fill="black"/>
<path d="M38.0887 200.349C37.9833 200.349 37.8778 200.322 37.7987 200.243C37.6405 200.085 37.6405 199.848 37.7987 199.69L48.4511 189.037C48.6093 188.879 48.8466 188.879 49.0049 189.037C49.1631 189.195 49.1631 189.433 49.0049 189.591L38.3524 200.243C38.2997 200.322 38.1942 200.349 38.0887 200.349Z" fill="black"/>
<path d="M37.9833 193.256C37.8778 193.256 37.7723 193.23 37.6932 193.15C37.535 192.992 37.535 192.755 37.6932 192.597L41.5165 188.773C41.6747 188.615 41.912 188.615 42.0702 188.773C42.2284 188.932 42.2284 189.169 42.0702 189.327L38.247 193.15C38.1942 193.23 38.0888 193.256 37.9833 193.256Z" fill="black"/>
<path d="M136.919 213C136.243 216.568 135.012 219.09 133.598 220.997C133.475 221.181 133.352 221.304 133.229 221.489C132.921 221.858 132.613 222.166 132.306 222.473C132.121 222.658 131.998 222.781 131.814 222.904C130.153 224.38 128.369 225.241 126.831 225.918C122.956 227.579 122.771 231.823 122.771 231.823L153.159 231.639C152.79 226.594 152.79 217.06 152.79 217.06C146.454 215.153 143.378 213.984 136.919 213Z" fill="black"/>
<path d="M133.784 221C133.661 221.185 133.538 221.308 133.415 221.492C134.645 222.046 135.875 222.661 137.106 223.215C137.475 223.399 137.782 222.845 137.413 222.722C136.244 222.169 135.014 221.615 133.784 221Z" fill="white"/>
<path d="M132.492 222.476C132.308 222.661 132.185 222.784 132 222.907C133.353 223.584 134.768 224.199 136.121 224.875C136.49 225.06 136.798 224.506 136.429 224.383C135.137 223.707 133.784 223.091 132.492 222.476Z" fill="white"/>
<path d="M92.825 178.921C90.4048 181.742 88.0502 183.368 85.855 184.361C85.6544 184.464 85.4856 184.513 85.2851 184.615C84.8313 184.791 84.4093 184.912 83.9873 185.034C83.7341 185.106 83.5653 185.155 83.3438 185.173C81.1601 185.665 79.1885 185.553 77.5228 185.399C73.348 184.971 71 188.63 71 188.63L97.1109 203.332C99.3976 198.695 104.317 190.271 104.317 190.271C99.8769 185.487 97.8468 182.95 92.825 178.921Z" fill="black"/>
<path d="M85.9829 184.431C85.7821 184.534 85.6131 184.582 85.4123 184.685C86.1808 185.778 86.9174 186.925 87.6859 188.017C87.9069 188.361 88.4565 188.022 88.2037 187.733C87.488 186.67 86.7195 185.578 85.9829 184.431Z" fill="white"/>
<path d="M84.1281 185.062C83.8746 185.135 83.7055 185.184 83.4838 185.202C84.2943 186.464 85.1893 187.702 85.9998 188.963C86.2208 189.308 86.7705 188.968 86.5176 188.679C85.7599 187.447 84.9176 186.239 84.1281 185.062Z" fill="white"/>
<path d="M185.64 229.986H146.432L161.066 224.079H171.007L185.64 229.986Z" fill="white"/>
<path d="M185.641 231.304H146.432C145.799 231.304 145.246 230.856 145.14 230.25C145.035 229.643 145.351 229.01 145.931 228.773L160.565 222.867C160.723 222.814 160.882 222.761 161.066 222.761H171.007C171.165 222.761 171.349 222.788 171.508 222.867L186.142 228.773C186.722 229.01 187.064 229.617 186.933 230.25C186.801 230.882 186.273 231.304 185.641 231.304ZM153.209 228.668H178.838L170.743 225.398H161.303L153.209 228.668Z" fill="black"/>
<path d="M169.055 191.648H162.991V223.658H169.055V191.648Z" fill="white"/>
<path d="M169.055 224.976H162.991C162.253 224.976 161.673 224.396 161.673 223.658V191.648C161.673 190.909 162.253 190.329 162.991 190.329H169.055C169.794 190.329 170.374 190.909 170.374 191.648V223.658C170.374 224.396 169.794 224.976 169.055 224.976ZM164.309 222.339H167.737V192.966H164.309V222.339Z" fill="black"/>
<path d="M170.374 192.228H161.673V197.765H170.374V192.228Z" fill="black"/>
<path d="M171.349 157.634H160.697V196.13H171.349V157.634Z" fill="black"/>
<path d="M171.349 167.785H160.697V172.399H171.349V167.785Z" fill="black"/>
<path d="M181.316 165.017H150.756V170.554H181.316V165.017Z" fill="black"/>
<path d="M112.603 151.701L113.868 129.104C114.264 122.249 119.933 116.896 126.788 116.922L145.799 117.002L143.716 154.364C143.584 156.895 141.501 158.847 138.97 158.847H119.195C118.641 158.847 118.113 158.768 117.612 158.636C114.475 157.897 112.418 154.918 112.603 151.701Z" fill="white"/>
<path d="M138.97 160.165H119.195C118.562 160.165 117.929 160.086 117.296 159.928C113.578 159.058 111.073 155.577 111.284 151.648L112.55 129.051C112.998 121.484 119.247 115.604 126.788 115.63L147.197 115.71L145.035 154.47C144.876 157.634 142.213 160.165 138.97 160.165ZM126.736 118.241C120.618 118.241 115.53 123.04 115.187 129.183L113.921 151.78C113.763 154.443 115.45 156.764 117.929 157.344H117.955C118.377 157.449 118.799 157.502 119.195 157.502H138.97C140.79 157.502 142.292 156.078 142.398 154.259L144.402 118.267L126.788 118.188C126.762 118.241 126.762 118.241 126.736 118.241Z" fill="black"/>
<path d="M197.849 152.729H145.457C140.368 152.729 136.518 147.957 136.861 142.077L139.946 89.6058C140.289 83.7259 144.692 78.9534 149.807 78.9534H202.199C207.288 78.9534 211.138 83.7259 210.795 89.6058L207.71 142.077C207.367 147.957 202.938 152.729 197.849 152.729Z" fill="white"/>
<path d="M197.849 154.048H145.457C142.873 154.048 140.447 152.993 138.628 151.042C136.465 148.748 135.332 145.452 135.543 141.998L138.628 89.5267C139.023 82.9612 144.033 77.635 149.807 77.635H202.199C204.783 77.635 207.209 78.6897 209.028 80.6409C211.191 82.9349 212.324 86.2308 212.113 89.6849L209.028 142.156C208.633 148.722 203.623 154.048 197.849 154.048ZM149.807 80.2717C145.404 80.2717 141.554 84.4905 141.264 89.6849L138.179 142.156C138.021 144.898 138.891 147.482 140.552 149.249C141.871 150.646 143.611 151.411 145.457 151.411H197.849C202.252 151.411 206.102 147.192 206.392 141.998L209.477 89.5267C209.635 86.7845 208.765 84.2005 207.104 82.4339C205.785 81.0364 204.045 80.2717 202.199 80.2717H149.807Z" fill="black"/>
<path fill-rule="evenodd" clip-rule="evenodd" d="M176.021 144.787L192.813 154.654L201.646 126.995L200.802 126.626L199.958 126.256L198.271 125.545L194.896 124.173C194.215 123.889 193.535 123.632 192.855 123.376C192.401 123.205 191.948 123.034 191.494 122.855L188.066 121.616C183.505 119.955 178.891 118.452 174.25 117.028C169.636 115.578 164.969 114.286 160.275 112.994C155.582 111.754 150.888 110.542 146.142 109.434L144.059 108.933C138.812 107.72 133.143 109.882 130.137 114.708C126.762 120.139 123.44 125.597 120.17 131.108L117.718 135.248L115.319 139.414C114.042 141.576 112.814 143.754 111.583 145.936C111.238 146.548 110.893 147.16 110.546 147.772C109.23 150.117 105.804 155.044 102.071 160.413C96.9029 167.846 91.1457 176.127 89.5842 179.571L104.455 193.678L127.806 164.145L127.975 166.52L128.37 171.714C128.546 174.017 128.745 176.32 128.945 178.622C129.044 179.774 129.144 180.925 129.241 182.076C129.873 188.985 130.585 195.919 131.403 202.827C131.825 206.308 132.246 209.762 132.747 213.216L134.5 219L154.197 219.29L155.047 155.445H177.836L176.021 144.787Z" fill="white"/>
<path fill-rule="evenodd" clip-rule="evenodd" d="M146.142 109.434L144.059 108.933C138.812 107.72 133.143 109.882 130.137 114.708C126.762 120.139 123.44 125.597 120.17 131.108L117.718 135.248L115.319 139.414C114.042 141.576 112.814 143.754 111.583 145.936C111.238 146.548 110.893 147.16 110.546 147.772C109.23 150.117 105.805 155.044 102.071 160.413C96.9031 167.846 91.1457 176.127 89.5842 179.571L104.455 193.678L127.806 164.145L127.975 166.52L128.37 171.714C128.546 174.017 128.745 176.319 128.945 178.622C129.044 179.774 129.144 180.925 129.241 182.076C129.873 188.985 130.585 195.919 131.403 202.827C131.825 206.308 132.246 209.762 132.747 213.216L134.5 219L154.197 219.29L155.047 155.445H177.836L176.021 144.787L192.813 154.654L201.646 126.995L199.958 126.256L198.271 125.545L194.896 124.173C194.215 123.889 193.535 123.632 192.855 123.376C192.401 123.205 191.948 123.034 191.494 122.855L188.066 121.616C183.505 119.955 178.891 118.452 174.25 117.028C169.636 115.578 164.969 114.286 160.275 112.994C155.582 111.754 150.888 110.542 146.142 109.434ZM160.015 113.959C155.326 112.721 150.645 111.512 145.915 110.408L145.908 110.406L143.834 109.907C143.833 109.907 143.831 109.907 143.83 109.906C138.987 108.789 133.758 110.787 130.986 115.236C127.615 120.662 124.296 126.114 121.031 131.618M121.031 131.618L118.582 135.752L116.18 139.922C114.909 142.074 113.685 144.244 112.454 146.427C112.109 147.038 111.764 147.651 111.417 148.263C110.077 150.65 106.64 155.593 102.949 160.903L102.892 160.984C100.307 164.703 97.5816 168.622 95.3079 172.042C93.2908 175.075 91.6678 177.659 90.803 179.349L104.35 192.199L128.621 161.502L128.972 166.444L128.972 166.449L129.368 171.638C129.543 173.935 129.742 176.233 129.941 178.536C130.04 179.686 130.14 180.837 130.237 181.989C130.869 188.888 131.58 195.812 132.396 202.709C132.815 206.165 133.232 209.583 133.726 212.998L135.245 218.011L153.21 218.275L154.06 154.445H176.651L174.674 142.835L192.241 153.158L200.419 127.549L199.569 127.178L199.557 127.173L197.894 126.471L197.882 126.466L194.509 125.096C193.849 124.819 193.185 124.569 192.502 124.312L192.498 124.31C192.052 124.142 191.597 123.971 191.14 123.791L187.724 122.555C183.184 120.902 178.587 119.405 173.957 117.984L173.95 117.982C169.357 116.538 164.708 115.251 160.015 113.959" fill="black"/>
<path d="M114.739 96.3559L139.076 101.023L130.454 102.447L152.286 87.2592C156.9 84.0687 163.202 85.2025 166.419 89.7904C169.609 94.4047 168.475 100.707 163.887 103.923L142.055 119.111L141.37 119.586C138.97 121.247 135.991 121.484 133.459 120.508L111.179 111.781L114.739 96.3559Z" fill="black"/>
<path d="M145.773 121.616C125.046 121.616 153.841 110.251 150.625 102.315C147.882 95.5121 150.071 86.3362 156.478 83.7786C157.559 83.3567 158.746 83.1194 160.038 83.1194C167.051 83.0667 167.526 82.7766 170.479 82.7502C172.088 82.7502 173.591 83.0139 174.988 83.4885C181.791 85.888 185.904 93.6663 183.742 101.102C183.742 101.102 183.056 103.132 183.136 105.795C183.215 108.485 181.5 123.5 179.5 127C177.5 130.5 166.5 121.616 145.773 121.616Z" fill="black"/>
<path d="M170.928 102.816L163.677 116.501L180.473 119.717L183.426 114.18L170.928 102.816Z" fill="black"/>
<path d="M149.201 111.174C149.095 111.174 149.016 111.148 148.937 111.069C148.779 110.911 148.779 110.673 148.911 110.515C152.444 106.771 150.387 102.684 150.308 102.5C150.203 102.315 150.282 102.078 150.466 101.972C150.651 101.867 150.888 101.946 150.994 102.13C151.02 102.183 153.393 106.876 149.491 111.043C149.412 111.122 149.306 111.174 149.201 111.174Z" fill="black"/>
<path d="M158.113 143.712L169.055 154.681H176.755L175.99 141.787L158.113 143.712Z" fill="black"/>
<path d="M120.276 173.665L126.17 144.433L128.438 162.582L120.276 173.665Z" fill="black"/>
<path d="M140.236 133.138C140.13 133.138 140.025 133.086 139.946 133.007L137.019 129.816C136.861 129.658 136.887 129.394 137.045 129.262C137.204 129.104 137.467 129.131 137.599 129.289L140.526 132.479C140.684 132.637 140.658 132.901 140.5 133.033C140.42 133.112 140.341 133.138 140.236 133.138Z" fill="black"/>
<path d="M179.233 99.6782L203.307 97.1733L197.717 115.789L176.016 101.498C171.323 98.4125 170.031 92.1107 173.116 87.4437C176.201 82.7503 182.503 81.4583 187.17 84.5433L208.87 98.8344L209.74 99.4145C214.302 102.42 215.541 108.538 212.562 113.099C210.479 116.263 206.84 117.845 203.307 117.476L181.29 115.077L179.233 99.6782Z" fill="black"/>
<path d="M183.426 103.818C183.294 103.818 183.162 103.765 183.083 103.633L179.339 97.8588C179.207 97.6742 179.26 97.4369 179.444 97.3051C179.629 97.1996 179.866 97.226 179.998 97.4106L183.742 103.185C183.874 103.37 183.821 103.607 183.637 103.739C183.584 103.791 183.505 103.818 183.426 103.818Z" fill="black"/>
<path d="M154.896 155.999H192.575C195.186 155.999 197.295 158.108 197.295 160.719C197.295 163.329 195.186 165.438 192.575 165.438H154.896V155.999Z" fill="white"/>
<path d="M192.575 154.681H154.896V157.317H192.575C194.447 157.317 195.977 158.847 195.977 160.719C195.977 162.591 194.447 164.12 192.575 164.12H154.896V166.757H192.575C195.898 166.757 198.613 164.041 198.613 160.719C198.64 157.396 195.924 154.681 192.575 154.681Z" fill="black"/>
<path d="M175.99 151.701L177.256 129.104C177.651 122.249 183.32 116.896 190.176 116.922L209.187 117.002L207.578 146.085C207.183 153.257 201.25 158.847 194.078 158.847H182.582C182.028 158.847 181.501 158.768 181 158.636C177.889 157.897 175.806 154.918 175.99 151.701Z" fill="white"/>
<path d="M194.078 160.165H182.582C181.949 160.165 181.316 160.086 180.683 159.928C176.966 159.031 174.461 155.551 174.672 151.648L175.937 129.051C176.359 121.51 182.608 115.63 190.123 115.63C190.149 115.63 190.149 115.63 190.176 115.63L210.584 115.709L208.896 146.19C208.448 154.021 201.962 160.165 194.078 160.165ZM190.123 118.241C184.006 118.241 178.917 123.04 178.574 129.183L177.308 151.78C177.15 154.39 178.89 156.79 181.316 157.344H181.343C181.764 157.449 182.186 157.502 182.582 157.502H194.078C200.564 157.502 205.917 152.439 206.26 145.979L207.789 118.293L190.176 118.214C190.149 118.241 190.149 118.241 190.123 118.241Z" fill="black"/>
<path d="M147.52 136.525L163.059 146.814L154.5 150.5L147.52 136.525Z" fill="black"/>
<path d="M111.179 111.807L104.508 109.197C100.738 107.72 98.8654 103.475 100.342 99.6782C101.66 96.3295 105.141 94.4838 108.569 95.143L114.765 96.3295L111.179 111.807Z" fill="white"/>
<path d="M130.032 103.211C129.9 103.211 129.794 103.159 129.715 103.053C129.583 102.869 129.636 102.631 129.794 102.499L133.486 99.8627C133.67 99.7308 133.908 99.7836 134.04 99.9418C134.171 100.126 134.119 100.364 133.96 100.495L130.269 103.132C130.19 103.185 130.111 103.211 130.032 103.211Z" fill="black"/>
<path d="M185.851 99.3881C185.64 99.3881 185.482 99.2299 185.456 99.0454C185.43 98.8344 185.588 98.6235 185.799 98.6235L198.587 97.2788C198.798 97.2524 199.009 97.4106 199.009 97.6215C199.009 97.8325 198.877 98.0434 198.666 98.0434L185.878 99.3881C185.878 99.3881 185.878 99.3881 185.851 99.3881Z" fill="black"/>
<path d="M111.651 95.4323L108.475 110.859L115.477 113.495L118.957 97.1733L111.651 95.4323Z" fill="white"/>
<path fill-rule="evenodd" clip-rule="evenodd" d="M109.626 110.224L114.741 112.149L117.776 97.9197L112.422 96.6441L109.626 110.224ZM108.475 110.859L115.477 113.495L118.957 97.1733L111.651 95.4323L108.475 110.859Z" fill="black"/>
<path d="M125.945 147.667C125.734 147.667 125.549 147.482 125.549 147.271C125.523 140.126 130.955 133.877 138.179 132.69H138.232C140.051 132.426 141.897 132.822 143.453 133.824L158.324 143.369C158.508 143.474 158.561 143.738 158.456 143.923C158.35 144.107 158.087 144.16 157.902 144.054L143.031 134.509C141.633 133.613 139.946 133.244 138.311 133.481H138.258C131.429 134.615 126.314 140.521 126.34 147.271C126.34 147.482 126.156 147.667 125.945 147.667Z" fill="black"/>
<path d="M82.9133 121.51H77.6398V231.304H82.9133V121.51Z" fill="black"/>
<path d="M54.9637 121.51H49.6902V231.304H54.9637V121.51Z" fill="black"/>
<path d="M54.9637 120.482H49.6902V128.049H54.9637V120.482Z" fill="black"/>
<path d="M82.9133 120.482H77.6398V128.049H82.9133V120.482Z" fill="black"/>
<path d="M247.736 117.924H49.6902V121.51H247.736V117.924Z" fill="black"/>
<path d="M247.578 121.51H242.304V231.304H247.578V121.51Z" fill="black"/>
<path d="M219.628 121.51H214.355V231.304H219.628V121.51Z" fill="black"/>
<path d="M219.628 120.482H214.355V128.049H219.628V120.482Z" fill="black"/>
<path d="M247.578 120.482H242.304V128.049H247.578V120.482Z" fill="black"/>
<path d="M163.775 110.029C163.775 110.029 160.132 108.281 163.434 105.902C166.737 103.523 172.647 97.6978 185.404 99.5201C186.441 99.6623 187.583 99.8083 188.828 99.9582C188.282 105.824 188.206 111.655 188.18 117.539C186.38 116.796 184.892 116.065 183.81 115.66C175.674 112.653 171.477 122.031 166.803 114.88C166.853 114.934 161.5 112.862 163.775 110.029Z" fill="white"/>
<path d="M188.724 118.444L188.75 117.612C188.744 112.768 188.786 106.363 189.398 100.031L189.414 99.5104L188.844 99.4374C187.598 99.2876 186.353 99.1377 185.42 98.9993C173.804 97.3231 167.829 101.896 164.255 104.629C163.829 104.926 163.454 105.277 163.081 105.524C161.911 106.314 161.362 107.231 161.437 108.172C161.509 109.216 162.372 109.925 162.933 110.31C162.602 110.923 162.532 111.493 162.721 112.125C163.237 113.967 165.752 115.153 166.471 115.492C169.208 119.603 172.006 118.404 174.908 117.208C177.283 116.201 180.077 115.106 183.579 116.38C184.301 116.615 185.175 117.012 186.202 117.466C186.716 117.693 187.334 117.924 187.948 118.259L188.724 118.444ZM188.187 100.455C187.695 106.271 187.618 112.101 187.631 116.737C187.272 116.568 186.963 116.452 186.654 116.337C185.626 115.882 184.753 115.486 183.981 115.197C180.065 113.803 177.006 115.045 174.473 116.098C171.518 117.344 169.566 118.158 167.279 114.636L167.178 114.528L167.023 114.471C166.251 114.182 164.098 113.061 163.825 111.801C163.683 111.327 163.8 110.915 164.232 110.41L164.665 109.905L164.05 109.57C163.691 109.4 162.669 108.738 162.638 108.06C162.554 107.431 163.197 106.83 163.834 106.437C164.207 106.19 164.633 105.893 165.008 105.542C168.475 102.909 174.236 98.5369 185.384 100.144C186.163 100.225 187.15 100.313 188.187 100.455Z" fill="black"/>
<path d="M168.452 114.899C170.705 112.896 173.251 111.529 176.197 110.698C176.671 110.559 176.857 111.296 176.383 111.435C173.595 112.219 171.156 113.486 168.957 115.44C168.635 115.741 168.13 115.201 168.452 114.899Z" fill="black"/>
<path d="M166.537 109.941C168.357 108.443 170.375 107.265 172.643 106.461C173.066 106.268 173.41 106.959 172.987 107.152C170.823 107.959 168.858 109.087 167.092 110.535C166.669 110.728 166.111 110.238 166.537 109.941Z" fill="black"/>
<path d="M255 231H33V232H255V231Z" fill="black"/>
<path d="M145.852 57.8594H83.5987C81.542 57.8594 79.8809 59.5205 79.8809 61.5772V101.946C79.8809 104.002 81.542 105.663 83.5987 105.663H145.878C147.909 105.663 149.57 104.002 149.57 101.946V61.5772C149.57 59.5205 147.909 57.8594 145.852 57.8594Z" fill="black"/>
<path d="M142.161 105.268H80.1974C78.2725 105.268 76.7169 103.712 76.7169 101.787V61.709C76.7169 59.7842 78.2725 58.2285 80.1974 58.2285H142.161C144.086 58.2285 145.641 59.7842 145.641 61.709V101.787C145.615 103.712 144.059 105.268 142.161 105.268Z" fill="white"/>
<path d="M142.161 105.663H80.1974C78.0617 105.663 76.3214 103.923 76.3214 101.787V61.709C76.3214 59.5733 78.0617 57.833 80.1974 57.833H142.161C144.297 57.833 146.037 59.5733 146.037 61.709V101.787C146.01 103.923 144.27 105.663 142.161 105.663ZM80.1974 58.624C78.4835 58.624 77.1124 59.9951 77.1124 61.709V101.787C77.1124 103.501 78.4835 104.872 80.1974 104.872H142.161C143.848 104.872 145.219 103.475 145.246 101.787V61.709C145.246 59.9951 143.875 58.624 142.161 58.624H80.1974Z" fill="black"/>
<path d="M118.061 81.3791C117.876 81.3527 117.692 81.4318 117.613 81.6164L107.962 105.11C107.909 105.242 107.936 105.373 107.989 105.479C108.068 105.584 108.173 105.663 108.305 105.663H117.955C118.166 105.663 118.351 105.479 118.351 105.268V81.7746C118.377 81.59 118.245 81.4318 118.061 81.3791Z" fill="black"/>
<path d="M126.42 117.924H99.1031C97.2574 117.924 95.8863 116.184 96.3345 114.391L104.35 81.7745H117.982L110.467 112.308C110.019 114.101 111.39 115.868 113.262 115.841L126.789 115.815C126.973 115.815 126.789 117.371 126.789 117.555C126.789 117.766 126.631 117.924 126.42 117.924Z" fill="white"/>
<path d="M126.42 118.32H99.1029C98.101 118.32 97.1517 117.872 96.5453 117.081C95.9388 116.29 95.7015 115.288 95.9652 114.312L104.06 81.4055H118.509L110.863 112.44C110.678 113.178 110.836 113.943 111.311 114.549C111.786 115.156 112.498 115.499 113.262 115.472L126.789 115.446C126.921 115.446 127.026 115.499 127.105 115.578C127.29 115.762 127.316 116.105 127.211 117.318C127.211 117.45 127.184 117.555 127.184 117.582C127.184 117.977 126.841 118.32 126.42 118.32ZM104.666 82.1702L96.7299 114.497C96.5453 115.235 96.7035 116 97.1781 116.58C97.6527 117.186 98.3646 117.529 99.1029 117.529H126.393C126.393 117.476 126.393 117.371 126.42 117.212C126.446 117.002 126.472 116.501 126.472 116.21L113.262 116.237C112.26 116.263 111.311 115.815 110.678 115.024C110.045 114.233 109.834 113.205 110.072 112.229L117.455 82.1965H104.666V82.1702Z" fill="black"/>
<path d="M110.357 43.8314L108.61 45.8058L114.809 51.2933L116.557 49.319L110.357 43.8314Z" fill="black"/>
<path d="M140.051 28L137.628 29.0386L140.712 36.2372L143.136 35.1986L140.051 28Z" fill="black"/>
<path d="M189.307 33.3307L183.157 38.8737L184.923 40.8323L191.073 35.2893L189.307 33.3307Z" fill="black"/>
<path d="M173.5 78L176.5 85.1387H160.73L160 78H173.5Z" fill="black"/>
<path d="M155.712 68.6759C155.897 62.1879 160.681 57.3415 166.352 57.8832C172.024 58.4248 176.534 64.0567 176.349 70.5448C176.349 70.5448 176.349 70.5448 176.379 70.6214C176.983 70.6621 177.544 70.8064 177.959 71.0048C181.228 72.2586 181.968 75.5907 180.054 77.5292C178.372 79.2063 175.458 80.1077 172.817 78.5339C170.842 80.3191 168.312 81.3423 165.708 81.3376C157.646 81.3277 155.527 75.164 155.712 68.6759Z" fill="white"/>
<path d="M178.069 79.4961C179.02 79.1445 179.88 78.5629 180.532 77.8821C181.531 76.8091 181.908 75.4385 181.578 73.9776C181.187 72.3634 179.918 71.0737 178.112 70.3341C177.728 70.2123 177.344 70.0905 176.886 69.9958C176.834 63.3317 172.22 57.65 166.329 57.1895C163.383 56.9592 160.603 57.987 158.531 60.16C156.459 62.333 155.192 65.2637 155.078 68.5596C154.941 73.2714 155.992 76.7523 158.085 79.0566C159.849 80.955 162.423 81.9382 165.6 81.907C168.204 81.9118 170.764 80.9652 172.843 79.2295C174.709 80.1225 176.533 80.064 178.069 79.4961ZM162.677 58.9791C163.848 58.5464 165.037 58.3707 166.348 58.5016C171.739 58.9711 175.907 64.3777 175.746 70.5052L175.71 71.0462L176.271 71.1906C176.802 71.2583 177.363 71.4026 177.747 71.5244C179.138 72.0656 180.108 73.0261 180.347 74.257C180.597 75.3076 180.317 76.2905 179.592 76.9983C178.172 78.4906 175.508 79.3876 173 77.94L172.659 77.7145L172.354 78.003C170.526 79.7342 168.142 80.7034 165.611 80.6715C162.757 80.6712 160.494 79.8369 158.926 78.218C157.028 76.1934 156.1 73.019 156.213 68.668C156.272 65.6561 157.38 62.9599 159.294 61.0213C160.354 60.1016 161.507 59.4118 162.677 58.9791Z" fill="black"/>
<path d="M164.141 70.318C163.732 70.4549 163.274 70.2189 163.118 69.7909C162.961 69.3628 163.166 68.9048 163.574 68.7678C163.983 68.6309 164.441 68.8669 164.597 69.295C164.754 69.723 164.549 70.181 164.141 70.318Z" fill="black"/>
<path d="M157.924 72.5948C158.221 70.8174 158.725 69.139 159.509 67.5326C159.752 67.0916 160.477 67.4381 160.233 67.8791C159.492 69.382 158.988 71.0604 158.66 72.7613C158.624 73.3013 157.857 73.0583 157.924 72.5948Z" fill="black"/>
<path d="M161.176 61.6039C163.513 62.8457 173.112 64.034 171.764 69.2703C171.461 70.6109 170.738 71.3172 171.967 72.091C173.281 72.6579 173.7 71.1869 173.7 71.1869C175.312 71.0296 177.13 70.9712 178.238 71.4392C180.705 66.4908 178.938 62.0549 176.608 61.2495C176.608 61.2495 160.269 49.6553 157.14 55.4629C154.442 60.6722 161.176 61.6039 161.176 61.6039Z" fill="black"/>
<path d="M173.491 74.1094C174.738 72.7526 176.85 72.5036 178.516 73.4918C178.967 73.7708 178.664 74.5085 178.213 74.2295C176.862 73.3922 175.195 73.4759 174.139 74.6723C173.787 75.0711 173.139 74.5082 173.491 74.1094Z" fill="black"/>
<path d="M275 42.5C275 61.0015 260.002 76 241.5 76C222.998 76 208 61.0015 208 42.5C208 23.9985 222.998 9 241.5 9C260.002 9 275 23.9985 275 42.5Z" fill="white"/>
<path d="M245.809 58.8109C245.512 58.8783 245.253 59.0611 245.09 59.3192C244.927 59.5773 244.874 59.8895 244.941 60.1872L246.499 67.063C246.567 67.3599 246.75 67.6176 247.008 67.7797C247.266 67.9418 247.577 67.9951 247.874 67.9278C248.171 67.8605 248.43 67.6782 248.592 67.4208C248.755 67.1634 248.809 66.8519 248.743 66.5547L247.186 59.6788C247.152 59.5314 247.09 59.3921 247.003 59.2687C246.916 59.1453 246.805 59.0403 246.677 58.9597C246.549 58.8791 246.407 58.8245 246.258 58.799C246.109 58.7734 245.957 58.7775 245.809 58.8109Z" fill="black"/>
<path d="M236.815 24.3211C236.882 24.6188 237.065 24.8775 237.323 25.0403C237.581 25.2031 237.893 25.2568 238.191 25.1894C238.488 25.122 238.747 24.9392 238.91 24.6811C239.073 24.423 239.126 24.1108 239.059 23.8132L237.501 16.9315C237.433 16.6344 237.25 16.3765 236.993 16.2142C236.735 16.0519 236.423 15.9985 236.126 16.0657C235.828 16.133 235.57 16.3154 235.407 16.573C235.244 16.8305 235.19 17.1421 235.257 17.4395L236.815 24.3211Z" fill="black"/>
<path d="M251.984 56.0486C251.861 56.1361 251.756 56.2471 251.676 56.3752C251.595 56.5032 251.541 56.6459 251.516 56.7949C251.491 56.944 251.495 57.0965 251.529 57.2438C251.563 57.3912 251.625 57.5304 251.713 57.6536L255.799 63.3969C255.976 63.6453 256.245 63.8132 256.546 63.8638C256.847 63.9144 257.155 63.8434 257.404 63.6666C257.652 63.4897 257.821 63.2215 257.871 62.9207C257.922 62.6199 257.852 62.3112 257.675 62.0625L253.589 56.3191C253.412 56.0705 253.143 55.9023 252.842 55.8516C252.541 55.8009 252.233 55.8717 251.984 56.0486Z" fill="black"/>
<path d="M230.407 27.6857C230.583 27.9346 230.852 28.103 231.153 28.154C231.454 28.2049 231.763 28.1342 232.012 27.9574C232.26 27.7806 232.429 27.5122 232.48 27.2112C232.531 26.9103 232.46 26.6014 232.283 26.3525L228.195 20.5982C228.018 20.3507 227.749 20.1835 227.449 20.1332C227.149 20.083 226.841 20.1538 226.592 20.3301C226.344 20.5065 226.176 20.774 226.125 21.0741C226.073 21.3743 226.143 21.6825 226.318 21.9315L230.407 27.6857Z" fill="black"/>
<path d="M263.67 57.4071C263.758 57.2839 263.82 57.1447 263.854 56.9974C263.888 56.8501 263.893 56.6975 263.868 56.5485C263.842 56.3994 263.788 56.2568 263.708 56.1287C263.628 56.0006 263.523 55.8896 263.4 55.802L257.651 51.715C257.402 51.5381 257.093 51.4673 256.792 51.5181C256.491 51.569 256.223 51.7373 256.046 51.986C255.869 52.2348 255.798 52.5437 255.849 52.8446C255.9 53.1456 256.068 53.414 256.317 53.5909L262.066 57.6779C262.315 57.8547 262.623 57.9255 262.924 57.8747C263.225 57.8239 263.493 57.6557 263.67 57.4071Z" fill="black"/>
<path d="M220.601 28.1979L226.35 32.285C226.599 32.4613 226.907 32.5318 227.208 32.4808C227.509 32.4297 227.777 32.2615 227.954 32.0129C228.13 31.7644 228.201 31.4559 228.15 31.1552C228.1 30.8544 227.932 30.5861 227.684 30.409L221.935 26.322C221.686 26.1458 221.377 26.0755 221.077 26.1266C220.776 26.1777 220.508 26.3459 220.332 26.5943C220.155 26.8428 220.084 27.1512 220.135 27.4519C220.185 27.7525 220.353 28.0208 220.601 28.1979Z" fill="black"/>
<path d="M267.934 47.8782C267.968 47.7308 267.972 47.5783 267.946 47.4293C267.921 47.2804 267.866 47.1379 267.785 47.0101C267.705 46.8822 267.6 46.7715 267.476 46.6843C267.353 46.597 267.214 46.5349 267.066 46.5016L260.184 44.9437C259.886 44.8763 259.574 44.9299 259.316 45.0928C259.058 45.2556 258.875 45.5143 258.807 45.812C258.74 46.1097 258.794 46.422 258.956 46.6801C259.119 46.9383 259.378 47.1212 259.676 47.1886L266.558 48.7464C266.705 48.7798 266.858 48.7838 267.007 48.7582C267.156 48.7326 267.298 48.678 267.426 48.5973C267.554 48.5167 267.664 48.4117 267.752 48.2883C267.839 48.1649 267.901 48.0256 267.934 47.8782Z" fill="black"/>
<path d="M216.934 37.499L223.816 39.0612C224.113 39.1282 224.425 39.0745 224.683 38.9118C224.941 38.7491 225.124 38.4907 225.191 38.1934C225.259 37.8961 225.205 37.5841 225.043 37.326C224.881 37.0679 224.623 36.8848 224.325 36.8169L217.443 35.2548C217.146 35.1877 216.834 35.2414 216.576 35.4041C216.318 35.5668 216.136 35.8252 216.068 36.1225C216.001 36.4199 216.054 36.7318 216.216 36.9899C216.378 37.248 216.637 37.4311 216.934 37.499Z" fill="black"/>
<path d="M239.016 48.6144L239.944 47.6862C240.841 46.8863 241.446 45.8109 241.665 44.6291C241.68 44.4455 241.669 44.2607 241.63 44.0805C241.292 43.8559 240.977 43.5975 240.69 43.3095C240.127 42.7749 239.69 42.1215 239.411 41.3969C239.132 40.6723 239.017 39.8946 239.076 39.1203C239.337 37.154 240.282 35.3423 241.745 34.0029L251.797 23.9512C253.136 22.4882 254.948 21.5434 256.914 21.2826C257.688 21.2238 258.466 21.3381 259.191 21.6173C259.915 21.8966 260.569 22.3336 261.103 22.8968C261.666 23.4315 262.103 24.0848 262.383 24.8094C262.662 25.534 262.776 26.3117 262.717 27.086C262.457 29.0524 261.512 30.8641 260.049 32.2034L252.566 39.6857C253.268 41.55 253.551 43.5457 253.396 45.5316C253.375 45.7955 253.347 46.0586 253.312 46.3208C253.44 46.2001 253.568 46.0786 253.694 45.9525L263.746 35.9008C266.253 33.3936 267.7 30.4842 267.931 27.4871C268.048 25.9607 267.828 24.4272 267.287 22.9951C266.746 21.563 265.897 20.2672 264.801 19.1994C263.733 18.1025 262.437 17.2536 261.005 16.7126C259.573 16.1717 258.039 15.952 256.513 16.0691C253.516 16.2996 250.606 17.7466 248.099 20.2539L238.047 30.3055C235.54 32.8127 234.093 35.7222 233.863 38.7192C233.746 40.2456 233.965 41.7791 234.506 43.2112C235.047 44.6433 235.896 45.9391 236.993 47.0069C237.603 47.6191 238.282 48.1585 239.016 48.6144Z" fill="#13C8A4"/>
<path d="M247.007 36.9931C246.397 36.3809 245.718 35.8415 244.984 35.3856L243.31 38.1051L242.36 39.8721L243.31 40.6905C243.873 41.2251 244.31 41.8785 244.589 42.6031C244.868 43.3277 244.983 44.1054 244.924 44.8797C244.663 46.846 243.718 48.6577 242.255 49.9971L232.203 60.0488C230.864 61.5118 229.052 62.4566 227.086 62.7175C226.312 62.7762 225.534 62.6619 224.809 62.3826C224.085 62.1034 223.431 61.6664 222.897 61.1032C222.334 60.5685 221.897 59.9152 221.617 59.1906C221.338 58.466 221.224 57.6883 221.283 56.914C221.543 54.9476 222.488 53.1359 223.951 51.7966L231.432 44.3156C230.732 42.4505 230.449 40.4545 230.604 38.4683L228.24 40.7888L220.254 48.0992C217.747 50.6064 216.3 53.5158 216.069 56.5129C215.952 58.0393 216.172 59.5728 216.713 61.0049C217.254 62.437 218.102 63.7328 219.199 64.8006C220.267 65.8975 221.563 66.7465 222.995 67.2874C224.427 67.8283 225.961 68.048 227.487 67.9309C230.484 67.7004 233.394 66.2534 235.901 63.7461L245.953 53.6945C248.46 51.1873 249.907 48.2779 250.137 45.2808C250.254 43.7544 250.035 42.2209 249.494 40.7888C248.953 39.3567 248.104 38.0609 247.007 36.9931Z" fill="#13C8A4"/>
</svg>
