<svg width="160" height="160" viewBox="0 0 160 160" fill="none" xmlns="http://www.w3.org/2000/svg">
<path d="M159.443 80C159.443 123.875 123.875 159.443 80.0001 159.443C36.1252 159.443 0.557617 123.875 0.557617 80C0.557617 36.1251 36.1252 0.557526 80.0001 0.557526C123.875 0.557526 159.443 36.1251 159.443 80Z" fill="white"/>
<path fill-rule="evenodd" clip-rule="evenodd" d="M80.0001 158.328C123.259 158.328 158.328 123.259 158.328 80C158.328 36.7409 123.259 1.67251 80.0001 1.67251C36.741 1.67251 1.6726 36.7409 1.6726 80C1.6726 123.259 36.741 158.328 80.0001 158.328ZM80.0001 159.443C123.875 159.443 159.443 123.875 159.443 80C159.443 36.1251 123.875 0.557526 80.0001 0.557526C36.1252 0.557526 0.557617 36.1251 0.557617 80C0.557617 123.875 36.1252 159.443 80.0001 159.443Z" fill="#9CA5AB"/>
<path fill-rule="evenodd" clip-rule="evenodd" d="M80 157.77C122.951 157.77 157.77 122.951 157.77 80C157.77 37.0488 122.951 2.22997 80 2.22997C37.0488 2.22997 2.22997 37.0488 2.22997 80C2.22997 122.951 37.0488 157.77 80 157.77ZM160 80C160 124.183 124.183 160 80 160C35.8172 160 0 124.183 0 80C0 35.8172 35.8172 0 80 0C124.183 0 160 35.8172 160 80ZM158.328 80C158.328 123.259 123.259 158.328 80 158.328C36.7409 158.328 1.67247 123.259 1.67247 80C1.67247 36.7409 36.7409 1.67247 80 1.67247C123.259 1.67247 158.328 36.7409 158.328 80ZM159.443 80C159.443 123.875 123.875 159.443 80 159.443C36.1251 159.443 0.557491 123.875 0.557491 80C0.557491 36.1251 36.1251 0.557491 80 0.557491C123.875 0.557491 159.443 36.1251 159.443 80Z" fill="#9CA5AB"/>
<path d="M42.9446 122L48 123.945L46.0554 129L41 127.055L42.9446 122Z" fill="#EE7D8B"/>
<path d="M121.945 75L127 76.9446L125.055 82L120 80.0554L121.945 75Z" fill="#EE7D8B"/>
<path d="M53.0161 68.7551C53.0161 65.6926 55.5326 63.2099 58.6368 63.2099L100.48 63.2099C103.584 63.2099 106.101 65.6926 106.101 68.7551L106.101 137.455C106.101 140.517 103.584 143 100.48 143L96.0832 143C94.0706 143 92.2115 141.938 91.2092 140.216L84.4325 128.575C82.2719 124.864 76.8449 124.864 74.6844 128.575L67.9077 140.216C66.9053 141.938 65.0463 143 63.0336 143L58.6368 143C55.5326 143 53.0161 140.517 53.0161 137.455L53.0161 68.7551Z" fill="#13C8A4"/>
<path d="M58.8262 30.9057C58.8262 30.5789 59.0947 30.314 59.426 30.314L101.411 30.314C101.742 30.314 102.011 30.5789 102.011 30.9057L102.011 47.7702C102.011 54.3063 96.6402 59.6049 90.0152 59.6049L70.8219 59.6049C64.1969 59.6049 58.8262 54.3063 58.8262 47.7702L58.8262 30.9057Z" fill="#13C8A4"/>
<path d="M64.2241 40.9655C64.2241 38.0242 66.6409 35.6399 69.6222 35.6399L91.2146 35.6399C94.1959 35.6399 96.6127 38.0242 96.6127 40.9655C96.6127 43.9067 94.1959 46.2911 91.2146 46.2911L69.6222 46.2911C66.6409 46.2911 64.2241 43.9068 64.2241 40.9655Z" fill="white"/>
<path fill-rule="evenodd" clip-rule="evenodd" d="M91.2146 36.8722L69.6222 36.8722C67.3308 36.8722 65.4732 38.7048 65.4732 40.9655C65.4732 43.2262 67.3308 45.0588 69.6222 45.0588L91.2146 45.0588C93.506 45.0588 95.3636 43.2262 95.3636 40.9655C95.3636 38.7048 93.506 36.8722 91.2146 36.8722ZM69.6222 35.6399C66.6409 35.6399 64.2241 38.0242 64.2241 40.9655C64.2241 43.9068 66.6409 46.2911 69.6222 46.2911L91.2146 46.2911C94.1959 46.2911 96.6127 43.9068 96.6127 40.9655C96.6127 38.0242 94.1959 35.6399 91.2146 35.6399L69.6222 35.6399Z" fill="black"/>
<path d="M80.4186 24.9883C81.9093 24.9883 83.1177 26.1805 83.1177 27.6511L83.1177 30.3139C83.1177 31.7846 81.9093 32.9768 80.4186 32.9768C78.928 32.9768 77.7196 31.7846 77.7196 30.3139L77.7196 27.6511C77.7196 26.1805 78.928 24.9883 80.4186 24.9883Z" fill="#EE7D8B"/>
<path d="M66.9235 19.6629C68.4142 19.6629 69.6226 20.8551 69.6226 22.3257L69.6226 30.3141C69.6226 31.7847 68.4142 32.9769 66.9235 32.9769C65.4329 32.9769 64.2245 31.7847 64.2245 30.3141L64.2245 22.3257C64.2245 20.8551 65.4329 19.6629 66.9235 19.6629Z" fill="#13C8A4"/>
<path d="M93.9133 19.6631C95.4039 19.6631 96.6123 20.8552 96.6123 22.3259L96.6123 30.3143C96.6123 31.7849 95.4039 32.9771 93.9133 32.9771C92.4226 32.9771 91.2142 31.7849 91.2142 30.3143L91.2142 22.3259C91.2142 20.8552 92.4226 19.6631 93.9133 19.6631Z" fill="#13C8A4"/>
<path d="M61.5249 20.9946C61.5249 18.7887 63.3375 17.0004 65.5735 17.0004L68.2725 17.0004C70.5085 17.0004 72.3211 18.7887 72.3211 20.9946C72.3211 23.2005 70.5085 24.9888 68.2725 24.9888L65.5735 24.9888C63.3375 24.9888 61.5249 23.2005 61.5249 20.9946Z" fill="#EE7D8B"/>
<path d="M88.5156 20.9942C88.5156 18.7883 90.3282 17 92.5642 17L95.2632 17C97.4992 17 99.3118 18.7883 99.3118 20.9942C99.3118 23.2002 97.4992 24.9884 95.2632 24.9884L92.5642 24.9884C90.3282 24.9884 88.5156 23.2002 88.5156 20.9942Z" fill="#EE7D8B"/>
<path d="M72.3723 42.6275C71.7187 42.7083 71.1224 42.2513 71.0405 41.6066C70.9586 40.962 71.4221 40.3738 72.0757 40.293C72.7294 40.2122 73.3257 40.6692 73.4076 41.3139C73.4895 41.9585 73.026 42.5466 72.3723 42.6275Z" fill="black"/>
<path d="M88.5657 42.6275C87.912 42.7083 87.3157 42.2513 87.2338 41.6066C87.1519 40.962 87.6154 40.3739 88.2691 40.293C88.9227 40.2122 89.519 40.6693 89.6009 41.3139C89.6829 41.9586 89.2194 42.5467 88.5657 42.6275Z" fill="black"/>
<path d="M54.4214 64.4428C56.5771 64.4428 58.3247 66.1669 58.3247 68.2937L58.3247 75.3793C58.3247 77.5061 56.5772 79.2302 54.4214 79.2302C52.2657 79.2302 50.5181 77.5061 50.5181 75.3793L50.5181 68.2937C50.5181 66.1669 52.2657 64.4428 54.4214 64.4428Z" fill="#13C8A4"/>
<path fill-rule="evenodd" clip-rule="evenodd" d="M59.5732 68.2929L59.5732 75.3786C59.5732 78.1859 57.2665 80.4617 54.4209 80.4617C51.5754 80.4617 49.2686 78.1859 49.2686 75.3786L49.2686 68.2929C49.2686 65.4856 51.5754 63.2098 54.4209 63.2098C57.2665 63.2098 59.5732 65.4856 59.5732 68.2929ZM58.3242 68.2929C58.3242 66.1662 56.5766 64.4421 54.4209 64.4421C52.2652 64.4421 50.5176 66.1662 50.5176 68.2929L50.5176 75.3786C50.5176 77.5053 52.2652 79.2294 54.4209 79.2294C56.5766 79.2294 58.3242 77.5053 58.3242 75.3786L58.3242 68.2929Z" fill="black"/>
<path fill-rule="evenodd" clip-rule="evenodd" d="M79.2902 66.976L79.2902 74.6414C79.2902 75.3581 79.8841 75.9429 80.6099 75.9429C81.3352 75.9429 81.9292 75.3581 81.9292 74.6414L81.9292 66.976C81.9292 66.2598 81.3352 65.6745 80.6099 65.6745C79.8841 65.6745 79.2902 66.2598 79.2902 66.976ZM82.8523 66.976L82.8523 74.6414C82.8523 75.3581 83.4461 75.9429 84.1716 75.9429L84.1721 75.9429C84.8974 75.9429 85.4913 75.3581 85.4913 74.6414L85.4913 66.976C85.4913 66.2598 84.8974 65.6745 84.1721 65.6745L84.1716 65.6745C83.4461 65.6745 82.8523 66.2598 82.8523 66.976ZM75.7285 66.976L75.7285 74.6414C75.7285 75.3581 76.3224 75.9429 77.0477 75.9429C77.7732 75.9429 78.367 75.3581 78.367 74.6414L78.367 66.976C78.367 66.2598 77.7732 65.6745 77.0477 65.6745C76.3219 65.6745 75.7285 66.2598 75.7285 66.976Z" fill="black"/>
<path fill-rule="evenodd" clip-rule="evenodd" d="M100.246 68.7116L100.246 74.2568C100.246 77.0642 102.552 79.34 105.398 79.34C108.243 79.34 110.55 77.0642 110.55 74.2568L110.55 68.7116C110.55 65.9042 108.243 63.6284 105.398 63.6284C102.552 63.6284 100.246 65.9042 100.246 68.7116ZM101.495 68.7116C101.495 66.5848 103.242 64.8607 105.398 64.8607C107.554 64.8607 109.301 66.5848 109.301 68.7116L109.301 74.2568C109.301 76.3836 107.554 78.1077 105.398 78.1077C103.242 78.1077 101.495 76.3836 101.495 74.2568L101.495 68.7116Z" fill="black"/>
<path d="M105.398 64.86C103.242 64.86 101.495 66.584 101.495 68.7108L101.495 74.2561C101.495 76.3829 103.242 78.107 105.398 78.107C107.554 78.107 109.301 76.3829 109.301 74.2561L109.301 68.7108C109.301 66.584 107.554 64.86 105.398 64.86Z" fill="#13C8A4"/>
<path fill-rule="evenodd" clip-rule="evenodd" d="M113.391 71.1487L110.336 71.1487L110.336 71.9739L112.561 71.9739L112.561 108.037L113.391 108.037L113.391 71.1487Z" fill="black"/>
<path fill-rule="evenodd" clip-rule="evenodd" d="M113.641 70.8987L110.086 70.8987L110.086 72.2239L112.311 72.2239L112.311 108.287L113.641 108.287L113.641 70.8987ZM113.141 71.3987L113.141 107.787L112.811 107.787L112.811 71.7239L110.586 71.7239L110.586 71.3987L113.141 71.3987Z" fill="black"/>
<path fill-rule="evenodd" clip-rule="evenodd" d="M110.751 71.1494L109.921 71.1494L109.921 108.038L110.751 108.038L110.751 71.1494Z" fill="black"/>
<path fill-rule="evenodd" clip-rule="evenodd" d="M109.671 70.8994L109.671 108.288L111.001 108.288L111.001 70.8994L109.671 70.8994ZM110.501 71.3994L110.501 107.788L110.171 107.788L110.171 71.3994L110.501 71.3994Z" fill="black"/>
<path fill-rule="evenodd" clip-rule="evenodd" d="M107.924 109.125C107.91 108.077 108.764 107.205 109.822 107.184L113.697 107.183C114.754 107.164 115.632 108.003 115.646 109.05C115.66 110.097 114.806 110.969 113.748 110.99L109.873 110.99C108.815 111.011 107.938 110.171 107.924 109.125Z" fill="black"/>
<path fill-rule="evenodd" clip-rule="evenodd" d="M49.8213 71.1487L46.7667 71.1487L46.7667 71.9739L48.9912 71.9739L48.9912 108.037L49.8213 108.037L49.8213 71.1487Z" fill="black"/>
<path fill-rule="evenodd" clip-rule="evenodd" d="M50.0713 70.8987L46.5167 70.8987L46.5167 72.2239L48.7412 72.2239L48.7412 108.287L50.0713 108.287L50.0713 70.8987ZM49.5713 71.3987L49.5713 107.787L49.2412 107.787L49.2412 71.7239L47.0167 71.7239L47.0167 71.3987L49.5713 71.3987Z" fill="black"/>
<path fill-rule="evenodd" clip-rule="evenodd" d="M47.1816 71.1494L46.3516 71.1494L46.3516 108.038L47.1816 108.038L47.1816 71.1494Z" fill="black"/>
<path fill-rule="evenodd" clip-rule="evenodd" d="M46.1016 70.8994L46.1016 108.288L47.4316 108.288L47.4316 70.8994L46.1016 70.8994ZM46.9316 71.3994L46.9316 107.788L46.6016 107.788L46.6016 71.3994L46.9316 71.3994Z" fill="black"/>
<path fill-rule="evenodd" clip-rule="evenodd" d="M44.3544 109.125C44.3403 108.077 45.194 107.205 46.2519 107.184L50.127 107.183C51.1847 107.164 52.0617 108.003 52.0762 109.05C52.0899 110.097 51.2361 110.969 50.1781 110.99L46.3028 110.99C45.2455 111.011 44.3684 110.171 44.3544 109.125Z" fill="black"/>
<path d="M33.9008 40L52 52.1938L32 62L33.9008 40Z" fill="#EE7D8B"/>
<path d="M21.778 36L29 38.778L26.222 46L19 43.222L21.778 36Z" fill="#EE7D8B"/>
<path d="M113.001 45.9995C113.081 51.5192 117.481 55.999 123.001 55.999C128.52 55.999 133 51.5192 133 45.9995C133 40.4798 128.52 36 123.001 36C117.481 36 112.921 38.6399 113.001 45.9995Z" fill="#EE7D8B"/>
<path d="M133.001 96.9995C133.049 100.311 135.689 102.999 139.001 102.999C142.312 102.999 145 100.311 145 96.9995C145 93.6878 142.312 91 139.001 91C135.689 91 132.953 92.5839 133.001 96.9995Z" fill="#EE7D8B"/>
<path d="M12.5006 90.4995C12.5445 93.5352 14.9643 95.999 18 95.999C21.0357 95.999 23.4995 93.5352 23.4995 90.4995C23.4995 87.4638 21.0357 85 18 85C14.9643 85 12.4566 86.4519 12.5006 90.4995Z" fill="#EE7D8B"/>
<path d="M149.385 74.9999C149.555 74.9999 149.724 74.9137 149.809 74.8276C150.064 74.5691 150.064 74.1384 149.809 73.8799L144.209 68.1938C143.955 67.9354 143.53 67.9354 143.276 68.1938C143.021 68.4523 143.021 68.8831 143.276 69.1415L148.876 74.8276C149.045 74.9137 149.215 74.9999 149.385 74.9999Z" fill="#13C8A4"/>
<path d="M143.7 74.9999C143.87 74.9999 144.039 74.9137 144.124 74.8276L149.724 69.1415C149.979 68.8831 149.979 68.4523 149.724 68.1938C149.47 67.9354 149.045 67.9354 148.791 68.1938L143.191 73.8799C142.936 74.1384 142.936 74.5691 143.191 74.8276C143.445 74.9137 143.615 74.9999 143.7 74.9999Z" fill="#13C8A4"/>
<path d="M129.385 127C129.555 127 129.724 126.914 129.809 126.828C130.064 126.569 130.064 126.138 129.809 125.88L124.209 120.194C123.955 119.935 123.53 119.935 123.276 120.194C123.021 120.452 123.021 120.883 123.276 121.142L128.876 126.828C129.045 126.914 129.215 127 129.385 127Z" fill="#13C8A4"/>
<path d="M123.7 127C123.87 127 124.039 126.914 124.124 126.828L129.724 121.142C129.979 120.883 129.979 120.452 129.724 120.194C129.47 119.935 129.045 119.935 128.791 120.194L123.191 125.88C122.936 126.138 122.936 126.569 123.191 126.828C123.445 126.914 123.615 127 123.7 127Z" fill="#13C8A4"/>
<path d="M29.3849 127C29.5545 127 29.7242 126.914 29.8091 126.828C30.0636 126.569 30.0636 126.138 29.8091 125.88L24.2091 120.194C23.9546 119.935 23.5304 119.935 23.2758 120.194C23.0213 120.452 23.0213 120.883 23.2758 121.142L28.8758 126.828C29.0455 126.914 29.2152 127 29.3849 127Z" fill="#13C8A4"/>
<path d="M23.6999 127C23.8696 127 24.0393 126.914 24.1242 126.828L29.7241 121.142C29.9787 120.883 29.9787 120.452 29.7241 120.194C29.4696 119.935 29.0453 119.935 28.7908 120.194L23.1909 125.88C22.9363 126.138 22.9363 126.569 23.1909 126.828C23.4454 126.914 23.6151 127 23.6999 127Z" fill="#13C8A4"/>
<path d="M17.3849 74.9999C17.5545 74.9999 17.7242 74.9137 17.8091 74.8276C18.0636 74.5691 18.0636 74.1384 17.8091 73.8799L12.2091 68.1938C11.9546 67.9354 11.5304 67.9354 11.2758 68.1938C11.0213 68.4523 11.0213 68.8831 11.2758 69.1415L16.8758 74.8276C17.0455 74.9137 17.2152 74.9999 17.3849 74.9999Z" fill="#13C8A4"/>
<path d="M11.6999 74.9999C11.8696 74.9999 12.0393 74.9137 12.1242 74.8276L17.7241 69.1415C17.9787 68.8831 17.9787 68.4523 17.7241 68.1938C17.4696 67.9354 17.0453 67.9354 16.7908 68.1938L11.1909 73.8799C10.9363 74.1384 10.9363 74.5691 11.1909 74.8276C11.4454 74.9137 11.6151 74.9999 11.6999 74.9999Z" fill="#13C8A4"/>
<path d="M83.3849 150C83.5545 150 83.7242 149.914 83.8091 149.828C84.0636 149.569 84.0636 149.138 83.8091 148.88L78.2091 143.194C77.9546 142.935 77.5304 142.935 77.2758 143.194C77.0213 143.452 77.0213 143.883 77.2758 144.142L82.8758 149.828C83.0455 149.914 83.2152 150 83.3849 150Z" fill="#13C8A4"/>
<path d="M77.6999 150C77.8696 150 78.0393 149.914 78.1242 149.828L83.7241 144.142C83.9787 143.883 83.9787 143.452 83.7241 143.194C83.4696 142.935 83.0453 142.935 82.7908 143.194L77.1909 148.88C76.9363 149.138 76.9363 149.569 77.1909 149.828C77.4454 149.914 77.6151 150 77.6999 150Z" fill="#13C8A4"/>
<path d="M83.3849 13.9999C83.5545 13.9999 83.7242 13.9137 83.8091 13.8276C84.0636 13.5691 84.0636 13.1384 83.8091 12.8799L78.2091 7.19384C77.9546 6.93539 77.5304 6.93539 77.2758 7.19384C77.0213 7.4523 77.0213 7.88309 77.2758 8.14155L82.8758 13.8276C83.0455 13.9137 83.2152 13.9999 83.3849 13.9999Z" fill="#13C8A4"/>
<path d="M77.6999 13.9999C77.8696 13.9999 78.0393 13.9137 78.1242 13.8276L83.7241 8.14155C83.9787 7.88309 83.9787 7.4523 83.7241 7.19384C83.4696 6.93539 83.0453 6.93539 82.7908 7.19384L77.1909 12.8799C76.9363 13.1384 76.9363 13.5691 77.1909 13.8276C77.4454 13.9137 77.6151 13.9999 77.6999 13.9999Z" fill="#13C8A4"/>
</svg>
