<svg width="158" height="158" viewBox="0 0 158 158" fill="none" xmlns="http://www.w3.org/2000/svg">
<mask id="mask0" mask-type="alpha" maskUnits="userSpaceOnUse" x="0" y="0" width="158" height="158">
<circle cx="79" cy="79" r="79" fill="#9CA5AB"/>
</mask>
<g mask="url(#mask0)">
<path d="M123.605 34.3953H35.1396V122.599H123.605V34.3953Z" fill="#EE7D8B"/>
<path d="M125.802 124.79H33.2164V32.2039H125.802V124.79ZM37.3375 120.681H121.681V36.5866H37.3375V120.681Z" fill="#EE7D8B"/>
<path d="M79.8772 100.034C71.9926 100.034 64.9238 95.9558 61.1175 89.1588C60.5737 88.0713 60.8456 86.9838 61.9331 86.44C63.0206 85.8962 64.1082 86.1683 64.6519 87.2558C67.6426 92.6934 73.6239 96.2278 79.8772 96.2278C89.393 96.2278 97.2776 88.3432 97.2776 78.8274C97.2776 69.3115 89.393 61.4271 79.8772 61.4271C70.3614 61.4271 62.4769 69.3115 62.4769 78.8274C62.4769 79.9149 61.6613 81.0024 60.3019 81.0024C58.9425 81.0024 58.1267 80.1868 58.1267 78.8274C58.1267 66.8646 67.9145 57.3489 79.6054 57.3489C91.2963 57.3489 101.084 67.1365 101.084 78.8274C101.084 90.5183 91.84 100.034 79.8772 100.034Z" fill="white"/>
<path d="M79.8766 111.997C61.3887 111.997 46.1635 96.7711 46.1635 78.2832C46.1635 59.7953 61.3887 44.5701 79.8766 44.5701C89.1205 44.5701 98.3646 48.6483 104.618 55.4453C105.434 56.261 105.434 57.6203 104.618 58.4359C103.802 59.2516 102.443 59.2516 101.627 58.4359C95.9176 52.4545 88.033 48.9201 79.8766 48.9201C63.5637 48.9201 50.2417 62.2423 50.2417 78.5552C50.2417 94.868 63.5637 108.19 79.8766 108.19C96.1894 108.19 109.512 94.868 109.512 78.5552C109.512 74.7489 108.696 71.2144 107.337 67.68C106.793 66.5924 107.337 65.5049 108.424 64.9611C109.512 64.4174 110.599 64.961 111.143 66.0486C112.774 70.1268 113.59 74.2051 113.59 78.5552C113.59 97.0431 98.6364 111.997 79.8766 111.997Z" fill="white"/>
<path d="M89.7032 96.6765C89.3599 90.8401 85.0112 89.8102 85.0112 89.8102C84.6679 86.377 79.747 85.3471 79.747 85.3471C81.1203 78.8241 83.1802 76.6497 82.1503 74.7043C80.5481 71.6144 77.6871 73.9032 74.4828 80.9984C74.1395 81.7995 73.7962 82.6006 73.4529 83.4017C72.6518 82.8295 71.6219 82.9439 70.2486 84.546C67.0443 88.5514 65.3278 92.7856 66.701 102.398C66.3577 103.2 66.0144 103.886 65.5566 104.573L81.0059 124.828C81.0059 124.828 84.5534 122.654 85.4689 115.444C86.0411 111.439 86.7278 105.603 87.3 102.627C90.6187 103.085 89.8176 99.6519 89.7032 96.6765Z" fill="white"/>
<path d="M80.8913 125.858L64.5266 104.572L64.7555 104.115C65.0988 103.542 65.4421 102.97 65.671 102.284C64.2977 92.5563 66.0143 88.2076 69.4475 83.9734C70.7063 82.3713 71.9651 82.1424 72.7662 82.2568C72.9951 81.6846 73.2239 81.1124 73.4528 80.6547C75.9705 75.276 78.1448 72.644 80.2047 72.5295C80.8914 72.5295 81.9213 72.8728 82.7224 74.3605C83.409 75.8482 82.9513 77.2215 82.1502 79.3959C81.6924 80.7691 81.0058 82.4857 80.548 84.8889C82.0357 85.3467 85.0112 86.6055 85.5834 89.352C86.8422 89.9242 90.0464 91.6408 90.2753 96.7906C90.2753 97.2483 90.3897 97.5916 90.3897 98.0494C90.5042 99.9948 90.7331 101.94 89.5887 102.97C89.131 103.428 88.5588 103.542 87.8721 103.542C87.4144 105.831 86.9566 109.264 86.6133 112.24C86.4988 113.384 86.27 114.529 86.1556 115.558C85.1256 123.111 81.4635 125.515 81.2346 125.629L80.8913 125.858ZM66.5865 104.343L81.1202 123.455C82.0357 122.539 83.9812 120.022 84.6678 115.215C84.7822 114.185 84.8967 113.155 85.1256 112.011C85.5833 108.578 86.0411 104.572 86.6133 102.398L86.8422 101.597L87.6432 101.711C87.9866 101.826 88.5588 101.826 88.7876 101.597C89.2454 101.139 89.131 99.4226 89.0165 98.0494C89.0165 97.5916 88.902 97.1339 88.902 96.7906C88.6732 91.7553 85.0111 90.7253 84.8967 90.7253L84.3245 90.6108L84.2101 90.0386C83.9812 87.2921 79.6325 86.3766 79.6325 86.2622L78.8315 86.0333L78.9459 85.2322C79.5181 82.3712 80.3192 80.3113 80.7769 78.7092C81.4636 76.7637 81.8069 75.8483 81.3491 75.0472C81.0058 74.475 80.7769 74.1316 80.4336 74.1316C80.0903 74.1316 78.3737 74.475 75.1694 81.2269C74.8261 82.0279 74.4828 82.829 74.1395 83.6301L73.7961 84.5456L72.8806 83.9734C72.6517 83.859 72.0796 83.4012 70.8207 84.8889C67.7309 88.7798 66.1287 92.7852 67.502 102.055V102.284L67.3876 102.512C67.1587 103.314 66.9298 103.886 66.5865 104.343Z" fill="black"/>
<path d="M66.0143 103.657C59.9491 115.787 56.0581 120.251 48.8485 122.31C37.9768 125.515 11.9993 111.21 -4.25102 113.842L-8.14197 147.144C-8.14197 147.144 15.4324 162.478 42.6688 160.304C66.2432 158.359 81.9213 134.212 84.7823 122.31C81.9213 114.414 72.5373 108.006 66.0143 103.657Z" fill="#13C8A4"/>
<path d="M37.2903 161.449C12.4571 161.449 -8.37078 148.059 -8.59966 147.945L-9.05737 147.602L-5.05202 113.156L-4.36541 113.041C4.21749 111.553 15.2036 114.758 25.732 117.733C34.8871 120.365 43.5844 122.883 48.6197 121.395C55.486 119.45 59.2625 115.33 65.3278 103.199L65.7855 102.284L66.5866 102.856C72.9952 107.205 82.7225 113.728 85.6979 121.967L85.8123 122.196L85.6979 122.425C82.7225 134.556 66.701 159.16 42.8978 161.105C40.8379 161.334 39.0069 161.449 37.2903 161.449ZM-7.22638 146.686C-3.90766 148.746 17.9501 161.449 42.5545 159.389C65.4422 157.558 80.8915 134.098 83.8669 122.311C81.1203 114.987 72.5374 109.036 66.3577 104.802C60.4069 116.703 56.2871 120.937 49.0775 122.997C43.5844 124.599 34.6582 121.967 25.1598 119.335C15.5469 116.589 4.67526 113.385 -3.56433 114.529L-7.22638 146.686Z" fill="#13C8A4"/>
<path d="M78.8316 86.377L78.0305 88.6658C77.8017 89.3524 78.8316 89.6957 79.1749 89.0091C79.4038 88.208 79.7471 87.5214 79.976 86.7203C80.2049 85.9193 79.0605 85.6904 78.8316 86.377Z" fill="black"/>
<path d="M88.6731 97.0196C88.5587 96.333 87.4143 96.5619 87.5287 97.363C87.6432 98.2785 87.5288 99.1939 87.1854 100.109C86.9566 100.796 87.9865 101.139 88.3298 100.453C88.7876 99.1939 88.902 98.164 88.6731 97.0196Z" fill="black"/>
<path d="M72.5374 85.0038C71.1642 87.6359 70.2486 90.3825 69.7909 93.3579C69.6764 94.0445 70.8208 94.3878 70.9353 93.7012C71.393 90.8402 72.1941 88.2081 73.5674 85.576C73.7963 84.8894 72.8807 84.3172 72.5374 85.0038Z" fill="black"/>
<path d="M84.3245 90.4963C84.0957 90.9541 83.9812 91.5263 83.7523 91.984C83.5235 92.6707 84.5534 93.014 84.8967 92.3273C85.1256 91.8696 85.24 91.2974 85.4689 90.8396C85.6978 90.153 84.5534 89.8097 84.3245 90.4963Z" fill="black"/>
</g>
</svg>
