<svg width="160" height="160" viewBox="0 0 160 160" fill="none" xmlns="http://www.w3.org/2000/svg">
<path d="M159.443 80.0007C159.443 123.876 123.875 159.443 80.0006 159.443C36.1257 159.443 0.558105 123.876 0.558105 80.0007C0.558105 36.1258 36.1257 0.558151 80.0006 0.558151C123.875 0.558151 159.443 36.1258 159.443 80.0007Z" fill="white"/>
<path fill-rule="evenodd" clip-rule="evenodd" d="M80.0006 158.328C123.26 158.328 158.328 123.26 158.328 80.0007C158.328 36.7416 123.26 1.67313 80.0006 1.67313C36.7415 1.67313 1.67309 36.7416 1.67309 80.0007C1.67309 123.26 36.7415 158.328 80.0006 158.328ZM80.0006 159.443C123.875 159.443 159.443 123.876 159.443 80.0007C159.443 36.1258 123.875 0.558151 80.0006 0.558151C36.1257 0.558151 0.558105 36.1258 0.558105 80.0007C0.558105 123.876 36.1257 159.443 80.0006 159.443Z" fill="#9CA5AB"/>
<path fill-rule="evenodd" clip-rule="evenodd" d="M80 157.77C122.951 157.77 157.77 122.951 157.77 80C157.77 37.0488 122.951 2.22997 80 2.22997C37.0488 2.22997 2.22997 37.0488 2.22997 80C2.22997 122.951 37.0488 157.77 80 157.77ZM160 80C160 124.183 124.183 160 80 160C35.8172 160 0 124.183 0 80C0 35.8172 35.8172 0 80 0C124.183 0 160 35.8172 160 80ZM158.328 80C158.328 123.259 123.259 158.328 80 158.328C36.7409 158.328 1.67247 123.259 1.67247 80C1.67247 36.7409 36.7409 1.67247 80 1.67247C123.259 1.67247 158.328 36.7409 158.328 80ZM159.443 80C159.443 123.875 123.875 159.443 80 159.443C36.1251 159.443 0.557491 123.875 0.557491 80C0.557491 36.1251 36.1251 0.557491 80 0.557491C123.875 0.557491 159.443 36.1251 159.443 80Z" fill="#9CA5AB"/>
<path d="M31.8503 118.621L36.7894 123.957L30.4245 126.779L28.5576 124.148L31.8503 118.621Z" fill="white"/>
<path d="M30.348 127.054L28.29 124.158L31.8032 118.249L37.1539 124.026L30.348 127.054ZM28.8192 124.129L30.495 126.495L36.4189 123.864L31.8914 118.984L28.8192 124.129Z" fill="white"/>
<path d="M126 64.0276C126 63.3219 125.428 62.7498 124.722 62.7498H35.2778C34.5721 62.7498 34 63.3219 34 64.0276V100.444C34 114.558 45.4416 126 59.5556 126H100.444C114.558 126 126 114.558 126 100.444V64.0276Z" fill="#13C8A4"/>
<path d="M114.5 85.7497C114.5 79.3984 109.351 74.2497 103 74.2497H57C50.6487 74.2497 45.5 79.3984 45.5 85.7497C45.5 92.101 50.6487 97.2497 57 97.2497H103C109.351 97.2497 114.5 92.101 114.5 85.7497Z" fill="white"/>
<path fill-rule="evenodd" clip-rule="evenodd" d="M57 76.9106H103C107.882 76.9106 111.839 80.868 111.839 85.7497C111.839 90.6314 107.882 94.5888 103 94.5888H57C52.1184 94.5888 48.161 90.6314 48.161 85.7497C48.161 80.868 52.1184 76.9106 57 76.9106ZM103 74.2497C109.351 74.2497 114.5 79.3984 114.5 85.7497C114.5 92.101 109.351 97.2497 103 97.2497H57C50.6487 97.2497 45.5 92.101 45.5 85.7497C45.5 79.3984 50.6487 74.2497 57 74.2497H103Z" fill="black"/>
<path d="M80 51.2498C76.8244 51.2498 74.25 53.8242 74.25 56.9998L74.25 62.7499C74.25 65.9255 76.8244 68.4999 80 68.4999C83.1756 68.4999 85.75 65.9255 85.75 62.7499L85.75 56.9998C85.75 53.8242 83.1756 51.2498 80 51.2498Z" fill="#EE7D8B"/>
<path d="M108.75 39.7498C105.575 39.7498 103 42.3242 103 45.4998L103 62.7499C103 65.9255 105.575 68.4999 108.75 68.4999C111.926 68.4999 114.5 65.9255 114.5 62.7499L114.5 45.4998C114.5 42.3242 111.926 39.7498 108.75 39.7498Z" fill="#13C8A4"/>
<path d="M51.2505 39.7498C48.0749 39.7498 45.5005 42.3242 45.5005 45.4998L45.5005 62.7499C45.5005 65.9255 48.0749 68.4999 51.2505 68.4999C54.4261 68.4999 57.0005 65.9255 57.0005 62.7499L57.0005 45.4998C57.0005 42.3242 54.4261 39.7498 51.2505 39.7498Z" fill="#13C8A4"/>
<path d="M120.251 42.625C120.251 37.8616 116.389 34 111.626 34H105.876C101.113 34 97.251 37.8616 97.251 42.625C97.251 47.3885 101.113 51.25 105.876 51.25H111.626C116.389 51.25 120.251 47.3885 120.251 42.625Z" fill="#EE7D8B"/>
<path d="M62.7505 42.625C62.7505 37.8616 58.8889 34 54.1255 34H48.3755C43.612 34 39.7505 37.8616 39.7505 42.625C39.7505 47.3885 43.612 51.25 48.3755 51.25H54.1255C58.8889 51.25 62.7505 47.3885 62.7505 42.625Z" fill="#EE7D8B"/>
<path d="M97.1427 89.3406C98.5353 89.5151 99.8057 88.5277 99.9802 87.1352C100.155 85.7426 99.1674 84.4722 97.7749 84.2977C96.3823 84.1231 95.1119 85.1105 94.9373 86.503C94.7628 87.8956 95.7502 89.166 97.1427 89.3406Z" fill="black"/>
<path d="M62.6427 89.3406C64.0353 89.5151 65.3057 88.5277 65.4802 87.1352C65.6548 85.7426 64.6674 84.4722 63.2749 84.2977C61.8823 84.1231 60.6119 85.1105 60.4373 86.503C60.2628 87.8956 61.2502 89.166 62.6427 89.3406Z" fill="black"/>
<path d="M73.0725 107.155C78.6426 108.412 83.1949 108.111 88.4412 107.334C90.0583 107.155 90.0583 104.639 88.4412 104.819C82.556 106.194 79.002 105.897 73.6115 104.819C72.1741 104.459 71.635 106.795 73.0725 107.155Z" fill="white"/>
</svg>
