<svg width="160" height="160" viewBox="0 0 160 160" fill="none" xmlns="http://www.w3.org/2000/svg">
<path d="M159.443 80C159.443 123.875 123.875 159.443 80 159.443C36.1251 159.443 0.557495 123.875 0.557495 80C0.557495 36.1251 36.1251 0.557495 80 0.557495C123.875 0.557495 159.443 36.1251 159.443 80Z" fill="white"/>
<path fill-rule="evenodd" clip-rule="evenodd" d="M80 158.328C123.259 158.328 158.328 123.259 158.328 80C158.328 36.7409 123.259 1.67248 80 1.67248C36.7409 1.67248 1.67248 36.7409 1.67248 80C1.67248 123.259 36.7409 158.328 80 158.328ZM80 159.443C123.875 159.443 159.443 123.875 159.443 80C159.443 36.1251 123.875 0.557495 80 0.557495C36.1251 0.557495 0.557495 36.1251 0.557495 80C0.557495 123.875 36.1251 159.443 80 159.443Z" fill="#9CA5AB"/>
<path fill-rule="evenodd" clip-rule="evenodd" d="M80 157.77C122.951 157.77 157.77 122.951 157.77 80C157.77 37.0488 122.951 2.22997 80 2.22997C37.0488 2.22997 2.22997 37.0488 2.22997 80C2.22997 122.951 37.0488 157.77 80 157.77ZM160 80C160 124.183 124.183 160 80 160C35.8172 160 0 124.183 0 80C0 35.8172 35.8172 0 80 0C124.183 0 160 35.8172 160 80ZM158.328 80C158.328 123.259 123.259 158.328 80 158.328C36.7409 158.328 1.67247 123.259 1.67247 80C1.67247 36.7409 36.7409 1.67247 80 1.67247C123.259 1.67247 158.328 36.7409 158.328 80ZM159.443 80C159.443 123.875 123.875 159.443 80 159.443C36.1251 159.443 0.557491 123.875 0.557491 80C0.557491 36.1251 36.1251 0.557491 80 0.557491C123.875 0.557491 159.443 36.1251 159.443 80Z" fill="#9CA5AB"/>
<rect width="5.26445" height="14.4729" rx="2" transform="matrix(-1 0 0 1 61.6066 45.985)" fill="#13C8A4"/>
<path d="M58.9745 60.3287V61.4921" stroke="#13C8A4" stroke-linecap="round"/>
<path d="M58.9745 23.9999V46.1142" stroke="#13C8A4" stroke-linecap="round"/>
<rect width="5.26445" height="17.8783" rx="2" transform="matrix(1 -9.15583e-08 -8.3474e-08 -1 64.9218 69.4003)" fill="#13C8A4"/>
<path d="M67.554 51.6823L67.554 39.7696" stroke="#13C8A4" stroke-linecap="round"/>
<path d="M67.8554 89.7125L67.8554 69.4442" stroke="#13C8A4" stroke-linecap="round"/>
<rect width="5.26445" height="33.0132" rx="2" transform="matrix(1 -9.15583e-08 -8.3474e-08 -1 124.177 97.9538)" fill="#13C8A4"/>
<path d="M126.809 65.2366L126.809 43.2392" stroke="#13C8A4" stroke-linecap="round"/>
<path d="M127 109L127 81" stroke="#13C8A4" stroke-linecap="round"/>
<rect width="5.26445" height="18.4842" rx="2" transform="matrix(-1 0 0 1 54.1394 31.9171)" fill="#13C8A4"/>
<path d="M51.5073 50.0045V62.9267" stroke="#13C8A4" stroke-linecap="round"/>
<path d="M51.5073 27.7786L51.5073 34.3291" stroke="#13C8A4" stroke-linecap="round"/>
<rect width="5.26445" height="18.4842" rx="2" transform="matrix(-1 0 0 1 86.5447 36.6686)" fill="#13C8A4"/>
<path d="M83.9125 54.7568V79.252" stroke="#13C8A4" stroke-linecap="round"/>
<path d="M83.9125 28.0168L83.9125 39.0815" stroke="#13C8A4" stroke-linecap="round"/>
<rect width="5.26445" height="23.0185" rx="2" transform="matrix(-1 0 0 1 103.703 43.9269)" fill="#13C8A4"/>
<path d="M101.071 66.4522V79.2517" stroke="#13C8A4" stroke-linecap="round"/>
<path d="M101.071 33.1526L101.071 46.9316" stroke="#13C8A4" stroke-linecap="round"/>
<rect width="5.26445" height="16.4265" rx="2" transform="matrix(-1 0 0 1 112.283 52.3338)" fill="#EE7D8B"/>
<path d="M109.651 62.7263V70.8093" stroke="#EE7D8B" stroke-linecap="round"/>
<path d="M109.651 43.2391L109.651 53.72" stroke="#EE7D8B" stroke-linecap="round"/>
<rect width="5.26445" height="5.56076" rx="2" transform="matrix(-1 0 0 1 120.862 67.653)" fill="#EE7D8B"/>
<path d="M118.23 71.1712V81.1383" stroke="#EE7D8B" stroke-linecap="round"/>
<path d="M118.23 64.5743L118.23 68.1223" stroke="#EE7D8B" stroke-linecap="round"/>
<rect width="5.26445" height="28.5894" rx="2" transform="matrix(1 -9.15583e-08 -8.3474e-08 -1 73.5012 85.0974)" fill="#EE7D8B"/>
<path d="M76.1335 67.0092L76.1335 52.9412" stroke="#EE7D8B" stroke-linecap="round"/>
<path d="M76.1335 113.531L76.1335 82.6845" stroke="#EE7D8B" stroke-linecap="round"/>
<rect width="5.26445" height="14.599" rx="2" transform="matrix(1 -9.15583e-08 -8.3474e-08 -1 89.8595 61.4764)" fill="#EE7D8B"/>
<path d="M92.4917 52.2397L92.4917 45.0559" stroke="#EE7D8B" stroke-linecap="round"/>
<path d="M92.4913 75.9956L92.4913 60.244" stroke="#EE7D8B" stroke-linecap="round"/>
<path d="M76.4201 91.7092L126.701 117.827L81.7275 136.124L35.2175 112.66L76.4201 91.7092Z" fill="#13C8A4"/>
<path d="M35.0504 112.126L81.5604 135.591V84.8905C81.5604 83.3541 80.7224 81.8178 79.186 81.1194L37.1454 60.0293C34.3521 58.6326 31 60.7277 31 63.8004V105.841C31 108.495 32.5363 110.869 35.0504 112.126Z" fill="#13C8A4"/>
<path d="M52.5091 97.6006C55.7215 97.6006 58.2356 95.0865 58.2356 91.8741C58.2356 88.6617 55.7215 85.0303 52.5091 85.0303C49.1571 85.0303 46.7827 87.8237 46.7827 91.8741C46.7827 95.0865 49.2967 97.6006 52.5091 97.6006ZM52.5091 87.1254C54.4645 87.1254 56.1406 89.779 56.1406 91.8741C56.1406 93.8295 54.4645 95.5055 52.5091 95.5055C50.5538 95.5055 48.8777 93.8295 48.8777 91.8741C48.8777 88.941 50.2744 87.1254 52.5091 87.1254Z" fill="white"/>
<path d="M81.5604 129.305C82.1191 129.305 82.6778 128.886 82.6778 128.188V106.12C82.6778 105.562 82.2588 105.003 81.5604 105.003C80.8621 105.003 80.4431 105.422 80.4431 106.12V128.188C80.4431 128.886 81.0017 129.305 81.5604 129.305Z" fill="white"/>
<path d="M107.958 114.361C108.377 114.361 108.656 114.221 108.936 113.802C109.215 113.243 109.075 112.685 108.517 112.405L102.231 109.053C101.673 108.774 101.114 108.914 100.835 109.472C100.555 110.031 100.695 110.59 101.254 110.869L107.539 114.221C107.678 114.361 107.818 114.361 107.958 114.361Z" fill="white"/>
<path d="M97.7622 114.361C98.1812 114.361 98.4606 114.221 98.7399 113.802C99.0193 113.244 98.8796 112.685 98.3209 112.406L95.1085 110.73C94.5498 110.45 93.9911 110.59 93.7118 111.149C93.4325 111.707 93.5721 112.266 94.1308 112.545L97.3432 114.221C97.3432 114.361 97.4829 114.361 97.7622 114.361Z" fill="white"/>
<path d="M94.6892 122.741C95.1082 122.741 95.3876 122.601 95.6669 122.182C95.9462 121.624 95.8066 121.065 95.2479 120.786L90.2198 118.132C89.6611 117.853 89.1024 117.992 88.8231 118.551C88.5438 119.11 88.6834 119.668 89.2421 119.948L94.2702 122.601C94.2702 122.741 94.5495 122.741 94.6892 122.741Z" fill="white"/>
</svg>
