<svg width="287" height="287" viewBox="0 0 287 287" fill="none" xmlns="http://www.w3.org/2000/svg">
<path d="M286 143.5C286 222.201 222.201 286 143.5 286C64.7994 286 1 222.201 1 143.5C1 64.7994 64.7994 1 143.5 1C222.201 1 286 64.7994 286 143.5Z" fill="white"/>
<path fill-rule="evenodd" clip-rule="evenodd" d="M143.5 284C221.096 284 284 221.096 284 143.5C284 65.904 221.096 3 143.5 3C65.904 3 3 65.904 3 143.5C3 221.096 65.904 284 143.5 284ZM143.5 286C222.201 286 286 222.201 286 143.5C286 64.7994 222.201 1 143.5 1C64.7994 1 1 64.7994 1 143.5C1 222.201 64.7994 286 143.5 286Z" fill="#D2D4D7"/>
<path fill-rule="evenodd" clip-rule="evenodd" d="M143.5 283C220.544 283 283 220.544 283 143.5C283 66.4563 220.544 4 143.5 4C66.4563 4 4 66.4563 4 143.5C4 220.544 66.4563 283 143.5 283ZM287 143.5C287 222.753 222.753 287 143.5 287C64.2471 287 0 222.753 0 143.5C0 64.2471 64.2471 0 143.5 0C222.753 0 287 64.2471 287 143.5ZM284 143.5C284 221.096 221.096 284 143.5 284C65.904 284 3 221.096 3 143.5C3 65.904 65.904 3 143.5 3C221.096 3 284 65.904 284 143.5ZM286 143.5C286 222.201 222.201 286 143.5 286C64.7994 286 1 222.201 1 143.5C1 64.7994 64.7994 1 143.5 1C222.201 1 286 64.7994 286 143.5Z" fill="#D2D4D7"/>
<path d="M146.16 225.233L145.592 249.083L186.964 249.488C186.964 249.488 187.208 244.621 179.339 240.97C171.47 237.32 169.848 222.88 169.848 222.88L146.16 225.233Z" fill="#13C8A4"/>
<path d="M187.532 250.056L144.944 249.65L145.511 224.665L170.335 222.231L170.416 222.799C170.416 222.962 172.119 236.914 179.582 240.403C187.695 244.134 187.613 249.245 187.613 249.488L187.532 250.056ZM146.242 248.434L186.316 248.839C186.072 247.541 184.936 244.215 179.096 241.538C171.876 238.212 169.767 226.369 169.361 223.611L146.809 225.882L146.242 248.434Z" fill="#13C8A4"/>
<path d="M93.4411 218.427L88.8385 241.926L129.058 250.775C129.058 250.775 130.068 246.028 123.038 240.795C116.008 235.562 116.853 220.914 116.853 220.914L93.4411 218.427Z" fill="#13C8A4"/>
<path d="M129.597 251.523L88.1873 242.361L92.9936 217.748L117.566 220.385L117.511 220.978C117.54 221.14 116.78 235.357 123.436 240.315C130.731 245.672 129.701 250.756 129.652 250.931L129.597 251.523ZM89.5544 241.395L128.515 250.025C128.517 248.69 127.952 245.109 122.714 241.263C116.246 236.442 116.174 224.358 116.228 221.514L93.8883 219.109L89.5544 241.395Z" fill="#13C8A4"/>
<path d="M98.6868 120.622C94.7188 132.943 98.7526 164.201 94.9635 181.403C91.1743 198.605 90.8612 229.96 90.8612 229.96L120.616 232.374C120.616 232.374 130.549 182.398 127.541 158.014C124.532 133.629 119.42 113.012 119.42 113.012L98.6868 120.622Z" fill="black"/>
<path d="M114.523 130.24C115.172 143.219 131.802 167.718 134.479 185.24C137.156 202.762 144.132 234.318 144.132 234.318L176.824 228.153C176.824 228.153 172.525 179.156 158.329 148.897C147.945 126.751 133.019 112.068 133.019 112.068L114.523 130.24Z" fill="black"/>
<path d="M121.418 151.331C121.175 151.331 121.013 151.25 120.851 151.007L118.822 147.356L112.738 145.166C112.414 145.085 112.252 144.679 112.333 144.355C112.414 144.03 112.819 143.868 113.144 143.949L119.634 146.221L121.824 150.277C121.986 150.601 121.905 150.926 121.581 151.088C121.581 151.331 121.499 151.331 121.418 151.331Z" fill="white"/>
<path d="M121.951 233.049C120.734 233.698 119.437 234.428 118.22 235.077C117.733 235.321 118.139 236.051 118.625 235.807C119.842 235.158 121.14 234.428 122.357 233.779C122.844 233.536 122.438 232.806 121.951 233.049Z" fill="black"/>
<path d="M122.6 235.645C121.627 236.456 120.572 237.186 119.599 237.997C119.193 238.322 119.599 239.052 120.004 238.727L123.006 236.375C123.411 235.969 123.006 235.32 122.6 235.645Z" fill="black"/>
<path d="M174.147 235.049C173.661 236.103 173.174 237.077 172.606 238.131C172.363 238.618 173.093 239.024 173.336 238.537L174.877 235.454C175.04 234.967 174.31 234.562 174.147 235.049Z" fill="black"/>
<path d="M176.419 237.726C175.932 238.78 175.445 239.754 174.877 240.808C174.634 241.295 175.364 241.701 175.607 241.214L177.149 238.131C177.392 237.726 176.662 237.32 176.419 237.726Z" fill="black"/>
<path d="M170.497 227.099C170.172 227.099 169.929 226.855 169.929 226.531C168.631 179.48 140.644 128.293 140.401 127.806C140.239 127.481 140.32 127.157 140.644 126.995C140.969 126.832 141.293 126.914 141.455 127.238C141.699 127.725 169.767 179.156 171.146 226.531C171.146 226.855 170.821 227.099 170.497 227.099Z" fill="white"/>
<path d="M145.998 138.352C145.917 138.352 145.836 138.352 145.755 138.352C145.43 138.271 145.268 137.865 145.43 137.54C146.972 133.403 145.106 127.725 145.106 127.644C145.025 127.319 145.187 126.995 145.511 126.832C145.836 126.751 146.16 126.914 146.323 127.238C146.404 127.481 148.432 133.403 146.647 137.946C146.485 138.189 146.241 138.352 145.998 138.352Z" fill="white"/>
<path d="M280.75 29H185C181.686 29 179 31.6863 179 35V50.419C179 53.7328 181.686 56.419 185 56.419H280.75C284.064 56.419 286.75 53.7328 286.75 50.4191V35C286.75 31.6863 284.064 29 280.75 29Z" fill="black"/>
<path fill-rule="evenodd" clip-rule="evenodd" d="M280.75 30H185C182.239 30 180 32.2386 180 35V50.419C180 53.1805 182.239 55.419 185 55.419H280.75C283.511 55.419 285.75 53.1805 285.75 50.4191V35C285.75 32.2386 283.511 30 280.75 30ZM185 29H280.75C284.064 29 286.75 31.6863 286.75 35V50.4191C286.75 53.7328 284.064 56.419 280.75 56.419H185C181.686 56.419 179 53.7328 179 50.419V35C179 31.6863 181.686 29 185 29Z" fill="black"/>
<path d="M141.861 46.7656C144.376 52.7686 144.538 59.1772 136.669 61.692C131.315 63.3955 124.907 60.8808 122.392 54.8778C119.877 48.8748 122.23 42.2228 127.584 39.9514C132.938 37.68 139.346 40.7627 141.861 46.7656Z" fill="white"/>
<path d="M133.262 62.8277C128.476 62.8277 123.771 59.9073 121.824 55.1211C119.228 48.7937 121.662 41.8172 127.34 39.3836C133.019 37.031 139.752 40.1948 142.429 46.5222C144.214 50.8217 144.457 54.4721 143.24 57.2303C142.186 59.5828 139.995 61.2052 136.913 62.2598C135.615 62.6654 134.398 62.8277 133.262 62.8277ZM131.234 39.8703C130.098 39.8703 128.882 40.1136 127.746 40.6004C122.716 42.7095 120.526 49.037 122.879 54.7155C125.393 60.6374 131.721 62.6654 136.426 61.1241C139.265 60.2318 141.131 58.7716 142.023 56.7436C143.159 54.3099 142.916 50.9839 141.212 47.009C139.427 42.6284 135.371 39.8703 131.234 39.8703Z" fill="black"/>
<path d="M137.399 47.009C137.847 47.009 138.211 46.6458 138.211 46.1978C138.211 45.7498 137.847 45.3866 137.399 45.3866C136.951 45.3866 136.588 45.7498 136.588 46.1978C136.588 46.6458 136.951 47.009 137.399 47.009Z" fill="black"/>
<path d="M137.967 38.6535C137.967 33.2995 129.125 39.3025 127.584 40.0326C122.797 40.9249 118.579 47.2524 120.039 52.8498C121.256 57.636 126.772 63.3144 129.693 61.9354C134.479 59.0961 135.209 54.3911 133.019 49.9294C133.83 48.9559 132.856 47.4958 133.262 46.3601C133.83 44.4943 138.048 40.5193 137.967 38.6535Z" fill="black"/>
<path d="M131.315 49.4427C122.392 48.6314 123.446 55.7701 126.772 57.3926C129.531 58.6905 133.749 58.2038 135.452 54.1477C137.156 50.1727 131.315 49.4427 131.315 49.4427Z" fill="white"/>
<path d="M132.127 52.5253C130.423 51.6329 128.314 52.0385 127.097 53.5798C126.773 53.9855 127.34 54.5533 127.665 54.1477C128.638 52.9309 130.342 52.5253 131.721 53.2554C132.208 53.4988 132.613 52.7686 132.127 52.5253Z" fill="black"/>
<path d="M142.51 48.7937C141.618 47.2524 140.482 45.7922 139.103 44.5754C138.697 44.2509 138.129 44.8188 138.535 45.1433C139.833 46.3601 140.888 47.658 141.78 49.1993C142.104 49.6049 142.753 49.1993 142.51 48.7937Z" fill="black"/>
<path d="M203.351 29.6489H177.23V55.77H203.351V29.6489Z" fill="#13C8A4"/>
<path d="M204 56.419H176.662V29H204V56.419ZM177.879 55.2022H202.783V30.2979H177.879V55.2022Z" fill="#13C8A4"/>
<path d="M190.29 48.9559C187.938 48.9559 185.829 47.7391 184.693 45.711C184.531 45.3865 184.612 45.062 184.937 44.8998C185.261 44.7376 185.585 44.8187 185.748 45.1432C186.64 46.7656 188.425 47.8202 190.29 47.8202C193.13 47.8202 195.482 45.4677 195.482 42.6284C195.482 39.7892 193.13 37.4367 190.29 37.4367C187.451 37.4367 185.099 39.7892 185.099 42.6284C185.099 42.9529 184.855 43.2774 184.45 43.2774C184.044 43.2774 183.801 43.034 183.801 42.6284C183.801 39.0591 186.721 36.2198 190.209 36.2198C193.698 36.2198 196.618 39.1402 196.618 42.6284C196.618 46.1166 193.86 48.9559 190.29 48.9559Z" fill="white"/>
<path d="M190.29 52.5252C184.774 52.5252 180.231 47.9824 180.231 42.4661C180.231 36.9499 184.774 32.4071 190.29 32.4071C193.049 32.4071 195.807 33.6239 197.673 35.652C197.916 35.8953 197.916 36.3009 197.673 36.5443C197.429 36.7876 197.024 36.7876 196.78 36.5443C195.077 34.7596 192.724 33.705 190.29 33.705C185.423 33.705 181.448 37.68 181.448 42.5473C181.448 47.4146 185.423 51.3895 190.29 51.3895C195.158 51.3895 199.133 47.4146 199.133 42.5473C199.133 41.4116 198.889 40.357 198.484 39.3024C198.322 38.9779 198.484 38.6535 198.808 38.4912C199.133 38.329 199.457 38.4912 199.619 38.8157C200.106 40.0325 200.35 41.2493 200.35 42.5473C200.35 48.0635 195.888 52.5252 190.29 52.5252Z" fill="white"/>
<path d="M130.91 68.6684C118.255 65.9102 113.144 71.9132 108.601 90.4089C104.058 108.905 95.9462 119.613 95.9462 119.613C95.9462 119.613 132.775 129.996 148.432 127.725C148.351 127.806 157.761 74.5091 130.91 68.6684Z" fill="#13C8A4"/>
<path d="M143.078 128.779C125.961 128.779 97.0007 120.667 95.7028 120.262L94.8104 120.018L95.3783 119.288C95.4594 119.207 103.49 108.418 107.952 90.2467C112.738 70.6964 118.336 65.2613 130.991 68.0194C142.266 70.4531 148.918 81.6479 150.297 100.306C151.271 114.259 149 127.725 148.918 127.806L148.837 128.212L148.432 128.293C146.809 128.698 145.025 128.779 143.078 128.779ZM96.8385 119.369C102.355 120.83 133.586 129.104 147.783 127.319C148.594 122.209 155.408 74.6714 130.747 69.3174C118.822 66.7215 113.793 71.6699 109.169 90.6523C105.275 106.309 98.7043 116.611 96.8385 119.369Z" fill="#13C8A4"/>
<path d="M120.769 70.7777L122.067 64.4502L139.346 66.3971L137.318 74.1848L120.769 70.7777Z" fill="#13C8A4"/>
<path d="M137.724 74.9147L120.12 71.2643L121.662 63.72L140.157 65.8292L137.724 74.9147ZM121.499 70.3719L136.831 73.5357L138.535 66.9648L122.554 65.1801L121.499 70.3719Z" fill="#13C8A4"/>
<path d="M197.916 58.0415C197.673 53.9044 194.59 53.1743 194.59 53.1743C194.347 50.7406 190.858 50.0106 190.858 50.0106C191.832 45.3866 193.292 43.8453 192.562 42.4662C191.426 40.2759 189.398 41.8984 187.127 46.9279C186.883 47.4957 186.64 48.0636 186.397 48.6315C185.829 48.2259 185.099 48.307 184.125 49.4427C181.854 52.2819 180.637 55.2834 181.611 62.0976C181.367 62.6655 181.124 63.1522 180.799 63.639L191.751 77.9975C191.751 77.9975 194.265 76.4561 194.914 71.3455C195.32 68.5062 195.807 64.369 196.212 62.2599C198.565 62.5844 197.997 60.1507 197.916 58.0415Z" fill="white"/>
<path d="M191.67 78.7275L180.069 63.6389L180.232 63.3144C180.475 62.9088 180.718 62.5032 180.881 62.0165C179.907 55.1212 181.124 52.0386 183.558 49.0371C184.45 47.9014 185.342 47.7391 185.91 47.8203C186.072 47.4146 186.235 47.009 186.397 46.6845C188.181 42.8718 189.723 41.006 191.183 40.9249C191.67 40.9249 192.4 41.1683 192.968 42.2229C193.454 43.2774 193.13 44.2509 192.562 45.7922C192.238 46.7657 191.751 47.9825 191.426 49.686C192.481 50.0105 194.59 50.9029 194.996 52.8498C195.888 53.2554 198.159 54.4722 198.322 58.1227C198.322 58.4472 198.403 58.6905 198.403 59.015C198.484 60.3941 198.646 61.7731 197.835 62.5032C197.51 62.8277 197.105 62.9088 196.618 62.9088C196.294 64.5313 195.969 66.9649 195.726 69.0741C195.645 69.8853 195.482 70.6965 195.401 71.4266C194.671 76.7806 192.075 78.4841 191.913 78.5653L191.67 78.7275ZM181.53 63.4767L191.832 77.024C192.481 76.375 193.86 74.5903 194.347 71.1832C194.428 70.4531 194.509 69.723 194.671 68.9118C194.996 66.4782 195.32 63.6389 195.726 62.0976L195.888 61.5297L196.456 61.6109C196.699 61.692 197.105 61.692 197.267 61.5297C197.592 61.2053 197.51 59.9885 197.429 59.015C197.429 58.6905 197.348 58.3661 197.348 58.1227C197.186 54.5533 194.59 53.8232 194.509 53.8232L194.103 53.7421L194.022 53.3365C193.86 51.3896 190.777 50.7406 190.777 50.6595L190.21 50.4972L190.291 49.9294C190.696 47.9014 191.264 46.4412 191.589 45.3055C192.075 43.9264 192.319 43.2775 191.994 42.7096C191.751 42.304 191.589 42.0606 191.345 42.0606C191.102 42.0606 189.885 42.304 187.614 47.0901C187.37 47.658 187.127 48.2259 186.884 48.7937L186.64 49.4427L185.991 49.0371C185.829 48.956 185.423 48.6315 184.531 49.686C182.341 52.4442 181.205 55.2834 182.178 61.8543V62.0165L182.097 62.1788C181.935 62.7466 181.773 63.1522 181.53 63.4767Z" fill="black"/>
<path d="M181.124 62.99C176.824 71.5889 174.066 74.7526 168.956 76.2128C161.249 78.4842 142.835 68.344 131.315 70.2098L128.557 93.8161C128.557 93.8161 145.268 104.686 164.575 103.145C181.286 101.766 192.4 84.6494 194.428 76.2128C192.4 70.6154 185.748 66.0726 181.124 62.99Z" fill="#13C8A4"/>
<path d="M160.762 103.956C143.159 103.956 128.395 94.465 128.233 94.3839L127.908 94.1406L130.747 69.723L131.234 69.6419C137.318 68.5873 145.106 70.8587 152.569 72.9679C159.059 74.8337 165.224 76.6184 168.793 75.5638C173.661 74.1847 176.338 71.2643 180.637 62.6654L180.961 62.0165L181.529 62.4221C186.072 65.5047 192.967 70.1286 195.077 75.9694L195.158 76.1316L195.077 76.2938C192.967 84.8927 181.61 102.334 164.737 103.713C163.277 103.875 161.979 103.956 160.762 103.956ZM129.206 93.4916C131.559 94.9518 147.053 103.956 164.494 102.496C180.718 101.198 191.67 84.5682 193.779 76.2127C191.832 71.021 185.748 66.8027 181.367 63.8012C177.149 72.2378 174.228 75.2393 169.118 76.6994C165.224 77.8351 158.896 75.9693 152.163 74.1035C145.349 72.1566 137.643 69.8853 131.802 70.6965L129.206 93.4916Z" fill="#13C8A4"/>
<path d="M146.566 101.604C146.485 101.604 146.404 101.604 146.323 101.523C146.323 101.523 143.484 100.306 140.725 100.306C140.401 100.306 140.158 100.062 140.076 99.738C140.076 99.4135 140.32 99.089 140.725 99.089C143.727 99.089 146.647 100.306 146.809 100.387C147.134 100.549 147.296 100.874 147.134 101.198C147.053 101.441 146.809 101.604 146.566 101.604Z" fill="black"/>
<path d="M190.209 50.7406L189.642 52.363C189.479 52.8498 190.209 53.0931 190.453 52.6064C190.615 52.0385 190.858 51.5518 191.021 50.984C191.183 50.4161 190.372 50.2539 190.209 50.7406Z" fill="black"/>
<path d="M197.186 58.2848C197.105 57.798 196.293 57.9603 196.375 58.5282C196.456 59.1771 196.375 59.8261 196.131 60.4751C195.969 60.9618 196.699 61.2051 196.942 60.7184C197.267 59.8261 197.348 59.096 197.186 58.2848Z" fill="black"/>
<path d="M185.748 49.7671C184.774 51.6329 184.125 53.5798 183.801 55.689C183.72 56.1757 184.531 56.4191 184.612 55.9323C184.936 53.9043 185.504 52.0385 186.478 50.1727C186.64 49.686 185.991 49.2804 185.748 49.7671Z" fill="black"/>
<path d="M194.103 53.6609C193.941 53.9854 193.86 54.391 193.698 54.7155C193.535 55.2022 194.265 55.4456 194.509 54.9589C194.671 54.6344 194.752 54.2288 194.914 53.9043C195.077 53.4176 194.265 53.1742 194.103 53.6609Z" fill="black"/>
<path d="M82.6713 219.024C83.5172 223.485 85.0553 226.638 86.8241 229.022C86.9779 229.252 87.1317 229.406 87.2855 229.637C87.67 230.098 88.0545 230.483 88.4391 230.867C88.6698 231.098 88.8236 231.252 89.0543 231.406C91.1307 233.251 93.3609 234.328 95.2835 235.174C100.128 237.25 100.359 242.557 100.359 242.557L62.3688 242.326C62.8302 236.02 62.8302 224.1 62.8302 224.1C70.7513 221.716 74.5964 220.255 82.6713 219.024Z" fill="black"/>
<path d="M86.9009 228.945C87.0548 229.176 87.2086 229.329 87.3624 229.56C85.8243 230.252 84.2863 231.021 82.7482 231.713C82.2868 231.944 81.9022 231.252 82.3637 231.098C83.8248 230.406 85.3629 229.714 86.9009 228.945Z" fill="white"/>
<path d="M88.516 230.79C88.7467 231.021 88.9005 231.175 89.1312 231.329C87.4393 232.175 85.6705 232.944 83.9787 233.79C83.5172 234.02 83.1327 233.328 83.5942 233.174C85.2091 232.329 86.901 231.56 88.516 230.79Z" fill="white"/>
<path d="M29.9924 215.487C26.4548 218.332 24.3784 221.178 23.148 223.869C23.0711 224.1 22.9173 224.331 22.8404 224.561C22.6096 225.1 22.4558 225.638 22.302 226.176C22.2251 226.407 22.1482 226.715 22.0713 226.945C21.4561 229.637 21.533 232.175 21.6868 234.251C22.0713 239.481 17.534 242.172 17.534 242.172L0 208.488C5.30634 204.797 10.382 201.336 14.4579 197.26C20.1487 203.105 25.0705 208.873 29.9924 215.487Z" fill="black"/>
<path d="M86.5166 136.507C86.5166 136.507 77.3651 132.662 69.8285 131.662C70.2899 125.048 70.4438 120.665 70.4438 120.665L46.1422 122.28C43.5275 137.276 42.4509 159.04 31.3768 178.189C26.378 186.879 17.7649 193.8 8.76716 201.567C13.7659 208.412 21.7639 217.409 26.8395 224.254C28.3007 221.87 49.9874 210.411 61.0615 180.957C60.7539 204.566 59.908 228.714 59.908 228.714L87.4394 226.945C87.4394 226.945 91.2077 177.035 86.5166 136.507Z" fill="white"/>
<path d="M59.2928 229.329V228.714C59.2928 228.483 60.0618 206.489 60.4463 184.11C51.3717 205.951 36.6062 217.256 30.2232 222.177C28.8389 223.254 27.6085 224.177 27.3778 224.561L26.9163 225.33L26.378 224.638C23.994 221.408 20.841 217.64 17.8417 214.026C14.458 209.873 10.9204 205.643 8.2288 201.952L7.92117 201.49L8.30568 201.106C9.22853 200.337 10.1514 199.491 11.0742 198.722C18.9184 191.954 26.3011 185.571 30.7615 177.881C39.6823 162.423 42.0663 145.274 44.0658 131.431C44.5272 128.124 44.9887 124.971 45.4501 122.126L45.527 121.664L70.9052 119.973V120.588C70.9052 120.665 70.7514 124.818 70.2899 131.047C77.7496 132.123 86.5166 135.815 86.5935 135.892L86.9011 136.045L86.978 136.353C91.5922 176.42 87.9008 226.33 87.9008 226.868V227.407L59.2928 229.329ZM61.6767 177.65L61.5999 180.957C61.2922 202.182 60.6001 224.1 60.4463 228.099L86.8242 226.407C87.2087 221.101 90.2079 174.728 85.9013 136.968C84.2095 136.276 76.2884 133.123 69.6747 132.277L69.1364 132.2L69.2133 131.662C69.5978 126.586 69.7516 122.741 69.8285 121.357L46.6037 122.895C46.1422 125.663 45.7577 128.586 45.2963 131.739C43.2968 145.658 40.9128 162.962 31.9151 178.573C27.3778 186.417 19.9182 192.877 11.9971 199.722C11.2281 200.414 10.459 201.106 9.61305 201.721C12.2278 205.259 15.6115 209.334 18.8415 213.257C21.6869 216.717 24.6093 220.255 26.9933 223.331C27.5316 222.869 28.3775 222.177 29.608 221.255C36.2217 216.179 51.8331 204.182 60.677 180.726L61.6767 177.65Z" fill="black"/>
<path d="M23.148 223.869C23.0711 224.1 22.9173 224.331 22.8404 224.561C21.4561 223.562 20.1488 222.485 18.7645 221.485C18.38 221.178 18.7645 220.485 19.149 220.793C20.4564 221.87 21.7637 222.869 23.148 223.869Z" fill="white"/>
<path d="M22.302 226.176C22.2251 226.407 22.1482 226.715 22.0713 226.945C20.5333 225.792 18.9952 224.715 17.534 223.562C17.1495 223.254 17.534 222.562 17.9185 222.869C19.3797 223.946 20.8409 225.023 22.302 226.176Z" fill="white"/>
<path d="M62.8303 177.189C62.7534 177.189 62.6765 177.189 62.5996 177.112C62.292 177.035 62.1382 176.65 62.292 176.343C67.7521 162.193 69.8285 145.735 69.8285 145.581L69.9055 145.12H70.3669C70.4438 145.12 74.6735 144.889 77.5189 144.12C77.8265 144.043 78.1341 144.197 78.211 144.505C78.2879 144.812 78.1341 145.12 77.8265 145.197C75.4425 145.812 72.1357 146.12 70.9052 146.197C70.5207 149.042 68.3674 163.808 63.3687 176.727C63.2149 177.035 63.061 177.189 62.8303 177.189Z" fill="black"/>
<path d="M116.586 68.9087C112.356 72.9845 105.819 80.5211 99.5901 82.982C91.8228 86.0581 78.134 69.2932 68.4441 70.2929L70.9051 87.1348C70.9051 87.1348 79.0568 103.977 94.1299 107.283C109.203 110.59 124.584 84.2125 124.661 84.1355C122.738 79.5982 120.2 71.9079 116.586 68.9087Z" fill="black"/>
<path d="M61.7535 68.6009L60.5231 71.9077L74.9809 73.5996L75.6731 66.8321L61.7535 68.6009Z" fill="black"/>
<path d="M73.1352 72.3692C64.9835 66.0631 51.2177 74.138 47.1418 86.2887C44.0657 95.5172 39.6053 140.736 39.6053 140.736L89.0542 140.044C89.0542 140.044 85.0553 91.2875 79.2875 83.0588C73.5198 74.8301 75.9038 74.4456 73.1352 72.3692Z" fill="black"/>
<path d="M83.9786 98.5932C83.7479 98.5932 83.4403 98.4394 83.4403 98.1318C83.4403 98.0549 82.4405 93.5176 80.3641 86.4425C80.2872 86.1349 80.441 85.8272 80.7487 85.7503C81.0563 85.6734 81.3639 85.8272 81.4408 86.1349C83.5941 93.2869 84.5169 97.8242 84.5169 97.9011C84.5938 98.2087 84.3631 98.5163 84.0555 98.5932C84.0555 98.5932 83.9786 98.5932 83.9786 98.5932Z" fill="white"/>
<path d="M107.127 77.5988C111.972 68.3704 117.509 67.6013 120.585 67.7551C123.661 67.909 122.892 71.7541 122.892 71.7541L107.127 77.5988Z" fill="white"/>
<path d="M105.896 78.6755L106.588 77.3681C110.28 70.3699 114.971 66.9861 120.585 67.2168C121.508 67.2937 122.277 67.6014 122.815 68.2935C123.892 69.6778 123.43 71.831 123.43 71.9079L123.353 72.2156L105.896 78.6755ZM120.046 68.2935C115.432 68.2935 111.587 70.9851 108.357 76.5221L122.353 71.2927C122.43 70.6775 122.43 69.6008 121.892 68.9087C121.584 68.5242 121.123 68.2935 120.508 68.2935C120.431 68.2935 120.2 68.2935 120.046 68.2935Z" fill="black"/>
<path d="M127.352 73.5998C127.352 73.5998 128.89 69.6777 124.661 70.216C120.431 70.7544 111.741 70.5236 103.282 80.9825C102.589 81.8285 101.82 82.7513 100.974 83.751C105.589 87.8269 109.818 92.2104 114.048 96.6708C114.894 94.8251 115.509 93.2102 116.048 92.1335C120.123 84.0587 130.044 88.2115 128.506 79.4445C128.506 79.5214 131.121 74.1381 127.352 73.5998Z" fill="white"/>
<path d="M114.279 97.7475L113.663 97.1322C110.203 93.4409 105.589 88.5959 100.59 84.2124L100.205 83.8279L100.59 83.3665C101.436 82.3668 102.282 81.367 102.897 80.598C110.587 71.062 118.431 70.2929 123.123 69.8315C123.661 69.7546 124.199 69.7546 124.661 69.6777C126.122 69.447 127.198 69.7546 127.814 70.5236C128.506 71.3695 128.352 72.5231 128.198 73.2152C128.89 73.4459 129.352 73.8305 129.659 74.4457C130.582 76.2145 129.506 78.9061 129.198 79.6751C130.044 84.7508 127.045 85.8274 123.969 86.981C121.431 87.9038 118.508 89.0574 116.74 92.518C116.355 93.2102 115.971 94.133 115.509 95.2097C115.278 95.748 114.971 96.3632 114.74 97.0553L114.279 97.7475ZM101.82 83.6741C106.358 87.75 110.587 92.1335 113.894 95.6711C114.048 95.2865 114.202 94.9789 114.356 94.6713C114.817 93.5947 115.201 92.6718 115.586 91.9028C117.585 88.0576 120.815 86.8272 123.507 85.8274C126.66 84.6739 128.737 83.9048 127.967 79.5982V79.4444L128.044 79.2906C128.429 78.5216 129.275 76.1376 128.583 74.984C128.352 74.5226 127.967 74.2919 127.275 74.215L126.583 74.1381L126.814 73.4459C126.968 73.0614 127.275 71.831 126.814 71.2926C126.429 70.7543 125.507 70.7543 124.738 70.9081C124.276 70.985 123.738 71.0619 123.199 71.0619C118.662 71.5234 111.126 72.2924 103.743 81.4439C103.205 82.0591 102.512 82.8282 101.82 83.6741Z" fill="black"/>
<path d="M102.128 82.4437C95.668 90.2878 81.8254 105.053 71.2896 98.0551C59.9848 90.5185 58.4467 82.3668 58.4467 82.3668L50.0643 82.5975C42.9122 98.0551 48.2955 123.126 79.4414 121.126C103.82 119.511 111.203 103.823 114.74 95.5942C110.664 90.98 106.358 86.7503 102.128 82.4437Z" fill="black"/>
<path d="M79.0568 99.1318C68.521 99.1318 61.5997 91.5952 59.9848 85.5199C59.9079 85.2122 60.0617 84.9047 60.3693 84.8278C60.6769 84.7509 60.9845 84.9047 61.0614 85.2123C62.7533 91.7491 71.2127 100.132 83.8248 97.4399C92.6688 95.5173 99.7439 84.2894 99.8208 84.2125C99.9746 83.9049 100.359 83.828 100.59 84.0587C100.897 84.2125 100.974 84.597 100.744 84.8278C100.436 85.2892 93.3609 96.594 83.9787 98.5935C82.2868 98.978 80.5949 99.1318 79.0568 99.1318Z" fill="white"/>
<path d="M127.275 79.2906C124.122 79.3676 121.2 80.1366 118.355 81.5978C117.893 81.8285 118.278 82.5206 118.739 82.2899C121.431 80.9056 124.199 80.1366 127.275 80.0597C127.737 80.0597 127.737 79.2906 127.275 79.2906Z" fill="black"/>
<path d="M125.199 74.138C122.738 74.2918 120.354 74.8302 118.047 75.8299C117.585 75.9837 117.816 76.7527 118.278 76.5989C120.508 75.6761 122.815 75.1377 125.199 74.9839C125.66 74.8301 125.737 74.0611 125.199 74.138Z" fill="black"/>
<path d="M81.287 121.203C67.9058 121.203 56.8317 111.667 51.756 101.977C51.6022 101.67 51.7561 101.362 51.9868 101.208C52.2944 101.054 52.602 101.208 52.7558 101.439C58.0622 111.59 70.2898 121.664 84.7477 119.819C85.0553 119.742 85.3629 119.973 85.3629 120.28C85.4398 120.588 85.2091 120.895 84.9015 120.895C83.671 121.126 82.4406 121.203 81.287 121.203Z" fill="white"/>
<path d="M77.5956 53.9125C75.0578 48.2986 68.9055 45.607 63.9068 47.9141C58.908 50.2212 56.8316 56.6041 59.3694 62.2181C59.3694 62.2181 59.3694 62.2181 59.3694 62.295C58.8311 62.5257 58.3697 62.8333 58.0621 63.1409C55.5243 65.2942 56.0626 68.4473 58.5235 69.5239C60.6768 70.4468 63.676 70.2929 65.5217 68.0627C67.9826 68.9856 70.6742 69.0625 73.0583 68.2166C80.441 65.6018 80.1334 59.5265 77.5956 53.9125Z" fill="white"/>
<path d="M61.0614 70.6005C60.0617 70.6005 59.0619 70.3698 58.216 69.9853C56.9086 69.37 56.0627 68.2934 55.832 66.9091C55.6013 65.3711 56.2934 63.833 57.6776 62.6026C57.9852 62.3718 58.2928 62.1411 58.6774 61.9104C56.2934 56.0657 58.4466 49.6058 63.6761 47.2987C66.2908 46.1452 69.2132 46.1452 71.9048 47.3757C74.5964 48.6061 76.8266 50.7594 78.134 53.6048C79.9797 57.6807 80.2873 61.0645 79.2106 63.7561C78.2878 65.9863 76.2883 67.6782 73.366 68.6779C70.982 69.5239 68.2903 69.5239 65.7525 68.6779C64.3682 70.0622 62.6764 70.6005 61.0614 70.6005ZM67.6751 47.6833C66.4446 47.6833 65.2911 47.914 64.1375 48.4523C59.3695 50.6056 57.5238 56.681 59.9078 61.9873L60.1385 62.4487L59.6771 62.7564C59.2157 62.9871 58.7543 63.2947 58.4467 63.5254C57.37 64.4482 56.8317 65.6018 57.0624 66.7554C57.2162 67.7551 57.8315 68.5241 58.7543 68.9086C60.6 69.7546 63.3685 69.6777 65.1373 67.6013L65.368 67.2936L65.7525 67.4475C68.0596 68.3703 70.5974 68.4472 72.9045 67.6013C75.5192 66.6784 77.288 65.2173 78.134 63.2947C79.1337 60.9107 78.8261 57.8346 77.1342 54.0663C75.9807 51.4516 73.9812 49.4521 71.5203 48.3754C70.2129 47.914 68.9055 47.6833 67.6751 47.6833Z" fill="black"/>
<path d="M70.4131 58.0056C70.8377 57.993 71.1717 57.6387 71.1591 57.2141C71.1465 56.7895 70.7922 56.4556 70.3676 56.4681C69.9431 56.4807 69.6091 56.835 69.6216 57.2596C69.6342 57.6842 69.9886 58.0181 70.4131 58.0056Z" fill="black"/>
<path d="M76.8265 57.9114C75.9037 56.4503 74.8271 55.1429 73.5197 53.9893C73.1352 53.6817 72.5969 54.2201 72.9814 54.5277C74.2118 55.6043 75.2885 56.9117 76.2113 58.296C76.442 58.7574 77.0573 58.296 76.8265 57.9114Z" fill="black"/>
<path d="M70.2129 49.3751C68.521 51.2208 60.1385 55.3736 63.2916 59.5264C64.0606 60.603 64.9835 60.9876 64.1375 62.0642C63.1378 62.987 62.215 61.8335 62.215 61.8335C60.6769 62.218 58.985 62.7563 58.1391 63.5254C54.0632 59.9878 54.0632 55.5274 55.9089 54.0663C55.9089 54.0663 66.6754 38.6086 71.6741 42.6845C76.0576 46.3759 70.2129 49.3751 70.2129 49.3751Z" fill="black"/>
<path d="M63.3685 64.679C61.7535 63.91 59.754 64.3714 58.6005 65.7556C58.2928 66.1401 58.8312 66.6785 59.1388 66.294C60.0616 65.1404 61.5997 64.679 62.984 65.3711C63.4454 65.6018 63.8299 64.9097 63.3685 64.679Z" fill="black"/>
<path d="M217.6 44.5876C217.6 46.709 215.984 48.1421 213.382 48.1421C212.026 48.1421 210.725 47.7324 210 47.0252L210.799 45.4807C211.338 46.0575 212.193 46.3738 213.14 46.3738C214.552 46.3738 215.408 45.6478 215.408 44.5876C215.408 43.5273 214.571 42.857 213.289 42.857C212.713 42.857 212.23 42.9685 211.784 43.2102L211.208 42.1499L214.255 38.6511H210.484V36.9017H217.006V38.2234L214.144 41.2756C216.244 41.3125 217.6 42.6522 217.6 44.5876ZM218.288 42.4105C218.288 39.0051 220.629 36.7534 224.16 36.7534C225.963 36.7534 227.431 37.3491 228.527 38.5397L227.189 39.8794C226.557 39.0797 225.498 38.5028 224.179 38.5028C221.949 38.5028 220.462 40.0842 220.462 42.4293C220.462 44.8104 221.967 46.3927 224.197 46.3927C225.702 46.3927 226.724 45.7224 227.431 44.6433L228.861 45.9084C227.802 47.3604 226.186 48.1421 224.16 48.1421C220.648 48.1421 218.288 45.8527 218.288 42.4105ZM229.065 43.955C229.065 41.4428 230.794 39.7679 233.396 39.7679C235.979 39.7679 237.706 41.4428 237.706 43.955C237.706 46.4672 235.979 48.1601 233.396 48.1601C230.813 48.1421 229.065 46.4672 229.065 43.955ZM235.588 43.955C235.588 42.485 234.696 41.5173 233.396 41.5173C232.057 41.5173 231.184 42.485 231.184 43.955C231.184 45.425 232.075 46.3927 233.396 46.3927C234.715 46.3927 235.588 45.425 235.588 43.955ZM251.439 42.9127V47.9929H249.395V43.2479C249.395 42.2056 248.745 41.5173 247.741 41.5173C246.756 41.5173 246.087 42.2056 246.087 43.2479V47.9929H244.043V43.2479C244.043 42.2056 243.393 41.5173 242.389 41.5173C241.404 41.5173 240.735 42.2056 240.735 43.2479V47.9929H238.691V39.9171H240.661L240.698 40.8848C241.274 40.1588 242.129 39.7679 243.114 39.7679C244.173 39.7679 245.028 40.2145 245.548 40.9774C246.124 40.1776 247.072 39.7679 248.15 39.7679C250.12 39.7679 251.439 41.0331 251.439 42.9127ZM265.524 42.9127V47.9929H263.481V43.2479C263.481 42.2056 262.828 41.5173 261.823 41.5173C260.843 41.5173 260.172 42.2056 260.172 43.2479V47.9929H258.128V43.2479C258.128 42.2056 257.478 41.5173 256.475 41.5173C255.49 41.5173 254.821 42.2056 254.821 43.2479V47.9929H252.777V39.9171H254.746L254.783 40.8848C255.36 40.1588 256.214 39.7679 257.2 39.7679C258.258 39.7679 259.113 40.2145 259.634 40.9774C260.21 40.1776 261.153 39.7679 262.231 39.7679C264.225 39.7679 265.524 41.0331 265.524 42.9127ZM273.57 42.9127V47.9929H271.617L271.585 46.8392C271.046 47.6766 270.114 48.1421 269.126 48.1421C267.46 48.1421 266.324 47.1367 266.324 45.6298C266.324 44.0664 267.696 43.043 269.763 43.043C270.319 43.043 270.931 43.0987 271.544 43.229V43.0799C271.544 42.0008 270.817 41.3494 269.592 41.3494C268.832 41.3494 268.219 41.573 267.721 42.0008L266.822 40.8102C267.696 40.1031 268.701 39.7679 270.114 39.7679C272.181 39.7679 273.57 41.015 273.57 42.9127ZM271.528 44.6253C271.026 44.517 270.514 44.4607 270 44.4573C269.036 44.4573 268.423 44.9038 268.423 45.5921C268.423 46.2435 268.848 46.6901 269.69 46.6901C270.637 46.6901 271.528 45.9461 271.528 44.6253ZM274.575 47.1932L275.334 45.965C276.102 46.4115 276.862 46.5598 277.654 46.5598C278.406 46.5598 278.92 46.2435 278.92 45.7601C278.92 45.2758 278.349 44.9973 277.548 44.7924L276.878 44.6064C275.522 44.2524 274.591 43.7133 274.591 42.4473C274.591 40.8471 275.857 39.7868 277.769 39.7868C278.978 39.7868 280.015 40.0473 280.816 40.5865L279.966 41.9262C279.337 41.5827 278.632 41.4038 277.916 41.4059C277.197 41.4059 276.674 41.6845 276.674 42.131C276.674 42.6153 277.172 42.8382 277.883 43.0242L278.553 43.211C279.925 43.5642 281.02 44.1967 281.02 45.6298C281.02 47.1555 279.68 48.1789 277.654 48.1789C276.396 48.1421 275.318 47.8258 274.575 47.1932Z" fill="white"/>
</svg>
