<svg width="466" height="212" viewBox="0 0 466 212" fill="none" xmlns="http://www.w3.org/2000/svg">
<g clip-path="url(#clip0)">
<path d="M5.248 24.016V34H3.904V24.016H0.352V22.832H8.8V24.016H5.248ZM16.5894 34L15.4694 30.704H10.9574L9.83738 34H8.47738L12.3814 22.832H14.0934L17.9974 34H16.5894ZM13.2454 24.08H13.1654L11.2774 29.52H15.1334L13.2454 24.08ZM22.7754 28.512L21.1914 30.272V34H19.8474V22.832H21.1914V28.768H21.2394L22.8394 26.832L26.2154 22.832H27.8634L23.7034 27.616L28.1514 34H26.4874L22.7754 28.512ZM29.988 34V22.832H36.804V24.016H31.332V27.76H36.484V28.944H31.332V32.816H36.804V34H29.988ZM43.0974 34V22.832H47.5454C48.548 22.832 49.316 23.12 49.8494 23.696C50.3934 24.2613 50.6654 25.04 50.6654 26.032C50.6654 27.024 50.3934 27.808 49.8494 28.384C49.316 28.9493 48.548 29.232 47.5454 29.232H44.4414V34H43.0974ZM44.4414 28.048H47.5454C48.0787 28.048 48.4894 27.9093 48.7774 27.632C49.076 27.3547 49.2254 26.96 49.2254 26.448V25.616C49.2254 25.104 49.076 24.7093 48.7774 24.432C48.4894 24.1547 48.0787 24.016 47.5454 24.016H44.4414V28.048ZM54.1445 34H52.8005V22.832H57.2485C58.2298 22.832 58.9925 23.104 59.5365 23.648C60.0912 24.192 60.3685 24.976 60.3685 26C60.3685 26.8213 60.1765 27.4987 59.7925 28.032C59.4192 28.5547 58.8645 28.9013 58.1285 29.072L60.6885 34H59.1685L56.7525 29.2H54.1445V34ZM57.2485 28.048C57.7818 28.048 58.1925 27.9093 58.4805 27.632C58.7792 27.3547 58.9285 26.96 58.9285 26.448V25.616C58.9285 25.104 58.7792 24.7093 58.4805 24.432C58.1925 24.1547 57.7818 24.016 57.2485 24.016H54.1445V28.048H57.2485ZM67.0546 34.192C66.3293 34.192 65.6733 34.0693 65.0866 33.824C64.5106 33.568 64.0146 33.2 63.5986 32.72C63.1933 32.2293 62.8786 31.6267 62.6546 30.912C62.4306 30.1867 62.3186 29.3547 62.3186 28.416C62.3186 27.4773 62.4306 26.6507 62.6546 25.936C62.8786 25.2213 63.1933 24.6187 63.5986 24.128C64.0146 23.6373 64.5106 23.2693 65.0866 23.024C65.6733 22.768 66.3293 22.64 67.0546 22.64C67.7693 22.64 68.42 22.768 69.0066 23.024C69.5933 23.2693 70.0893 23.6373 70.4946 24.128C70.9106 24.6187 71.2306 25.2213 71.4546 25.936C71.6786 26.6507 71.7906 27.4773 71.7906 28.416C71.7906 29.3547 71.6786 30.1867 71.4546 30.912C71.2306 31.6267 70.9106 32.2293 70.4946 32.72C70.0893 33.2 69.5933 33.568 69.0066 33.824C68.42 34.0693 67.7693 34.192 67.0546 34.192ZM67.0546 32.992C67.5346 32.992 67.9773 32.9067 68.3826 32.736C68.788 32.5653 69.1346 32.32 69.4226 32C69.7213 31.68 69.9506 31.296 70.1106 30.848C70.2706 30.4 70.3506 29.8987 70.3506 29.344V27.488C70.3506 26.9333 70.2706 26.432 70.1106 25.984C69.9506 25.536 69.7213 25.152 69.4226 24.832C69.1346 24.512 68.788 24.2667 68.3826 24.096C67.9773 23.9253 67.5346 23.84 67.0546 23.84C66.5746 23.84 66.132 23.9253 65.7266 24.096C65.3213 24.2667 64.9693 24.512 64.6706 24.832C64.3826 25.152 64.1586 25.536 63.9986 25.984C63.8386 26.432 63.7586 26.9333 63.7586 27.488V29.344C63.7586 29.8987 63.8386 30.4 63.9986 30.848C64.1586 31.296 64.3826 31.68 64.6706 32C64.9693 32.32 65.3213 32.5653 65.7266 32.736C66.132 32.9067 66.5746 32.992 67.0546 32.992ZM74.2068 34V22.832H80.8628V24.016H75.5508V27.76H80.3988V28.944H75.5508V34H74.2068ZM82.6163 34V32.88H84.1843V23.952H82.6163V22.832H87.0963V23.952H85.5283V32.88H87.0963V34H82.6163ZM93.2011 24.016V34H91.8571V24.016H88.3051V22.832H96.7531V24.016H93.2011ZM109.419 34H102.091V32.624L105.739 29.264C106.261 28.784 106.699 28.2773 107.051 27.744C107.403 27.2 107.579 26.656 107.579 26.112V25.92C107.579 25.3013 107.408 24.8 107.067 24.416C106.725 24.032 106.208 23.84 105.515 23.84C105.173 23.84 104.875 23.888 104.619 23.984C104.363 24.08 104.139 24.2133 103.947 24.384C103.765 24.5547 103.611 24.7573 103.483 24.992C103.365 25.216 103.269 25.4613 103.195 25.728L101.995 25.264C102.101 24.9333 102.245 24.6133 102.427 24.304C102.619 23.984 102.853 23.7013 103.131 23.456C103.419 23.2107 103.76 23.0133 104.155 22.864C104.56 22.7147 105.035 22.64 105.579 22.64C106.123 22.64 106.608 22.72 107.035 22.88C107.461 23.04 107.819 23.264 108.107 23.552C108.395 23.84 108.613 24.1813 108.763 24.576C108.923 24.9707 109.003 25.408 109.003 25.888C109.003 26.3253 108.939 26.7307 108.811 27.104C108.693 27.4773 108.528 27.8347 108.315 28.176C108.101 28.5067 107.84 28.832 107.531 29.152C107.232 29.472 106.907 29.792 106.555 30.112L103.547 32.816H109.419V34Z" fill="#9CA5AB"/>
<line y1="-0.5" x2="301" y2="-0.5" transform="matrix(1 8.67529e-08 8.67529e-08 -1 165 185)" stroke="#9CA5AB"/>
<path d="M1.488 192V180.832H8.304V182.016H2.832V185.76H7.984V186.944H2.832V190.816H8.304V192H1.488ZM18.7521 192H17.1361L14.2081 187.312H14.1761L11.2481 192H9.71213L13.3601 186.32L9.80813 180.832H11.4241L14.2241 185.28H14.2561L17.1201 180.832H18.6561L15.0721 186.272L18.7521 192ZM24.3886 182.016V192H23.0446V182.016H19.4926V180.832H27.9406V182.016H24.3886ZM31.1289 192H29.7849V180.832H34.2329C35.2142 180.832 35.9769 181.104 36.5209 181.648C37.0755 182.192 37.3529 182.976 37.3529 184C37.3529 184.821 37.1609 185.499 36.7769 186.032C36.4035 186.555 35.8489 186.901 35.1129 187.072L37.6729 192H36.1529L33.7369 187.2H31.1289V192ZM34.2329 186.048C34.7662 186.048 35.1769 185.909 35.4649 185.632C35.7635 185.355 35.9129 184.96 35.9129 184.448V183.616C35.9129 183.104 35.7635 182.709 35.4649 182.432C35.1769 182.155 34.7662 182.016 34.2329 182.016H31.1289V186.048H34.2329ZM47.0113 192L45.8913 188.704H41.3793L40.2593 192H38.8993L42.8033 180.832H44.5153L48.4193 192H47.0113ZM43.6673 182.08H43.5873L41.6993 187.52H45.5553L43.6673 182.08ZM58.2265 192.192C57.5012 192.192 56.8452 192.069 56.2585 191.824C55.6825 191.568 55.1865 191.2 54.7705 190.72C54.3652 190.229 54.0505 189.627 53.8265 188.912C53.6025 188.187 53.4905 187.355 53.4905 186.416C53.4905 185.477 53.6025 184.651 53.8265 183.936C54.0505 183.221 54.3652 182.619 54.7705 182.128C55.1865 181.637 55.6825 181.269 56.2585 181.024C56.8452 180.768 57.5012 180.64 58.2265 180.64C58.9412 180.64 59.5918 180.768 60.1785 181.024C60.7652 181.269 61.2612 181.637 61.6665 182.128C62.0825 182.619 62.4025 183.221 62.6265 183.936C62.8505 184.651 62.9625 185.477 62.9625 186.416C62.9625 187.355 62.8505 188.187 62.6265 188.912C62.4025 189.627 62.0825 190.229 61.6665 190.72C61.2612 191.2 60.7652 191.568 60.1785 191.824C59.5918 192.069 58.9412 192.192 58.2265 192.192ZM58.2265 190.992C58.7065 190.992 59.1492 190.907 59.5545 190.736C59.9598 190.565 60.3065 190.32 60.5945 190C60.8932 189.68 61.1225 189.296 61.2825 188.848C61.4425 188.4 61.5225 187.899 61.5225 187.344V185.488C61.5225 184.933 61.4425 184.432 61.2825 183.984C61.1225 183.536 60.8932 183.152 60.5945 182.832C60.3065 182.512 59.9598 182.267 59.5545 182.096C59.1492 181.925 58.7065 181.84 58.2265 181.84C57.7465 181.84 57.3038 181.925 56.8985 182.096C56.4932 182.267 56.1412 182.512 55.8425 182.832C55.5545 183.152 55.3305 183.536 55.1705 183.984C55.0105 184.432 54.9305 184.933 54.9305 185.488V187.344C54.9305 187.899 55.0105 188.4 55.1705 188.848C55.3305 189.296 55.5545 189.68 55.8425 190C56.1412 190.32 56.4932 190.565 56.8985 190.736C57.3038 190.907 57.7465 190.992 58.2265 190.992ZM66.7226 192H65.3786V180.832H69.8266C70.808 180.832 71.5706 181.104 72.1146 181.648C72.6693 182.192 72.9466 182.976 72.9466 184C72.9466 184.821 72.7546 185.499 72.3706 186.032C71.9973 186.555 71.4426 186.901 70.7066 187.072L73.2666 192H71.7466L69.3306 187.2H66.7226V192ZM69.8266 186.048C70.36 186.048 70.7706 185.909 71.0586 185.632C71.3573 185.355 71.5066 184.96 71.5066 184.448V183.616C71.5066 183.104 71.3573 182.709 71.0586 182.432C70.7706 182.155 70.36 182.016 69.8266 182.016H66.7226V186.048H69.8266ZM75.613 180.832H79.357C80.0503 180.832 80.6797 180.949 81.245 181.184C81.8103 181.419 82.2903 181.771 82.685 182.24C83.0903 182.699 83.3997 183.28 83.613 183.984C83.8263 184.677 83.933 185.488 83.933 186.416C83.933 187.344 83.8263 188.16 83.613 188.864C83.3997 189.557 83.0903 190.139 82.685 190.608C82.2903 191.067 81.8103 191.413 81.245 191.648C80.6797 191.883 80.0503 192 79.357 192H75.613V180.832ZM79.357 190.816C79.8157 190.816 80.237 190.741 80.621 190.592C81.005 190.432 81.3357 190.203 81.613 189.904C81.8903 189.605 82.1037 189.243 82.253 188.816C82.413 188.379 82.493 187.883 82.493 187.328V185.504C82.493 184.949 82.413 184.459 82.253 184.032C82.1037 183.595 81.8903 183.227 81.613 182.928C81.3357 182.629 81.005 182.405 80.621 182.256C80.237 182.096 79.8157 182.016 79.357 182.016H76.957V190.816H79.357ZM86.3474 192V180.832H93.1634V182.016H87.6914V185.76H92.8434V186.944H87.6914V190.816H93.1634V192H86.3474ZM97.0195 192H95.6755V180.832H100.124C101.105 180.832 101.868 181.104 102.411 181.648C102.966 182.192 103.244 182.976 103.244 184C103.244 184.821 103.052 185.499 102.668 186.032C102.294 186.555 101.74 186.901 101.004 187.072L103.564 192H102.044L99.6275 187.2H97.0195V192ZM100.124 186.048C100.657 186.048 101.068 185.909 101.356 185.632C101.654 185.355 101.804 184.96 101.804 184.448V183.616C101.804 183.104 101.654 182.709 101.356 182.432C101.068 182.155 100.657 182.016 100.124 182.016H97.0195V186.048H100.124ZM109.691 192V180.832H111.035V190.816H115.787V192H109.691ZM117.707 192V180.832H124.523V182.016H119.051V185.76H124.203V186.944H119.051V190.816H124.523V192H117.707ZM129.423 192L125.711 180.832H127.151L128.991 186.464L130.223 190.656H130.303L131.567 186.464L133.423 180.832H134.815L131.055 192H129.423ZM136.629 192V180.832H143.445V182.016H137.973V185.76H143.125V186.944H137.973V190.816H143.445V192H136.629ZM145.957 192V180.832H147.301V190.816H152.053V192H145.957Z" fill="#9CA5AB"/>
<line y1="-0.5" x2="343" y2="-0.5" transform="matrix(1 8.82884e-08 8.82884e-08 -1 123 27)" stroke="#9CA5AB"/>
<path d="M185.248 102.016V112H183.904V102.016H180.352V100.832H188.8V102.016H185.248ZM196.589 112L195.469 108.704H190.957L189.837 112H188.477L192.381 100.832H194.093L197.997 112H196.589ZM193.245 102.08H193.165L191.277 107.52H195.133L193.245 102.08ZM202.775 106.512L201.191 108.272V112H199.847V100.832H201.191V106.768H201.239L202.839 104.832L206.215 100.832H207.863L203.703 105.616L208.151 112H206.487L202.775 106.512ZM209.988 112V100.832H216.804V102.016H211.332V105.76H216.484V106.944H211.332V110.816H216.804V112H209.988ZM223.097 112V100.832H227.545C228.548 100.832 229.316 101.12 229.849 101.696C230.393 102.261 230.665 103.04 230.665 104.032C230.665 105.024 230.393 105.808 229.849 106.384C229.316 106.949 228.548 107.232 227.545 107.232H224.441V112H223.097ZM224.441 106.048H227.545C228.079 106.048 228.489 105.909 228.777 105.632C229.076 105.355 229.225 104.96 229.225 104.448V103.616C229.225 103.104 229.076 102.709 228.777 102.432C228.489 102.155 228.079 102.016 227.545 102.016H224.441V106.048ZM234.145 112H232.801V100.832H237.249C238.23 100.832 238.993 101.104 239.536 101.648C240.091 102.192 240.369 102.976 240.369 104C240.369 104.821 240.177 105.499 239.793 106.032C239.419 106.555 238.865 106.901 238.129 107.072L240.689 112H239.169L236.753 107.2H234.145V112ZM237.249 106.048C237.782 106.048 238.193 105.909 238.481 105.632C238.779 105.355 238.929 104.96 238.929 104.448V103.616C238.929 103.104 238.779 102.709 238.481 102.432C238.193 102.155 237.782 102.016 237.249 102.016H234.145V106.048H237.249ZM247.055 112.192C246.329 112.192 245.673 112.069 245.087 111.824C244.511 111.568 244.015 111.2 243.599 110.72C243.193 110.229 242.879 109.627 242.655 108.912C242.431 108.187 242.319 107.355 242.319 106.416C242.319 105.477 242.431 104.651 242.655 103.936C242.879 103.221 243.193 102.619 243.599 102.128C244.015 101.637 244.511 101.269 245.087 101.024C245.673 100.768 246.329 100.64 247.055 100.64C247.769 100.64 248.42 100.768 249.007 101.024C249.593 101.269 250.089 101.637 250.495 102.128C250.911 102.619 251.231 103.221 251.455 103.936C251.679 104.651 251.791 105.477 251.791 106.416C251.791 107.355 251.679 108.187 251.455 108.912C251.231 109.627 250.911 110.229 250.495 110.72C250.089 111.2 249.593 111.568 249.007 111.824C248.42 112.069 247.769 112.192 247.055 112.192ZM247.055 110.992C247.535 110.992 247.977 110.907 248.383 110.736C248.788 110.565 249.135 110.32 249.423 110C249.721 109.68 249.951 109.296 250.111 108.848C250.271 108.4 250.351 107.899 250.351 107.344V105.488C250.351 104.933 250.271 104.432 250.111 103.984C249.951 103.536 249.721 103.152 249.423 102.832C249.135 102.512 248.788 102.267 248.383 102.096C247.977 101.925 247.535 101.84 247.055 101.84C246.575 101.84 246.132 101.925 245.727 102.096C245.321 102.267 244.969 102.512 244.671 102.832C244.383 103.152 244.159 103.536 243.999 103.984C243.839 104.432 243.759 104.933 243.759 105.488V107.344C243.759 107.899 243.839 108.4 243.999 108.848C244.159 109.296 244.383 109.68 244.671 110C244.969 110.32 245.321 110.565 245.727 110.736C246.132 110.907 246.575 110.992 247.055 110.992ZM254.207 112V100.832H260.863V102.016H255.551V105.76H260.399V106.944H255.551V112H254.207ZM262.616 112V110.88H264.184V101.952H262.616V100.832H267.096V101.952H265.528V110.88H267.096V112H262.616ZM273.201 102.016V112H271.857V102.016H268.305V100.832H276.753V102.016H273.201ZM282.299 112V110.816H285.419V101.824H285.307L282.491 104.448L281.707 103.6L284.667 100.832H286.763V110.816H289.643V112H282.299Z" fill="#9CA5AB"/>
<line y1="-0.5" x2="163" y2="-0.5" transform="matrix(1 8.8699e-08 8.8699e-08 -1 303 105)" stroke="#9CA5AB"/>
<line y1="-0.5" x2="168" y2="-0.5" transform="matrix(1 8.74228e-08 8.74228e-08 -1 0 105)" stroke="#9CA5AB"/>
<path d="M-3.5 61.4999C19.6667 72.8333 68.3 97.6999 77.5 106.5C89 117.5 158.5 186.5 216.5 187C274.5 187.5 343.5 125.5 358 105.5C372.5 85.4999 390 35.9999 400 27.9999" stroke="#EE7D8B" stroke-width="4"/>
<circle cx="399" cy="27" r="27" fill="#13C8A4"/>
<path d="M379.312 21.832H384.48C384.939 21.832 385.349 21.9013 385.712 22.04C386.085 22.1787 386.4 22.3707 386.656 22.616C386.912 22.8613 387.104 23.1653 387.232 23.528C387.371 23.88 387.44 24.2693 387.44 24.696C387.44 25.1227 387.381 25.4853 387.264 25.784C387.157 26.072 387.008 26.312 386.816 26.504C386.635 26.696 386.421 26.84 386.176 26.936C385.941 27.032 385.696 27.0853 385.44 27.096V27.192C385.685 27.192 385.947 27.24 386.224 27.336C386.512 27.432 386.773 27.5867 387.008 27.8C387.253 28.0027 387.456 28.2693 387.616 28.6C387.776 28.92 387.856 29.32 387.856 29.8C387.856 30.248 387.781 30.6693 387.632 31.064C387.493 31.448 387.296 31.784 387.04 32.072C386.784 32.36 386.48 32.5893 386.128 32.76C385.776 32.92 385.392 33 384.976 33H379.312V21.832ZM381.424 31.208H384.368C384.773 31.208 385.088 31.1067 385.312 30.904C385.536 30.6907 385.648 30.3867 385.648 29.992V29.448C385.648 29.0533 385.536 28.7493 385.312 28.536C385.088 28.3227 384.773 28.216 384.368 28.216H381.424V31.208ZM381.424 26.488H384.032C384.416 26.488 384.715 26.3867 384.928 26.184C385.141 25.9707 385.248 25.6773 385.248 25.304V24.808C385.248 24.4347 385.141 24.1467 384.928 23.944C384.715 23.7307 384.416 23.624 384.032 23.624H381.424V26.488ZM394.785 31.608H394.705C394.631 31.8213 394.529 32.024 394.401 32.216C394.284 32.3973 394.129 32.5627 393.937 32.712C393.756 32.8613 393.532 32.9787 393.265 33.064C393.009 33.1493 392.711 33.192 392.369 33.192C391.505 33.192 390.844 32.9093 390.385 32.344C389.927 31.7787 389.697 30.9733 389.697 29.928V24.648H391.745V29.72C391.745 30.296 391.857 30.7387 392.081 31.048C392.305 31.3467 392.663 31.496 393.153 31.496C393.356 31.496 393.553 31.4693 393.745 31.416C393.948 31.3627 394.124 31.2827 394.273 31.176C394.423 31.0587 394.545 30.92 394.641 30.76C394.737 30.5893 394.785 30.392 394.785 30.168V24.648H396.833V33H394.785V31.608ZM404.32 24.648H406.24L402.88 34.488C402.773 34.7867 402.65 35.0427 402.512 35.256C402.384 35.48 402.229 35.6613 402.048 35.8C401.866 35.9387 401.648 36.04 401.392 36.104C401.136 36.168 400.837 36.2 400.496 36.2H399.264V34.568H400.768L401.152 33.4L398.16 24.648H400.192L401.648 29.064L402.192 31.176H402.288L402.864 29.064L404.32 24.648ZM418.924 33H411.18V31.048L414.684 27.976C415.281 27.4533 415.718 26.984 415.996 26.568C416.273 26.1413 416.412 25.6827 416.412 25.192V24.984C416.412 24.4933 416.252 24.12 415.932 23.864C415.612 23.5973 415.222 23.464 414.764 23.464C414.188 23.464 413.75 23.6293 413.452 23.96C413.153 24.28 412.94 24.6693 412.812 25.128L410.988 24.424C411.105 24.0507 411.27 23.6987 411.484 23.368C411.697 23.0267 411.964 22.728 412.284 22.472C412.614 22.216 412.998 22.0133 413.436 21.864C413.873 21.7147 414.374 21.64 414.94 21.64C415.526 21.64 416.049 21.7253 416.508 21.896C416.966 22.056 417.35 22.2853 417.66 22.584C417.98 22.8827 418.22 23.2347 418.38 23.64C418.55 24.0453 418.635 24.488 418.635 24.968C418.635 25.4373 418.561 25.864 418.411 26.248C418.262 26.632 418.06 27 417.804 27.352C417.548 27.6933 417.249 28.024 416.908 28.344C416.566 28.6533 416.204 28.968 415.82 29.288L413.468 31.224H418.924V33Z" fill="white"/>
<circle cx="79" cy="106" r="27" fill="#EE7D8B"/>
<path d="M62.784 113.192C61.824 113.192 61.008 113.021 60.336 112.68C59.6747 112.339 59.104 111.891 58.624 111.336L60.048 109.96C60.432 110.408 60.8587 110.749 61.328 110.984C61.808 111.219 62.336 111.336 62.912 111.336C63.5627 111.336 64.0533 111.197 64.384 110.92C64.7147 110.632 64.88 110.248 64.88 109.768C64.88 109.395 64.7733 109.091 64.56 108.856C64.3467 108.621 63.9467 108.451 63.36 108.344L62.304 108.184C60.0747 107.832 58.96 106.749 58.96 104.936C58.96 104.435 59.0507 103.981 59.232 103.576C59.424 103.171 59.696 102.824 60.048 102.536C60.4 102.248 60.8213 102.029 61.312 101.88C61.8133 101.72 62.3787 101.64 63.008 101.64C63.8507 101.64 64.5867 101.779 65.216 102.056C65.8453 102.333 66.384 102.744 66.832 103.288L65.392 104.648C65.1147 104.307 64.7787 104.029 64.384 103.816C63.9893 103.603 63.4933 103.496 62.896 103.496C62.288 103.496 61.8293 103.613 61.52 103.848C61.2213 104.072 61.072 104.392 61.072 104.808C61.072 105.235 61.1947 105.549 61.44 105.752C61.6853 105.955 62.08 106.104 62.624 106.2L63.664 106.392C64.7947 106.595 65.6267 106.957 66.16 107.48C66.704 107.992 66.976 108.712 66.976 109.64C66.976 110.173 66.88 110.659 66.688 111.096C66.5067 111.523 66.2347 111.896 65.872 112.216C65.52 112.525 65.0827 112.765 64.56 112.936C64.048 113.107 63.456 113.192 62.784 113.192ZM72.3413 113.192C71.7226 113.192 71.1679 113.091 70.6773 112.888C70.1973 112.675 69.7866 112.381 69.4453 112.008C69.1146 111.624 68.8586 111.165 68.6773 110.632C68.4959 110.088 68.4053 109.48 68.4053 108.808C68.4053 108.147 68.4906 107.549 68.6613 107.016C68.8426 106.483 69.0986 106.029 69.4293 105.656C69.7599 105.272 70.1653 104.979 70.6453 104.776C71.1253 104.563 71.6693 104.456 72.2773 104.456C72.9279 104.456 73.4933 104.568 73.9733 104.792C74.4533 105.016 74.8479 105.32 75.1573 105.704C75.4666 106.088 75.6959 106.536 75.8453 107.048C76.0053 107.549 76.0853 108.088 76.0853 108.664V109.336H70.5333V109.544C70.5333 110.152 70.7039 110.643 71.0453 111.016C71.3866 111.379 71.8933 111.56 72.5653 111.56C73.0773 111.56 73.4933 111.453 73.8133 111.24C74.1439 111.027 74.4373 110.755 74.6933 110.424L75.7973 111.656C75.4559 112.136 74.9866 112.515 74.3893 112.792C73.8026 113.059 73.1199 113.192 72.3413 113.192ZM72.3093 105.992C71.7653 105.992 71.3333 106.173 71.0133 106.536C70.6933 106.899 70.5333 107.368 70.5333 107.944V108.072H73.9573V107.928C73.9573 107.352 73.8133 106.888 73.5253 106.536C73.2479 106.173 72.8426 105.992 72.3093 105.992ZM79.9351 113C79.2311 113 78.7138 112.824 78.3831 112.472C78.0525 112.12 77.8871 111.624 77.8871 110.984V101.16H79.9351V111.368H81.0391V113H79.9351ZM84.5289 113C83.8249 113 83.3075 112.824 82.9769 112.472C82.6462 112.12 82.4809 111.624 82.4809 110.984V101.16H84.5289V111.368H85.6329V113H84.5289ZM91.2373 113V111.288H94.3093V103.352H94.1653L91.7333 106.232L90.4213 105.128L93.1893 101.832H96.3733V111.288H98.9333V113H91.2373Z" fill="white"/>
<circle cx="216" cy="185" r="27" fill="#EE7D8B"/>
<path d="M199.784 191.192C198.824 191.192 198.008 191.021 197.336 190.68C196.675 190.339 196.104 189.891 195.624 189.336L197.048 187.96C197.432 188.408 197.859 188.749 198.328 188.984C198.808 189.219 199.336 189.336 199.912 189.336C200.563 189.336 201.053 189.197 201.384 188.92C201.715 188.632 201.88 188.248 201.88 187.768C201.88 187.395 201.773 187.091 201.56 186.856C201.347 186.621 200.947 186.451 200.36 186.344L199.304 186.184C197.075 185.832 195.96 184.749 195.96 182.936C195.96 182.435 196.051 181.981 196.232 181.576C196.424 181.171 196.696 180.824 197.048 180.536C197.4 180.248 197.821 180.029 198.312 179.88C198.813 179.72 199.379 179.64 200.008 179.64C200.851 179.64 201.587 179.779 202.216 180.056C202.845 180.333 203.384 180.744 203.832 181.288L202.392 182.648C202.115 182.307 201.779 182.029 201.384 181.816C200.989 181.603 200.493 181.496 199.896 181.496C199.288 181.496 198.829 181.613 198.52 181.848C198.221 182.072 198.072 182.392 198.072 182.808C198.072 183.235 198.195 183.549 198.44 183.752C198.685 183.955 199.08 184.104 199.624 184.2L200.664 184.392C201.795 184.595 202.627 184.957 203.16 185.48C203.704 185.992 203.976 186.712 203.976 187.64C203.976 188.173 203.88 188.659 203.688 189.096C203.507 189.523 203.235 189.896 202.872 190.216C202.52 190.525 202.083 190.765 201.56 190.936C201.048 191.107 200.456 191.192 199.784 191.192ZM209.341 191.192C208.723 191.192 208.168 191.091 207.677 190.888C207.197 190.675 206.787 190.381 206.445 190.008C206.115 189.624 205.859 189.165 205.677 188.632C205.496 188.088 205.405 187.48 205.405 186.808C205.405 186.147 205.491 185.549 205.661 185.016C205.843 184.483 206.099 184.029 206.429 183.656C206.76 183.272 207.165 182.979 207.645 182.776C208.125 182.563 208.669 182.456 209.277 182.456C209.928 182.456 210.493 182.568 210.973 182.792C211.453 183.016 211.848 183.32 212.157 183.704C212.467 184.088 212.696 184.536 212.845 185.048C213.005 185.549 213.085 186.088 213.085 186.664V187.336H207.533V187.544C207.533 188.152 207.704 188.643 208.045 189.016C208.387 189.379 208.893 189.56 209.565 189.56C210.077 189.56 210.493 189.453 210.813 189.24C211.144 189.027 211.437 188.755 211.693 188.424L212.797 189.656C212.456 190.136 211.987 190.515 211.389 190.792C210.803 191.059 210.12 191.192 209.341 191.192ZM209.309 183.992C208.765 183.992 208.333 184.173 208.013 184.536C207.693 184.899 207.533 185.368 207.533 185.944V186.072H210.957V185.928C210.957 185.352 210.813 184.888 210.525 184.536C210.248 184.173 209.843 183.992 209.309 183.992ZM216.935 191C216.231 191 215.714 190.824 215.383 190.472C215.052 190.12 214.887 189.624 214.887 188.984V179.16H216.935V189.368H218.039V191H216.935ZM221.529 191C220.825 191 220.308 190.824 219.977 190.472C219.646 190.12 219.481 189.624 219.481 188.984V179.16H221.529V189.368H222.633V191H221.529ZM235.517 191H227.773V189.048L231.277 185.976C231.875 185.453 232.312 184.984 232.589 184.568C232.867 184.141 233.005 183.683 233.005 183.192V182.984C233.005 182.493 232.845 182.12 232.525 181.864C232.205 181.597 231.816 181.464 231.357 181.464C230.781 181.464 230.344 181.629 230.045 181.96C229.747 182.28 229.533 182.669 229.405 183.128L227.581 182.424C227.699 182.051 227.864 181.699 228.077 181.368C228.291 181.027 228.557 180.728 228.877 180.472C229.208 180.216 229.592 180.013 230.029 179.864C230.467 179.715 230.968 179.64 231.533 179.64C232.12 179.64 232.643 179.725 233.101 179.896C233.56 180.056 233.944 180.285 234.253 180.584C234.573 180.883 234.813 181.235 234.973 181.64C235.144 182.045 235.229 182.488 235.229 182.968C235.229 183.437 235.155 183.864 235.005 184.248C234.856 184.632 234.653 185 234.397 185.352C234.141 185.693 233.843 186.024 233.501 186.344C233.16 186.653 232.797 186.968 232.413 187.288L230.061 189.224H235.517V191Z" fill="white"/>
<circle cx="357" cy="106" r="27" fill="#13C8A4"/>
<path d="M337.312 100.832H342.48C342.939 100.832 343.349 100.901 343.712 101.04C344.085 101.179 344.4 101.371 344.656 101.616C344.912 101.861 345.104 102.165 345.232 102.528C345.371 102.88 345.44 103.269 345.44 103.696C345.44 104.123 345.381 104.485 345.264 104.784C345.157 105.072 345.008 105.312 344.816 105.504C344.635 105.696 344.421 105.84 344.176 105.936C343.941 106.032 343.696 106.085 343.44 106.096V106.192C343.685 106.192 343.947 106.24 344.224 106.336C344.512 106.432 344.773 106.587 345.008 106.8C345.253 107.003 345.456 107.269 345.616 107.6C345.776 107.92 345.856 108.32 345.856 108.8C345.856 109.248 345.781 109.669 345.632 110.064C345.493 110.448 345.296 110.784 345.04 111.072C344.784 111.36 344.48 111.589 344.128 111.76C343.776 111.92 343.392 112 342.976 112H337.312V100.832ZM339.424 110.208H342.368C342.773 110.208 343.088 110.107 343.312 109.904C343.536 109.691 343.648 109.387 343.648 108.992V108.448C343.648 108.053 343.536 107.749 343.312 107.536C343.088 107.323 342.773 107.216 342.368 107.216H339.424V110.208ZM339.424 105.488H342.032C342.416 105.488 342.715 105.387 342.928 105.184C343.141 104.971 343.248 104.677 343.248 104.304V103.808C343.248 103.435 343.141 103.147 342.928 102.944C342.715 102.731 342.416 102.624 342.032 102.624H339.424V105.488ZM352.785 110.608H352.705C352.631 110.821 352.529 111.024 352.401 111.216C352.284 111.397 352.129 111.563 351.937 111.712C351.756 111.861 351.532 111.979 351.265 112.064C351.009 112.149 350.711 112.192 350.369 112.192C349.505 112.192 348.844 111.909 348.385 111.344C347.927 110.779 347.697 109.973 347.697 108.928V103.648H349.745V108.72C349.745 109.296 349.857 109.739 350.081 110.048C350.305 110.347 350.663 110.496 351.153 110.496C351.356 110.496 351.553 110.469 351.745 110.416C351.948 110.363 352.124 110.283 352.273 110.176C352.423 110.059 352.545 109.92 352.641 109.76C352.737 109.589 352.785 109.392 352.785 109.168V103.648H354.833V112H352.785V110.608ZM362.32 103.648H364.24L360.88 113.488C360.773 113.787 360.65 114.043 360.512 114.256C360.384 114.48 360.229 114.661 360.048 114.8C359.866 114.939 359.648 115.04 359.392 115.104C359.136 115.168 358.837 115.2 358.496 115.2H357.264V113.568H358.768L359.152 112.4L356.16 103.648H358.192L359.648 108.064L360.192 110.176H360.288L360.864 108.064L362.32 103.648ZM369.644 112V110.288H372.716V102.352H372.572L370.14 105.232L368.828 104.128L371.596 100.832H374.78V110.288H377.34V112H369.644Z" fill="white"/>
</g>
<defs>
<clipPath id="clip0">
<rect width="466" height="212" fill="white" transform="matrix(1 0 0 -1 0 212)"/>
</clipPath>
</defs>
</svg>
