<svg width="328" height="100" viewBox="0 0 328 100" fill="none" xmlns="http://www.w3.org/2000/svg"><g clip-path="url(#clip0)"><path fill="#fff" d="M0 0h328v100H0z"/><path d="M17.79 77.58h-4.66V75.5h4.66V70.7h2.1v4.79h4.68v2.08H19.9v4.76h-2.11v-4.76zM38.86 85H27.25v-2.09l4.41-4.44a37.27 37.27 0 002.6-2.83 6.8 6.8 0 00.93-1.59c.2-.49.3-1.01.3-1.58a2.4 2.4 0 00-.7-1.83 2.65 2.65 0 00-1.93-.66c-.66 0-1.3.12-1.91.36-.61.24-1.32.68-2.12 1.31l-1.5-1.81a8.13 8.13 0 015.65-2.21c1.6 0 2.88.4 3.84 1.24a4.2 4.2 0 011.44 3.36c0 .77-.14 1.5-.42 2.2a8.8 8.8 0 01-1.28 2.16c-.57.73-1.52 1.73-2.86 2.98l-2.97 2.89v.11h8.13V85zm14.19-8.57c0 2.98-.48 5.2-1.44 6.64-.95 1.44-2.42 2.16-4.38 2.16-1.91 0-3.36-.74-4.34-2.23-.98-1.5-1.48-3.68-1.48-6.57 0-3.02.48-5.25 1.43-6.68.96-1.43 2.42-2.15 4.39-2.15 1.91 0 3.36.75 4.34 2.25.99 1.5 1.48 3.7 1.48 6.58zm-8.85 0c0 2.34.24 4 .72 5s1.25 1.5 2.3 1.5c1.06 0 1.83-.5 2.31-1.52.5-1.01.74-2.67.74-4.98 0-2.3-.24-3.95-.74-4.98-.48-1.03-1.25-1.54-2.3-1.54-1.06 0-1.83.5-2.31 1.5-.48 1.02-.72 2.69-.72 5.02zm11.93 7.1c0-.57.15-1 .45-1.3.3-.31.72-.46 1.29-.46.57 0 1 .16 1.3.48.3.3.44.74.44 1.29s-.15 1-.46 1.32c-.3.32-.72.48-1.28.48-.57 0-1-.16-1.3-.48-.29-.32-.44-.76-.44-1.32zm18.2-7.1c0 2.98-.48 5.2-1.44 6.64-.95 1.44-2.42 2.16-4.38 2.16-1.91 0-3.36-.74-4.34-2.23-.98-1.5-1.48-3.68-1.48-6.57 0-3.02.48-5.25 1.43-6.68.96-1.43 2.42-2.15 4.39-2.15 1.91 0 3.36.75 4.34 2.25.99 1.5 1.48 3.7 1.48 6.58zm-8.85 0c0 2.34.24 4 .72 5s1.25 1.5 2.3 1.5c1.06 0 1.83-.5 2.31-1.52.5-1.01.74-2.67.74-4.98 0-2.3-.24-3.95-.74-4.98-.48-1.03-1.25-1.54-2.3-1.54-1.06 0-1.83.5-2.31 1.5-.48 1.02-.72 2.69-.72 5.02zm23.65 4.83h-2.3V85h-2.7v-3.74h-7.82v-2.12l7.83-11.32h2.68v11.16h2.31v2.28zm-5-2.28v-4.3c0-1.54.05-2.79.13-3.77h-.1a13.3 13.3 0 01-1.03 1.88l-4.25 6.19h5.26zM93.32 73c0 1.16.12 2.03.34 2.6.23.57.6.86 1.12.86 1.03 0 1.54-1.16 1.54-3.46s-.51-3.46-1.54-3.46c-.52 0-.89.29-1.12.86a7.48 7.48 0 00-.34 2.6zm5.28-.02c0 1.8-.33 3.14-.98 4.05-.64.9-1.59 1.35-2.84 1.35-1.2 0-2.11-.47-2.77-1.4-.65-.93-.97-2.27-.97-4 0-3.57 1.24-5.36 3.74-5.36 1.22 0 2.16.47 2.82 1.4.66.92 1 2.24 1 3.96zm5.88 6.86c0 1.17.11 2.04.34 2.62.23.58.6.86 1.13.86 1.02 0 1.53-1.16 1.53-3.48 0-2.29-.51-3.43-1.53-3.43-.52 0-.9.28-1.13.84a7.36 7.36 0 00-.34 2.6zm5.27 0c0 1.8-.32 3.15-.97 4.05-.65.9-1.6 1.34-2.83 1.34a3.2 3.2 0 01-2.77-1.38c-.66-.93-.98-2.26-.98-4 0-3.58 1.25-5.36 3.75-5.36 1.2 0 2.13.46 2.8 1.38.67.92 1 2.25 1 3.97zm-3.48-11.97L96.76 85h-2.27l9.5-17.13h2.27z" fill="#00A59A"/><path d="M14.9 48.46h.6c.55 0 .97-.1 1.25-.32.27-.23.41-.55.41-.97 0-.43-.12-.74-.35-.94-.23-.2-.6-.3-1.09-.3h-.83v2.53zm4.1-1.35c0 .92-.3 1.62-.87 2.11-.58.49-1.4.73-2.46.73h-.78V53h-1.81v-8.57h2.73c1.04 0 1.83.23 2.37.68.54.44.82 1.1.82 2zm5.13-.78c.24 0 .44.01.6.05l-.13 1.67a2.05 2.05 0 00-.53-.05 1.9 1.9 0 00-1.34.44c-.31.29-.47.7-.47 1.23V53h-1.79v-6.55h1.36l.26 1.1h.09c.2-.37.47-.66.82-.88.35-.23.72-.34 1.13-.34zm3.22 3.38c0 .65.1 1.14.31 1.47.22.34.56.5 1.05.5.47 0 .81-.16 1.02-.49.21-.33.32-.82.32-1.48 0-.65-.1-1.13-.32-1.46-.21-.32-.56-.48-1.04-.48-.47 0-.82.16-1.03.48-.2.32-.31.81-.31 1.46zm4.52 0c0 1.07-.28 1.9-.84 2.5-.56.6-1.34.9-2.35.9a3.3 3.3 0 01-1.66-.4 2.77 2.77 0 01-1.11-1.2 3.99 3.99 0 01-.39-1.8c0-1.07.28-1.9.84-2.5.56-.59 1.35-.88 2.36-.88.63 0 1.18.13 1.66.4.48.28.85.67 1.1 1.18.27.52.4 1.12.4 1.8zm5.1-1.92h-1.54V53h-1.8v-5.2h-.98v-.87l.99-.48v-.48c0-.75.18-1.3.55-1.64.37-.34.95-.51 1.76-.51.62 0 1.17.09 1.65.27l-.46 1.32c-.36-.12-.69-.17-1-.17-.25 0-.43.07-.54.22a.92.92 0 00-.17.58v.4h1.54v1.35zm.95-3.03c0-.59.33-.88.97-.88.65 0 .98.3.98.88 0 .27-.08.49-.25.65-.16.15-.4.22-.73.22-.64 0-.97-.29-.97-.87zM39.8 53h-1.8v-6.55h1.8V53zm4.63-1.3c.31 0 .69-.08 1.12-.21v1.33c-.44.2-.99.3-1.64.3-.71 0-1.23-.18-1.56-.54-.32-.37-.49-.9-.49-1.63v-3.16H41v-.75l.98-.6.52-1.39h1.14v1.4h1.83v1.34h-1.83v3.16c0 .25.07.44.21.56.15.12.34.18.57.18zm7.36 1.3h-1.79v-9.12h1.79V53zm6.04 0l-.35-.9h-.04c-.3.39-.61.65-.93.8-.32.14-.73.22-1.25.22-.63 0-1.12-.18-1.48-.54-.36-.36-.54-.87-.54-1.54 0-.7.24-1.2.72-1.53a4.22 4.22 0 012.2-.55l1.14-.04v-.29c0-.66-.34-1-1.02-1-.52 0-1.14.17-1.84.48l-.6-1.2c.76-.4 1.6-.6 2.51-.6.88 0 1.56.2 2.03.58.46.38.7.96.7 1.74V53h-1.25zm-.53-3.04l-.69.03c-.52.01-.9.1-1.16.28-.25.17-.38.43-.38.78 0 .5.29.76.87.76.41 0 .74-.12.99-.36s.37-.55.37-.95v-.54zm8.2 1.1a1.8 1.8 0 01-.7 1.53c-.47.35-1.17.53-2.1.53a6.4 6.4 0 01-1.22-.1 4.49 4.49 0 01-.94-.28v-1.48a6.25 6.25 0 002.22.55c.65 0 .97-.19.97-.56a.46.46 0 00-.13-.34 1.76 1.76 0 00-.44-.3c-.21-.11-.5-.24-.85-.4-.5-.2-.87-.4-1.11-.58a1.7 1.7 0 01-.52-.61 2.1 2.1 0 01-.15-.87c0-.58.22-1.03.67-1.34a3.3 3.3 0 011.92-.48c.79 0 1.56.17 2.3.51l-.53 1.3a9.89 9.89 0 00-.92-.35 2.89 2.89 0 00-.88-.14c-.53 0-.79.14-.79.43 0 .16.09.3.25.41.17.12.55.3 1.12.53.51.2.89.4 1.13.58.24.18.41.38.52.62.12.23.17.51.17.83zm4.15.63c.31 0 .69-.06 1.12-.2v1.33c-.44.2-.99.3-1.64.3-.71 0-1.23-.18-1.56-.54-.33-.37-.49-.9-.49-1.63v-3.16h-.85v-.75l.98-.6.52-1.39h1.14v1.4h1.83v1.34h-1.83v3.16c0 .25.07.44.21.56.14.12.33.18.57.18zM81.08 53h-1.8v-3.83c0-.47-.07-.82-.23-1.06-.16-.23-.4-.35-.75-.35-.45 0-.78.16-1 .5-.2.34-.3.89-.3 1.66V53H75.2v-6.55h1.37l.24.84h.1c.17-.3.43-.54.76-.7.33-.18.71-.26 1.14-.26.98 0 1.64.32 2 .96h.15c.18-.3.43-.54.77-.71a2.6 2.6 0 011.16-.25c.75 0 1.3.19 1.69.57.38.38.57.99.57 1.83V53h-1.8v-3.83c0-.47-.07-.82-.23-1.06-.16-.23-.4-.35-.75-.35-.43 0-.76.15-.98.46-.22.32-.32.81-.32 1.5V53zm7.34-3.29c0 .65.1 1.14.32 1.47.22.34.56.5 1.04.5s.82-.16 1.03-.49c.2-.33.31-.82.31-1.48 0-.65-.1-1.13-.31-1.46-.21-.32-.56-.48-1.04-.48s-.82.16-1.03.48c-.21.32-.32.81-.32 1.46zm4.53 0c0 1.07-.28 1.9-.84 2.5-.56.6-1.35.9-2.35.9a3.3 3.3 0 01-1.66-.4 2.77 2.77 0 01-1.11-1.2 3.99 3.99 0 01-.39-1.8c0-1.07.28-1.9.84-2.5.56-.59 1.34-.88 2.35-.88.63 0 1.19.13 1.67.4.48.28.85.67 1.1 1.18.26.52.4 1.12.4 1.8zm7.53 3.29h-1.8v-3.83c0-.47-.07-.82-.24-1.06-.17-.23-.44-.35-.8-.35-.5 0-.87.16-1.09.5-.22.33-.33.88-.33 1.66V53h-1.79v-6.55h1.36l.25.84h.1c.2-.32.47-.56.82-.72a2.8 2.8 0 011.19-.24c.76 0 1.34.2 1.73.62.4.4.6 1 .6 1.78V53zm4.6-1.3c.3 0 .68-.08 1.12-.21v1.33a4 4 0 01-1.64.3c-.71 0-1.24-.18-1.56-.54-.33-.37-.49-.9-.49-1.63v-3.16h-.86v-.75l.99-.6.51-1.39h1.15v1.4h1.83v1.34h-1.83v3.16c0 .25.07.44.2.56.15.12.34.18.58.18zm8.5 1.3h-1.79v-3.83c0-.94-.35-1.41-1.05-1.41-.5 0-.86.17-1.09.5-.22.35-.33.9-.33 1.66V53h-1.79v-9.12h1.79v1.86l-.04 1.02-.04.53h.09c.4-.64 1.03-.96 1.9-.96.77 0 1.35.2 1.75.62.4.41.6 1 .6 1.78V53z" fill="#6B7B8B"/><path d="M315 49c-1.74.69-7.09 5.5-8.12 3.84C305.3 50.3 302 40 300.94 40c-1.07 0-12.44 5.9-16.43 6.2-3.98.3-10.96-1.37-11.66-.89-6.77 4.69-7.99-2.6-13.46.89-2.96 1.88-5.6 17.86-11.7 18.3-6.12.44-8.29-2.5-9.97-2.5-1.51 0-6.45-8.42-11.02-8.42-4.58 0-4.7-3.5-6.13-2.76-1.41.74-6.99 8.52-8.67 8.81-1.68.3-3.52-4.64-4.94-3.9-1.41.74-5.25 9.5-6.4 10.1-1.15.59-7.88 2.36-9.21 2.36h-8.5c-1.51 0-9.66 2.07-11.08 2.8-1.42.74-5.5 11.98-6.47 12.12-.97.15-3.46-.14-4.6.89-1.16 1.03-3.82-4.6-4.61-3.26-.8 1.33-3.37 3.83-6.03 4.13-2.12.24-6.26.1-8.06 0" stroke="#00A59A" stroke-width="2" stroke-linecap="round" stroke-linejoin="round"/><path d="M42.01 25h-4.93v-8.57H42v1.5H38.9v1.87h2.9v1.5h-2.9v2.2h3.12V25zm5.1 0h-1.82v-7.05h-2.32v-1.52h6.47v1.52H47.1V25zm10.66 0h-1.8v-3.7h-3.4V25h-1.82v-8.57h1.82v3.36h3.4v-3.36h1.8V25zm6-8.57L60.56 25h-1.62l3.19-8.57h1.62zm8.1 0v5.55c0 .63-.14 1.18-.43 1.66-.28.48-.69.84-1.22 1.1-.54.25-1.17.38-1.9.38-1.1 0-1.96-.28-2.57-.85a3.01 3.01 0 01-.91-2.32v-5.52h1.81v5.25c0 .66.13 1.14.4 1.45.26.3.7.46 1.32.46.6 0 1.02-.15 1.29-.46.27-.31.4-.8.4-1.46v-5.24h1.81zm7.16 6.2c0 .76-.28 1.37-.84 1.82-.56.44-1.33.67-2.32.67-.92 0-1.73-.17-2.43-.52v-1.69c.58.26 1.07.44 1.47.55.4.1.77.16 1.1.16.4 0 .7-.08.91-.23.22-.15.32-.38.32-.68a.74.74 0 00-.14-.45c-.09-.13-.23-.26-.41-.38-.18-.12-.55-.31-1.11-.58a5.27 5.27 0 01-1.18-.7 2.66 2.66 0 01-.62-.8c-.16-.3-.24-.65-.24-1.05 0-.76.26-1.36.77-1.79a3.21 3.21 0 012.13-.65 5 5 0 011.27.16c.4.1.83.25 1.27.44l-.58 1.42a8.49 8.49 0 00-1.14-.4c-.3-.07-.59-.1-.88-.1-.34 0-.6.07-.79.23a.8.8 0 00-.27.63c0 .16.03.3.1.42.08.12.2.23.36.35.16.1.55.3 1.15.6.8.38 1.35.76 1.65 1.15.3.38.45.85.45 1.41zm8.66-2c0 1.41-.4 2.5-1.21 3.25-.8.75-1.96 1.12-3.48 1.12h-2.42v-8.57h2.69c1.4 0 2.48.37 3.26 1.11a4.07 4.07 0 011.16 3.1zm-1.9.05c0-1.84-.8-2.76-2.43-2.76h-.97v5.58h.78c1.75 0 2.63-.94 2.63-2.82zM92.78 25h-1.82v-7.05h-2.33v-1.52h6.47v1.52h-2.32V25zm6.76-8.57h2.66c1.22 0 2.1.18 2.65.53.55.34.82.89.82 1.64 0 .51-.12.93-.36 1.26-.24.33-.56.53-.96.6v.05c.55.12.94.35 1.18.68.24.33.36.77.36 1.33 0 .78-.28 1.39-.85 1.82-.56.44-1.33.66-2.3.66h-3.2v-8.57zm1.81 3.4h1.06c.5 0 .85-.08 1.06-.23.23-.15.34-.4.34-.76 0-.33-.12-.56-.36-.7a2.28 2.28 0 00-1.14-.22h-.96v1.9zm0 1.44v2.23h1.19c.5 0 .87-.1 1.1-.29.24-.19.36-.48.36-.88 0-.7-.5-1.06-1.52-1.06h-1.13zm7.53.44c0 .65.1 1.14.32 1.47.21.34.56.5 1.04.5s.82-.16 1.03-.5c.2-.32.31-.81.31-1.47 0-.65-.1-1.13-.31-1.46-.21-.32-.56-.48-1.04-.48s-.82.16-1.03.48c-.21.32-.32.81-.32 1.46zm4.53 0c0 1.07-.28 1.9-.84 2.5-.56.6-1.35.9-2.35.9a3.3 3.3 0 01-1.66-.4 2.76 2.76 0 01-1.11-1.2 3.98 3.98 0 01-.39-1.8c0-1.07.28-1.9.84-2.5.56-.59 1.34-.88 2.35-.88.63 0 1.19.13 1.67.4.48.28.85.67 1.1 1.18.26.52.4 1.12.4 1.8zm4.24 1.98c.31 0 .69-.07 1.12-.2v1.33c-.44.2-.99.3-1.64.3-.71 0-1.23-.18-1.56-.54-.33-.37-.49-.9-.49-1.63v-3.16h-.85v-.75l.98-.6.52-1.39h1.14v1.4h1.83v1.34h-1.83v3.16c0 .25.07.44.21.56.15.12.33.18.57.18z" fill="#2F4050"/><rect x="282" y="12" width="34" height="16" rx="2" fill="#00A59A" fill-opacity="0.15"/><path d="M295.33 21.77c0 .52-.19.93-.56 1.25-.37.31-.9.5-1.57.56v1h-.67v-.98c-.8-.02-1.5-.16-2.1-.42v-1.29a5.67 5.67 0 002.1.56v-1.51l-.33-.13a3.7 3.7 0 01-1.37-.82 1.6 1.6 0 01-.4-1.11c0-.47.18-.86.55-1.16.37-.31.89-.5 1.55-.56v-.75h.67v.73c.74.03 1.42.18 2.02.45l-.46 1.14c-.5-.2-1.03-.33-1.56-.38v1.44c.63.25 1.08.46 1.35.64.27.17.47.37.6.59.12.21.18.46.18.75zm-1.47.07a.44.44 0 00-.16-.34c-.11-.1-.28-.2-.5-.3v1.22c.44-.08.66-.27.66-.58zm-1.96-2.96c0 .14.05.26.15.35.1.1.26.19.48.29v-1.15c-.42.06-.63.23-.63.5zm7.94 5.12h-1.5v-4.13l.01-.68.02-.74-.52.5-.82.65-.73-.9 2.3-1.84h1.24V24zm4.58-4.56c.7 0 1.24.2 1.65.58.4.39.62.92.62 1.6 0 .79-.25 1.4-.74 1.83-.5.43-1.2.65-2.11.65-.8 0-1.44-.13-1.93-.39v-1.3a4.08 4.08 0 001.87.46c.93 0 1.39-.38 1.39-1.13 0-.72-.48-1.08-1.44-1.08a3.94 3.94 0 00-1.08.16l-.6-.32.27-3.64h3.88v1.28h-2.55l-.13 1.4.17-.03c.2-.05.44-.07.73-.07z" fill="#00A59A"/><path d="M16 20a1 1 0 110 2 1 1 0 010-2z" fill="#2F4050"/><path d="M24 20a1 1 0 110 2 1 1 0 010-2z" fill="#2F4050"/><path fill-rule="evenodd" clip-rule="evenodd" d="M18 13a1 1 0 011-1h2a1 1 0 011 1v2h-1v2h2v-1a1 1 0 112 0v1h2a1 1 0 011 1v6a4 4 0 01-4 4h-8a4 4 0 01-4-4v-6a1 1 0 011-1h2v-1a1 1 0 112 0v1h2v-2h-1v-2zm-3 6a1 1 0 00-1 1v2a1 1 0 001 1h10a1 1 0 001-1v-2a1 1 0 00-1-1H15zm3 6.5c0-.28.22-.5.5-.5h3a.5.5 0 010 1h-3a.5.5 0 01-.5-.5z" fill="#2F4050"/><path fill="url(#paint0_linear)" d="M-71-35h457v142H-71z"/></g><defs><linearGradient id="paint0_linear" x1="88.5" y1="-257" x2="-11" y2="36" gradientUnits="userSpaceOnUse"><stop stop-color="#fff"/><stop offset="1" stop-color="#fff" stop-opacity="0"/></linearGradient><clipPath id="clip0"><path fill="#fff" d="M0 0h328v100H0z"/></clipPath></defs></svg>