<svg width="466" height="212" viewBox="0 0 466 212" fill="none" xmlns="http://www.w3.org/2000/svg">
<path d="M5.248 23.016V33H3.904V23.016H0.352V21.832H8.8V23.016H5.248ZM16.5894 33L15.4694 29.704H10.9574L9.83738 33H8.47738L12.3814 21.832H14.0934L17.9974 33H16.5894ZM13.2454 23.08H13.1654L11.2774 28.52H15.1334L13.2454 23.08ZM22.7754 27.512L21.1914 29.272V33H19.8474V21.832H21.1914V27.768H21.2394L22.8394 25.832L26.2154 21.832H27.8634L23.7034 26.616L28.1514 33H26.4874L22.7754 27.512ZM29.988 33V21.832H36.804V23.016H31.332V26.76H36.484V27.944H31.332V31.816H36.804V33H29.988ZM43.0974 33V21.832H47.5454C48.548 21.832 49.316 22.12 49.8494 22.696C50.3934 23.2613 50.6654 24.04 50.6654 25.032C50.6654 26.024 50.3934 26.808 49.8494 27.384C49.316 27.9493 48.548 28.232 47.5454 28.232H44.4414V33H43.0974ZM44.4414 27.048H47.5454C48.0787 27.048 48.4894 26.9093 48.7774 26.632C49.076 26.3547 49.2254 25.96 49.2254 25.448V24.616C49.2254 24.104 49.076 23.7093 48.7774 23.432C48.4894 23.1547 48.0787 23.016 47.5454 23.016H44.4414V27.048ZM54.1445 33H52.8005V21.832H57.2485C58.2298 21.832 58.9925 22.104 59.5365 22.648C60.0912 23.192 60.3685 23.976 60.3685 25C60.3685 25.8213 60.1765 26.4987 59.7925 27.032C59.4192 27.5547 58.8645 27.9013 58.1285 28.072L60.6885 33H59.1685L56.7525 28.2H54.1445V33ZM57.2485 27.048C57.7818 27.048 58.1925 26.9093 58.4805 26.632C58.7792 26.3547 58.9285 25.96 58.9285 25.448V24.616C58.9285 24.104 58.7792 23.7093 58.4805 23.432C58.1925 23.1547 57.7818 23.016 57.2485 23.016H54.1445V27.048H57.2485ZM67.0546 33.192C66.3293 33.192 65.6733 33.0693 65.0866 32.824C64.5106 32.568 64.0146 32.2 63.5986 31.72C63.1933 31.2293 62.8786 30.6267 62.6546 29.912C62.4306 29.1867 62.3186 28.3547 62.3186 27.416C62.3186 26.4773 62.4306 25.6507 62.6546 24.936C62.8786 24.2213 63.1933 23.6187 63.5986 23.128C64.0146 22.6373 64.5106 22.2693 65.0866 22.024C65.6733 21.768 66.3293 21.64 67.0546 21.64C67.7693 21.64 68.42 21.768 69.0066 22.024C69.5933 22.2693 70.0893 22.6373 70.4946 23.128C70.9106 23.6187 71.2306 24.2213 71.4546 24.936C71.6786 25.6507 71.7906 26.4773 71.7906 27.416C71.7906 28.3547 71.6786 29.1867 71.4546 29.912C71.2306 30.6267 70.9106 31.2293 70.4946 31.72C70.0893 32.2 69.5933 32.568 69.0066 32.824C68.42 33.0693 67.7693 33.192 67.0546 33.192ZM67.0546 31.992C67.5346 31.992 67.9773 31.9067 68.3826 31.736C68.788 31.5653 69.1346 31.32 69.4226 31C69.7213 30.68 69.9506 30.296 70.1106 29.848C70.2706 29.4 70.3506 28.8987 70.3506 28.344V26.488C70.3506 25.9333 70.2706 25.432 70.1106 24.984C69.9506 24.536 69.7213 24.152 69.4226 23.832C69.1346 23.512 68.788 23.2667 68.3826 23.096C67.9773 22.9253 67.5346 22.84 67.0546 22.84C66.5746 22.84 66.132 22.9253 65.7266 23.096C65.3213 23.2667 64.9693 23.512 64.6706 23.832C64.3826 24.152 64.1586 24.536 63.9986 24.984C63.8386 25.432 63.7586 25.9333 63.7586 26.488V28.344C63.7586 28.8987 63.8386 29.4 63.9986 29.848C64.1586 30.296 64.3826 30.68 64.6706 31C64.9693 31.32 65.3213 31.5653 65.7266 31.736C66.132 31.9067 66.5746 31.992 67.0546 31.992ZM74.2068 33V21.832H80.8628V23.016H75.5508V26.76H80.3988V27.944H75.5508V33H74.2068ZM82.6163 33V31.88H84.1843V22.952H82.6163V21.832H87.0963V22.952H85.5283V31.88H87.0963V33H82.6163ZM93.2011 23.016V33H91.8571V23.016H88.3051V21.832H96.7531V23.016H93.2011ZM109.419 33H102.091V31.624L105.739 28.264C106.261 27.784 106.699 27.2773 107.051 26.744C107.403 26.2 107.579 25.656 107.579 25.112V24.92C107.579 24.3013 107.408 23.8 107.067 23.416C106.725 23.032 106.208 22.84 105.515 22.84C105.173 22.84 104.875 22.888 104.619 22.984C104.363 23.08 104.139 23.2133 103.947 23.384C103.765 23.5547 103.611 23.7573 103.483 23.992C103.365 24.216 103.269 24.4613 103.195 24.728L101.995 24.264C102.101 23.9333 102.245 23.6133 102.427 23.304C102.619 22.984 102.853 22.7013 103.131 22.456C103.419 22.2107 103.76 22.0133 104.155 21.864C104.56 21.7147 105.035 21.64 105.579 21.64C106.123 21.64 106.608 21.72 107.035 21.88C107.461 22.04 107.819 22.264 108.107 22.552C108.395 22.84 108.613 23.1813 108.763 23.576C108.923 23.9707 109.003 24.408 109.003 24.888C109.003 25.3253 108.939 25.7307 108.811 26.104C108.693 26.4773 108.528 26.8347 108.315 27.176C108.101 27.5067 107.84 27.832 107.531 28.152C107.232 28.472 106.907 28.792 106.555 29.112L103.547 31.816H109.419V33Z" fill="#9CA5AB"/>
<line x1="123" y1="26.5" x2="466" y2="26.5" stroke="#9CA5AB"/>
<path d="M1.488 191V179.832H8.304V181.016H2.832V184.76H7.984V185.944H2.832V189.816H8.304V191H1.488ZM18.7521 191H17.1361L14.2081 186.312H14.1761L11.2481 191H9.71213L13.3601 185.32L9.80813 179.832H11.4241L14.2241 184.28H14.2561L17.1201 179.832H18.6561L15.0721 185.272L18.7521 191ZM24.3886 181.016V191H23.0446V181.016H19.4926V179.832H27.9406V181.016H24.3886ZM31.1289 191H29.7849V179.832H34.2329C35.2142 179.832 35.9769 180.104 36.5209 180.648C37.0755 181.192 37.3529 181.976 37.3529 183C37.3529 183.821 37.1609 184.499 36.7769 185.032C36.4035 185.555 35.8489 185.901 35.1129 186.072L37.6729 191H36.1529L33.7369 186.2H31.1289V191ZM34.2329 185.048C34.7662 185.048 35.1769 184.909 35.4649 184.632C35.7635 184.355 35.9129 183.96 35.9129 183.448V182.616C35.9129 182.104 35.7635 181.709 35.4649 181.432C35.1769 181.155 34.7662 181.016 34.2329 181.016H31.1289V185.048H34.2329ZM47.0113 191L45.8913 187.704H41.3793L40.2593 191H38.8993L42.8033 179.832H44.5153L48.4193 191H47.0113ZM43.6673 181.08H43.5873L41.6993 186.52H45.5553L43.6673 181.08ZM58.2265 191.192C57.5012 191.192 56.8452 191.069 56.2585 190.824C55.6825 190.568 55.1865 190.2 54.7705 189.72C54.3652 189.229 54.0505 188.627 53.8265 187.912C53.6025 187.187 53.4905 186.355 53.4905 185.416C53.4905 184.477 53.6025 183.651 53.8265 182.936C54.0505 182.221 54.3652 181.619 54.7705 181.128C55.1865 180.637 55.6825 180.269 56.2585 180.024C56.8452 179.768 57.5012 179.64 58.2265 179.64C58.9412 179.64 59.5918 179.768 60.1785 180.024C60.7652 180.269 61.2612 180.637 61.6665 181.128C62.0825 181.619 62.4025 182.221 62.6265 182.936C62.8505 183.651 62.9625 184.477 62.9625 185.416C62.9625 186.355 62.8505 187.187 62.6265 187.912C62.4025 188.627 62.0825 189.229 61.6665 189.72C61.2612 190.2 60.7652 190.568 60.1785 190.824C59.5918 191.069 58.9412 191.192 58.2265 191.192ZM58.2265 189.992C58.7065 189.992 59.1492 189.907 59.5545 189.736C59.9598 189.565 60.3065 189.32 60.5945 189C60.8932 188.68 61.1225 188.296 61.2825 187.848C61.4425 187.4 61.5225 186.899 61.5225 186.344V184.488C61.5225 183.933 61.4425 183.432 61.2825 182.984C61.1225 182.536 60.8932 182.152 60.5945 181.832C60.3065 181.512 59.9598 181.267 59.5545 181.096C59.1492 180.925 58.7065 180.84 58.2265 180.84C57.7465 180.84 57.3038 180.925 56.8985 181.096C56.4932 181.267 56.1412 181.512 55.8425 181.832C55.5545 182.152 55.3305 182.536 55.1705 182.984C55.0105 183.432 54.9305 183.933 54.9305 184.488V186.344C54.9305 186.899 55.0105 187.4 55.1705 187.848C55.3305 188.296 55.5545 188.68 55.8425 189C56.1412 189.32 56.4932 189.565 56.8985 189.736C57.3038 189.907 57.7465 189.992 58.2265 189.992ZM66.7226 191H65.3786V179.832H69.8266C70.808 179.832 71.5706 180.104 72.1146 180.648C72.6693 181.192 72.9466 181.976 72.9466 183C72.9466 183.821 72.7546 184.499 72.3706 185.032C71.9973 185.555 71.4426 185.901 70.7066 186.072L73.2666 191H71.7466L69.3306 186.2H66.7226V191ZM69.8266 185.048C70.36 185.048 70.7706 184.909 71.0586 184.632C71.3573 184.355 71.5066 183.96 71.5066 183.448V182.616C71.5066 182.104 71.3573 181.709 71.0586 181.432C70.7706 181.155 70.36 181.016 69.8266 181.016H66.7226V185.048H69.8266ZM75.613 179.832H79.357C80.0503 179.832 80.6797 179.949 81.245 180.184C81.8103 180.419 82.2903 180.771 82.685 181.24C83.0903 181.699 83.3997 182.28 83.613 182.984C83.8263 183.677 83.933 184.488 83.933 185.416C83.933 186.344 83.8263 187.16 83.613 187.864C83.3997 188.557 83.0903 189.139 82.685 189.608C82.2903 190.067 81.8103 190.413 81.245 190.648C80.6797 190.883 80.0503 191 79.357 191H75.613V179.832ZM79.357 189.816C79.8157 189.816 80.237 189.741 80.621 189.592C81.005 189.432 81.3357 189.203 81.613 188.904C81.8903 188.605 82.1037 188.243 82.253 187.816C82.413 187.379 82.493 186.883 82.493 186.328V184.504C82.493 183.949 82.413 183.459 82.253 183.032C82.1037 182.595 81.8903 182.227 81.613 181.928C81.3357 181.629 81.005 181.405 80.621 181.256C80.237 181.096 79.8157 181.016 79.357 181.016H76.957V189.816H79.357ZM86.3474 191V179.832H93.1634V181.016H87.6914V184.76H92.8434V185.944H87.6914V189.816H93.1634V191H86.3474ZM97.0195 191H95.6755V179.832H100.124C101.105 179.832 101.868 180.104 102.411 180.648C102.966 181.192 103.244 181.976 103.244 183C103.244 183.821 103.052 184.499 102.668 185.032C102.294 185.555 101.74 185.901 101.004 186.072L103.564 191H102.044L99.6275 186.2H97.0195V191ZM100.124 185.048C100.657 185.048 101.068 184.909 101.356 184.632C101.654 184.355 101.804 183.96 101.804 183.448V182.616C101.804 182.104 101.654 181.709 101.356 181.432C101.068 181.155 100.657 181.016 100.124 181.016H97.0195V185.048H100.124ZM109.691 191V179.832H111.035V189.816H115.787V191H109.691ZM117.707 191V179.832H124.523V181.016H119.051V184.76H124.203V185.944H119.051V189.816H124.523V191H117.707ZM129.423 191L125.711 179.832H127.151L128.991 185.464L130.223 189.656H130.303L131.567 185.464L133.423 179.832H134.815L131.055 191H129.423ZM136.629 191V179.832H143.445V181.016H137.973V184.76H143.125V185.944H137.973V189.816H143.445V191H136.629ZM145.957 191V179.832H147.301V189.816H152.053V191H145.957Z" fill="#9CA5AB"/>
<line x1="165" y1="184.5" x2="466" y2="184.5" stroke="#9CA5AB"/>
<path d="M185.248 103.016V113H183.904V103.016H180.352V101.832H188.8V103.016H185.248ZM196.589 113L195.469 109.704H190.957L189.837 113H188.477L192.381 101.832H194.093L197.997 113H196.589ZM193.245 103.08H193.165L191.277 108.52H195.133L193.245 103.08ZM202.775 107.512L201.191 109.272V113H199.847V101.832H201.191V107.768H201.239L202.839 105.832L206.215 101.832H207.863L203.703 106.616L208.151 113H206.487L202.775 107.512ZM209.988 113V101.832H216.804V103.016H211.332V106.76H216.484V107.944H211.332V111.816H216.804V113H209.988ZM223.097 113V101.832H227.545C228.548 101.832 229.316 102.12 229.849 102.696C230.393 103.261 230.665 104.04 230.665 105.032C230.665 106.024 230.393 106.808 229.849 107.384C229.316 107.949 228.548 108.232 227.545 108.232H224.441V113H223.097ZM224.441 107.048H227.545C228.079 107.048 228.489 106.909 228.777 106.632C229.076 106.355 229.225 105.96 229.225 105.448V104.616C229.225 104.104 229.076 103.709 228.777 103.432C228.489 103.155 228.079 103.016 227.545 103.016H224.441V107.048ZM234.145 113H232.801V101.832H237.249C238.23 101.832 238.993 102.104 239.536 102.648C240.091 103.192 240.369 103.976 240.369 105C240.369 105.821 240.177 106.499 239.793 107.032C239.419 107.555 238.865 107.901 238.129 108.072L240.689 113H239.169L236.753 108.2H234.145V113ZM237.249 107.048C237.782 107.048 238.193 106.909 238.481 106.632C238.779 106.355 238.929 105.96 238.929 105.448V104.616C238.929 104.104 238.779 103.709 238.481 103.432C238.193 103.155 237.782 103.016 237.249 103.016H234.145V107.048H237.249ZM247.055 113.192C246.329 113.192 245.673 113.069 245.087 112.824C244.511 112.568 244.015 112.2 243.599 111.72C243.193 111.229 242.879 110.627 242.655 109.912C242.431 109.187 242.319 108.355 242.319 107.416C242.319 106.477 242.431 105.651 242.655 104.936C242.879 104.221 243.193 103.619 243.599 103.128C244.015 102.637 244.511 102.269 245.087 102.024C245.673 101.768 246.329 101.64 247.055 101.64C247.769 101.64 248.42 101.768 249.007 102.024C249.593 102.269 250.089 102.637 250.495 103.128C250.911 103.619 251.231 104.221 251.455 104.936C251.679 105.651 251.791 106.477 251.791 107.416C251.791 108.355 251.679 109.187 251.455 109.912C251.231 110.627 250.911 111.229 250.495 111.72C250.089 112.2 249.593 112.568 249.007 112.824C248.42 113.069 247.769 113.192 247.055 113.192ZM247.055 111.992C247.535 111.992 247.977 111.907 248.383 111.736C248.788 111.565 249.135 111.32 249.423 111C249.721 110.68 249.951 110.296 250.111 109.848C250.271 109.4 250.351 108.899 250.351 108.344V106.488C250.351 105.933 250.271 105.432 250.111 104.984C249.951 104.536 249.721 104.152 249.423 103.832C249.135 103.512 248.788 103.267 248.383 103.096C247.977 102.925 247.535 102.84 247.055 102.84C246.575 102.84 246.132 102.925 245.727 103.096C245.321 103.267 244.969 103.512 244.671 103.832C244.383 104.152 244.159 104.536 243.999 104.984C243.839 105.432 243.759 105.933 243.759 106.488V108.344C243.759 108.899 243.839 109.4 243.999 109.848C244.159 110.296 244.383 110.68 244.671 111C244.969 111.32 245.321 111.565 245.727 111.736C246.132 111.907 246.575 111.992 247.055 111.992ZM254.207 113V101.832H260.863V103.016H255.551V106.76H260.399V107.944H255.551V113H254.207ZM262.616 113V111.88H264.184V102.952H262.616V101.832H267.096V102.952H265.528V111.88H267.096V113H262.616ZM273.201 103.016V113H271.857V103.016H268.305V101.832H276.753V103.016H273.201ZM282.299 113V111.816H285.419V102.824H285.307L282.491 105.448L281.707 104.6L284.667 101.832H286.763V111.816H289.643V113H282.299Z" fill="#9CA5AB"/>
<line x1="303" y1="106.5" x2="466" y2="106.5" stroke="#9CA5AB"/>
<line x1="-4.37114e-08" y1="106.5" x2="168" y2="106.5" stroke="#9CA5AB"/>
<path d="M439 26.5C372 25.5 367.5 87.5 357.5 106.5C347.5 125.5 310.5 185.5 240 185C183.6 184.6 110.5 132.5 81 106.5C62.8333 92.5 21.3 64.6 0.5 65" stroke="#13C8A4" stroke-width="4"/>
<circle cx="79" cy="106" r="27" fill="#13C8A4"/>
<path d="M59.312 100.832H64.48C64.9387 100.832 65.3493 100.901 65.712 101.04C66.0853 101.179 66.4 101.371 66.656 101.616C66.912 101.861 67.104 102.165 67.232 102.528C67.3707 102.88 67.44 103.269 67.44 103.696C67.44 104.123 67.3813 104.485 67.264 104.784C67.1573 105.072 67.008 105.312 66.816 105.504C66.6347 105.696 66.4213 105.84 66.176 105.936C65.9413 106.032 65.696 106.085 65.44 106.096V106.192C65.6853 106.192 65.9467 106.24 66.224 106.336C66.512 106.432 66.7733 106.587 67.008 106.8C67.2533 107.003 67.456 107.269 67.616 107.6C67.776 107.92 67.856 108.32 67.856 108.8C67.856 109.248 67.7813 109.669 67.632 110.064C67.4933 110.448 67.296 110.784 67.04 111.072C66.784 111.36 66.48 111.589 66.128 111.76C65.776 111.92 65.392 112 64.976 112H59.312V100.832ZM61.424 110.208H64.368C64.7733 110.208 65.088 110.107 65.312 109.904C65.536 109.691 65.648 109.387 65.648 108.992V108.448C65.648 108.053 65.536 107.749 65.312 107.536C65.088 107.323 64.7733 107.216 64.368 107.216H61.424V110.208ZM61.424 105.488H64.032C64.416 105.488 64.7147 105.387 64.928 105.184C65.1413 104.971 65.248 104.677 65.248 104.304V103.808C65.248 103.435 65.1413 103.147 64.928 102.944C64.7147 102.731 64.416 102.624 64.032 102.624H61.424V105.488ZM74.7854 110.608H74.7054C74.6307 110.821 74.5294 111.024 74.4014 111.216C74.284 111.397 74.1294 111.563 73.9374 111.712C73.756 111.861 73.532 111.979 73.2654 112.064C73.0094 112.149 72.7107 112.192 72.3694 112.192C71.5054 112.192 70.844 111.909 70.3854 111.344C69.9267 110.779 69.6974 109.973 69.6974 108.928V103.648H71.7454V108.72C71.7454 109.296 71.8574 109.739 72.0814 110.048C72.3054 110.347 72.6627 110.496 73.1534 110.496C73.356 110.496 73.5534 110.469 73.7454 110.416C73.948 110.363 74.124 110.283 74.2734 110.176C74.4227 110.059 74.5454 109.92 74.6414 109.76C74.7374 109.589 74.7854 109.392 74.7854 109.168V103.648H76.8334V112H74.7854V110.608ZM84.3196 103.648H86.2396L82.8796 113.488C82.773 113.787 82.6503 114.043 82.5116 114.256C82.3836 114.48 82.229 114.661 82.0476 114.8C81.8663 114.939 81.6476 115.04 81.3916 115.104C81.1356 115.168 80.837 115.2 80.4956 115.2H79.2636V113.568H80.7676L81.1516 112.4L78.1596 103.648H80.1916L81.6476 108.064L82.1916 110.176H82.2876L82.8636 108.064L84.3196 103.648ZM91.6435 112V110.288H94.7155V102.352H94.5715L92.1395 105.232L90.8275 104.128L93.5955 100.832H96.7795V110.288H99.3395V112H91.6435Z" fill="white"/>
<circle cx="439" cy="27" r="27" fill="#EE7D8B"/>
<path d="M422.784 33.192C421.824 33.192 421.008 33.0213 420.336 32.68C419.675 32.3387 419.104 31.8907 418.624 31.336L420.048 29.96C420.432 30.408 420.859 30.7493 421.328 30.984C421.808 31.2187 422.336 31.336 422.912 31.336C423.563 31.336 424.053 31.1973 424.384 30.92C424.715 30.632 424.88 30.248 424.88 29.768C424.88 29.3947 424.773 29.0907 424.56 28.856C424.347 28.6213 423.947 28.4507 423.36 28.344L422.304 28.184C420.075 27.832 418.96 26.7493 418.96 24.936C418.96 24.4347 419.051 23.9813 419.232 23.576C419.424 23.1707 419.696 22.824 420.048 22.536C420.4 22.248 420.821 22.0293 421.312 21.88C421.813 21.72 422.379 21.64 423.008 21.64C423.851 21.64 424.587 21.7787 425.216 22.056C425.845 22.3333 426.384 22.744 426.832 23.288L425.392 24.648C425.115 24.3067 424.779 24.0293 424.384 23.816C423.989 23.6027 423.493 23.496 422.896 23.496C422.288 23.496 421.829 23.6133 421.52 23.848C421.221 24.072 421.072 24.392 421.072 24.808C421.072 25.2347 421.195 25.5493 421.44 25.752C421.685 25.9547 422.08 26.104 422.624 26.2L423.664 26.392C424.795 26.5947 425.627 26.9573 426.16 27.48C426.704 27.992 426.976 28.712 426.976 29.64C426.976 30.1733 426.88 30.6587 426.688 31.096C426.507 31.5227 426.235 31.896 425.872 32.216C425.52 32.5253 425.083 32.7653 424.56 32.936C424.048 33.1067 423.456 33.192 422.784 33.192ZM432.341 33.192C431.723 33.192 431.168 33.0907 430.677 32.888C430.197 32.6747 429.787 32.3813 429.445 32.008C429.115 31.624 428.859 31.1653 428.677 30.632C428.496 30.088 428.405 29.48 428.405 28.808C428.405 28.1467 428.491 27.5493 428.661 27.016C428.843 26.4827 429.099 26.0293 429.429 25.656C429.76 25.272 430.165 24.9787 430.645 24.776C431.125 24.5627 431.669 24.456 432.277 24.456C432.928 24.456 433.493 24.568 433.973 24.792C434.453 25.016 434.848 25.32 435.157 25.704C435.467 26.088 435.696 26.536 435.845 27.048C436.005 27.5493 436.085 28.088 436.085 28.664V29.336H430.533V29.544C430.533 30.152 430.704 30.6427 431.045 31.016C431.387 31.3787 431.893 31.56 432.565 31.56C433.077 31.56 433.493 31.4533 433.813 31.24C434.144 31.0267 434.437 30.7547 434.693 30.424L435.797 31.656C435.456 32.136 434.987 32.5147 434.389 32.792C433.803 33.0587 433.12 33.192 432.341 33.192ZM432.309 25.992C431.765 25.992 431.333 26.1733 431.013 26.536C430.693 26.8987 430.533 27.368 430.533 27.944V28.072H433.957V27.928C433.957 27.352 433.813 26.888 433.525 26.536C433.248 26.1733 432.843 25.992 432.309 25.992ZM439.935 33C439.231 33 438.714 32.824 438.383 32.472C438.052 32.12 437.887 31.624 437.887 30.984V21.16H439.935V31.368H441.039V33H439.935ZM444.529 33C443.825 33 443.308 32.824 442.977 32.472C442.646 32.12 442.481 31.624 442.481 30.984V21.16H444.529V31.368H445.633V33H444.529ZM458.517 33H450.773V31.048L454.277 27.976C454.875 27.4533 455.312 26.984 455.589 26.568C455.867 26.1413 456.005 25.6827 456.005 25.192V24.984C456.005 24.4933 455.845 24.12 455.525 23.864C455.205 23.5973 454.816 23.464 454.357 23.464C453.781 23.464 453.344 23.6293 453.045 23.96C452.747 24.28 452.533 24.6693 452.405 25.128L450.581 24.424C450.699 24.0507 450.864 23.6987 451.077 23.368C451.291 23.0267 451.557 22.728 451.877 22.472C452.208 22.216 452.592 22.0133 453.029 21.864C453.467 21.7147 453.968 21.64 454.533 21.64C455.12 21.64 455.643 21.7253 456.101 21.896C456.56 22.056 456.944 22.2853 457.253 22.584C457.573 22.8827 457.813 23.2347 457.973 23.64C458.144 24.0453 458.229 24.488 458.229 24.968C458.229 25.4373 458.155 25.864 458.005 26.248C457.856 26.632 457.653 27 457.397 27.352C457.141 27.6933 456.843 28.024 456.501 28.344C456.16 28.6533 455.797 28.968 455.413 29.288L453.061 31.224H458.517V33Z" fill="white"/>
<circle cx="357" cy="106" r="27" fill="#EE7D8B"/>
<path d="M340.784 112.192C339.824 112.192 339.008 112.021 338.336 111.68C337.675 111.339 337.104 110.891 336.624 110.336L338.048 108.96C338.432 109.408 338.859 109.749 339.328 109.984C339.808 110.219 340.336 110.336 340.912 110.336C341.563 110.336 342.053 110.197 342.384 109.92C342.715 109.632 342.88 109.248 342.88 108.768C342.88 108.395 342.773 108.091 342.56 107.856C342.347 107.621 341.947 107.451 341.36 107.344L340.304 107.184C338.075 106.832 336.96 105.749 336.96 103.936C336.96 103.435 337.051 102.981 337.232 102.576C337.424 102.171 337.696 101.824 338.048 101.536C338.4 101.248 338.821 101.029 339.312 100.88C339.813 100.72 340.379 100.64 341.008 100.64C341.851 100.64 342.587 100.779 343.216 101.056C343.845 101.333 344.384 101.744 344.832 102.288L343.392 103.648C343.115 103.307 342.779 103.029 342.384 102.816C341.989 102.603 341.493 102.496 340.896 102.496C340.288 102.496 339.829 102.613 339.52 102.848C339.221 103.072 339.072 103.392 339.072 103.808C339.072 104.235 339.195 104.549 339.44 104.752C339.685 104.955 340.08 105.104 340.624 105.2L341.664 105.392C342.795 105.595 343.627 105.957 344.16 106.48C344.704 106.992 344.976 107.712 344.976 108.64C344.976 109.173 344.88 109.659 344.688 110.096C344.507 110.523 344.235 110.896 343.872 111.216C343.52 111.525 343.083 111.765 342.56 111.936C342.048 112.107 341.456 112.192 340.784 112.192ZM350.341 112.192C349.723 112.192 349.168 112.091 348.677 111.888C348.197 111.675 347.787 111.381 347.445 111.008C347.115 110.624 346.859 110.165 346.677 109.632C346.496 109.088 346.405 108.48 346.405 107.808C346.405 107.147 346.491 106.549 346.661 106.016C346.843 105.483 347.099 105.029 347.429 104.656C347.76 104.272 348.165 103.979 348.645 103.776C349.125 103.563 349.669 103.456 350.277 103.456C350.928 103.456 351.493 103.568 351.973 103.792C352.453 104.016 352.848 104.32 353.157 104.704C353.467 105.088 353.696 105.536 353.845 106.048C354.005 106.549 354.085 107.088 354.085 107.664V108.336H348.533V108.544C348.533 109.152 348.704 109.643 349.045 110.016C349.387 110.379 349.893 110.56 350.565 110.56C351.077 110.56 351.493 110.453 351.813 110.24C352.144 110.027 352.437 109.755 352.693 109.424L353.797 110.656C353.456 111.136 352.987 111.515 352.389 111.792C351.803 112.059 351.12 112.192 350.341 112.192ZM350.309 104.992C349.765 104.992 349.333 105.173 349.013 105.536C348.693 105.899 348.533 106.368 348.533 106.944V107.072H351.957V106.928C351.957 106.352 351.813 105.888 351.525 105.536C351.248 105.173 350.843 104.992 350.309 104.992ZM357.935 112C357.231 112 356.714 111.824 356.383 111.472C356.052 111.12 355.887 110.624 355.887 109.984V100.16H357.935V110.368H359.039V112H357.935ZM362.529 112C361.825 112 361.308 111.824 360.977 111.472C360.646 111.12 360.481 110.624 360.481 109.984V100.16H362.529V110.368H363.633V112H362.529ZM369.237 112V110.288H372.309V102.352H372.165L369.733 105.232L368.421 104.128L371.189 100.832H374.373V110.288H376.933V112H369.237Z" fill="white"/>
<circle cx="240" cy="185" r="27" fill="#13C8A4"/>
<path d="M220.312 179.832H225.48C225.939 179.832 226.349 179.901 226.712 180.04C227.085 180.179 227.4 180.371 227.656 180.616C227.912 180.861 228.104 181.165 228.232 181.528C228.371 181.88 228.44 182.269 228.44 182.696C228.44 183.123 228.381 183.485 228.264 183.784C228.157 184.072 228.008 184.312 227.816 184.504C227.635 184.696 227.421 184.84 227.176 184.936C226.941 185.032 226.696 185.085 226.44 185.096V185.192C226.685 185.192 226.947 185.24 227.224 185.336C227.512 185.432 227.773 185.587 228.008 185.8C228.253 186.003 228.456 186.269 228.616 186.6C228.776 186.92 228.856 187.32 228.856 187.8C228.856 188.248 228.781 188.669 228.632 189.064C228.493 189.448 228.296 189.784 228.04 190.072C227.784 190.36 227.48 190.589 227.128 190.76C226.776 190.92 226.392 191 225.976 191H220.312V179.832ZM222.424 189.208H225.368C225.773 189.208 226.088 189.107 226.312 188.904C226.536 188.691 226.648 188.387 226.648 187.992V187.448C226.648 187.053 226.536 186.749 226.312 186.536C226.088 186.323 225.773 186.216 225.368 186.216H222.424V189.208ZM222.424 184.488H225.032C225.416 184.488 225.715 184.387 225.928 184.184C226.141 183.971 226.248 183.677 226.248 183.304V182.808C226.248 182.435 226.141 182.147 225.928 181.944C225.715 181.731 225.416 181.624 225.032 181.624H222.424V184.488ZM235.785 189.608H235.705C235.631 189.821 235.529 190.024 235.401 190.216C235.284 190.397 235.129 190.563 234.937 190.712C234.756 190.861 234.532 190.979 234.265 191.064C234.009 191.149 233.711 191.192 233.369 191.192C232.505 191.192 231.844 190.909 231.385 190.344C230.927 189.779 230.697 188.973 230.697 187.928V182.648H232.745V187.72C232.745 188.296 232.857 188.739 233.081 189.048C233.305 189.347 233.663 189.496 234.153 189.496C234.356 189.496 234.553 189.469 234.745 189.416C234.948 189.363 235.124 189.283 235.273 189.176C235.423 189.059 235.545 188.92 235.641 188.76C235.737 188.589 235.785 188.392 235.785 188.168V182.648H237.833V191H235.785V189.608ZM245.32 182.648H247.24L243.88 192.488C243.773 192.787 243.65 193.043 243.512 193.256C243.384 193.48 243.229 193.661 243.048 193.8C242.866 193.939 242.648 194.04 242.392 194.104C242.136 194.168 241.837 194.2 241.496 194.2H240.264V192.568H241.768L242.152 191.4L239.16 182.648H241.192L242.648 187.064L243.192 189.176H243.288L243.864 187.064L245.32 182.648ZM259.924 191H252.18V189.048L255.684 185.976C256.281 185.453 256.718 184.984 256.996 184.568C257.273 184.141 257.412 183.683 257.412 183.192V182.984C257.412 182.493 257.252 182.12 256.932 181.864C256.612 181.597 256.222 181.464 255.764 181.464C255.188 181.464 254.75 181.629 254.452 181.96C254.153 182.28 253.94 182.669 253.812 183.128L251.988 182.424C252.105 182.051 252.27 181.699 252.484 181.368C252.697 181.027 252.964 180.728 253.284 180.472C253.614 180.216 253.998 180.013 254.436 179.864C254.873 179.715 255.374 179.64 255.94 179.64C256.526 179.64 257.049 179.725 257.508 179.896C257.966 180.056 258.35 180.285 258.66 180.584C258.98 180.883 259.22 181.235 259.38 181.64C259.55 182.045 259.635 182.488 259.635 182.968C259.635 183.437 259.561 183.864 259.411 184.248C259.262 184.632 259.06 185 258.804 185.352C258.548 185.693 258.249 186.024 257.908 186.344C257.566 186.653 257.204 186.968 256.82 187.288L254.468 189.224H259.924V191Z" fill="white"/>
</svg>
