<svg width="156" height="100" viewBox="0 0 156 100" fill="none" xmlns="http://www.w3.org/2000/svg"><path fill="#fff" d="M0 0h156v100H0z"/><path d="M17.79 77.58h-4.66V75.5h4.66V70.7h2.1v4.79h4.68v2.08H19.9v4.76h-2.11v-4.76zm9.5.12c0-6.7 2.73-10.06 8.2-10.06.85 0 1.58.07 2.17.2v2.3a7.44 7.44 0 00-2.06-.26c-1.83 0-3.21.5-4.14 1.48-.92.98-1.42 2.56-1.5 4.73h.14c.37-.63.89-1.12 1.55-1.46A4.94 4.94 0 0134 74.1c1.55 0 2.76.48 3.63 1.43.87.95 1.3 2.25 1.3 3.88 0 1.8-.5 3.22-1.51 4.27a5.43 5.43 0 01-4.1 1.55c-1.23 0-2.3-.29-3.2-.87-.91-.6-1.6-1.46-2.1-2.58-.49-1.14-.73-2.5-.73-4.08zm5.98 5.26c.94 0 1.67-.3 2.18-.91.51-.61.77-1.48.77-2.62 0-.98-.24-1.75-.72-2.32-.48-.56-1.2-.84-2.16-.84-.6 0-1.14.13-1.64.39-.5.25-.9.6-1.18 1.04-.3.44-.44.89-.44 1.35 0 1.1.3 2.03.9 2.79.6.75 1.36 1.12 2.29 1.12zm8.67.58c0-.58.15-1.01.45-1.32.3-.3.72-.45 1.28-.45.58 0 1 .16 1.3.48.3.3.45.74.45 1.29s-.15 1-.46 1.32c-.3.32-.72.48-1.29.48-.56 0-.99-.16-1.28-.48-.3-.32-.45-.76-.45-1.32zm6.63-5.84c0-6.7 2.73-10.06 8.2-10.06.85 0 1.58.07 2.17.2v2.3a7.44 7.44 0 00-2.06-.26c-1.83 0-3.21.5-4.14 1.48-.92.98-1.42 2.56-1.5 4.73h.15c.36-.63.88-1.12 1.54-1.46a4.94 4.94 0 012.35-.53c1.55 0 2.76.48 3.63 1.43.87.95 1.3 2.25 1.3 3.88 0 1.8-.5 3.22-1.51 4.27a5.43 5.43 0 01-4.1 1.55c-1.23 0-2.3-.29-3.2-.87-.9-.6-1.6-1.46-2.1-2.58-.48-1.14-.73-2.5-.73-4.08zm5.98 5.26c.94 0 1.67-.3 2.18-.91.51-.61.77-1.48.77-2.62 0-.98-.24-1.75-.72-2.32-.48-.56-1.2-.84-2.16-.84-.6 0-1.14.13-1.64.39-.5.25-.9.6-1.18 1.04-.3.44-.44.89-.44 1.35 0 1.1.3 2.03.9 2.79.6.75 1.36 1.12 2.29 1.12zM73.69 71.8a4 4 0 01-.95 2.72 4.8 4.8 0 01-2.68 1.46v.09c1.38.17 2.41.6 3.1 1.29a3.65 3.65 0 011.03 2.72c0 1.65-.58 2.92-1.75 3.82-1.16.89-2.82 1.33-4.97 1.33-1.9 0-3.5-.3-4.8-.92v-2.45a10.97 10.97 0 004.65 1.12c1.33 0 2.32-.24 2.98-.73.66-.5.98-1.26.98-2.29 0-.91-.36-1.58-1.09-2.01-.72-.43-1.86-.65-3.42-.65h-1.49v-2.24h1.52c2.73 0 4.1-.94 4.1-2.83 0-.74-.24-1.3-.72-1.7-.47-.4-1.18-.6-2.1-.6-.66 0-1.28.1-1.88.28-.6.18-1.32.54-2.14 1.07l-1.34-1.92a8.98 8.98 0 015.47-1.74c1.73 0 3.07.37 4.04 1.11a3.65 3.65 0 011.46 3.07zm5.43 1.2c0 1.16.12 2.03.34 2.6.23.57.6.86 1.12.86 1.03 0 1.54-1.16 1.54-3.46s-.51-3.46-1.54-3.46c-.52 0-.9.29-1.12.86a7.47 7.47 0 00-.34 2.6zm5.28-.02c0 1.8-.33 3.14-.98 4.05-.64.9-1.59 1.35-2.84 1.35-1.2 0-2.11-.47-2.77-1.4-.65-.93-.97-2.27-.97-4 0-3.57 1.24-5.36 3.74-5.36 1.22 0 2.16.47 2.82 1.4.66.92 1 2.24 1 3.96zm5.88 6.86c0 1.17.11 2.04.34 2.62.23.58.6.86 1.12.86 1.03 0 1.54-1.16 1.54-3.48 0-2.29-.51-3.43-1.54-3.43-.51 0-.89.28-1.12.84a7.37 7.37 0 00-.34 2.6zm5.27 0c0 1.8-.32 3.15-.97 4.05-.65.9-1.6 1.34-2.84 1.34a3.2 3.2 0 01-2.76-1.38c-.66-.93-.99-2.26-.99-4 0-3.58 1.25-5.36 3.75-5.36 1.2 0 2.14.46 2.8 1.38.68.92 1.01 2.25 1.01 3.97zm-3.48-11.97L82.57 85h-2.28l9.5-17.13h2.28z" fill="#00A59A"/><path d="M14.9 48.46h.6c.55 0 .97-.1 1.25-.32.27-.23.41-.55.41-.97 0-.43-.12-.74-.35-.94-.23-.2-.6-.3-1.09-.3h-.83v2.53zm4.1-1.35c0 .92-.3 1.62-.87 2.11-.58.49-1.4.73-2.46.73h-.78V53h-1.81v-8.57h2.73c1.04 0 1.83.23 2.37.68.54.44.82 1.1.82 2zm5.13-.78c.24 0 .44.01.6.05l-.13 1.67a2.05 2.05 0 00-.53-.05 1.9 1.9 0 00-1.34.44c-.31.29-.47.7-.47 1.23V53h-1.79v-6.55h1.36l.26 1.1h.09c.2-.37.47-.66.82-.88.35-.23.72-.34 1.13-.34zm3.22 3.38c0 .65.1 1.14.31 1.47.22.34.56.5 1.05.5.47 0 .81-.16 1.02-.49.21-.33.32-.82.32-1.48 0-.65-.1-1.13-.32-1.46-.21-.32-.56-.48-1.04-.48-.47 0-.82.16-1.03.48-.2.32-.31.81-.31 1.46zm4.52 0c0 1.07-.28 1.9-.84 2.5-.56.6-1.34.9-2.35.9a3.3 3.3 0 01-1.66-.4 2.77 2.77 0 01-1.11-1.2 3.99 3.99 0 01-.39-1.8c0-1.07.28-1.9.84-2.5.56-.59 1.35-.88 2.36-.88.63 0 1.18.13 1.66.4.48.28.85.67 1.1 1.18.27.52.4 1.12.4 1.8zm5.1-1.92h-1.54V53h-1.8v-5.2h-.98v-.87l.99-.48v-.48c0-.75.18-1.3.55-1.64.37-.34.95-.51 1.76-.51.62 0 1.17.09 1.65.27l-.46 1.32c-.36-.12-.69-.17-1-.17-.25 0-.43.07-.54.22a.92.92 0 00-.17.58v.4h1.54v1.35zm.95-3.03c0-.59.33-.88.97-.88.65 0 .98.3.98.88 0 .27-.08.49-.25.65-.16.15-.4.22-.73.22-.64 0-.97-.29-.97-.87zM39.8 53h-1.8v-6.55h1.8V53zm4.63-1.3c.31 0 .69-.08 1.12-.21v1.33c-.44.2-.99.3-1.64.3-.71 0-1.23-.18-1.56-.54-.32-.37-.49-.9-.49-1.63v-3.16H41v-.75l.98-.6.52-1.39h1.14v1.4h1.83v1.34h-1.83v3.16c0 .25.07.44.21.56.15.12.34.18.57.18zm7.36 1.3h-1.79v-9.12h1.79V53zm6.04 0l-.35-.9h-.04c-.3.39-.61.65-.93.8-.32.14-.73.22-1.25.22-.63 0-1.12-.18-1.48-.54-.36-.36-.54-.87-.54-1.54 0-.7.24-1.2.72-1.53a4.22 4.22 0 012.2-.55l1.14-.04v-.29c0-.66-.34-1-1.02-1-.52 0-1.14.17-1.84.48l-.6-1.2c.76-.4 1.6-.6 2.51-.6.88 0 1.56.2 2.03.58.46.38.7.96.7 1.74V53h-1.25zm-.53-3.04l-.69.03c-.52.01-.9.1-1.16.28-.25.17-.38.43-.38.78 0 .5.29.76.87.76.41 0 .74-.12.99-.36s.37-.55.37-.95v-.54zm8.2 1.1a1.8 1.8 0 01-.7 1.53c-.47.35-1.17.53-2.1.53a6.4 6.4 0 01-1.22-.1 4.49 4.49 0 01-.94-.28v-1.48a6.25 6.25 0 002.22.55c.65 0 .97-.19.97-.56a.46.46 0 00-.13-.34 1.76 1.76 0 00-.44-.3c-.21-.11-.5-.24-.85-.4-.5-.2-.87-.4-1.11-.58a1.7 1.7 0 01-.52-.61 2.1 2.1 0 01-.15-.87c0-.58.22-1.03.67-1.34a3.3 3.3 0 011.92-.48c.79 0 1.56.17 2.3.51l-.53 1.3a9.89 9.89 0 00-.92-.35 2.89 2.89 0 00-.88-.14c-.53 0-.79.14-.79.43 0 .16.09.3.25.41.17.12.55.3 1.12.53.51.2.89.4 1.13.58.24.18.41.38.52.62.12.23.17.51.17.83zm4.15.63c.31 0 .69-.06 1.12-.2v1.33c-.44.2-.99.3-1.64.3-.71 0-1.23-.18-1.56-.54-.33-.37-.49-.9-.49-1.63v-3.16h-.85v-.75l.98-.6.52-1.39h1.14v1.4h1.83v1.34h-1.83v3.16c0 .25.07.44.21.56.14.12.33.18.57.18zM81.08 53h-1.8v-3.83c0-.47-.07-.82-.23-1.06-.16-.23-.4-.35-.75-.35-.45 0-.78.16-1 .5-.2.34-.3.89-.3 1.66V53H75.2v-6.55h1.37l.24.84h.1c.17-.3.43-.54.76-.7.33-.18.71-.26 1.14-.26.98 0 1.64.32 2 .96h.15c.18-.3.43-.54.77-.71a2.6 2.6 0 011.16-.25c.75 0 1.3.19 1.69.57.38.38.57.99.57 1.83V53h-1.8v-3.83c0-.47-.07-.82-.23-1.06-.16-.23-.4-.35-.75-.35-.43 0-.76.15-.98.46-.22.32-.32.81-.32 1.5V53zm7.34-3.29c0 .65.1 1.14.32 1.47.22.34.56.5 1.04.5s.82-.16 1.03-.49c.2-.33.31-.82.31-1.48 0-.65-.1-1.13-.31-1.46-.21-.32-.56-.48-1.04-.48s-.82.16-1.03.48c-.21.32-.32.81-.32 1.46zm4.53 0c0 1.07-.28 1.9-.84 2.5-.56.6-1.35.9-2.35.9a3.3 3.3 0 01-1.66-.4 2.77 2.77 0 01-1.11-1.2 3.99 3.99 0 01-.39-1.8c0-1.07.28-1.9.84-2.5.56-.59 1.34-.88 2.35-.88.63 0 1.19.13 1.67.4.48.28.85.67 1.1 1.18.26.52.4 1.12.4 1.8zm7.53 3.29h-1.8v-3.83c0-.47-.07-.82-.24-1.06-.17-.23-.44-.35-.8-.35-.5 0-.87.16-1.09.5-.22.33-.33.88-.33 1.66V53h-1.79v-6.55h1.36l.25.84h.1c.2-.32.47-.56.82-.72a2.8 2.8 0 011.19-.24c.76 0 1.34.2 1.73.62.4.4.6 1 .6 1.78V53zm4.6-1.3c.3 0 .68-.08 1.12-.21v1.33a4 4 0 01-1.64.3c-.71 0-1.24-.18-1.56-.54-.33-.37-.49-.9-.49-1.63v-3.16h-.86v-.75l.99-.6.51-1.39h1.15v1.4h1.83v1.34h-1.83v3.16c0 .25.07.44.2.56.15.12.34.18.58.18zm8.5 1.3h-1.79v-3.83c0-.94-.35-1.41-1.05-1.41-.5 0-.86.17-1.09.5-.22.35-.33.9-.33 1.66V53h-1.79v-9.12h1.79v1.86l-.04 1.02-.04.53h.09c.4-.64 1.03-.96 1.9-.96.77 0 1.35.2 1.75.62.4.41.6 1 .6 1.78V53z" fill="#6B7B8B"/><path d="M44 25h-2.07l-2-3.24L37.96 25H36l2.84-4.42-2.66-4.15h2l1.85 3.09 1.81-3.09h1.96l-2.7 4.25L44 25zm2.9-4.76h.58c.58 0 1-.1 1.28-.3.27-.18.4-.48.4-.9 0-.4-.13-.69-.42-.86-.27-.17-.7-.26-1.3-.26h-.54v2.32zm0 1.47V25h-1.82v-8.57h2.5c1.16 0 2.02.22 2.58.64.56.42.84 1.07.84 1.93 0 .5-.14.95-.42 1.35-.27.39-.67.7-1.17.92L51.93 25H49.9l-2.04-3.29h-.97zm7.92-1.25h.6c.56 0 .97-.1 1.25-.32.28-.23.42-.55.42-.97 0-.43-.12-.74-.35-.94-.23-.2-.6-.3-1.1-.3h-.82v2.53zm4.1-1.35c0 .92-.29 1.62-.87 2.11-.57.49-1.39.73-2.45.73h-.78V25H53v-8.57h2.74c1.04 0 1.83.23 2.37.68.54.44.81 1.1.81 2zm5.44-2.68L61.16 25h-1.62l3.2-8.57h1.62zm1.14 0h2.66c1.22 0 2.1.18 2.64.53.56.34.83.89.83 1.64 0 .51-.12.93-.36 1.26-.24.33-.56.53-.96.6v.05c.55.12.94.35 1.17.68.25.33.37.77.37 1.33 0 .78-.29 1.39-.85 1.82-.56.44-1.33.66-2.3.66h-3.2v-8.57zm1.81 3.4h1.06c.49 0 .84-.08 1.06-.23.23-.15.34-.4.34-.76 0-.33-.12-.56-.37-.7a2.27 2.27 0 00-1.13-.22h-.96v1.9zm0 1.44v2.23h1.19c.5 0 .87-.1 1.1-.29.24-.19.36-.48.36-.88 0-.7-.5-1.06-1.52-1.06H67.3zM76.86 25h-1.81v-7.05h-2.33v-1.52h6.47v1.52h-2.33V25zm7.29-7.18c-.69 0-1.22.26-1.6.78a3.57 3.57 0 00-.55 2.14c0 1.91.71 2.87 2.15 2.87.6 0 1.33-.15 2.18-.46v1.53c-.7.3-1.49.44-2.35.44-1.25 0-2.2-.38-2.86-1.13-.66-.76-1-1.85-1-3.26 0-.9.17-1.67.5-2.34A3.5 3.5 0 0182 16.85c.6-.36 1.32-.54 2.14-.54.83 0 1.66.2 2.5.6l-.58 1.48a9.72 9.72 0 00-.97-.4 2.88 2.88 0 00-.95-.17zm7.13-1.39h2.66c1.22 0 2.1.18 2.65.53.55.34.82.89.82 1.64 0 .51-.12.93-.36 1.26-.24.33-.56.53-.96.6v.05c.55.12.94.35 1.18.68.24.33.36.77.36 1.33 0 .78-.28 1.39-.85 1.82-.56.44-1.33.66-2.3.66h-3.2v-8.57zm1.81 3.4h1.06c.5 0 .85-.08 1.06-.23.23-.15.34-.4.34-.76 0-.33-.12-.56-.36-.7a2.27 2.27 0 00-1.14-.22h-.96v1.9zm0 1.44v2.23h1.19c.5 0 .87-.1 1.1-.29.24-.19.36-.48.36-.88 0-.7-.5-1.06-1.52-1.06h-1.13zm7.53.44c0 .65.1 1.14.32 1.47.21.34.56.5 1.04.5s.82-.16 1.03-.5c.2-.32.31-.81.31-1.47 0-.65-.1-1.13-.31-1.46-.21-.32-.56-.48-1.04-.48s-.82.16-1.03.48c-.21.32-.32.81-.32 1.46zm4.53 0c0 1.07-.28 1.9-.84 2.5-.56.6-1.35.9-2.35.9a3.3 3.3 0 01-1.66-.4 2.77 2.77 0 01-1.11-1.2 3.99 3.99 0 01-.39-1.8c0-1.07.28-1.9.84-2.5.56-.59 1.34-.88 2.35-.88.63 0 1.19.13 1.67.4.48.28.85.67 1.1 1.18.26.52.4 1.12.4 1.8zm4.24 1.98c.31 0 .69-.07 1.12-.2v1.33c-.44.2-.99.3-1.64.3-.71 0-1.23-.18-1.56-.54-.33-.37-.49-.9-.49-1.63v-3.16h-.85v-.75l.98-.6.52-1.39h1.14v1.4h1.83v1.34h-1.83v3.16c0 .25.07.44.21.56.15.12.33.18.57.18z" fill="#2F4050"/><path d="M16 20a1 1 0 110 2 1 1 0 010-2z" fill="#2F4050"/><path d="M24 20a1 1 0 110 2 1 1 0 010-2z" fill="#2F4050"/><path fill-rule="evenodd" clip-rule="evenodd" d="M18 13a1 1 0 011-1h2a1 1 0 011 1v2h-1v2h2v-1a1 1 0 112 0v1h2a1 1 0 011 1v6a4 4 0 01-4 4h-8a4 4 0 01-4-4v-6a1 1 0 011-1h2v-1a1 1 0 112 0v1h2v-2h-1v-2zm-3 6a1 1 0 00-1 1v2a1 1 0 001 1h10a1 1 0 001-1v-2a1 1 0 00-1-1H15zm3 6.5c0-.28.22-.5.5-.5h3a.5.5 0 010 1h-3a.5.5 0 01-.5-.5z" fill="#2F4050"/></svg>