<svg width="469" height="269" viewBox="0 0 469 269" fill="none" xmlns="http://www.w3.org/2000/svg">
<path d="M6.248 23.016V33H4.904V23.016H1.352V21.832H9.8V23.016H6.248ZM17.5894 33L16.4694 29.704H11.9574L10.8374 33H9.47738L13.3814 21.832H15.0934L18.9974 33H17.5894ZM14.2454 23.08H14.1654L12.2774 28.52H16.1334L14.2454 23.08ZM23.7754 27.512L22.1914 29.272V33H20.8474V21.832H22.1914V27.768H22.2394L23.8394 25.832L27.2154 21.832H28.8634L24.7034 26.616L29.1514 33H27.4874L23.7754 27.512ZM30.988 33V21.832H37.804V23.016H32.332V26.76H37.484V27.944H32.332V31.816H37.804V33H30.988ZM44.0974 33V21.832H48.5454C49.548 21.832 50.316 22.12 50.8494 22.696C51.3934 23.2613 51.6654 24.04 51.6654 25.032C51.6654 26.024 51.3934 26.808 50.8494 27.384C50.316 27.9493 49.548 28.232 48.5454 28.232H45.4414V33H44.0974ZM45.4414 27.048H48.5454C49.0787 27.048 49.4894 26.9093 49.7774 26.632C50.076 26.3547 50.2254 25.96 50.2254 25.448V24.616C50.2254 24.104 50.076 23.7093 49.7774 23.432C49.4894 23.1547 49.0787 23.016 48.5454 23.016H45.4414V27.048ZM55.1445 33H53.8005V21.832H58.2485C59.2298 21.832 59.9925 22.104 60.5365 22.648C61.0912 23.192 61.3685 23.976 61.3685 25C61.3685 25.8213 61.1765 26.4987 60.7925 27.032C60.4192 27.5547 59.8645 27.9013 59.1285 28.072L61.6885 33H60.1685L57.7525 28.2H55.1445V33ZM58.2485 27.048C58.7818 27.048 59.1925 26.9093 59.4805 26.632C59.7792 26.3547 59.9285 25.96 59.9285 25.448V24.616C59.9285 24.104 59.7792 23.7093 59.4805 23.432C59.1925 23.1547 58.7818 23.016 58.2485 23.016H55.1445V27.048H58.2485ZM68.0546 33.192C67.3293 33.192 66.6733 33.0693 66.0866 32.824C65.5106 32.568 65.0146 32.2 64.5986 31.72C64.1933 31.2293 63.8786 30.6267 63.6546 29.912C63.4306 29.1867 63.3186 28.3547 63.3186 27.416C63.3186 26.4773 63.4306 25.6507 63.6546 24.936C63.8786 24.2213 64.1933 23.6187 64.5986 23.128C65.0146 22.6373 65.5106 22.2693 66.0866 22.024C66.6733 21.768 67.3293 21.64 68.0546 21.64C68.7693 21.64 69.42 21.768 70.0066 22.024C70.5933 22.2693 71.0893 22.6373 71.4946 23.128C71.9106 23.6187 72.2306 24.2213 72.4546 24.936C72.6786 25.6507 72.7906 26.4773 72.7906 27.416C72.7906 28.3547 72.6786 29.1867 72.4546 29.912C72.2306 30.6267 71.9106 31.2293 71.4946 31.72C71.0893 32.2 70.5933 32.568 70.0066 32.824C69.42 33.0693 68.7693 33.192 68.0546 33.192ZM68.0546 31.992C68.5346 31.992 68.9773 31.9067 69.3826 31.736C69.788 31.5653 70.1346 31.32 70.4226 31C70.7213 30.68 70.9506 30.296 71.1106 29.848C71.2706 29.4 71.3506 28.8987 71.3506 28.344V26.488C71.3506 25.9333 71.2706 25.432 71.1106 24.984C70.9506 24.536 70.7213 24.152 70.4226 23.832C70.1346 23.512 69.788 23.2667 69.3826 23.096C68.9773 22.9253 68.5346 22.84 68.0546 22.84C67.5746 22.84 67.132 22.9253 66.7266 23.096C66.3213 23.2667 65.9693 23.512 65.6706 23.832C65.3826 24.152 65.1586 24.536 64.9986 24.984C64.8386 25.432 64.7586 25.9333 64.7586 26.488V28.344C64.7586 28.8987 64.8386 29.4 64.9986 29.848C65.1586 30.296 65.3826 30.68 65.6706 31C65.9693 31.32 66.3213 31.5653 66.7266 31.736C67.132 31.9067 67.5746 31.992 68.0546 31.992ZM75.2068 33V21.832H81.8628V23.016H76.5508V26.76H81.3988V27.944H76.5508V33H75.2068ZM83.6163 33V31.88H85.1843V22.952H83.6163V21.832H88.0963V22.952H86.5283V31.88H88.0963V33H83.6163ZM94.2011 23.016V33H92.8571V23.016H89.3051V21.832H97.7531V23.016H94.2011ZM103.379 33V21.832H104.723V31.816H109.475V33H103.379ZM111.394 33V21.832H118.21V23.016H112.738V26.76H117.89V27.944H112.738V31.816H118.21V33H111.394ZM123.11 33L119.398 21.832H120.838L122.678 27.464L123.91 31.656H123.99L125.254 27.464L127.11 21.832H128.502L124.742 33H123.11ZM130.316 33V21.832H137.132V23.016H131.66V26.76H136.812V27.944H131.66V31.816H137.132V33H130.316ZM139.644 33V21.832H140.988V31.816H145.74V33H139.644Z" fill="#9CA5AB"/>
<line x1="159" y1="26.5" x2="467" y2="26.5" stroke="#9CA5AB"/>
<path d="M2.488 191V179.832H9.304V181.016H3.832V184.76H8.984V185.944H3.832V189.816H9.304V191H2.488ZM19.7521 191H18.1361L15.2081 186.312H15.1761L12.2481 191H10.7121L14.3601 185.32L10.8081 179.832H12.4241L15.2241 184.28H15.2561L18.1201 179.832H19.6561L16.0721 185.272L19.7521 191ZM25.3886 181.016V191H24.0446V181.016H20.4926V179.832H28.9406V181.016H25.3886ZM32.1289 191H30.7849V179.832H35.2329C36.2142 179.832 36.9769 180.104 37.5209 180.648C38.0755 181.192 38.3529 181.976 38.3529 183C38.3529 183.821 38.1609 184.499 37.7769 185.032C37.4035 185.555 36.8489 185.901 36.1129 186.072L38.6729 191H37.1529L34.7369 186.2H32.1289V191ZM35.2329 185.048C35.7662 185.048 36.1769 184.909 36.4649 184.632C36.7635 184.355 36.9129 183.96 36.9129 183.448V182.616C36.9129 182.104 36.7635 181.709 36.4649 181.432C36.1769 181.155 35.7662 181.016 35.2329 181.016H32.1289V185.048H35.2329ZM48.0113 191L46.8913 187.704H42.3793L41.2593 191H39.8993L43.8033 179.832H45.5153L49.4193 191H48.0113ZM44.6673 181.08H44.5873L42.6993 186.52H46.5553L44.6673 181.08ZM59.2265 191.192C58.5012 191.192 57.8452 191.069 57.2585 190.824C56.6825 190.568 56.1865 190.2 55.7705 189.72C55.3652 189.229 55.0505 188.627 54.8265 187.912C54.6025 187.187 54.4905 186.355 54.4905 185.416C54.4905 184.477 54.6025 183.651 54.8265 182.936C55.0505 182.221 55.3652 181.619 55.7705 181.128C56.1865 180.637 56.6825 180.269 57.2585 180.024C57.8452 179.768 58.5012 179.64 59.2265 179.64C59.9412 179.64 60.5918 179.768 61.1785 180.024C61.7652 180.269 62.2612 180.637 62.6665 181.128C63.0825 181.619 63.4025 182.221 63.6265 182.936C63.8505 183.651 63.9625 184.477 63.9625 185.416C63.9625 186.355 63.8505 187.187 63.6265 187.912C63.4025 188.627 63.0825 189.229 62.6665 189.72C62.2612 190.2 61.7652 190.568 61.1785 190.824C60.5918 191.069 59.9412 191.192 59.2265 191.192ZM59.2265 189.992C59.7065 189.992 60.1492 189.907 60.5545 189.736C60.9598 189.565 61.3065 189.32 61.5945 189C61.8932 188.68 62.1225 188.296 62.2825 187.848C62.4425 187.4 62.5225 186.899 62.5225 186.344V184.488C62.5225 183.933 62.4425 183.432 62.2825 182.984C62.1225 182.536 61.8932 182.152 61.5945 181.832C61.3065 181.512 60.9598 181.267 60.5545 181.096C60.1492 180.925 59.7065 180.84 59.2265 180.84C58.7465 180.84 58.3038 180.925 57.8985 181.096C57.4932 181.267 57.1412 181.512 56.8425 181.832C56.5545 182.152 56.3305 182.536 56.1705 182.984C56.0105 183.432 55.9305 183.933 55.9305 184.488V186.344C55.9305 186.899 56.0105 187.4 56.1705 187.848C56.3305 188.296 56.5545 188.68 56.8425 189C57.1412 189.32 57.4932 189.565 57.8985 189.736C58.3038 189.907 58.7465 189.992 59.2265 189.992ZM67.7226 191H66.3786V179.832H70.8266C71.808 179.832 72.5706 180.104 73.1146 180.648C73.6693 181.192 73.9466 181.976 73.9466 183C73.9466 183.821 73.7546 184.499 73.3706 185.032C72.9973 185.555 72.4426 185.901 71.7066 186.072L74.2666 191H72.7466L70.3306 186.2H67.7226V191ZM70.8266 185.048C71.36 185.048 71.7706 184.909 72.0586 184.632C72.3573 184.355 72.5066 183.96 72.5066 183.448V182.616C72.5066 182.104 72.3573 181.709 72.0586 181.432C71.7706 181.155 71.36 181.016 70.8266 181.016H67.7226V185.048H70.8266ZM76.613 179.832H80.357C81.0503 179.832 81.6797 179.949 82.245 180.184C82.8103 180.419 83.2903 180.771 83.685 181.24C84.0903 181.699 84.3997 182.28 84.613 182.984C84.8263 183.677 84.933 184.488 84.933 185.416C84.933 186.344 84.8263 187.16 84.613 187.864C84.3997 188.557 84.0903 189.139 83.685 189.608C83.2903 190.067 82.8103 190.413 82.245 190.648C81.6797 190.883 81.0503 191 80.357 191H76.613V179.832ZM80.357 189.816C80.8157 189.816 81.237 189.741 81.621 189.592C82.005 189.432 82.3357 189.203 82.613 188.904C82.8903 188.605 83.1037 188.243 83.253 187.816C83.413 187.379 83.493 186.883 83.493 186.328V184.504C83.493 183.949 83.413 183.459 83.253 183.032C83.1037 182.595 82.8903 182.227 82.613 181.928C82.3357 181.629 82.005 181.405 81.621 181.256C81.237 181.096 80.8157 181.016 80.357 181.016H77.957V189.816H80.357ZM87.3474 191V179.832H94.1634V181.016H88.6914V184.76H93.8434V185.944H88.6914V189.816H94.1634V191H87.3474ZM98.0195 191H96.6755V179.832H101.124C102.105 179.832 102.868 180.104 103.411 180.648C103.966 181.192 104.244 181.976 104.244 183C104.244 183.821 104.052 184.499 103.668 185.032C103.294 185.555 102.74 185.901 102.004 186.072L104.564 191H103.044L100.628 186.2H98.0195V191ZM101.124 185.048C101.657 185.048 102.068 184.909 102.356 184.632C102.654 184.355 102.804 183.96 102.804 183.448V182.616C102.804 182.104 102.654 181.709 102.356 181.432C102.068 181.155 101.657 181.016 101.124 181.016H98.0195V185.048H101.124ZM110.691 191V179.832H112.035V189.816H116.787V191H110.691ZM118.707 191V179.832H125.523V181.016H120.051V184.76H125.203V185.944H120.051V189.816H125.523V191H118.707ZM130.423 191L126.711 179.832H128.151L129.991 185.464L131.223 189.656H131.303L132.567 185.464L134.423 179.832H135.815L132.055 191H130.423ZM137.629 191V179.832H144.445V181.016H138.973V184.76H144.125V185.944H138.973V189.816H144.445V191H137.629ZM146.957 191V179.832H148.301V189.816H153.053V191H146.957Z" fill="#9CA5AB"/>
<line x1="166" y1="184.5" x2="469" y2="184.5" stroke="#9CA5AB"/>
<path d="M1 111.902C13.1975 116.094 42.6 129.197 62.6296 148.064C87.6667 171.647 85.7407 85.9595 116.556 86.7457C147.37 87.5318 135.815 163 156.358 163C176.901 163 198.086 60.0173 217.346 59.2312C236.605 58.4451 234.679 72.5954 241.099 72.5954C247.519 72.5954 248.802 61.5896 253.296 61.5896C257.79 61.5896 257.79 85.1734 261.642 85.1734C265.494 85.1734 275.765 39.578 282.185 39.578C288.605 39.578 293.741 61.5896 305.938 61.5896M383.313 24.8027C460.896 24.8027 421.659 90.2403 448.506 117.01" stroke="#13C8A4" stroke-width="4"/>
<path d="M241.046 72.6072C247.469 72.6072 248.753 61.5985 253.249 61.5985C257.745 61.5985 257.745 85.1884 261.598 85.1884C265.452 85.1884 275.728 39.5813 282.15 39.5813C288.573 39.5813 293.711 61.5985 305.913 61.5985C318.116 61.5985 325.693 26.0133 346.268 26.0134" stroke="#EE7D8B" stroke-width="4"/>
<path d="M1 112C13.2708 116.174 42.5541 129.288 62.7041 148.071" stroke="#EE7D8B" stroke-width="4"/>
<circle cx="367.569" cy="27" r="27" fill="#EE7D8B"/>
<path d="M358.353 33.192C357.393 33.192 356.577 33.0213 355.905 32.68C355.244 32.3387 354.673 31.8907 354.193 31.336L355.617 29.96C356.001 30.408 356.428 30.7493 356.897 30.984C357.377 31.2187 357.905 31.336 358.481 31.336C359.132 31.336 359.622 31.1973 359.953 30.92C360.284 30.632 360.449 30.248 360.449 29.768C360.449 29.3947 360.342 29.0907 360.129 28.856C359.916 28.6213 359.516 28.4507 358.929 28.344L357.873 28.184C355.644 27.832 354.529 26.7493 354.529 24.936C354.529 24.4347 354.62 23.9813 354.801 23.576C354.993 23.1707 355.265 22.824 355.617 22.536C355.969 22.248 356.39 22.0293 356.881 21.88C357.382 21.72 357.948 21.64 358.577 21.64C359.42 21.64 360.156 21.7787 360.785 22.056C361.414 22.3333 361.953 22.744 362.401 23.288L360.961 24.648C360.684 24.3067 360.348 24.0293 359.953 23.816C359.558 23.6027 359.062 23.496 358.465 23.496C357.857 23.496 357.398 23.6133 357.089 23.848C356.79 24.072 356.641 24.392 356.641 24.808C356.641 25.2347 356.764 25.5493 357.009 25.752C357.254 25.9547 357.649 26.104 358.193 26.2L359.233 26.392C360.364 26.5947 361.196 26.9573 361.729 27.48C362.273 27.992 362.545 28.712 362.545 29.64C362.545 30.1733 362.449 30.6587 362.257 31.096C362.076 31.5227 361.804 31.896 361.441 32.216C361.089 32.5253 360.652 32.7653 360.129 32.936C359.617 33.1067 359.025 33.192 358.353 33.192ZM367.91 33.192C367.292 33.192 366.737 33.0907 366.246 32.888C365.766 32.6747 365.356 32.3813 365.014 32.008C364.684 31.624 364.428 31.1653 364.246 30.632C364.065 30.088 363.974 29.48 363.974 28.808C363.974 28.1467 364.06 27.5493 364.23 27.016C364.412 26.4827 364.668 26.0293 364.998 25.656C365.329 25.272 365.734 24.9787 366.214 24.776C366.694 24.5627 367.238 24.456 367.846 24.456C368.497 24.456 369.062 24.568 369.542 24.792C370.022 25.016 370.417 25.32 370.726 25.704C371.036 26.088 371.265 26.536 371.414 27.048C371.574 27.5493 371.654 28.088 371.654 28.664V29.336H366.102V29.544C366.102 30.152 366.273 30.6427 366.614 31.016C366.956 31.3787 367.462 31.56 368.134 31.56C368.646 31.56 369.062 31.4533 369.382 31.24C369.713 31.0267 370.006 30.7547 370.262 30.424L371.366 31.656C371.025 32.136 370.556 32.5147 369.958 32.792C369.372 33.0587 368.689 33.192 367.91 33.192ZM367.878 25.992C367.334 25.992 366.902 26.1733 366.582 26.536C366.262 26.8987 366.102 27.368 366.102 27.944V28.072H369.526V27.928C369.526 27.352 369.382 26.888 369.094 26.536C368.817 26.1733 368.412 25.992 367.878 25.992ZM375.504 33C374.8 33 374.283 32.824 373.952 32.472C373.621 32.12 373.456 31.624 373.456 30.984V21.16H375.504V31.368H376.608V33H375.504ZM380.098 33C379.394 33 378.877 32.824 378.546 32.472C378.215 32.12 378.05 31.624 378.05 30.984V21.16H380.098V31.368H381.202V33H380.098Z" fill="white"/>
<circle cx="58.8521" cy="139" r="27" fill="#13C8A4"/>
<path d="M39.1641 133.832H44.3321C44.7907 133.832 45.2014 133.901 45.5641 134.04C45.9374 134.179 46.2521 134.371 46.5081 134.616C46.7641 134.861 46.9561 135.165 47.0841 135.528C47.2227 135.88 47.2921 136.269 47.2921 136.696C47.2921 137.123 47.2334 137.485 47.1161 137.784C47.0094 138.072 46.8601 138.312 46.6681 138.504C46.4867 138.696 46.2734 138.84 46.0281 138.936C45.7934 139.032 45.5481 139.085 45.2921 139.096V139.192C45.5374 139.192 45.7987 139.24 46.0761 139.336C46.3641 139.432 46.6254 139.587 46.8601 139.8C47.1054 140.003 47.3081 140.269 47.4681 140.6C47.6281 140.92 47.7081 141.32 47.7081 141.8C47.7081 142.248 47.6334 142.669 47.4841 143.064C47.3454 143.448 47.1481 143.784 46.8921 144.072C46.6361 144.36 46.3321 144.589 45.9801 144.76C45.6281 144.92 45.2441 145 44.8281 145H39.1641V133.832ZM41.2761 143.208H44.2201C44.6254 143.208 44.9401 143.107 45.1641 142.904C45.3881 142.691 45.5001 142.387 45.5001 141.992V141.448C45.5001 141.053 45.3881 140.749 45.1641 140.536C44.9401 140.323 44.6254 140.216 44.2201 140.216H41.2761V143.208ZM41.2761 138.488H43.8841C44.2681 138.488 44.5667 138.387 44.7801 138.184C44.9934 137.971 45.1001 137.677 45.1001 137.304V136.808C45.1001 136.435 44.9934 136.147 44.7801 135.944C44.5667 135.731 44.2681 135.624 43.8841 135.624H41.2761V138.488ZM54.6374 143.608H54.5574C54.4828 143.821 54.3814 144.024 54.2534 144.216C54.1361 144.397 53.9814 144.563 53.7894 144.712C53.6081 144.861 53.3841 144.979 53.1174 145.064C52.8614 145.149 52.5628 145.192 52.2214 145.192C51.3574 145.192 50.6961 144.909 50.2374 144.344C49.7788 143.779 49.5494 142.973 49.5494 141.928V136.648H51.5974V141.72C51.5974 142.296 51.7094 142.739 51.9334 143.048C52.1574 143.347 52.5148 143.496 53.0054 143.496C53.2081 143.496 53.4054 143.469 53.5974 143.416C53.8001 143.363 53.9761 143.283 54.1254 143.176C54.2748 143.059 54.3974 142.92 54.4934 142.76C54.5894 142.589 54.6374 142.392 54.6374 142.168V136.648H56.6854V145H54.6374V143.608ZM64.1717 136.648H66.0917L62.7317 146.488C62.625 146.787 62.5023 147.043 62.3637 147.256C62.2357 147.48 62.081 147.661 61.8997 147.8C61.7183 147.939 61.4997 148.04 61.2437 148.104C60.9877 148.168 60.689 148.2 60.3477 148.2H59.1157V146.568H60.6197L61.0037 145.4L58.0117 136.648H60.0437L61.4997 141.064L62.0437 143.176H62.1397L62.7157 141.064L64.1717 136.648ZM71.4956 145V143.288H74.5676V135.352H74.4236L71.9916 138.232L70.6796 137.128L73.4476 133.832H76.6316V143.288H79.1916V145H71.4956Z" fill="white"/>
<circle cx="442" cy="111.5" r="27" fill="#13C8A4"/>
<path d="M422.312 106.332H427.48C427.939 106.332 428.349 106.401 428.712 106.54C429.085 106.679 429.4 106.871 429.656 107.116C429.912 107.361 430.104 107.665 430.232 108.028C430.371 108.38 430.44 108.769 430.44 109.196C430.44 109.623 430.381 109.985 430.264 110.284C430.157 110.572 430.008 110.812 429.816 111.004C429.635 111.196 429.421 111.34 429.176 111.436C428.941 111.532 428.696 111.585 428.44 111.596V111.692C428.685 111.692 428.947 111.74 429.224 111.836C429.512 111.932 429.773 112.087 430.008 112.3C430.253 112.503 430.456 112.769 430.616 113.1C430.776 113.42 430.856 113.82 430.856 114.3C430.856 114.748 430.781 115.169 430.632 115.564C430.493 115.948 430.296 116.284 430.04 116.572C429.784 116.86 429.48 117.089 429.128 117.26C428.776 117.42 428.392 117.5 427.976 117.5H422.312V106.332ZM424.424 115.708H427.368C427.773 115.708 428.088 115.607 428.312 115.404C428.536 115.191 428.648 114.887 428.648 114.492V113.948C428.648 113.553 428.536 113.249 428.312 113.036C428.088 112.823 427.773 112.716 427.368 112.716H424.424V115.708ZM424.424 110.988H427.032C427.416 110.988 427.715 110.887 427.928 110.684C428.141 110.471 428.248 110.177 428.248 109.804V109.308C428.248 108.935 428.141 108.647 427.928 108.444C427.715 108.231 427.416 108.124 427.032 108.124H424.424V110.988ZM437.785 116.108H437.705C437.631 116.321 437.529 116.524 437.401 116.716C437.284 116.897 437.129 117.063 436.937 117.212C436.756 117.361 436.532 117.479 436.265 117.564C436.009 117.649 435.711 117.692 435.369 117.692C434.505 117.692 433.844 117.409 433.385 116.844C432.927 116.279 432.697 115.473 432.697 114.428V109.148H434.745V114.22C434.745 114.796 434.857 115.239 435.081 115.548C435.305 115.847 435.663 115.996 436.153 115.996C436.356 115.996 436.553 115.969 436.745 115.916C436.948 115.863 437.124 115.783 437.273 115.676C437.423 115.559 437.545 115.42 437.641 115.26C437.737 115.089 437.785 114.892 437.785 114.668V109.148H439.833V117.5H437.785V116.108ZM447.32 109.148H449.24L445.88 118.988C445.773 119.287 445.65 119.543 445.512 119.756C445.384 119.98 445.229 120.161 445.048 120.3C444.866 120.439 444.648 120.54 444.392 120.604C444.136 120.668 443.837 120.7 443.496 120.7H442.264V119.068H443.768L444.152 117.9L441.16 109.148H443.192L444.648 113.564L445.192 115.676H445.288L445.864 113.564L447.32 109.148ZM461.924 117.5H454.18V115.548L457.684 112.476C458.281 111.953 458.718 111.484 458.996 111.068C459.273 110.641 459.412 110.183 459.412 109.692V109.484C459.412 108.993 459.252 108.62 458.932 108.364C458.612 108.097 458.222 107.964 457.764 107.964C457.188 107.964 456.75 108.129 456.452 108.46C456.153 108.78 455.94 109.169 455.812 109.628L453.988 108.924C454.105 108.551 454.27 108.199 454.484 107.868C454.697 107.527 454.964 107.228 455.284 106.972C455.614 106.716 455.998 106.513 456.436 106.364C456.873 106.215 457.374 106.14 457.94 106.14C458.526 106.14 459.049 106.225 459.508 106.396C459.966 106.556 460.35 106.785 460.66 107.084C460.98 107.383 461.22 107.735 461.38 108.14C461.55 108.545 461.635 108.988 461.635 109.468C461.635 109.937 461.561 110.364 461.411 110.748C461.262 111.132 461.06 111.5 460.804 111.852C460.548 112.193 460.249 112.524 459.908 112.844C459.566 113.153 459.204 113.468 458.82 113.788L456.468 115.724H461.924V117.5Z" fill="white"/>
</svg>
