<svg width="156" height="100" viewBox="0 0 156 100" fill="none" xmlns="http://www.w3.org/2000/svg"><path fill="#fff" d="M0 0h156v100H0z"/><path d="M17.79 77.58h-4.66V75.5h4.66V70.7h2.1v4.79h4.68v2.08H19.9v4.76h-2.11v-4.76zm9.5.12c0-6.7 2.73-10.06 8.2-10.06.85 0 1.58.07 2.17.2v2.3a7.44 7.44 0 00-2.06-.26c-1.83 0-3.21.5-4.14 1.48-.92.98-1.42 2.56-1.5 4.73h.14c.37-.63.89-1.12 1.55-1.46A4.94 4.94 0 0134 74.1c1.55 0 2.76.48 3.63 1.43.87.95 1.3 2.25 1.3 3.88 0 1.8-.5 3.22-1.51 4.27a5.43 5.43 0 01-4.1 1.55c-1.23 0-2.3-.29-3.2-.87-.91-.6-1.6-1.46-2.1-2.58-.49-1.14-.73-2.5-.73-4.08zm5.98 5.26c.94 0 1.67-.3 2.18-.91.51-.61.77-1.48.77-2.62 0-.98-.24-1.75-.72-2.32-.48-.56-1.2-.84-2.16-.84-.6 0-1.14.13-1.64.39-.5.25-.9.6-1.18 1.04-.3.44-.44.89-.44 1.35 0 1.1.3 2.03.9 2.79.6.75 1.36 1.12 2.29 1.12zm8.67.58c0-.58.15-1.01.45-1.32.3-.3.72-.45 1.28-.45.58 0 1 .16 1.3.48.3.3.45.74.45 1.29s-.15 1-.46 1.32c-.3.32-.72.48-1.29.48-.56 0-.99-.16-1.28-.48-.3-.32-.45-.76-.45-1.32zm12.4-9.24c1.72 0 3.1.46 4.1 1.37a4.8 4.8 0 011.51 3.74c0 1.83-.57 3.26-1.72 4.29-1.14 1.02-2.77 1.53-4.88 1.53-1.91 0-3.41-.3-4.5-.92v-2.5a9.9 9.9 0 004.46 1.13c1.24 0 2.18-.28 2.83-.83.65-.56.98-1.37.98-2.44 0-2.05-1.3-3.07-3.92-3.07a15.06 15.06 0 00-2.78.36l-1.23-.73.66-8.36h8.9v2.45h-6.47l-.4 4.24 1-.17c.4-.06.89-.09 1.46-.09zM74.33 85H62.72v-2.09l4.41-4.44a37.3 37.3 0 002.6-2.83 6.8 6.8 0 00.93-1.59c.2-.49.3-1.01.3-1.58a2.4 2.4 0 00-.7-1.83 2.65 2.65 0 00-1.93-.66c-.66 0-1.3.12-1.91.36-.6.24-1.32.68-2.12 1.31l-1.49-1.81a8.13 8.13 0 015.65-2.21c1.6 0 2.87.4 3.83 1.24a4.2 4.2 0 011.44 3.36c0 .77-.14 1.5-.42 2.2a8.8 8.8 0 01-1.28 2.16c-.57.73-1.52 1.73-2.86 2.98l-2.97 2.89v.11h8.13V85zm4.8-12c0 1.16.1 2.03.33 2.6.23.57.6.86 1.12.86 1.03 0 1.54-1.16 1.54-3.46s-.51-3.46-1.54-3.46c-.52 0-.9.29-1.12.86a7.47 7.47 0 00-.34 2.6zm5.27-.02c0 1.8-.33 3.14-.98 4.05-.64.9-1.59 1.35-2.84 1.35-1.2 0-2.11-.47-2.77-1.4-.65-.93-.97-2.27-.97-4 0-3.57 1.24-5.36 3.74-5.36 1.22 0 2.16.47 2.82 1.4.66.92 1 2.24 1 3.96zm5.88 6.86c0 1.17.11 2.04.34 2.62.23.58.6.86 1.12.86 1.03 0 1.54-1.16 1.54-3.48 0-2.29-.51-3.43-1.54-3.43-.51 0-.89.28-1.12.84a7.37 7.37 0 00-.34 2.6zm5.27 0c0 1.8-.32 3.15-.97 4.05-.65.9-1.6 1.34-2.84 1.34a3.2 3.2 0 01-2.76-1.38c-.66-.93-.99-2.26-.99-4 0-3.58 1.25-5.36 3.75-5.36 1.2 0 2.14.46 2.8 1.38.68.92 1.01 2.25 1.01 3.97zm-3.48-11.97L82.57 85h-2.28l9.5-17.13h2.28z" fill="#00A59A"/><path d="M14.9 48.46h.6c.55 0 .97-.1 1.25-.32.27-.23.41-.55.41-.97 0-.43-.12-.74-.35-.94-.23-.2-.6-.3-1.09-.3h-.83v2.53zm4.1-1.35c0 .92-.3 1.62-.87 2.11-.58.49-1.4.73-2.46.73h-.78V53h-1.81v-8.57h2.73c1.04 0 1.83.23 2.37.68.54.44.82 1.1.82 2zm5.13-.78c.24 0 .44.01.6.05l-.13 1.67a2.05 2.05 0 00-.53-.05 1.9 1.9 0 00-1.34.44c-.31.29-.47.7-.47 1.23V53h-1.79v-6.55h1.36l.26 1.1h.09c.2-.37.47-.66.82-.88.35-.23.72-.34 1.13-.34zm3.22 3.38c0 .65.1 1.14.31 1.47.22.34.56.5 1.05.5.47 0 .81-.16 1.02-.49.21-.33.32-.82.32-1.48 0-.65-.1-1.13-.32-1.46-.21-.32-.56-.48-1.04-.48-.47 0-.82.16-1.03.48-.2.32-.31.81-.31 1.46zm4.52 0c0 1.07-.28 1.9-.84 2.5-.56.6-1.34.9-2.35.9a3.3 3.3 0 01-1.66-.4 2.77 2.77 0 01-1.11-1.2 3.99 3.99 0 01-.39-1.8c0-1.07.28-1.9.84-2.5.56-.59 1.35-.88 2.36-.88.63 0 1.18.13 1.66.4.48.28.85.67 1.1 1.18.27.52.4 1.12.4 1.8zm5.1-1.92h-1.54V53h-1.8v-5.2h-.98v-.87l.99-.48v-.48c0-.75.18-1.3.55-1.64.37-.34.95-.51 1.76-.51.62 0 1.17.09 1.65.27l-.46 1.32c-.36-.12-.69-.17-1-.17-.25 0-.43.07-.54.22a.92.92 0 00-.17.58v.4h1.54v1.35zm.95-3.03c0-.59.33-.88.97-.88.65 0 .98.3.98.88 0 .27-.08.49-.25.65-.16.15-.4.22-.73.22-.64 0-.97-.29-.97-.87zM39.8 53h-1.8v-6.55h1.8V53zm4.63-1.3c.31 0 .69-.08 1.12-.21v1.33c-.44.2-.99.3-1.64.3-.71 0-1.23-.18-1.56-.54-.32-.37-.49-.9-.49-1.63v-3.16H41v-.75l.98-.6.52-1.39h1.14v1.4h1.83v1.34h-1.83v3.16c0 .25.07.44.21.56.15.12.34.18.57.18zm7.36 1.3h-1.79v-9.12h1.79V53zm6.04 0l-.35-.9h-.04c-.3.39-.61.65-.93.8-.32.14-.73.22-1.25.22-.63 0-1.12-.18-1.48-.54-.36-.36-.54-.87-.54-1.54 0-.7.24-1.2.72-1.53a4.22 4.22 0 012.2-.55l1.14-.04v-.29c0-.66-.34-1-1.02-1-.52 0-1.14.17-1.84.48l-.6-1.2c.76-.4 1.6-.6 2.51-.6.88 0 1.56.2 2.03.58.46.38.7.96.7 1.74V53h-1.25zm-.53-3.04l-.69.03c-.52.01-.9.1-1.16.28-.25.17-.38.43-.38.78 0 .5.29.76.87.76.41 0 .74-.12.99-.36s.37-.55.37-.95v-.54zm8.2 1.1a1.8 1.8 0 01-.7 1.53c-.47.35-1.17.53-2.1.53a6.4 6.4 0 01-1.22-.1 4.49 4.49 0 01-.94-.28v-1.48a6.25 6.25 0 002.22.55c.65 0 .97-.19.97-.56a.46.46 0 00-.13-.34 1.76 1.76 0 00-.44-.3c-.21-.11-.5-.24-.85-.4-.5-.2-.87-.4-1.11-.58a1.7 1.7 0 01-.52-.61 2.1 2.1 0 01-.15-.87c0-.58.22-1.03.67-1.34a3.3 3.3 0 011.92-.48c.79 0 1.56.17 2.3.51l-.53 1.3a9.89 9.89 0 00-.92-.35 2.89 2.89 0 00-.88-.14c-.53 0-.79.14-.79.43 0 .16.09.3.25.41.17.12.55.3 1.12.53.51.2.89.4 1.13.58.24.18.41.38.52.62.12.23.17.51.17.83zm4.15.63c.31 0 .69-.06 1.12-.2v1.33c-.44.2-.99.3-1.64.3-.71 0-1.23-.18-1.56-.54-.33-.37-.49-.9-.49-1.63v-3.16h-.85v-.75l.98-.6.52-1.39h1.14v1.4h1.83v1.34h-1.83v3.16c0 .25.07.44.21.56.14.12.33.18.57.18zM81.08 53h-1.8v-3.83c0-.47-.07-.82-.23-1.06-.16-.23-.4-.35-.75-.35-.45 0-.78.16-1 .5-.2.34-.3.89-.3 1.66V53H75.2v-6.55h1.37l.24.84h.1c.17-.3.43-.54.76-.7.33-.18.71-.26 1.14-.26.98 0 1.64.32 2 .96h.15c.18-.3.43-.54.77-.71a2.6 2.6 0 011.16-.25c.75 0 1.3.19 1.69.57.38.38.57.99.57 1.83V53h-1.8v-3.83c0-.47-.07-.82-.23-1.06-.16-.23-.4-.35-.75-.35-.43 0-.76.15-.98.46-.22.32-.32.81-.32 1.5V53zm7.34-3.29c0 .65.1 1.14.32 1.47.22.34.56.5 1.04.5s.82-.16 1.03-.49c.2-.33.31-.82.31-1.48 0-.65-.1-1.13-.31-1.46-.21-.32-.56-.48-1.04-.48s-.82.16-1.03.48c-.21.32-.32.81-.32 1.46zm4.53 0c0 1.07-.28 1.9-.84 2.5-.56.6-1.35.9-2.35.9a3.3 3.3 0 01-1.66-.4 2.77 2.77 0 01-1.11-1.2 3.99 3.99 0 01-.39-1.8c0-1.07.28-1.9.84-2.5.56-.59 1.34-.88 2.35-.88.63 0 1.19.13 1.67.4.48.28.85.67 1.1 1.18.26.52.4 1.12.4 1.8zm7.53 3.29h-1.8v-3.83c0-.47-.07-.82-.24-1.06-.17-.23-.44-.35-.8-.35-.5 0-.87.16-1.09.5-.22.33-.33.88-.33 1.66V53h-1.79v-6.55h1.36l.25.84h.1c.2-.32.47-.56.82-.72a2.8 2.8 0 011.19-.24c.76 0 1.34.2 1.73.62.4.4.6 1 .6 1.78V53zm4.6-1.3c.3 0 .68-.08 1.12-.21v1.33a4 4 0 01-1.64.3c-.71 0-1.24-.18-1.56-.54-.33-.37-.49-.9-.49-1.63v-3.16h-.86v-.75l.99-.6.51-1.39h1.15v1.4h1.83v1.34h-1.83v3.16c0 .25.07.44.2.56.15.12.34.18.58.18zm8.5 1.3h-1.79v-3.83c0-.94-.35-1.41-1.05-1.41-.5 0-.86.17-1.09.5-.22.35-.33.9-.33 1.66V53h-1.79v-9.12h1.79v1.86l-.04 1.02-.04.53h.09c.4-.64 1.03-.96 1.9-.96.77 0 1.35.2 1.75.62.4.41.6 1 .6 1.78V53z" fill="#6B7B8B"/><g><path d="M42.32 25l-.62-2.04h-3.12L37.96 25H36l3.02-8.6h2.22l3.04 8.6h-1.96zm-1.05-3.56a1753.27 1753.27 0 01-1.13-3.71c-.13.5-.5 1.73-1.1 3.7h2.23zM50.6 25l-.62-2.04h-3.13L46.24 25H44.3l3.02-8.6h2.22l3.03 8.6h-1.95zm-1.06-3.56a1705.43 1705.43 0 01-1.12-3.71c-.13.5-.5 1.73-1.11 3.7h2.23zm8.99-5h1.83L57.46 25h-1.98l-2.91-8.57h1.83l1.62 5.1a17.95 17.95 0 01.45 1.89 15 15 0 01.44-1.89l1.63-5.1zM66.39 25h-4.94v-8.57h4.94v1.5h-3.12v1.87h2.9v1.5h-2.9v2.2h3.12V25zm8.9-4.37c0 1.41-.4 2.5-1.21 3.25-.8.75-1.96 1.12-3.47 1.12h-2.43v-8.57h2.69c1.4 0 2.48.37 3.26 1.11a4.07 4.07 0 011.16 3.1zm-1.89.05c0-1.84-.81-2.76-2.44-2.76H70v5.58h.78c1.75 0 2.62-.94 2.62-2.82zm11.44.03c0 1.41-.35 2.5-1.06 3.26-.7.77-1.7 1.15-3.02 1.15-1.31 0-2.32-.38-3.02-1.15-.7-.76-1.06-1.85-1.06-3.28 0-1.42.35-2.51 1.06-3.26.7-.75 1.72-1.13 3.03-1.13 1.32 0 2.32.38 3.02 1.14.7.75 1.05 1.84 1.05 3.27zm-6.25 0c0 .95.18 1.67.54 2.16.36.48.9.72 1.63.72 1.45 0 2.17-.96 2.17-2.88 0-1.93-.72-2.9-2.16-2.9-.72 0-1.27.24-1.63.73-.37.49-.55 1.2-.55 2.17zM94.96 25h-2.07l-1.16-4.5a23.52 23.52 0 01-.4-2 22.97 22.97 0 01-.4 2.02L89.79 25h-2.06l-2.18-8.57h1.78l1.1 4.68a28 28 0 01.41 2.24 16.58 16.58 0 01.4-2.12l1.25-4.8h1.72l1.25 4.8.2.99.19 1.13a19.89 19.89 0 01.42-2.24l1.09-4.68h1.79L94.96 25zm10.85 0h-2.3l-3.73-6.48h-.05c.07 1.14.1 1.96.1 2.45V25h-1.62v-8.57h2.3l3.72 6.42h.04c-.06-1.11-.09-1.9-.09-2.36v-4.06h1.63V25zm5.99-8.57L108.6 25h-1.62l3.2-8.57h1.62zm8.1 0v5.55c0 .63-.14 1.18-.42 1.66-.28.48-.7.84-1.23 1.1a4.4 4.4 0 01-1.9.38c-1.1 0-1.95-.28-2.56-.85a3.01 3.01 0 01-.92-2.32v-5.52h1.82v5.25c0 .66.13 1.14.4 1.45.26.3.7.46 1.31.46.6 0 1.03-.15 1.3-.46.26-.31.4-.8.4-1.46v-5.24h1.8zm7.16 6.2c0 .76-.28 1.37-.84 1.82-.55.44-1.33.67-2.32.67-.91 0-1.72-.17-2.42-.52v-1.69c.58.26 1.06.44 1.46.55.4.1.77.16 1.1.16.4 0 .7-.08.92-.23.21-.15.32-.38.32-.68a.74.74 0 00-.14-.45c-.1-.13-.23-.26-.42-.38a10.3 10.3 0 00-1.1-.58 5.25 5.25 0 01-1.18-.7 2.65 2.65 0 01-.63-.8c-.16-.3-.23-.65-.23-1.05 0-.76.25-1.36.76-1.79a3.21 3.21 0 012.14-.65c.44 0 .87.05 1.27.16.4.1.83.25 1.27.44l-.59 1.42a8.48 8.48 0 00-1.13-.4c-.3-.07-.6-.1-.88-.1-.35 0-.6.07-.8.23a.8.8 0 00-.27.63c0 .16.04.3.11.42.08.12.2.23.35.35.17.1.55.3 1.16.6.8.38 1.35.76 1.64 1.15.3.38.45.85.45 1.41zm8.66-2c0 1.41-.4 2.5-1.2 3.25-.8.75-1.97 1.12-3.48 1.12h-2.43v-8.57h2.7c1.4 0 2.48.37 3.25 1.11a4.08 4.08 0 011.16 3.1zm-1.89.05c0-1.84-.8-2.76-2.43-2.76h-.97v5.58h.78c1.75 0 2.62-.94 2.62-2.82zm3.27 3.48c0-.33.1-.57.27-.74.17-.17.43-.25.76-.25s.58.08.75.25c.18.18.27.42.27.74a1 1 0 01-.27.73c-.17.18-.42.27-.75.27-.32 0-.58-.09-.76-.26a.98.98 0 01-.27-.74zm3.43 0c0-.33.08-.57.26-.74.18-.17.43-.25.77-.25.32 0 .57.08.75.25.18.18.27.42.27.74a1 1 0 01-.27.73c-.18.18-.43.27-.75.27-.33 0-.59-.09-.77-.26a.98.98 0 01-.26-.74z" fill="#2F4050"/><g fill="#2F4050"><path d="M16 20a1 1 0 110 2 1 1 0 010-2z"/><path d="M24 20a1 1 0 110 2 1 1 0 010-2z"/><path fill-rule="evenodd" clip-rule="evenodd" d="M18 13a1 1 0 011-1h2a1 1 0 011 1v2h-1v2h2v-1a1 1 0 112 0v1h2a1 1 0 011 1v6a4 4 0 01-4 4h-8a4 4 0 01-4-4v-6a1 1 0 011-1h2v-1a1 1 0 112 0v1h2v-2h-1v-2zm-3 6a1 1 0 00-1 1v2a1 1 0 001 1h10a1 1 0 001-1v-2a1 1 0 00-1-1H15zm3 6.5c0-.28.22-.5.5-.5h3a.5.5 0 010 1h-3a.5.5 0 01-.5-.5z"/></g></g></svg>