<svg width="332" height="352" viewBox="0 0 332 352" fill="none" xmlns="http://www.w3.org/2000/svg">
<path d="M321 335L321 261L251 261L251 335L321 335Z" fill="#13C8A4"/>
<path fill-rule="evenodd" clip-rule="evenodd" d="M92.2247 285.945C91.0696 286.254 89.9523 286.551 88.8365 286.851C87.3594 287.249 85.8837 287.65 84.4066 288.048C83.2591 288.358 82.113 288.671 80.9625 288.969C80.7841 289.015 80.5739 289.033 80.3985 288.987C78.4103 288.467 76.4252 287.933 74.44 287.401C72.9614 287.005 71.4827 286.608 70.0041 286.212C69.9043 286.185 69.803 286.162 69.6442 286.123C69.6442 286.271 69.6442 286.384 69.6442 286.496C69.6442 288.159 69.6518 289.822 69.6397 291.485C69.6352 292.126 69.8725 292.606 70.3957 292.99C72.3219 294.406 74.3902 295.536 76.7064 296.162C80.081 297.074 83.3876 296.785 86.6337 295.543C88.3845 294.872 90.0113 293.974 91.564 292.932C91.9617 292.665 92.2172 292.294 92.2202 291.81C92.2308 289.869 92.2247 287.928 92.2247 285.945Z" fill="black"/>
<path fill-rule="evenodd" clip-rule="evenodd" d="M98.686 283.445C98.5922 283.414 98.5 283.374 98.4033 283.351C95.827 282.751 93.2491 282.158 90.6743 281.551C87.5054 280.805 84.3409 280.043 81.1719 279.303C80.9225 279.245 80.6352 279.249 80.3872 279.309C77.5962 279.981 74.8098 280.669 72.0233 281.357C70.4222 281.752 68.8241 282.157 67.2245 282.55C65.9877 282.853 64.7465 283.144 63.5097 283.446C63.351 283.484 63.1983 283.55 63.044 283.603C63.0425 283.632 63.0425 283.661 63.041 283.691C63.1332 283.728 63.2224 283.775 63.3162 283.801C65.2182 284.31 67.1217 284.814 69.0237 285.323C72.2924 286.198 75.5597 287.076 78.8285 287.954C79.1384 288.037 79.4574 288.097 79.7553 288.211C80.3767 288.45 80.9663 288.382 81.5968 288.205C84.1534 287.488 86.7222 286.812 89.2864 286.118C91.2489 285.587 93.2113 285.049 95.1753 284.518C96.2291 284.233 97.2859 283.956 98.3398 283.674C98.4577 283.642 98.5711 283.6 98.6875 283.563C98.6875 283.524 98.6875 283.484 98.686 283.445Z" fill="black"/>
<path fill-rule="evenodd" clip-rule="evenodd" d="M98.676 301.177C98.1846 299.282 97.7038 297.418 97.217 295.555C97.1611 295.338 97.1595 295.178 97.3319 294.983C97.982 294.245 97.7825 292.959 96.9736 292.395C96.8708 292.323 96.7921 292.139 96.7921 292.006C96.78 289.732 96.7831 287.458 96.7831 285.183C96.7831 285.046 96.7831 284.908 96.7831 284.716C96.4958 284.794 96.2373 284.845 95.9984 284.942C95.9364 284.967 95.9137 285.143 95.9122 285.249C95.9077 287.481 95.9062 289.712 95.9122 291.944C95.9122 292.175 95.8653 292.322 95.6491 292.463C94.8735 292.967 94.7405 294.275 95.3876 295.008C95.5524 295.196 95.575 295.347 95.5146 295.577C95.0474 297.358 94.5953 299.143 94.1342 300.926C94.0964 301.069 94.0525 301.184 94.2355 301.269C95.7217 301.961 97.1898 301.972 98.676 301.177Z" fill="black"/>
<path fill-rule="evenodd" clip-rule="evenodd" d="M97.1709 244.395H194.468V181.99H97.1709V244.395Z" fill="white"/>
<path fill-rule="evenodd" clip-rule="evenodd" d="M194.468 244.395V244.207H97.3592V182.178H194.28V244.395H194.468H194.656V181.802H96.9834V244.583H194.656V244.395H194.468Z" fill="black"/>
<path d="M194.468 244.395V244.207H97.3592V182.178H194.28V244.395H194.468ZM194.468 244.395H194.656M194.656 244.395V181.802H96.9834V244.583H194.656V244.395Z" stroke="black" stroke-width="0.5" stroke-linejoin="round"/>
<path fill-rule="evenodd" clip-rule="evenodd" d="M104.033 218.265H149.124V189.368H104.033V218.265Z" fill="#13C8A4"/>
<path fill-rule="evenodd" clip-rule="evenodd" d="M154.428 199.205H167.877V189.368H154.428V199.205Z" fill="#13C8A4"/>
<path fill-rule="evenodd" clip-rule="evenodd" d="M154.428 214.73H167.877V204.893H154.428V214.73Z" fill="#EE7D8B"/>
<path fill-rule="evenodd" clip-rule="evenodd" d="M154.428 230.253H167.877V220.417H154.428V230.253Z" fill="#13C8A4"/>
<path fill-rule="evenodd" clip-rule="evenodd" d="M154.428 244.19H167.877V235.941H154.428V244.19Z" fill="#EE7D8B"/>
<path fill-rule="evenodd" clip-rule="evenodd" d="M120.83 202.887C120.83 199.852 123.291 197.392 126.326 197.392C129.361 197.392 131.82 199.852 131.82 202.887C131.82 205.922 129.361 208.382 126.326 208.382C123.291 208.382 120.83 205.922 120.83 202.887Z" fill="white"/>
<path fill-rule="evenodd" clip-rule="evenodd" d="M124.97 200.417L129.52 203.053L124.963 205.675L124.97 200.417Z" fill="black"/>
<path fill-rule="evenodd" clip-rule="evenodd" d="M121.3 223.798H105.035C104.483 223.798 104.033 223.348 104.033 222.797V222.418C104.033 221.867 104.483 221.416 105.035 221.416H121.3C121.851 221.416 122.302 221.867 122.302 222.418V222.797C122.302 223.348 121.851 223.798 121.3 223.798Z" fill="black"/>
<path fill-rule="evenodd" clip-rule="evenodd" d="M137.742 227.026H104.311C104.11 227.026 103.945 226.862 103.945 226.66V226.522C103.945 226.32 104.11 226.155 104.311 226.155H137.742C137.943 226.155 138.109 226.32 138.109 226.522V226.66C138.109 226.862 137.943 227.026 137.742 227.026Z" fill="#13C8A4"/>
<path fill-rule="evenodd" clip-rule="evenodd" d="M129.544 230.689H104.311C104.11 230.689 103.945 230.524 103.945 230.323V230.185C103.945 229.983 104.11 229.818 104.311 229.818H129.544C129.746 229.818 129.911 229.983 129.911 230.185V230.323C129.911 230.524 129.746 230.689 129.544 230.689Z" fill="#13C8A4"/>
<path fill-rule="evenodd" clip-rule="evenodd" d="M119.673 233.363H104.311C104.11 233.363 103.945 233.197 103.945 232.996V232.857C103.945 232.656 104.11 232.492 104.311 232.492H119.673C119.875 232.492 120.039 232.656 120.039 232.857V232.996C120.039 233.197 119.875 233.363 119.673 233.363Z" fill="#13C8A4"/>
<path fill-rule="evenodd" clip-rule="evenodd" d="M128.076 236.035H104.311C104.11 236.035 103.945 235.871 103.945 235.669V235.531C103.945 235.329 104.11 235.164 104.311 235.164H128.076C128.277 235.164 128.442 235.329 128.442 235.531V235.669C128.442 235.871 128.277 236.035 128.076 236.035Z" fill="#13C8A4"/>
<path fill-rule="evenodd" clip-rule="evenodd" d="M122.713 238.708H104.311C104.11 238.708 103.945 238.543 103.945 238.341V238.203C103.945 238.001 104.11 237.837 104.311 237.837H122.713C122.915 237.837 123.079 238.001 123.079 238.203V238.341C123.079 238.543 122.915 238.708 122.713 238.708Z" fill="#13C8A4"/>
<path fill-rule="evenodd" clip-rule="evenodd" d="M178.511 192.186H171.69C171.086 192.186 170.592 191.692 170.592 191.087V190.672C170.592 190.068 171.086 189.573 171.69 189.573H178.511C179.115 189.573 179.609 190.068 179.609 190.672V191.087C179.609 191.692 179.115 192.186 178.511 192.186Z" fill="#13C8A4"/>
<path fill-rule="evenodd" clip-rule="evenodd" d="M178.511 207.506H171.69C171.086 207.506 170.592 207.011 170.592 206.407V205.991C170.592 205.387 171.086 204.893 171.69 204.893H178.511C179.115 204.893 179.609 205.387 179.609 205.991V206.407C179.609 207.011 179.115 207.506 178.511 207.506Z" fill="#13C8A4"/>
<path fill-rule="evenodd" clip-rule="evenodd" d="M178.69 223.004H171.87C171.266 223.004 170.771 222.51 170.771 221.905V221.49C170.771 220.886 171.266 220.391 171.87 220.391H178.69C179.294 220.391 179.789 220.886 179.789 221.49V221.905C179.789 222.51 179.294 223.004 178.69 223.004Z" fill="#13C8A4"/>
<path fill-rule="evenodd" clip-rule="evenodd" d="M178.511 238.554H171.69C171.086 238.554 170.592 238.06 170.592 237.456V237.04C170.592 236.435 171.086 235.941 171.69 235.941H178.511C179.115 235.941 179.609 236.435 179.609 237.04V237.456C179.609 238.06 179.115 238.554 178.511 238.554Z" fill="black"/>
<path fill-rule="evenodd" clip-rule="evenodd" d="M183.428 194.628H171.008C170.779 194.628 170.592 194.441 170.592 194.212V194.054C170.592 193.825 170.779 193.638 171.008 193.638H183.428C183.657 193.638 183.845 193.825 183.845 194.054V194.212C183.845 194.441 183.657 194.628 183.428 194.628Z" fill="#13C8A4"/>
<path fill-rule="evenodd" clip-rule="evenodd" d="M183.428 209.811H171.008C170.779 209.811 170.592 209.623 170.592 209.394V209.237C170.592 209.008 170.779 208.82 171.008 208.82H183.428C183.657 208.82 183.845 209.008 183.845 209.237V209.394C183.845 209.623 183.657 209.811 183.428 209.811Z" fill="#EE7D8B"/>
<path fill-rule="evenodd" clip-rule="evenodd" d="M183.428 225.335H171.008C170.779 225.335 170.592 225.148 170.592 224.919V224.761C170.592 224.532 170.779 224.345 171.008 224.345H183.428C183.657 224.345 183.845 224.532 183.845 224.761V224.919C183.845 225.148 183.657 225.335 183.428 225.335Z" fill="#13C8A4"/>
<path fill-rule="evenodd" clip-rule="evenodd" d="M183.428 240.663H171.008C170.779 240.663 170.592 240.476 170.592 240.247V240.089C170.592 239.86 170.779 239.673 171.008 239.673H183.428C183.657 239.673 183.845 239.86 183.845 240.089V240.247C183.845 240.476 183.657 240.663 183.428 240.663Z" fill="#EE7D8B"/>
<path fill-rule="evenodd" clip-rule="evenodd" d="M144.535 214.73H106.832C106.619 214.73 106.444 214.555 106.444 214.342V214.195C106.444 213.982 106.619 213.808 106.832 213.808H144.535C144.748 213.808 144.922 213.982 144.922 214.195V214.342C144.922 214.555 144.748 214.73 144.535 214.73Z" fill="black"/>
<path fill-rule="evenodd" clip-rule="evenodd" d="M97.377 184.962H194.275V182.214H97.377V184.962Z" fill="black"/>
<path fill-rule="evenodd" clip-rule="evenodd" d="M100.148 183.588C100.148 183.862 99.9258 184.083 99.6523 184.083C99.378 184.083 99.1562 183.862 99.1562 183.588C99.1562 183.315 99.378 183.093 99.6523 183.093C99.9258 183.093 100.148 183.315 100.148 183.588Z" fill="black"/>
<path fill-rule="evenodd" clip-rule="evenodd" d="M101.749 183.588C101.749 183.862 101.527 184.083 101.254 184.083C100.981 184.083 100.759 183.862 100.759 183.588C100.759 183.315 100.981 183.093 101.254 183.093C101.527 183.093 101.749 183.315 101.749 183.588Z" fill="black"/>
<path fill-rule="evenodd" clip-rule="evenodd" d="M103.35 183.588C103.35 183.862 103.128 184.083 102.855 184.083C102.581 184.083 102.359 183.862 102.359 183.588C102.359 183.315 102.581 183.093 102.855 183.093C103.128 183.093 103.35 183.315 103.35 183.588Z" fill="black"/>
<path d="M193.974 313.988C202.236 313.988 208.933 307.3 208.933 299.049C208.933 290.798 202.236 284.109 193.974 284.109C185.713 284.109 179.016 290.798 179.016 299.049C179.016 307.3 185.713 313.988 193.974 313.988Z" stroke="#13C8A4"/>
<path d="M79.9965 325.508C97.6676 325.508 111.993 311.201 111.993 293.552C111.993 275.903 97.6676 261.596 79.9965 261.596C62.3253 261.596 48 275.903 48 293.552C48 311.201 62.3253 325.508 79.9965 325.508Z" stroke="black"/>
<rect width="8.93492" height="9.25464" transform="matrix(-0.998945 0.0459301 0.0459301 0.998945 266.849 191.779)" fill="black"/>
<path d="M306.166 319.337C309.738 328.899 320.63 324.97 321.208 335.334L283.651 335.116L285.126 316.002L306.166 319.337Z" fill="black"/>
<path d="M214.039 312.143C207.297 317.832 213.618 325.557 205.401 329.068L194.657 298.449L210.668 294.095L214.039 312.143Z" fill="black"/>
<path d="M235.95 279.91C242.973 273.379 238.97 248.097 244.869 237.493L269.378 239.67C269.378 239.67 269.308 240.934 269.167 243.181L283.915 243.181C285.46 259.825 306.528 296.343 308.283 318.253L283.704 326.4C279.771 304.138 271.555 286.441 266.569 266.567C265.515 273.449 264.111 280.612 262.215 286.581C255.824 307.017 214.18 317.13 214.18 317.13L208.281 301.118L208.07 300.486L206.104 295.149C205.963 295.079 228.927 286.441 235.95 279.91Z" fill="white"/>
<path d="M283.142 327.102L308.704 318.604L308.704 318.183C307.721 306.244 301.33 290.514 295.08 275.204C289.954 262.564 285.038 250.625 284.336 243.041L284.265 242.549L269.658 242.549C269.799 240.653 269.869 239.6 269.869 239.6L269.869 239.108L244.517 236.861L244.377 237.142C241.568 242.198 241.006 250.485 240.444 258.491C239.812 267.55 239.18 276.117 235.598 279.418C228.716 285.809 206.033 294.446 205.823 294.517L205.331 294.727L213.758 317.691L214.25 317.551C215.935 317.13 256.315 307.087 262.706 286.651C264.181 281.946 265.515 276.047 266.639 269.095C268.535 276.328 270.922 283.351 273.17 290.233C276.892 301.539 280.824 313.267 283.142 326.47L283.142 327.102ZM307.651 317.902L283.984 325.767C281.667 312.705 277.805 301.188 274.083 290.022C271.414 282.087 268.956 274.572 266.919 266.567L266.287 264.038L265.866 266.637C264.602 274.643 263.197 281.314 261.512 286.581C255.613 305.332 218.814 315.444 214.25 316.638L206.525 295.57C209.966 294.236 229.629 286.511 236.16 280.401C240.023 276.749 240.655 268.041 241.357 258.771C241.919 251.047 242.481 243.041 245.009 238.195L268.675 240.302C268.605 240.864 268.605 241.917 268.464 243.322L268.394 243.883L283.212 243.883C284.055 251.608 288.9 263.406 293.957 275.836C300.207 290.654 306.527 306.174 307.651 317.902Z" fill="black"/>
<path d="M208.14 301.61C208.21 301.61 208.28 301.61 208.35 301.61C213.055 299.924 217.62 297.958 221.974 295.711C232.719 290.233 243.393 283.913 246.202 272.676C247.396 268.041 247.326 263.126 247.326 258.35C247.256 251.96 247.256 245.288 250.205 239.389C250.346 239.108 250.205 238.827 249.994 238.687C249.714 238.546 249.433 238.687 249.292 238.898C246.132 245.007 246.202 251.749 246.272 258.35C246.272 263.055 246.343 267.901 245.219 272.396C242.55 283.14 232.017 289.32 221.553 294.728C217.269 296.975 212.704 298.941 208.069 300.556C207.788 300.627 207.648 300.978 207.718 301.259C207.718 301.469 207.929 301.61 208.14 301.61Z" fill="black"/>
<path d="M208.336 307.564C213.538 305.7 218.584 303.526 223.398 301.042C235.277 294.986 247.078 287.999 250.183 275.577C251.503 270.453 251.425 265.018 251.425 259.739C251.348 252.674 251.348 245.298 254.608 238.776" stroke="black" stroke-width="0.5"/>
<path d="M209.585 311.869C215.067 310.124 220.399 308.049 225.501 305.643C238.086 299.784 250.626 292.952 254.319 280.141C255.883 274.858 256.005 269.2 256.201 263.707C256.383 256.352 256.657 248.678 260.293 242.013" stroke="black" stroke-width="0.5"/>
<path d="M213.51 315.65C219.183 313.753 224.694 311.517 229.961 308.94C242.956 302.661 255.889 295.372 259.536 282C261.083 276.485 261.125 270.602 261.247 264.889C261.326 257.241 261.496 249.259 265.176 242.277" stroke="black" stroke-width="0.5"/>
<path d="M304.839 319.801C303.675 287.381 275.744 256.79 283.297 242.276" stroke="black" stroke-width="0.5"/>
<path d="M301.456 322.316C300.262 289.051 271.603 257.662 279.353 242.769" stroke="black" stroke-width="0.5"/>
<path d="M294.837 324.53C295.087 290.522 267.219 257.216 275.788 242.357" stroke="black" stroke-width="0.5"/>
<path d="M290.347 329.85C290.598 295.842 268.315 262.511 269.706 253.989" stroke="black" stroke-width="0.5"/>
<path d="M307.156 326.845C308.117 325.706 309.191 324.686 310.379 323.786C310.663 323.584 310.909 324.009 310.67 324.236C309.553 325.115 308.478 326.134 307.542 327.228C307.303 327.454 306.917 327.072 307.156 326.845Z" fill="white"/>
<path d="M305.909 325.532C306.907 324.766 307.929 323.955 308.881 323.165C309.165 322.963 309.41 323.388 309.172 323.615C308.174 324.38 307.152 325.192 306.2 325.982C305.915 326.184 305.624 325.734 305.909 325.532Z" fill="white"/>
<path d="M209.474 313.548C210.528 314.25 211.511 315.023 212.354 315.936C212.635 316.287 212.143 316.778 211.862 316.427C211.019 315.584 210.106 314.812 209.123 314.11C208.702 313.899 209.053 313.267 209.474 313.548Z" fill="white"/>
<path d="M208.561 316.638C209.333 317.41 210.106 318.183 210.878 318.955C211.229 319.306 210.668 319.798 210.387 319.447L208.069 317.129C207.788 316.778 208.28 316.287 208.561 316.638Z" fill="white"/>
<path d="M266.428 267.129C266.709 267.129 266.92 266.918 266.92 266.637L267.341 255.541L271.274 254.418C271.554 254.347 271.695 254.066 271.625 253.786C271.554 253.505 271.274 253.364 270.993 253.434L266.358 254.769L265.936 266.637C265.936 266.848 266.147 267.058 266.428 267.129Z" fill="black"/>
<path d="M310.239 235.789L326.813 216.517L302.656 219.427L286.533 238.215C285.815 239.062 286.5 240.26 287.554 240.123L306.356 237.848C307.921 237.719 309.254 236.998 310.239 235.789Z" fill="black"/>
<path d="M311.167 236.268L326.404 218.517C327.24 217.566 327.645 216.367 327.608 215.141L331.872 191.169C331.844 190.522 331.038 190.229 330.654 190.696L315.25 208.637C314.315 209.76 313.76 211.217 313.785 212.665L309.47 235.632C309.552 236.482 310.597 236.857 311.167 236.268Z" fill="black"/>
<path d="M310.744 234.418C310.947 234.363 311.046 234.191 311.146 234.019L313.65 220.843C313.713 220.536 313.504 220.301 313.197 220.238C312.889 220.175 312.654 220.383 312.591 220.691L310.087 233.867C310.024 234.175 310.232 234.41 310.54 234.473C310.54 234.473 310.676 234.436 310.744 234.418Z" fill="white"/>
<path d="M322.718 214.103C322.024 214.022 321.59 212.864 321.748 211.515C321.905 210.167 322.595 209.14 323.288 209.221C323.982 209.302 324.416 210.461 324.259 211.809C324.101 213.157 323.411 214.184 322.718 214.103Z" fill="white"/>
<path d="M302.596 234.129C302.732 234.093 302.782 234.007 302.899 233.903L304.9 231.331C305.049 231.073 305.044 230.783 304.768 230.566C304.51 230.417 304.221 230.422 304.004 230.698L302.003 233.27C301.854 233.528 301.859 233.818 302.135 234.035C302.307 234.134 302.461 234.165 302.596 234.129Z" fill="white"/>
<path d="M305.857 233.546C305.993 233.51 306.043 233.424 306.16 233.32L308.161 230.748C308.31 230.49 308.305 230.2 308.029 229.983C307.771 229.834 307.481 229.839 307.264 230.116L305.264 232.687C305.115 232.945 305.119 233.235 305.396 233.452C305.568 233.551 305.722 233.582 305.857 233.546Z" fill="white"/>
<path d="M306.358 228.905C306.494 228.868 306.543 228.782 306.661 228.678L308.662 226.106C308.811 225.848 308.806 225.559 308.53 225.342C308.272 225.193 307.982 225.198 307.765 225.474L305.765 228.046C305.616 228.304 305.62 228.593 305.897 228.81C306.001 228.928 306.222 228.941 306.358 228.905Z" fill="white"/>
<path d="M272.342 203.703C281.208 211.288 276.318 226.411 283.378 224.811C290.437 223.21 299.241 212.926 306.253 220.644C309.673 224.454 305.86 224.603 305.86 224.603C305.86 224.603 307.181 228.175 301.91 227.77C301.91 227.77 300.86 231.177 297.094 229.06C291.675 225.932 289.773 242.436 278.829 242.024C261.715 241.375 272.342 203.703 272.342 203.703Z" fill="white"/>
<path d="M281.933 242.211C286.342 241.029 288.984 237.05 291.228 233.758C293.504 230.313 294.954 228.398 296.864 229.558C298.24 230.353 299.453 230.537 300.502 230.11C301.483 229.702 302.047 228.824 302.278 228.326C304.119 228.414 305.389 228.001 306.022 227.104C306.555 226.38 306.558 225.579 306.481 225.018C307.023 224.873 307.751 224.605 308.062 223.867C308.473 222.958 308.01 221.773 306.588 220.264C301.519 214.642 295.394 218.101 290.028 221.139C287.632 222.508 285.304 223.858 283.165 224.286C282.351 224.504 281.667 224.397 281.151 224.099C279.911 223.268 279.442 220.703 278.95 217.782C278.139 213.128 277.155 207.284 272.541 203.359L271.884 202.808L271.659 203.595C271.352 204.622 264.51 229.285 271.502 238.826C273.228 241.199 275.668 242.435 278.685 242.572C279.997 242.584 280.983 242.465 281.933 242.211ZM295.035 228.158C293.339 228.612 291.876 230.749 290.332 233.126C287.789 236.933 284.615 241.637 278.906 241.495C276.196 241.421 274.082 240.315 272.496 238.196C266.515 229.983 271.462 209.101 272.615 204.72C276.442 208.421 277.348 213.703 278.05 217.95C278.583 221.297 279.052 223.861 280.655 224.959C281.447 225.474 282.352 225.595 283.505 225.286C285.762 224.754 288.158 223.385 290.621 221.997C295.852 218.996 301.353 215.923 305.833 220.975C307.274 222.552 307.166 223.235 307.085 223.475C306.923 223.955 306.004 224.055 305.801 224.11L305.086 224.156L305.336 224.816C305.336 224.816 305.676 225.815 305.143 226.54C304.66 227.178 303.557 227.401 301.919 227.258L301.475 227.232L301.363 227.626C301.363 227.626 301.007 228.739 300.026 229.147C299.298 229.415 298.393 229.294 297.343 228.63C296.55 228.115 295.781 227.958 295.035 228.158Z" fill="black"/>
<path d="M269.314 221.709C269.97 212.319 272.544 203.321 272.544 203.321C277.427 207.451 278.294 213.789 279.137 218.623C275.9 219.793 272.607 220.751 269.314 221.709Z" fill="black"/>
<path d="M301.898 220.939C303.473 221.389 304.768 222.424 305.457 223.911C305.634 224.3 305.078 224.667 304.834 224.296C304.199 223.012 303.144 222.059 301.723 221.64C301.243 221.478 301.418 220.776 301.898 220.939Z" fill="black"/>
<path d="M249.244 245.299L257.655 243.045C265.795 240.864 270.612 232.521 268.431 224.381L264.032 207.965C261.851 199.825 253.508 195.008 245.368 197.189L236.957 199.443C228.817 201.624 224 209.967 226.181 218.107L230.58 234.523C232.761 242.663 241.104 247.48 249.244 245.299Z" fill="white"/>
<path d="M249.371 245.774L257.782 243.52C266.194 241.266 271.141 232.597 268.906 224.254L264.507 207.838C262.253 199.427 253.584 194.479 245.241 196.715L236.83 198.969C228.418 201.223 223.471 209.891 225.706 218.235L230.105 234.651C232.291 243.08 240.96 248.028 249.371 245.774ZM245.446 197.751C253.247 195.66 261.331 200.328 263.422 208.129L267.82 224.545C269.91 232.346 265.243 240.43 257.442 242.521L249.03 244.775C241.23 246.865 233.145 242.197 231.054 234.396L226.656 217.98C224.566 210.18 229.233 202.095 237.034 200.004L245.446 197.751Z" fill="black"/>
<path d="M229.647 214.489C229.918 214.416 230.135 214.14 230.044 213.801C228.99 209.867 232.919 204.452 236.496 203.42C236.767 203.348 236.916 203.09 236.825 202.75C236.753 202.479 236.476 202.262 236.155 202.421C232.104 203.579 227.809 209.529 229.027 214.074C229.05 214.431 229.375 214.562 229.647 214.489Z" fill="black"/>
<path d="M273.857 188.825C274.756 183.336 271.458 178.148 266.523 177.274C261.588 176.4 256.816 180.07 255.917 185.559C255.917 185.559 255.917 185.559 255.879 185.617C255.356 185.509 254.853 185.499 254.467 185.568C251.468 185.855 250.293 188.478 251.613 190.553C252.777 192.355 255.12 193.794 257.634 193.092C259.031 195.053 261.026 196.504 263.252 197.11C270.143 198.991 272.958 194.314 273.857 188.825Z" fill="white"/>
<path d="M253.05 192.709C252.294 192.191 251.654 191.501 251.208 190.777C250.529 189.642 250.43 188.404 250.95 187.255C251.547 185.992 252.842 185.207 254.505 185.009C254.854 184.997 255.202 184.984 255.608 185.012C256.087 182.413 257.476 180.103 259.465 178.54C261.59 176.903 264.162 176.24 266.659 176.697C269.213 177.194 271.422 178.708 272.838 181.017C274.255 183.326 274.86 186.083 274.42 188.876C273.77 192.862 272.304 195.538 270.14 196.981C268.324 198.161 265.964 198.384 263.254 197.613C261.028 197.007 258.994 195.613 257.501 193.669C255.76 193.981 254.212 193.505 253.05 192.709ZM269.488 179.055C268.558 178.417 267.57 177.991 266.429 177.794C264.184 177.342 261.902 177.952 260.047 179.441C258.193 180.93 256.881 183.125 256.441 185.667L256.384 186.129L255.881 186.119C255.417 186.052 254.914 186.041 254.565 186.054C253.289 186.182 252.303 186.761 251.899 187.738C251.513 188.561 251.592 189.452 252.097 190.216C253.067 191.801 255.198 193.178 257.576 192.55L257.905 192.441L258.118 192.754C259.399 194.636 261.278 196.007 263.446 196.574C265.885 197.242 267.954 197.072 269.558 196.08C271.51 194.826 272.821 192.379 273.433 188.701C273.873 186.159 273.365 183.637 272.046 181.561C271.29 180.541 270.417 179.692 269.488 179.055Z" fill="black"/>
<path d="M266.351 188.129C266.678 188.339 267.109 188.249 267.312 187.927C267.516 187.605 267.415 187.173 267.088 186.962C266.761 186.752 266.33 186.842 266.127 187.164C265.923 187.487 266.023 187.918 266.351 188.129Z" fill="black"/>
<path d="M271.218 191.372C271.254 189.808 271.096 188.277 270.686 186.742C270.549 186.314 269.872 186.435 270.008 186.863C270.399 188.302 270.557 189.832 270.56 191.34C270.541 191.745 271.2 191.778 271.218 191.372Z" fill="black"/>
<path d="M270.682 181.643C268.475 182.138 260.044 180.882 260.345 185.604C260.386 186.804 260.891 187.568 259.71 187.93C258.49 188.098 258.371 186.762 258.371 186.762C257.014 186.251 255.463 185.774 254.436 185.908C253.129 181.165 255.369 177.848 257.5 177.718C257.5 177.718 273.413 171.803 275.149 177.424C276.612 182.441 270.682 181.643 270.682 181.643Z" fill="black"/>
<path d="M257.743 189.522C256.917 188.116 255.187 187.428 253.631 187.862C253.209 187.989 253.343 188.667 253.766 188.54C255.034 188.158 256.417 188.609 257.109 189.838C257.34 190.247 257.916 189.892 257.743 189.522Z" fill="black"/>
<path d="M240.265 249.232C252.44 253.967 284.31 243.755 284.31 243.755C284.31 243.755 280.072 236.893 277.937 229.468C277.665 228.45 277.41 227.501 277.206 226.465C276.741 224.19 276.585 221.978 276.84 219.947C277.804 212.418 275.721 207.087 272.342 203.703C271.564 202.967 270.735 202.316 269.924 201.734C269.15 201.287 268.376 200.84 267.553 200.479C263.416 198.607 258.612 198.585 254.904 199.942C254.447 200.137 253.923 200.351 253.466 200.546C253.398 200.564 253.398 200.564 253.33 200.582C252.756 200.881 252.25 201.162 251.762 201.511C251.459 201.738 251.156 201.964 250.853 202.191C250.315 202.626 249.796 203.128 249.276 203.631C244.437 208.636 242.023 216.989 240.883 225.219C240.686 226.653 240.507 228.156 240.377 229.572C240.177 231.807 240.025 233.955 239.992 236C239.957 236.955 239.921 237.909 239.936 238.778C239.835 244.912 240.265 249.232 240.265 249.232Z" fill="black"/>
<path d="M277.08 246.347C281.218 245.238 284.098 244.321 284.437 244.23L285.116 244.048L284.749 243.492C284.73 243.424 280.511 236.63 278.412 229.34C278.139 228.323 277.867 227.305 277.698 226.405C277.216 224.063 277.078 221.919 277.32 220.109C278.449 211.3 275.417 206.223 272.645 203.476C271.866 202.74 271.019 202.022 270.141 201.457C269.349 200.943 268.575 200.496 267.751 200.135C263.632 198.33 258.706 198.123 254.745 199.621C254.22 199.834 253.764 200.029 253.239 200.243L253.171 200.261C252.529 200.578 251.973 200.945 251.485 201.294C251.182 201.521 250.879 201.747 250.577 201.974C250.039 202.409 249.569 202.825 249.049 203.328L248.932 203.432C244.662 207.848 241.753 215.171 240.39 225.278L240.34 225.364C240.125 226.731 239.995 228.147 239.884 229.631C239.665 231.798 239.582 233.929 239.498 236.059C239.463 237.014 239.428 237.969 239.443 238.837C239.391 244.885 239.754 249.223 239.772 249.291L239.795 249.648L240.121 249.779C248.779 253.057 266.905 249.073 277.08 246.347ZM283.486 243.394C278.978 244.747 251.841 252.818 240.735 248.815C240.648 247.675 240.344 243.83 240.447 238.786C240.432 237.918 240.467 236.963 240.503 236.008C240.586 233.878 240.669 231.747 240.907 229.648C241.067 228.078 241.215 226.73 241.412 225.295L241.444 225.141C242.83 215.391 245.59 208.326 249.607 204.051L249.724 203.947C250.176 203.463 250.695 202.96 251.251 202.593C251.554 202.366 251.857 202.14 252.092 201.931C252.512 201.601 253.019 201.319 253.593 201.02L253.661 201.002C254.167 200.721 254.624 200.526 255.098 200.399C258.874 199.023 263.425 199.185 267.372 200.891C268.196 201.252 268.951 201.631 269.658 202.096C270.536 202.66 271.279 203.261 272.058 203.997C275.798 207.648 277.271 213.142 276.428 219.766C276.155 221.73 276.311 223.942 276.762 226.438C276.949 227.406 277.221 228.424 277.512 229.509C279.184 235.75 282.484 241.554 283.486 243.394Z" fill="black"/>
<path d="M239.112 239.055C244.3 238.61 250.147 236.187 254.096 231.93C262.061 223.398 261.469 207.969 253.177 200.085C252.603 200.384 251.959 200.612 251.471 200.961C251.168 201.187 250.714 201.564 250.411 201.791C258.331 208.829 259.179 223.225 251.299 230.717C247.946 233.941 243.283 235.451 239.253 235.877C239.218 236.832 239.098 238.187 239.112 239.055Z" fill="white"/>
<path d="M253.945 219.974C254.723 219.62 255.568 219.249 256.464 218.791C260.215 227.092 265.787 234.323 275.246 230.552C291.678 224.041 296.71 218.403 301.43 223.536C306.218 228.651 301.296 228.734 301.296 228.734C301.296 228.734 300.422 231.44 297.657 231.163C297.657 231.163 296.588 233.413 293.574 232.476C290.56 231.538 291.068 236.419 287.19 238.767C283.311 241.114 267.029 251.439 255.107 245.473C249.299 242.521 245.684 234.184 243.576 226.315C246.925 223.891 250.414 221.72 253.945 219.974Z" fill="white"/>
<path d="M271.14 246.702C275.957 245.411 281.283 243.039 287.101 239.517L287.607 239.236C289.546 238.062 290.404 236.378 291.112 234.953C292.019 233.183 292.385 232.649 293.498 233.005C295.965 233.798 297.46 232.597 298.025 231.719C300.07 231.753 301.271 230.268 301.713 229.204C302.342 229.108 303.513 228.867 303.955 227.803C304.447 226.654 303.758 225.166 301.9 223.119C298.327 219.278 294.592 221.079 287.191 224.661C284.031 226.163 280.111 228.085 275.12 230.077C267.623 233.031 261.923 229.396 256.988 218.577L256.793 218.12L255.695 218.633C254.985 218.969 254.325 219.218 253.751 219.517C250.423 221.209 246.915 223.312 243.313 225.877L243.01 226.103L243.101 226.442C245.968 236.87 249.911 243.448 254.927 245.884C259.376 248.109 264.764 248.41 271.14 246.702ZM292.407 231.916C291.321 232.207 290.762 233.374 290.184 234.474C289.525 235.814 288.699 237.344 287.063 238.291L286.557 238.573C273.352 246.545 262.878 248.698 255.405 244.957C250.784 242.632 246.962 236.24 244.209 226.509C247.626 224.066 250.931 222.018 254.141 220.431C254.715 220.131 255.375 219.882 256.017 219.564L256.221 219.51C261.309 230.361 267.642 234.189 275.46 231.076C280.452 229.085 284.39 227.23 287.6 225.643C294.747 222.201 298.025 220.595 301.096 223.917C303.23 226.18 303.127 227.153 302.996 227.479C302.716 228.063 301.748 228.249 301.373 228.205L301.015 228.228L300.885 228.554C300.835 228.64 300.037 230.816 297.802 230.615L297.426 230.571L297.296 230.897C297.246 230.983 296.407 232.734 293.872 231.959C293.257 231.833 292.814 231.807 292.407 231.916Z" fill="black"/>
<path d="M241.945 225.793C243.2 220.037 244.765 214.461 246.885 208.998C248.724 209.991 250.482 211.006 252.262 212.102C253.59 213.145 254.859 214.291 256.187 215.334C257.344 218.345 258.626 221.498 260.19 224.401C257.918 226.581 250.76 232.521 247.15 235.622C246.29 236.361 244.926 236.014 244.568 234.939C243.541 231.853 242.669 228.758 241.945 225.793Z" fill="black"/>
<path d="M294.781 224.227C297.486 224.012 300.129 225.194 301.06 227.852C301.237 228.241 300.558 228.423 300.381 228.034C299.524 225.647 297.107 224.767 294.759 224.96C294.316 224.934 294.356 224.269 294.781 224.227Z" fill="black"/>
<path d="M292.003 227.153C294.449 226.788 296.772 228.129 297.661 230.363C297.838 230.751 297.16 230.933 296.983 230.544C296.252 228.632 294.206 227.508 292.184 227.831C291.777 227.94 291.596 227.262 292.003 227.153Z" fill="black"/>
<path d="M286.883 189.29C287.086 189.236 287.253 189.045 287.249 188.756C287.244 188.466 287.035 188.231 286.746 188.236L279.219 188.363C278.929 188.368 278.694 188.576 278.699 188.866C278.704 189.155 278.912 189.39 279.202 189.385L286.729 189.259C286.815 189.308 286.883 189.29 286.883 189.29Z" fill="black"/>
<path d="M284.445 194.305C284.649 194.251 284.766 194.146 284.78 193.925C284.843 193.617 284.702 193.364 284.394 193.301L278.2 191.616C277.892 191.554 277.639 191.694 277.576 192.002C277.513 192.309 277.653 192.563 277.961 192.626L284.156 194.31C284.31 194.341 284.378 194.323 284.445 194.305Z" fill="black"/>
<path d="M130.272 283.964C129.951 283.723 129.762 283.485 129.703 283.249C129.642 283.004 129.765 282.632 130.073 282.135C130.252 281.85 130.474 281.674 130.739 281.609C131.003 281.543 131.43 281.688 132.019 282.042C132.191 282.17 132.418 282.278 132.701 282.368C132.982 282.449 133.226 282.464 133.433 282.412C134.311 282.194 134.661 281.726 134.483 281.009C134.429 280.792 134.261 280.643 133.981 280.562C133.707 280.47 133.383 280.435 133.008 280.458C132.633 280.481 132.22 280.474 131.77 280.435C131.317 280.388 130.887 280.309 130.479 280.2C130.071 280.091 129.691 279.855 129.34 279.491C128.996 279.116 128.749 278.626 128.599 278.022C128.393 277.191 128.52 276.393 128.981 275.627C129.449 274.849 130.216 274.328 131.283 274.063C131.849 273.922 132.382 273.87 132.882 273.906C133.389 273.93 133.751 273.995 133.968 274.102L134.389 274.283C134.75 274.484 134.953 274.679 135 274.867C135.047 275.056 134.998 275.344 134.854 275.73C134.65 276.282 134.379 276.6 134.039 276.685C133.841 276.734 133.572 276.701 133.232 276.585C133.199 276.573 133.131 276.54 133.027 276.485C132.933 276.428 132.847 276.385 132.769 276.354C132.541 276.281 132.271 276.283 131.959 276.36C131.657 276.435 131.421 276.574 131.251 276.776C131.088 276.967 131.039 277.195 131.105 277.459C131.168 277.714 131.338 277.892 131.614 277.994C131.899 278.093 132.228 278.127 132.601 278.094C132.973 278.062 133.387 278.054 133.843 278.071C134.295 278.079 134.722 278.123 135.123 278.204C135.524 278.285 135.895 278.508 136.237 278.874C136.585 279.228 136.836 279.712 136.988 280.326C137.141 280.939 137.153 281.512 137.025 282.045C136.895 282.569 136.663 283.007 136.33 283.36C135.69 284.051 134.936 284.504 134.067 284.72C133.624 284.83 133.191 284.882 132.769 284.877C132.344 284.862 131.989 284.805 131.704 284.706C131.129 284.528 130.707 284.322 130.438 284.089L130.272 283.964Z" fill="#13C8A4"/>
<path d="M137.256 272.743L145.127 270.787C145.429 270.712 145.661 270.694 145.821 270.734C145.979 270.765 146.1 270.85 146.185 270.99C146.27 271.129 146.343 271.321 146.404 271.567C146.465 271.812 146.49 272.016 146.481 272.179C146.469 272.332 146.413 272.451 146.314 272.536C146.165 272.663 145.935 272.765 145.623 272.843L142.919 273.515L144.69 280.636C144.744 280.853 144.774 281.016 144.781 281.124C144.797 281.23 144.785 281.364 144.745 281.524C144.712 281.673 144.613 281.797 144.447 281.899C144.282 282 144.053 282.087 143.761 282.16C143.468 282.232 143.225 282.263 143.032 282.251C142.848 282.236 142.702 282.172 142.593 282.059C142.492 281.934 142.419 281.822 142.374 281.723C142.337 281.612 142.291 281.448 142.237 281.231L140.47 274.124L137.752 274.8C137.45 274.875 137.22 274.897 137.062 274.866C136.902 274.826 136.779 274.736 136.695 274.596C136.61 274.457 136.537 274.265 136.476 274.02C136.415 273.774 136.391 273.575 136.403 273.421C136.412 273.259 136.467 273.135 136.566 273.05C136.715 272.923 136.945 272.821 137.256 272.743Z" fill="#13C8A4"/>
<path d="M154.944 268.767C155.001 268.593 155.112 268.455 155.277 268.354C155.442 268.253 155.657 268.169 155.921 268.103C156.195 268.035 156.418 268.005 156.59 268.012C156.762 268.02 156.899 268.046 157 268.091C157.102 268.136 157.188 268.22 157.258 268.342C157.355 268.489 157.444 268.727 157.526 269.057L158.589 273.333C158.899 274.578 158.793 275.807 158.273 277.019C158.015 277.594 157.626 278.107 157.107 278.556C156.585 278.997 155.96 279.307 155.234 279.488C154.516 279.666 153.823 279.678 153.153 279.524C152.493 279.368 151.918 279.09 151.428 278.69C150.415 277.88 149.751 276.842 149.437 275.578L148.377 271.317C148.321 271.09 148.285 270.924 148.268 270.818C148.259 270.7 148.275 270.56 148.315 270.4C148.355 270.24 148.458 270.109 148.623 270.008C148.788 269.907 149.022 269.818 149.324 269.743C149.626 269.668 149.874 269.637 150.067 269.649C150.261 269.661 150.408 269.729 150.509 269.855C150.676 270.044 150.807 270.327 150.901 270.704L151.956 274.951C152.1 275.527 152.377 276.039 152.789 276.488C152.997 276.717 153.262 276.877 153.585 276.967C153.908 277.057 154.263 277.054 154.65 276.957C155.339 276.786 155.79 276.403 156.003 275.809C156.216 275.215 156.239 274.583 156.073 273.913L154.996 269.581C154.904 269.213 154.887 268.942 154.944 268.767Z" fill="#13C8A4"/>
<path d="M160.729 266.908L163.351 266.271C164.72 265.931 166.046 266.128 167.331 266.861C168.613 267.584 169.433 268.668 169.792 270.112C170.149 271.546 169.945 272.905 169.182 274.187C168.428 275.466 167.329 276.286 165.885 276.645L163.294 277.289C162.718 277.432 162.33 277.403 162.13 277.202C161.968 277.032 161.836 276.744 161.735 276.339L159.778 268.467C159.722 268.241 159.686 268.075 159.669 267.968C159.662 267.86 159.679 267.725 159.719 267.565C159.788 267.277 160.125 267.059 160.729 266.908ZM165.304 274.128C165.984 273.96 166.535 273.557 166.958 272.921C167.379 272.275 167.494 271.57 167.304 270.805C167.114 270.041 166.687 269.471 166.022 269.095C165.365 268.707 164.677 268.602 163.96 268.781L162.601 269.119L163.931 274.47L165.304 274.128Z" fill="#13C8A4"/>
<path d="M178.156 262.802C178.698 263.008 179.007 263.261 179.082 263.563C179.126 263.743 179.08 264.02 178.943 264.395L177.022 269.728L177.694 272.431C177.748 272.649 177.779 272.816 177.789 272.934C177.805 273.04 177.793 273.173 177.753 273.334C177.712 273.494 177.61 273.625 177.444 273.726C177.279 273.827 177.046 273.915 176.744 273.991C176.442 274.066 176.194 274.097 176 274.085C175.807 274.073 175.655 274.006 175.544 273.883C175.431 273.751 175.352 273.635 175.308 273.536C175.27 273.425 175.223 273.256 175.167 273.03L174.502 270.354L170.307 266.541C170.01 266.275 169.84 266.051 169.795 265.872C169.72 265.57 169.856 265.231 170.203 264.854C170.548 264.467 170.81 264.252 170.99 264.207C171.169 264.163 171.32 264.165 171.442 264.215C171.629 264.279 171.847 264.43 172.096 264.669L175.163 267.634L176.485 263.578C176.594 263.25 176.704 263.027 176.815 262.909C176.924 262.782 177.063 262.698 177.233 262.655C177.412 262.611 177.72 262.659 178.156 262.802Z" fill="#13C8A4"/>
<path d="M186.094 260.603L193.966 258.646C194.268 258.571 194.499 258.554 194.659 258.594C194.817 258.625 194.938 258.71 195.023 258.849C195.108 258.988 195.181 259.181 195.242 259.426C195.303 259.671 195.328 259.876 195.319 260.038C195.307 260.192 195.251 260.311 195.152 260.395C195.003 260.523 194.773 260.625 194.462 260.702L191.758 261.374L193.528 268.495C193.582 268.712 193.612 268.875 193.619 268.984C193.636 269.09 193.624 269.223 193.583 269.383C193.55 269.532 193.451 269.657 193.286 269.758C193.12 269.859 192.891 269.946 192.599 270.019C192.306 270.092 192.063 270.122 191.87 270.11C191.686 270.096 191.54 270.032 191.431 269.918C191.33 269.793 191.257 269.681 191.213 269.582C191.175 269.471 191.129 269.307 191.075 269.09L189.309 261.983L186.59 262.659C186.288 262.734 186.058 262.756 185.9 262.725C185.74 262.685 185.618 262.595 185.533 262.456C185.448 262.317 185.375 262.124 185.314 261.879C185.253 261.634 185.229 261.434 185.241 261.281C185.25 261.118 185.305 260.994 185.404 260.91C185.553 260.782 185.783 260.68 186.094 260.603Z" fill="#13C8A4"/>
<path d="M197.216 259.176C197.162 258.959 197.126 258.797 197.11 258.691C197.101 258.573 197.116 258.434 197.157 258.274C197.225 257.986 197.562 257.767 198.166 257.617C198.826 257.453 199.262 257.53 199.471 257.849C199.558 257.997 199.643 258.237 199.725 258.567L201.681 266.438C201.738 266.665 201.769 266.832 201.776 266.941C201.793 267.047 201.781 267.18 201.74 267.341C201.672 267.628 201.335 267.847 200.731 267.997C200.071 268.162 199.639 268.079 199.437 267.748C199.342 267.611 199.254 267.377 199.172 267.047L197.216 259.176Z" fill="#13C8A4"/>
<path d="M212.801 254.4C212.912 254.522 212.986 254.639 213.023 254.75C213.071 254.859 213.121 255.022 213.175 255.239L215.128 263.096C215.29 263.747 215.206 264.174 214.875 264.376C214.71 264.477 214.491 264.562 214.217 264.63C213.943 264.698 213.72 264.728 213.548 264.721C213.376 264.714 213.239 264.688 213.138 264.643C213.036 264.598 212.947 264.52 212.869 264.409C212.782 264.26 212.697 264.021 212.615 263.69L211.436 258.948C211.273 259.299 211.045 259.852 210.751 260.606C210.456 261.351 210.266 261.819 210.183 262.01C210.101 262.201 210.044 262.335 210.013 262.413C209.98 262.482 209.883 262.596 209.722 262.756C209.569 262.904 209.384 263.006 209.167 263.059C208.959 263.111 208.754 263.112 208.551 263.062C208.355 263.001 208.208 262.932 208.109 262.856L207.957 262.729C207.71 262.54 207.212 262.132 206.466 261.506C205.716 260.871 205.311 260.531 205.25 260.486L206.436 265.257C206.49 265.474 206.521 265.641 206.531 265.759C206.547 265.865 206.534 265.994 206.491 266.145C206.413 266.435 206.077 266.654 205.482 266.801C204.906 266.944 204.516 266.906 204.311 266.687C204.203 266.573 204.125 266.462 204.078 266.354C204.04 266.243 203.994 266.074 203.937 265.848L201.984 257.991C201.93 257.773 201.895 257.612 201.879 257.506C201.869 257.388 201.885 257.249 201.925 257.088C202.006 256.808 202.343 256.594 202.938 256.446C203.193 256.382 203.418 256.361 203.614 256.383C203.817 256.393 203.954 256.423 204.028 256.475L204.134 256.539L208.396 259.959C209.472 257.437 210.195 255.769 210.564 254.956C210.661 254.661 211.007 254.44 211.602 254.292C212.206 254.142 212.606 254.178 212.801 254.4Z" fill="#13C8A4"/>
<path d="M219.587 260.649L223.948 259.565C224.165 259.511 224.328 259.481 224.436 259.474C224.552 259.455 224.69 259.466 224.85 259.507C225.138 259.575 225.357 259.912 225.507 260.516C225.671 261.176 225.593 261.607 225.272 261.807C225.125 261.903 224.887 261.993 224.556 262.075L218.95 263.468C218.29 263.633 217.858 263.549 217.656 263.219C217.562 263.082 217.473 262.848 217.391 262.518L215.435 254.647C215.315 254.166 215.324 253.818 215.461 253.603C215.596 253.379 215.913 253.205 216.413 253.081L221.991 251.694C222.208 251.64 222.371 251.61 222.479 251.603C222.595 251.584 222.733 251.595 222.893 251.635C223.181 251.704 223.4 252.041 223.55 252.645C223.714 253.305 223.636 253.736 223.315 253.936C223.168 254.032 222.93 254.121 222.6 254.204L218.254 255.284L218.609 256.714L221.412 256.017C221.629 255.963 221.792 255.933 221.901 255.926C222.016 255.907 222.154 255.918 222.314 255.958C222.602 256.027 222.821 256.363 222.971 256.967C223.135 257.628 223.052 258.059 222.722 258.262C222.575 258.358 222.337 258.448 222.007 258.53L219.232 259.22L219.587 260.649Z" fill="#13C8A4"/>
<path d="M80.2861 261.588V258.058C80.2861 255.849 82.077 254.058 84.2861 254.058H139.804C142.014 254.058 143.805 252.267 143.805 250.058V244.23" stroke="black" stroke-linejoin="round"/>
<line x1="194.275" y1="211.653" x2="226.046" y2="211.653" stroke="black"/>
<path d="M165.101 89.1327L130.841 40.4863L54.4864 94.2612L88.7471 142.908L165.101 89.1327Z" fill="#EE7D8B"/>
<path d="M8.40332 133.186L8.40332 334C8.40332 335.228 11.089 335.228 11.089 334V133.186C11.089 131.959 8.40332 131.959 8.40332 133.186Z" fill="black"/>
<path d="M112.638 140.903H6.2251C4.12006 140.903 2.37793 139.161 2.37793 137.056V130.886C2.37793 128.781 4.12006 127.039 6.2251 127.039H112.638C114.743 127.039 116.485 128.781 116.485 130.886V137.056C116.485 139.161 114.743 140.903 112.638 140.903Z" fill="white"/>
<path d="M112.639 141.412H6.22571C3.75774 141.412 1.79785 139.452 1.79785 136.984V130.814C1.79785 128.346 3.75774 126.386 6.22571 126.386H112.639C115.107 126.386 117.067 128.346 117.067 130.814V136.984C117.067 139.452 115.034 141.412 112.639 141.412ZM6.22571 127.548C4.41103 127.548 2.88666 129.072 2.88666 130.887V137.057C2.88666 138.871 4.41103 140.396 6.22571 140.396H112.639C114.454 140.396 115.978 138.871 115.978 137.057V130.887C115.978 129.072 114.454 127.548 112.639 127.548H6.22571Z" fill="black"/>
<path d="M116.486 132.266H2.37854C2.08819 132.266 1.79785 132.048 1.79785 131.685C1.79785 131.322 2.0156 131.104 2.37854 131.104H116.559C116.849 131.104 117.139 131.322 117.139 131.685C117.139 132.048 116.776 132.266 116.486 132.266Z" fill="black"/>
<path d="M116.486 136.694H2.37854C2.08819 136.694 1.79785 136.476 1.79785 136.113C1.79785 135.75 2.0156 135.532 2.37854 135.532H116.559C116.849 135.532 117.139 135.75 117.139 136.113C117.139 136.476 116.776 136.694 116.486 136.694Z" fill="black"/>
<path d="M121.277 182.714H88.8301V170.738L108.211 163.188C108.211 163.188 108.937 167.834 110.679 171.681C110.751 171.899 110.897 172.117 110.969 172.262C111.26 172.915 111.623 173.568 111.985 174.149C112.131 174.367 112.276 174.512 112.348 174.73C113.074 175.673 113.945 176.399 114.889 176.762C117.429 177.633 118.954 178.795 119.897 179.811C120.115 180.029 120.26 180.247 120.406 180.464C121.277 181.698 121.277 182.714 121.277 182.714Z" fill="black"/>
<path d="M120.406 180.392H88.8301V179.738H119.825C120.043 179.956 120.188 180.174 120.406 180.392Z" fill="white"/>
<path d="M110.897 172.262C109.518 172.915 108.066 173.641 106.687 174.294C106.324 174.44 105.961 173.931 106.324 173.714C107.776 173.06 109.155 172.334 110.607 171.681C110.607 171.681 110.607 171.681 110.679 171.681C110.752 171.899 110.825 172.044 110.897 172.262Z" fill="white"/>
<path d="M112.349 174.657C111.115 175.528 109.953 176.399 108.719 177.27C108.356 177.488 107.993 176.907 108.356 176.689C109.518 175.818 110.752 175.02 111.913 174.149C112.058 174.294 112.204 174.512 112.349 174.657Z" fill="white"/>
<path d="M149.514 147.945L120.116 161.736L119.172 159.631L118.882 159.051L113.583 147.727L129.407 135.823C129.407 135.823 132.02 139.67 135.214 142.501C135.359 142.646 135.577 142.791 135.722 142.936C136.303 143.372 136.884 143.807 137.464 144.17C137.682 144.315 137.827 144.388 138.045 144.461C139.134 145.041 140.15 145.332 141.166 145.259C143.852 144.969 145.667 145.332 146.973 145.912C147.264 146.058 147.481 146.13 147.772 146.275C149.078 147.074 149.514 147.945 149.514 147.945Z" fill="black"/>
<path d="M108.718 161.445C108.065 157.38 107.121 151.646 106.177 145.548C108.21 148.96 109.662 151.21 109.662 151.21L133.18 139.596C133.18 139.596 126.429 126.385 116.63 108.964C106.831 91.5435 85.4899 98.2941 64.9477 105.335L65.0929 106.061C57.3986 106.134 49.7043 106.424 42.0826 107.15C37.0741 107.658 32.2108 108.602 27.3474 109.69C26.9119 124.861 27.8555 135.677 38.5984 136.185C52.2449 136.838 79.7555 136.185 79.7555 136.185C79.7555 136.185 79.1748 154.912 82.5138 166.236C82.5864 166.454 82.659 166.671 82.7316 166.889C83.4575 169.139 84.3285 171.027 85.4173 172.406L109.807 167.252C109.807 167.252 109.516 165.292 109.008 162.026C108.79 161.881 108.718 161.663 108.718 161.445Z" fill="white"/>
<path d="M85.056 173.06L84.8382 172.77C83.7494 171.391 82.8784 169.503 82.0799 167.035C82.0073 166.818 81.9347 166.6 81.8621 166.382C78.886 156.22 79.0312 139.96 79.1038 136.694C75.1115 136.766 50.8673 137.275 38.4548 136.694C26.9134 136.113 26.3327 124.064 26.6957 109.619V109.183L27.1312 109.111C31.559 108.167 36.7853 107.078 41.939 106.57C48.4719 105.917 55.3677 105.626 64.3685 105.481L64.296 104.901L64.7315 104.755C84.4027 98.0048 106.76 90.4557 117.067 108.675C126.794 125.878 133.544 139.162 133.617 139.307L133.835 139.815L109.373 151.937L109.082 151.502C109.082 151.502 108.284 150.195 107.05 148.235C107.848 153.244 108.574 157.962 109.155 161.374C109.155 161.519 109.228 161.591 109.228 161.737L110.171 167.761L85.056 173.06ZM80.1926 135.605V136.186C80.1926 136.404 79.6119 154.986 82.8783 166.092C82.9509 166.31 83.0235 166.527 83.0961 166.745C83.7494 168.923 84.5478 170.592 85.4915 171.826L109.01 166.89L108.211 161.954C108.211 161.809 108.139 161.664 108.139 161.591C107.485 157.526 106.542 151.792 105.598 145.695L105.163 142.936L106.614 145.332C108.139 147.872 109.3 149.76 109.808 150.558L132.383 139.38C131.076 136.839 124.761 124.644 116.051 109.256C106.252 91.98 84.6204 99.1662 65.4574 105.699L65.6025 106.57H64.9492C55.7306 106.715 48.6171 107.006 42.0116 107.659C37.0031 108.167 32.0671 109.183 27.7119 110.054C27.2764 126.241 28.9459 135.097 38.4548 135.605C51.9561 136.258 79.3216 135.605 79.6119 135.605H80.1926Z" fill="black"/>
<path d="M94.3471 114.119H94.2745L70.1029 108.965C69.8126 108.893 69.5948 108.602 69.6674 108.312C69.74 108.022 70.0303 107.804 70.3207 107.876L94.4923 113.03C94.7826 113.103 95.0004 113.393 94.9278 113.683C94.8552 113.901 94.6375 114.119 94.3471 114.119Z" fill="black"/>
<path d="M147.699 146.276L119.172 159.632L118.882 159.051L146.973 145.913C147.264 145.985 147.481 146.13 147.699 146.276Z" fill="white"/>
<path d="M135.722 142.936C134.706 144.17 133.762 145.332 132.746 146.566C132.455 146.928 131.947 146.493 132.165 146.203C133.181 144.969 134.125 143.807 135.141 142.573C135.359 142.646 135.577 142.791 135.722 142.936Z" fill="white"/>
<path d="M137.609 144.243C136.956 145.331 136.375 146.493 135.722 147.582C135.504 147.945 136.085 148.38 136.303 148.017C136.956 146.856 137.609 145.694 138.19 144.606L137.609 144.243Z" fill="white"/>
<path d="M104.146 142.21C104.001 142.21 103.783 142.138 103.711 141.993C97.323 132.193 94.0566 124.499 91.7338 113.756C91.6612 113.466 91.879 113.176 92.1693 113.103C92.4597 113.03 92.75 113.248 92.8226 113.538C95.1454 124.136 98.3392 131.685 104.654 141.412C104.8 141.63 104.727 141.993 104.509 142.138C104.364 142.138 104.291 142.21 104.146 142.21Z" fill="black"/>
<path d="M108.647 146.275C108.429 146.275 108.284 146.13 108.139 145.985C107.993 145.695 108.139 145.404 108.356 145.259C115.325 141.775 122.293 138.073 129.044 134.153C129.334 134.008 129.624 134.081 129.77 134.371C129.915 134.661 129.842 134.952 129.552 135.097C122.801 139.017 115.76 142.718 108.792 146.203C108.792 146.203 108.719 146.275 108.647 146.275Z" fill="black"/>
<path d="M84.0397 166.527C83.7494 166.527 83.5316 166.31 83.5316 166.092C83.4591 165.802 83.6768 165.511 83.9672 165.439L88.7579 164.568C95.1456 163.406 100.517 162.39 107.631 161.083C107.921 161.011 108.211 161.229 108.284 161.519C108.357 161.809 108.139 162.1 107.848 162.172C100.735 163.479 95.436 164.422 88.9757 165.656L84.1849 166.527C84.1123 166.527 84.1123 166.527 84.0397 166.527Z" fill="black"/>
<rect x="45.4336" y="61.0674" width="8.98466" height="12.6574" transform="rotate(3.20709 45.4336 61.0674)" fill="black"/>
<path d="M44.3336 47.1925C39.688 49.5879 38.091 55.6852 40.7768 60.839C40.7768 60.839 40.7768 60.8389 40.7768 60.9115C40.3412 61.2019 39.9057 61.4922 39.5428 61.7826C37.2926 63.9602 37.9458 66.8637 40.2686 67.8073C42.3011 68.6058 45.2046 68.2428 46.8015 66.0652C49.1243 66.8637 51.6649 66.7911 53.9151 65.8475C60.7383 63.0165 60.1576 57.3547 57.4719 52.201C54.8587 47.0473 48.9792 44.7971 44.3336 47.1925Z" fill="white"/>
<path d="M42.4471 68.752C41.576 68.752 40.7776 68.6068 40.1243 68.3165C38.8903 67.8084 38.0192 66.7922 37.7289 65.5582C37.4386 64.1064 38.0193 62.5821 39.2533 61.4207C39.471 61.2029 39.8339 60.9126 40.1243 60.6948C38.9629 58.1543 38.6725 55.3959 39.3258 52.8554C40.0517 50.0971 41.7212 47.9194 44.1166 46.6855C46.512 45.4515 49.2703 45.3063 51.8834 46.3225C54.4966 47.3387 56.6742 49.2986 58.0534 51.9117C59.9407 55.6137 60.4488 58.8075 59.5051 61.4207C58.7067 63.5983 56.9646 65.2678 54.2063 66.3566C51.956 67.3003 49.4155 67.3729 47.0927 66.7196C45.7861 68.1713 44.044 68.752 42.4471 68.752ZM48.3267 46.758C47.0201 46.758 45.7861 47.0484 44.6247 47.6291C42.5197 48.7179 40.9953 50.6778 40.4146 53.0731C39.7614 55.5411 40.1243 58.1543 41.3583 60.5496L41.576 60.9851L41.1405 61.2755C40.705 61.5659 40.3421 61.7836 40.0517 62.074C39.1081 63.0176 38.6726 64.1064 38.8903 65.1952C39.0355 66.0663 39.6888 66.7921 40.6324 67.1551C42.3745 67.8084 44.9877 67.6632 46.5846 65.6308L46.8023 65.3404L47.1653 65.4856C49.4155 66.2114 51.8109 66.1389 53.9159 65.2678C56.3839 64.2516 57.9082 62.7998 58.6341 60.9851C59.5051 58.7349 58.997 55.8315 57.2549 52.3473C56.021 49.9519 54.0611 48.1372 51.6657 47.2661C50.4317 46.9758 49.3429 46.758 48.3267 46.758Z" fill="black"/>
<path d="M50.9742 56.3895C51.3738 56.3572 51.6715 56.0071 51.6392 55.6075C51.6069 55.2079 51.2568 54.9102 50.8573 54.9425C50.4577 54.9748 50.16 55.3249 50.1923 55.7245C50.2246 56.124 50.5747 56.4218 50.9742 56.3895Z" fill="black"/>
<path d="M57.0372 55.9768C56.0935 54.6702 55.0047 53.4362 53.6981 52.42C53.3352 52.1296 52.8271 52.7103 53.2626 53.0006C54.4966 53.9443 55.5854 55.1057 56.4564 56.4123C56.6742 56.7752 57.2549 56.3397 57.0372 55.9768Z" fill="black"/>
<path d="M44.6974 63.0175C43.1005 62.3642 41.2858 62.8723 40.2696 64.324C39.9792 64.687 40.5599 65.1951 40.8503 64.7595C41.6487 63.5981 43.1005 63.1626 44.4071 63.6707C44.8426 63.8885 45.1329 63.2352 44.6974 63.0175Z" fill="black"/>
<path d="M50.3585 48.2824C48.8342 50.0971 41.1399 54.4524 44.3338 58.2269C45.1322 59.1705 46.0033 59.5335 45.2774 60.5497C44.4064 61.4933 43.3901 60.4045 43.3901 60.4045C41.9384 60.84 40.4866 61.4933 39.7607 62.2192C35.7684 59.098 35.4781 54.8879 37.1476 53.4361C37.1476 53.4361 34.2441 43.3465 40.2689 43.9998C40.2689 43.9998 41.648 34.636 49.3423 37.975C57.0366 41.314 50.3585 48.2824 50.3585 48.2824Z" fill="black"/>
<path d="M104.147 59.1704C103.203 58.9526 102.332 58.7348 101.388 58.5897C100.009 58.2993 98.6302 57.9364 97.1058 57.5008C95.2185 56.9927 93.1861 56.4847 91.2988 56.1217C91.8795 51.8391 92.5328 46.9757 94.1298 42.4027C96.3074 35.9424 101.026 32.9663 103.421 32.9663C103.711 32.9663 104.292 33.0389 104.365 33.4018C104.728 34.5632 102.695 36.3779 101.969 36.9586L100.88 37.7571L102.187 37.9022C102.332 37.9022 106.179 38.483 106.978 42.7656C107.558 45.6691 107.413 47.8467 106.76 48.7904C106.542 49.0807 106.179 49.2985 105.816 49.2985L105.381 49.371L105.308 49.8066C105.308 49.8066 104.8 53.9441 104.219 59.3155L104.147 59.1704Z" fill="white"/>
<path d="M103.493 33.4018C103.784 33.4018 103.856 33.4744 103.929 33.4744C104.074 34.1277 102.912 35.5068 101.751 36.3779L99.646 37.9748L102.332 38.3377C102.332 38.3377 105.889 38.8459 106.687 42.7656C107.195 45.4513 107.123 47.5564 106.542 48.3548C106.397 48.5726 106.251 48.6451 105.961 48.6451L105.09 48.7178L105.018 49.5888C105.018 49.6614 104.582 53.5085 104.001 58.5171C103.203 58.3719 102.477 58.1541 101.679 58.0089C100.299 57.7186 98.9201 57.3556 97.4684 56.9201C95.7263 56.412 93.9116 55.9765 92.097 55.6136C92.6777 51.4761 93.3309 46.903 94.7827 42.4752C96.8877 36.0875 101.461 33.4018 103.493 33.4018ZM103.493 32.313C100.953 32.313 96.0167 35.2891 93.6213 42.1849C91.9518 47.0482 91.2985 52.0568 90.7178 56.5572C94.2746 57.1379 97.9765 58.3719 101.316 59.0977C102.477 59.3155 103.638 59.6058 104.8 59.8962C105.38 54.307 105.961 49.8066 105.961 49.8066C108.429 49.5888 108.211 45.6691 107.631 42.6204C106.687 37.9022 102.332 37.3215 102.332 37.3215C102.332 37.3215 105.453 34.9987 104.945 33.184C104.8 32.6033 104.219 32.313 103.493 32.313Z" fill="black"/>
<path d="M105.961 32.8212L90.935 44.1449C89.4833 45.2337 91.1528 47.4113 92.6046 46.3951L107.63 35.0714C108.356 34.5633 109.517 32.8212 109.082 32.2405C108.719 31.6598 106.687 32.2405 105.961 32.8212Z" fill="black"/>
<path d="M97.2503 56.2668C95.1453 55.6135 93.1128 54.8151 91.0804 54.0166C90.0642 61.2753 89.6286 67.5905 86.217 70.131C80.9907 74.0507 72.1351 72.7441 52.8994 70.0584L61.8277 88.6408C81.1359 95.6818 93.5484 93.7219 99.7909 84.5759C104.074 78.3334 104.364 65.0499 105.017 57.8637C102.404 57.4282 99.7183 57.0653 97.2503 56.2668Z" fill="black"/>
<path d="M94.4922 48.2821C95.5084 43.9994 99.8637 36.8133 101.751 38.4828C103.638 40.1523 100.154 42.9832 100.154 42.9832C100.154 42.9832 102.332 50.4597 101.17 51.5485C100.154 52.7099 94.4922 48.2821 94.4922 48.2821Z" fill="white"/>
<path d="M98.1946 39.3541C96.6702 41.0236 95.654 43.0561 95.2185 45.3063C95.1459 45.7418 95.7992 45.9596 95.8718 45.5241C96.3073 43.419 97.1784 41.4592 98.7027 39.8623C98.993 39.4993 98.5575 39.0638 98.1946 39.3541Z" fill="black"/>
<path d="M100.154 44.7982C101.388 43.5642 102.186 42.1125 102.549 40.4429C102.622 40.0074 101.968 39.7897 101.896 40.2252C101.533 41.9673 100.734 43.3465 99.4278 44.5804C99.2826 44.7256 99.3552 45.016 99.5004 45.1611C101.605 46.6129 102.549 49.0808 102.041 51.5488C101.968 51.9843 102.622 52.2021 102.694 51.7666C103.275 49.0809 102.259 46.4677 100.154 44.7982Z" fill="black"/>
<path d="M106.396 48.3551C105.67 48.5003 104.799 47.9921 104.654 47.1937C104.654 47.1211 104.582 47.0485 104.582 47.0485C104.872 46.4678 104.945 45.8145 105.017 45.2338C105.162 44.2902 105.162 43.2739 105.235 42.2577C105.235 41.5318 104.654 41.4593 104.582 42.04C104.436 43.2014 104.945 48.6454 102.259 47.3388C101.823 47.1211 101.533 47.7744 101.896 47.9195C102.767 48.3551 103.493 48.2825 104.073 47.7018C104.436 48.6454 105.453 49.2261 106.541 49.0083C106.977 48.9358 106.832 48.2825 106.396 48.3551Z" fill="black"/>
<path d="M103.276 62.2917C100.663 62.2917 93.6942 61.0577 91.1537 59.7511C90.8633 59.6059 90.7907 59.3156 90.9359 59.0252C91.081 58.7349 91.3714 58.6623 91.6617 58.8074C94.2023 60.114 101.751 61.4206 103.711 61.2754C104.002 61.2754 104.292 61.4932 104.292 61.7836C104.292 62.0739 104.074 62.3642 103.784 62.3642C103.639 62.2917 103.421 62.2917 103.276 62.2917Z" fill="white"/>
<path d="M67.1265 106.715C67.925 102.069 67.6346 91.5443 65.0941 82.8338C63.9327 78.7689 63.4971 74.8492 60.0855 72.5264C58.1257 71.2198 55.8029 70.3487 52.8994 70.0584C39.6159 68.6792 27.9293 74.7766 27.276 96.4802C27.0583 102.505 26.7679 108.167 26.6953 113.248C40.4143 112.449 53.9156 110.272 67.1265 106.715Z" fill="black"/>
<path d="M65.8203 87.0439C65.6025 87.0439 65.3848 86.8988 65.3122 86.6084L63.7152 79.8578C63.6427 79.5674 63.8604 79.2771 64.1508 79.2045C64.4411 79.1319 64.7315 79.3497 64.8041 79.64L66.401 86.3906C66.4736 86.681 66.2558 86.9713 65.9655 87.0439C65.8929 87.0439 65.8929 87.0439 65.8203 87.0439Z" fill="white"/>
<path d="M12.2494 123.264C12.0316 126.603 11.4509 128.128 9.92658 128.345C3.90183 128.563 -1.17929 130.813 1.21609 135.023C0.272454 137.419 2.81302 137.927 2.81302 137.927C2.81302 137.927 2.66784 140.177 4.84546 140.395C6.44239 140.613 7.89413 139.451 9.41846 137.419C10.725 139.887 11.8864 139.088 16.3143 138.58C24.7344 137.637 23.5004 128.563 23.5004 124.861C20.3792 121.014 17.4757 121.595 12.2494 123.264Z" fill="white"/>
<path d="M5.20964 140.976C5.06447 140.976 4.91931 140.976 4.77413 140.976C2.95945 140.759 2.37875 139.38 2.23357 138.363C1.79805 138.218 1.07215 137.855 0.709211 137.129C0.346274 136.549 0.346265 135.823 0.564027 135.097C-0.307022 133.427 -0.0166366 132.193 0.418888 131.395C1.58029 129.362 5.06448 127.983 9.85525 127.838C10.7263 127.693 11.3796 126.895 11.5973 123.265V122.902L11.9603 122.757C17.0414 121.16 20.3804 120.362 23.8646 124.572L24.0098 124.717V124.935C24.0098 125.298 24.0098 125.733 24.0098 126.241C24.155 130.451 24.3727 138.291 16.3155 139.234C15.4445 139.307 14.7186 139.452 14.1379 139.525C11.6699 139.888 10.4359 140.033 9.27452 138.436C8.33088 139.742 6.95174 140.976 5.20964 140.976ZM12.7587 123.628C12.4684 126.604 11.9603 128.564 10.073 128.854C5.71776 129 2.45134 130.161 1.5077 131.903C1.07217 132.702 1.14475 133.645 1.72545 134.734L1.87064 134.952L1.79802 135.169C1.58026 135.75 1.58028 136.186 1.72545 136.549C2.08839 137.202 2.95945 137.347 2.95945 137.347L3.46752 137.42V137.928C3.46752 138.073 3.39496 139.67 4.99189 139.815C6.29846 139.96 7.53243 139.089 9.05676 137.057L9.56489 136.403L10.0004 137.129C10.8714 138.799 11.4521 138.726 14.1379 138.363C14.7912 138.291 15.5171 138.146 16.3881 138.073C23.4291 137.275 23.2113 130.379 23.0661 126.241C23.0661 125.806 23.0661 125.443 23.0661 125.08C20.2352 121.813 17.8399 122.104 12.7587 123.628Z" fill="black"/>
<path d="M42.3021 97.1337C39.9793 90.8186 38.6002 83.9228 40.923 77.7529C41.1407 77.2447 41.3585 76.8092 41.7214 76.4463L32.5028 77.6802C24.5182 87.2618 20.1629 94.3028 16.3158 103.449C11.888 113.901 11.525 121.088 11.1621 123.918C16.3158 126.895 23.3568 128.709 25.1715 128.709C33.5916 108.893 31.9221 108.893 39.3986 104.247C41.5036 102.941 40.6326 99.5291 42.3021 97.1337Z" fill="black"/>
<path d="M9.63686 131.395C6.37042 132.411 4.55576 134.516 2.81366 137.347C2.5959 137.71 3.17659 138.146 3.39436 137.783C4.12023 136.549 4.91869 135.387 5.93492 134.371C7.09631 133.21 8.47546 132.556 9.99979 132.048C10.4353 131.903 10.145 131.25 9.63686 131.395Z" fill="black"/>
<path d="M5.35517 130.016C3.25014 130.669 1.72578 132.411 1.29025 134.589C1.21766 135.025 1.94354 135.097 2.01613 134.662C2.45165 132.774 3.83081 131.25 5.6455 130.669C6.08102 130.524 5.7907 129.871 5.35517 130.016Z" fill="black"/>
<path d="M12.5405 133.137C12.0324 133.572 11.742 134.153 11.8146 134.806C10.5806 135.242 8.69337 136.04 9.34666 137.637C9.49183 138.073 10.2177 137.782 9.99992 137.347C9.85474 136.984 10.1451 136.476 10.4355 136.258C10.6532 136.04 10.9436 135.968 11.2339 135.823C11.5969 135.677 12.0324 135.532 12.3953 135.387C12.5405 135.314 12.6131 135.169 12.6131 135.024C12.4679 134.516 12.5405 134.081 12.976 133.718C13.339 133.355 12.9034 132.774 12.5405 133.137Z" fill="black"/>
<path d="M32.4303 110.707C32.3577 110.707 32.2125 110.707 32.14 110.635C31.8496 110.49 31.777 110.127 31.9222 109.909C35.6967 103.231 37.8744 95.2463 39.2536 89.8748C39.5439 88.8586 39.7617 87.9149 39.9794 87.1891C40.052 86.8987 40.3423 86.7535 40.6327 86.8261C40.923 86.8987 41.0682 87.189 40.9956 87.4794C40.7779 88.2778 40.5601 89.1489 40.2698 90.1651C38.818 95.5366 36.6404 103.666 32.7933 110.417C32.7933 110.562 32.5755 110.707 32.4303 110.707Z" fill="white"/>
<path d="M24.5902 125.515C24.5176 125.515 24.5176 125.515 24.445 125.515C24.3725 125.515 18.4203 123.846 12.9036 120.942C12.6133 120.797 12.5407 120.507 12.6859 120.217C12.831 119.926 13.1214 119.854 13.4117 119.999C18.8558 122.83 24.6628 124.499 24.7354 124.499C25.0258 124.572 25.1709 124.862 25.0983 125.153C25.0258 125.37 24.808 125.515 24.5902 125.515Z" fill="white"/>
<path d="M280 11.0136L271.587 19.0244L268.558 16.6879L264.519 19.0244L226.155 5.67301L221.107 9.01086L216.732 19.0244L214.376 13.3501L200.579 1L196.877 5.67301L181.396 1L176.012 9.01086L169.281 11.0136L164.906 16.6879L160.868 13.3501L152.791 16.6879L130.243 5.67301L117.119 11.0136L109 32" stroke="#13C8A4" stroke-linecap="round" stroke-linejoin="round"/>
<path d="M183.726 52.4125C192.411 52.4125 199.452 45.3806 199.452 36.7062C199.452 28.0319 192.411 21 183.726 21C175.041 21 168 28.0319 168 36.7062C168 45.3806 175.041 52.4125 183.726 52.4125Z" stroke="#13C8A4"/>
<path d="M268.693 39.1715C268.693 38.964 268.525 38.7959 268.317 38.7959C268.109 38.7959 267.941 38.964 267.941 39.1715V64.1833H266.943C266.112 64.1833 265.438 64.8559 265.438 65.6856V79.1464C265.438 79.976 266.112 80.6486 266.943 80.6486H267.941V81.8251C267.941 82.0326 268.109 82.2007 268.317 82.2007C268.525 82.2007 268.693 82.0326 268.693 81.8251V80.6486H269.691C270.522 80.6486 271.195 79.976 271.195 79.1464V65.6856C271.195 64.8559 270.522 64.1833 269.691 64.1833H268.693V39.1715Z" fill="#13C8A4"/>
<path d="M261.813 89.3195C261.813 90.1492 261.14 90.8218 260.309 90.8218L257.561 90.8218C256.73 90.8218 256.057 90.1492 256.057 89.3195L256.057 71.9845C256.057 71.1548 256.73 70.4822 257.561 70.4822L260.309 70.4822C261.14 70.4822 261.813 71.1548 261.813 71.9845L261.813 89.3195Z" fill="#13C8A4"/>
<path fill-rule="evenodd" clip-rule="evenodd" d="M258.934 71.04C258.727 71.04 258.558 70.8719 258.558 70.6645L258.558 57.1118C258.558 56.9044 258.727 56.7362 258.934 56.7362C259.142 56.7362 259.311 56.9044 259.311 57.1118L259.311 70.6645C259.311 70.8719 259.142 71.04 258.934 71.04Z" fill="#13C8A4"/>
<path fill-rule="evenodd" clip-rule="evenodd" d="M258.934 174.156C258.727 174.156 258.558 173.988 258.558 173.781L258.558 90.6404C258.558 90.433 258.726 90.2649 258.934 90.2649C259.142 90.2649 259.31 90.433 259.31 90.6404L259.311 173.781C259.311 173.988 259.142 174.156 258.934 174.156Z" fill="#13C8A4"/>
<path d="M185.252 84.7825H184.255L184.255 52.4998C184.255 52.3003 184.086 52.1387 183.879 52.1387C183.671 52.1387 183.502 52.3003 183.502 52.4998L183.502 84.7825H182.505C181.674 84.7825 181 85.4291 181 86.2269L181 119.449C181 120.247 181.674 120.893 182.505 120.893H183.502L183.502 168.658C183.502 168.857 183.671 169.019 183.879 169.019C184.086 169.019 184.255 168.857 184.255 168.658L184.255 120.893H185.252C186.083 120.893 186.757 120.247 186.757 119.449L186.757 86.2269C186.757 85.4291 186.083 84.7825 185.252 84.7825Z" fill="#13C8A4"/>
<path d="M278.357 31.3756C278.357 31.1681 278.188 31 277.98 31C277.773 31 277.604 31.1681 277.604 31.3756L277.604 47.2875H276.325C275.494 47.2875 274.82 47.9601 274.82 48.7898V146.773C274.82 147.602 275.494 148.275 276.325 148.275H277.323V155.488C277.323 155.696 277.491 155.864 277.699 155.864C277.906 155.864 278.075 155.696 278.075 155.488V148.275H279.072C279.904 148.275 280.577 147.602 280.577 146.773V48.7898C280.577 47.9601 279.904 47.2875 279.072 47.2875H278.357L278.357 31.3756Z" fill="#13C8A4"/>
<path d="M287.599 43.4703C287.599 43.2629 287.431 43.0947 287.223 43.0947C287.015 43.0947 286.847 43.2629 286.847 43.4703L286.847 48.1785H285.85C285.018 48.1785 284.345 48.8511 284.345 49.6808V67.7051C284.345 68.5348 285.018 69.2073 285.85 69.2073H286.847V83.4572C286.847 83.6646 287.015 83.8328 287.223 83.8328C287.431 83.8328 287.599 83.6646 287.599 83.4572V69.2073H288.597C289.428 69.2073 290.102 68.5348 290.102 67.7051V49.6808C290.102 48.8511 289.428 48.1785 288.597 48.1785H287.599L287.599 43.4703Z" fill="#13C8A4"/>
<path d="M231.165 43.7413C231.165 43.5339 230.996 43.3657 230.789 43.3657C230.581 43.3657 230.412 43.5339 230.412 43.7413L230.412 53.5842H229.415C228.584 53.5842 227.91 54.2568 227.91 55.0865V73.1108C227.91 73.9405 228.584 74.6131 229.415 74.6131H230.412V102.03C230.412 102.237 230.581 102.406 230.789 102.406C230.996 102.406 231.165 102.237 231.165 102.03V74.6131H232.162C232.993 74.6131 233.667 73.9405 233.667 73.1108V55.0865C233.667 54.2568 232.993 53.5842 232.162 53.5842H231.165L231.165 43.7413Z" fill="#13C8A4"/>
<path d="M212.401 49.5841C212.401 49.3766 212.233 49.2085 212.025 49.2085C211.817 49.2085 211.649 49.3766 211.649 49.5841L211.649 61.8415H210.651C209.82 61.8415 209.146 62.5141 209.146 63.3438V86.5267C209.146 87.3564 209.82 88.029 210.651 88.029H211.649V102.029C211.649 102.237 211.817 102.405 212.025 102.405C212.233 102.405 212.401 102.237 212.401 102.029V88.029H213.399C214.23 88.029 214.903 87.3564 214.903 86.5267V63.3438C214.903 62.5141 214.23 61.8415 213.399 61.8415H212.401L212.401 49.5841Z" fill="#13C8A4"/>
<path d="M203.018 61.0592C203.018 60.8517 202.85 60.6836 202.642 60.6836C202.434 60.6836 202.266 60.8517 202.266 61.0592L202.266 71.4061H201.269C200.437 71.4061 199.764 72.0787 199.764 72.9084V88.5918C199.764 89.4215 200.437 90.0941 201.269 90.0941H202.266V92.4251C202.266 92.6326 202.434 92.8007 202.642 92.8007C202.85 92.8007 203.018 92.6326 203.018 92.4251V90.0941H204.016C204.847 90.0941 205.521 89.4215 205.521 88.5918V72.9084C205.521 72.0787 204.847 71.4061 204.016 71.4061H203.018L203.018 61.0592Z" fill="#EE7D8B"/>
<path d="M193.637 85.3316C193.637 85.1242 193.468 84.9561 193.26 84.9561C193.053 84.9561 192.884 85.1242 192.884 85.3316V88.8341H191.887C191.056 88.8341 190.382 89.5067 190.382 90.3364V93.6581C190.382 94.4878 191.056 95.1604 191.887 95.1604H192.884V104.176C192.884 104.383 193.053 104.552 193.26 104.552C193.468 104.552 193.637 104.383 193.637 104.176V95.1604H194.634C195.465 95.1604 196.139 94.4878 196.139 93.6581V90.3364C196.139 89.5067 195.465 88.8341 194.634 88.8341H193.637L193.637 85.3316Z" fill="#EE7D8B"/>
<path d="M250.926 76.1545H249.928L249.928 72.0968C249.928 71.8893 249.76 71.7212 249.552 71.7212C249.345 71.7212 249.176 71.8893 249.176 72.0968L249.176 76.1545H248.179C247.348 76.1545 246.674 76.8271 246.674 77.6568L246.674 107.177C246.674 108.007 247.348 108.68 248.179 108.68H249.176L249.176 141.028C249.176 141.235 249.345 141.403 249.552 141.403C249.76 141.403 249.928 141.235 249.928 141.028L249.928 108.68H250.926C251.757 108.68 252.431 108.007 252.431 107.177L252.431 77.6568C252.431 76.8271 251.757 76.1545 250.926 76.1545Z" fill="#EE7D8B"/>
<path d="M298.116 76.1545H297.119L297.119 72.0968C297.119 71.8893 296.95 71.7212 296.743 71.7212C296.535 71.7212 296.366 71.8893 296.366 72.0968L296.366 76.1545H295.369C294.538 76.1545 293.864 76.8271 293.864 77.6568L293.864 107.177C293.864 108.007 294.538 108.68 295.369 108.68H296.366L296.366 141.028C296.366 141.235 296.535 141.403 296.743 141.403C296.95 141.403 297.119 141.235 297.119 141.028L297.119 108.68H298.116C298.947 108.68 299.621 108.007 299.621 107.177L299.621 77.6568C299.621 76.8271 298.947 76.1545 298.116 76.1545Z" fill="#EE7D8B"/>
<path d="M222.78 65.1982H221.783L221.783 63.1261C221.783 62.9186 221.615 62.7505 221.407 62.7505C221.199 62.7505 221.031 62.9186 221.031 63.1261L221.031 65.1982H220.033C219.202 65.1982 218.528 65.8708 218.528 66.7005L218.528 80.3048C218.528 81.1345 219.202 81.8071 220.033 81.8071H221.031L221.031 98.3252C221.031 98.5326 221.199 98.7007 221.407 98.7007C221.615 98.7007 221.783 98.5326 221.783 98.3252L221.783 81.8071H222.78C223.612 81.8071 224.285 81.1345 224.285 80.3048L224.285 66.7005C224.285 65.8708 223.612 65.1982 222.78 65.1982Z" fill="#EE7D8B"/>
<path d="M241.544 66.9361H240.547L240.547 50.4259C240.547 50.2184 240.378 50.0503 240.17 50.0503C239.963 50.0503 239.794 50.2184 239.794 50.4259L239.794 66.9361H238.797C237.966 66.9361 237.292 67.6087 237.292 68.4384L237.292 162.453C237.292 163.283 237.966 163.956 238.797 163.956H239.794L239.794 183.106C239.794 183.314 239.963 183.482 240.17 183.482C240.378 183.482 240.547 183.314 240.547 183.106L240.547 163.956H241.544C242.375 163.956 243.049 163.283 243.049 162.453L243.049 68.4384C243.049 67.6087 242.375 66.9361 241.544 66.9361Z" fill="#13C8A4"/>
<path fill-rule="evenodd" clip-rule="evenodd" d="M134.275 56.6057C135.453 54.3725 137.265 52.5391 139.484 51.3377C141.702 50.1362 144.227 49.6207 146.738 49.8564C149.249 50.0921 151.633 51.0685 153.59 52.6619C155.546 54.2553 156.986 56.394 157.727 58.8074C158.469 61.2207 158.478 63.8001 157.755 66.219C157.031 68.638 155.606 70.7876 153.662 72.3959C151.717 74.0041 149.34 74.9986 146.831 75.2535C144.321 75.5083 141.793 75.0121 139.566 73.8276C136.586 72.243 134.357 69.5403 133.365 66.312C132.373 63.0836 132.7 59.5931 134.275 56.6057Z" fill="black"/>
<path d="M144.842 72.769C142.649 72.6174 140.564 71.7606 138.898 70.3261C137.231 68.8916 136.072 66.9563 135.594 64.8087C135.116 62.661 135.344 60.4161 136.243 58.4084C137.143 56.4007 138.667 54.7378 140.588 53.6676C142.508 52.5973 144.723 52.177 146.901 52.4693C149.08 52.7616 151.105 53.7509 152.676 55.2896C154.247 56.8284 155.279 58.8342 155.618 61.0082C155.958 63.1822 155.586 65.4079 154.56 67.3536C153.642 69.1051 152.234 70.5505 150.507 71.5124C148.781 72.4744 146.812 72.9111 144.842 72.769ZM146.157 53.2152C144.356 53.0996 142.559 53.5062 140.983 54.3863C139.407 55.2663 138.117 56.5826 137.268 58.1774C136.326 59.9614 135.985 62.0026 136.296 63.9963C136.607 65.9901 137.554 67.8296 138.995 69.2405C140.436 70.6514 142.294 71.558 144.292 71.8251C146.29 72.0922 148.32 71.7054 150.081 70.7225C151.841 69.7396 153.237 68.2132 154.061 66.3711C154.884 64.5289 155.09 62.4698 154.649 60.5008C154.208 58.5318 153.142 56.7586 151.612 55.4456C150.081 54.1326 148.168 53.3502 146.157 53.2152Z" fill="white"/>
<path d="M140.373 64.9517L139.798 64.032L140.606 63.5263C140.68 63.479 140.758 63.4384 140.84 63.4051C140.914 63.3747 140.993 63.3582 141.073 63.3563C141.149 63.354 141.224 63.3721 141.291 63.4089C141.37 63.4565 141.436 63.5239 141.482 63.6046C141.528 63.6654 141.559 63.7361 141.572 63.811C141.586 63.8858 141.582 63.9629 141.56 64.0359C141.497 64.1825 141.388 64.3041 141.248 64.3821L140.361 64.9296L140.373 64.9517ZM138.517 63.906L140.973 67.8292L142.873 66.6359C143.04 66.5235 143.191 66.3901 143.324 66.2391C143.458 66.0986 143.565 65.9352 143.641 65.7567C143.713 65.5834 143.743 65.3954 143.728 65.2083C143.7 64.9739 143.614 64.7502 143.478 64.5575C143.342 64.3647 143.16 64.2092 142.948 64.1049C142.703 64.0051 142.43 63.9964 142.179 64.0804C142.294 63.9095 142.362 63.7108 142.374 63.5049C142.376 63.2988 142.315 63.0971 142.199 62.9267C142.099 62.7624 141.962 62.6236 141.8 62.5214C141.667 62.4367 141.514 62.3885 141.357 62.3818C141.188 62.3784 141.02 62.408 140.862 62.4689C140.673 62.5402 140.491 62.6312 140.321 62.7406L138.474 63.899L138.517 63.906ZM141.418 66.6179L140.743 65.5426L141.68 64.9515C141.834 64.843 142.02 64.7891 142.209 64.7984C142.302 64.8136 142.391 64.8508 142.467 64.9069C142.543 64.963 142.605 65.0363 142.648 65.121C142.705 65.2059 142.741 65.3032 142.753 65.4049C142.76 65.4886 142.746 65.5728 142.711 65.6494C142.675 65.7272 142.624 65.7976 142.562 65.857C142.493 65.9238 142.418 65.9832 142.337 66.0342L141.414 66.6134L141.418 66.6179Z" fill="white"/>
<path d="M147.235 61.8263L145.691 59.3859L144.83 59.9266L146.374 62.3669C146.536 62.5845 146.617 62.8522 146.602 63.1233C146.565 63.2547 146.501 63.3768 146.413 63.4814C146.326 63.586 146.217 63.6706 146.094 63.7296C145.954 63.8267 145.794 63.892 145.626 63.9207C145.506 63.9388 145.384 63.9265 145.271 63.8849C145.158 63.8432 145.057 63.7736 144.977 63.6825C144.894 63.5906 144.82 63.4916 144.754 63.3866L143.21 60.9463L142.349 61.487L143.893 63.9273C144.009 64.1592 144.175 64.3627 144.379 64.5232C144.582 64.6838 144.819 64.7975 145.071 64.8564C145.589 64.8799 146.102 64.7446 146.542 64.4686C146.981 64.1926 147.326 63.7889 147.53 63.3116C147.591 63.0607 147.596 62.7995 147.545 62.5464C147.494 62.2933 147.388 62.0547 147.234 61.8475L147.235 61.8263Z" fill="white"/>
<path d="M148.965 60.6814L149.921 62.2098L150.782 61.6649L149.842 60.1588L149.782 56.8305L148.819 57.4327L148.876 59.5547L146.99 58.5796L146.027 59.186L148.965 60.6814Z" fill="white"/>
<path fill-rule="evenodd" clip-rule="evenodd" d="M219.817 119.916C220.876 121.413 221.466 123.191 221.515 125.025C221.563 126.859 221.067 128.666 220.089 130.217C219.111 131.769 217.695 132.994 216.021 133.74C214.346 134.485 212.489 134.716 210.683 134.404C208.878 134.092 207.205 133.25 205.878 131.986C204.55 130.722 203.627 129.091 203.225 127.302C202.824 125.512 202.961 123.643 203.621 121.932C204.281 120.22 205.433 118.743 206.932 117.688C208.937 116.276 211.419 115.718 213.835 116.135C216.25 116.553 218.401 117.912 219.817 119.916Z" fill="black"/>
<path d="M212.249 132.677C210.653 132.671 209.101 132.148 207.825 131.186C206.549 130.225 205.618 128.877 205.17 127.342C204.722 125.808 204.781 124.17 205.338 122.672C205.896 121.174 206.922 119.896 208.264 119.03C209.606 118.163 211.192 117.754 212.785 117.863C214.378 117.972 215.893 118.594 217.105 119.635C218.316 120.677 219.159 122.082 219.508 123.642C219.856 125.202 219.692 126.834 219.039 128.293C218.457 129.606 217.504 130.72 216.298 131.499C215.092 132.278 213.685 132.687 212.249 132.677ZM212.271 118.442C210.594 118.441 208.976 119.062 207.729 120.184C206.481 121.307 205.693 122.852 205.516 124.521C205.339 126.191 205.785 127.867 206.769 129.227C207.752 130.587 209.204 131.534 210.844 131.886C212.484 132.238 214.196 131.97 215.65 131.134C217.104 130.298 218.198 128.952 218.72 127.356C219.242 125.761 219.156 124.028 218.478 122.492C217.8 120.956 216.579 119.726 215.049 119.038C214.175 118.647 213.228 118.445 212.271 118.445V118.442Z" fill="white"/>
<path d="M207.269 124.699L206.569 124.56C206.523 124.74 206.523 124.929 206.569 125.11C206.614 125.269 206.695 125.415 206.806 125.536C206.922 125.665 207.062 125.77 207.217 125.845C207.38 125.925 207.554 125.983 207.732 126.018C207.935 126.063 208.143 126.076 208.349 126.058C208.514 126.045 208.674 126 208.822 125.926C208.952 125.858 209.064 125.761 209.149 125.641C209.234 125.521 209.293 125.384 209.322 125.24C209.36 125.081 209.35 124.914 209.294 124.761C209.243 124.633 209.166 124.518 209.069 124.421C208.977 124.333 208.873 124.259 208.76 124.201C208.658 124.149 208.575 124.109 208.516 124.084L208.041 123.855C207.943 123.81 207.849 123.756 207.76 123.695C207.707 123.661 207.664 123.613 207.637 123.556C207.622 123.502 207.622 123.446 207.637 123.392C207.646 123.329 207.674 123.271 207.717 123.225C207.756 123.185 207.803 123.153 207.856 123.132C207.911 123.11 207.969 123.099 208.028 123.098C208.089 123.097 208.149 123.103 208.207 123.114C208.291 123.129 208.373 123.153 208.451 123.185C208.52 123.213 208.582 123.252 208.637 123.302C208.688 123.351 208.727 123.413 208.748 123.482C208.766 123.566 208.766 123.654 208.748 123.738L209.448 123.877C209.491 123.71 209.491 123.534 209.448 123.367C209.404 123.221 209.326 123.088 209.22 122.978C209.109 122.864 208.979 122.771 208.834 122.706C208.679 122.634 208.517 122.581 208.349 122.548C208.199 122.519 208.046 122.51 207.893 122.521C207.744 122.53 207.597 122.565 207.461 122.626C207.328 122.685 207.21 122.773 207.115 122.882C207.013 123.002 206.944 123.147 206.917 123.302C206.884 123.434 206.884 123.572 206.917 123.704C206.951 123.818 207.009 123.923 207.087 124.013C207.169 124.105 207.263 124.184 207.368 124.248C207.476 124.316 207.589 124.378 207.704 124.433L208.041 124.597C208.148 124.643 208.251 124.696 208.349 124.758C208.427 124.805 208.494 124.867 208.547 124.94C208.569 124.974 208.585 125.013 208.592 125.053C208.6 125.093 208.599 125.135 208.59 125.175C208.58 125.249 208.542 125.317 208.485 125.366C208.431 125.412 208.366 125.445 208.297 125.462C208.225 125.48 208.152 125.488 208.078 125.484C208.007 125.481 207.937 125.472 207.868 125.459C207.774 125.441 207.683 125.411 207.596 125.369C207.517 125.333 207.444 125.281 207.383 125.218C207.325 125.156 207.283 125.081 207.26 124.999C207.234 124.897 207.234 124.791 207.26 124.69L207.269 124.699Z" fill="white"/>
<path d="M210.21 122.993L209.553 126.293L212.056 126.791L212.176 126.179L210.398 125.827L210.559 125.017L212.158 125.335L212.269 124.77L210.673 124.455L210.812 123.747L212.553 124.093L212.676 123.481L210.21 122.993Z" fill="white"/>
<path d="M213.2 123.586L212.546 126.886L214.876 127.35L214.996 126.741L213.392 126.42L213.925 123.732L213.2 123.586Z" fill="white"/>
<path d="M215.937 124.13L215.283 127.433L217.613 127.897L217.734 127.285L216.129 126.967L216.663 124.276L215.937 124.13Z" fill="white"/>
<path fill-rule="evenodd" clip-rule="evenodd" d="M71.1575 305.289C72.0964 305.288 72.8675 306.026 72.869 306.926C72.872 307.828 72.101 308.574 71.1651 308.576C70.2277 308.579 69.4596 307.84 69.4566 306.934C69.4521 306.026 70.2141 305.29 71.1575 305.289ZM61.0473 301.346C64.2889 302.468 67.5002 303.58 70.713 304.692C70.713 304.713 70.713 304.733 70.7145 304.753C70.5044 304.753 70.2761 304.808 70.0901 304.744C67.8706 303.986 65.6587 303.209 63.4437 302.438C62.5124 302.114 61.581 301.796 60.6512 301.469C60.4743 301.408 60.3912 301.438 60.3186 301.629C59.8091 302.983 59.8953 304.283 60.689 305.498C60.8236 305.703 61.1184 305.865 61.3679 305.922C63.0174 306.299 64.6774 306.631 66.3285 307C67.1646 307.186 68.108 307.418 68.9365 307.636C69.8376 310.102 72.6573 308.847 72.6573 308.847C75.5557 310.061 78.6581 311.362 81.4779 312.544C80.0733 311.432 80.0899 309.671 80.6085 307.847C79.9523 307.668 79.2962 307.495 78.6415 307.309C76.9119 306.816 75.1823 306.323 73.4587 305.812C73.2515 305.751 73.0761 305.581 72.8872 305.462C72.9053 305.427 72.9219 305.393 72.9401 305.358C73.4133 305.497 73.885 305.64 74.3598 305.775C76.162 306.29 77.9627 306.803 79.7649 307.316C80.0854 307.407 80.4044 307.496 80.7264 307.575C80.9321 307.625 80.9714 307.725 80.9124 307.926C80.6781 308.711 80.5405 309.511 80.6191 310.337C80.7249 311.45 81.3327 312.235 82.3019 312.488C82.8673 312.636 83.3844 312.474 83.8818 312.222C85.5177 311.393 86.6653 308.891 86.2162 307.115C86.0439 306.432 85.6583 305.897 84.9175 305.821C84.5697 305.785 84.1585 305.882 83.8516 306.054C83.4524 306.278 83.1289 306.637 82.7736 306.938C82.7857 306.972 82.7993 307.007 82.8129 307.041C83.02 307.106 83.2272 307.172 83.4358 307.236C83.7321 307.327 84.027 307.423 84.3263 307.507C85.0158 307.704 85.1821 308.11 85.0339 308.863C84.9039 309.524 84.5274 310.067 83.9725 310.462C83.0004 311.154 81.9012 310.57 81.7818 309.305C81.6593 308.01 82.639 306.26 83.8138 305.714C84.0814 305.589 84.3838 305.542 84.7043 305.449C84.0451 305.314 83.3965 305.195 82.7539 305.049C80.3107 304.493 77.8689 303.932 75.4272 303.364C75.1823 303.307 74.8935 303.285 74.8254 302.938C74.8103 302.861 74.6773 302.781 74.5835 302.751C74.1058 302.598 73.6235 302.456 73.1396 302.324C73.0429 302.298 72.8993 302.289 72.8342 302.342C72.5984 302.536 72.3852 302.437 72.1493 302.356C69.8165 301.551 67.5667 300.548 65.3276 299.517C64.9783 299.356 64.6321 299.172 64.2647 299.065C63.6297 298.88 63.0506 299.112 62.529 299.453C61.8487 299.897 61.3739 300.519 61.0473 301.346Z" fill="black"/>
<path fill-rule="evenodd" clip-rule="evenodd" d="M82.0594 308.677C81.9264 309.283 82.0095 309.793 82.3815 310.233C82.7806 310.706 83.467 310.666 83.9902 310.141C84.3621 309.769 84.6161 309.327 84.7174 308.807C84.737 308.713 84.7764 308.598 84.7401 308.525C84.6463 308.334 84.5526 308.076 84.3923 308.01C84.2638 307.958 83.9947 308.111 83.8632 308.245C83.712 308.398 83.6182 308.622 83.5472 308.832C83.4746 309.05 83.3642 309.089 83.1631 309.023C82.8094 308.905 82.4525 308.799 82.0594 308.677Z" fill="black"/>
</svg>
