<svg width="276" height="32" viewBox="0 0 276 32" fill="none" xmlns="http://www.w3.org/2000/svg"><path d="M.5 4A3.5 3.5 0 014 .5h268a3.5 3.5 0 013.5 3.5v24a3.5 3.5 0 01-3.5 3.5H4A3.5 3.5 0 01.5 28V4z" fill="#fff" stroke="#6B7B8B"/><path d="M20.1 8.3a1 1 0 10-1.42 1.4l1.5 1.5H9.04a1 1 0 000 2h11.14l-1.5 1.5a1 1 0 001.42 1.41l3.9-3.9-3.9-3.92z" fill="#6B7B8B"/><path d="M11.9 15.89a1 1 0 111.42 1.41l-1.3 1.3H23a1 1 0 010 2H11.62l1.7 1.7a1 1 0 01-1.42 1.4L8 19.8l3.9-3.91z" fill="#6B7B8B"/><path d="M266 22.75a1.25 1.25 0 11-2.5 0V16.8h-7.01v5.97a1.24 1.24 0 11-2.49 0V9.24a1.24 1.24 0 012.49 0v5.3h7.01v-5.3a1.25 1.25 0 112.5 0v13.51z" fill="#6B7B8B"/><path d="M38.07 18.67c0 .77-.28 1.36-.83 1.8a3.6 3.6 0 01-2.28.65c-.96 0-1.76-.15-2.37-.45v-1.33a6.49 6.49 0 002.47.6c.55 0 .96-.11 1.22-.32.27-.21.4-.5.4-.85 0-.32-.12-.6-.36-.82a5.47 5.47 0 00-1.5-.79 3.97 3.97 0 01-1.65-1.08 2.3 2.3 0 01-.48-1.47c0-.71.25-1.27.76-1.68.5-.41 1.19-.62 2.04-.62a6 6 0 012.45.54l-.44 1.14a5.35 5.35 0 00-2.04-.48c-.46 0-.8.1-1.03.3a.96.96 0 00-.36.78c0 .22.05.41.14.57.1.16.25.3.47.45.21.14.6.33 1.16.56.63.26 1.09.5 1.38.73.3.23.5.48.65.77.13.28.2.62.2 1z" fill="#6B7B8B"/><path d="M44.9 21l-.84-3.02c-.1-.32-.29-1.07-.55-2.24h-.05c-.23 1.06-.41 1.8-.54 2.25L42.05 21h-1.52l-1.82-6.48h1.41l.83 3.2c.18.78.32 1.46.4 2.02h.03a13.69 13.69 0 01.39-1.81l.98-3.41h1.51l.96 3.41a12.06 12.06 0 01.37 1.8h.05c.06-.48.2-1.15.41-2.02l.84-3.19h1.38L46.44 21H44.9z" fill="#6B7B8B"/><path d="M50.77 21h-1.38v-6.48h1.38V21zm-1.46-8.2c0-.24.06-.43.2-.57a.8.8 0 01.58-.2c.24 0 .43.07.56.2.14.14.2.33.2.57 0 .24-.06.42-.2.56a.76.76 0 01-.56.2.8.8 0 01-.58-.2.76.76 0 01-.2-.56z" fill="#6B7B8B"/><path d="M55.16 20c.33 0 .67-.05 1-.15v1.03a3.85 3.85 0 01-1.34.23c-1.3 0-1.95-.68-1.95-2.06v-3.49H52v-.6l.95-.51.46-1.37h.85v1.44h1.85v1.04h-1.85v3.47c0 .33.09.58.25.74.17.16.39.23.66.23z" fill="#6B7B8B"/><path d="M60.08 21.12c-.98 0-1.73-.29-2.24-.86-.5-.57-.76-1.4-.76-2.47 0-1.08.26-1.92.8-2.5.53-.6 1.3-.89 2.31-.89.68 0 1.3.13 1.85.38l-.42 1.11a4.17 4.17 0 00-1.44-.34c-1.12 0-1.68.74-1.68 2.23 0 .73.13 1.28.41 1.64.28.37.7.55 1.23.55.62 0 1.2-.15 1.74-.46v1.2c-.24.15-.5.25-.79.31-.28.07-.61.1-1.01.1z" fill="#6B7B8B"/><path d="M69.1 21h-1.38v-3.98c0-.5-.1-.88-.3-1.12-.2-.25-.52-.37-.96-.37-.57 0-1 .17-1.27.52-.27.34-.4.92-.4 1.73V21H63.4v-9.12h1.37v2.32c0 .37-.02.76-.07 1.19h.1c.18-.32.44-.56.77-.73.34-.17.73-.26 1.17-.26 1.57 0 2.36.8 2.36 2.38V21z" fill="#6B7B8B"/></svg>