<svg width="197" height="154" viewBox="0 0 197 154" fill="none" xmlns="http://www.w3.org/2000/svg">
<path d="M68.6514 27.7305C68.6635 27.7368 68.6755 27.7437 68.6876 27.7514C68.2405 26.7955 67.6573 25.5241 67.2094 24.5456C66.7748 23.5877 66.0545 22.7861 65.1463 22.2497L57.9589 18.0446C57.8507 17.9823 57.7294 17.9457 57.6046 17.9377C57.4798 17.9297 57.3548 17.9505 57.2395 17.9986L57.1329 18.0438C56.9755 18.111 56.8403 18.2212 56.743 18.3616C56.6457 18.5019 56.5902 18.6668 56.5829 18.8372C56.5781 18.9404 56.5917 19.0437 56.623 19.1422L57.5223 20.1606C57.6225 20.2751 57.738 20.3754 57.8655 20.4587L59.7627 21.7066L57.3346 20.4031C57.1602 20.3089 57.0009 20.189 56.8623 20.0477L55.7508 18.9023C55.5171 18.6595 55.3476 18.3627 55.2575 18.0385L54.8498 15.9868C54.7896 15.6701 54.6189 15.3848 54.3678 15.1813L53.8274 14.7468C53.5593 14.5313 53.1603 14.7598 53.1839 15.1152L53.2328 15.8521C53.2328 15.8521 52.2626 15.2602 51.9331 15.4696L51.8997 15.4558C51.8281 15.4697 51.8054 15.587 51.8193 15.7817C51.9081 16.9693 52.359 18.1403 52.7999 19.2855C52.9965 19.7961 53.1911 20.3015 53.3508 20.801C53.8353 22.3148 54.8927 23.5705 56.2023 24.6611C57.649 25.8654 59.4026 26.8717 61.0415 27.8122C61.8861 28.297 62.7003 28.7642 63.4263 29.2321L65.4196 35.9251L69.8943 31.5897C69.841 31.3811 69.7624 31.0865 69.6699 30.7572C69.4918 30.0898 69.2761 29.2886 69.1355 28.8228C69.1011 28.6999 69.06 28.5789 69.0124 28.4604C68.9147 28.2562 68.802 28.0137 68.6789 27.7478C68.6698 27.742 68.6606 27.7362 68.6514 27.7305Z" fill="white" stroke="black" stroke-width="0.8" stroke-linecap="round" stroke-linejoin="round"/>
<path d="M139.19 27.7305C139.178 27.7368 139.166 27.7437 139.154 27.7514C139.601 26.7955 140.185 25.5241 140.632 24.5456C141.067 23.5877 141.787 22.7861 142.696 22.2497L149.883 18.0446C149.991 17.9823 150.112 17.9457 150.237 17.9377C150.362 17.9297 150.487 17.9505 150.602 17.9986L150.709 18.0438C150.866 18.111 151.001 18.2212 151.099 18.3616C151.196 18.5019 151.252 18.6668 151.259 18.8372C151.264 18.9404 151.25 19.0437 151.219 19.1422L150.319 20.1606C150.219 20.2751 150.104 20.3754 149.976 20.4587L148.079 21.7066L150.507 20.4031C150.682 20.3089 150.841 20.189 150.98 20.0477L152.091 18.9023C152.325 18.6595 152.494 18.3627 152.584 18.0385L152.992 15.9868C153.052 15.6701 153.223 15.3848 153.474 15.1813L154.014 14.7468C154.282 14.5313 154.681 14.7598 154.658 15.1152L154.609 15.8521C154.609 15.8521 155.579 15.2602 155.909 15.4696L155.942 15.4558C156.014 15.4697 156.036 15.587 156.022 15.7817C155.934 16.9693 155.483 18.1403 155.042 19.2855C154.845 19.7961 154.651 20.3015 154.491 20.801C154.006 22.3148 152.949 23.5705 151.639 24.6611C150.193 25.8654 148.439 26.8717 146.8 27.8122C145.956 28.297 145.141 28.7642 144.415 29.2321L142.422 35.9251L137.948 31.5897C138.001 31.3811 138.079 31.0865 138.172 30.7572C138.35 30.0898 138.566 29.2886 138.706 28.8228C138.741 28.6999 138.782 28.5789 138.829 28.4604C138.927 28.2562 139.04 28.0137 139.163 27.7478C139.172 27.742 139.181 27.7362 139.19 27.7305Z" fill="white" stroke="black" stroke-width="0.8" stroke-linecap="round" stroke-linejoin="round"/>
<line x1="1" y1="153" x2="191" y2="153" stroke="black" stroke-width="2" stroke-linecap="round"/>
<path d="M64.744 11.3375L60.4922 12.8181L58.7812 7.87061L63.0331 6.39003C64.3967 5.9152 65.8857 6.6379 66.3581 8.00383C66.8304 9.36976 66.1076 10.8627 64.744 11.3375ZM61.1939 11.3686L64.3721 10.262C65.1451 9.99276 65.5522 9.1521 65.2844 8.37771C65.0166 7.60333 64.1781 7.19637 63.405 7.46556L60.2269 8.57226L61.1939 11.3686Z" fill="black"/>
<path d="M66.0838 15.2096L61.832 16.6902L60.1211 11.7427L64.3729 10.2621C65.7365 9.78726 67.2255 10.51 67.6979 11.8759C68.1703 13.2418 67.4474 14.7347 66.0838 15.2096ZM62.5338 15.2407L65.7119 14.134C66.485 13.8648 66.892 13.0242 66.6242 12.2498C66.3564 11.4754 65.5179 11.0684 64.7449 11.3376L61.5667 12.4443L62.5338 15.2407Z" fill="black"/>
<path d="M60.2487 8.56453L58.3912 9.21134C58.0906 9.31603 57.7725 9.16167 57.6684 8.86052C57.5642 8.55937 57.7186 8.2405 58.0193 8.13581L59.8768 7.489C60.1774 7.38431 60.4954 7.53868 60.5996 7.83982C60.7037 8.14097 60.5493 8.45984 60.2487 8.56453Z" fill="black"/>
<path d="M60.7963 8.37379C60.4956 8.47848 60.1776 8.32412 60.0735 8.02297L59.5639 6.54949C59.4598 6.24834 59.6141 5.92946 59.9148 5.82478C60.2154 5.72009 60.5335 5.87445 60.6376 6.1756L61.1471 7.64908C61.2513 7.95023 61.0969 8.2691 60.7963 8.37379Z" fill="black"/>
<path d="M63.0414 7.59303C62.7407 7.69772 62.4227 7.54335 62.3186 7.24221L61.809 5.76872C61.7049 5.46757 61.8593 5.1487 62.1599 5.04402C62.4605 4.93933 62.7786 5.09369 62.8827 5.39484L63.3923 6.86832C63.4964 7.16947 63.342 7.48834 63.0414 7.59303Z" fill="black"/>
<path d="M63.9801 17.5808C63.6794 17.6855 63.3614 17.5311 63.2572 17.23L62.7514 15.7673C62.6473 15.4661 62.8016 15.1472 63.1023 15.0426C63.4029 14.9379 63.721 15.0922 63.8251 15.3934L64.3309 16.8561C64.4351 17.1572 64.2807 17.4761 63.9801 17.5808Z" fill="black"/>
<path d="M66.2232 16.7995C65.9226 16.9042 65.6045 16.7499 65.5004 16.4487L64.9946 14.986C64.8904 14.6849 65.0448 14.366 65.3454 14.2613C65.6461 14.1566 65.9641 14.311 66.0683 14.6121L66.5741 16.0748C66.6782 16.376 66.5238 16.6949 66.2232 16.7995Z" fill="black"/>
<path d="M62.9274 16.3092L61.0699 16.956C60.7693 17.0607 60.4512 16.9063 60.3471 16.6052C60.243 16.304 60.3973 15.9851 60.698 15.8804L62.5555 15.2336C62.8561 15.1289 63.1741 15.2833 63.2783 15.5844C63.3824 15.8856 63.228 16.2045 62.9274 16.3092Z" fill="black"/>
<path d="M146.319 11.7859L141.868 10.2025L143.702 5.02539L148.153 6.60872C149.58 7.1165 150.327 8.68756 149.821 10.1169C149.314 11.5462 147.746 12.2936 146.319 11.7859ZM143.391 9.4769L146.717 10.6604C147.527 10.9483 148.41 10.5274 148.697 9.71707C148.984 8.90673 148.563 8.02206 147.754 7.73418L144.427 6.55069L143.391 9.4769Z" fill="black"/>
<path d="M144.882 15.8371L140.432 14.2538L142.266 9.07666L146.716 10.66C148.143 11.1678 148.89 12.7388 148.384 14.1682C147.878 15.5975 146.309 16.3449 144.882 15.8371ZM141.954 13.5282L145.281 14.7117C146.09 14.9996 146.973 14.5787 147.26 13.7683C147.547 12.958 147.127 12.0733 146.317 11.7855L142.991 10.602L141.954 13.5282Z" fill="black"/>
<path d="M144.448 6.5586L142.504 5.86689C142.189 5.75493 142.03 5.41937 142.141 5.10424C142.253 4.78911 142.588 4.62947 142.903 4.74142L144.847 5.43313C145.162 5.54508 145.321 5.88065 145.21 6.19578C145.098 6.51091 144.763 6.67055 144.448 6.5586Z" fill="black"/>
<path d="M145.022 6.76279C144.708 6.65083 144.548 6.31527 144.66 6.00014L145.206 4.45824C145.318 4.14311 145.653 3.98347 145.967 4.09542C146.282 4.20738 146.441 4.54294 146.33 4.85807L145.784 6.39997C145.672 6.7151 145.337 6.87474 145.022 6.76279Z" fill="black"/>
<path d="M147.372 7.59774C147.057 7.48579 146.898 7.15022 147.009 6.83509L147.556 5.2932C147.667 4.97807 148.002 4.81843 148.317 4.93038C148.631 5.04234 148.791 5.3779 148.679 5.69303L148.133 7.23492C148.022 7.55005 147.687 7.70969 147.372 7.59774Z" fill="black"/>
<path d="M141.609 16.3961C141.295 16.2841 141.135 15.9485 141.247 15.6334L141.789 14.1028C141.901 13.7876 142.236 13.628 142.55 13.74C142.865 13.8519 143.024 14.1875 142.913 14.5026L142.371 16.0332C142.259 16.3484 141.924 16.508 141.609 16.3961Z" fill="black"/>
<path d="M143.959 17.2325C143.644 17.1205 143.485 16.785 143.596 16.4698L144.139 14.9392C144.25 14.6241 144.585 14.4644 144.9 14.5764C145.215 14.6883 145.374 15.0239 145.262 15.339L144.72 16.8697C144.609 17.1848 144.274 17.3444 143.959 17.2325Z" fill="black"/>
<path d="M141.578 14.6626L139.634 13.9709C139.319 13.8589 139.16 13.5234 139.271 13.2082C139.383 12.8931 139.718 12.7335 140.033 12.8454L141.977 13.5371C142.292 13.6491 142.451 13.9846 142.34 14.2998C142.228 14.6149 141.893 14.7745 141.578 14.6626Z" fill="black"/>
<path d="M181.196 76.0254C181.223 76.1671 181.222 76.3076 181.193 76.4491C181.184 76.4963 181.179 76.5413 181.163 76.5866C181.107 76.7515 181.025 76.9092 180.889 77.0385C180.887 77.0403 180.883 77.0413 180.881 77.0431C180.878 77.0451 180.879 77.0488 180.876 77.0508L162.725 93.7843C162.711 93.7976 162.691 93.7969 162.676 93.8105C162.543 93.9201 162.39 94.0136 162.208 94.0537C162.026 94.0938 161.849 94.0728 161.681 94.0265C161.66 94.023 161.639 94.0306 161.619 94.0248L138.586 86.353C138.406 86.2933 138.265 86.1819 138.142 86.0533C138.108 86.0175 138.085 85.9825 138.058 85.9424C137.973 85.8253 137.914 85.6987 137.879 85.5589C137.872 85.5289 137.847 85.5088 137.843 85.4797C137.84 85.4664 137.849 85.4551 137.849 85.4412C137.827 85.2787 137.833 85.1137 137.889 84.948L150.929 46.3284C150.934 46.3128 150.946 46.3043 150.952 46.289C150.968 46.2446 150.991 46.2073 151.014 46.1658C151.042 46.1136 151.072 46.0661 151.107 46.0173C151.135 45.9827 151.159 45.9461 151.189 45.916C151.201 45.9031 151.205 45.8877 151.217 45.8762C151.238 45.8563 151.264 45.8507 151.285 45.8336C151.327 45.798 151.371 45.7694 151.419 45.7398C151.459 45.7149 151.499 45.69 151.544 45.6707C151.588 45.6501 151.632 45.6381 151.678 45.6259C151.702 45.6176 151.722 45.6001 151.747 45.5946C151.772 45.589 151.794 45.5973 151.82 45.5931C151.865 45.5875 151.907 45.579 151.953 45.5785C152.004 45.5767 152.053 45.5827 152.105 45.588C152.16 45.5942 152.212 45.6026 152.264 45.6173C152.289 45.6244 152.313 45.619 152.337 45.6261C152.352 45.631 152.362 45.6426 152.376 45.6476C152.419 45.6643 152.459 45.6877 152.502 45.7111C152.553 45.7393 152.6 45.7676 152.648 45.8033C152.682 45.8308 152.719 45.8542 152.749 45.8848C152.762 45.8965 152.777 45.9005 152.789 45.9125L180.932 75.4689C181.054 75.5956 181.128 75.7466 181.177 75.906C181.182 75.9197 181.194 75.9266 181.198 75.9409C181.205 75.9673 181.191 75.9965 181.196 76.0254ZM151.743 50.8494L141.14 82.2561L156.093 70.9996L151.743 50.8494ZM158.264 70.5153L176.85 74.4116L153.903 50.3128L158.264 70.5153ZM158.778 72.8966L162.651 90.835L177.788 76.8814L158.778 72.8966ZM160.475 91.2956L156.608 73.3858L141.3 84.9118L160.475 91.2956Z" fill="#13C8A4"/>
<path d="M138.782 89.3303C139.045 88.8782 139.595 88.6789 140.089 88.8338L162.676 96.2406L180.154 80.0172C180.536 79.6665 181.12 79.6192 181.549 79.9189C181.978 80.2218 182.136 80.7784 181.93 81.2625L167.602 114.755C167.591 114.781 167.566 114.793 167.554 114.817C167.523 114.878 167.49 114.933 167.449 114.986C167.43 115.011 167.422 115.044 167.4 115.067C167.383 115.086 167.356 115.086 167.338 115.104C167.307 115.132 167.283 115.168 167.249 115.195C167.125 115.293 166.982 115.369 166.818 115.405C166.818 115.405 166.818 115.405 166.816 115.405C166.816 115.405 166.816 115.405 166.815 115.405C166.813 115.406 166.813 115.406 166.813 115.406C166.813 115.406 166.813 115.406 166.811 115.406C166.648 115.442 166.487 115.432 166.334 115.397C166.291 115.387 166.255 115.364 166.216 115.351C166.191 115.341 166.167 115.354 166.143 115.344C166.114 115.333 166.093 115.306 166.065 115.291C166.006 115.259 165.953 115.223 165.901 115.181C165.881 115.164 165.852 115.163 165.832 115.144L138.99 90.7119C138.601 90.3586 138.517 89.7859 138.782 89.3303ZM164.168 97.883L166.931 110.681L177.835 85.1943L164.168 97.883ZM164.76 111.159L161.997 98.3607L144.333 92.5668L164.76 111.159Z" fill="#13C8A4"/>
<path d="M68.3139 80.0887C68.2873 80.1951 68.2418 80.2917 68.177 80.3799C68.1559 80.4096 68.1382 80.439 68.1123 80.4649C68.0213 80.5605 67.9144 80.6426 67.7795 80.6876C67.7777 80.6883 67.7745 80.6876 67.7727 80.6883C67.7703 80.6889 67.7692 80.6914 67.7668 80.692L49.9219 86.341C49.9081 86.3456 49.8946 86.3386 49.8796 86.343C49.7531 86.3755 49.6182 86.3905 49.4798 86.359C49.3414 86.3275 49.2259 86.2556 49.1248 86.1692C49.1118 86.1601 49.0948 86.1585 49.0827 86.1479L35.6415 73.383C35.5361 73.2833 35.4743 73.1607 35.4305 73.0322C35.4189 72.9967 35.4137 72.9649 35.4079 72.9285C35.3864 72.82 35.3862 72.7137 35.4064 72.6058C35.4114 72.583 35.4007 72.5611 35.4072 72.5397C35.4094 72.5296 35.4189 72.5246 35.4233 72.515C35.4599 72.3958 35.5166 72.284 35.6078 72.1878L56.8962 49.7878C56.9044 49.7786 56.9154 49.7766 56.9245 49.7681C56.9497 49.7427 56.9777 49.7245 57.0064 49.7032C57.0425 49.6764 57.0783 49.6533 57.1184 49.6313C57.1484 49.6164 57.1763 49.5988 57.2072 49.588C57.2194 49.583 57.2271 49.5736 57.2391 49.5696C57.2596 49.5626 57.2793 49.5671 57.2993 49.5622C57.3396 49.5513 57.3788 49.5457 57.4216 49.541C57.4571 49.5368 57.4926 49.5326 57.5297 49.5338C57.5665 49.5338 57.6008 49.54 57.6361 49.5463C57.6557 49.5486 57.6748 49.5429 57.6939 49.5472C57.713 49.5516 57.7257 49.5645 57.7446 49.5699C57.7778 49.5808 57.8095 49.5886 57.8409 49.6029C57.877 49.6184 57.9088 49.6384 57.9432 49.659C57.9789 49.6811 58.0118 49.7036 58.0436 49.7309C58.0581 49.7436 58.0766 49.7478 58.0911 49.7606C58.0993 49.7686 58.1029 49.78 58.1106 49.7879C58.1355 49.8136 58.1553 49.8425 58.1775 49.8727C58.204 49.9088 58.2275 49.9436 58.2487 49.9835C58.2637 50.0136 58.2814 50.0416 58.2923 50.0725C58.2979 50.0849 58.3068 50.0925 58.3114 50.1046L68.3093 79.6194C68.3529 79.7463 68.3561 79.8745 68.3391 80.0004C68.3378 80.0112 68.3437 80.0198 68.3423 80.0311C68.3383 80.0514 68.3198 80.0672 68.3139 80.0887ZM56.0183 53.1697L38.707 71.3866L52.6028 68.4768L56.0183 53.1697ZM54.254 68.8472L65.8305 77.5654L57.6785 53.5005L54.254 68.8472ZM53.8504 70.6562L50.8097 84.283L65.6912 79.5731L53.8504 70.6562ZM49.1625 83.8945L52.1983 70.2894L37.9719 73.2699L49.1625 83.8945Z" fill="#13C8A4"/>
<path d="M34.7645 75.4876C35.0896 75.2611 35.5327 75.3023 35.824 75.5694L49.0418 88.0061L66.26 82.4896C66.6355 82.372 67.0528 82.5286 67.2535 82.8746C67.4527 83.2226 67.3846 83.6577 67.0883 83.9247L46.5434 102.371C46.5275 102.386 46.5061 102.386 46.4905 102.399C46.4494 102.431 46.4094 102.458 46.3646 102.482C46.3433 102.492 46.3276 102.513 46.305 102.521C46.2872 102.529 46.2686 102.52 46.2498 102.527C46.2199 102.536 46.1921 102.553 46.1598 102.561C46.0435 102.588 45.9202 102.594 45.7961 102.565C45.7956 102.565 45.7956 102.565 45.7945 102.565C45.7945 102.565 45.7945 102.565 45.7935 102.565C45.7924 102.565 45.7924 102.565 45.7924 102.565C45.7919 102.564 45.7919 102.564 45.7908 102.564C45.6668 102.536 45.5586 102.477 45.4643 102.403C45.4382 102.382 45.4204 102.355 45.3974 102.333C45.384 102.318 45.3632 102.319 45.3498 102.304C45.333 102.287 45.3275 102.262 45.3129 102.242C45.2826 102.201 45.2573 102.16 45.2347 102.113C45.226 102.095 45.2065 102.085 45.1986 102.066L34.4677 76.5078C34.3124 76.1381 34.4362 75.7156 34.7645 75.4876ZM49.5472 89.6225L47.3777 99.3445L63.0123 85.3072L49.5472 89.6225ZM45.7286 98.9695L47.8981 89.2476L37.5617 79.5205L45.7286 98.9695Z" fill="#13C8A4"/>
<path d="M117.016 135.324C117.651 138.669 118.803 141.033 120.127 142.819C120.242 142.991 120.358 143.107 120.473 143.28C120.76 143.625 121.048 143.913 121.336 144.201C121.508 144.374 121.624 144.489 121.796 144.604C123.35 145.986 125.017 146.79 126.455 147.422C130.078 148.973 130.254 152.954 130.254 152.954L101.856 152.835C102.197 148.103 102.188 139.16 102.188 139.16C108.108 137.418 110.981 136.316 117.016 135.324Z" fill="black"/>
<path d="M120.186 142.819C120.301 142.992 120.416 143.108 120.531 143.28C119.382 143.802 118.233 144.381 117.084 144.902C116.739 145.075 116.451 144.557 116.796 144.441C117.945 143.862 119.037 143.341 120.186 142.819Z" fill="white"/>
<path d="M121.395 144.203C121.568 144.376 121.683 144.491 121.856 144.606C120.592 145.243 119.27 145.822 118.006 146.459C117.661 146.633 117.373 146.114 117.718 145.998C118.925 145.361 120.189 144.782 121.395 144.203Z" fill="white"/>
<path d="M77.6488 132.783C75.0058 134.924 73.4553 137.062 72.5373 139.084C72.4799 139.257 72.3651 139.43 72.3078 139.604C72.1356 140.008 72.021 140.412 71.9064 140.816C71.8491 140.99 71.7918 141.221 71.7345 141.394C71.2764 143.415 71.3358 145.319 71.4523 146.877C71.7436 150.801 68.353 152.827 68.353 152.827L55.2182 127.575C59.183 124.797 62.9756 122.193 66.0202 119.128C70.3371 123.506 73.9639 127.827 77.6488 132.783Z" fill="black"/>
<path d="M119.833 73.4331C119.833 73.4331 112.988 70.5606 107.352 69.821C107.692 64.8573 107.804 61.5676 107.804 61.5676L89.6359 62.8141C87.6916 74.0713 86.9021 90.4049 78.6359 104.791C74.9047 111.319 68.4698 116.525 61.748 122.367C65.4902 127.496 71.4765 134.237 75.2763 139.366C76.3671 137.575 92.5735 128.945 100.832 106.826C100.619 124.544 100.004 142.666 100.004 142.666L120.587 141.299C120.587 141.299 123.369 103.84 119.833 73.4331Z" fill="black"/>
<path d="M99.5434 143.07L99.543 142.608C99.5428 142.435 100.102 125.929 100.374 109.135C93.6045 125.537 82.5728 134.042 77.8039 137.744C76.7697 138.554 75.8504 139.248 75.6781 139.537L75.3337 140.115L74.9307 139.596C73.146 137.176 70.7859 134.353 68.5408 131.644C66.0079 128.533 63.36 125.364 61.3449 122.598L61.1146 122.252L61.4018 121.963C62.0913 121.384 62.7806 120.748 63.4701 120.17C69.3301 115.08 74.8454 110.28 78.1749 104.502C84.8337 92.8896 86.604 80.0168 88.0891 69.6261C88.4317 67.1439 88.7745 64.7771 89.1175 62.6411L89.1746 62.2948L108.148 60.9891L108.148 61.4507C108.148 61.5084 108.036 64.625 107.696 69.3003C113.274 70.0976 119.831 72.8552 119.889 72.9128L120.119 73.0278L120.177 73.2585C123.655 103.319 120.931 140.779 120.931 141.182L120.932 141.586L99.5434 143.07ZM101.289 104.343L101.234 106.824C101.019 122.753 100.517 139.201 100.405 142.203L120.126 140.895C120.41 136.913 122.619 102.109 119.372 73.7795C118.107 73.2625 112.182 70.9076 107.237 70.2822L106.834 70.2253L106.891 69.8212C107.175 66.0117 107.287 63.126 107.344 62.0871L89.9805 63.2743C89.6375 65.3526 89.3521 67.5461 89.0094 69.9129C87.5243 80.3613 85.7541 93.3496 79.0379 105.078C75.6511 110.971 70.0783 115.829 64.1608 120.976C63.5863 121.497 63.0118 122.017 62.3798 122.48C64.3373 125.131 66.8701 128.185 69.2878 131.124C71.4177 133.717 73.6052 136.367 75.3898 138.672C75.792 138.325 76.424 137.804 77.3433 137.11C82.2846 133.292 93.9483 124.267 100.544 106.653L101.289 104.343Z" fill="black"/>
<path d="M72.5353 139.028C72.478 139.201 72.3632 139.374 72.3059 139.547C71.2703 138.799 70.2921 137.993 69.2564 137.244C68.9687 137.014 69.2556 136.494 69.5433 136.725C70.5215 137.531 71.4997 138.279 72.5353 139.028Z" fill="white"/>
<path d="M71.904 140.759C71.8467 140.932 71.7894 141.163 71.7321 141.336C70.5814 140.472 69.4307 139.667 68.3375 138.803C68.0498 138.573 68.3366 138.053 68.6243 138.283C69.7176 139.147 70.8108 139.953 71.904 140.759Z" fill="white"/>
<path d="M102.139 103.998C102.082 103.999 102.024 103.999 101.967 103.941C101.737 103.884 101.621 103.595 101.736 103.364C105.809 92.6793 107.35 80.383 107.35 80.2675L107.407 79.9211L107.752 79.9205C107.81 79.9203 110.973 79.7412 113.1 79.16C113.33 79.1019 113.56 79.2169 113.618 79.4476C113.676 79.6784 113.561 79.9095 113.331 79.9676C111.549 80.4327 109.076 80.6683 108.156 80.7277C107.87 82.8637 106.271 93.9482 102.542 103.651C102.484 103.882 102.312 103.998 102.139 103.998Z" fill="white"/>
<path d="M138.992 23.9967C136.179 26.725 131.833 31.7683 127.688 33.4202C122.52 35.4851 113.397 24.3022 106.948 24.9824L108.597 36.2309C108.597 36.2309 114.034 47.4721 124.069 49.6623C134.104 51.8524 144.325 34.2106 144.376 34.1591C143.094 31.1817 141.348 26.0473 138.992 23.9967Z" fill="#13C8A4"/>
<path d="M125.863 50.2755C125.248 50.2767 124.634 50.2265 124.02 50.0735C113.933 47.8324 108.342 36.5401 108.291 36.4374L108.24 36.3348L106.539 24.6753L106.949 24.6232C110.225 24.3086 114.066 26.8187 117.754 29.2263C121.545 31.7365 125.13 34.0416 127.586 33.0607C130.861 31.7699 134.236 28.2697 136.998 25.49C137.612 24.8209 138.225 24.2545 138.788 23.6883L139.043 23.4309L139.3 23.6359C141.246 25.3277 142.735 28.9726 143.966 31.8987C144.274 32.6174 144.53 33.2848 144.787 33.9009L144.89 34.1576L144.685 34.3635C142.947 37.244 134.616 50.2586 125.863 50.2755ZM109.007 36.1278C109.418 36.9491 114.803 47.2142 124.172 49.3026C132.979 51.2379 142.128 37.1428 143.968 34.108C143.712 33.5433 143.455 32.9273 143.198 32.2599C142.07 29.539 140.735 26.1507 138.993 24.51C138.533 24.9733 138.022 25.488 137.51 26.0028C134.749 28.8339 131.271 32.3856 127.843 33.7281C124.977 34.8639 121.238 32.405 117.294 29.7923C113.913 27.5896 110.43 25.2844 107.512 25.29C107.461 25.2901 107.461 25.2901 107.41 25.2902L109.007 36.1278Z" fill="#13C8A4"/>
<path d="M68.5462 23.4926C71.3642 26.2102 75.7201 31.2369 79.868 32.8731C85.0401 34.9183 94.1412 23.7008 100.592 24.3564L98.9643 35.6111C98.9643 35.6111 93.5489 46.873 83.5179 49.1013C73.4868 51.3296 63.2322 33.7267 63.181 33.6755C64.4579 30.6931 66.1935 25.5521 68.5462 23.4926Z" fill="#13C8A4"/>
<path d="M101.977 21.3879L101.002 23.8702L111.867 25.1186L112.38 20.0414L101.977 21.3879Z" fill="#13C8A4"/>
<path d="M110.495 24.2034C104.396 19.4827 91.8684 27.7015 89.8626 34.6884C87.8567 41.6753 85.4738 75.5564 85.4738 75.5564L122.446 74.9667C122.446 74.9667 119.421 38.3834 115.103 32.2165C110.842 25.9918 112.567 25.7577 110.495 24.2034Z" fill="#13C8A4"/>
<path d="M118.614 43.8702C118.441 43.8705 118.211 43.7554 118.211 43.5246C118.211 43.4669 117.459 40.0627 115.9 34.7553C115.842 34.5245 115.957 34.2935 116.187 34.2354C116.417 34.1773 116.647 34.2923 116.705 34.5231C118.322 39.8881 119.016 43.2923 119.016 43.35C119.074 43.5808 118.901 43.812 118.671 43.8701L118.614 43.8702Z" fill="white"/>
<path d="M115.664 15.6318C115.689 11.0248 112.32 7.16826 108.171 7.04446C104.021 6.92066 100.593 10.5021 100.568 15.1091C100.568 15.1091 100.568 15.1091 100.544 15.1606C100.102 15.1354 99.6897 15.1873 99.3823 15.2906C96.9671 15.8854 96.3452 18.1767 97.6929 19.7194C98.8782 21.0563 100.981 21.9546 102.946 21.0773C104.342 22.5169 106.162 23.467 108.061 23.6964C113.941 24.4101 115.639 20.2387 115.664 15.6318Z" fill="white"/>
<path d="M99.1474 21.3141C98.4625 20.9803 97.85 20.492 97.3913 19.9521C96.6889 19.1036 96.4476 18.1001 96.7245 17.096C97.0497 15.9889 98.0071 15.1899 99.3421 14.828C99.6254 14.7762 99.9086 14.7244 100.245 14.6983C100.3 12.5106 101.137 10.4506 102.562 8.9304C104.088 7.33289 106.106 6.4812 108.208 6.55594C110.361 6.65635 112.363 7.632 113.821 9.35468C115.278 11.0774 116.13 13.264 116.131 15.6061C116.115 18.952 115.263 21.3208 113.68 22.764C112.347 23.9495 110.445 24.415 108.129 24.1089C106.23 23.8795 104.386 22.9808 102.913 21.567C101.529 22.0319 100.201 21.8276 99.1474 21.3141ZM110.826 8.14857C109.983 7.73776 109.121 7.50714 108.161 7.48253C106.266 7.38181 104.479 8.15601 103.155 9.59886C101.831 11.0417 101.042 12.9987 101.011 15.1349L101.024 15.5209L100.611 15.5729C100.222 15.5734 99.8096 15.6253 99.5264 15.6771C98.4988 15.9357 97.7675 16.5286 97.5631 17.3781C97.3544 18.099 97.5342 18.8194 98.0457 19.3851C99.0444 20.5678 100.965 21.4406 102.83 20.6406L103.084 20.5116L103.299 20.7429C104.59 22.1312 106.305 23.03 108.151 23.2338C110.232 23.4887 111.903 23.1007 113.087 22.0955C114.521 20.8327 115.277 18.6699 115.302 15.5814C115.333 13.4451 114.591 11.4385 113.243 9.89584C112.493 9.15034 111.669 8.55937 110.826 8.14857Z" fill="black"/>
<path d="M109.432 15.9495C109.727 16.0828 110.067 15.9569 110.192 15.6685C110.317 15.38 110.179 15.0381 109.884 14.9048C109.589 14.7716 109.248 14.8974 109.124 15.1859C108.999 15.4744 109.137 15.8163 109.432 15.9495Z" fill="black"/>
<path d="M113.82 18.0052C113.647 16.718 113.32 15.4824 112.786 14.2728C112.619 13.9383 112.08 14.1192 112.247 14.4537C112.752 15.5861 113.08 16.8217 113.277 18.0574C113.315 18.3921 113.858 18.3399 113.82 18.0052Z" fill="black"/>
<path d="M112.171 10.1177C110.428 10.7894 103.367 10.7721 104.224 14.6086C104.413 15.5871 104.925 16.1531 104.006 16.592C103.029 16.8765 102.759 15.7951 102.759 15.7951C101.582 15.539 100.251 15.3345 99.4284 15.5673C97.7442 11.8348 99.1483 8.84552 100.875 8.48287C100.875 8.48287 113.132 1.72032 115.28 6.1219C117.127 10.0602 112.171 10.1177 112.171 10.1177Z" fill="black"/>
<path d="M102.568 18.1848C101.712 17.1358 100.212 16.7804 98.9979 17.3215C98.6693 17.476 98.8667 18.0139 99.1952 17.8593C100.181 17.3956 101.368 17.598 102.091 18.5192C102.333 18.8263 102.757 18.4664 102.568 18.1848Z" fill="black"/>
</svg>
