<svg width="420" height="258" viewBox="0 0 420 258" fill="none" xmlns="http://www.w3.org/2000/svg"><path d="M390.946 109.456a.358.358 0 00-.718 0v23.88h-.953c-.794 0-1.437.642-1.437 1.434v12.851c0 .793.643 1.435 1.437 1.435h.953v1.123a.359.359 0 10.718 0v-1.123h.953c.793 0 1.437-.642 1.437-1.435V134.77c0-.792-.644-1.434-1.437-1.434h-.953v-23.88z" fill="#13C8A4"/><path d="M384.375 157.334c0 .792-.643 1.435-1.437 1.435h-2.624a1.437 1.437 0 01-1.437-1.435v-16.55c0-.792.644-1.434 1.437-1.434h2.624c.794 0 1.437.642 1.437 1.434v16.55z" fill="#13C8A4"/><path fill-rule="evenodd" clip-rule="evenodd" d="M381.627 139.882a.36.36 0 01-.359-.359v-12.939a.358.358 0 01.718 0v12.939a.36.36 0 01-.359.359z" fill="#13C8A4"/><path fill-rule="evenodd" clip-rule="evenodd" d="M381.627 238.33a.358.358 0 01-.359-.358v-79.377a.36.36 0 01.718 0v79.377a.358.358 0 01-.359.358z" fill="#13C8A4"/><path d="M400.175 102.013a.36.36 0 00-.718 0v15.191h-1.222c-.794 0-1.437.643-1.437 1.435v93.547c0 .792.643 1.434 1.437 1.434h.952v6.887a.36.36 0 00.719 0v-6.887h.953c.793 0 1.437-.642 1.437-1.434v-93.547c0-.792-.644-1.435-1.437-1.435h-.684v-15.191z" fill="#13C8A4"/><path d="M409.002 113.56a.36.36 0 00-.719 0v4.495h-.952c-.794 0-1.437.642-1.437 1.434v17.208c0 .793.643 1.435 1.437 1.435h.952v13.604a.36.36 0 00.719 0v-13.604h.952c.794 0 1.437-.642 1.437-1.435v-17.208c0-.792-.643-1.434-1.437-1.434h-.952v-4.495z" fill="#13C8A4"/><path d="M355.106 113.819a.359.359 0 10-.718 0v9.397h-.953c-.794 0-1.437.642-1.437 1.434v17.208c0 .793.643 1.435 1.437 1.435h.953v26.175a.36.36 0 00.718 0v-26.175h.953c.793 0 1.437-.642 1.437-1.435V124.65c0-.792-.644-1.434-1.437-1.434h-.953v-9.397z" fill="#13C8A4"/><path d="M337.186 119.398a.36.36 0 00-.718 0V131.1h-.953c-.793 0-1.437.642-1.437 1.434v22.134c0 .792.644 1.434 1.437 1.434h.953v13.367a.358.358 0 00.718 0v-13.367h.953c.794 0 1.437-.642 1.437-1.434v-22.134c0-.792-.643-1.434-1.437-1.434h-.953v-11.702z" fill="#13C8A4"/><path d="M328.227 130.353a.36.36 0 00-.718 0v9.878h-.953c-.793 0-1.437.642-1.437 1.435v14.973c0 .792.644 1.434 1.437 1.434h.953v2.226a.358.358 0 00.718 0v-2.226h.953c.794 0 1.437-.642 1.437-1.434v-14.973c0-.793-.643-1.435-1.437-1.435h-.953v-9.878z" fill="#EE7D8B"/><path d="M319.267 153.527a.359.359 0 10-.718 0v3.343h-.953c-.793 0-1.437.643-1.437 1.435v3.171c0 .792.644 1.434 1.437 1.434h.953v8.608a.358.358 0 00.718 0v-8.608h.953c.794 0 1.437-.642 1.437-1.434v-3.171c0-.792-.643-1.435-1.437-1.435h-.953v-3.343z" fill="#EE7D8B"/><path d="M373.979 144.765h-.953v-3.874a.36.36 0 00-.718 0v3.874h-.953c-.794 0-1.437.642-1.437 1.434v28.184c0 .792.643 1.435 1.437 1.435h.953v30.883a.359.359 0 10.718 0v-30.883h.953c.793 0 1.437-.643 1.437-1.435v-28.184c0-.792-.644-1.434-1.437-1.434z" fill="#EE7D8B"/><path d="M347.1 134.305h-.953v-1.979a.358.358 0 00-.718 0v1.979h-.953c-.794 0-1.437.642-1.437 1.434v12.988c0 .793.643 1.435 1.437 1.435h.953v15.77a.36.36 0 00.719 0v-15.77h.952c.794 0 1.437-.642 1.437-1.435v-12.988c0-.792-.643-1.434-1.437-1.434z" fill="#EE7D8B"/><path d="M365.019 135.963h-.953V120.2a.358.358 0 00-.718 0v15.763h-.953c-.794 0-1.437.642-1.437 1.434v89.759c0 .792.643 1.434 1.437 1.434h.953v18.284a.36.36 0 00.718 0V228.59h.953c.793 0 1.437-.642 1.437-1.434v-89.759c0-.792-.644-1.434-1.437-1.434z" fill="#13C8A4"/><path d="M29.3 109.456a.358.358 0 01.72 0v23.88h.952c.794 0 1.437.642 1.437 1.434v12.851c0 .793-.643 1.435-1.437 1.435h-.953v1.123a.36.36 0 01-.718 0v-1.123h-.953a1.436 1.436 0 01-1.437-1.435V134.77c0-.792.644-1.434 1.437-1.434h.953v-23.88z" fill="#13C8A4"/><path d="M35.871 157.334c0 .792.643 1.435 1.437 1.435h2.624c.793 0 1.437-.643 1.437-1.435v-16.55c0-.792-.644-1.434-1.437-1.434h-2.624c-.794 0-1.437.642-1.437 1.434v16.55z" fill="#13C8A4"/><path fill-rule="evenodd" clip-rule="evenodd" d="M38.62 139.882a.36.36 0 00.36-.359v-12.939a.358.358 0 00-.72 0v12.939c0 .198.162.359.36.359z" fill="#13C8A4"/><path fill-rule="evenodd" clip-rule="evenodd" d="M38.62 238.33c.198 0 .36-.16.36-.358v-79.377a.36.36 0 00-.72 0v79.377c0 .198.162.358.36.358z" fill="#13C8A4"/><path d="M108.987 153.924h.953v-23.571a.359.359 0 11.718 0v23.571h.953c.793 0 1.437.642 1.437 1.434v32.99c0 .792-.644 1.434-1.437 1.434h-.953v47.43a.358.358 0 01-.718 0v-47.43h-.953a1.435 1.435 0 01-1.437-1.434v-32.99c0-.792.643-1.434 1.437-1.434z" fill="#13C8A4"/><path d="M20.072 102.013a.36.36 0 01.719 0v15.191h1.221c.794 0 1.437.643 1.437 1.435v93.547c0 .792-.643 1.434-1.437 1.434h-.952v6.887a.36.36 0 01-.719 0v-6.887h-.953a1.436 1.436 0 01-1.437-1.434v-93.547c0-.792.644-1.435 1.438-1.435h.683v-15.191z" fill="#13C8A4"/><path d="M11.245 113.56a.36.36 0 01.719 0v4.495h.952c.794 0 1.438.642 1.438 1.434v17.208c0 .793-.644 1.435-1.438 1.435h-.952v13.604a.36.36 0 01-.719 0v-13.604h-.952a1.436 1.436 0 01-1.437-1.435v-17.208c0-.792.643-1.434 1.437-1.434h.952v-4.495z" fill="#13C8A4"/><path d="M65.14 113.819a.359.359 0 11.718 0v9.397h.953c.794 0 1.437.642 1.437 1.434v17.208c0 .793-.643 1.435-1.437 1.435h-.953v26.175a.36.36 0 01-.718 0v-26.175h-.953a1.436 1.436 0 01-1.437-1.435V124.65c0-.792.644-1.434 1.437-1.434h.953v-9.397z" fill="#13C8A4"/><path d="M83.06 119.398a.36.36 0 01.718 0V131.1h.953c.794 0 1.437.642 1.437 1.434v22.134c0 .792-.644 1.434-1.437 1.434h-.953v13.367a.358.358 0 01-.718 0v-13.367h-.953a1.436 1.436 0 01-1.437-1.434v-22.134c0-.792.644-1.434 1.437-1.434h.953v-11.702z" fill="#13C8A4"/><path d="M92.02 130.353a.36.36 0 01.718 0v9.878h.953c.793 0 1.437.642 1.437 1.435v14.973c0 .792-.644 1.434-1.437 1.434h-.953v2.226a.358.358 0 01-.718 0v-2.226h-.953a1.436 1.436 0 01-1.437-1.434v-14.973c0-.793.644-1.435 1.437-1.435h.953v-9.878z" fill="#EE7D8B"/><path d="M100.98 153.527a.36.36 0 01.718 0v3.343h.953c.793 0 1.437.643 1.437 1.435v3.171c0 .792-.644 1.434-1.437 1.434h-.953v8.608a.358.358 0 01-.718 0v-8.608h-.953a1.436 1.436 0 01-1.437-1.434v-3.171c0-.792.643-1.435 1.437-1.435h.953v-3.343z" fill="#EE7D8B"/><path d="M46.268 144.765h.953v-3.874a.36.36 0 01.719 0v3.874h.952c.794 0 1.437.642 1.437 1.434v28.184c0 .792-.643 1.435-1.437 1.435h-.953v30.883a.36.36 0 01-.718 0v-30.883h-.953a1.436 1.436 0 01-1.437-1.435v-28.184c0-.792.644-1.434 1.437-1.434z" fill="#EE7D8B"/><path d="M73.147 134.305h.953v-1.979a.358.358 0 01.718 0v1.979h.953c.794 0 1.437.642 1.437 1.434v12.988c0 .793-.643 1.435-1.437 1.435h-.953v15.77a.36.36 0 01-.719 0v-15.77h-.952a1.436 1.436 0 01-1.437-1.435v-12.988c0-.792.644-1.434 1.437-1.434z" fill="#EE7D8B"/><path d="M55.227 135.963h.953V120.2a.358.358 0 01.718 0v15.763h.953c.794 0 1.437.642 1.437 1.434v89.759c0 .792-.643 1.434-1.437 1.434h-.953v18.284a.36.36 0 01-.718 0V228.59h-.953a1.436 1.436 0 01-1.437-1.434v-89.759c0-.792.644-1.434 1.437-1.434z" fill="#13C8A4"/><mask id="a" fill="#fff"><path fill-rule="evenodd" clip-rule="evenodd" d="M214.74 254.468c-1.397 2.827-18.941 4.155-31.684 1.445-14.438-3.07-21.95-11.674-24.731-13.995-2.025-1.689.113-7.921 1.91-6.559 1.131.857 11.527 12.79 24.409 15.075 14.166 2.513 27.994-2.258 29.752-1.406 2.202 1.068.695 4.73.344 5.44z"/></mask><path fill-rule="evenodd" clip-rule="evenodd" d="M214.74 254.468c-1.397 2.827-18.941 4.155-31.684 1.445-14.438-3.07-21.95-11.674-24.731-13.995-2.025-1.689.113-7.921 1.91-6.559 1.131.857 11.527 12.79 24.409 15.075 14.166 2.513 27.994-2.258 29.752-1.406 2.202 1.068.695 4.73.344 5.44z" fill="#EE7D8B" stroke="#000" stroke-width="2" mask="url(#a)"/><path fill-rule="evenodd" clip-rule="evenodd" d="M145.742 91.037c-.109.408 7.861 6.767 9.221 3.779.147-.324 1.067-.31 1.348-.339 1.344-.14 2.623-.619 3.798-1.345 2.782-1.719 6.06-3.036 7.248-6.447.471-1.35-1.319-2.173-1.95-3.002-.49-.644 1.387-.43.604-2.416-.772-1.954-2.446-1.269-2.43-1.287.035-.042-.089-1.52-.797-2.097-.701-.573-2.132-.244-2.208-.31-.055-.048-.862-1.573-1.667-1.85-1.415-.487-1.96.437-2 .523-.033.07-1.357-.527-1.956-.495-.752.04-1.382 1.048-1.43 1.044-.091-.008-.762-.224-1.334.112-1.141.669-2.493 3.056-3.126 4.178-2.634 4.676-2.79 7.959-3.321 9.952z" fill="#000"/><path fill-rule="evenodd" clip-rule="evenodd" d="M123.913 137.939l9.76-7.432 29.947 39.314-9.76 7.431-29.947-39.313z" fill="#000"/><mask id="b" fill="#fff"><path fill-rule="evenodd" clip-rule="evenodd" d="M168.605 164.262c-8.385-1.219-16.183 4.596-17.402 12.978-1.22 8.382 4.597 16.178 12.982 17.397 8.384 1.22 16.182-4.596 17.401-12.978 1.22-8.382-4.597-16.177-12.981-17.397z"/></mask><path fill-rule="evenodd" clip-rule="evenodd" d="M168.605 164.262c-8.385-1.219-16.183 4.596-17.402 12.978-1.22 8.382 4.597 16.178 12.982 17.397 8.384 1.22 16.182-4.596 17.401-12.978 1.22-8.382-4.597-16.177-12.981-17.397z" fill="#EE7D8B" stroke="#000" stroke-width="2" mask="url(#b)"/><path fill-rule="evenodd" clip-rule="evenodd" d="M223.978 175.677l-38.133-8.842 5.149-22.193 38.132 8.841-5.148 22.194z" fill="#000"/><mask id="c" fill="#fff"><path fill-rule="evenodd" clip-rule="evenodd" d="M185.965 150.589l43.586 10.107a3.596 3.596 0 001.624-7.004l-43.585-10.105a3.594 3.594 0 10-1.625 7.002z"/></mask><path fill-rule="evenodd" clip-rule="evenodd" d="M185.965 150.589l43.586 10.107a3.596 3.596 0 001.624-7.004l-43.585-10.105a3.594 3.594 0 10-1.625 7.002z" fill="#EE7D8B" stroke="#000" stroke-width="2" mask="url(#c)"/><mask id="d" maskUnits="userSpaceOnUse" x="148.758" y="158.139" width="96" height="96" fill="#000"><path fill="#fff" d="M148.758 158.139h96v96h-96z"/><path fill-rule="evenodd" clip-rule="evenodd" d="M203.102 160.626c-25.297-3.679-48.823 13.867-52.503 39.157-3.68 25.291 13.871 48.81 39.169 52.488 25.296 3.679 48.823-13.866 52.502-39.157 3.68-25.29-13.87-48.809-39.168-52.488z"/></mask><path fill-rule="evenodd" clip-rule="evenodd" d="M203.102 160.626c-25.297-3.679-48.823 13.867-52.503 39.157-3.68 25.291 13.871 48.81 39.169 52.488 25.296 3.679 48.823-13.866 52.502-39.157 3.68-25.29-13.87-48.809-39.168-52.488z" fill="#13C8A4"/><path clip-rule="evenodd" d="M203.102 160.626c-25.297-3.679-48.823 13.867-52.503 39.157-3.68 25.291 13.871 48.81 39.169 52.488 25.296 3.679 48.823-13.866 52.502-39.157 3.68-25.29-13.87-48.809-39.168-52.488z" stroke="#000" stroke-width="2" mask="url(#d)"/><path fill-rule="evenodd" clip-rule="evenodd" d="M276.039 138.973c.128.14 11.458 1.707 12.485-.792 2.936-7.14 3.757-8.442 1.315-10.896-.057-.059.829-2.044-2.025-3.001-.009-.003-.02-2.407-3.041-1.777-.038.008-1.364-2.75-4.511-.374-.029.022-2.244-2.846-4.274 1.521-.004.008-4.025-1.166-4.167 2.153-.169 3.944 1.256 9.92 4.218 13.166z" fill="#000"/><path fill-rule="evenodd" clip-rule="evenodd" d="M248.098 213.18l-6.686-10.285 41.445-26.929 6.686 10.284-41.445 26.93z" fill="#000"/><mask id="e" fill="#fff"><path fill-rule="evenodd" clip-rule="evenodd" d="M298.903 181.208c-.455 5.475-5.27 9.551-10.746 9.097l-19.844-1.645c-5.476-.454-9.553-5.267-9.099-10.742l2.585-31.169c.455-5.474 5.269-9.55 10.745-9.096l19.845 1.645c5.476.454 9.553 5.267 9.099 10.741l-2.585 31.169z"/></mask><path fill-rule="evenodd" clip-rule="evenodd" d="M298.903 181.208c-.455 5.475-5.27 9.551-10.746 9.097l-19.844-1.645c-5.476-.454-9.553-5.267-9.099-10.742l2.585-31.169c.455-5.474 5.269-9.55 10.745-9.096l19.845 1.645c5.476.454 9.553 5.267 9.099 10.741l-2.585 31.169z" fill="#13C8A4" stroke="#000" stroke-width="2" mask="url(#e)"/><path fill-rule="evenodd" clip-rule="evenodd" d="M292.498 145.252a2.664 2.664 0 012.475 2.841l-.679 9.85a2.663 2.663 0 01-2.84 2.474l2.513.173a2.664 2.664 0 002.841-2.475l.679-9.849a2.666 2.666 0 00-2.476-2.841l-2.513-.173z" fill="#000"/><path fill-rule="evenodd" clip-rule="evenodd" d="M292.508 145.262l-7.339-.505a2.664 2.664 0 00-2.842 2.474l-.678 9.85a2.663 2.663 0 002.475 2.84l7.339.506a2.665 2.665 0 002.841-2.475l.678-9.85a2.662 2.662 0 00-2.474-2.84zm-6.659 7.926a1.93 1.93 0 11-.263 3.85 1.93 1.93 0 01.263-3.85zm5.473.377a1.93 1.93 0 11-.264 3.85 1.93 1.93 0 01.264-3.85zm-5.09-5.942a1.93 1.93 0 11-.263 3.851 1.93 1.93 0 01.263-3.851z" fill="#000"/><mask id="f" fill="#fff"><path fill-rule="evenodd" clip-rule="evenodd" d="M238.819 193.829c-8.385-1.22-16.182 4.595-17.401 12.978-1.22 8.382 4.597 16.178 12.981 17.396 8.385 1.22 16.182-4.595 17.402-12.978 1.22-8.382-4.597-16.177-12.982-17.396z"/></mask><path fill-rule="evenodd" clip-rule="evenodd" d="M238.819 193.829c-8.385-1.22-16.182 4.595-17.401 12.978-1.22 8.382 4.597 16.178 12.981 17.396 8.385 1.22 16.182-4.595 17.402-12.978 1.22-8.382-4.597-16.177-12.982-17.396z" fill="#EE7D8B" stroke="#000" stroke-width="2" mask="url(#f)"/><mask id="g" fill="#fff"><path fill-rule="evenodd" clip-rule="evenodd" d="M128.716 95.471c1.993-5.12 7.768-7.658 12.889-5.665l18.556 7.22c5.121 1.993 7.66 7.767 5.667 12.886l-11.347 29.146c-1.993 5.119-7.769 7.658-12.889 5.665l-18.557-7.22c-5.12-1.993-7.66-7.766-5.666-12.886l11.347-29.146z"/></mask><path fill-rule="evenodd" clip-rule="evenodd" d="M128.716 95.471c1.993-5.12 7.768-7.658 12.889-5.665l18.556 7.22c5.121 1.993 7.66 7.767 5.667 12.886l-11.347 29.146c-1.993 5.119-7.769 7.658-12.889 5.665l-18.557-7.22c-5.12-1.993-7.66-7.766-5.666-12.886l11.347-29.146z" fill="#13C8A4" stroke="#000" stroke-width="2" mask="url(#g)"/><path fill-rule="evenodd" clip-rule="evenodd" d="M133.795 109.263a2.664 2.664 0 01-1.557-3.43l3.473-9.242a2.664 2.664 0 013.43-1.557l-2.358-.886a2.664 2.664 0 00-3.431 1.557l-3.472 9.242a2.662 2.662 0 001.557 3.43l2.358.886z" fill="#000"/><path fill-rule="evenodd" clip-rule="evenodd" d="M133.793 109.254l6.886 2.586a2.665 2.665 0 003.431-1.557l3.473-9.243a2.663 2.663 0 00-1.558-3.43l-6.886-2.586a2.664 2.664 0 00-3.431 1.557l-3.473 9.242a2.664 2.664 0 001.558 3.431zm8.649-5.686a1.93 1.93 0 111.358-3.613 1.93 1.93 0 01-1.358 3.613zm-5.135-1.929a1.93 1.93 0 111.358-3.614 1.93 1.93 0 01-1.358 3.614zm3.174 7.15a1.931 1.931 0 01-1.129-2.486 1.931 1.931 0 013.614 1.358 1.93 1.93 0 01-2.485 1.128z" fill="#000"/><path fill-rule="evenodd" clip-rule="evenodd" d="M192.2 110.367l5.067 1.179-4.312 18.53-12.435-2.892c-5.097-1.186-8.298-6.325-7.111-11.421 1.185-5.095 6.326-8.295 11.423-7.109l4.354 1.012 5.536-23.703 3.014.703-5.536 23.701z" fill="#000"/><path d="M197.267 111.546l.113-.487a.5.5 0 01.374.6l-.487-.113zm-5.067-1.179l-.114.487a.498.498 0 01-.373-.601l.487.114zm.755 19.709l.487.113a.502.502 0 01-.601.374l.114-.487zm-12.435-2.892l-.113.487.113-.487zm-7.111-11.421l.487.113-.487-.113zm11.423-7.109l-.113.487.113-.487zm4.354 1.012l.486.114a.499.499 0 01-.6.373l.114-.487zm5.536-23.703l-.487-.114a.5.5 0 01.601-.373l-.114.487zm3.014.703l.114-.486a.5.5 0 01.373.6l-.487-.114zm-.582 25.367l-5.068-1.179.227-.974 5.067 1.179-.226.974zm-4.686 17.93l4.312-18.531.974.227-4.312 18.53-.974-.226zm-11.835-3.266l12.435 2.892-.227.974-12.434-2.892.226-.974zm-6.737-10.821c-1.124 4.827 1.909 9.698 6.737 10.821l-.226.974c-5.366-1.248-8.734-6.657-7.485-12.022l.974.227zm10.823-6.735c-4.828-1.123-9.701 1.909-10.823 6.735l-.974-.227c1.248-5.364 6.658-8.73 12.024-7.482l-.227.974zm4.353 1.012l-4.353-1.012.227-.974 4.353 1.012-.227.974zm-.373-.6l5.536-23.704.974.228-5.537 23.703-.973-.227zm6.137-24.077l3.014.704-.227.973-3.014-.703.227-.974zm3.387 1.304l-5.537 23.701-.973-.228 5.536-23.7.974.227z" fill="#000"/><mask id="h" fill="#fff"><path d="M204.521 81.793a6.904 6.904 0 00-13.594-2.248 6.902 6.902 0 005.153 8.29 6.903 6.903 0 007.033-2.498l3.583-1.616a2.786 2.786 0 013.297.77l2.532 3.078a2.788 2.788 0 003.298.769l3.628-1.637a2.784 2.784 0 013.297.77c.778.944 1.751 2.129 2.529 3.074a2.785 2.785 0 003.298.77l3.628-1.638a2.785 2.785 0 013.297.77l2.529 3.075a2.787 2.787 0 003.298.77l2.205-.995a6.905 6.905 0 0013.626 1.71 6.902 6.902 0 00-5.152-8.29 6.908 6.908 0 00-7.539 3.249l-2.381 1.074a2.787 2.787 0 01-3.298-.77l-2.528-3.075a2.787 2.787 0 00-3.298-.77 4630.22 4630.22 0 01-3.628 1.638 2.786 2.786 0 01-3.297-.77l-2.529-3.075a2.787 2.787 0 00-3.298-.77l-3.629 1.638a2.786 2.786 0 01-3.297-.77c-.779-.945-1.753-2.13-2.531-3.076a2.786 2.786 0 00-3.297-.77l-2.935 1.323zm-18.816 61.419l48.393 11.298a7.165 7.165 0 008.605-5.346l7.465-31.959a7.161 7.161 0 00-5.346-8.603l-48.393-11.298a7.165 7.165 0 00-8.606 5.346l-7.465 31.958a7.164 7.164 0 005.347 8.604z"/></mask><path d="M204.521 81.793a6.904 6.904 0 00-13.594-2.248 6.902 6.902 0 005.153 8.29 6.903 6.903 0 007.033-2.498l3.583-1.616a2.786 2.786 0 013.297.77l2.532 3.078a2.788 2.788 0 003.298.769l3.628-1.637a2.784 2.784 0 013.297.77c.778.944 1.751 2.129 2.529 3.074a2.785 2.785 0 003.298.77l3.628-1.638a2.785 2.785 0 013.297.77l2.529 3.075a2.787 2.787 0 003.298.77l2.205-.995a6.905 6.905 0 0013.626 1.71 6.902 6.902 0 00-5.152-8.29 6.908 6.908 0 00-7.539 3.249l-2.381 1.074a2.787 2.787 0 01-3.298-.77l-2.528-3.075a2.787 2.787 0 00-3.298-.77 4630.22 4630.22 0 01-3.628 1.638 2.786 2.786 0 01-3.297-.77l-2.529-3.075a2.787 2.787 0 00-3.298-.77l-3.629 1.638a2.786 2.786 0 01-3.297-.77c-.779-.945-1.753-2.13-2.531-3.076a2.786 2.786 0 00-3.297-.77l-2.935 1.323zm-18.816 61.419l48.393 11.298a7.165 7.165 0 008.605-5.346l7.465-31.959a7.161 7.161 0 00-5.346-8.603l-48.393-11.298a7.165 7.165 0 00-8.606 5.346l-7.465 31.958a7.164 7.164 0 005.347 8.604z" fill="#13C8A4" stroke="#000" stroke-width="2" mask="url(#h)"/><path fill-rule="evenodd" clip-rule="evenodd" d="M192.116 115.992c-1.206 5.164 1.099 10.117 5.15 11.063 4.05.945 8.311-2.475 9.517-7.639 1.206-5.164-1.099-10.117-5.149-11.063-4.051-.945-8.312 2.475-9.518 7.639z" fill="#000"/><path fill-rule="evenodd" clip-rule="evenodd" d="M189.405 114.753c-1.206 5.164 1.099 10.117 5.15 11.062 4.05.945 8.311-2.475 9.517-7.638 1.206-5.164-1.099-10.117-5.149-11.063-4.051-.946-8.312 2.474-9.518 7.639z" fill="#fff"/><path fill-rule="evenodd" clip-rule="evenodd" d="M188.705 114.588c1.306-5.591 5.996-9.198 10.382-8.174 4.385 1.024 6.992 6.335 5.686 11.926s-5.996 9.198-10.381 8.174c-4.386-1.023-6.993-6.334-5.687-11.926zm1.4.327c-1.106 4.738.898 9.333 4.613 10.2 3.716.867 7.548-2.365 8.654-7.102 1.107-4.738-.897-9.332-4.612-10.199-3.716-.868-7.548 2.364-8.655 7.101z" fill="#000"/><path fill-rule="evenodd" clip-rule="evenodd" d="M193.132 114.96c-.425 1.818.386 3.561 1.812 3.895 1.426.332 2.926-.872 3.35-2.689.425-1.819-.386-3.562-1.812-3.895-1.426-.333-2.926.871-3.35 2.689z" fill="#000"/><path fill-rule="evenodd" clip-rule="evenodd" d="M215.263 122.251c-1.206 5.164 1.1 10.117 5.149 11.062 4.051.946 8.312-2.474 9.519-7.638 1.206-5.164-1.099-10.117-5.15-11.063-4.05-.945-8.311 2.475-9.518 7.639z" fill="#000"/><path fill-rule="evenodd" clip-rule="evenodd" d="M205.379 134.444c-2.817-.657-5.214-2.207-5.73 0-.515 2.209 1.35 4.531 4.167 5.189 2.816.658 5.518-.599 6.034-2.807.515-2.208-1.654-1.724-4.471-2.382z" fill="#000"/><path fill-rule="evenodd" clip-rule="evenodd" d="M211.922 120.512c-1.207 5.164 1.099 10.117 5.149 11.063 4.05.946 8.312-2.474 9.518-7.638 1.206-5.165-1.099-10.118-5.15-11.063-4.05-.945-8.311 2.474-9.517 7.638z" fill="#fff"/><path fill-rule="evenodd" clip-rule="evenodd" d="M211.222 120.349c1.306-5.591 5.996-9.199 10.381-8.174 4.385 1.023 6.992 6.334 5.686 11.925-1.306 5.591-5.996 9.199-10.381 8.175-4.386-1.024-6.992-6.335-5.686-11.926zm1.4.327c-1.107 4.737.897 9.332 4.613 10.2 3.716.867 7.548-2.365 8.654-7.103 1.106-4.737-.897-9.332-4.613-10.199-3.715-.868-7.548 2.365-8.654 7.102z" fill="#000"/><path fill-rule="evenodd" clip-rule="evenodd" d="M215.648 120.721c-.425 1.818.386 3.562 1.812 3.894 1.426.333 2.926-.871 3.351-2.689.425-1.817-.387-3.561-1.813-3.894-1.425-.333-2.926.872-3.35 2.689z" fill="#000"/><path fill-rule="evenodd" clip-rule="evenodd" d="M245.096 123.104l5.738 1.339c5.097 1.19 8.293 6.332 7.103 11.426-1.19 5.095-6.334 8.29-11.43 7.1l-12.433-2.902 4.328-18.526 3.68.859 5.351-22.908 3.014.704-5.351 22.908z" fill="#000"/><path d="M245.096 123.104l-.114.487a.502.502 0 01-.373-.601l.487.114zm5.738 1.339l-.114.487.114-.487zm7.103 11.426l.487.114-.487-.114zm-11.43 7.1l.113-.487-.113.487zm-12.433-2.902l-.113.487a.5.5 0 01-.374-.6l.487.113zm4.328-18.526l-.487-.114a.5.5 0 01.6-.373l-.113.487zm3.68.859l.487.114a.5.5 0 01-.601.373l.114-.487zm5.351-22.908l-.487-.114a.5.5 0 01.601-.373l-.114.487zm3.014.704l.113-.487a.5.5 0 01.374.6l-.487-.113zm-5.238 22.421l5.739 1.339-.228.974-5.738-1.339.227-.974zm5.739 1.339c5.365 1.253 8.728 6.663 7.476 12.027l-.974-.228c1.127-4.825-1.902-9.698-6.73-10.825l.228-.974zm7.476 12.027c-1.253 5.364-6.666 8.726-12.031 7.473l.227-.974c4.828 1.128 9.702-1.9 10.83-6.727l.974.228zm-12.031 7.473l-12.432-2.902.227-.974 12.432 2.902-.227.974zm-12.806-3.502l4.328-18.527.974.228-4.328 18.526-.974-.227zm4.928-18.9l3.68.859-.227.974-3.68-.859.227-.974zm3.08 1.232l5.351-22.908.974.228-5.351 22.908-.974-.228zm5.952-23.28l3.013.703-.227.974-3.013-.704.227-.974zm3.387 1.303l-5.351 22.908-.974-.227 5.351-22.908.974.227z" fill="#000"/><path fill-rule="evenodd" clip-rule="evenodd" d="M252.332 92.314a.717.717 0 001.415-.177c0-.486-.185-.803-.423-1.008-.241-.208-.566-.315-.937-.293-.372.023-.805.186-1.165.454-.379.282-.668.674-.773 1.089-.263 1.043-.016 1.87.468 2.451 1.086 1.305 3.583 1.37 4.883-.486.691-.988.593-2.019.346-3.01-.568-2.287-2.967-3.81-5.25-3.52-1.043.134-1.974.697-2.712 1.507-1.043 1.144-1.696 2.78-1.758 4.227-.029.654.133 1.785.567 2.528.407.7 1.024 1.096 1.828.945a.72.72 0 00-.267-1.412c-.086.016-.149-.032-.202-.092a1.382 1.382 0 01-.235-.409 3.95 3.95 0 01-.255-1.498c.049-1.138.565-2.422 1.384-3.32.503-.551 1.122-.96 1.831-1.05 1.594-.203 3.277.845 3.674 2.44.15.604.291 1.239-.129 1.84-.697.996-2.019 1.09-2.6.39-.232-.277-.304-.68-.179-1.18.036-.143.174-.253.312-.337a.864.864 0 01.177-.08z" fill="#000"/><path fill-rule="evenodd" clip-rule="evenodd" d="M196.026 79.562a.718.718 0 01-1.027-.99c.291-.39.63-.532.943-.554.318-.021.642.088.925.329.284.24.533.631.66 1.062.134.453.13.94-.035 1.334-.416.992-1.11 1.507-1.845 1.68-1.653.393-3.69-1.052-3.615-3.317.04-1.206.737-1.972 1.529-2.617 1.828-1.488 4.661-1.268 6.313.335.754.731 1.161 1.74 1.265 2.832.149 1.54-.311 3.24-1.13 4.435-.37.54-1.178 1.348-1.971 1.683-.747.315-1.478.262-2.029-.34a.718.718 0 111.06-.971c.06.065.138.064.217.049.144-.029.289-.1.433-.187.46-.278.887-.729 1.104-1.046.643-.94 1.002-2.275.885-3.486-.071-.742-.322-1.44-.835-1.938-1.153-1.117-3.128-1.29-4.404-.251-.482.393-.976.816-1 1.549-.041 1.214.961 2.083 1.846 1.872.352-.083.652-.363.851-.837.057-.136.012-.307-.046-.457a.988.988 0 00-.094-.17z" fill="#000"/><path fill-rule="evenodd" clip-rule="evenodd" d="M193.155 198.375l5.343 1.167a.074.074 0 00.077-.033l2.961-4.883.001-.002 2.711-4.893a.077.077 0 00.006-.056l-.136-.463a.074.074 0 00-.054-.05l-6.554-1.432a.07.07 0 00-.081.045l-2.181 5.475-.001.002-2.143 5.024a.073.073 0 00.039.095l.012.004z" fill="#fff"/><path fill-rule="evenodd" clip-rule="evenodd" d="M181.125 195.747l5.32 1.163a.074.074 0 00.077-.033l2.973-4.881.001-.003 2.722-4.89a.07.07 0 00.006-.055l-.138-.464a.072.072 0 00-.054-.05l-6.599-1.441a.07.07 0 00-.082.043l-2.187 5.475-.001.001-2.089 5.037a.072.072 0 00.039.094l.012.004z" fill="#fff"/><path fill-rule="evenodd" clip-rule="evenodd" d="M169.41 193.187l5.343 1.168a.074.074 0 00.077-.034l2.961-4.883.001-.002 2.711-4.893a.075.075 0 00.006-.055l-.136-.464a.072.072 0 00-.055-.049l-6.553-1.432a.07.07 0 00-.081.044l-2.182 5.475v.002l-2.143 5.025a.072.072 0 00.038.094l.013.004z" fill="#fff"/><path opacity="0.6" d="M116.75 29.435l-7.538 8.248 11.717 1.531 6.991-9.519-11.17-.26z" fill="#000"/><path d="M109.212 37.683l11.717 1.531-8.991-21.044-2.726 19.513z" fill="#000"/><path d="M111.938 18.17l8.991 21.044 6.991-9.519-15.982-11.525z" fill="#000"/><path d="M109.969 39.455l14.985 9.182-3.269-7.651-11.716-1.53z" fill="#000"/><path d="M121.686 40.987l3.268 7.65 3.73-17.173-6.998 9.523z" fill="#000"/><path fill-rule="evenodd" clip-rule="evenodd" d="M117.404 47.833c2.756 1.959 9.1 5.427 9.198 5.414.535-.07 1.491-4.095 1.744-6.472.03-.28.56-3.052.642-2.906.539.951 3.457 11.25 4.292 14.674.28 1.15.63 2.332.758 3.513.018.17.055 1.587-.019 1.624-.063.031-.987-1.19-1.126-1.395-.449-.663-1.437-3.253-2.454-3.404-.496-.073-.194 1.881-.154 2.068.402 1.9.826 3.783 1.023 5.718.021.202.175 2.377.161 2.457-.02.117-1.816-2.493-2.066-3.122-.943-2.37-2.133-5.252-3.99-7.094-.479-.475-.993.256-1.139.67-.268.761.522 5.646.296 5.479-.788-.584-7.166-17.224-7.166-17.224z" fill="#EE7D8B"/><path opacity="0.6" d="M241.694 51.111l4.728 5.174-7.349.96-4.385-5.97 7.006-.164z" fill="#000"/><path d="M246.422 56.284l-7.349.96 5.639-13.198 1.71 12.238z" fill="#000"/><path d="M244.713 44.046l-5.639 13.198-4.385-5.97 10.024-7.228z" fill="#000"/><path d="M245.947 57.397l-9.398 5.758 2.05-4.798 7.348-.96z" fill="#000"/><path d="M238.599 58.356l-2.051 4.799-2.339-10.771 4.39 5.972z" fill="#000"/><path fill-rule="evenodd" clip-rule="evenodd" d="M241.284 62.65c-1.728 1.228-5.707 3.404-5.768 3.396-.336-.044-.936-2.569-1.094-4.06-.019-.176-.351-1.914-.403-1.822-.338.596-2.168 7.055-2.691 9.203-.176.722-.396 1.462-.476 2.203-.011.106-.034.995.012 1.019.039.02.619-.747.706-.875.281-.416.901-2.04 1.539-2.135.312-.046.122 1.18.097 1.297-.253 1.191-.518 2.372-.642 3.586-.013.127-.109 1.49-.101 1.541.013.073 1.139-1.564 1.296-1.958.591-1.486 1.338-3.294 2.502-4.45.301-.297.623.162.715.421.167.478-.328 3.541-.186 3.436.494-.366 4.494-10.802 4.494-10.802z" fill="#EE7D8B"/><path d="M185.075 57.948c15.575.966 28.984-10.874 29.95-26.444.966-15.57-10.876-28.976-26.451-29.942-15.575-.966-28.984 10.874-29.95 26.444-.966 15.57 10.876 28.976 26.451 29.942z" fill="#EE7D8B"/><path d="M185.311 54.135c13.469.835 25.064-9.403 25.899-22.868.836-13.464-9.405-25.056-22.873-25.891-13.469-.836-25.064 9.402-25.899 22.867-.836 13.464 9.405 25.057 22.873 25.892z" stroke="#000" stroke-width="3" stroke-miterlimit="10"/><path d="M195.895 29.753a6.838 6.838 0 00-2.351-1.573 10.446 10.446 0 00-2.904-.73 30.508 30.508 0 00-3.159-.18c-.819.044-1.605.074-2.391.088a9.66 9.66 0 01-2.139-.18c-.65-.134-1.201-.357-1.682-.7-.465-.343-.796-.834-.991-1.49-.166-.606-.177-1.187-.034-1.727a3.82 3.82 0 01.768-1.506 5.167 5.167 0 011.36-1.17 6.616 6.616 0 011.742-.755 9.25 9.25 0 011.588-.31 6.253 6.253 0 011.426.026c.467.06.899.181 1.359.367.443.184.915.417 1.431.7.399.15.806.16 1.189.058.48-.143.841-.403 1.055-.813.229-.41.271-.83.142-1.277a1.677 1.677 0 00-.369-.635 7.166 7.166 0 00-1.866-1.277 8.267 8.267 0 00-2.186-.684 9.97 9.97 0 00-2.362-.131 7.913 7.913 0 00-.852.088l-.451-1.597a1.58 1.58 0 00-.724-.97 1.429 1.429 0 00-1.152-.15c-.447.129-.776.375-.988.754-.212.38-.269.784-.138 1.216l.45 1.596c-.549.249-1.054.547-1.545.877a9.2 9.2 0 00-2.258 2.245 7.718 7.718 0 00-1.229 2.857c-.221 1.038-.163 2.124.144 3.24.309 1.102.802 1.996 1.497 2.682a6.762 6.762 0 002.444 1.58c.95.372 1.987.609 3.127.695 1.139.102 2.317.097 3.546.016l2.085.035a8.574 8.574 0 011.928.277c.602.163 1.119.43 1.552.786.449.358.762.879.954 1.566.192.702.214 1.362.05 1.98a4.642 4.642 0 01-.842 1.688c-.408.509-.89.934-1.478 1.305a6.817 6.817 0 01-1.856.826c-1.294.375-2.537.423-3.697.163a6.256 6.256 0 01-3.008-1.598c-.767-.55-1.413-.747-1.957-.592-.207.05-.386.164-.584.309a1.994 1.994 0 00-.455.505c-.122.196-.213.41-.259.643-.046.232-.046.483.033.723.091.304.26.613.51.895a7.86 7.86 0 001.924 1.61 9.668 9.668 0 002.493 1.048 10.854 10.854 0 004.426.243l.503 1.757c.114.431.377.745.756.957.38.212.785.253 1.216.138a1.43 1.43 0 00.925-.742c.196-.38.236-.77.121-1.2l-.501-1.79c.63-.29 1.232-.629 1.79-1.018a9.537 9.537 0 002.397-2.47 8.1 8.1 0 001.228-3.094 7.594 7.594 0 00-.195-3.432c-.384-1.153-.877-2.062-1.556-2.748z" fill="#000"/><path d="M91.396 96.592c8.754.543 16.29-6.111 16.833-14.862.543-8.751-6.113-16.285-14.867-16.828-8.753-.543-16.29 6.111-16.832 14.862-.543 8.751 6.112 16.285 14.866 16.828z" fill="#EE7D8B"/><path d="M91.529 94.448c7.57.47 14.087-5.284 14.556-12.852.47-7.567-5.286-14.082-12.856-14.552-7.57-.47-14.086 5.285-14.556 12.852-.47 7.568 5.287 14.083 12.856 14.552z" stroke="#000" stroke-width="2" stroke-miterlimit="10"/><path d="M96.188 77.36a3.978 3.978 0 00-1.575.22c-.514.179-1.015.439-1.495.78-.48.34-.944.708-1.391 1.103-.33.324-.648.63-.975.928a6.032 6.032 0 01-.962.725c-.32.183-.636.295-.965.337-.32.033-.65-.05-.972-.255a1.744 1.744 0 01-.66-.72 2.208 2.208 0 01-.243-.923c-.015-.327.032-.66.132-1.006.101-.346.253-.663.449-.968.176-.28.358-.516.547-.724.19-.2.394-.373.606-.518a3.42 3.42 0 01.7-.354c.253-.09.54-.169.862-.237.226-.092.394-.232.52-.418a.94.94 0 00.143-.74.934.934 0 00-.413-.59.943.943 0 00-.39-.13 3.796 3.796 0 00-1.261.16 4.9 4.9 0 00-1.18.526c-.366.224-.719.502-1.04.835a6.338 6.338 0 00-.321.36l-.79-.5a.874.874 0 00-.67-.13.818.818 0 00-.544.364.884.884 0 00-.13.688c.046.241.185.426.388.562l.79.499c-.135.309-.242.62-.324.95-.143.6-.18 1.197-.11 1.783a4.43 4.43 0 00.549 1.665c.302.521.717.953 1.268 1.304.543.342 1.087.535 1.632.569a3.944 3.944 0 001.62-.244 6.193 6.193 0 001.571-.872 12.506 12.506 0 001.493-1.318c.298-.255.587-.51.894-.765.297-.246.601-.447.92-.604.31-.157.623-.235.95-.25.318-.015.647.085.987.3.34.215.596.486.76.814.165.327.259.668.281 1.022a3.39 3.39 0 01-.13 1.103 4.279 4.279 0 01-.47 1.047c-.41.636-.908 1.125-1.493 1.45a3.522 3.522 0 01-1.862.449c-.524.056-.878.21-1.044.473a.914.914 0 00-.127.345c-.026.13-.025.263-.007.388.02.124.064.25.136.37.072.119.163.212.282.29.153.098.334.162.553.184a4.25 4.25 0 001.405-.045 5.36 5.36 0 001.433-.493 6.414 6.414 0 001.336-.913c.215-.199.422-.406.612-.632l.865.556a.856.856 0 00.681.121.873.873 0 00.562-.397.82.82 0 00.111-.654.87.87 0 00-.398-.545l-.874-.557c.164-.36.283-.723.368-1.097a5.284 5.284 0 00.085-1.934 4.683 4.683 0 00-.64-1.76c-.338-.54-.785-1-1.362-1.362-.594-.381-1.137-.582-1.673-.615z" fill="#000"/><path d="M204.264 9.948l1.299 6.623 6.429 2.108-6.64 1.299-2.108 6.411-1.3-6.622-6.413-2.108 6.624-1.3 2.109-6.41z" fill="#fff"/><path d="M82.4 70.064l.731 3.723 3.604 1.184-3.723.73-1.185 3.604-.73-3.723-3.613-1.185 3.732-.73 1.185-3.603z" fill="#fff"/><path d="M305.76 110.143c15.575.966 28.984-10.873 29.95-26.444.966-15.57-10.877-28.976-26.452-29.941-15.574-.966-28.984 10.873-29.95 26.444-.966 15.57 10.877 28.975 26.452 29.941z" fill="#EE7D8B"/><path d="M305.997 106.33c13.468.835 25.064-9.403 25.899-22.867.835-13.465-9.406-25.057-22.874-25.892-13.468-.835-25.064 9.403-25.899 22.867-.835 13.465 9.406 25.057 22.874 25.892z" stroke="#000" stroke-width="3" stroke-miterlimit="10"/><path d="M313.319 88.978a7.08 7.08 0 00-.265-2.809c-.272-.927-.703-1.832-1.276-2.715a32.963 32.963 0 00-1.849-2.562 55.494 55.494 0 01-1.567-1.807c-.497-.595-.9-1.185-1.209-1.77a4.352 4.352 0 01-.519-1.741c-.042-.584.134-1.153.53-1.709.361-.51.792-.892 1.325-1.126a3.897 3.897 0 011.654-.352c.58.004 1.17.104 1.769.314a7.13 7.13 0 011.689.857c.482.328.899.684 1.238 1.034.355.352.645.73.872 1.12.227.391.42.827.564 1.275.144.464.27.974.36 1.544.147.402.378.73.709.954.406.292.84.382 1.3.3.46-.08.82-.31 1.078-.686.138-.195.215-.426.247-.69.063-.765 0-1.522-.189-2.256a8.294 8.294 0 00-.842-2.123 10.314 10.314 0 00-1.403-1.922 6.983 6.983 0 00-.606-.602l.947-1.354c.258-.36.346-.763.293-1.174a1.46 1.46 0 00-.613-.995c-.376-.258-.778-.362-1.206-.294a1.48 1.48 0 00-1.029.658l-.947 1.353a10.354 10.354 0 00-1.67-.653 9.109 9.109 0 00-3.165-.337 7.706 7.706 0 00-3.003.849c-.94.49-1.754 1.209-2.409 2.157-.654.932-1.027 1.881-1.134 2.847-.107.966.006 1.93.323 2.891.317.961.791 1.916 1.438 2.866.648.95 1.391 1.86 2.23 2.759.437.544.858 1.088 1.28 1.632a8.079 8.079 0 011.01 1.678 4.46 4.46 0 01.381 1.703c-.004.564-.197 1.148-.609 1.72-.413.585-.911 1.025-1.508 1.286a4.597 4.597 0 01-1.846.419 5.611 5.611 0 01-1.942-.324 7.061 7.061 0 01-1.811-.913c-1.113-.775-1.918-1.703-2.464-2.772-.53-1.069-.759-2.181-.656-3.336-.051-.944-.31-1.572-.762-1.882a1.492 1.492 0 00-.596-.257 2.54 2.54 0 00-.688-.043 1.977 1.977 0 00-.672.21 1.437 1.437 0 00-.532.484c-.189.255-.303.578-.374.966a7.594 7.594 0 00-.03 2.508c.134.871.379 1.733.765 2.589a11.2 11.2 0 001.527 2.448c.337.397.69.78 1.076 1.133l-1.051 1.504c-.258.36-.345.763-.262 1.192.083.428.297.771.673 1.03.346.24.733.328 1.147.243a1.55 1.55 0 00.999-.675l1.067-1.518c.623.32 1.267.564 1.915.746 1.158.307 2.313.41 3.434.291a8.446 8.446 0 003.186-1.01c.991-.55 1.84-1.33 2.528-2.306.654-.933 1.044-1.897 1.15-2.847z" fill="#000"/><path d="M324.395 85.68l1.299 6.622 6.413 2.108-6.624 1.3-2.109 6.41-1.299-6.622-6.429-2.109 6.64-1.298 2.109-6.411z" fill="#fff"/><path d="M347.667 40.915c5.327.33 9.913-3.72 10.243-9.044.331-5.326-3.72-9.91-9.046-10.24-5.327-.331-9.913 3.718-10.244 9.043-.33 5.326 3.72 9.91 9.047 10.24z" fill="#EE7D8B"/><path d="M347.748 39.61a8.355 8.355 0 101.035-16.676 8.355 8.355 0 10-1.035 16.676z" stroke="#000" stroke-miterlimit="10"/><path d="M350.252 33.676a2.408 2.408 0 00-.09-.96 3.537 3.537 0 00-.436-.929 11.383 11.383 0 00-.633-.876 19.515 19.515 0 01-.536-.618 3.482 3.482 0 01-.413-.605 1.495 1.495 0 01-.178-.596.886.886 0 01.181-.584c.124-.175.271-.305.453-.385.177-.08.368-.122.566-.12.199 0 .4.035.605.107.205.071.398.169.578.293.165.112.307.234.423.353.122.12.221.25.299.384.077.133.143.282.193.436.049.158.092.333.122.528.051.137.13.25.243.326.139.1.287.13.445.103a.543.543 0 00.368-.235.498.498 0 00.085-.236c.021-.262 0-.52-.065-.772a2.85 2.85 0 00-.288-.726 3.566 3.566 0 00-.687-.863l.324-.463a.553.553 0 00.1-.402.497.497 0 00-.209-.34.557.557 0 00-.413-.1.508.508 0 00-.352.224l-.324.463a3.534 3.534 0 00-.571-.223 3.113 3.113 0 00-1.082-.115c-.362.025-.7.122-1.027.29-.322.168-.6.413-.824.738a2.077 2.077 0 00-.388.974c-.037.33.002.66.11.988.109.329.271.656.492.98.222.325.476.636.763.944.149.186.293.372.438.558.144.186.26.381.345.574.085.193.126.389.13.582a1.009 1.009 0 01-.208.588c-.141.2-.312.351-.516.44a1.57 1.57 0 01-.631.144 1.917 1.917 0 01-.664-.111 2.406 2.406 0 01-.619-.312 2.562 2.562 0 01-.843-.948 2.102 2.102 0 01-.225-1.141c-.017-.323-.106-.538-.26-.644a.519.519 0 00-.204-.088.865.865 0 00-.235-.014.667.667 0 00-.23.071.491.491 0 00-.182.166.773.773 0 00-.128.33 2.59 2.59 0 00-.01.858c.046.298.129.593.261.885a3.79 3.79 0 00.89 1.225l-.359.514a.513.513 0 00-.09.408.534.534 0 00.231.352c.118.083.25.113.392.084a.528.528 0 00.341-.231l.365-.52c.214.11.434.194.656.256.396.105.79.14 1.174.1.384-.041.745-.158 1.09-.346.339-.188.629-.455.864-.789.224-.319.357-.648.393-.974z" fill="#000"/><path d="M354.04 32.548l.445 2.265 2.193.72-2.266.445-.721 2.193-.444-2.265-2.199-.721 2.271-.445.721-2.192z" fill="#fff"/><path d="M170.436 38.138l.808 4.176 4.03 1.317-4.163.824-1.317 4.029-.824-4.162-4.029-1.332 4.161-.809 1.334-4.043z" fill="#fff"/></svg>