<?xml version="1.0" encoding="UTF-8" standalone="no"?>
<svg width="36" xmlns="http://www.w3.org/2000/svg" fill="none" viewBox="0 0 36 36" height="36">
 <path fill="#2B58CD" clip-rule="evenodd" d="m5.0688 30.521c0.5524-1.621 1.437-2.558 2.8513-3.31 0.5251-0.279 1.232-0.46 2.0586-0.672 0.6693-0.171 1.4183-0.363 2.2113-0.643-0.006-0.048 0.278-0.707 0.407-0.962 0.284-0.558 0.714-0.792 1.341-0.782 0.1-0.498 0.121-1.006 0.019-1.5-0.048-0.06-0.389-0.509-0.486-0.646-0.28-0.397-0.444-1.137-0.527-1.948-0.006-0.07-0.056-0.172-0.111-0.192-0.096-0.037-0.206-0.042-0.312-0.046-0.011-0.001-0.021-0.001-0.031-0.002-0.152-0.005-0.32-0.115-0.377-0.257-0.029-0.072-0.058-0.144-0.086-0.217-0.086-0.216-0.172-0.433-0.264-0.647-0.044-0.105-0.093-0.209-0.142-0.312-0.058-0.124-0.117-0.248-0.168-0.375-0.052-0.131-0.084-0.273-0.117-0.412-0.005-0.023-0.01-0.045-0.015-0.067-0.014-0.059-0.028-0.117-0.043-0.176-0.048-0.199-0.097-0.398-0.122-0.601-0.047-0.385 0.063-0.747 0.201-1.098 0.014-0.009 0.027-0.018 0.04-0.026 0.036-0.03 0.061-0.067 0.077-0.109-0.833-1.31-0.244-4.099 0.289-5.425 0.668-1.6561 1.955-2.8995 3.645-3.4277 0.522-0.1626 2.003-0.3253 2.547-0.3148 0.479 0.0105 2.023 0.2344 2.507 0.4005 0.004 0 0.009 0.0018 0.012 0.0035 1.696 0.5999 2.754 1.4236 2.902 3.0431 1.444 0.5654 1.634 2.9994 1.363 4.3514-0.084 0.427-0.234 0.9-0.401 1.221l0.005 0.052c0.066 0.044 0.161 0.124 0.185 0.185 0.291 0.424 0.327 0.796 0.277 1.197-0.031 0.248-0.081 0.461-0.137 0.702-0.003 0.014-0.006 0.027-0.01 0.041-0.034 0.146-0.101 0.317-0.158 0.463-0.006 0.014-0.012 0.029-0.017 0.042-0.052 0.13-0.111 0.255-0.17 0.381-0.047 0.1-0.095 0.201-0.138 0.303-0.057 0.135-0.12 0.261-0.182 0.387-0.071 0.141-0.141 0.282-0.202 0.435-0.059 0.144-0.228 0.252-0.379 0.259-0.01 0-0.021 0.001-0.031 0.001-0.106 0.005-0.216 0.01-0.312 0.046-0.055 0.021-0.105 0.123-0.112 0.193-0.082 0.811-0.199 1.537-0.551 2.018-0.214 0.294-0.388 0.502-0.481 0.613-0.006 0.007-0.011 0.014-0.016 0.02-0.081 0.435-0.087 0.934 0.053 1.483-0.002-0.006-0.003-0.012-0.004-0.018-0.002-0.006-0.003-0.013-0.005-0.019 0.825 0.06 1.027 0.173 1.333 0.775 0.129 0.254 0.415 0.899 0.412 0.92 0.811 0.286 1.577 0.485 2.263 0.662 0.853 0.221 1.583 0.41 2.119 0.695 1.414 0.753 2.299 1.691 2.852 3.312-3.272 3.379-7.857 5.479-12.932 5.479s-9.6591-2.1-12.931-5.479z" fill-rule="evenodd"/>
 <path fill="#7393DA" clip-rule="evenodd" d="m30.932 30.521c3.137-3.24 5.068-7.655 5.068-12.521 0-9.9411-8.059-18-18-18-9.9411 0-18 8.0589-18 18 0 4.866 1.9311 9.282 5.0687 12.521 0.5525-1.621 1.437-2.558 2.8513-3.31 0.5252-0.279 1.2321-0.461 2.0587-0.672 0.6693-0.172 1.4183-0.363 2.2113-0.643-0.007-0.048 0.278-0.707 0.407-0.962 0.284-0.558 0.714-0.793 1.341-0.782 0.1-0.499 0.121-1.006 0.019-1.501-0.048-0.059-0.389-0.509-0.486-0.645-0.28-0.397-0.444-1.137-0.527-1.948-0.006-0.07-0.056-0.172-0.111-0.193-0.096-0.036-0.206-0.041-0.312-0.046-0.011 0-0.021 0-0.031-0.001-0.152-0.005-0.32-0.115-0.377-0.257-0.029-0.072-0.058-0.144-0.086-0.217-0.086-0.216-0.172-0.433-0.264-0.647-0.044-0.106-0.093-0.209-0.142-0.312-0.059-0.125-0.117-0.248-0.168-0.375-0.052-0.131-0.084-0.273-0.117-0.413-0.005-0.022-0.01-0.044-0.015-0.067-0.014-0.058-0.028-0.116-0.043-0.175-0.048-0.199-0.097-0.398-0.122-0.601-0.047-0.385 0.063-0.747 0.201-1.098 0.014-0.009 0.027-0.018 0.039-0.026 0.037-0.03 0.062-0.067 0.078-0.109-0.833-1.31-0.244-4.099 0.289-5.425 0.668-1.6562 1.955-2.8997 3.645-3.4279 0.522-0.1626 2.003-0.3253 2.547-0.3148 0.479 0.0105 2.023 0.2344 2.507 0.4005 0.004 0 0.009 0.0018 0.012 0.0035 1.696 0.5999 2.754 1.4236 2.902 3.0431 1.444 0.5646 1.634 2.9996 1.363 4.3516-0.084 0.426-0.234 0.9-0.401 1.22l0.005 0.053c0.066 0.044 0.161 0.124 0.185 0.185 0.291 0.424 0.327 0.796 0.277 1.196-0.031 0.249-0.081 0.461-0.137 0.703l-0.01 0.041c-0.034 0.146-0.101 0.317-0.158 0.463-0.006 0.014-0.012 0.028-0.017 0.042-0.052 0.129-0.111 0.255-0.17 0.381-0.047 0.1-0.095 0.2-0.138 0.303-0.057 0.135-0.12 0.261-0.182 0.387-0.071 0.141-0.141 0.282-0.202 0.435-0.059 0.143-0.228 0.252-0.379 0.259-0.01 0-0.021 0.001-0.031 0.001-0.106 0.005-0.216 0.009-0.312 0.046-0.055 0.021-0.105 0.123-0.112 0.192-0.082 0.812-0.199 1.538-0.551 2.019-0.214 0.294-0.388 0.502-0.481 0.613-0.006 0.007-0.011 0.014-0.016 0.02-0.081 0.435-0.087 0.934 0.053 1.483-0.004-0.012-0.005-0.025-0.009-0.037 0.825 0.06 1.027 0.173 1.333 0.775 0.129 0.254 0.415 0.899 0.412 0.92 0.811 0.286 1.577 0.484 2.263 0.662 0.853 0.221 1.582 0.41 2.119 0.695 1.414 0.753 2.299 1.691 2.852 3.312z" fill-rule="evenodd"/>
 <circle cy="18" cx="18" r="17.5" stroke="#7D9BDB"/>
</svg>
