<svg width="361" height="265" viewBox="0 0 361 265" fill="none" xmlns="http://www.w3.org/2000/svg"><path d="M153.28 54.04a1 1 0 00-1.12.4l-11.1 16.5-13.79 4.1a1 1 0 00-.5.35l-8.56 11.08-7.68-6.35a1 1 0 00-1.02-.15L92.97 86.8 46.04 63.9a1 1 0 00-.82-.03l-27.55 11.2a1 1 0 00-.56.57l-17.04 44a1 1 0 001.86.72L7 107.28V263h1V106h-.5l11.32-29.24L45 66.12V130h1V66.1l46.5 22.7a1 1 0 00.82.02l16.4-6.77 8.01 6.62a1 1 0 001.43-.16l1.84-2.39V263h1V84.83l6.15-7.97 13.82-4.1a1 1 0 00.54-.4l10.9-16.19 31.8 9.59a1 1 0 001.06-.34l7.12-8.97 28 25.04 4.86 11.69a1 1 0 001.84.01L235 77.4V143h1V75.11l1.16-2.64 9.94-6.56L273.25 75H273v34h1V75.26l37 12.86V263h1V88.46l15.17 5.28a1 1 0 00.83-.08l7.9-4.56 5.83 4.49a1 1 0 001.3-.07l5.97-5.68V263h1V86.89l10.69-10.17a1 1 0 00-1.38-1.45l-17.04 16.2-5.68-4.37a1 1 0 00-1.11-.07l-8.08 4.67-80.11-27.85a1 1 0 00-.88.11l-10.6 7a1 1 0 00-.37.44l-8.24 18.84-4.05-9.73a.99.99 0 00-.25-.36l-28.97-25.9a1 1 0 00-1.45.13l-7.35 9.26-31.85-9.6z" fill="#13C8A4"/><path d="M45 263V136h1v127h-1z" fill="#13C8A4"/><path d="M83 158v6h1v-6h-1z" fill="#13C8A4"/><path d="M83 263v-82h1v82h-1z" fill="#13C8A4"/><path d="M273 172v91h1v-91h-1z" fill="#13C8A4"/><path d="M235 143v59h1v-59h-1z" fill="#13C8A4"/><path d="M232.56 47.72a.88.88 0 00-.06.03l2.53-5.51a8.8 8.8 0 013.53-3.95l12.3-7.24a1.38 1.38 0 011.22-.08l.19.08a1.56 1.56 0 01.87 1.89l-1.54 1.75c-.17.2-.37.37-.59.51l-3.24 2.15 4.15-2.24c.3-.16.57-.37.8-.61l1.91-1.97c.4-.42.69-.93.84-1.49l.7-3.53c.1-.55.4-1.04.83-1.39l.92-.74c.46-.37 1.14.02 1.1.63l-.08 1.27s1.66-1.02 2.22-.66l.06-.02c.12.02.16.22.13.56-.15 2.04-.92 4.06-1.67 6.03-.34.87-.67 1.74-.94 2.6-.83 2.6-2.64 4.77-4.88 6.65-2.48 2.07-5.48 3.8-8.28 5.42-1.45.83-2.84 1.64-4.08 2.44l-3.41 11.52-7.66-7.46.39-1.43c.3-1.15.67-2.53.91-3.33l.21-.63.57-1.22.05-.03z" fill="#fff" stroke="#2854C6" stroke-width="0.8" stroke-linecap="round" stroke-linejoin="round"/><path d="M111.9 47.72l.05.03-2.52-5.51a8.8 8.8 0 00-3.53-3.95l-12.3-7.24a1.39 1.39 0 00-1.23-.08l-.18.08a1.56 1.56 0 00-.87 1.89l1.53 1.75c.18.2.37.37.6.51l3.24 2.15-4.16-2.24c-.3-.16-.57-.37-.8-.61l-1.9-1.97a3.5 3.5 0 01-.85-1.49l-.7-3.53c-.1-.55-.4-1.04-.82-1.39l-.93-.74c-.45-.37-1.14.02-1.1.63l.09 1.27s-1.66-1.02-2.23-.66l-.05-.02c-.13.02-.17.22-.14.56.15 2.04.92 4.06 1.68 6.03.33.87.67 1.74.94 2.6.83 2.6 2.64 4.77 4.88 6.65 2.47 2.07 5.47 3.8 8.27 5.42 1.45.83 2.84 1.64 4.08 2.44l3.41 11.52 7.66-7.46-.38-1.43c-.31-1.15-.68-2.53-.92-3.33a6.2 6.2 0 00-.21-.63 125 125 0 01-.57-1.22 1.67 1.67 0 00-.05-.03z" fill="#fff" stroke="#2854C6" stroke-width="0.8" stroke-linecap="round" stroke-linejoin="round"/><path fill-rule="evenodd" clip-rule="evenodd" d="M242.92 9.28l.56 1.62a4.46 4.46 0 015.39 2.87 4.53 4.53 0 01-.45 3.9 4.52 4.52 0 01.27 8.4l.55 1.6a.97.97 0 01-.6 1.24.96.96 0 01-1.24-.6l-.55-1.6-2 .7.55 1.6a.97.97 0 01-.6 1.24.96.96 0 01-1.24-.6l-.55-1.6-.01.01-3.18 1.12a.96.96 0 01-1.24-.6.97.97 0 01.6-1.25l1.3-.46-3.94-11.48-1.3.46a.96.96 0 01-1.24-.6.97.97 0 01.6-1.25l3.2-1.12-.56-1.61a.97.97 0 01.6-1.25.96.96 0 011.24.6l.55 1.62 2-.7-.55-1.61a.97.97 0 01.6-1.25.96.96 0 011.24.6zm.27 3.79h-.04l-4.73 1.67-.04.01 1.65 4.81 5.44-1.9a2.55 2.55 0 00-1.66-4.81l-.58.2-.04.02zm4.57 11.25l-5.44 1.9-1.65-4.8 5.44-1.91a2.55 2.55 0 011.65 4.81z" fill="#2854C6"/><path fill-rule="evenodd" clip-rule="evenodd" d="M104.98 10.04l.6-1.68c.18-.54-.09-1.12-.63-1.31a1 1 0 00-1.3.62l-.6 1.69-3.34-1.2a1 1 0 00-1.3.62c-.2.55.08 1.12.62 1.32l1.36.48-4.22 12.01-1.37-.49a1 1 0 00-1.3.63c-.2.54.08 1.12.62 1.31l3.32 1.2h.02l-.58 1.66c-.2.54.08 1.12.62 1.31a1 1 0 001.3-.62l.59-1.67 2.1.76-.6 1.66c-.18.54.09 1.12.63 1.31a1 1 0 001.3-.62l.59-1.68a4.68 4.68 0 005.68-2.97c.5-1.41.29-2.9-.44-4.08a4.74 4.74 0 00.35-8.8l.6-1.7a1.02 1.02 0 00-.63-1.32 1 1 0 00-1.3.63l-.6 1.68-2.09-.75zm-1.68 1.58l.04.02h.03l4.64 1.67a2.67 2.67 0 01-1.77 5.03l-5.7-2.03 1.78-5.04.04.02h.03l.91.33zm-4.17 12.03l4.65 1.67c1.38.5 2.9-.23 3.39-1.63.49-1.4-.23-2.91-1.62-3.41l-5.69-2.04-1.77 5.04 1 .35.02.01.02.01z" fill="#2854C6"/><path d="M40.04 130.82c-.05.25-.05.49 0 .73.02.08.02.16.05.24.1.28.24.55.47.78h.01l.01.02 31.05 28.8c.03.02.06.01.09.04.22.19.49.35.8.41.3.07.61.04.9-.04h.1l39.4-13.2a1.85 1.85 0 00.91-.71c.15-.2.25-.42.3-.66.02-.05.06-.09.07-.14l-.01-.06c.03-.28.03-.57-.07-.85l-22.3-66.46-.05-.07a2.2 2.2 0 00-.27-.47l-.13-.17-.05-.07-.12-.07a1.8 1.8 0 00-.23-.16 1.32 1.32 0 00-.44-.2l-.12-.05h-.12c-.08-.01-.15-.03-.23-.03-.09 0-.17 0-.26.02-.1 0-.18.02-.27.05l-.13.01-.06.04-.22.1c-.09.06-.17.1-.25.17-.06.04-.12.08-.17.14l-.07.04-48.14 50.87c-.21.21-.34.47-.42.75l-.04.06c-.01.04.01.1 0 .14zM90.42 87.5l18.14 54.04-25.58-19.37 7.44-34.67zm-11.16 33.84l-31.79 6.7 39.25-41.46-7.46 34.76zm-.88 4.1l-6.62 30.87-25.9-24.02 32.52-6.85zm-2.9 31.66l6.62-30.82 26.18 19.83-32.8 10.99z" fill="#13C8A4"/><path d="M112.6 153.72a1.92 1.92 0 00-2.24-.86l-38.64 12.75-29.9-27.92a1.91 1.91 0 00-2.39-.17c-.73.52-1 1.48-.65 2.31l24.51 57.64.08.1.18.3c.03.04.05.1.09.13.02.04.07.04.1.07l.15.16a1.82 1.82 0 00.74.36h.01c.28.06.56.04.82-.02.07-.01.13-.05.2-.08h.13l.13-.1c.1-.06.2-.12.28-.19.03-.03.08-.03.12-.06l45.92-42.04c.66-.61.8-1.6.35-2.38zm-43.43 14.72l-4.73 22.02-18.65-43.86 23.38 21.84zm-1.02 22.84l4.73-22.02 30.22-9.97-34.95 31.99z" fill="#13C8A4"/><path d="M233.14 137.81c.04.19.12.35.23.5l.11.15c.16.17.34.3.57.39h.02l30.53 9.72c.02.01.05 0 .07 0 .22.06.45.09.69.03.23-.05.43-.17.6-.32l.08-.04 22.99-21.96a1.43 1.43 0 00.4-.79c.04-.18.04-.36 0-.55v-.11c0-.02-.02-.03-.03-.05a1.4 1.4 0 00-.31-.56l-36.42-38.55-.05-.03-.14-.11a1.69 1.69 0 00-.19-.13l-.15-.07-.06-.03-.1-.01a1.36 1.36 0 00-.2-.04l-.2-.01a1 1 0 00-.18.02h-.1c-.03 0-.05.03-.08.04l-.17.06c-.06.02-.11.06-.17.1-.06.03-.12.07-.17.12l-.08.05-.04.04-.11.15c-.05.06-.09.12-.12.2l-.08.14c0 .03-.02.04-.03.06L233.15 137a1.4 1.4 0 00-.06.65v.06c0 .03.04.06.05.1zm21.03-46.32l29.62 31.35-23.78-5-5.84-26.35zm3.02 26.98l-19.8 15 13.94-41.4 5.86 26.4zm.69 3.11l5.2 23.45-25.46-8.1 20.26-15.35zm8.02 22.78l-5.2-23.4 24.34 5.12-19.14 18.28z" fill="#13C8A4"/><path d="M290.53 129.9a1.46 1.46 0 00-1.81.14l-22.61 21.4-29.46-9.5a1.46 1.46 0 00-1.41 2.48l35.14 31.74c.03.02.06.02.09.05l.22.14.1.07h.1l.15.06c.2.05.4.06.62.01.22-.05.4-.15.57-.28l.11-.12c.02-.02.06-.02.08-.05.03-.03.04-.07.06-.1.06-.07.1-.15.14-.23.01-.03.05-.04.06-.08l18.36-43.98c.26-.63.05-1.36-.51-1.75zm-25.29 24.32l3.71 16.73-26.74-24.16 23.03 7.43zm6.53 16.09l-3.7-16.74 17.68-16.73-13.98 33.47z" fill="#13C8A4"/><path d="M149.83 232.86c-1.1 5.76-3.06 9.83-5.33 12.9-.2.3-.39.5-.59.8-.49.59-.98 1.08-1.47 1.58-.3.3-.5.5-.8.7a29.08 29.08 0 01-7.96 4.84c-6.2 2.67-6.5 9.52-6.5 9.52l48.58-.2c-.58-8.15-.57-23.54-.57-23.54-10.13-3-15.04-4.89-25.36-6.6z" fill="#2854C6"/><path d="M144.4 245.76c-.2.3-.4.5-.59.8 1.97.9 3.93 1.89 5.9 2.78.59.3 1.08-.59.5-.79-1.97-1-3.84-1.9-5.8-2.79z" fill="#fff"/><path d="M142.33 248.14c-.3.3-.49.5-.78.7 2.16 1.1 4.42 2.09 6.58 3.18.59.3 1.08-.59.5-.79-2.07-1.1-4.23-2.1-6.3-3.09z" fill="#fff"/><path d="M217.17 228.5c4.52 3.67 7.17 7.35 8.74 10.83.1.3.3.6.4.9.3.7.49 1.39.68 2.08l.3 1c.78 3.47.68 6.75.48 9.43-.5 6.75 5.3 10.24 5.3 10.24l22.47-43.45c-6.78-4.78-13.27-9.26-18.48-14.54a215.3 215.3 0 00-19.89 23.5z" fill="#2854C6"/><path d="M145 126.36s11.72-4.94 21.36-6.21c-.59-8.55-.78-14.2-.78-14.2l31.08 2.14c3.33 19.37 4.68 47.48 18.82 72.23 6.38 11.24 17.4 20.2 28.89 30.25-6.4 8.82-16.64 20.42-23.14 29.25-1.87-3.08-29.6-17.94-43.72-56 .36 30.5 1.42 61.68 1.42 61.68l-35.21-2.35s-4.76-64.47 1.29-116.79z" fill="#2854C6"/><path d="M179.72 246.2v-.8c0-.3-.96-28.7-1.43-57.6 11.59 28.22 30.46 42.86 38.61 49.23 1.77 1.4 3.35 2.59 3.64 3.08l.59 1 .69-.9c3.05-4.16 7.09-9.02 10.93-13.68 4.33-5.35 8.86-10.8 12.31-15.57l.4-.6-.5-.49c-1.18-1-2.36-2.09-3.53-3.08-10.03-8.76-19.47-17.02-25.16-26.97-11.4-19.98-14.42-42.13-16.96-60-.59-4.28-1.17-8.35-1.76-12.03l-.1-.6-32.45-2.24v.8c0 .1.19 5.46.77 13.5-9.54 1.37-20.76 6.12-20.86 6.22l-.4.2-.1.4c-5.94 51.72-1.28 116.18-1.28 116.87v.7l36.59 2.55zm-3-66.65l.1 4.27c.37 27.41 1.23 55.72 1.42 60.88l-33.73-2.25c-.49-6.85-4.27-66.74 1.28-115.5 2.17-.88 12.3-4.93 20.77-6.01l.68-.1-.1-.7c-.48-6.55-.67-11.51-.77-13.3l29.7 2.04c.6 3.58 1.08 7.35 1.67 11.43 2.54 17.97 5.56 40.32 17.05 60.5 5.8 10.15 15.33 18.5 25.45 27.36.99.9 1.97 1.8 3.05 2.6-3.35 4.55-7.68 9.8-11.82 14.86-3.64 4.47-7.38 9.03-10.44 13a66.3 66.3 0 00-3.34-2.7c-8.45-6.56-28.4-22.1-39.69-52.4l-1.27-3.98z" fill="#2854C6"/><path d="M225.92 239.24c.1.3.3.6.39.89 1.77-1.29 3.44-2.67 5.22-3.96.49-.4 0-1.3-.5-.9a100.58 100.58 0 01-5.11 3.97z" fill="#fff"/><path d="M227 242.21l.3 1c1.96-1.49 3.93-2.88 5.8-4.36.49-.4 0-1.3-.5-.9-1.86 1.5-3.73 2.88-5.6 4.26z" fill="#fff"/><path d="M175.27 178.96c.1 0 .2 0 .3-.1.4-.1.59-.6.4-1-6.97-18.38-9.61-39.54-9.61-39.74l-.1-.6h-.59c-.1 0-5.5-.3-9.15-1.3-.39-.1-.78.1-.88.5-.1.39.1.79.49.89 3.05.8 7.28 1.2 8.85 1.3.49 3.68 3.23 22.75 9.6 39.45.1.4.4.6.7.6z" fill="#fff"/><path d="M112.23 41.3c4.81 4.69 12.25 13.37 19.34 16.2 8.84 3.56 24.45-15.68 35.48-14.51l-2.82 19.36s-9.3 19.34-26.47 23.1c-17.17 3.78-34.65-26.58-34.74-26.67 2.2-5.12 5.18-13.96 9.21-17.49z" fill="#13C8A4"/><path d="M134.7 86.51c1.04 0 2.1-.08 3.15-.34 17.25-3.86 26.81-23.3 26.9-23.47l.09-.18 2.9-20.06-.7-.09c-5.6-.54-12.17 3.78-18.48 7.92-6.48 4.32-12.62 8.29-16.82 6.6-5.6-2.22-11.37-8.24-16.1-13.03-1.05-1.15-2.1-2.12-3.06-3.1l-.44-.44-.43.35c-3.33 2.91-5.88 9.19-7.99 14.22-.52 1.24-.96 2.39-1.4 3.45l-.18.44.35.35c2.98 4.96 17.23 27.35 32.2 27.38zm28.83-24.34c-.7 1.41-9.92 19.08-25.95 22.67-15.06 3.33-30.71-20.93-33.86-26.15.44-.97.88-2.03 1.32-3.18 1.93-4.68 4.21-10.51 7.19-13.33l2.54 2.56c4.72 4.88 10.67 10.99 16.53 13.3 4.9 1.95 11.3-2.28 18.05-6.77 5.78-3.8 11.74-7.76 16.73-7.75h.18l-2.73 18.65z" fill="#13C8A4"/><path d="M232.74 40.43c-4.82 4.67-12.27 13.32-19.37 16.14-8.84 3.52-24.41-15.79-35.45-14.66l2.79 19.37s9.26 19.38 26.42 23.21c17.16 3.84 34.7-26.45 34.79-26.54-2.19-5.13-5.16-13.98-9.18-17.52z" fill="#13C8A4"/><path d="M175.55 36.8l1.67 4.28-18.59 2.14-.87-8.73 17.8 2.31z" fill="#13C8A4"/><path d="M160.98 41.65c10.43-8.12 31.86 6.02 35.3 18.04 3.43 12.02 7.5 70.33 7.5 70.33L140.54 129s5.17-62.95 12.56-73.56c7.29-10.71 4.34-11.12 7.88-13.8z" fill="#13C8A4"/><path d="M147.1 75.5c.29 0 .68-.2.68-.6 0-.1 1.29-5.96 3.96-15.1.1-.39-.1-.79-.5-.89-.39-.1-.78.1-.88.5a172.86 172.86 0 00-3.96 15.19c-.1.4.2.8.6.9h.1z" fill="#fff"/><path d="M152.14 26.9c-.05-7.93 5.72-14.57 12.82-14.78 7.1-.21 12.96 5.95 13 13.88l.04.09c.76-.05 1.46.04 1.99.22 4.13 1.02 5.2 4.97 2.89 7.62-2.03 2.3-5.63 3.85-8.99 2.34a14.8 14.8 0 01-8.75 4.5c-10.05 1.23-12.96-5.94-13-13.87z" fill="#fff"/><path d="M180.4 36.68a9.43 9.43 0 003-2.35 5.33 5.33 0 001.14-4.91c-.56-1.9-2.2-3.28-4.48-3.9-.49-.1-.97-.18-1.55-.23-.09-3.76-1.52-7.3-3.96-9.92a12.65 12.65 0 00-9.66-4.09c-3.68.17-7.1 1.85-9.6 4.82a16.7 16.7 0 00-3.95 10.75c.03 5.76 1.48 9.84 4.2 12.32 2.27 2.04 5.53 2.84 9.49 2.32a15.7 15.7 0 008.92-4.38c2.37.8 4.64.45 6.44-.43zM160.4 14.02c1.44-.7 2.92-1.1 4.56-1.14 3.24-.18 6.3 1.15 8.57 3.64a14.4 14.4 0 013.67 9.52l-.03.67.7.09c.67 0 1.38.09 1.86.18 1.76.44 3.01 1.46 3.36 2.92a3.57 3.57 0 01-.82 3.46c-1.71 2.03-5 3.53-8.19 2.16l-.43-.22-.37.4a13.36 13.36 0 01-8.3 4.28c-3.56.44-6.42-.23-8.44-1.96-2.46-2.17-3.75-5.9-3.8-11.2a14.53 14.53 0 013.53-9.8c1.28-1.27 2.7-2.3 4.13-3z" fill="#2854C6"/><path d="M162.8 27.45a.97.97 0 01-1.3-.49c-.22-.5.02-1.08.53-1.31a.97.97 0 011.3.48c.21.5-.03 1.09-.53 1.32z" fill="#2854C6"/><path d="M155.3 30.98c.29-2.21.85-4.34 1.76-6.42.29-.57 1.2-.26.92.31a25.04 25.04 0 00-1.76 6.2c-.06.58-1 .49-.93-.09z" fill="#2854C6"/><path d="M158.11 17.41c2.98 1.16 15.06 1.13 13.6 7.73-.33 1.68-1.2 2.66.37 3.41 1.67.5 2.13-1.37 2.13-1.37 2.02-.44 4.3-.8 5.7-.4 2.88-6.41.48-11.56-2.47-12.18 0 0-20.97-11.64-24.65-4.07-3.15 6.78 5.32 6.88 5.32 6.88z" fill="#2854C6"/><path d="M174.54 31.3a5.22 5.22 0 016.1-1.5c.57.27.23 1.2-.33.93a4 4 0 00-4.95 1.14c-.42.53-1.14-.1-.82-.58z" fill="#2854C6"/><path d="M160.95 34.32a3.13 3.13 0 01-3.76.16c-.3-.22 0-.72.3-.5.9.67 2.14.7 3.05-.1.3-.25.66.2.41.44z" fill="#2854C6"/><path stroke="#13C8A4" d="M273.5 139v8"/></svg>