<svg width="20" height="20" viewBox="0 0 20 20" fill="none" xmlns="http://www.w3.org/2000/svg">
<path fill-rule="evenodd" clip-rule="evenodd" d="M19.6346 0.365431C20.1218 0.852672 20.1218 1.64265 19.6346 2.12989L11.7644 10L19.6345 17.8701C20.1218 18.3574 20.1218 19.1473 19.6345 19.6346C19.1473 20.1218 18.3573 20.1218 17.8701 19.6346L9.99998 11.7645L2.1299 19.6346C1.64266 20.1218 0.85269 20.1218 0.365449 19.6346C-0.121792 19.1473 -0.121792 18.3573 0.365449 17.8701L8.23553 10L0.365431 2.12992C-0.12181 1.64268 -0.12181 0.852708 0.365431 0.365467C0.852672 -0.121774 1.64265 -0.121774 2.12989 0.365467L9.99998 8.23556L17.8701 0.365431C18.3574 -0.12181 19.1473 -0.12181 19.6346 0.365431Z" fill="white"/>
</svg>
